<?xml version="1.0" encoding="UTF-8"?>
<svg width="40px" height="41px" viewBox="0 0 40 41" version="1.1" xmlns="http://www.w3.org/2000/svg" xmlns:xlink="http://www.w3.org/1999/xlink">
    <!-- Generator: Sketch 51.1 (57501) - http://www.bohemiancoding.com/sketch -->
    <title>Female - Avatar</title>
    <desc>Created with Sketch.</desc>
    <defs></defs>
    <g id="Female---Avatar" stroke="none" stroke-width="1" fill="none" fill-rule="evenodd">
        <g id="Avatar">
            <g>
                <path d="M13.4186061,22.1381515 C13.4186061,22.1381515 14.327697,26.9866364 13.7722424,28.5523939 C13.7722424,28.5523939 14.2140606,27.9587576 14.3655758,27.4284545 C14.3655758,27.4284545 15.0934545,30.9939091 14.138303,32.9208788 C14.138303,32.9208788 14.9716364,31.9002727 15.0852727,31.2742121 C15.0852727,31.2742121 15.2501212,32.9987576 14.7889091,34.5317879 L19.138303,30.913303 L19.4792121,27.7314848 L13.4186061,22.1381515 Z" id="Fill-1" fill="#D57576"></path>
                <path d="M16.207,35.6333636 C16.3757879,35.8618485 16.6215455,35.9739697 16.9582121,35.9763939 C16.9806364,35.976697 17.0030606,35.976697 17.0251818,35.976697 C18.897303,35.976697 20.4954848,35.3976061 24.9230606,31.0854848 C23.9563939,30.8509394 23.2694242,30.8251818 23.2694242,30.8251818 C22.2594242,29.7139697 23.1685152,27.037303 23.1685152,27.037303 C26.927303,24.9633636 28.9260909,13.9563939 20.8451818,12.4412424 C13.7239697,12.996697 13.2191212,16.7845758 13.2191212,16.7845758 C12.9836667,17.2315455 12.9245758,18.2606364 12.9382121,19.3691212 C13.9036667,19.3960909 15.1430606,19.6215455 14.986697,20.6230606 C14.7342727,22.2391212 14.986697,22.2897273 14.5321515,23.3503333 C14.0776061,24.4109394 13.8251818,25.2639697 14.7342727,25.1151818 C15.6433636,24.9663939 16.1482121,25.4209394 16.1482121,26.3806364 C16.1482121,27.3403333 16.0763939,28.6336667 16.6397273,29.3506364 C17.3918485,29.5760909 18.0676061,29.5118485 18.0676061,29.5118485 C18.0676061,29.5118485 21.0979091,29.4615455 21.9057879,28.1482121 C21.9057879,28.1482121 20.5421515,32.0876061 17.3603333,31.6585152 C16.9963939,31.7924545 16.6133636,31.9985152 16.2285152,32.2454848 C16.0209394,32.9506364 15.6324545,34.8554848 16.207,35.6333636" id="Fill-3" fill="#FBD6D9"></path>
                <path d="M25.6024242,31.2743636 C21.0915152,35.7198182 19.2815152,36.5828485 17.0184848,36.5828485 C16.9972727,36.5828485 16.9757576,36.5825455 16.9542424,36.5825455 C16.4206061,36.5786061 16.0048485,36.3804242 15.7190909,35.9925455 C15.1148485,35.1737576 15.2948485,33.6725455 15.4778788,32.7740606 C13.8884848,33.9886061 12.4615152,35.6231515 12.4615152,35.6231515 C22.2087879,41.3301212 29.7757576,34.1125455 29.7757576,34.1125455 C28.640303,32.6237576 26.9087879,31.6849697 25.6024242,31.2743636" id="Fill-5" fill="#E98178"></path>
                <path d="M15.719,35.9926364 C16.0047576,36.3802121 16.4205152,36.578697 16.9541515,36.5823333 C16.9756667,36.5823333 16.9971818,36.5826364 17.018697,36.5826364 C19.2814242,36.5826364 21.0914242,35.7199091 25.6023333,31.2744545 C25.3650606,31.1999091 25.1374848,31.1377879 24.9232424,31.0856667 C20.4953636,35.3974848 18.8971818,35.9765758 17.0253636,35.9765758 C17.0032424,35.9765758 16.9808182,35.9765758 16.9583939,35.9762727 C16.6214242,35.9738485 16.3756667,35.8617273 16.2068788,35.6332424 C15.6326364,34.8553636 16.0208182,32.9508182 16.2283939,32.2456667 C15.9774848,32.4068788 15.7256667,32.5850606 15.4780909,32.7741515 C15.2950606,33.6726364 15.1147576,35.1738485 15.719,35.9926364" id="Fill-7" fill="#ECAAAA"></path>
                <path d="M21.9058182,28.1481515 C21.0976364,29.4614848 18.0673333,29.5117879 18.0673333,29.5117879 L17.3603636,31.6584545 C20.5421818,32.0875455 21.9058182,28.1481515 21.9058182,28.1481515" id="Fill-9" fill="#F8B6C1"></path>
                <path d="M16.1482424,26.3805758 C16.1482424,25.4208788 15.6430909,24.9663333 14.734,25.1151212 C13.8249091,25.2639091 14.0776364,24.4108788 14.5321818,23.3502727 C14.9867273,22.2896667 14.734,22.2390606 14.9867273,20.623 C15.1430909,19.6214848 13.903697,19.3960303 12.9382424,19.3690606 C12.9533939,20.6402727 13.064,22.0160303 13.1179394,22.7442121 C13.2188485,24.1078485 14.1279394,26.582697 15.0370303,28.1481515 C15.4333939,28.8302727 16.0594545,29.1766364 16.6397576,29.3505758 C16.0764242,28.6339091 16.1482424,27.3402727 16.1482424,26.3805758" id="Fill-11" fill="#F8B6C1"></path>
                <path d="M15.9309091,15.7239091 C15.9309091,15.7239091 16.3854545,18.5523939 19.6684848,21.1784545 C22.9512121,23.8048182 21.789697,30.5723939 21.789697,30.5723939 C21.789697,30.5723939 23.0018182,26.5320909 22.2442424,23.602697 C22.2442424,23.602697 22.799697,24.9917879 22.8754545,25.7493636 C22.8754545,25.7493636 22.799697,22.4663333 22.0672727,21.2039091 C22.0672727,21.2039091 23.3048485,19.7896667 24.4663636,21.3299697 C25.6278788,22.8705758 24.7442424,24.7390606 24.0624242,24.9917879 C24.0624242,24.9917879 23.9769697,26.0863333 22.96,27.352697 C22.96,27.352697 22.4715152,29.9917879 23.1027273,30.9766364 C23.1027273,30.9766364 24.34,30.9008788 24.4412121,31.4311818 C24.5418182,31.9614848 24.6936364,32.9208788 23.7845455,35.0420909 C23.7845455,35.0420909 24.4915152,34.4614848 24.5672727,33.9814848 C24.5672727,33.9814848 24.3148485,36.102697 23.7339394,37.0875455 C23.7339394,37.0875455 26.8654545,35.143303 26.8148485,33.4260303 C26.8148485,33.4260303 27.0169697,33.5017879 27.0169697,34.082697 C27.0169697,34.082697 28.0521212,32.0117879 27.32,30.7745152 C27.32,30.7745152 28.0775758,31.8857273 28.0521212,32.3402727 C28.0521212,32.3402727 27.8754545,30.1684545 27.2442424,29.2342121 C26.6127273,28.2996667 27.1430303,22.3654242 27.32,21.3554242 C27.4966667,20.3451212 28.1324242,15.5739091 23.5321212,12.8957273 C18.1533333,9.76451515 12.32,14.7139091 13.1027273,16.8857273 C13.1027273,16.8857273 15.2745455,16.4814848 15.9309091,15.7239091 Z" id="Fill-13" fill="#D57576"></path>
                <path d="M19.8060606,3.03039394 C10.3887879,3.03039394 2.72727273,10.6919091 2.72727273,20.1091818 C2.72727273,29.5264545 10.3887879,37.1879697 19.8060606,37.1879697 C29.2233333,37.1879697 36.8848485,29.5264545 36.8848485,20.1091818 C36.8848485,10.6919091 29.2233333,3.03039394 19.8060606,3.03039394 M19.8060606,39.9152424 C8.88484848,39.9152424 0,31.0300909 0,20.1091818 C0,9.1879697 8.88484848,0.303121212 19.8060606,0.303121212 C30.7272727,0.303121212 39.6121212,9.1879697 39.6121212,20.1091818 C39.6121212,31.0300909 30.7272727,39.9152424 19.8060606,39.9152424" id="Fill-15" fill="#FBD6D9"></path>
            </g>
        </g>
    </g>
</svg>