<?xml version="1.0" encoding="UTF-8"?>
<svg width="40px" height="40px" viewBox="0 0 40 40" version="1.1" xmlns="http://www.w3.org/2000/svg" xmlns:xlink="http://www.w3.org/1999/xlink">
    <!-- Generator: Sketch 51.1 (57501) - http://www.bohemiancoding.com/sketch -->
    <title>Male - Avatar</title>
    <desc>Created with Sketch.</desc>
    <defs></defs>
    <g id="Male---Avatar" stroke="none" stroke-width="1" fill="none" fill-rule="evenodd">
        <g id="Avatar">
            <g>
                <path d="M15.5415427,26.5896332 C15.7001785,25.1885624 14.4574261,25.2412294 13.8228832,25.135578 C13.1883403,25.0299266 13.3736268,24.6333373 13.9022011,23.2849336 C14.4310926,21.9365298 14.4574261,21.1960182 14.4574261,20.2708547 C14.4574261,19.6099782 12.6372397,19.3536228 11.5965893,19.2609796 C11.521396,20.5760698 11.6372001,21.9143208 11.7342851,22.2538013 C11.8929209,22.8090264 12.0778901,22.8353599 12.157208,24.791973 C12.2311323,26.6181876 14.9755304,29.547555 15.8140789,30.2100178 C15.3169145,29.0922705 15.4101923,27.7505294 15.5415427,26.5896332" id="Fill-1" fill="#F8B6C1"></path>
                <path d="M24.8745588,31.8775967 C24.7644656,31.8518977 24.6715051,31.8258814 24.5906008,31.7995479 C24.160698,33.349419 22.7298037,34.525227 22.2307357,34.7067063 C21.6488598,34.9180091 21.0409677,35.2089471 19.3223081,34.7067063 C18.6465199,34.5090462 18.2102717,34.1191196 17.9269482,33.7193575 C17.4894309,33.10163 17.4186794,32.4591553 17.4186794,32.4591553 C15.0654769,33.1733333 12.1573666,35.7378386 12.1573666,35.7378386 C24.0813801,41.6336942 29.9509022,33.8605433 29.9509022,33.8605433 C28.2322427,32.6444418 25.6677375,32.0625659 24.8745588,31.8775967" id="Fill-3" fill="#C7AAD1"></path>
                <path d="M22.1514178,29.4187428 C20.8293476,30.5028594 18.0532223,30.7671465 18.0532223,30.7671465 C18.2911759,31.5339917 17.4186794,32.4591553 17.4186794,32.4591553 C17.4186794,32.4591553 17.4894309,33.10163 17.9269482,33.7193575 C21.2208606,32.4696252 22.1514178,29.4187428 22.1514178,29.4187428" id="Fill-5" fill="#F8B6C1"></path>
                <path d="M17.9268213,33.7192623 C18.210462,34.1193417 18.6467103,34.508951 19.3221812,34.7066111 C21.0408408,35.2088519 21.6490502,34.9179139 22.2306088,34.7066111 C22.7299941,34.5251319 24.1608884,33.3493238 24.5907912,31.7994527 C24.0898196,31.6376443 24.107904,31.4809122 24.107904,31.4809122 C23.7639818,29.4979655 24.8744319,26.3782352 24.8744319,26.3782352 C26.9633472,22.9409161 27.3599365,13.5287408 20.8028872,12.81488 C14.2458378,12.1010192 12.6861313,15.6173389 12.0249375,17.0450605 C11.7682649,17.599651 11.6442118,18.4258259 11.5966211,19.2612017 C12.6372715,19.3538449 14.4574579,19.609883 14.4574579,20.2707595 C14.4574579,21.1959231 14.4311243,21.9364347 13.9022328,23.2848384 C13.3733413,24.6332421 13.188372,25.0298314 13.8229149,25.1354828 C14.4574579,25.2411342 15.7002102,25.1884672 15.5415745,26.589538 C15.4102241,27.7507515 15.3169463,29.0921753 15.8141106,30.2099227 C15.874075,30.2571961 15.9257902,30.2949514 15.9644973,30.3174777 C16.5460559,30.6614 18.0530954,30.7670514 18.0530954,30.7670514 C18.0530954,30.7670514 20.8292207,30.5027642 22.1512909,29.4186476 C22.1512909,29.4186476 21.2207337,32.4698473 17.9268213,33.7192623" id="Fill-7" fill="#FBD6D9"></path>
                <path d="M25.4297839,26.3783304 L24.7689074,26.3783304 C24.7689074,26.3783304 23.8567519,25.2678802 24.2930002,24.9506088 C24.7292485,24.6333373 26.4345826,22.8486853 24.7689074,20.7467618 C23.1032322,18.6448384 21.5961927,21.7382352 22.3893714,22.4917549 L22.7859607,24.197089 C22.7859607,24.197089 22.1380924,24.4350426 22.0454491,24.1177712 C21.9531231,23.8004997 20.6840373,22.2141424 21.1202855,20.5484672 C21.1202855,20.5484672 18.8597264,19.5569939 18.8597264,18.5655205 C18.8597264,17.5740472 18.7010906,16.7015507 16.7974618,17.0584811 C14.893833,17.4154115 13.109181,17.6267143 11.919413,17.0451557 C10.7296451,16.4635971 9.73817172,11.6252072 10.0554432,11.188959 C10.3727147,10.7527107 11.2848701,10.4750982 12.7125917,10.9510054 C14.1403133,11.4269126 14.338608,12.0217965 15.2904224,11.6648662 C16.2422368,11.3079358 16.1892524,10.7130518 17.6699584,10.9906643 C18.1766409,11.0855285 20.3930993,10.7130518 20.934999,10.3957803 C21.4772159,10.0785088 24.1210391,9.88021416 25.0728535,11.2286179 C26.0246679,12.5770216 29.5543129,15.5514416 25.4297839,26.3783304" id="Fill-9" fill="#936590"></path>
                <path d="M37.6829942,19.6709878 C37.6829942,9.72332669 29.6185953,1.658953 19.6707991,1.658953 C9.72300296,1.658953 1.65860401,9.72332669 1.65860401,19.6709878 C1.65860401,29.6189238 9.7229572,37.6833432 19.6707991,37.6833432 C29.6186411,37.6833432 37.6829942,29.6189238 37.6829942,19.6709878 Z" id="Stroke-11" stroke="#EDE3F0" stroke-width="3"></path>
            </g>
        </g>
    </g>
</svg>