<?xml version="1.0" encoding="UTF-8"?>
<svg width="40px" height="41px" viewBox="0 0 40 41" version="1.1" xmlns="http://www.w3.org/2000/svg" xmlns:xlink="http://www.w3.org/1999/xlink">
    <!-- Generator: Sketch 51.1 (57501) - http://www.bohemiancoding.com/sketch -->
    <title>GenderNeutral - Avatar</title>
    <desc>Created with Sketch.</desc>
    <defs></defs>
    <g id="GenderNeutral---Avatar" stroke="none" stroke-width="1" fill="none" fill-rule="evenodd">
        <g id="Avatar">
            <g>
                <path d="M13.384697,20.5820909 C13.384697,15.763303 16.8798485,11.763303 21.4725758,10.9720909 C20.9307576,10.8787576 20.3743939,10.8275455 19.8059091,10.8275455 C14.4186364,10.8275455 10.0513636,15.1948182 10.0513636,20.5820909 C10.0513636,25.9693636 14.4186364,30.3366364 19.8059091,30.3366364 C20.3743939,30.3366364 20.9307576,30.2854242 21.4725758,30.1920909 C16.8798485,29.4008788 13.384697,25.4008788 13.384697,20.5820909" id="Fill-1" fill="#F8B6C1"></path>
                <path d="M29.560697,20.5820909 C29.560697,15.763303 26.0655455,11.763303 21.4728182,10.9720909 C16.8797879,11.763303 13.3846364,15.763303 13.3846364,20.5820909 C13.3846364,25.4008788 16.8797879,29.4008788 21.4728182,30.1920909 C26.0655455,29.4008788 29.560697,25.4008788 29.560697,20.5820909" id="Fill-3" fill="#FBD6D9"></path>
                <path d="M19.8060303,25.6214545 C18.982697,25.6214545 18.3378485,24.976303 18.3378485,24.1529697 L18.3378485,23.6750909 C18.3378485,23.5332727 18.452697,23.4184242 18.5945152,23.4184242 C18.7363333,23.4184242 18.8511818,23.5332727 18.8511818,23.6750909 L18.8511818,24.1529697 C18.8511818,24.6884242 19.2705758,25.1081212 19.8060303,25.1081212 C20.3593636,25.1081212 20.7611818,24.706303 20.7611818,24.1529697 L20.7478485,23.6823636 C20.7439091,23.5405455 20.8557273,23.4223636 20.9972424,23.4184242 C21.1436061,23.4108485 21.2572424,23.526303 21.2608788,23.6681212 L21.2742121,24.146 C21.2742121,24.9902424 20.643303,25.6214545 19.8060303,25.6214545" id="Fill-5" fill="#936590"></path>
                <path d="M16.8961818,20.8078788 C16.8961818,21.3657576 16.4437576,21.8181818 15.8861818,21.8181818 C15.328303,21.8181818 14.8758788,21.3657576 14.8758788,20.8078788 C14.8758788,20.25 15.328303,19.7978788 15.8861818,19.7978788 C16.4437576,19.7978788 16.8961818,20.25 16.8961818,20.8078788" id="Fill-7" fill="#936590"></path>
                <path d="M24.7360606,20.8078788 C24.7360606,21.3657576 24.2839394,21.8181818 23.7260606,21.8181818 C23.1681818,21.8181818 22.7157576,21.3657576 22.7157576,20.8078788 C22.7157576,20.25 23.1681818,19.7978788 23.7260606,19.7978788 C24.2839394,19.7978788 24.7360606,20.25 24.7360606,20.8078788" id="Fill-9" fill="#936590"></path>
                <path d="M25.677697,31.2813636 C24.0322424,32.4880303 22.0031515,33.2025758 19.8061818,33.2025758 C17.6092121,33.2025758 15.5798182,32.4880303 13.9343636,31.2813636 C11.3343636,32.534697 9.63557576,34.1425758 9.63557576,34.1425758 C9.63557576,34.1425758 14.1892121,38.4592424 19.8061818,38.4592424 C25.4231515,38.4592424 29.9764848,34.1425758 29.9764848,34.1425758 C29.9764848,34.1425758 28.277697,32.534697 25.677697,31.2813636" id="Fill-12" fill="#D57576"></path>
                <path d="M19.8060303,3.03030303 C10.3887576,3.03030303 2.72724242,10.6918182 2.72724242,20.1087879 C2.72724242,29.5263636 10.3887576,37.1878788 19.8060303,37.1878788 C29.223303,37.1878788 36.8848182,29.5263636 36.8848182,20.1087879 C36.8848182,10.6918182 29.223303,3.03030303 19.8060303,3.03030303 M19.8060303,39.9151515 C8.88481818,39.9151515 -3.03030303e-05,31.03 -3.03030303e-05,20.1087879 C-3.03030303e-05,9.18787879 8.88481818,0.303030303 19.8060303,0.303030303 C30.7272424,0.303030303 39.6120909,9.18787879 39.6120909,20.1087879 C39.6120909,31.03 30.7272424,39.9151515 19.8060303,39.9151515" id="Fill-14" fill="#EDE3F0"></path>
            </g>
        </g>
    </g>
</svg>