<?xml version="1.0" encoding="UTF-8"?>
<svg width="45px" height="45px" viewBox="0 0 45 45" version="1.1" xmlns="http://www.w3.org/2000/svg" xmlns:xlink="http://www.w3.org/1999/xlink">
    <!-- Generator: Sketch 51.1 (57501) - http://www.bohemiancoding.com/sketch -->
    <title>Token - Gradient</title>
    <desc>Created with Sketch.</desc>
    <defs>
        <linearGradient x1="0%" y1="25.109375%" x2="100%" y2="60.8046875%" id="linearGradient-1">
            <stop stop-color="#31185F" offset="0%"></stop>
            <stop stop-color="#A13D59" offset="50.9731756%"></stop>
            <stop stop-color="#F2854B" offset="100%"></stop>
        </linearGradient>
    </defs>
    <g id="Token---Gradient" stroke="none" stroke-width="1" fill="none" fill-rule="evenodd">
        <g id="TOKEN">
            <circle id="Oval" fill="url(#linearGradient-1)" cx="22.5" cy="22.5" r="22.5"></circle>
            <circle id="Oval-Copy" stroke="#FFFFFF" stroke-width="2" cx="22.5" cy="22.5" r="19.8"></circle>
            <g id="Logo" transform="translate(14.536421, 8.881579)" fill="#FFFFFF">
                <path d="M15.9502811,12.0129971 L12.6566805,8.71963272 L12.6566805,8.33037183 C12.6566805,5.82072568 10.6149505,3.77923186 8.10530435,3.77923186 C5.5958944,3.77923186 3.55416438,5.82072568 3.55416438,8.33037183 L3.55416438,12.33683 C3.55416438,12.5869679 3.65360542,12.8271853 3.83028451,13.0043368 L7.10640613,16.2865997 L7.10640613,18.0791366 C7.10640613,18.6009068 7.5294439,19.0239446 8.0512141,19.0239446 C8.5729843,19.0239446 8.99602206,18.6009068 8.99602206,18.0791366 L8.99602206,15.8956854 C8.99602206,15.6453113 8.89658102,15.4053301 8.71990193,15.2281786 L5.44378031,11.9459157 L5.44378031,8.33037183 C5.44378031,6.86284886 6.63778138,5.6688478 8.10530435,5.6688478 C9.57306353,5.6688478 10.7670646,6.86284886 10.7670646,8.33037183 L10.7670646,9.03968642 C10.7606871,9.13109659 10.7658836,9.22250676 10.786197,9.31226351 C10.7871418,9.31675135 10.7890314,9.32076679 10.7899762,9.32525462 C10.8015501,9.37391223 10.8150136,9.42233364 10.8346184,9.46910164 C10.8934327,9.61814509 10.9902755,9.74616657 11.1116833,9.84702482 L14.3374939,13.072363 L14.3374939,18.0590595 C14.3374939,21.4950898 11.5418071,24.2907766 8.10530435,24.2907766 C4.8372136,24.2907766 2.10600997,21.7371969 1.88752313,18.477137 C1.85256523,17.9565478 1.40118323,17.5627991 0.881538847,17.5975208 C0.360949658,17.6324787 -0.0327990615,18.0829159 0.0021588332,18.603505 C0.287018435,22.8523065 3.84658245,26.1803925 8.10554055,26.1803925 C12.5836941,26.1803925 16.2271098,22.537213 16.2271098,18.0590595 L16.2271098,12.6809763 C16.2271098,12.430366 16.1274326,12.1901486 15.9502811,12.0129971" id="Fill-1"></path>
                <path d="M3.5701931,17.3438398 L3.5701931,18.0914191 C3.5701931,20.6010653 5.61192312,22.6425591 8.12133307,22.6425591 C10.6309792,22.6425591 12.6727092,20.6010653 12.6727092,18.0914191 L12.6727092,14.1449563 C12.6727092,13.8936373 12.5725596,13.6527113 12.3946995,13.4755598 L9.04299324,10.1375533 L9.04299324,8.33981991 C9.04299324,7.81804972 8.61995548,7.39501195 8.09818528,7.39501195 C7.57641508,7.39501195 7.15337731,7.81804972 7.15337731,8.33981991 L7.15337731,10.530121 C7.15337731,10.7812037 7.25352696,11.0223659 7.43138706,11.1995174 L10.7830933,14.5372878 L10.7830933,18.0914191 C10.7830933,19.5591783 9.58909225,20.7529432 8.12133307,20.7529432 C6.6538101,20.7529432 5.45980903,19.5591783 5.45980903,18.0914191 L5.45980903,17.2058979 C5.53515747,16.8960009 5.45508499,16.5563424 5.21321415,16.3142353 L5.19738862,16.2984098 C5.18699573,16.2877807 5.17660284,16.2773878 5.16597376,16.266995 L1.88961593,12.9908733 L1.88961593,8.12156927 C1.88961593,4.6853027 4.6853027,1.88961593 8.12156927,1.88961593 C11.2817157,1.88961593 14.0053609,4.3524941 14.3218716,7.495634 L14.3310834,7.59389403 C14.373836,8.11401081 14.8332489,8.50114587 15.3500588,8.45792091 C15.8701756,8.41516835 16.2570745,7.9588261 16.2143219,7.43894552 L16.2020394,7.30738101 C15.7825447,3.14148649 12.308722,0 8.12133307,0 C3.64317952,0 0,3.64317952 0,8.12156927 L0,13.38226 C0,13.6328703 0.0994410384,13.8730878 0.276592532,14.0502393 L3.5701931,17.3438398" id="Fill-3"></path>
            </g>
        </g>
    </g>
</svg>