<?xml version="1.0" encoding="UTF-8"?>
<svg width="18px" height="20px" viewBox="0 0 18 20" version="1.1" xmlns="http://www.w3.org/2000/svg" xmlns:xlink="http://www.w3.org/1999/xlink">
    <!-- Generator: Sketch 51.1 (57501) - http://www.bohemiancoding.com/sketch -->
    <title>Gift-Icon</title>
    <desc>Created with Sketch.</desc>
    <defs></defs>
    <g id="Gift-Icon" stroke="none" stroke-width="1" fill="none" fill-rule="evenodd">
        <path d="M16.848,6.10533333 L12.828,6.10533333 C14.1231111,5.60933333 15.0111111,4.97533333 15.4733333,4.21377778 C15.8508889,3.59222222 15.9422222,2.90377778 15.7453333,2.16733333 C15.4026667,0.891333333 14.2408889,0 12.9195556,0 C12.6655556,0 12.4117778,0.0335555556 12.1644444,0.0997777778 C10.5928889,0.521111111 9.56844444,2.59822222 8.97533333,4.32511111 C8.94733333,4.32533333 8.91933333,4.32622222 8.89155556,4.32733333 C8.38311111,2.94088889 7.51533333,1.284 6.20288889,0.932 C5.98444444,0.873333333 5.75977778,0.843777778 5.53533333,0.843777778 C4.36733333,0.843777778 3.34044444,1.63177778 3.03755556,2.76 C2.86422222,3.40777778 2.94333333,4.01466667 3.27266667,4.56311111 C3.63866667,5.17288889 4.314,5.68933333 5.286,6.10533333 L1.14688889,6.10533333 C0.514444444,6.10533333 0,6.61977778 0,7.252 L0,9.62088889 C0,10.2531111 0.514444444,10.7673333 1.14688889,10.7673333 L1.30022222,10.7673333 L1.30022222,18.8531111 C1.30022222,19.4857778 1.81444444,20 2.44666667,20 L15.5477778,20 C16.1802222,20 16.6944444,19.4857778 16.6944444,18.8531111 L16.6944444,10.7673333 L16.8477778,10.7673333 C17.4802222,10.7673333 17.9942222,10.2531111 17.9942222,9.62088889 L17.9942222,7.252 C17.9946667,6.61977778 17.4804444,6.10533333 16.848,6.10533333 Z M8.99733333,5.41844444 C9.57177778,5.41844444 9.97311111,5.66066667 10.1426667,6.10533333 L7.85155556,6.10533333 C8.02155556,5.66088889 8.42266667,5.41844444 8.99733333,5.41844444 Z M6.66622222,18.9068889 L2.44666667,18.9068889 C2.41711111,18.9068889 2.39311111,18.8828889 2.39311111,18.8531111 L2.39311111,10.7673333 L6.66622222,10.7673333 L6.66622222,18.9068889 Z M6.66622222,9.67444444 L1.14688889,9.67444444 C1.11777778,9.67444444 1.09333333,9.65 1.09333333,9.62088889 L1.09333333,7.252 C1.09333333,7.22222222 1.11733333,7.19844444 1.14688889,7.19844444 L6.66622222,7.19844444 L6.66622222,9.67444444 Z M6.924,5.51266667 C5.53044444,5.134 4.57,4.59933333 4.21,4 C4.034,3.70755556 3.99711111,3.40311111 4.09377778,3.04244444 C4.26844444,2.39133333 4.86133333,1.93688889 5.53533333,1.93688889 C5.66444444,1.93688889 5.794,1.95377778 5.92,1.98777778 C6.58666667,2.16644444 7.26044444,3.09066667 7.82622222,4.59733333 C7.43177778,4.80266667 7.124,5.11488889 6.924,5.51266667 Z M10.2351111,18.9068889 L7.75955556,18.9068889 L7.75955556,10.7673333 L10.2351111,10.7673333 L10.2351111,18.9068889 Z M10.2351111,9.67444444 L7.75955556,9.67444444 L7.75955556,7.20311111 L10.2351111,7.20311111 L10.2351111,9.67444444 Z M10.0573333,4.54377778 C10.7471111,2.58533333 11.5928889,1.38488889 12.4475556,1.15577778 C12.6024444,1.11422222 12.7617778,1.09333333 12.9206667,1.09333333 C13.748,1.09333333 14.4753333,1.65155556 14.6897778,2.45066667 C14.8082222,2.89333333 14.7593333,3.28422222 14.5395556,3.64577778 C14.0808889,4.40088889 12.8511111,5.06044444 11.0695556,5.51066667 C10.8508889,5.08022222 10.5,4.74511111 10.0573333,4.54377778 Z M15.6013333,18.8531111 C15.6013333,18.8828889 15.5773333,18.9068889 15.5477778,18.9068889 L11.3284444,18.9068889 L11.3284444,10.7673333 L15.6013333,10.7673333 L15.6013333,18.8531111 Z M16.9008889,9.62088889 C16.9008889,9.65 16.8768889,9.67444444 16.848,9.67444444 L11.3284444,9.67444444 L11.3284444,7.19844444 L16.848,7.19844444 C16.8773333,7.19844444 16.9008889,7.22222222 16.9008889,7.252 L16.9008889,9.62088889 Z" id="Shape" fill="#C35951" fill-rule="nonzero"></path>
    </g>
</svg>