<?xml version="1.0" encoding="UTF-8"?>
<svg width="65px" height="65px" viewBox="0 0 65 65" version="1.1" xmlns="http://www.w3.org/2000/svg" xmlns:xlink="http://www.w3.org/1999/xlink">
    <!-- Generator: sketchtool 51.3 (57544) - http://www.bohemiancoding.com/sketch -->
    <title>82403354-EFE4-40C6-8938-9FC1B51A326B</title>
    <desc>Created with sketchtool.</desc>
    <defs></defs>
    <g id="Portal---Desktop" stroke="none" stroke-width="1" fill="none" fill-rule="evenodd">
        <g id="Dashboard---Verified-User@2x" transform="translate(-317.000000, -313.000000)" fill-rule="nonzero">
            <g id="Group-2" transform="translate(199.000000, 200.000000)">
                <g id="--Reputation-Score">
                    <g id="icon-credibility" transform="translate(118.000000, 113.000000)">
                        <g id="Group">
                            <path d="M63.6071429,29.3586587 C65.4642857,31.1351998 65.4642857,34.0961016 63.6071429,35.8726427 L62.3303571,36.9385673 C60.9375,38.122928 60.4732143,40.1363412 61.1696429,41.9128823 L61.8660714,43.4525512 C62.7946429,45.8212727 61.5178571,48.5453023 59.0803571,49.2559187 L57.4553571,49.729663 C55.7142857,50.2034073 54.4375,51.8615123 54.3214286,53.6380534 L54.2053571,55.2961584 C54.0892857,57.9017519 51.7678571,59.7967291 49.2142857,59.3229848 L47.5892857,58.9676766 C45.8482143,58.6123684 43.9910714,59.5598569 43.1785714,61.0995259 L42.4821429,62.7576309 C41.2053571,65.0079162 38.3035714,65.7185326 36.3303571,64.1788637 L34.9375,63.2313752 C33.4285714,62.1654505 31.4553571,62.1654505 29.9464286,63.2313752 L28.5535714,64.1788637 C26.4642857,65.7185326 23.5625,65.0079162 22.4017857,62.7576309 L21.5892857,61.2179619 C20.7767857,59.5598569 18.9196429,58.7308044 17.1785714,58.9676766 L15.5535714,59.2045487 C13,59.678293 10.6785714,57.7833159 10.5625,55.1777223 L10.4464286,53.5196173 C10.3303571,51.6246402 9.16964286,50.0849712 7.42857143,49.6112269 L5.80357143,49.1374827 C3.36607143,48.4268662 2.08928571,45.7028366 3.01785714,43.3341152 L3.71428571,41.7944462 C4.41071429,40.1363412 3.94642857,38.122928 2.66964286,36.8201312 L1.39285714,35.6357705 C-0.464285714,33.8592295 -0.464285714,30.8983277 1.39285714,29.1217866 L2.66964286,28.055862 C4.0625,26.8715012 4.52678571,24.858088 3.83035714,23.081547 L3.13392857,21.541878 C2.20535714,19.1731566 3.48214286,16.449127 5.91964286,15.7385105 L7.54464286,15.2647663 C9.28571429,14.791022 10.5625,13.132917 10.6785714,11.3563759 L10.7946429,9.6982709 C10.9107143,7.09267733 13.2321429,5.19770019 15.7857143,5.67144448 L17.4107143,6.02675269 C19.1517857,6.3820609 21.0089286,5.43457233 21.8214286,3.89490341 L22.6339286,2.35523448 C23.7946429,-0.0134869494 26.6964286,-0.724103378 28.7857143,0.81556555 L30.1785714,1.76305412 C31.6875,2.82897876 33.6607143,2.82897876 35.1696429,1.76305412 L36.5625,0.81556555 C38.5357143,-0.605667306 41.4375,-0.0134869494 42.5982143,2.35523448 L43.4107143,3.89490341 C44.2232143,5.5530084 46.0803571,6.3820609 47.8214286,6.14518876 L49.4464286,5.90831662 C52,5.43457233 54.3214286,7.32954947 54.4375,9.93514304 L54.5535714,11.593248 C54.6696429,13.4882252 55.8303571,15.0278941 57.5714286,15.5016384 L59.1964286,15.9753827 C61.6339286,16.6859991 62.9107143,19.4100288 61.9821429,21.7787502 L61.2857143,23.3184191 C60.5892857,24.9765241 61.0535714,26.9899373 62.3303571,28.2927341 L63.6071429,29.3586587 Z" id="Shape" fill="#C5C5C5"></path>
                            <path d="M45.1705861,29.5057664 C45.1120891,29.3010269 44.9073495,29.1255358 44.7026099,29.0962873 L36.366784,27.8970983 L32.6229744,20.3217336 C32.5352289,20.116994 32.3304893,20 32.0965012,20 C31.8625131,20 31.6577735,20.116994 31.570028,20.3217336 L27.8262184,27.8970983 L19.4903925,29.0962873 C19.2564044,29.1255358 19.0809133,29.2717783 19.0224163,29.5057664 C18.9639192,29.710506 19.0224163,29.9444941 19.1686588,30.1199852 L25.1938523,35.9989361 L23.7606752,44.3055136 C23.7314267,44.5395017 23.8191722,44.7442413 23.9946633,44.8904838 C24.1701544,45.0074779 24.4041425,45.0367264 24.6088821,44.9489809 L32.0965012,41.0004317 L39.5548718,44.9197323 C39.6426173,44.9782294 39.7303629,44.9782294 39.8181084,44.9782294 C39.9351024,44.9782294 40.0520965,44.9489809 40.1690905,44.8612353 C40.3445816,44.7442413 40.4323271,44.5102532 40.4030786,44.2762651 L38.9699015,35.9696876 L44.995095,30.0907367 C45.1705861,29.9444941 45.2290831,29.710506 45.1705861,29.5057664 Z" id="Shape" fill="#FFFFFF"></path>
                        </g>
                    </g>
                </g>
            </g>
        </g>
    </g>
</svg>