<?xml version="1.0" encoding="UTF-8"?>
<svg width="10px" height="16px" viewBox="0 0 10 16" version="1.1" xmlns="http://www.w3.org/2000/svg" xmlns:xlink="http://www.w3.org/1999/xlink">
    <!-- Generator: Sketch 51.1 (57501) - http://www.bohemiancoding.com/sketch -->
    <title>Shyft Token Icon</title>
    <desc>Created with Sketch.</desc>
    <defs></defs>
    <g id="Shyft-Token-Icon" stroke="none" stroke-width="1" fill="none" fill-rule="evenodd">
        <path d="M9.82940355,7.34167576 C9.93857363,7.44994091 10,7.59674844 10,7.74990752 L10,11.0366929 C10,13.7734913 7.75473528,16 4.99506113,16 C2.37046676,16 0.176875881,13.9660589 0.00133038676,11.3694277 C-0.0202125097,11.0512726 0.222436196,10.7759904 0.543250682,10.7546261 C0.863482927,10.7334061 1.1416483,10.9740434 1.1631912,11.2921986 C1.2978343,13.2845659 2.98094587,14.8451718 4.99491557,14.8451718 C7.11266963,14.8451718 8.83551911,13.1366035 8.83551911,11.0366929 L8.83551911,7.98910131 L6.84760467,6.01795397 C6.77278677,5.95631502 6.71310712,5.87807541 6.67686266,5.78698833 C6.66478117,5.75840634 6.65648424,5.72881387 6.6493518,5.69907704 C6.64876955,5.69633432 6.64760507,5.69388031 6.64702283,5.6911376 C6.63450466,5.63628326 6.63130234,5.58041844 6.63523246,5.52455363 L6.63523246,5.09106001 C6.63523246,4.19419158 5.8994261,3.46448452 4.99491557,3.46448452 C4.0905506,3.46448452 3.35474423,4.19419158 3.35474423,5.09106001 L3.35474423,7.30067936 L5.37366298,9.3066159 C5.48254194,9.41488104 5.54382275,9.56154422 5.54382275,9.71455895 L5.54382275,11.0489629 C5.54382275,11.3678398 5.28312459,11.626377 4.9615823,11.626377 C4.64004002,11.626377 4.37934186,11.3678398 4.37934186,11.0489629 L4.37934186,9.95346403 L2.36042311,7.94752749 C2.25154415,7.83926235 2.19026334,7.69245482 2.19026334,7.53958444 L2.19026334,5.09106001 C2.19026334,3.55730384 3.44848495,2.30965635 4.99491557,2.30965635 C6.54149175,2.30965635 7.79971336,3.55730384 7.79971336,5.09106001 L7.79971336,5.32895461 L9.82940355,7.34167576 Z M2.20014108,10.5995904 L0.17045089,8.58672489 C0.0612808069,8.47845975 0,8.33165222 0,8.17849313 L0,4.96345149 C0,2.22650872 2.24511916,0 5.00479331,0 C7.58528297,0 9.72603552,1.91990184 9.98455028,4.4658649 L9.99211941,4.54626981 C10.0184658,4.86399192 9.78003833,5.14288292 9.45951496,5.16901091 C9.14102944,5.1954276 8.85791502,4.95883218 8.83156864,4.64096573 L8.8258918,4.58091466 C8.63084125,2.66000235 6.9523876,1.15482817 5.00493887,1.15482817 C2.88733037,1.15482817 1.16448089,2.86339646 1.16448089,4.96345149 L1.16448089,7.93929934 L3.1835452,9.94148269 C3.1900954,9.94783425 3.19650005,9.9541858 3.20290469,9.96068171 L3.21265722,9.9703534 C3.36171077,10.1183158 3.41105565,10.3258961 3.36462198,10.5152879 L3.36462198,11.0564693 C3.36462198,11.9534821 4.10042834,12.6830448 5.00479331,12.6830448 C5.90930384,12.6830448 6.64511021,11.9534821 6.64511021,11.0564693 L6.64511021,8.88438185 L4.57961223,6.84452223 C4.47000546,6.73625709 4.40828797,6.58887215 4.40828797,6.43542435 L4.40828797,5.09683415 C4.40828797,4.77795722 4.66898613,4.51942006 4.99052842,4.51942006 C5.31207071,4.51942006 5.57276887,4.77795722 5.57276887,5.09683415 L5.57276887,6.1955088 L7.63826685,8.23551277 C7.74787361,8.34377791 7.8095911,8.4910185 7.8095911,8.64461065 L7.8095911,11.0564693 C7.8095911,12.5902255 6.55136949,13.837873 5.00479331,13.837873 C3.45836269,13.837873 2.20014108,12.5902255 2.20014108,11.0564693 L2.20014108,10.5995904 Z" id="Combined-Shape" fill="#80225F"></path>
    </g>
</svg>