<svg id="Layer_1" data-name="Layer 1" xmlns="http://www.w3.org/2000/svg" xmlns:xlink="http://www.w3.org/1999/xlink" viewBox="0 0 1052.46 235.12"><defs><style>.cls-1{fill:#fff;}.cls-2{fill:url(#linear-gradient);}.cls-3{fill:url(#linear-gradient-2);}.cls-4{fill:url(#linear-gradient-3);}.cls-5{fill:url(#linear-gradient-4);}.cls-6{fill:url(#linear-gradient-5);}.cls-7{fill:url(#linear-gradient-6);}.cls-8{fill:url(#linear-gradient-7);}.cls-9{fill:url(#linear-gradient-8);}.cls-10{fill:url(#linear-gradient-9);}.cls-11{fill:url(#linear-gradient-10);}.cls-12{fill:url(#linear-gradient-11);}.cls-13{fill:url(#linear-gradient-12);}.cls-14{fill:url(#radial-gradient);}.cls-15,.cls-16,.cls-17,.cls-18,.cls-19{fill-rule:evenodd;}.cls-15{fill:url(#radial-gradient-2);}.cls-16{fill:url(#radial-gradient-3);}.cls-17{fill:url(#radial-gradient-4);}.cls-18{fill:url(#radial-gradient-5);}.cls-19{fill:url(#radial-gradient-6);}</style><linearGradient id="linear-gradient" x1="129.57" y1="198.86" x2="176.16" y2="121.65" gradientTransform="matrix(1, 0, 0, -1, -5.1, 213.58)" gradientUnits="userSpaceOnUse"><stop offset="0.02" stop-color="#c9d7f8"/><stop offset="1" stop-color="#c9d7f8"/></linearGradient><linearGradient id="linear-gradient-2" x1="29.52" y1="106.8" x2="120.94" y2="217.75" gradientTransform="matrix(1, 0, 0, -1, -5.1, 213.58)" gradientUnits="userSpaceOnUse"><stop offset="0.02" stop-color="#ad35e8"/><stop offset="0.31" stop-color="#ad39e8"/><stop offset="0.59" stop-color="#ad45e8"/><stop offset="0.88" stop-color="#ad59e8"/><stop offset="1" stop-color="#ad64e8"/></linearGradient><linearGradient id="linear-gradient-3" x1="58.91" y1="21.15" x2="35.84" y2="159.61" xlink:href="#linear-gradient-2"/><linearGradient id="linear-gradient-4" x1="157.96" y1="0.5" x2="32.82" y2="53.31" gradientTransform="matrix(1, 0, 0, -1, -5.1, 213.58)" gradientUnits="userSpaceOnUse"><stop offset="0.02" stop-color="#4368fa"/><stop offset="0.45" stop-color="#436cfa"/><stop offset="0.88" stop-color="#4378fa"/><stop offset="1" stop-color="#437dfa"/></linearGradient><linearGradient id="linear-gradient-5" x1="227.82" y1="86" x2="111.99" y2="-11.19" xlink:href="#linear-gradient-4"/><linearGradient id="linear-gradient-6" x1="196.26" y1="159.6" x2="190.5" y2="40.66" xlink:href="#linear-gradient"/><linearGradient id="linear-gradient-7" x1="208.81" y1="110.39" x2="174.7" y2="59.47" gradientTransform="matrix(1, 0, 0, -1, -0.01, 236.01)" gradientUnits="userSpaceOnUse"><stop offset="0.02" stop-color="#4368fa"/><stop offset="0.89" stop-color="#fff"/></linearGradient><linearGradient id="linear-gradient-8" x1="155.12" y1="45.64" x2="93.8" y2="30.6" xlink:href="#linear-gradient-7"/><linearGradient id="linear-gradient-9" x1="55.79" y1="8.01" x2="45.66" y2="101.97" gradientTransform="matrix(1, 0, 0, -1, -0.01, 236.01)" gradientUnits="userSpaceOnUse"><stop offset="0.02" stop-color="#ad35e8"/><stop offset="0.89" stop-color="#fff"/></linearGradient><linearGradient id="linear-gradient-10" x1="6.17" y1="135.49" x2="60.3" y2="166.23" xlink:href="#linear-gradient-9"/><linearGradient id="linear-gradient-11" x1="80.3" y1="205.61" x2="133.82" y2="195.1" gradientTransform="matrix(1, 0, 0, -1, -0.01, 236.01)" gradientUnits="userSpaceOnUse"><stop offset="0.02" stop-color="#c9d7f8"/><stop offset="0.89" stop-color="#fff"/></linearGradient><linearGradient id="linear-gradient-12" x1="186.12" y1="187.86" x2="187.91" y2="148.37" xlink:href="#linear-gradient-11"/><radialGradient id="radial-gradient" cx="75.98" cy="72.62" r="47.93" gradientTransform="matrix(1, 0, 0, -1, -0.01, 236.01)" gradientUnits="userSpaceOnUse"><stop offset="0" stop-color="#fff"/><stop offset="0.16" stop-color="#dbdbdb"/><stop offset="0.53" stop-color="gray"/><stop offset="1"/></radialGradient><radialGradient id="radial-gradient-2" cx="128.21" cy="42.44" r="47.85" gradientTransform="matrix(1, 0, 0, -1, -0.01, 236.01)" gradientUnits="userSpaceOnUse"><stop offset="0" stop-color="#fff"/><stop offset="0.19" stop-color="#e1dbe6"/><stop offset="0.62" stop-color="#9781a7"/><stop offset="1" stop-color="#512d6d"/></radialGradient><radialGradient id="radial-gradient-3" cx="170.12" cy="87.05" r="48.62" xlink:href="#radial-gradient-2"/><radialGradient id="radial-gradient-4" cx="143.56" cy="164.03" r="67.96" xlink:href="#radial-gradient-2"/><radialGradient id="radial-gradient-5" cx="102.58" cy="167.65" r="48.1" xlink:href="#radial-gradient-2"/><radialGradient id="radial-gradient-6" cx="65.07" cy="100.74" r="48.09" gradientTransform="matrix(1, 0, 0, -1, -5.1, 213.58)" xlink:href="#radial-gradient-2"/></defs><g id="Layer_2" data-name="Layer 2"><path class="cls-1" d="M291.56,60.58,312.21,135l22.12-74.39H364.9L328.11,182.44H295.9L261,60.58Z" transform="translate(-0.01 0.01)"/><path class="cls-1" d="M458.25,142.58v3.47H394.1a18.17,18.17,0,0,0,6.67,11.15,20.21,20.21,0,0,0,12.7,4q12.06,0,16.64-9.32l25.59,6.58a47.39,47.39,0,0,1-42.8,27.27q-20.65,0-34.18-13-13.34-12.79-13.34-33.09t12.8-32.53q13-12.61,33.26-12.62,21,0,33.82,13.35Q458.25,121.21,458.25,142.58ZM393.9,131.26h36q-2.89-13.68-18.26-13.68Q397,117.58,393.9,131.26Z" transform="translate(-0.01 0.01)"/><path class="cls-1" d="M473.42,182.44V97.82H501.2v11.51q3.12-8.22,7.32-11.15a21,21,0,0,1,12.24-3.66h2.74V123q-1.1,0-2.28-.09c-.79-.06-1.4-.12-1.83-.19a6.25,6.25,0,0,0-1-.09q-9.87,0-14.44,6.77-2.74,3.65-2.75,13.16v39.84Z" transform="translate(-0.01 0.01)"/><path class="cls-1" d="M548.9,58.33a14.09,14.09,0,0,1,10.52,4.25,14.79,14.79,0,0,1,4.11,10.78,14.13,14.13,0,0,1-4.2,10.42,15,15,0,0,1-21.2-21.2A14.6,14.6,0,0,1,548.9,58.33ZM534.83,97.82h27.78v84.62H534.84Z" transform="translate(-0.01 0.01)"/><path class="cls-1" d="M644,122.86H618.19v-1.65a6.07,6.07,0,0,0-2.29-4.84,8.6,8.6,0,0,0-5.76-1.92q-4.75-.18-6.21,3.84-1.83,4.75,4,7.67a19.66,19.66,0,0,0,5.3,1.65q17.73,5.12,25,11.7T645.54,157q0,13-9.41,20.83t-25,7.86q-15.54,0-24.68-7.58T577,157.22h26.32c.61,3.17,1.49,5.4,2.65,6.67a6.66,6.66,0,0,0,5.21,1.92,6.4,6.4,0,0,0,4.57-1.74,5.72,5.72,0,0,0,.32-8.08,5.86,5.86,0,0,0-1.32-1.06q-2.84-1.91-11.24-4.66-13.89-4.38-20.19-11.06T577,122.49q0-12.61,9.41-20.29t24.77-7.68q15.16,0,23.85,7.5T644,122.86Z" transform="translate(-0.01 0.01)"/><path class="cls-1" d="M718.53,155.21l16.63,17.91a48.85,48.85,0,0,1-33.08,12.61q-19.92,0-33.81-13.34-12.81-11.7-12.8-31.8t13-33.09q13.34-13,33.26-13,18.1,0,35.28,14.63l-18.48,16.65A21.35,21.35,0,0,0,703,119,18.46,18.46,0,0,0,689.1,125a20.5,20.5,0,0,0-5.66,14.71,21.22,21.22,0,0,0,6,15.36,20,20,0,0,0,15,6.21Q711.21,161.24,718.53,155.21Z" transform="translate(-0.01 0.01)"/><path class="cls-1" d="M787.44,94.52q20.46,0,34,13.17,13.34,13.16,13.34,33.44a41.52,41.52,0,0,1-13.88,31.81q-13.53,12.8-33.82,12.79-20.66,0-34-12.79t-13.35-32.72q0-20.1,13.35-32.9T787.44,94.52Zm0,24.68q-9,0-14.44,5.76t-5.48,15.26q0,9.33,5.48,15.17a20.18,20.18,0,0,0,28.33.09q5.49-5.76,5.48-14.71,0-10-5.11-15.81T787.44,119.2Z" transform="translate(-0.01 0.01)"/><path class="cls-1" d="M850.5,219.73V97.82h27.78v8Q888,94.48,904.6,94.48a45,45,0,0,1,22.67,5.85Q949,112.95,949,140.73q0,20.66-11.7,32.9-11.7,12.06-31.8,12.06-17.19,0-27.24-10.6v44.6Zm48.62-102.15a19.13,19.13,0,0,0-15,6.58q-5.85,6.57-5.85,17,0,10.25,5.48,16.45t14.44,6.22a20,20,0,0,0,15.17-6.4q6-6.39,6-16.08,0-10.24-5.76-17A18.26,18.26,0,0,0,899.12,117.58Z" transform="translate(-0.01 0.01)"/><path class="cls-1" d="M1052.47,142.58v3.47H988.32A18.06,18.06,0,0,0,995,157.2a20.21,20.21,0,0,0,12.7,4q12.06,0,16.63-9.32l25.59,6.58a45.24,45.24,0,0,1-13.71,17.18,45.78,45.78,0,0,1-29.06,10.05q-20.65,0-34.18-13-13.34-12.8-13.34-33.09t12.79-32.53q13-12.61,33.27-12.62,21,0,33.81,13.35Q1052.48,121.21,1052.47,142.58Zm-64.34-11.34h36q-2.91-13.67-18.23-13.66-14.65,0-17.77,13.68Z" transform="translate(-0.01 0.01)"/><path class="cls-2" d="M221.84,63.4A118.14,118.14,0,0,0,137.32,1.69L132.9.93,91.25,72.8l135.54.14Z" transform="translate(-0.01 0.01)"/><path class="cls-3" d="M122.77.12a117.22,117.22,0,0,0-95.7,42.34l-2.89,3.48,41.43,72L133.51.58Z" transform="translate(-0.01 0.01)"/><path class="cls-4" d="M24.2,45.21l-5.77,9.07A118.07,118.07,0,0,0,7.25,158.33l1.57,4.25,83,.1Z" transform="translate(-0.01 0.01)"/><path class="cls-5" d="M8.2,162.17l5,9.54a118.14,118.14,0,0,0,84.52,61.72l4.46.76,41.61-71.87Z" transform="translate(-0.01 0.01)"/><path class="cls-6" d="M169.38,117.2,101.49,234.52l10.74.48c1.72.07,3.44.11,5.15.11h0a117.14,117.14,0,0,0,90.52-42.46l2.89-3.48Z" transform="translate(-0.01 0.01)"/><path class="cls-7" d="M227.75,76.78l-1.57-4.2-83,.33L210.83,190l5.78-9.06A118.15,118.15,0,0,0,227.75,76.78Z" transform="translate(-0.01 0.01)"/><polygon class="cls-8" points="169.38 117.2 210.78 189.91 197.66 203.56 169.38 117.2"/><polygon class="cls-9" points="143.75 162.32 102.14 234.19 86.86 231.06 143.75 162.32"/><polygon class="cls-10" points="91.86 162.68 8.21 162.18 4.09 148.5 91.86 162.68"/><polygon class="cls-11" points="65.61 117.92 24.18 45.95 37.08 31.8 65.61 117.92"/><polygon class="cls-12" points="91.25 72.81 133.5 0.59 151.44 5.03 91.25 72.81"/><polygon class="cls-13" points="143.15 72.86 226.18 72.53 232.18 91.8 143.15 72.86"/><polygon class="cls-14" points="143.75 162.32 8.21 162.18 9.46 164.59 143.75 162.32"/><polyline class="cls-15" points="102.14 234.19 169.38 117.2 104.8 234.68 102.14 234.19"/><polyline class="cls-16" points="143.15 72.86 210.78 189.91 212.74 186.87 143.15 72.86"/><polyline class="cls-17" points="91.25 72.81 225.49 70.42 226.18 72.53 91.25 72.81"/><polyline class="cls-18" points="133.5 0.59 65.61 117.92 129.38 0.41 133.5 0.59"/><path class="cls-19" d="M91.25,162.17c-.36-5.14-67-117-67-117l-1.63,2.25Z" transform="translate(-0.01 0.01)"/></g></svg>