<?xml version="1.0" encoding="UTF-8"?>
<svg width="22px" height="22px" viewBox="0 0 22 22" version="1.1" xmlns="http://www.w3.org/2000/svg" xmlns:xlink="http://www.w3.org/1999/xlink">
    <!-- Generator: Sketch 51.2 (57519) - http://www.bohemiancoding.com/sketch -->
    <title>Constants-Icon</title>
    <desc>Created with Sketch.</desc>
    <defs></defs>
    <g id="Constants-Icon" stroke="none" stroke-width="1" fill="none" fill-rule="evenodd">
        <g id="Group-13" transform="translate(1.000000, 1.000000)" stroke="#FFFFFF">
            <path d="M4.87804878e-05,3.90246341 C4.87804878e-05,1.75612195 1.75614634,2.43902439e-05 3.9024878,2.43902439e-05 L16.0976098,2.43902439e-05 C18.2439512,2.43902439e-05 20.0000488,1.75612195 20.0000488,3.90246341 L20.0000488,3.91709756 C20.0000488,6.06319512 18.2439512,7.81953659 16.0976098,7.81953659 L3.9024878,7.81929268 C1.75614634,7.81929268 4.87804878e-05,6.06319512 4.87804878e-05,3.91685366 L4.87804878e-05,3.90246341 Z" id="Stroke-1"></path>
            <path d="M1.95126829,3.90960976 C1.95126829,2.69839024 2.93321951,1.71643902 4.14443902,1.71643902 C5.35590244,1.71643902 6.33785366,2.69839024 6.33785366,3.90960976 C6.33785366,5.12107317 5.35590244,6.10278049 4.14443902,6.10278049 C2.93321951,6.10278049 1.95126829,5.12107317 1.95126829,3.90960976 Z" id="Stroke-3"></path>
            <path d="M6.58421951,3.90960976 L17.0083659,3.90960976" id="Stroke-5" stroke-linecap="round"></path>
            <path d="M20.0000488,16.3417317 C20.0000488,18.4880732 18.2439512,20.2441707 16.0976098,20.2441707 L3.9024878,20.2441707 C1.75614634,20.2441707 4.87804878e-05,18.4880732 4.87804878e-05,16.3417317 L4.87804878e-05,16.3270976 C4.87804878e-05,14.181 1.75614634,12.4246585 3.9024878,12.4246585 L16.0976098,12.4246585 C18.2439512,12.4246585 20.0000488,14.181 20.0000488,16.3270976 L20.0000488,16.3417317 Z" id="Stroke-7"></path>
            <path d="M18.0488293,16.3345854 C18.0488293,17.5458049 17.066878,18.5277561 15.8554146,18.5277561 C14.6441951,18.5277561 13.6622439,17.5458049 13.6622439,16.3345854 C13.6622439,15.123122 14.6441951,14.1411707 15.8554146,14.1411707 C17.066878,14.1411707 18.0488293,15.123122 18.0488293,16.3345854 Z" id="Stroke-9"></path>
            <path d="M13.415878,16.3345854 L2.99173171,16.3345854" id="Stroke-11" stroke-linecap="round"></path>
        </g>
    </g>
</svg>
