<?xml version="1.0" encoding="UTF-8"?>
<svg width="20px" height="20px" viewBox="0 0 20 20" version="1.1" xmlns="http://www.w3.org/2000/svg" xmlns:xlink="http://www.w3.org/1999/xlink">
    <!-- Generator: Sketch 50.2 (55047) - http://www.bohemiancoding.com/sketch -->
    <title>Dashboard</title>
    <desc>Created with Sketch.</desc>
    <defs></defs>
    <g id="Dashboard" stroke="none" stroke-width="1" fill="none" fill-rule="evenodd">
        <g id="Dashboard---Icon-(white)">
            <path d="M19.2445714,9.87228571 C19.2445714,4.69604714 15.0484291,0.499904762 9.87219048,0.499904762 C4.69605019,0.499904762 0.500285714,4.69594884 0.500285714,9.87228571 C0.500285714,15.0485243 4.6959519,19.2441905 9.87219048,19.2441905 C15.0485273,19.2441905 19.2445714,15.048426 19.2445714,9.87228571 Z" id="Stroke-3" stroke="#FFFFFF"></path>
            <path d="M11.283381,9.87228571 C11.283381,10.6518095 10.6514762,11.2832381 9.87242857,11.2832381 C9.09290476,11.2832381 8.461,10.6518095 8.461,9.87228571 C8.461,9.0927619 9.09290476,8.46133333 9.87242857,8.46133333 C10.6514762,8.46133333 11.283381,9.0927619 11.283381,9.87228571" id="Fill-5" fill="#FFFFFF"></path>
            <path d="M9.8722381,9.87228571 L9.8722381,4.99832519" id="Stroke-7" stroke="#FFFFFF" stroke-linecap="round"></path>
            <path d="M9.8722381,0.999952381 L9.8722381,2.14757143" id="Stroke-9" stroke="#FFFFFF" stroke-linecap="round"></path>
            <path d="M3.39142857,3.89147619 L4.20285714,4.70290476" id="Stroke-11" stroke="#FFFFFF" stroke-linecap="round"></path>
            <path d="M1.00009524,9.87228571 L2.1472381,9.87228571" id="Stroke-13" stroke="#FFFFFF" stroke-linecap="round"></path>
            <path d="M16.353,3.89147619 L15.5415714,4.70290476" id="Stroke-15" stroke="#FFFFFF" stroke-linecap="round"></path>
            <path d="M18.7445714,9.87228571 L17.5969524,9.87228571" id="Stroke-17" stroke="#FFFFFF" stroke-linecap="round"></path>
        </g>
    </g>
</svg>
