<?xml version="1.0" encoding="UTF-8"?>
<svg width="20px" height="20px" viewBox="0 0 20 20" version="1.1" xmlns="http://www.w3.org/2000/svg" xmlns:xlink="http://www.w3.org/1999/xlink">
    <!-- Generator: Sketch 50.2 (55047) - http://www.bohemiancoding.com/sketch -->
    <title>FAQ</title>
    <desc>Created with Sketch.</desc>
    <defs></defs>
    <g id="FAQ" stroke="none" stroke-width="1" fill="none" fill-rule="evenodd">
        <g id="FAQ---Icon-(white)">
            <path d="M19.2445238,9.8722381 C19.2445238,4.69599952 15.0483814,0.499857143 9.87214286,0.499857143 C4.69600257,0.499857143 0.500238095,4.69590122 0.500238095,9.8722381 C0.500238095,15.048575 4.69600257,19.244619 9.87214286,19.244619 C15.0483814,19.244619 19.2445238,15.0484767 19.2445238,9.8722381 Z" id="Stroke-3" stroke="#FFFFFF"></path>
            <path d="M7.85742857,7.24947619 C7.85742857,7.24947619 7.86647619,5.3037619 9.80980952,5.30185714 C11.7579048,5.29995238 11.8864762,6.95471429 11.8831429,7.24947619 C11.8831429,7.24947619 12.0340952,8.56709524 10.4764762,9.84661905 C9.96790476,10.3547143 9.71885714,10.5823333 9.71885714,11.5775714" id="Stroke-5" stroke="#FFFFFF" stroke-linecap="round"></path>
            <path d="M10.444619,13.8087143 C10.444619,14.1587143 10.1608095,14.443 9.81033333,14.443 C9.46033333,14.443 9.17604762,14.1587143 9.17604762,13.8087143 C9.17604762,13.4587143 9.46033333,13.1744286 9.81033333,13.1744286 C10.1608095,13.1744286 10.444619,13.4587143 10.444619,13.8087143" id="Fill-7" fill="#FFFFFF"></path>
        </g>
    </g>
</svg>
