<?xml version="1.0" encoding="UTF-8"?>
<svg width="22px" height="23px" viewBox="0 0 22 23" version="1.1" xmlns="http://www.w3.org/2000/svg" xmlns:xlink="http://www.w3.org/1999/xlink">
    <!-- Generator: Sketch 51.2 (57519) - http://www.bohemiancoding.com/sketch -->
    <title>Marketplace</title>
    <desc>Created with Sketch.</desc>
    <defs></defs>
    <g id="Marketplace" stroke="none" stroke-width="1" fill="none" fill-rule="evenodd">
        <g transform="translate(1.000000, 1.000000)" stroke="#FFFFFF">
            <g>
                <path d="M19.998,13.0994595 L19.8742857,13.0994595 C19.4625714,14.0810676 17.99,14.9344054 15.9002857,15.4968649 C14.246,15.9421216 12.2054286,16.2051892 9.996,16.2051892 C7.78714286,16.2051892 5.74657143,15.9421216 4.09257143,15.4968649 C2.00285714,14.9344054 0.53,14.0813514 0.118285714,13.0994595 L0.00371428571,13.0994595 C0.00371428571,13.0994595 0.0205714286,16.8584595 0.00628571429,17.0105676 C0.00342857143,17.0437703 0.00114285714,17.0772568 0.000285714286,17.1104595 C0.0108571429,17.5523108 0.234857143,17.9757162 0.635428571,18.3670541 C2.058,19.757027 5.71142857,20.7457297 9.996,20.7457297 C14.2808571,20.7457297 17.9345714,19.757027 19.3571429,18.3670541 C19.7577143,17.9754324 19.9817143,17.552027 19.992,17.1098919 C19.9917143,17.076973 19.9891429,17.0437703 19.986,17.0105676 C19.972,16.8584595 19.998,13.0994595 19.998,13.0994595 Z" id="Stroke-1"></path>
                <path d="M1.84928571,10.402123 C1.64585714,10.5110959 1.45414286,10.6223392 1.28414286,10.7375554 C0.488428571,11.2750419 0.0621428571,11.8704203 0.00642857143,12.4700554 C0.00328571429,12.5032581 0.001,12.5364608 0.000142857143,12.5699473 C0.00442857143,12.7495824 0.0458571429,12.9266635 0.118142857,13.0994878 C0.855857143,14.8583797 4.99614286,16.2052176 9.99614286,16.2052176 C14.9964286,16.2052176 19.1364286,14.8583797 19.8744286,13.0994878 C19.947,12.9263797 19.9878571,12.7492986 19.9921429,12.5693797 C19.9915714,12.5364608 19.989,12.5032581 19.9861429,12.4700554 C19.9307143,11.8715554 19.5061429,11.2775959 18.7132857,10.7403932 C18.5418571,10.6243257 18.3487143,10.5122311 18.1432857,10.4018392 C16.3318571,11.3371905 13.3615714,11.9484608 9.99614286,11.9484608 C6.631,11.9484608 3.66071429,11.3371905 1.84928571,10.402123 Z" id="Stroke-3"></path>
                <path d="M19.998,4.30216216 L19.8742857,4.30216216 C19.4625714,5.28377027 17.99,6.13710811 15.9002857,6.69956757 C14.246,7.14482432 12.2054286,7.40789189 9.996,7.40789189 C7.78714286,7.40789189 5.74657143,7.14482432 4.09257143,6.69956757 C2.00285714,6.13710811 0.53,5.28405405 0.118285714,4.30216216 L0.00371428571,4.30216216 C0.00371428571,4.30216216 0.0205714286,8.06116216 0.00628571429,8.21327027 C0.00342857143,8.24647297 0.00114285714,8.27995946 0.000285714286,8.31316216 C0.0108571429,8.75501351 0.234857143,9.17841892 0.635428571,9.56975676 C0.940857143,9.86801351 1.35428571,10.1466892 1.84914286,10.4020946 C3.66057143,11.3371622 6.63114286,11.9484324 9.996,11.9484324 C13.3614286,11.9484324 16.332,11.3371622 18.1434286,10.4018108 C18.6382857,10.1464054 19.0517143,9.86801351 19.3571429,9.56975676 C19.7577143,9.17813514 19.9817143,8.75472973 19.992,8.31259459 C19.9917143,8.27967568 19.9891429,8.24647297 19.986,8.21327027 C19.972,8.06116216 19.998,4.30216216 19.998,4.30216216 Z" id="Stroke-5"></path>
                <path d="M19.986,3.67278649 C19.9308571,3.07428649 19.506,2.48032703 18.7134286,1.94312432 C18.2757143,1.64685405 17.7285714,1.36761081 17.066,1.11532703 C13.1617143,-0.3717 6.83114286,-0.3717 2.92657143,1.11532703 C2.26657143,1.36675946 1.72085714,1.64486757 1.28428571,1.94028649 C0.488571429,2.47777297 0.0622857143,3.07315135 0.00628571429,3.67278649 C0.00342857143,3.70598919 0.00114285714,3.73919189 0.000285714286,3.77267838 C0.00428571429,3.95231351 0.0457142857,4.12911081 0.118285714,4.30221892 C0.856,6.06111081 4.996,7.40794865 9.996,7.40794865 C14.9962857,7.40794865 19.1362857,6.06111081 19.8742857,4.30221892 C19.9468571,4.12882703 19.988,3.95202973 19.992,3.77211081 C19.9917143,3.73890811 19.9891429,3.70598919 19.986,3.67278649 Z" id="Stroke-7"></path>
            </g>
        </g>
    </g>
</svg>