<?xml version="1.0" encoding="UTF-8"?>
<svg width="21px" height="20px" viewBox="0 0 21 20" version="1.1" xmlns="http://www.w3.org/2000/svg" xmlns:xlink="http://www.w3.org/1999/xlink">
    <!-- Generator: Sketch 50.2 (55047) - http://www.bohemiancoding.com/sketch -->
    <title>Settings</title>
    <desc>Created with Sketch.</desc>
    <defs></defs>
    <g id="Settings" stroke="none" stroke-width="1" fill="none" fill-rule="evenodd" stroke-linecap="round">
        <g id="Settings---Icon-(white)" transform="translate(1.000000, 1.000000)" stroke="#FFFFFF">
            <path d="M14.8236216,8.92935135 L19.4641622,8.92935135" id="Stroke-1"></path>
            <path d="M-0.000108108108,8.92935135 L10.4993514,8.92935135" id="Stroke-3"></path>
            <path d="M6.98681081,15.6963784 L19.4641081,15.6963784" id="Stroke-5"></path>
            <path d="M-0.000108108108,15.6963784 L2.66259459,15.6963784" id="Stroke-7"></path>
            <path d="M6.98681081,15.6963784 C6.98681081,16.8904324 6.0187027,17.8585405 4.82464865,17.8585405 C3.63005405,17.8585405 2.66248649,16.8904324 2.66248649,15.6963784 C2.66248649,14.5023243 3.63005405,13.5342162 4.82464865,13.5342162 C6.0187027,13.5342162 6.98681081,14.5023243 6.98681081,15.6963784 Z" id="Stroke-9"></path>
            <path d="M14.8236216,8.92935135 C14.8236216,10.1234054 13.8555135,11.0915135 12.6614595,11.0915135 C11.4668649,11.0915135 10.4992973,10.1234054 10.4992973,8.92935135 C10.4992973,7.7352973 11.4668649,6.76718919 12.6614595,6.76718919 C13.8555135,6.76718919 14.8236216,7.7352973 14.8236216,8.92935135 Z" id="Stroke-11"></path>
            <path d="M10.0225946,2.16227027 C10.0225946,3.35632432 9.05448649,4.32443243 7.86043243,4.32443243 C6.66583784,4.32443243 5.69827027,3.35632432 5.69827027,2.16227027 C5.69827027,0.968216216 6.66583784,0.000108108108 7.86043243,0.000108108108 C9.05448649,0.000108108108 10.0225946,0.968216216 10.0225946,2.16227027 Z" id="Stroke-13"></path>
            <path d="M10.0225946,2.16227027 L19.4642162,2.16227027" id="Stroke-15"></path>
            <path d="M-0.000108108108,2.16227027 L5.69827027,2.16227027" id="Stroke-17"></path>
        </g>
    </g>
</svg>
