<?xml version="1.0" encoding="UTF-8"?>
<svg width="56px" height="62px" viewBox="0 0 56 62" version="1.1" xmlns="http://www.w3.org/2000/svg" xmlns:xlink="http://www.w3.org/1999/xlink">
    <!-- Generator: Sketch 52.6 (67491) - http://www.bohemiancoding.com/sketch -->
    <title>shyft-contracts</title>
    <desc>Created with Sketch.</desc>
    <g id="Guide-Screens" stroke="none" stroke-width="1" fill="none" fill-rule="evenodd">
        <g id="shyft-contracts" transform="translate(0.000000, 1.000000)" stroke="#FFFFFF">
            <path d="M16.7224,12.6394 C16.7224,14.0884 15.5474,15.2644 14.0974,15.2644 C12.6484,15.2644 11.4724,14.0884 11.4724,12.6394 C11.4724,11.1894 12.6484,10.0144 14.0974,10.0144 C15.5474,10.0144 16.7224,11.1894 16.7224,12.6394 Z" id="Stroke-1"></path>
            <path d="M30.2614,3.1248 C30.2614,4.5748 29.0864,5.7498 27.6364,5.7498 C26.1874,5.7498 25.0114,4.5748 25.0114,3.1248 C25.0114,1.6758 26.1874,0.4998 27.6364,0.4998 C29.0864,0.4998 30.2614,1.6758 30.2614,3.1248 Z" id="Stroke-3"></path>
            <path d="M44.03,17.8894 C44.03,19.3384 42.854,20.5144 41.405,20.5144 C39.955,20.5144 38.78,19.3384 38.78,17.8894 C38.78,16.4394 39.955,15.2644 41.405,15.2644 C42.854,15.2644 44.03,16.4394 44.03,17.8894 Z" id="Stroke-5"></path>
            <path d="M17.2097,42.8474 L38.2927,42.8474" id="Stroke-7"></path>
            <polyline id="Stroke-9" points="22.5144 42.8074 22.5144 12.6394 16.7224 12.6394"></polyline>
            <path d="M27.6364,42.8074 L27.6364,5.7494" id="Stroke-11"></path>
            <polyline id="Stroke-13" points="38.78 17.8894 33.097 17.8894 33.097 42.8074"></polyline>
            <path d="M36.9606,26.2644 L48.2946,26.2644 C48.2946,26.2644 51.2106,26.3054 51.2106,29.9104 L51.2106,51.4304" id="Stroke-15"></path>
            <path d="M54.8776,51.9304 L32.9606,51.9304 L32.3776,54.6804 L28.0026,54.6804 L27.4996,54.6804 L23.1246,54.6804 L22.5416,51.9304 L0.6246,51.9304 C0.6246,51.9304 -1.0424,60.0144 7.7916,60.0144 L27.4996,60.0144 L28.0026,60.0144 L47.7106,60.0144 C56.5446,60.0144 54.8776,51.9304 54.8776,51.9304 Z" id="Stroke-17"></path>
            <path d="M18.5417,26.2644 L7.2087,26.2644 C7.2087,26.2644 4.2917,26.3054 4.2917,29.9104 L4.2917,51.4304" id="Stroke-19"></path>
        </g>
    </g>
</svg>