<?xml version="1.0" encoding="UTF-8"?>
<svg width="20px" height="23px" viewBox="0 0 20 23" version="1.1" xmlns="http://www.w3.org/2000/svg" xmlns:xlink="http://www.w3.org/1999/xlink">
    <!-- Generator: Sketch 50.2 (55047) - http://www.bohemiancoding.com/sketch -->
    <title>Shyft ID</title>
    <desc>Created with Sketch.</desc>
    <defs></defs>
    <g id="Shyft-ID" stroke="none" stroke-width="1" fill="none" fill-rule="evenodd">
        <g id="Shyft-ID---Icon-(white)" stroke="#FFFFFF">
            <path d="M0.5,21.7222222 L19.5,21.7222222 L19.5,0.5 L0.5,0.5 L0.5,21.7222222 Z" id="Stroke-1"></path>
            <path d="M12.2222222,6.66666667 C12.2222222,7.89374202 11.2270754,8.88888889 10,8.88888889 C8.77292465,8.88888889 7.77777778,7.89374202 7.77777778,6.66666667 C7.77777778,5.43959132 8.77292465,4.44444444 10,4.44444444 C11.2270754,4.44444444 12.2222222,5.43959132 12.2222222,6.66666667 Z" id="Stroke-3"></path>
            <path d="M10.0003018,8.88888889 C7.23878795,8.88888889 5,11.3594444 5,14.4077778 L15,14.4077778 C15,11.3594444 12.7618157,8.88888889 10.0003018,8.88888889 Z" id="Stroke-4"></path>
            <path d="M3.88887899,17.7889444 L10.1902222,17.7889444" id="Stroke-5" stroke-linecap="round"></path>
            <path d="M13.7644444,17.7889444 L16.0377778,17.7889444" id="Stroke-6" stroke-linecap="round"></path>
        </g>
    </g>
</svg>
