<?xml version="1.0" encoding="UTF-8"?>
<svg width="20px" height="17px" viewBox="0 0 20 17" version="1.1" xmlns="http://www.w3.org/2000/svg" xmlns:xlink="http://www.w3.org/1999/xlink">
    <!-- Generator: Sketch 50.2 (55047) - http://www.bohemiancoding.com/sketch -->
    <title>Sign Out</title>
    <desc>Created with Sketch.</desc>
    <defs></defs>
    <g id="Portal---Mobile" stroke="none" stroke-width="1" fill="none" fill-rule="evenodd">
        <path d="M19.8537482,8.14660183 C20.0487506,8.34160427 20.0487506,8.65860822 19.8537482,8.85361066 L15.8536982,12.8536607 C15.7556969,12.9516619 15.6276953,13.0006625 15.4996937,13.0006625 C15.3726921,13.0006625 15.2446906,12.9516619 15.1466893,12.8536607 C14.9516869,12.6586582 14.9516869,12.3416542 15.1466893,12.1466518 L18.2927287,9.0006125 L10.4996312,9.0006125 C10.2236278,9.0006125 9.99962498,8.7766097 9.99962498,8.50060625 C9.99962498,8.22360278 10.2236278,8.00059999 10.4996312,8.00059999 L18.2927287,8.00059999 L15.1466893,4.85356065 C14.9516869,4.65855821 14.9516869,4.34155426 15.1466893,4.14655182 C15.3416918,3.95154938 15.6586957,3.95154938 15.8536982,4.14655182 L19.8537482,8.14660183 Z M8.50010626,17.0002125 C3.81304766,17.0002125 0,13.1871648 0,8.50010623 C0,3.81304766 3.81304766,0 8.50010626,0 C9.96612457,0 11.4181427,0.386004817 12.6981587,1.11501393 C12.9381617,1.25101564 13.0221628,1.55701946 12.8861611,1.79702246 C12.7491594,2.03602544 12.4431555,2.11902647 12.2041525,1.98402478 C11.0731384,1.34001674 9.79312242,1.00001248 8.50010626,1.00001248 C4.36405454,1.00001248 1.00001251,4.36405454 1.00001251,8.50010623 C1.00001251,12.6361579 4.36405454,16.0002 8.50010626,16.0002 C9.79312242,16.0002 11.0731384,15.6601957 12.2041525,15.0171877 C12.4431555,14.881186 12.7491594,14.963187 12.8861611,15.20419 C13.0221628,15.444193 12.9381617,15.7491969 12.6981587,15.8861986 C11.4171427,16.6142077 9.96612457,17.0002125 8.50010626,17.0002125 Z" id="Sign-Out" fill="#FFFFFF"></path>
    </g>
</svg>
