<?xml version="1.0" encoding="UTF-8"?>
<svg width="22px" height="19px" viewBox="0 0 22 19" version="1.1" xmlns="http://www.w3.org/2000/svg" xmlns:xlink="http://www.w3.org/1999/xlink">
    <!-- Generator: Sketch 51.2 (57519) - http://www.bohemiancoding.com/sketch -->
    <title>Users-Icon</title>
    <desc>Created with Sketch.</desc>
    <defs></defs>
    <g id="Users-Icon" stroke="none" stroke-width="1" fill="none" fill-rule="evenodd">
        <g id="Group-9" transform="translate(1.000000, 1.000000)" stroke="#FFFFFF">
            <path d="M13.5167647,2.27117647 C12.6328431,2.27117647 11.8308824,2.61529412 11.2310784,3.17333333 C11.2744118,3.40607843 11.299902,3.6454902 11.299902,3.89098039 C11.299902,4.90294118 10.9102941,5.82156863 10.2769608,6.51372549 C10.6648039,7.94117647 11.9663725,8.99235294 13.5167647,8.99235294 C15.3728431,8.99235294 16.8773529,7.48784314 16.8773529,5.63196078 C16.8773529,3.77588235 15.3728431,2.27117647 13.5167647,2.27117647 Z" id="Stroke-1"></path>
            <path d="M11.2310392,3.1732549 C10.8939804,1.36756863 9.31241176,-7.84313725e-05 7.40907843,-7.84313725e-05 C5.2602549,-7.84313725e-05 3.51829412,1.74207843 3.51829412,3.89090196 C3.51829412,6.03972549 5.2602549,7.78168627 7.40907843,7.78168627 C8.54594118,7.78168627 9.56554902,7.29109804 10.2769216,6.51364706 C10.9102549,5.82168627 11.2998627,4.90286275 11.2998627,3.89090196 C11.2998627,3.64541176 11.2745686,3.406 11.2310392,3.1732549 Z" id="Stroke-3"></path>
            <path d="M13.5167647,8.99241176 C12.8497059,8.99241176 12.2065686,9.11515686 11.6020588,9.34221569 C13.5440196,10.9439804 14.8181373,13.6265294 14.8181373,16.6667255 L19.9161765,16.6667255 C19.9161765,12.4282941 17.0510784,8.99241176 13.5167647,8.99241176 Z" id="Stroke-5"></path>
            <path d="M11.6021176,9.3422549 C10.4095686,8.35852941 8.96584314,7.78166667 7.40898039,7.78166667 C3.31721569,7.78166667 -3.92156863e-05,11.7597059 -3.92156863e-05,16.6665686 L7.11741176,16.6665686 L14.818,16.6665686 C14.818,13.6265686 13.5440784,10.9440196 11.6021176,9.3422549 Z" id="Stroke-7"></path>
        </g>
    </g>
</svg>
