<?xml version="1.0" encoding="UTF-8"?>
<svg width="22px" height="22px" viewBox="0 0 22 22" version="1.1" xmlns="http://www.w3.org/2000/svg" xmlns:xlink="http://www.w3.org/1999/xlink">
    <!-- Generator: Sketch 50.2 (55047) - http://www.bohemiancoding.com/sketch -->
    <title>Wallet</title>
    <desc>Created with Sketch.</desc>
    <defs></defs>
    <g id="Wallet" stroke="none" stroke-width="1" fill="none" fill-rule="evenodd">
        <g id="My-Wallet---Icon" transform="translate(1.000000, 1.000000)">
            <path d="M1.67382222,0 C1.67271111,0 1.6716,0.000233333333 1.67026667,0.000233333333 C1.62026667,0.000466666667 1.57048889,0.00373333333 1.52137778,0.00863333333 C0.8536,0.0847 0.333377778,0.6783 0.333377778,1.4 C0.333377778,2.17303333 0.930266667,2.8 1.66671111,2.8 L6.29448889,2.8 L15.6667111,2.8 L15.6667111,0 L1.67382222,0 Z" id="Stroke-1" stroke="#FFFFFF"></path>
            <path d="M10.5555556,12.425 L10.5555556,10.325 C10.5555556,9.29833333 11.3555556,8.45833333 12.3333333,8.45833333 L19.8888889,8.45833333 L19.8888889,4.7474 C19.8888889,3.6764 19.0562222,2.8 18.0386667,2.8 L16.1111111,2.8 L13.4444444,2.8 L1.85022222,2.8 L1.66666667,2.8 C0.930444444,2.8 0.333333333,2.17303333 0.333333333,1.4 C0.333333333,0.6783 0.853555556,0.0847 1.52155556,0.00863333333 C0.671555556,0.0952 0,0.8974 0,1.86666667 L0,17.7692667 C0,18.8402667 0.832666667,19.7166667 1.85022222,19.7166667 L18.0386667,19.7166667 C19.0562222,19.7166667 19.8888889,18.8402667 19.8888889,17.7692667 L19.8888889,14.2916667 L12.3333333,14.2916667 C11.3555556,14.2916667 10.5555556,13.4516667 10.5555556,12.425 Z" id="Stroke-3" stroke="#FFFFFF" stroke-linecap="round" stroke-linejoin="round"></path>
            <path d="M12.3333333,8.45833333 C11.3555556,8.45833333 10.5555556,9.29833333 10.5555556,10.325 L10.5555556,12.425 C10.5555556,13.4516667 11.3555556,14.2916667 12.3333333,14.2916667 L19.8888889,14.2916667 L19.8888889,8.45833333 L12.3333333,8.45833333 Z" id="Stroke-5" stroke="#FFFFFF"></path>
            <path d="M14.1111111,11.4333333 C14.1111111,11.8199667 13.8126667,12.1333333 13.4444444,12.1333333 C13.0762222,12.1333333 12.7777778,11.8199667 12.7777778,11.4333333 C12.7777778,11.0467 13.0762222,10.7333333 13.4444444,10.7333333 C13.8126667,10.7333333 14.1111111,11.0467 14.1111111,11.4333333" id="Fill-7" fill="#FFFFFF"></path>
        </g>
    </g>
</svg>
