<?xml version="1.0" encoding="UTF-8"?>
<svg width="570px" height="570px" viewBox="0 0 570 570" version="1.1" xmlns="http://www.w3.org/2000/svg" xmlns:xlink="http://www.w3.org/1999/xlink">
    <!-- Generator: Sketch 51.1 (57501) - http://www.bohemiancoding.com/sketch -->
    <title>403 - Unauthorized</title>
    <desc>Created with Sketch.</desc>
    <defs>
        <filter x="-22.0%" y="-38.2%" width="143.9%" height="176.5%" filterUnits="objectBoundingBox" id="filter-1">
            <feGaussianBlur stdDeviation="15" in="SourceGraphic"></feGaussianBlur>
        </filter>
        <filter x="-58.1%" y="-101.2%" width="216.3%" height="302.4%" filterUnits="objectBoundingBox" id="filter-2">
            <feGaussianBlur stdDeviation="15" in="SourceGraphic"></feGaussianBlur>
        </filter>
        <filter x="-46.3%" y="-80.7%" width="192.5%" height="261.5%" filterUnits="objectBoundingBox" id="filter-3">
            <feGaussianBlur stdDeviation="6" in="SourceGraphic"></feGaussianBlur>
        </filter>
        <filter x="-56.4%" y="-97.2%" width="212.8%" height="294.3%" filterUnits="objectBoundingBox" id="filter-4">
            <feGaussianBlur stdDeviation="6" in="SourceGraphic"></feGaussianBlur>
        </filter>
        <filter x="-56.4%" y="-97.2%" width="212.8%" height="294.3%" filterUnits="objectBoundingBox" id="filter-5">
            <feGaussianBlur stdDeviation="6" in="SourceGraphic"></feGaussianBlur>
        </filter>
        <filter x="-56.4%" y="-97.2%" width="212.8%" height="294.3%" filterUnits="objectBoundingBox" id="filter-6">
            <feGaussianBlur stdDeviation="6" in="SourceGraphic"></feGaussianBlur>
        </filter>
        <filter x="-63.0%" y="-117.2%" width="226.1%" height="334.4%" filterUnits="objectBoundingBox" id="filter-7">
            <feGaussianBlur stdDeviation="4" in="SourceGraphic"></feGaussianBlur>
        </filter>
        <filter x="-63.0%" y="-117.2%" width="226.1%" height="334.4%" filterUnits="objectBoundingBox" id="filter-8">
            <feGaussianBlur stdDeviation="4" in="SourceGraphic"></feGaussianBlur>
        </filter>
        <filter x="-63.0%" y="-117.2%" width="226.1%" height="334.4%" filterUnits="objectBoundingBox" id="filter-9">
            <feGaussianBlur stdDeviation="4" in="SourceGraphic"></feGaussianBlur>
        </filter>
        <filter x="-63.0%" y="-117.2%" width="226.1%" height="334.4%" filterUnits="objectBoundingBox" id="filter-10">
            <feGaussianBlur stdDeviation="4" in="SourceGraphic"></feGaussianBlur>
        </filter>
        <filter x="-63.0%" y="-117.2%" width="226.1%" height="334.4%" filterUnits="objectBoundingBox" id="filter-11">
            <feGaussianBlur stdDeviation="4" in="SourceGraphic"></feGaussianBlur>
        </filter>
        <filter x="-63.0%" y="-117.2%" width="226.1%" height="334.4%" filterUnits="objectBoundingBox" id="filter-12">
            <feGaussianBlur stdDeviation="4" in="SourceGraphic"></feGaussianBlur>
        </filter>
        <filter x="-63.0%" y="-117.2%" width="226.1%" height="334.4%" filterUnits="objectBoundingBox" id="filter-13">
            <feGaussianBlur stdDeviation="4" in="SourceGraphic"></feGaussianBlur>
        </filter>
        <filter x="-63.0%" y="-117.2%" width="226.1%" height="334.4%" filterUnits="objectBoundingBox" id="filter-14">
            <feGaussianBlur stdDeviation="4" in="SourceGraphic"></feGaussianBlur>
        </filter>
        <filter x="-63.0%" y="-117.2%" width="226.1%" height="334.4%" filterUnits="objectBoundingBox" id="filter-15">
            <feGaussianBlur stdDeviation="4" in="SourceGraphic"></feGaussianBlur>
        </filter>
        <filter x="-63.0%" y="-117.2%" width="226.1%" height="334.4%" filterUnits="objectBoundingBox" id="filter-16">
            <feGaussianBlur stdDeviation="4" in="SourceGraphic"></feGaussianBlur>
        </filter>
        <filter x="-63.0%" y="-117.2%" width="226.1%" height="334.4%" filterUnits="objectBoundingBox" id="filter-17">
            <feGaussianBlur stdDeviation="4" in="SourceGraphic"></feGaussianBlur>
        </filter>
        <filter x="-63.0%" y="-117.2%" width="226.1%" height="334.4%" filterUnits="objectBoundingBox" id="filter-18">
            <feGaussianBlur stdDeviation="4" in="SourceGraphic"></feGaussianBlur>
        </filter>
        <filter x="-63.0%" y="-117.2%" width="226.1%" height="334.4%" filterUnits="objectBoundingBox" id="filter-19">
            <feGaussianBlur stdDeviation="4" in="SourceGraphic"></feGaussianBlur>
        </filter>
    </defs>
    <g id="403---Unauthorized" stroke="none" stroke-width="1" fill="none" fill-rule="evenodd">
        <g id="403---Illustration" transform="translate(30.000000, 33.000000)">
            <g>
                <polygon id="Fill-16-Copy-5" fill="#000000" opacity="0.07" filter="url(#filter-1)" points="399.161166 385.411765 296.642336 444.273166 399.161166 503.130121 501.510949 444.273166"></polygon>
                <polygon id="Fill-16-Copy-6" fill="#000000" opacity="0.07" filter="url(#filter-2)" points="174.071713 336.308824 135.343066 358.544957 174.071713 380.779412 212.736499 358.544957"></polygon>
                <g id="Base" transform="translate(117.948046, 0.000000)">
                    <polygon id="Fill-1" fill="#EDE3F0" points="46.72655 337.53461 25.9951769 349.437032 46.72655 361.341743 67.4258596 349.437032"></polygon>
                    <polygon id="Fill-2" fill="#DCC3DE" points="25.9946043 349.370424 46.6927687 361.308324 46.6927687 363.545751 25.9946043 351.60785"></polygon>
                    <polygon id="Fill-3" fill="#C7AAD1" points="67.357839 349.370424 46.6928833 361.308324 46.6928833 363.545751 67.357839 351.60785"></polygon>
                    <polygon id="Fill-4" fill="#D57576" points="49.6430731 350.049892 46.7092586 351.742554 46.7092586 148.559052 49.6430731 146.867535"></polygon>
                    <polygon id="Fill-5" fill="#E79C95" points="43.7764747 350.049892 46.7102892 351.742554 46.7102892 148.559052 43.7764747 146.867535"></polygon>
                    <polygon id="Fill-6" fill="#E8BEB9" points="46.7120069 145.180824 43.7770472 146.867764 46.7120069 148.552414 49.6435311 146.867764"></polygon>
                    <polygon id="Fill-7" fill="#E8BEB9" points="11.6737647 124.626371 8.77659429 125.861247 81.7898704 168.158336 84.643526 166.923459"></polygon>
                    <polygon id="Fill-8" fill="#E79C95" points="8.77636526 125.773009 81.7461265 168.113587 81.7461265 171.034258 8.77636526 128.693681"></polygon>
                    <polygon id="Fill-9" fill="#D57576" points="84.5548932 166.835107 81.7458975 168.113473 81.7458975 171.034144 84.5548932 169.755778"></polygon>
                    <polygon id="Fill-10" fill="#EDE3F0" points="105.439026 390.808707 219.264617 456.159871 332.901261 390.808707 219.264617 325.458687"></polygon>
                    <polygon id="Fill-11" fill="#DCC3DE" points="105.439026 402.723947 219.076816 468.261659 219.076816 455.972408 105.439026 390.436985"></polygon>
                    <polygon id="Fill-12" fill="#C7AAD1" points="219.076587 455.972751 219.076587 468.262002 332.530011 402.72429 332.530011 390.437328"></polygon>
                    <polygon id="Fill-13" fill="#C7AAD1" points="220.269122 13.3038179 142.308898 57.9081449 220.269122 102.702453 297.899549 57.9081449"></polygon>
                    <polygon id="Fill-14" fill="#C7AAD1" points="220.217706 6.8181423 166.294836 37.6705939 220.217706 68.6535143 273.91384 37.6705939"></polygon>
                    <polygon id="Fill-15" fill="#AB77A4" points="142.416197 57.7657736 220.046624 102.560082 220.046624 433.200213 142.416197 388.405905"></polygon>
                    <polygon id="Fill-16" fill="#936590" points="297.72068 57.7299519 219.989482 102.595217 219.989482 433.235348 297.721825 388.370083"></polygon>
                    <polygon id="Fill-17" fill="#AB77A4" points="166.282698 37.7644399 220.053265 68.7908499 220.053265 86.9958335 166.282698 55.968279"></polygon>
                    <polygon id="Fill-18" fill="#936590" points="273.854179 37.7398339 220.013758 68.8154559 220.013758 86.1186021 273.854179 55.0429801"></polygon>
                    <polygon id="Fill-19" fill="#C7AAD1" points="244.900224 125.725056 232.134352 133.671067 232.134352 380.448335 244.900224 373.079133"></polygon>
                    <polygon id="Fill-22" fill="#C7AAD1" points="265.450667 113.295036 252.682505 121.239903 252.682505 368.587113 265.450667 361.248812"></polygon>
                    <polygon id="Fill-25" fill="#C7AAD1" points="285.99882 100.862728 273.231802 108.809883 273.231802 356.727036 285.99882 349.357835"></polygon>
                    <polygon id="Fill-28" fill="#C7AAD1" points="194.01423 220.247455 206.780102 228.40977 206.780102 378.929631 194.01423 371.563863"></polygon>
                    <polygon id="Fill-31" fill="#C7AAD1" points="173.463787 207.478674 186.231949 215.639844 186.231949 367.072988 173.463787 359.704931"></polygon>
                    <polygon id="Fill-34" fill="#C7AAD1" points="152.914489 194.708748 165.682651 202.871063 165.682651 355.058408 152.914489 347.848287"></polygon>
                    <path d="M194.303604,147.798327 L188.30772,139.50211 L188.315736,138.789109 C188.362687,134.194087 184.645605,129.050868 180.030745,127.323872 C175.414739,125.599165 171.620935,127.933871 171.573984,132.527748 L171.499551,139.864905 C171.493826,140.323835 171.672465,140.830832 171.994246,141.277173 L177.958066,149.540201 L177.923712,152.824811 C177.913406,153.780439 178.684076,154.84479 179.643692,155.204151 C180.603308,155.562369 181.39001,155.079405 181.398026,154.123778 L181.440396,150.125022 C181.444976,149.667236 181.266337,149.159094 180.944556,148.713898 L174.981881,140.448581 L175.050589,133.827859 C175.078072,131.140658 177.295037,129.775313 179.995246,130.78473 C182.693164,131.795292 184.86776,134.802942 184.839132,137.488998 L184.826535,138.789109 C184.813939,138.951623 184.821955,139.123292 184.856309,139.300684 C184.858599,139.30984 184.862034,139.318996 184.863179,139.328151 C184.883792,139.425431 184.907839,139.52271 184.942193,139.621134 C185.04869,139.934717 185.223894,140.236856 185.446049,140.50466 L191.317113,148.629208 L191.223213,157.760883 C191.157941,164.053144 185.964791,167.249631 179.643692,164.886314 C173.632922,162.638587 168.658492,156.083099 168.318389,149.963652 C168.263423,148.985136 167.441222,147.953974 166.485042,147.660991 C165.526571,147.366864 164.79369,147.91964 164.84751,148.898157 C165.29182,156.875068 171.775527,165.417345 179.609338,168.346028 C187.845089,171.426924 194.613933,167.261076 194.698672,159.060994 L194.800589,149.21174 C194.804024,148.753954 194.625384,148.244668 194.303604,147.798327" id="Fill-37" fill="#FFFFFF"></path>
                    <path d="M171.405536,148.996466 L171.39065,150.365245 C171.3437,154.961411 175.059636,160.103486 179.675641,161.830482 C184.290502,163.556333 188.084306,161.222771 188.131256,156.626605 L188.20569,149.399317 C188.211415,148.939243 188.03163,148.428812 187.706414,147.981327 L181.606325,139.564941 L181.640678,136.272319 C181.64984,135.316692 180.879169,134.251196 179.920698,133.892979 C178.961082,133.532473 178.17438,134.016581 178.164074,134.972208 L178.122849,138.983553 C178.118269,139.442483 178.299199,139.954059 178.622125,140.400399 L184.723359,148.81793 L184.655797,155.326495 C184.629459,158.013695 182.410204,159.37904 179.71114,158.369623 C177.012077,157.360206 174.838626,154.352556 174.866109,151.665355 L174.883286,150.04365 C175.027572,149.527497 174.886721,148.849975 174.445848,148.24112 L174.417219,148.201064 C174.397752,148.173597 174.380575,148.148418 174.359963,148.122096 L168.396143,139.868224 L168.487754,130.951707 C168.553026,124.659446 173.74732,121.462959 180.066129,123.826277 C185.878792,125.999613 190.841771,132.383431 191.365094,138.357532 L191.378836,138.542935 C191.448688,139.526029 192.285776,140.550324 193.237376,140.82614 C194.194702,141.105389 194.914987,140.536591 194.846279,139.554641 L194.825667,139.305148 C194.132865,131.388892 187.802605,123.246033 180.102773,120.365418 C171.865877,117.285667 165.097034,121.451514 165.012294,129.652741 L164.913813,139.285692 C164.908088,139.744622 165.086727,140.252764 165.409653,140.699104 L171.405536,148.996466 Z" id="Fill-39" fill="#FFFFFF"></path>
                    <path d="M244.0305,29.8225487 C244.0305,37.6747139 232.890708,44.0425098 219.150333,44.0425098 C205.408813,44.0425098 194.271311,37.6747139 194.271311,29.8225487 C194.271311,21.969239 205.408813,15.6025876 219.150333,15.6025876 C232.890708,15.6025876 244.0305,21.969239 244.0305,29.8225487" id="Fill-41" fill="#936590"></path>
                    <path d="M244.0305,23.5033926 C244.0305,31.3567022 232.890708,37.7233536 219.150333,37.7233536 C205.408813,37.7233536 194.271311,31.3567022 194.271311,23.5033926 C194.271311,15.6512273 205.408813,9.28343149 219.150333,9.28343149 C232.890708,9.28343149 244.0305,15.6512273 244.0305,23.5033926" id="Fill-43" fill="#FFFFFF"></path>
                    <path d="M219.248127,33.5610537 C228.508766,33.5610537 234.883686,28.6043816 238.575575,24.5049127 C238.826357,23.2563029 238.961482,21.9664923 238.961482,20.6446368 C238.961482,9.87523365 230.226456,1.14412033 219.450814,1.14412033 C208.675172,1.14412033 199.939001,9.87523365 199.939001,20.6446368 C199.939001,22.6245589 200.239024,24.5358132 200.788685,26.337199 C203.745402,29.4627293 209.477906,33.5610537 219.248127,33.5610537" id="Fill-45" fill="#EFDBD8"></path>
                    <path d="M219.450585,1.14389144 C217.837102,1.14389144 216.278584,1.36019507 214.779614,1.72985683 C220.338058,5.81559213 223.962384,12.3790913 223.962384,19.805516 C223.962384,24.9945143 222.184003,29.7589165 219.22614,33.5596804 C219.234156,33.5596804 219.239882,33.5608248 219.247898,33.5608248 C228.508537,33.5608248 234.884602,28.6041527 238.575346,24.5046838 C238.826128,23.256074 238.961253,21.9662634 238.961253,20.6444079 C238.961253,9.87500476 230.226227,1.14389144 219.450585,1.14389144" id="Fill-48" fill="#E79C95"></path>
                    <path d="M166.562223,401.755273 L166.562223,378.337257 C166.562223,373.013212 170.92172,370.242466 176.24885,372.180043 C181.575979,374.118764 185.935476,380.060819 185.935476,385.384864 L185.935476,412.92066 L166.562223,401.755273 Z" id="Fill-51" fill="#DCC3DE"></path>
                    <path d="M169.180212,403.062937 L169.180212,379.646066 C169.180212,374.322021 173.539709,371.551274 178.866838,373.487707 C184.193967,375.426428 188.553465,381.368484 188.553465,386.692529 L188.553465,414.229469 L169.180212,403.062937 Z" id="Fill-53" fill="#C7AAD1"></path>
                    <path d="M164.87923,411.393831 C164.87923,412.739721 163.78678,413.831539 162.440111,413.831539 C161.092297,413.831539 159.999846,412.739721 159.999846,411.393831 C159.999846,410.046797 161.092297,408.954979 162.440111,408.954979 C163.78678,408.954979 164.87923,410.046797 164.87923,411.393831" id="Fill-55" fill="#D57576"></path>
                    <polygon id="Fill-57" fill="#D57576" points="159.999388 411.394632 164.878772 411.394632 164.878772 392.165354 159.999388 392.165354"></polygon>
                    <path d="M166.206661,393.523947 C166.206661,394.726778 164.500423,395.701861 162.394535,395.701861 C160.288647,395.701861 158.582408,394.726778 158.582408,393.523947 C158.582408,392.319971 160.288647,391.344888 162.394535,391.344888 C164.500423,391.344888 166.206661,392.319971 166.206661,393.523947" id="Fill-59" fill="#E98178"></path>
                    <path d="M166.206661,392.554929 C166.206661,393.758905 164.500423,394.733988 162.394535,394.733988 C160.288647,394.733988 158.582408,393.758905 158.582408,392.554929 C158.582408,391.352098 160.288647,390.377015 162.394535,390.377015 C164.500423,390.377015 166.206661,391.352098 166.206661,392.554929" id="Fill-60" fill="#FFFFFF"></path>
                    <path d="M162.408963,394.096178 C163.827775,394.096178 164.805713,393.337399 165.371406,392.709088 C165.409195,392.516819 165.430953,392.319971 165.430953,392.117401 C165.430953,390.467084 164.092299,389.129206 162.439882,389.129206 C160.789754,389.129206 159.451101,390.467084 159.451101,392.117401 C159.451101,392.420684 159.496906,392.713666 159.5805,392.989482 C160.033971,393.467868 160.912283,394.096178 162.408963,394.096178" id="Fill-61" fill="#E8BEB9"></path>
                    <path d="M162.440225,389.129321 C162.192878,389.129321 161.954691,389.16251 161.724521,389.218589 C162.576495,389.84461 163.131882,390.850594 163.131882,391.988191 C163.131882,392.783593 162.859342,393.513761 162.405871,394.096293 L162.409307,394.096293 C163.828119,394.096293 164.804912,393.337513 165.371749,392.709203 C165.409539,392.516933 165.430151,392.320085 165.430151,392.116371 C165.430151,390.467199 164.091498,389.129321 162.440225,389.129321" id="Fill-62" fill="#E79C95"></path>
                    <path d="M186.505749,423.852234 C186.505749,425.199268 185.414443,426.289941 184.066629,426.289941 C182.718815,426.289941 181.626364,425.199268 181.626364,423.852234 C181.626364,422.5052 182.718815,421.413382 184.066629,421.413382 C185.414443,421.413382 186.505749,422.5052 186.505749,423.852234" id="Fill-63" fill="#D57576"></path>
                    <polygon id="Fill-64" fill="#D57576" points="181.62625 423.852119 186.505635 423.852119 186.505635 404.622841 181.62625 404.622841"></polygon>
                    <path d="M187.83318,405.982235 C187.83318,407.185066 186.126941,408.160149 184.021053,408.160149 C181.915165,408.160149 180.208927,407.185066 180.208927,405.982235 C180.208927,404.778259 181.915165,403.803176 184.021053,403.803176 C186.126941,403.803176 187.83318,404.778259 187.83318,405.982235" id="Fill-65" fill="#E98178"></path>
                    <path d="M187.83318,405.013217 C187.83318,406.217193 186.126941,407.192276 184.021053,407.192276 C181.915165,407.192276 180.208927,406.217193 180.208927,405.013217 C180.208927,403.810386 181.915165,402.835303 184.021053,402.835303 C186.126941,402.835303 187.83318,403.810386 187.83318,405.013217" id="Fill-66" fill="#FFFFFF"></path>
                    <path d="M184.036627,406.554467 C185.454294,406.554467 186.432232,405.795687 186.997925,405.167377 C187.035714,404.976251 187.057471,404.778259 187.057471,404.575689 C187.057471,402.925372 185.718818,401.587494 184.0664,401.587494 C182.416273,401.587494 181.07762,402.925372 181.07762,404.575689 C181.07762,404.878972 181.123425,405.171954 181.207019,405.44777 C181.660489,405.926156 182.538801,406.554467 184.036627,406.554467" id="Fill-67" fill="#E8BEB9"></path>
                    <path d="M184.066858,401.587723 C183.819511,401.587723 183.581325,401.620913 183.351154,401.676991 C184.203128,402.303013 184.758515,403.308997 184.758515,404.446593 C184.758515,405.241996 184.485975,405.972163 184.032505,406.554696 L184.037085,406.554696 C185.454752,406.554696 186.431545,405.795916 186.998383,405.167606 C187.036172,404.97648 187.056784,404.778488 187.056784,404.574773 C187.056784,402.925601 185.718131,401.587723 184.066858,401.587723" id="Fill-68" fill="#E79C95"></path>
                    <path d="M162.39442,395.702204 C162.39442,395.702204 166.206547,414.859382 182.609341,410.209426" id="Stroke-69" stroke="#D57576"></path>
                    <path d="M20.9410458,140.814237 C15.9563094,137.861521 10.9727182,134.98434 5.98683671,132.109447 L20.9410458,112.287336 L20.9410458,140.814237 Z M24.3764258,106.651997 L21.2101506,104.826577 L2.34991443,130.165003 L2.34991443,133.895955 L20.9410458,144.623013 L20.9410458,159.471284 L24.3764258,161.452351 L24.3764258,146.606368 L30.0344967,149.870378 L30.0344967,146.061603 L24.3764258,142.796449 L24.3764258,106.651997 Z" id="Fill-80" fill="#936590"></path>
                    <path d="M57.7864123,165.729784 C57.7864123,173.112719 53.9468026,175.096074 48.5578365,171.986567 C43.1688705,168.877059 39.3304059,162.463484 39.3304059,155.079405 L39.3304059,130.360134 C39.3304059,122.976054 43.1688705,120.917164 48.5578365,124.026672 C53.9468026,127.135035 57.7864123,133.625289 57.7864123,141.009369 L57.7864123,165.729784 Z M48.5578365,120.137785 C45.5301216,118.391333 42.8860242,117.900358 40.8030388,118.517224 L40.796168,118.496624 L40.624399,118.569869 C40.3209404,118.670582 40.0312234,118.796473 39.7541027,118.945253 L37.722648,119.821913 L38.4498035,119.914614 C36.8248687,121.537464 35.896171,124.312788 35.896171,128.144452 L35.896171,153.407343 C35.896171,162.346749 41.0813046,171.636361 48.5578365,175.950989 C50.9019108,177.3026 53.0352818,177.913744 54.8571783,177.839354 L54.8045025,178.370385 L57.1462865,177.317478 L57.1348353,177.304889 C59.7732071,176.116936 61.3569173,172.96165 61.3569173,168.098824 L61.3569173,142.837077 C61.3569173,133.743169 56.0355137,124.453557 48.5578365,120.137785 Z" id="Fill-81" fill="#936590"></path>
                    <path d="M86.4134338,169.265948 C86.8233891,169.349493 87.2115871,169.387261 87.5860435,169.402139 L87.2344896,170.062494 C86.9676751,169.792401 86.695135,169.526885 86.4134338,169.265948 M87.2860203,170.118573 L89.4445841,169.13319 C89.6484166,169.0588 89.8430881,168.969531 90.0308889,168.865385 L90.1270796,168.821896 L90.1190637,168.815029 C91.984475,167.716344 93.0162341,165.093233 93.0162341,160.947986 C93.0162341,151.855222 88.8388121,143.224821 80.420986,138.367717 C76.9707193,136.377495 74.1010319,135.883087 71.9733866,136.774624 L69.1815678,138.028956 L70.0862178,138.161714 C68.6296167,139.816608 67.8245927,142.577055 67.8245927,146.412153 L68.9914767,147.086242 C68.9914767,147.086242 68.4177683,148.471043 68.84032,149.409503 L71.191265,148.355452 C71.191265,141.127019 74.9633123,138.950249 80.3522784,142.059757 C86.0767666,145.362679 89.5121465,151.46496 89.5121465,158.384387 L89.5121465,159.705098 C89.5121465,163.225468 88.3819065,165.284358 86.4180143,165.774189 L83.4647326,170.632437 L87.3306802,174.3508 L87.3661792,174.316466 C89.0117262,177.194792 89.9175214,180.624749 89.9175214,184.268722 C89.9175214,192.196422 86.885226,194.412103 80.4862582,190.718919 C74.9633123,187.532732 71.1237026,181.042479 71.1237026,173.502752 L67.5543428,171.441573 C67.5543428,181.235893 72.6742041,190.020796 80.4862582,194.528839 C83.0421809,196.002908 85.239679,196.712475 87.0650109,196.718198 L86.8989675,197.381987 L89.3541191,196.284446 L89.3461032,196.27529 C92.0119581,195.115948 93.4193187,191.707736 93.4193187,186.289845 L93.4193187,185.589433 C93.4193187,179.283438 91.1920474,174.126485 87.2860203,170.118573" id="Fill-82" fill="#936590"></path>
                    <path d="M81.3621656,164.563003 L76.1083244,161.532463 L73.7585245,162.58537 L83.4646181,170.633238 L86.4178998,165.77499 C85.0872626,166.106885 83.3775885,165.725778 81.3621656,164.563003" id="Fill-83" fill="#C7AAD1"></path>
                    <path d="M18.5915894,141.869319 L18.5915894,113.342417 L3.63738033,133.164528 C8.6221167,136.039421 13.6057079,138.916602 18.5915894,141.869319 Z M0.000458050666,131.220084 L18.8606942,105.881658 L22.0269694,107.707078 L22.0269694,143.85153 L27.6838951,147.116684 L27.6838951,150.92546 L22.0269694,147.661449 L22.0269694,162.507432 L18.5915894,160.525221 L18.5915894,145.678094 L0.000458050666,134.951036 L0.000458050666,131.220084 Z" id="Fill-84" fill="#AB77A4"></path>
                    <path d="M55.4368414,166.78372 L55.4368414,142.06445 C55.4368414,134.68037 51.5972317,128.190117 46.2071205,125.080609 C40.8192996,121.971101 36.980835,124.031136 36.980835,131.415215 L36.980835,156.134486 C36.980835,163.518565 40.8192996,169.930995 46.2071205,173.040503 C51.5972317,176.151155 55.4368414,174.1678 55.4368414,166.78372 M33.545455,154.462424 L33.545455,129.199533 C33.545455,120.10677 38.7317337,116.879382 46.2071205,121.192866 C53.6859428,125.508638 59.0062012,134.79825 59.0062012,143.891014 L59.0062012,169.153905 C59.0062012,178.09331 53.6859428,181.319553 46.2071205,177.004925 C38.7317337,172.691442 33.545455,163.40183 33.545455,154.462424" id="Fill-85" fill="#AB77A4"></path>
                    <path d="M79.0125947,165.61797 C83.997331,168.494007 87.1624611,166.667443 87.1624611,160.759721 L87.1624611,159.43901 C87.1624611,152.520727 83.7270812,146.418447 78.0014478,143.114381 C72.6136269,140.004873 68.8404345,142.181643 68.8404345,149.410075 L65.4737621,147.46792 C65.4737621,137.984894 70.3233736,134.952066 78.0701554,139.422341 C86.4879815,144.279445 90.6654036,152.909845 90.6654036,162.003753 C90.6654036,168.377272 88.2411705,171.17663 84.0637484,170.319426 C88.5091301,174.44064 91.0684882,179.882565 91.0684882,186.644056 L91.0684882,187.344468 C91.0684882,197.138788 86.4879815,200.403943 78.1365728,195.584606 C70.3233736,191.075419 65.2035122,182.290516 65.2035122,172.497341 L68.7740172,174.557375 C68.7740172,182.097102 72.6136269,188.587355 78.1365728,191.774687 C84.5355406,195.466727 87.567836,193.252189 87.567836,185.32449 C87.567836,178.482886 84.4004156,172.380605 79.079012,169.311154 L73.7587535,166.240558 L73.7587535,162.586285 L79.0125947,165.61797 Z" id="Fill-86" fill="#AB77A4"></path>
                    <polygon id="Fill-87" fill="#C7AAD1" points="18.8610377 105.881315 21.2119828 104.82612 24.3759678 106.652684 22.027313 107.707879"></polygon>
                    <polygon id="Fill-88" fill="#C7AAD1" points="5.98729476 132.108989 3.63749485 133.164185 18.591704 141.868975 18.591704 139.428979"></polygon>
                    <polygon id="Fill-89" fill="#C7AAD1" points="27.6843532 147.11657 30.0352982 146.061374 24.3760823 142.797364 22.0274275 143.851415"></polygon>
                    <polygon id="Fill-90" fill="#936590" points="27.6843532 150.925574 30.0352982 149.870378 30.0352982 146.061603 27.6843532 147.116799"></polygon>
                    <polygon id="Fill-91" fill="#936590" points="24.3764258 161.45258 22.0266259 162.507775 22.0266259 147.660648 24.3764258 149.016837"></polygon>
                    <polygon id="Fill-92" fill="#C7AAD1" points="68.7735591 174.556918 71.1245042 173.502867 67.5551444 171.441687 65.2041993 172.496883"></polygon>
                </g>
                <g id="Tree-2" transform="translate(444.309146, 428.029412)">
                    <g>
                        <path d="M21.6643924,54.8902466 C28.7768318,58.9526301 40.3436803,58.9319726 47.5010894,54.8433699 C54.6576955,50.7555616 54.6938318,44.1475342 47.5813924,40.0851507 C41.0294682,36.3421644 30.6984833,36.0688493 23.5153773,39.2453425 L17.8451803,36.0060822 C16.9650591,35.5031507 15.5332561,35.5063288 14.6475136,36.0116438 C13.7609682,36.5177534 13.75615,37.3353151 14.6370742,37.8390411 L20.2928167,41.0687671 C14.6266348,45.1748493 15.0731197,51.1250137 21.6643924,54.8902466" id="Fill-1" fill="#000000" opacity="0.05" filter="url(#filter-3)"></path>
                        <path d="M13.1765227,36.0025863 C13.1765227,37.0148055 14.006053,37.8355452 15.0291136,37.8355452 C16.0521742,37.8355452 16.8817045,37.0148055 16.8817045,36.0025863 C16.8817045,34.9911616 16.0521742,34.1696274 15.0291136,34.1696274 C14.006053,34.1696274 13.1765227,34.9911616 13.1765227,36.0025863" id="Fill-3" fill="#D57576"></path>
                        <polygon id="Fill-5" fill="#D57576" points="13.1761212 36.0020301 16.881303 36.0020301 16.881303 21.5473178 13.1761212 21.5473178"></polygon>
                        <path d="M14.9633455,7.94520548e-05 C23.2273303,7.94520548e-05 29.9262091,6.62876438 29.9262091,14.8051753 C29.9262091,22.9807918 23.2273303,29.6094767 14.9633455,29.6094767 C-1.21851818,12.9674493 14.9633455,7.94520548e-05 14.9633455,7.94520548e-05" id="Fill-7" fill="#00BA6D"></path>
                        <path d="M14.9633455,7.94520548e-05 C14.9633455,7.94520548e-05 -1.21851818,12.9674493 14.9633455,29.6094767 C6.69936061,29.6094767 -0.000321212121,22.9807918 -0.000321212121,14.8051753 C-0.000321212121,6.62876438 6.69936061,7.94520548e-05 14.9633455,7.94520548e-05" id="Fill-8" fill="#00E75D"></path>
                    </g>
                </g>
                <g id="Tree-1" transform="translate(58.401460, 218.592561)">
                    <g>
                        <path d="M37.5896792,52.3301433 C39.7762625,51.0692179 25.0710542,31.9132776 12.9474708,36.1833373 L9.69134583,34.304606 C8.82367917,33.8038746 7.41134583,33.8062478 6.5381375,34.3109343 C5.66492917,34.8140388 5.66017917,35.6288149 6.5286375,36.1303373 L9.74359583,37.9837552 C1.7881375,45.0026955 35.3904292,53.5989791 37.5896792,52.3301433" id="Fill-1" fill="#000000" opacity="0.05" filter="url(#filter-4)"></path>
                        <path d="M5.28445417,34.3346657 C5.28445417,35.3416657 6.10224583,36.159606 7.11082917,36.159606 C8.1194125,36.159606 8.93720417,35.3416657 8.93720417,34.3346657 C8.93720417,33.3268746 8.1194125,32.5097254 7.11082917,32.5097254 C6.10224583,32.5097254 5.28445417,33.3268746 5.28445417,34.3346657" id="Fill-3" fill="#D57576"></path>
                        <polygon id="Fill-5" fill="#D57576" points="5.284375 34.3340328 8.937125 34.3340328 8.937125 19.9425552 5.284375 19.9425552"></polygon>
                        <path d="M7.00427083,-7.91044776e-05 C9.65952083,-7.91044776e-05 21.3413542,30.7739358 7.00427083,30.7739358 C7.00427083,30.7739358 1.29477083,22.579503 7.00427083,-7.91044776e-05" id="Fill-7" fill="#00BA6D"></path>
                        <path d="M7.00427083,-7.91044776e-05 C1.29477083,22.579503 7.00427083,30.7739358 7.00427083,30.7739358 C-7.3328125,30.7739358 4.34902083,-7.91044776e-05 7.00427083,-7.91044776e-05" id="Fill-8" fill="#00E75D"></path>
                    </g>
                </g>
                <g id="Tree-1" transform="translate(187.800773, 279.249135)">
                    <g>
                        <path d="M37.5896792,52.3301433 C39.7762625,51.0692179 25.0710542,31.9132776 12.9474708,36.1833373 L9.69134583,34.304606 C8.82367917,33.8038746 7.41134583,33.8062478 6.5381375,34.3109343 C5.66492917,34.8140388 5.66017917,35.6288149 6.5286375,36.1303373 L9.74359583,37.9837552 C1.7881375,45.0026955 35.3904292,53.5989791 37.5896792,52.3301433" id="Fill-1" fill="#000000" opacity="0.05" filter="url(#filter-5)"></path>
                        <path d="M5.28445417,34.3346657 C5.28445417,35.3416657 6.10224583,36.159606 7.11082917,36.159606 C8.1194125,36.159606 8.93720417,35.3416657 8.93720417,34.3346657 C8.93720417,33.3268746 8.1194125,32.5097254 7.11082917,32.5097254 C6.10224583,32.5097254 5.28445417,33.3268746 5.28445417,34.3346657" id="Fill-3" fill="#D57576"></path>
                        <polygon id="Fill-5" fill="#D57576" points="5.284375 34.3340328 8.937125 34.3340328 8.937125 19.9425552 5.284375 19.9425552"></polygon>
                        <path d="M7.00427083,-7.91044776e-05 C9.65952083,-7.91044776e-05 21.3413542,30.7739358 7.00427083,30.7739358 C7.00427083,30.7739358 1.29477083,22.579503 7.00427083,-7.91044776e-05" id="Fill-7" fill="#00BA6D"></path>
                        <path d="M7.00427083,-7.91044776e-05 C1.29477083,22.579503 7.00427083,30.7739358 7.00427083,30.7739358 C-7.3328125,30.7739358 4.34902083,-7.91044776e-05 7.00427083,-7.91044776e-05" id="Fill-8" fill="#00E75D"></path>
                    </g>
                </g>
                <g id="Tree-1" transform="translate(105.351653, 343.339100)">
                    <g>
                        <path d="M37.5896792,52.3301433 C39.7762625,51.0692179 25.0710542,31.9132776 12.9474708,36.1833373 L9.69134583,34.304606 C8.82367917,33.8038746 7.41134583,33.8062478 6.5381375,34.3109343 C5.66492917,34.8140388 5.66017917,35.6288149 6.5286375,36.1303373 L9.74359583,37.9837552 C1.7881375,45.0026955 35.3904292,53.5989791 37.5896792,52.3301433" id="Fill-1" fill="#000000" opacity="0.05" filter="url(#filter-6)"></path>
                        <path d="M5.28445417,34.3346657 C5.28445417,35.3416657 6.10224583,36.159606 7.11082917,36.159606 C8.1194125,36.159606 8.93720417,35.3416657 8.93720417,34.3346657 C8.93720417,33.3268746 8.1194125,32.5097254 7.11082917,32.5097254 C6.10224583,32.5097254 5.28445417,33.3268746 5.28445417,34.3346657" id="Fill-3" fill="#D57576"></path>
                        <polygon id="Fill-5" fill="#D57576" points="5.284375 34.3340328 8.937125 34.3340328 8.937125 19.9425552 5.284375 19.9425552"></polygon>
                        <path d="M7.00427083,-7.91044776e-05 C9.65952083,-7.91044776e-05 21.3413542,30.7739358 7.00427083,30.7739358 C7.00427083,30.7739358 1.29477083,22.579503 7.00427083,-7.91044776e-05" id="Fill-7" fill="#00BA6D"></path>
                        <path d="M7.00427083,-7.91044776e-05 C1.29477083,22.579503 7.00427083,30.7739358 7.00427083,30.7739358 C-7.3328125,30.7739358 4.34902083,-7.91044776e-05 7.00427083,-7.91044776e-05" id="Fill-8" fill="#00E75D"></path>
                    </g>
                </g>
                <g id="Person" transform="translate(486.678832, 352.494810)">
                    <g>
                        <path d="M18.0131538,33.5247907 C19.6648846,33.9723256 20.9652692,33.0946512 20.9652692,31.4413023 C20.9652692,29.7871628 19.6648846,27.9827907 18.0131538,27.2537674 L18.0131538,27.226093 L8.91530769,23.9842326 C7.81280769,23.5912558 6.84115385,23.7881395 6.25880769,24.4064651 L3.76465385,23.5177209 C2.75261538,23.1571628 1.93119231,23.6679535 1.93119231,24.6594884 C1.93119231,25.6502326 2.75261538,26.7469302 3.76465385,27.1074884 L6.25880769,27.9962326 C6.84115385,29.0288837 7.81280769,29.9176279 8.91530769,30.3106047 L18.0131538,33.5524651 L18.0131538,33.5247907 Z" id="Fill-1" fill="#000000" opacity="0.1" filter="url(#filter-7)"></path>
                        <path d="M1.39730769,25.0524651 L1.39730769,10.8966047 L5.06423077,10.8966047 L5.06423077,25.0229872 C5.0643921,25.0327943 5.06447308,25.0426205 5.06447308,25.0524651 C5.06447308,26.0432093 4.24305,26.8473488 3.23101154,26.8473488 C2.21816538,26.8473488 1.39755,26.0432093 1.39755,25.0524651 Z" id="Combined-Shape" fill="#D57576"></path>
                        <path d="M6.46178077,3.16310698 C6.46178077,4.90975814 5.01520385,6.32589767 3.23101154,6.32589767 C1.44681923,6.32589767 0.000242307692,4.90975814 0.000242307692,3.16310698 C0.000242307692,1.41566512 1.44681923,0.00031627907 3.23101154,0.00031627907 C5.01520385,0.00031627907 6.46178077,1.41566512 6.46178077,3.16310698" id="Fill-10" fill="#E98178"></path>
                        <path d="M6.43375385,11.1040837 C6.28998462,9.48710698 4.91933077,8.21408372 3.23125385,8.21408372 C1.54156154,8.21408372 0.171715385,9.48710698 0.0279461538,11.1040837 L0.000484615385,11.1040837 L0.000484615385,20.0105023 C0.000484615385,21.7571535 1.44625385,23.173293 3.23125385,23.173293 C5.01544615,23.173293 6.46202308,21.7571535 6.46202308,20.0105023 L6.46202308,11.1040837 L6.43375385,11.1040837 Z" id="Fill-11" fill="#FBD6D9"></path>
                    </g>
                </g>
                <g id="Person" transform="translate(235.896093, 410.862457)">
                    <g>
                        <path d="M18.0131538,33.5247907 C19.6648846,33.9723256 20.9652692,33.0946512 20.9652692,31.4413023 C20.9652692,29.7871628 19.6648846,27.9827907 18.0131538,27.2537674 L18.0131538,27.226093 L8.91530769,23.9842326 C7.81280769,23.5912558 6.84115385,23.7881395 6.25880769,24.4064651 L3.76465385,23.5177209 C2.75261538,23.1571628 1.93119231,23.6679535 1.93119231,24.6594884 C1.93119231,25.6502326 2.75261538,26.7469302 3.76465385,27.1074884 L6.25880769,27.9962326 C6.84115385,29.0288837 7.81280769,29.9176279 8.91530769,30.3106047 L18.0131538,33.5524651 L18.0131538,33.5247907 Z" id="Fill-1" fill="#000000" opacity="0.1" filter="url(#filter-8)"></path>
                        <path d="M1.39730769,25.0524651 L1.39730769,10.8966047 L5.06423077,10.8966047 L5.06423077,25.0229872 C5.0643921,25.0327943 5.06447308,25.0426205 5.06447308,25.0524651 C5.06447308,26.0432093 4.24305,26.8473488 3.23101154,26.8473488 C2.21816538,26.8473488 1.39755,26.0432093 1.39755,25.0524651 Z" id="Combined-Shape" fill="#D57576"></path>
                        <path d="M6.46178077,3.16310698 C6.46178077,4.90975814 5.01520385,6.32589767 3.23101154,6.32589767 C1.44681923,6.32589767 0.000242307692,4.90975814 0.000242307692,3.16310698 C0.000242307692,1.41566512 1.44681923,0.00031627907 3.23101154,0.00031627907 C5.01520385,0.00031627907 6.46178077,1.41566512 6.46178077,3.16310698" id="Fill-10" fill="#E98178"></path>
                        <path d="M6.43375385,11.1040837 C6.28998462,9.48710698 4.91933077,8.21408372 3.23125385,8.21408372 C1.54156154,8.21408372 0.171715385,9.48710698 0.0279461538,11.1040837 L0.000484615385,11.1040837 L0.000484615385,20.0105023 C0.000484615385,21.7571535 1.44625385,23.173293 3.23125385,23.173293 C5.01544615,23.173293 6.46202308,21.7571535 6.46202308,20.0105023 L6.46202308,11.1040837 L6.43375385,11.1040837 Z" id="Fill-11" fill="#FBD6D9"></path>
                    </g>
                </g>
                <g id="Person" transform="translate(207.267926, 428.029412)">
                    <g>
                        <path d="M18.0131538,33.5247907 C19.6648846,33.9723256 20.9652692,33.0946512 20.9652692,31.4413023 C20.9652692,29.7871628 19.6648846,27.9827907 18.0131538,27.2537674 L18.0131538,27.226093 L8.91530769,23.9842326 C7.81280769,23.5912558 6.84115385,23.7881395 6.25880769,24.4064651 L3.76465385,23.5177209 C2.75261538,23.1571628 1.93119231,23.6679535 1.93119231,24.6594884 C1.93119231,25.6502326 2.75261538,26.7469302 3.76465385,27.1074884 L6.25880769,27.9962326 C6.84115385,29.0288837 7.81280769,29.9176279 8.91530769,30.3106047 L18.0131538,33.5524651 L18.0131538,33.5247907 Z" id="Fill-1" fill="#000000" opacity="0.1" filter="url(#filter-9)"></path>
                        <path d="M1.39730769,25.0524651 L1.39730769,10.8966047 L5.06423077,10.8966047 L5.06423077,25.0229872 C5.0643921,25.0327943 5.06447308,25.0426205 5.06447308,25.0524651 C5.06447308,26.0432093 4.24305,26.8473488 3.23101154,26.8473488 C2.21816538,26.8473488 1.39755,26.0432093 1.39755,25.0524651 Z" id="Combined-Shape" fill="#D57576"></path>
                        <path d="M6.46178077,3.16310698 C6.46178077,4.90975814 5.01520385,6.32589767 3.23101154,6.32589767 C1.44681923,6.32589767 0.000242307692,4.90975814 0.000242307692,3.16310698 C0.000242307692,1.41566512 1.44681923,0.00031627907 3.23101154,0.00031627907 C5.01520385,0.00031627907 6.46178077,1.41566512 6.46178077,3.16310698" id="Fill-10" fill="#E98178"></path>
                        <path d="M6.43375385,11.1040837 C6.28998462,9.48710698 4.91933077,8.21408372 3.23125385,8.21408372 C1.54156154,8.21408372 0.171715385,9.48710698 0.0279461538,11.1040837 L0.000484615385,11.1040837 L0.000484615385,20.0105023 C0.000484615385,21.7571535 1.44625385,23.173293 3.23125385,23.173293 C5.01544615,23.173293 6.46202308,21.7571535 6.46202308,20.0105023 L6.46202308,11.1040837 L6.43375385,11.1040837 Z" id="Fill-11" fill="#FBD6D9"></path>
                    </g>
                </g>
                <g id="Person" transform="translate(180.930013, 422.307093)">
                    <g>
                        <path d="M18.0131538,33.5247907 C19.6648846,33.9723256 20.9652692,33.0946512 20.9652692,31.4413023 C20.9652692,29.7871628 19.6648846,27.9827907 18.0131538,27.2537674 L18.0131538,27.226093 L8.91530769,23.9842326 C7.81280769,23.5912558 6.84115385,23.7881395 6.25880769,24.4064651 L3.76465385,23.5177209 C2.75261538,23.1571628 1.93119231,23.6679535 1.93119231,24.6594884 C1.93119231,25.6502326 2.75261538,26.7469302 3.76465385,27.1074884 L6.25880769,27.9962326 C6.84115385,29.0288837 7.81280769,29.9176279 8.91530769,30.3106047 L18.0131538,33.5524651 L18.0131538,33.5247907 Z" id="Fill-1" fill="#000000" opacity="0.1" filter="url(#filter-10)"></path>
                        <path d="M1.39730769,25.0524651 L1.39730769,10.8966047 L5.06423077,10.8966047 L5.06423077,25.0229872 C5.0643921,25.0327943 5.06447308,25.0426205 5.06447308,25.0524651 C5.06447308,26.0432093 4.24305,26.8473488 3.23101154,26.8473488 C2.21816538,26.8473488 1.39755,26.0432093 1.39755,25.0524651 Z" id="Combined-Shape" fill="#D57576"></path>
                        <path d="M6.46178077,3.16310698 C6.46178077,4.90975814 5.01520385,6.32589767 3.23101154,6.32589767 C1.44681923,6.32589767 0.000242307692,4.90975814 0.000242307692,3.16310698 C0.000242307692,1.41566512 1.44681923,0.00031627907 3.23101154,0.00031627907 C5.01520385,0.00031627907 6.46178077,1.41566512 6.46178077,3.16310698" id="Fill-10" fill="#E98178"></path>
                        <path d="M6.43375385,11.1040837 C6.28998462,9.48710698 4.91933077,8.21408372 3.23125385,8.21408372 C1.54156154,8.21408372 0.171715385,9.48710698 0.0279461538,11.1040837 L0.000484615385,11.1040837 L0.000484615385,20.0105023 C0.000484615385,21.7571535 1.44625385,23.173293 3.23125385,23.173293 C5.01544615,23.173293 6.46202308,21.7571535 6.46202308,20.0105023 L6.46202308,11.1040837 L6.43375385,11.1040837 Z" id="Fill-11" fill="#FBD6D9"></path>
                    </g>
                </g>
                <g id="Person" transform="translate(154.592100, 422.307093)">
                    <g>
                        <path d="M18.0131538,33.5247907 C19.6648846,33.9723256 20.9652692,33.0946512 20.9652692,31.4413023 C20.9652692,29.7871628 19.6648846,27.9827907 18.0131538,27.2537674 L18.0131538,27.226093 L8.91530769,23.9842326 C7.81280769,23.5912558 6.84115385,23.7881395 6.25880769,24.4064651 L3.76465385,23.5177209 C2.75261538,23.1571628 1.93119231,23.6679535 1.93119231,24.6594884 C1.93119231,25.6502326 2.75261538,26.7469302 3.76465385,27.1074884 L6.25880769,27.9962326 C6.84115385,29.0288837 7.81280769,29.9176279 8.91530769,30.3106047 L18.0131538,33.5524651 L18.0131538,33.5247907 Z" id="Fill-1" fill="#000000" opacity="0.1" filter="url(#filter-11)"></path>
                        <path d="M1.39730769,25.0524651 L1.39730769,10.8966047 L5.06423077,10.8966047 L5.06423077,25.0229872 C5.0643921,25.0327943 5.06447308,25.0426205 5.06447308,25.0524651 C5.06447308,26.0432093 4.24305,26.8473488 3.23101154,26.8473488 C2.21816538,26.8473488 1.39755,26.0432093 1.39755,25.0524651 Z" id="Combined-Shape" fill="#D57576"></path>
                        <path d="M6.46178077,3.16310698 C6.46178077,4.90975814 5.01520385,6.32589767 3.23101154,6.32589767 C1.44681923,6.32589767 0.000242307692,4.90975814 0.000242307692,3.16310698 C0.000242307692,1.41566512 1.44681923,0.00031627907 3.23101154,0.00031627907 C5.01520385,0.00031627907 6.46178077,1.41566512 6.46178077,3.16310698" id="Fill-10" fill="#E98178"></path>
                        <path d="M6.43375385,11.1040837 C6.28998462,9.48710698 4.91933077,8.21408372 3.23125385,8.21408372 C1.54156154,8.21408372 0.171715385,9.48710698 0.0279461538,11.1040837 L0.000484615385,11.1040837 L0.000484615385,20.0105023 C0.000484615385,21.7571535 1.44625385,23.173293 3.23125385,23.173293 C5.01544615,23.173293 6.46202308,21.7571535 6.46202308,20.0105023 L6.46202308,11.1040837 L6.43375385,11.1040837 Z" id="Fill-11" fill="#FBD6D9"></path>
                    </g>
                </g>
                <g id="Person" transform="translate(128.254186, 413.151384)">
                    <g>
                        <path d="M18.0131538,33.5247907 C19.6648846,33.9723256 20.9652692,33.0946512 20.9652692,31.4413023 C20.9652692,29.7871628 19.6648846,27.9827907 18.0131538,27.2537674 L18.0131538,27.226093 L8.91530769,23.9842326 C7.81280769,23.5912558 6.84115385,23.7881395 6.25880769,24.4064651 L3.76465385,23.5177209 C2.75261538,23.1571628 1.93119231,23.6679535 1.93119231,24.6594884 C1.93119231,25.6502326 2.75261538,26.7469302 3.76465385,27.1074884 L6.25880769,27.9962326 C6.84115385,29.0288837 7.81280769,29.9176279 8.91530769,30.3106047 L18.0131538,33.5524651 L18.0131538,33.5247907 Z" id="Fill-1" fill="#000000" opacity="0.1" filter="url(#filter-12)"></path>
                        <path d="M1.39730769,25.0524651 L1.39730769,10.8966047 L5.06423077,10.8966047 L5.06423077,25.0229872 C5.0643921,25.0327943 5.06447308,25.0426205 5.06447308,25.0524651 C5.06447308,26.0432093 4.24305,26.8473488 3.23101154,26.8473488 C2.21816538,26.8473488 1.39755,26.0432093 1.39755,25.0524651 Z" id="Combined-Shape" fill="#D57576"></path>
                        <path d="M6.46178077,3.16310698 C6.46178077,4.90975814 5.01520385,6.32589767 3.23101154,6.32589767 C1.44681923,6.32589767 0.000242307692,4.90975814 0.000242307692,3.16310698 C0.000242307692,1.41566512 1.44681923,0.00031627907 3.23101154,0.00031627907 C5.01520385,0.00031627907 6.46178077,1.41566512 6.46178077,3.16310698" id="Fill-10" fill="#E98178"></path>
                        <path d="M6.43375385,11.1040837 C6.28998462,9.48710698 4.91933077,8.21408372 3.23125385,8.21408372 C1.54156154,8.21408372 0.171715385,9.48710698 0.0279461538,11.1040837 L0.000484615385,11.1040837 L0.000484615385,20.0105023 C0.000484615385,21.7571535 1.44625385,23.173293 3.23125385,23.173293 C5.01544615,23.173293 6.46202308,21.7571535 6.46202308,20.0105023 L6.46202308,11.1040837 L6.43375385,11.1040837 Z" id="Fill-11" fill="#FBD6D9"></path>
                    </g>
                </g>
                <g id="Person" transform="translate(85.884500, 262.082180)">
                    <g>
                        <path d="M18.0131538,33.5247907 C19.6648846,33.9723256 20.9652692,33.0946512 20.9652692,31.4413023 C20.9652692,29.7871628 19.6648846,27.9827907 18.0131538,27.2537674 L18.0131538,27.226093 L8.91530769,23.9842326 C7.81280769,23.5912558 6.84115385,23.7881395 6.25880769,24.4064651 L3.76465385,23.5177209 C2.75261538,23.1571628 1.93119231,23.6679535 1.93119231,24.6594884 C1.93119231,25.6502326 2.75261538,26.7469302 3.76465385,27.1074884 L6.25880769,27.9962326 C6.84115385,29.0288837 7.81280769,29.9176279 8.91530769,30.3106047 L18.0131538,33.5524651 L18.0131538,33.5247907 Z" id="Fill-1" fill="#000000" opacity="0.1" filter="url(#filter-13)"></path>
                        <path d="M1.39730769,25.0524651 L1.39730769,10.8966047 L5.06423077,10.8966047 L5.06423077,25.0229872 C5.0643921,25.0327943 5.06447308,25.0426205 5.06447308,25.0524651 C5.06447308,26.0432093 4.24305,26.8473488 3.23101154,26.8473488 C2.21816538,26.8473488 1.39755,26.0432093 1.39755,25.0524651 Z" id="Combined-Shape" fill="#D57576"></path>
                        <path d="M6.46178077,3.16310698 C6.46178077,4.90975814 5.01520385,6.32589767 3.23101154,6.32589767 C1.44681923,6.32589767 0.000242307692,4.90975814 0.000242307692,3.16310698 C0.000242307692,1.41566512 1.44681923,0.00031627907 3.23101154,0.00031627907 C5.01520385,0.00031627907 6.46178077,1.41566512 6.46178077,3.16310698" id="Fill-10" fill="#E98178"></path>
                        <path d="M6.43375385,11.1040837 C6.28998462,9.48710698 4.91933077,8.21408372 3.23125385,8.21408372 C1.54156154,8.21408372 0.171715385,9.48710698 0.0279461538,11.1040837 L0.000484615385,11.1040837 L0.000484615385,20.0105023 C0.000484615385,21.7571535 1.44625385,23.173293 3.23125385,23.173293 C5.01544615,23.173293 6.46202308,21.7571535 6.46202308,20.0105023 L6.46202308,11.1040837 L6.43375385,11.1040837 Z" id="Fill-11" fill="#FBD6D9"></path>
                    </g>
                </g>
                <g id="Person" transform="translate(58.401460, 279.249135)">
                    <g>
                        <path d="M18.0131538,33.5247907 C19.6648846,33.9723256 20.9652692,33.0946512 20.9652692,31.4413023 C20.9652692,29.7871628 19.6648846,27.9827907 18.0131538,27.2537674 L18.0131538,27.226093 L8.91530769,23.9842326 C7.81280769,23.5912558 6.84115385,23.7881395 6.25880769,24.4064651 L3.76465385,23.5177209 C2.75261538,23.1571628 1.93119231,23.6679535 1.93119231,24.6594884 C1.93119231,25.6502326 2.75261538,26.7469302 3.76465385,27.1074884 L6.25880769,27.9962326 C6.84115385,29.0288837 7.81280769,29.9176279 8.91530769,30.3106047 L18.0131538,33.5524651 L18.0131538,33.5247907 Z" id="Fill-1" fill="#000000" opacity="0.1" filter="url(#filter-14)"></path>
                        <path d="M1.39730769,25.0524651 L1.39730769,10.8966047 L5.06423077,10.8966047 L5.06423077,25.0229872 C5.0643921,25.0327943 5.06447308,25.0426205 5.06447308,25.0524651 C5.06447308,26.0432093 4.24305,26.8473488 3.23101154,26.8473488 C2.21816538,26.8473488 1.39755,26.0432093 1.39755,25.0524651 Z" id="Combined-Shape" fill="#D57576"></path>
                        <path d="M6.46178077,3.16310698 C6.46178077,4.90975814 5.01520385,6.32589767 3.23101154,6.32589767 C1.44681923,6.32589767 0.000242307692,4.90975814 0.000242307692,3.16310698 C0.000242307692,1.41566512 1.44681923,0.00031627907 3.23101154,0.00031627907 C5.01520385,0.00031627907 6.46178077,1.41566512 6.46178077,3.16310698" id="Fill-10" fill="#E98178"></path>
                        <path d="M6.43375385,11.1040837 C6.28998462,9.48710698 4.91933077,8.21408372 3.23125385,8.21408372 C1.54156154,8.21408372 0.171715385,9.48710698 0.0279461538,11.1040837 L0.000484615385,11.1040837 L0.000484615385,20.0105023 C0.000484615385,21.7571535 1.44625385,23.173293 3.23125385,23.173293 C5.01544615,23.173293 6.46202308,21.7571535 6.46202308,20.0105023 L6.46202308,11.1040837 L6.43375385,11.1040837 Z" id="Fill-11" fill="#FBD6D9"></path>
                    </g>
                </g>
                <g id="Person" transform="translate(99.626020, 401.706747)">
                    <g>
                        <path d="M18.0131538,33.5247907 C19.6648846,33.9723256 20.9652692,33.0946512 20.9652692,31.4413023 C20.9652692,29.7871628 19.6648846,27.9827907 18.0131538,27.2537674 L18.0131538,27.226093 L8.91530769,23.9842326 C7.81280769,23.5912558 6.84115385,23.7881395 6.25880769,24.4064651 L3.76465385,23.5177209 C2.75261538,23.1571628 1.93119231,23.6679535 1.93119231,24.6594884 C1.93119231,25.6502326 2.75261538,26.7469302 3.76465385,27.1074884 L6.25880769,27.9962326 C6.84115385,29.0288837 7.81280769,29.9176279 8.91530769,30.3106047 L18.0131538,33.5524651 L18.0131538,33.5247907 Z" id="Fill-1" fill="#000000" opacity="0.1" filter="url(#filter-15)"></path>
                        <path d="M1.39730769,25.0524651 L1.39730769,10.8966047 L5.06423077,10.8966047 L5.06423077,25.0229872 C5.0643921,25.0327943 5.06447308,25.0426205 5.06447308,25.0524651 C5.06447308,26.0432093 4.24305,26.8473488 3.23101154,26.8473488 C2.21816538,26.8473488 1.39755,26.0432093 1.39755,25.0524651 Z" id="Combined-Shape" fill="#D57576"></path>
                        <path d="M6.46178077,3.16310698 C6.46178077,4.90975814 5.01520385,6.32589767 3.23101154,6.32589767 C1.44681923,6.32589767 0.000242307692,4.90975814 0.000242307692,3.16310698 C0.000242307692,1.41566512 1.44681923,0.00031627907 3.23101154,0.00031627907 C5.01520385,0.00031627907 6.46178077,1.41566512 6.46178077,3.16310698" id="Fill-10" fill="#E98178"></path>
                        <path d="M6.43375385,11.1040837 C6.28998462,9.48710698 4.91933077,8.21408372 3.23125385,8.21408372 C1.54156154,8.21408372 0.171715385,9.48710698 0.0279461538,11.1040837 L0.000484615385,11.1040837 L0.000484615385,20.0105023 C0.000484615385,21.7571535 1.44625385,23.173293 3.23125385,23.173293 C5.01544615,23.173293 6.46202308,21.7571535 6.46202308,20.0105023 L6.46202308,11.1040837 L6.43375385,11.1040837 Z" id="Fill-11" fill="#FBD6D9"></path>
                    </g>
                </g>
                <g id="Person" transform="translate(75.578360, 399.417820)">
                    <g>
                        <path d="M18.0131538,33.5247907 C19.6648846,33.9723256 20.9652692,33.0946512 20.9652692,31.4413023 C20.9652692,29.7871628 19.6648846,27.9827907 18.0131538,27.2537674 L18.0131538,27.226093 L8.91530769,23.9842326 C7.81280769,23.5912558 6.84115385,23.7881395 6.25880769,24.4064651 L3.76465385,23.5177209 C2.75261538,23.1571628 1.93119231,23.6679535 1.93119231,24.6594884 C1.93119231,25.6502326 2.75261538,26.7469302 3.76465385,27.1074884 L6.25880769,27.9962326 C6.84115385,29.0288837 7.81280769,29.9176279 8.91530769,30.3106047 L18.0131538,33.5524651 L18.0131538,33.5247907 Z" id="Fill-1" fill="#000000" opacity="0.1" filter="url(#filter-16)"></path>
                        <path d="M1.39730769,25.0524651 L1.39730769,10.8966047 L5.06423077,10.8966047 L5.06423077,25.0229872 C5.0643921,25.0327943 5.06447308,25.0426205 5.06447308,25.0524651 C5.06447308,26.0432093 4.24305,26.8473488 3.23101154,26.8473488 C2.21816538,26.8473488 1.39755,26.0432093 1.39755,25.0524651 Z" id="Combined-Shape" fill="#D57576"></path>
                        <path d="M6.46178077,3.16310698 C6.46178077,4.90975814 5.01520385,6.32589767 3.23101154,6.32589767 C1.44681923,6.32589767 0.000242307692,4.90975814 0.000242307692,3.16310698 C0.000242307692,1.41566512 1.44681923,0.00031627907 3.23101154,0.00031627907 C5.01520385,0.00031627907 6.46178077,1.41566512 6.46178077,3.16310698" id="Fill-10" fill="#E98178"></path>
                        <path d="M6.43375385,11.1040837 C6.28998462,9.48710698 4.91933077,8.21408372 3.23125385,8.21408372 C1.54156154,8.21408372 0.171715385,9.48710698 0.0279461538,11.1040837 L0.000484615385,11.1040837 L0.000484615385,20.0105023 C0.000484615385,21.7571535 1.44625385,23.173293 3.23125385,23.173293 C5.01544615,23.173293 6.46202308,21.7571535 6.46202308,20.0105023 L6.46202308,11.1040837 L6.43375385,11.1040837 Z" id="Fill-11" fill="#FBD6D9"></path>
                    </g>
                </g>
                <g id="Person" transform="translate(48.095320, 405.140138)">
                    <g>
                        <path d="M18.0131538,33.5247907 C19.6648846,33.9723256 20.9652692,33.0946512 20.9652692,31.4413023 C20.9652692,29.7871628 19.6648846,27.9827907 18.0131538,27.2537674 L18.0131538,27.226093 L8.91530769,23.9842326 C7.81280769,23.5912558 6.84115385,23.7881395 6.25880769,24.4064651 L3.76465385,23.5177209 C2.75261538,23.1571628 1.93119231,23.6679535 1.93119231,24.6594884 C1.93119231,25.6502326 2.75261538,26.7469302 3.76465385,27.1074884 L6.25880769,27.9962326 C6.84115385,29.0288837 7.81280769,29.9176279 8.91530769,30.3106047 L18.0131538,33.5524651 L18.0131538,33.5247907 Z" id="Fill-1" fill="#000000" opacity="0.1" filter="url(#filter-17)"></path>
                        <path d="M1.39730769,25.0524651 L1.39730769,10.8966047 L5.06423077,10.8966047 L5.06423077,25.0229872 C5.0643921,25.0327943 5.06447308,25.0426205 5.06447308,25.0524651 C5.06447308,26.0432093 4.24305,26.8473488 3.23101154,26.8473488 C2.21816538,26.8473488 1.39755,26.0432093 1.39755,25.0524651 Z" id="Combined-Shape" fill="#D57576"></path>
                        <path d="M6.46178077,3.16310698 C6.46178077,4.90975814 5.01520385,6.32589767 3.23101154,6.32589767 C1.44681923,6.32589767 0.000242307692,4.90975814 0.000242307692,3.16310698 C0.000242307692,1.41566512 1.44681923,0.00031627907 3.23101154,0.00031627907 C5.01520385,0.00031627907 6.46178077,1.41566512 6.46178077,3.16310698" id="Fill-10" fill="#E98178"></path>
                        <path d="M6.43375385,11.1040837 C6.28998462,9.48710698 4.91933077,8.21408372 3.23125385,8.21408372 C1.54156154,8.21408372 0.171715385,9.48710698 0.0279461538,11.1040837 L0.000484615385,11.1040837 L0.000484615385,20.0105023 C0.000484615385,21.7571535 1.44625385,23.173293 3.23125385,23.173293 C5.01544615,23.173293 6.46202308,21.7571535 6.46202308,20.0105023 L6.46202308,11.1040837 L6.43375385,11.1040837 Z" id="Fill-11" fill="#FBD6D9"></path>
                    </g>
                </g>
                <g id="Person" transform="translate(24.047660, 421.162630)">
                    <g>
                        <path d="M18.0131538,33.5247907 C19.6648846,33.9723256 20.9652692,33.0946512 20.9652692,31.4413023 C20.9652692,29.7871628 19.6648846,27.9827907 18.0131538,27.2537674 L18.0131538,27.226093 L8.91530769,23.9842326 C7.81280769,23.5912558 6.84115385,23.7881395 6.25880769,24.4064651 L3.76465385,23.5177209 C2.75261538,23.1571628 1.93119231,23.6679535 1.93119231,24.6594884 C1.93119231,25.6502326 2.75261538,26.7469302 3.76465385,27.1074884 L6.25880769,27.9962326 C6.84115385,29.0288837 7.81280769,29.9176279 8.91530769,30.3106047 L18.0131538,33.5524651 L18.0131538,33.5247907 Z" id="Fill-1" fill="#000000" opacity="0.1" filter="url(#filter-18)"></path>
                        <path d="M1.39730769,25.0524651 L1.39730769,10.8966047 L5.06423077,10.8966047 L5.06423077,25.0229872 C5.0643921,25.0327943 5.06447308,25.0426205 5.06447308,25.0524651 C5.06447308,26.0432093 4.24305,26.8473488 3.23101154,26.8473488 C2.21816538,26.8473488 1.39755,26.0432093 1.39755,25.0524651 Z" id="Combined-Shape" fill="#D57576"></path>
                        <path d="M6.46178077,3.16310698 C6.46178077,4.90975814 5.01520385,6.32589767 3.23101154,6.32589767 C1.44681923,6.32589767 0.000242307692,4.90975814 0.000242307692,3.16310698 C0.000242307692,1.41566512 1.44681923,0.00031627907 3.23101154,0.00031627907 C5.01520385,0.00031627907 6.46178077,1.41566512 6.46178077,3.16310698" id="Fill-10" fill="#E98178"></path>
                        <path d="M6.43375385,11.1040837 C6.28998462,9.48710698 4.91933077,8.21408372 3.23125385,8.21408372 C1.54156154,8.21408372 0.171715385,9.48710698 0.0279461538,11.1040837 L0.000484615385,11.1040837 L0.000484615385,20.0105023 C0.000484615385,21.7571535 1.44625385,23.173293 3.23125385,23.173293 C5.01544615,23.173293 6.46202308,21.7571535 6.46202308,20.0105023 L6.46202308,11.1040837 L6.43375385,11.1040837 Z" id="Fill-11" fill="#FBD6D9"></path>
                    </g>
                </g>
                <g id="Person" transform="translate(0.000000, 413.151384)">
                    <g>
                        <path d="M18.0131538,33.5247907 C19.6648846,33.9723256 20.9652692,33.0946512 20.9652692,31.4413023 C20.9652692,29.7871628 19.6648846,27.9827907 18.0131538,27.2537674 L18.0131538,27.226093 L8.91530769,23.9842326 C7.81280769,23.5912558 6.84115385,23.7881395 6.25880769,24.4064651 L3.76465385,23.5177209 C2.75261538,23.1571628 1.93119231,23.6679535 1.93119231,24.6594884 C1.93119231,25.6502326 2.75261538,26.7469302 3.76465385,27.1074884 L6.25880769,27.9962326 C6.84115385,29.0288837 7.81280769,29.9176279 8.91530769,30.3106047 L18.0131538,33.5524651 L18.0131538,33.5247907 Z" id="Fill-1" fill="#000000" opacity="0.1" filter="url(#filter-19)"></path>
                        <path d="M1.39730769,25.0524651 L1.39730769,10.8966047 L5.06423077,10.8966047 L5.06423077,25.0229872 C5.0643921,25.0327943 5.06447308,25.0426205 5.06447308,25.0524651 C5.06447308,26.0432093 4.24305,26.8473488 3.23101154,26.8473488 C2.21816538,26.8473488 1.39755,26.0432093 1.39755,25.0524651 Z" id="Combined-Shape" fill="#D57576"></path>
                        <path d="M6.46178077,3.16310698 C6.46178077,4.90975814 5.01520385,6.32589767 3.23101154,6.32589767 C1.44681923,6.32589767 0.000242307692,4.90975814 0.000242307692,3.16310698 C0.000242307692,1.41566512 1.44681923,0.00031627907 3.23101154,0.00031627907 C5.01520385,0.00031627907 6.46178077,1.41566512 6.46178077,3.16310698" id="Fill-10" fill="#E98178"></path>
                        <path d="M6.43375385,11.1040837 C6.28998462,9.48710698 4.91933077,8.21408372 3.23125385,8.21408372 C1.54156154,8.21408372 0.171715385,9.48710698 0.0279461538,11.1040837 L0.000484615385,11.1040837 L0.000484615385,20.0105023 C0.000484615385,21.7571535 1.44625385,23.173293 3.23125385,23.173293 C5.01544615,23.173293 6.46202308,21.7571535 6.46202308,20.0105023 L6.46202308,11.1040837 L6.43375385,11.1040837 Z" id="Fill-11" fill="#FBD6D9"></path>
                    </g>
                </g>
            </g>
        </g>
    </g>
</svg>