<?xml version="1.0" encoding="UTF-8"?>
<svg width="570px" height="570px" viewBox="0 0 570 570" version="1.1" xmlns="http://www.w3.org/2000/svg" xmlns:xlink="http://www.w3.org/1999/xlink">
    <!-- Generator: Sketch 51.1 (57501) - http://www.bohemiancoding.com/sketch -->
    <title>500 - Server Error</title>
    <desc>Created with Sketch.</desc>
    <defs>
        <filter x="-27.2%" y="-47.4%" width="154.5%" height="194.7%" filterUnits="objectBoundingBox" id="filter-1">
            <feGaussianBlur stdDeviation="15" in="SourceGraphic"></feGaussianBlur>
        </filter>
        <filter x="-22.3%" y="-38.7%" width="144.6%" height="177.5%" filterUnits="objectBoundingBox" id="filter-2">
            <feGaussianBlur stdDeviation="15" in="SourceGraphic"></feGaussianBlur>
        </filter>
        <filter x="-44.6%" y="-77.5%" width="189.1%" height="255.0%" filterUnits="objectBoundingBox" id="filter-3">
            <feGaussianBlur stdDeviation="15" in="SourceGraphic"></feGaussianBlur>
        </filter>
        <filter x="-44.6%" y="-78.1%" width="189.2%" height="256.1%" filterUnits="objectBoundingBox" id="filter-4">
            <feGaussianBlur stdDeviation="6" in="SourceGraphic"></feGaussianBlur>
        </filter>
        <filter x="-53.6%" y="-92.0%" width="207.1%" height="283.9%" filterUnits="objectBoundingBox" id="filter-5">
            <feGaussianBlur stdDeviation="6" in="SourceGraphic"></feGaussianBlur>
        </filter>
        <filter x="-53.6%" y="-92.0%" width="207.1%" height="283.9%" filterUnits="objectBoundingBox" id="filter-6">
            <feGaussianBlur stdDeviation="6" in="SourceGraphic"></feGaussianBlur>
        </filter>
        <filter x="-60.2%" y="-110.7%" width="220.4%" height="321.4%" filterUnits="objectBoundingBox" id="filter-7">
            <feGaussianBlur stdDeviation="4" in="SourceGraphic"></feGaussianBlur>
        </filter>
        <filter x="-60.2%" y="-110.7%" width="220.4%" height="321.4%" filterUnits="objectBoundingBox" id="filter-8">
            <feGaussianBlur stdDeviation="4" in="SourceGraphic"></feGaussianBlur>
        </filter>
        <filter x="-60.2%" y="-110.7%" width="220.4%" height="321.4%" filterUnits="objectBoundingBox" id="filter-9">
            <feGaussianBlur stdDeviation="4" in="SourceGraphic"></feGaussianBlur>
        </filter>
        <filter x="-60.2%" y="-110.7%" width="220.4%" height="321.4%" filterUnits="objectBoundingBox" id="filter-10">
            <feGaussianBlur stdDeviation="4" in="SourceGraphic"></feGaussianBlur>
        </filter>
        <filter x="-60.2%" y="-110.7%" width="220.4%" height="321.4%" filterUnits="objectBoundingBox" id="filter-11">
            <feGaussianBlur stdDeviation="4" in="SourceGraphic"></feGaussianBlur>
        </filter>
        <filter x="-60.2%" y="-110.7%" width="220.4%" height="321.4%" filterUnits="objectBoundingBox" id="filter-12">
            <feGaussianBlur stdDeviation="4" in="SourceGraphic"></feGaussianBlur>
        </filter>
        <filter x="-63.9%" y="-111.2%" width="227.8%" height="322.4%" filterUnits="objectBoundingBox" id="filter-13">
            <feGaussianBlur stdDeviation="3" in="SourceGraphic"></feGaussianBlur>
        </filter>
        <filter x="-63.9%" y="-111.2%" width="227.8%" height="322.4%" filterUnits="objectBoundingBox" id="filter-14">
            <feGaussianBlur stdDeviation="3" in="SourceGraphic"></feGaussianBlur>
        </filter>
        <filter x="-63.9%" y="-111.2%" width="227.8%" height="322.4%" filterUnits="objectBoundingBox" id="filter-15">
            <feGaussianBlur stdDeviation="3" in="SourceGraphic"></feGaussianBlur>
        </filter>
        <filter x="-63.9%" y="-111.2%" width="227.8%" height="322.4%" filterUnits="objectBoundingBox" id="filter-16">
            <feGaussianBlur stdDeviation="3" in="SourceGraphic"></feGaussianBlur>
        </filter>
        <filter x="-63.9%" y="-111.2%" width="227.8%" height="322.4%" filterUnits="objectBoundingBox" id="filter-17">
            <feGaussianBlur stdDeviation="3" in="SourceGraphic"></feGaussianBlur>
        </filter>
        <filter x="-63.9%" y="-111.2%" width="227.8%" height="322.4%" filterUnits="objectBoundingBox" id="filter-18">
            <feGaussianBlur stdDeviation="3" in="SourceGraphic"></feGaussianBlur>
        </filter>
    </defs>
    <g id="500---Server-Error" stroke="none" stroke-width="1" fill="none" fill-rule="evenodd">
        <g id="500---Illustration" transform="translate(77.000000, 5.000000)">
            <g>
                <polygon id="Fill-16-Copy-2" fill="#000000" opacity="0.07" filter="url(#filter-1)" points="178.685916 465 96 512.501794 178.685916 560 261.235487 512.501794"></polygon>
                <polygon id="Fill-16-Copy-3" fill="#000000" opacity="0.07" filter="url(#filter-2)" points="301.083341 297 200 355.070833 301.083341 413.13728 402 355.070833"></polygon>
                <polygon id="Fill-16-Copy-4" fill="#000000" opacity="0.07" filter="url(#filter-3)" points="200.54167 138 150 167.035416 200.54167 196.06864 251 167.035416"></polygon>
                <g id="Base" transform="translate(4.761905, 0.000000)">
                    <polygon id="Fill-1" fill="#EDE3F0" points="144.040694 223.809524 153.571429 229.167188 144.040694 234.52381 134.52381 229.167188"></polygon>
                    <polygon id="Fill-2" fill="#DCC3DE" points="152.380952 229.761905 142.857143 235.417415 142.857143 242.857143 152.380952 237.200535"></polygon>
                    <polygon id="Fill-3" fill="#C7AAD1" points="134.52381 229.761905 144.047619 235.417415 144.047619 242.857143 134.52381 237.200535"></polygon>
                    <path d="M137.027295,238.120795 C137.266038,238.38173 137.527718,238.604046 137.806078,238.764781 C138.862178,239.375368 139.718109,238.880636 139.718109,237.659463 C139.718109,236.652256 139.134283,235.466571 138.337777,234.739085 C138.168884,234.584612 137.990609,234.44997 137.806078,234.343509 C136.749977,233.732922 135.894046,234.228698 135.894046,235.447783 C135.894046,236.348529 136.359022,237.390179 137.027295,238.120795" id="Fill-4" fill="#936590"></path>
                    <polygon id="Fill-6" fill="#AB77A4" points="55.9865568 440.35925 55.9865568 438.271774 130.271172 395.669538 130.271172 397.757013"></polygon>
                    <polygon id="Fill-8" fill="#936590" points="131.299332 398.35591 130.259913 397.756804 55.9867653 440.351735 56.477805 440.635631 59.12796 442.159488 59.3594055 442.026933 133.399022 399.564558"></polygon>
                    <polygon id="Fill-10" fill="#936590" points="113.330719 388.308892 39.3056974 430.75248 42.4479346 432.585283 42.6783376 432.452729 116.469828 390.117689"></polygon>
                    <polygon id="Fill-12" fill="#EDE3F0" points="113.330719 386.225487 97.5715751 377.147058 23.580958 419.920467 39.5486109 429.104314 39.3056974 428.679513"></polygon>
                    <polygon id="Fill-14" fill="#EDE3F0" points="130.286289 395.651794 116.190008 387.699558 42.4329219 430.471923 55.9860355 438.271774"></polygon>
                    <polygon id="Fill-16" fill="#EDE3F0" points="193.359456 432.131675 133.104398 397.391914 59.1137813 440.164279 119.578391 475.010502"></polygon>
                    <polygon id="Fill-18" fill="#AB77A4" points="39.3058016 430.752584 39.3058016 428.665109 113.330823 386.225696 113.330823 388.313171"></polygon>
                    <polygon id="Fill-20" fill="#DCC3DE" points="23.5810623 465.230577 39.3068442 474.315268 39.3068442 428.665318 23.5810623 419.58167"></polygon>
                    <polygon id="Fill-22" fill="#DCC3DE" points="119.39459 474.933996 59.1155537 440.109692 59.1155537 485.758598 59.1197239 485.76173 59.1291068 478.98996 99.8572556 502.392644 99.9771485 509.365855 127.039589 525 127.039589 490.936581"></polygon>
                    <polygon id="Fill-24" fill="#EDE3F0" points="42.1992871 420.190795 42.6569653 420.454861 42.4307326 420.058241"></polygon>
                    <polygon id="Fill-26" fill="#936590" points="200.690857 447.887624 127.039067 490.831163 127.039067 525 200.690857 482.056461"></polygon>
                    <path d="M77.6814427,465.365114 C76.9818935,464.599011 76.209366,463.947719 75.3940941,463.474906 C72.2935587,461.683852 69.7799775,463.135691 69.7799775,466.720929 C69.7799775,469.677838 71.4928825,473.157659 73.833401,475.293146 C74.3286109,475.745084 74.850927,476.140661 75.3940941,476.454826 C78.4935869,478.246923 81.0071682,476.794041 81.0071682,473.21089 C81.0071682,470.568146 79.6403888,467.509995 77.6814427,465.365114" id="Fill-28" fill="#EDE3F0"></path>
                    <path d="M76.0077374,465.094995 C76.4654156,465.360104 76.9074556,465.6941 77.3276021,466.077152 C76.7354353,465.430035 76.0828008,464.878941 75.3936771,464.480234 C72.7727134,462.96577 70.6490448,464.19425 70.6490448,467.223176 C70.6490448,469.722927 72.0971429,472.663136 74.0748549,474.466715 C72.4192899,472.654786 71.2631051,470.070492 71.2631051,467.836894 C71.2631051,464.809011 73.3867737,463.580532 76.0077374,465.094995" id="Fill-30" fill="#AB77A4"></path>
                    <path d="M80.1382051,472.707913 C80.1382051,470.475358 78.9830628,467.89002 77.3274979,466.077048 C76.9073514,465.693996 76.4663539,465.36 76.0076331,465.094891 C73.3866695,463.580427 71.2630008,464.808907 71.2630008,467.836789 C71.2630008,470.070388 72.4191857,472.654682 74.0747506,474.467654 C74.4938546,474.850706 74.9358946,475.184702 75.3935728,475.449811 C78.0145365,476.964274 80.1382051,475.735795 80.1382051,472.707913" id="Fill-32" fill="#936590"></path>
                    <path d="M96.1052325,477.124488 C95.4056833,476.359428 94.6331558,475.707092 93.8178839,475.235323 C90.716306,473.443226 88.2037673,474.896108 88.2037673,478.480303 C88.2037673,481.437212 89.9156298,484.917033 92.2571908,487.05252 C92.7524007,487.504458 93.2747168,487.900035 93.8178839,488.2142 C96.9173767,490.006297 99.430958,488.553415 99.430958,484.970263 C99.430958,482.32752 98.0641786,479.269369 96.1052325,477.124488" id="Fill-34" fill="#EDE3F0"></path>
                    <path d="M94.4314229,476.854369 C94.8891012,477.119478 95.3311412,477.453474 95.7512877,477.836526 C95.1591209,477.189409 94.5064863,476.638315 93.8173626,476.239607 C91.196399,474.725144 89.0727303,475.953623 89.0727303,478.98255 C89.0727303,481.482301 90.5208284,484.42251 92.4985404,486.227132 C90.8429755,484.41416 89.6867906,481.829866 89.6867906,479.596267 C89.6867906,476.568385 91.8104593,475.339906 94.4314229,476.854369" id="Fill-36" fill="#AB77A4"></path>
                    <path d="M98.5619949,484.467286 C98.5619949,482.234732 97.4068526,479.649394 95.7512877,477.836421 C95.3311412,477.45337 94.8901437,477.119374 94.4314229,476.854264 C91.8104593,475.339801 89.6867906,476.56828 89.6867906,479.596163 C89.6867906,481.829761 90.8429755,484.414056 92.4985404,486.228072 C92.9176444,486.61008 93.3596844,486.944076 93.8173626,487.209185 C96.4372837,488.723648 98.5619949,487.495169 98.5619949,484.467286" id="Fill-38" fill="#936590"></path>
                    <path d="M133.885371,433.4567 L130.373029,433.4567 L130.165562,433.337714 C128.825889,432.564304 126.64905,432.564304 125.31042,433.337714 C123.971789,434.111123 123.971789,435.369871 125.31042,436.14328 L127.446599,437.378022 C127.581088,437.455258 127.761448,437.498052 127.951192,437.499095 L131.447895,437.500139 L132.403911,438.05332 C132.682271,438.214056 133.133694,438.214056 133.412054,438.05332 C133.690414,437.892584 133.690414,437.63165 133.412054,437.470915 L132.247529,436.797704 C132.114083,436.720467 131.93268,436.677674 131.743979,436.67663 L128.247275,436.675586 L126.318563,435.560875 C125.53561,435.107893 125.53561,434.372058 126.318563,433.919076 C127.101516,433.467137 128.374466,433.467137 129.157419,433.919076 L129.535864,434.13826 C129.580693,434.168529 129.632821,434.194622 129.692246,434.216541 C129.693288,434.217584 129.696416,434.217584 129.699544,434.218628 C129.732905,434.230109 129.765224,434.24159 129.800671,434.24994 C129.911181,434.277078 130.032116,434.287515 130.149924,434.281252 L133.59033,434.281252 L136.249868,435.818678 C138.081623,436.877028 138.081623,438.601282 136.249868,439.659632 C134.506729,440.666839 131.688724,440.722157 129.83299,439.783837 C129.536906,439.634583 129.085483,439.65337 128.826932,439.824543 C128.56838,439.995716 128.598614,440.255606 128.894697,440.404861 C131.312364,441.626034 134.9863,441.55506 137.256968,440.242038 C139.645444,438.862217 139.645444,436.61505 137.256968,435.235229 L134.388921,433.577773 C134.255475,433.500537 134.075114,433.4567 133.885371,433.4567" id="Fill-40" fill="#936590"></path>
                    <path d="M130.106137,438.914925 L130.505433,439.145591 C131.843021,439.919001 134.020902,439.919001 135.359532,439.145591 C136.69712,438.371138 136.698163,437.112391 135.359532,436.338981 L133.255672,435.123027 C133.121183,435.04579 132.93978,435.001953 132.748994,435.002997 L129.181398,435.007172 L128.223297,434.452947 C127.944937,434.291168 127.493514,434.291168 127.216196,434.452947 C126.937836,434.613683 126.937836,434.874617 127.216196,435.035353 L128.383849,435.710651 C128.518338,435.787888 128.698698,435.830681 128.889484,435.830681 L132.457081,435.826506 L134.351389,436.92243 C135.134342,437.374369 135.134342,438.110204 134.351389,438.563186 C133.568436,439.016168 132.296529,439.016168 131.513576,438.563186 L131.040259,438.289727 C130.915154,438.171784 130.692048,438.091417 130.433497,438.091417 L130.416816,438.091417 L130.383454,438.091417 L126.888836,438.091417 L124.291851,436.589478 C122.459053,435.531128 122.459053,433.806874 124.291851,432.748524 C125.97765,431.773673 128.743528,431.693305 130.588836,432.564826 L130.646176,432.591963 C130.94643,432.740174 131.39681,432.718255 131.649107,432.543951 C131.904531,432.370691 131.866999,432.1108 131.566746,431.964677 L131.49064,431.928146 C129.044824,430.772729 125.517887,430.875015 123.283708,432.166118 C120.896275,433.545939 120.896275,435.793106 123.283708,437.172927 L126.089203,438.794896 C126.222649,438.872132 126.404052,438.914925 126.593795,438.914925 L130.106137,438.914925 Z" id="Fill-42" fill="#936590"></path>
                    <polygon id="Fill-44" fill="#AB77A4" points="194.967064 474.933996 188.159231 478.90333 188.159231 482.547018 194.967064 478.577684"></polygon>
                    <polygon id="Fill-46" fill="#936590" points="195.868033 474.408057 194.967272 474.9341 194.967272 478.556914 195.868033 479.138275"></polygon>
                    <polygon id="Fill-48" fill="#EDE3F0" points="194.967064 478.556496 194.967064 478.578415 188.159231 482.546705 188.159231 483.681248 195.867825 479.186914 195.867825 479.138902"></polygon>
                    <polygon id="Fill-50" fill="#AB77A4" points="182.626433 482.189225 175.8186 486.158559 175.8186 489.802247 182.626433 485.832913"></polygon>
                    <polygon id="Fill-52" fill="#936590" points="183.527506 481.663285 182.626746 482.189329 182.626746 485.812142 183.527506 486.393504"></polygon>
                    <polygon id="Fill-54" fill="#EDE3F0" points="182.626433 485.811725 182.626433 485.833643 175.8186 489.801933 175.8186 490.936476 183.527194 486.442142 183.527194 486.39413"></polygon>
                    <polygon id="Fill-56" fill="#AB77A4" points="147.755106 502.392331 140.947272 506.361665 140.947272 510.005353 147.755106 506.036019"></polygon>
                    <polygon id="Fill-58" fill="#936590" points="148.656179 501.866392 147.755418 502.392435 147.755418 506.015249 148.656179 506.59661"></polygon>
                    <polygon id="Fill-60" fill="#EDE3F0" points="147.755106 506.014831 147.755106 506.03675 140.947272 510.00504 140.947272 511.139583 148.655866 506.645249 148.655866 506.597237"></polygon>
                    <path d="M158.24876,500.239622 C158.054846,500.452545 157.840082,500.633111 157.614892,500.763579 C156.75479,501.261441 156.057326,500.858559 156.057326,499.86492 C156.057326,499.043499 156.532728,498.079085 157.182234,497.487286 C157.318808,497.360994 157.463722,497.252445 157.614892,497.164771 C158.47395,496.667952 159.171414,497.070835 159.171414,498.064473 C159.171414,498.797177 158.791927,499.645736 158.24876,500.239622" id="Fill-62" fill="#EDE3F0"></path>
                    <path d="M157.784514,500.31498 C157.911705,500.241918 158.033683,500.149026 158.151491,500.042565 C157.986768,500.222087 157.806407,500.375517 157.614579,500.485109 C156.887923,500.904692 156.298884,500.564433 156.298884,499.725268 C156.298884,499.032227 156.700265,498.216024 157.248645,497.716074 C156.789924,498.218111 156.468819,498.935159 156.468819,499.554095 C156.468819,500.394304 157.057859,500.734563 157.784514,500.31498" id="Fill-64" fill="#AB77A4"></path>
                    <path d="M158.929856,498.204125 C158.929856,498.823062 158.609794,499.539066 158.151074,500.043191 C158.034308,500.148608 157.911288,500.241501 157.784097,500.314563 C157.057442,500.735189 156.469445,500.39493 156.469445,499.554722 C156.469445,498.934742 156.789507,498.218738 157.24927,497.715656 C157.364993,497.610239 157.486971,497.517346 157.614162,497.443241 C158.34186,497.023658 158.929856,497.363917 158.929856,498.204125" id="Fill-66" fill="#936590"></path>
                    <path d="M163.046145,496.724105 C162.979422,496.797167 162.905402,496.859791 162.82721,496.904672 C162.531127,497.075845 162.290299,496.937028 162.290299,496.594682 C162.290299,496.311829 162.455021,495.97992 162.678126,495.776392 C162.725041,495.732555 162.775083,495.69498 162.82721,495.664712 C163.123294,495.493539 163.364122,495.632356 163.364122,495.974702 C163.364122,496.226243 163.232761,496.519533 163.046145,496.724105" id="Fill-68" fill="#EDE3F0"></path>
                    <path d="M162.886323,496.749573 C162.93011,496.724523 162.971812,496.692167 163.011429,496.655636 C162.955131,496.71826 162.893621,496.770447 162.826898,496.809066 C162.576686,496.953101 162.374432,496.836203 162.374432,496.547087 C162.374432,496.308072 162.513091,496.027306 162.70075,495.855089 C162.543325,496.02835 162.432815,496.274672 162.432815,496.487594 C162.432815,496.77671 162.636112,496.894652 162.886323,496.749573" id="Fill-70" fill="#AB77A4"></path>
                    <path d="M163.280301,496.022818 C163.280301,496.235741 163.170834,496.482063 163.011324,496.655323 C162.971708,496.692898 162.930006,496.72421 162.886219,496.749259 C162.636007,496.894339 162.433753,496.77744 162.433753,496.487281 C162.433753,496.274359 162.543221,496.028037 162.700645,495.854776 C162.741305,495.818246 162.783006,495.78589 162.826793,495.76084 C163.078047,495.61576 163.280301,495.733703 163.280301,496.022818" id="Fill-72" fill="#936590"></path>
                    <path d="M165.847991,495.006635 C165.781268,495.078653 165.707247,495.141277 165.629056,495.187202 C165.332973,495.357331 165.092144,495.218514 165.092144,494.877212 C165.092144,494.593315 165.256867,494.261407 165.479972,494.057878 C165.526886,494.015084 165.576929,493.97751 165.629056,493.947242 C165.925139,493.776069 166.165968,493.914886 166.165968,494.257232 C166.165968,494.508772 166.034607,494.802063 165.847991,495.006635" id="Fill-74" fill="#EDE3F0"></path>
                    <path d="M165.688168,495.032102 C165.731955,495.007053 165.773657,494.974697 165.813274,494.938166 C165.756977,494.999747 165.695466,495.052977 165.628743,495.090552 C165.378532,495.234587 165.176278,495.117689 165.176278,494.829617 C165.176278,494.589558 165.314937,494.309836 165.502595,494.137619 C165.34517,494.31088 165.23466,494.557202 165.23466,494.770124 C165.23466,495.05924 165.437957,495.177182 165.688168,495.032102" id="Fill-76" fill="#AB77A4"></path>
                    <path d="M166.082147,494.305348 C166.082147,494.51827 165.97268,494.764592 165.81317,494.937853 C165.773553,494.975427 165.731851,495.00674 165.688064,495.031789 C165.437853,495.176869 165.235599,495.05997 165.235599,494.769811 C165.235599,494.556889 165.345066,494.310567 165.502491,494.137306 C165.54315,494.100775 165.584852,494.068419 165.628639,494.04337 C165.879893,493.89829 166.082147,494.016233 166.082147,494.305348" id="Fill-78" fill="#936590"></path>
                    <polygon id="Fill-80" fill="#C7AAD1" points="193.378743 432.160169 200.691169 447.887207 127.03938 490.936163 119.394382 474.932535"></polygon>
                    <polygon id="Fill-82" fill="#DCC3DE" points="42.4334432 430.472237 42.4334432 476.122187 55.9865568 483.922038 55.9865568 438.272087"></polygon>
                    <polygon id="Fill-84" fill="#DCC3DE" points="39.3058016 430.752584 59.128794 442.159592 59.1141984 485.758598 39.3058016 474.31506"></polygon>
                    <path d="M43.1145393,454.89507 C42.8893491,454.669622 42.6401803,454.736421 42.5567766,455.045368 C42.4744153,455.352227 42.5901381,455.786421 42.8163708,456.010825 C43.041561,456.236272 43.2907298,456.170517 43.373091,455.861571 C43.4554522,455.553668 43.3397295,455.120517 43.1145393,454.89507" id="Fill-86" fill="#936590"></path>
                    <path d="M43.8037673,452.320378 C43.5775345,452.09493 43.3283657,452.162773 43.2460045,452.470676 C43.1636433,452.777535 43.279366,453.21173 43.5045562,453.436133 C43.730789,453.662624 43.9799577,453.595825 44.062319,453.287922 C44.1446802,452.978976 44.0289575,452.546869 43.8037673,452.320378" id="Fill-88" fill="#936590"></path>
                    <path d="M44.9766329,447.938559 C44.7504001,447.712068 44.5012313,447.779911 44.4188701,448.087813 C44.3365089,448.395716 44.4522316,448.828867 44.6774218,449.054314 C44.9036546,449.279761 45.1528233,449.212962 45.2351846,448.90506 C45.3175458,448.597157 45.201823,448.164006 44.9766329,447.938559" id="Fill-90" fill="#936590"></path>
                    <path d="M47.696013,453.451789 C47.4781206,453.510239 47.3832488,453.864066 47.4843759,454.240855 C47.5865455,454.617644 47.8450972,454.876491 48.061947,454.819085 C48.2798394,454.760636 48.3736686,454.406809 48.2735841,454.03002 C48.172457,453.651143 47.9139053,453.39334 47.696013,453.451789" id="Fill-92" fill="#936590"></path>
                    <path d="M48.2020654,459.988405 C47.9758326,459.761914 47.7266638,459.829756 47.6443026,460.137659 C47.5619414,460.445562 47.6776641,460.878713 47.9028543,461.10416 C48.1290871,461.329607 48.3782558,461.262808 48.4606171,460.954906 C48.5429783,460.645959 48.4272556,460.213852 48.2020654,459.988405" id="Fill-94" fill="#936590"></path>
                    <path d="M45.0631643,463.289851 C44.8452719,463.349344 44.7504001,463.702127 44.8515272,464.07996 C44.9526543,464.45675 45.211206,464.715596 45.4290983,464.657147 C45.6469907,464.598698 45.7408199,464.244871 45.6396929,463.868082 C45.5385658,463.490249 45.2800141,463.231402 45.0631643,463.289851" id="Fill-96" fill="#936590"></path>
                    <path d="M41.2523415,461.851685 C41.0271513,461.626238 40.7779825,461.694081 40.6956213,462.001983 C40.6132601,462.308842 40.7279403,462.743037 40.954173,462.96744 C41.1793632,463.193931 41.428532,463.127132 41.5108932,462.81923 C41.5932544,462.510283 41.4785742,462.078176 41.2523415,461.851685" id="Fill-98" fill="#936590"></path>
                    <path d="M37.8682333,456.087644 C37.6513835,456.146093 37.5565117,456.49992 37.6576388,456.87671 C37.7587658,457.254543 38.0173176,457.512346 38.2352099,457.45494 C38.4531023,457.396491 38.545889,457.042664 38.4458045,456.665875 C38.3446774,456.288042 38.0861257,456.029195 37.8682333,456.087644" id="Fill-100" fill="#936590"></path>
                    <path d="M38.0270132,449.801735 C37.801823,449.576287 37.5526543,449.64413 37.470293,449.952033 C37.3879318,450.258892 37.5036546,450.693086 37.7288447,450.91749 C37.9540349,451.143981 38.2032037,451.077182 38.2855649,450.769279 C38.3689687,450.460333 38.253246,450.028226 38.0270132,449.801735" id="Fill-102" fill="#936590"></path>
                    <path d="M40.5020203,446.249583 C40.2841279,446.308032 40.1892561,446.661859 40.2903832,447.038648 C40.3915103,447.415437 40.650062,447.674284 40.8679544,447.616879 C41.0858467,447.557386 41.179676,447.204602 41.0785489,446.826769 C40.9774218,446.448936 40.7199127,446.190089 40.5020203,446.249583" id="Fill-104" fill="#936590"></path>
                    <path d="M44.9664159,455.649379 C45.1843083,455.589886 45.2791801,455.237102 45.1770104,454.859269 C45.0758833,454.48248 44.8173316,454.223633 44.5994393,454.281039 C44.3825895,454.340532 44.2887602,454.693315 44.3888447,455.071148 C44.4899718,455.448981 44.7485235,455.707828 44.9664159,455.649379" id="Fill-106" fill="#936590"></path>
                    <path d="M44.9969625,456.779747 C44.7717723,456.553255 44.521561,456.621098 44.4391998,456.930045 C44.3568385,457.236904 44.4725613,457.671098 44.6977515,457.895502 C44.9239842,458.120949 45.173153,458.055194 45.2555142,457.746248 C45.3378755,457.438345 45.2221527,457.005194 44.9969625,456.779747" id="Fill-108" fill="#936590"></path>
                    <path d="M43.6255959,457.922326 C43.4087461,457.980775 43.3138743,458.334602 43.4150014,458.711392 C43.5161285,459.089225 43.7746802,459.348072 43.9925726,459.289622 C44.2104649,459.231173 44.3042942,458.877346 44.2031671,458.500557 C44.10204,458.122724 43.8434883,457.863877 43.6255959,457.922326" id="Fill-110" fill="#936590"></path>
                    <path d="M42.4252071,457.468718 C42.2000169,457.24327 41.9508481,457.311113 41.8684869,457.619016 C41.7861257,457.926918 41.9018484,458.36007 42.1270386,458.585517 C42.3522288,458.810964 42.6013976,458.744165 42.6837588,458.436262 C42.76612,458.127316 42.6514398,457.695209 42.4252071,457.468718" id="Fill-112" fill="#936590"></path>
                    <path d="M40.9642857,455.256933 C40.7463934,455.316426 40.6515216,455.66921 40.7526486,456.047043 C40.8548183,456.423832 41.1123274,456.682679 41.3302198,456.625273 C41.5481121,456.56578 41.6419414,456.212997 41.5418569,455.835164 C41.4396872,455.457331 41.1821781,455.198484 40.9642857,455.256933" id="Fill-114" fill="#936590"></path>
                    <path d="M41.4906678,453.976685 C41.573029,453.668782 41.4583488,453.235631 41.2321161,453.010184 C41.0069259,452.784737 40.7577571,452.851536 40.6753959,453.160482 C40.5930347,453.468385 40.7077148,453.901536 40.9339476,454.126983 C41.1591378,454.351387 41.4083066,454.285631 41.4906678,453.976685" id="Fill-116" fill="#936590"></path>
                    <path d="M41.9386503,451.617107 C41.720758,451.675557 41.6258862,452.029384 41.7270132,452.406173 C41.8291829,452.782962 42.086692,453.041809 42.3045844,452.984404 C42.5224768,452.925954 42.616306,452.572127 42.5162215,452.195338 C42.4140518,451.816461 42.1565427,451.557614 41.9386503,451.617107" id="Fill-118" fill="#936590"></path>
                    <path d="M194.312344,460.904702 C194.173686,461.056044 194.022516,461.184423 193.860921,461.276272 C193.249989,461.630099 192.754779,461.344115 192.754779,460.637505 C192.754779,460.055099 193.092564,459.36832 193.55337,458.948738 C193.651369,458.858976 193.754582,458.78174 193.860921,458.719115 C194.471854,458.366332 194.967064,458.652316 194.967064,459.358926 C194.967064,459.879751 194.698087,460.481988 194.312344,460.904702" id="Fill-120" fill="#EDE3F0"></path>
                    <path d="M189.523195,462.412276 C189.489834,462.447763 189.453345,462.479076 189.41477,462.500994 C189.268814,462.585537 189.149963,462.517694 189.149963,462.347565 C189.149963,462.208748 189.231282,462.043837 189.34075,461.943638 C189.364728,461.92172 189.388707,461.903976 189.41477,461.88832 C189.560727,461.803777 189.679577,461.87162 189.679577,462.04175 C189.679577,462.166998 189.614939,462.30999 189.523195,462.412276" id="Fill-122" fill="#EDE3F0"></path>
                    <path d="M186.807881,463.999279 C186.77452,464.03581 186.739073,464.066079 186.699456,464.089041 C186.5535,464.173583 186.434649,464.104697 186.434649,463.934568 C186.434649,463.79575 186.515968,463.63084 186.625435,463.530641 C186.649414,463.508723 186.674435,463.490979 186.699456,463.476367 C186.846455,463.391824 186.964263,463.459667 186.964263,463.629796 C186.964263,463.754001 186.900668,463.898037 186.807881,463.999279" id="Fill-124" fill="#EDE3F0"></path>
                    <polygon id="Fill-126" fill="#AB77A4" points="59.1141984 485.758703 65.0181431 482.374906 59.128794 478.990065"></polygon>
                    <polygon id="Fill-128" fill="#AB77A4" points="319.712319 288.759394 319.712319 286.671918 245.428746 244.068638 245.428746 246.156113"></polygon>
                    <polygon id="Fill-130" fill="#936590" points="244.399439 246.755114 245.438859 246.156009 319.712006 288.751983 319.220966 289.034836 316.570811 290.559737 316.339366 290.427182 242.299749 247.964806"></polygon>
                    <polygon id="Fill-132" fill="#936590" points="262.368053 236.70914 336.393074 279.152729 333.250837 280.985532 333.020434 280.852977 259.228943 238.517937"></polygon>
                    <polygon id="Fill-134" fill="#EDE3F0" points="262.368053 234.624692 278.127196 225.547306 352.117813 268.319672 336.150161 277.503519 336.393074 277.078718"></polygon>
                    <polygon id="Fill-136" fill="#EDE3F0" points="245.412482 244.050895 259.508763 236.098658 333.26585 278.872068 319.712736 286.671918"></polygon>
                    <polygon id="Fill-138" fill="#EDE3F0" points="182.339315 280.530775 242.594373 245.791014 316.58499 288.564423 256.121423 323.409602"></polygon>
                    <polygon id="Fill-140" fill="#AB77A4" points="336.393074 279.152729 336.393074 277.065253 262.368053 234.624796 262.368053 236.712271"></polygon>
                    <polygon id="Fill-142" fill="#DCC3DE" points="352.117813 313.630721 336.393074 322.715413 336.393074 277.065462 352.117813 267.98077"></polygon>
                    <polygon id="Fill-144" fill="#DCC3DE" points="256.304181 323.333201 316.58426 288.508897 316.58426 334.158847 316.58009 334.160934 316.570707 327.390209 275.841516 350.791849 275.722666 357.76506 248.659183 373.400249 248.659183 339.336829"></polygon>
                    <polygon id="Fill-146" fill="#EDE3F0" points="333.499589 268.591044 333.04191 268.854066 333.268143 268.458489"></polygon>
                    <polygon id="Fill-148" fill="#936590" points="175.007915 296.287768 248.659704 339.231307 248.659704 373.400144 175.007915 330.456605"></polygon>
                    <path d="M298.018371,313.764215 C298.716878,312.999155 299.489405,312.346819 300.30572,311.87505 C303.406255,310.083996 305.918794,311.535835 305.918794,315.12003 C305.918794,318.077982 304.206932,321.557803 301.865371,323.692247 C301.370161,324.144185 300.847844,324.540805 300.30572,324.853926 C297.205185,326.647068 294.692646,325.193141 294.692646,321.60999 C294.692646,318.96829 296.059425,315.910139 298.018371,313.764215" id="Fill-150" fill="#EDE3F0"></path>
                    <path d="M299.692077,313.495139 C299.233356,313.760249 298.791316,314.094245 298.371169,314.476252 C298.963336,313.829135 299.615971,313.278042 300.305094,312.880378 C302.926058,311.365915 305.049727,312.59335 305.049727,315.622276 C305.049727,318.122028 303.602671,321.06328 301.624959,322.866859 C303.279482,321.053887 304.436709,318.469592 304.436709,316.237038 C304.436709,313.208111 302.311998,311.980676 299.692077,313.495139" id="Fill-152" fill="#AB77A4"></path>
                    <path d="M295.560566,321.107117 C295.560566,318.874563 296.715709,316.290268 298.371274,314.476252 C298.79142,314.094245 299.232418,313.760249 299.692181,313.495139 C302.312102,311.980676 304.436813,313.208111 304.436813,316.237038 C304.436813,318.469592 303.279586,321.053887 301.624021,322.867903 C301.204917,323.249911 300.763919,323.58495 300.305199,323.85006 C297.685278,325.364523 295.560566,324.136044 295.560566,321.107117" id="Fill-154" fill="#936590"></path>
                    <path d="M279.594582,325.524632 C280.294131,324.758529 281.066658,324.106193 281.88193,323.634423 C284.982465,321.84337 287.495004,323.295209 287.495004,326.879404 C287.495004,329.837356 285.783142,333.317177 283.442623,335.45162 C282.947413,335.904602 282.424055,336.300179 281.88193,336.6133 C278.781395,338.406441 276.268856,336.952515 276.268856,333.369364 C276.268856,330.727664 277.635635,327.669513 279.594582,325.524632" id="Fill-156" fill="#EDE3F0"></path>
                    <path d="M281.268391,325.254513 C280.80967,325.519622 280.36763,325.853618 279.948526,326.235626 C280.539651,325.588509 281.193328,325.038459 281.882451,324.639751 C284.502372,323.125288 286.627084,324.353767 286.627084,327.38165 C286.627084,329.881402 285.178986,332.822654 283.201274,334.626233 C284.856839,332.814304 286.013023,330.228966 286.013023,327.996412 C286.013023,324.967485 283.888312,323.74005 281.268391,325.254513" id="Fill-158" fill="#AB77A4"></path>
                    <path d="M277.136881,332.866491 C277.136881,330.633936 278.293066,328.049642 279.948631,326.235626 C280.367735,325.853618 280.808732,325.519622 281.268495,325.254513 C283.888416,323.74005 286.013128,324.967485 286.013128,327.996412 C286.013128,330.228966 284.856943,332.814304 283.200335,334.627276 C282.782274,335.010328 282.340234,335.344324 281.882556,335.609433 C279.261592,337.123897 277.136881,335.895417 277.136881,332.866491" id="Fill-160" fill="#936590"></path>
                    <polygon id="Fill-162" fill="#AB77A4" points="180.731812 323.333201 187.539645 327.303579 187.539645 330.947266 180.731812 326.976889"></polygon>
                    <polygon id="Fill-164" fill="#936590" points="179.830738 322.808305 180.731499 323.333305 180.731499 326.956118 179.830738 327.538524"></polygon>
                    <polygon id="Fill-166" fill="#EDE3F0" points="180.731812 326.955701 180.731812 326.977619 187.539645 330.946953 187.539645 332.081496 179.831051 327.586118 179.831051 327.53915"></polygon>
                    <polygon id="Fill-168" fill="#AB77A4" points="193.073277 330.588429 199.88111 334.558807 199.88111 338.202495 193.073277 334.232117"></polygon>
                    <polygon id="Fill-170" fill="#936590" points="192.172308 330.063534 193.073068 330.588534 193.073068 334.211347 192.172308 334.793752"></polygon>
                    <polygon id="Fill-172" fill="#EDE3F0" points="193.073277 334.210929 193.073277 334.232848 199.88111 338.202182 199.88111 339.336725 192.172516 334.841347 192.172516 334.794379"></polygon>
                    <polygon id="Fill-174" fill="#AB77A4" points="227.944708 350.792475 234.752542 354.761809 234.752542 358.405497 227.944708 354.436163"></polygon>
                    <polygon id="Fill-176" fill="#936590" points="227.043635 350.266536 227.944396 350.79258 227.944396 354.415393 227.043635 354.996754"></polygon>
                    <polygon id="Fill-178" fill="#EDE3F0" points="227.944708 354.414975 227.944708 354.436894 234.752542 358.405184 234.752542 359.539727 227.043948 355.045393 227.043948 354.997381"></polygon>
                    <path d="M217.450011,348.639766 C217.644968,348.851645 217.85869,349.033255 218.08388,349.163723 C218.945024,349.661585 219.641445,349.257659 219.641445,348.264021 C219.641445,347.443643 219.166044,346.47923 218.516537,345.886387 C218.379963,345.761138 218.235049,345.651546 218.08388,345.564916 C217.224821,345.067053 216.527357,345.470979 216.527357,346.464617 C216.527357,347.196277 216.906844,348.04588 217.450011,348.639766" id="Fill-180" fill="#EDE3F0"></path>
                    <path d="M217.914258,348.714185 C217.787067,348.641123 217.665089,348.548231 217.548323,348.441769 C217.713046,348.621292 217.893407,348.774722 218.084193,348.885358 C218.810848,349.30494 219.40093,348.964682 219.40093,348.125517 C219.40093,347.431431 218.998507,346.615229 218.451169,346.116322 C218.90989,346.61836 219.229952,347.335408 219.229952,347.9533 C219.229952,348.794553 218.640913,349.134811 217.914258,348.714185" id="Fill-182" fill="#AB77A4"></path>
                    <path d="M216.768915,346.603226 C216.768915,347.223206 217.09002,347.93921 217.54874,348.442291 C217.664463,348.547709 217.787484,348.640601 217.914675,348.713663 C218.64133,349.135333 219.229327,348.795075 219.229327,347.953822 C219.229327,347.334886 218.910307,346.618882 218.450544,346.1158 C218.334821,346.009339 218.211801,345.916446 218.08461,345.842341 C217.357954,345.422758 216.768915,345.763017 216.768915,346.603226" id="Fill-184" fill="#936590"></path>
                    <path d="M212.653669,345.12425 C212.719349,345.196267 212.794413,345.258892 212.871561,345.304816 C213.167644,345.474945 213.408473,345.336128 213.408473,344.994826 C213.408473,344.710929 213.24375,344.379021 213.021688,344.175492 C212.973731,344.132699 212.923688,344.095124 212.871561,344.064856 C212.57652,343.893683 212.335692,344.0325 212.335692,344.374846 C212.335692,344.626387 212.46601,344.919677 212.653669,345.12425" id="Fill-186" fill="#EDE3F0"></path>
                    <path d="M212.813491,345.149821 C212.769704,345.124771 212.72696,345.092416 212.687343,345.055885 C212.74364,345.117465 212.806193,345.170696 212.871874,345.20827 C213.122085,345.352306 213.324339,345.235408 213.324339,344.946292 C213.324339,344.707276 213.186723,344.427555 212.998022,344.255338 C213.155447,344.428598 213.266999,344.67492 213.266999,344.887843 C213.266999,345.176958 213.063702,345.294901 212.813491,345.149821" id="Fill-188" fill="#AB77A4"></path>
                    <path d="M212.41847,344.423067 C212.41847,344.635989 212.52898,344.882311 212.687447,345.055572 C212.727064,345.093146 212.769808,345.124458 212.813595,345.149508 C213.063807,345.294587 213.266061,345.177689 213.266061,344.88753 C213.266061,344.674607 213.155551,344.428285 212.998126,344.255025 C212.958509,344.218494 212.915765,344.185094 212.871978,344.161088 C212.621767,344.016009 212.41847,344.133951 212.41847,344.423067" id="Fill-190" fill="#936590"></path>
                    <path d="M209.851823,343.40584 C209.917504,343.478902 209.992567,343.541526 210.069715,343.586407 C210.365799,343.75758 210.606627,343.618762 210.606627,343.276417 C210.606627,342.993564 210.441905,342.661655 210.219842,342.458126 C210.171885,342.415333 210.121843,342.377758 210.069715,342.346446 C209.774675,342.175273 209.533846,342.31409 209.533846,342.656436 C209.533846,342.909021 209.664165,343.201267 209.851823,343.40584" id="Fill-192" fill="#EDE3F0"></path>
                    <path d="M210.011646,343.431307 C209.967859,343.407301 209.925114,343.373902 209.885497,343.337371 C209.941795,343.399995 210.004348,343.453226 210.070028,343.4908 C210.32024,343.634836 210.522494,343.517937 210.522494,343.228822 C210.522494,342.989806 210.384877,342.709041 210.196176,342.536824 C210.353601,342.710084 210.465154,342.956407 210.465154,343.170373 C210.465154,343.458444 210.261857,343.576387 210.011646,343.431307" id="Fill-194" fill="#AB77A4"></path>
                    <path d="M209.616624,342.704553 C209.616624,342.917475 209.727134,343.164841 209.885602,343.337058 C209.925218,343.374632 209.967963,343.406988 210.01175,343.430994 C210.261961,343.576074 210.464215,343.459175 210.464215,343.17006 C210.464215,342.956093 210.353705,342.709771 210.196281,342.536511 C210.156664,342.49998 210.113919,342.467624 210.070132,342.442575 C209.819921,342.297495 209.616624,342.415437 209.616624,342.704553" id="Fill-196" fill="#936590"></path>
                    <polygon id="Fill-198" fill="#C7AAD1" points="182.320028 280.560313 175.007602 296.287351 248.659391 339.336307 256.30439 323.332679"></polygon>
                    <polygon id="Fill-200" fill="#DCC3DE" points="333.265433 278.872485 333.265433 324.521392 319.712319 332.321243 319.712319 286.672336"></polygon>
                    <polygon id="Fill-202" fill="#DCC3DE" points="336.393074 279.152729 316.570082 290.559737 316.584677 334.158743 336.393074 322.715204"></polygon>
                    <path d="M332.584232,303.295318 C332.810465,303.068827 333.059634,303.13667 333.141995,303.444573 C333.224356,303.752475 333.108633,304.185626 332.883443,304.411074 C332.65721,304.636521 332.408042,304.569722 332.32568,304.261819 C332.243319,303.952873 332.359042,303.520765 332.584232,303.295318" id="Fill-204" fill="#936590"></path>
                    <path d="M331.896047,300.720626 C332.121237,300.495179 332.370406,300.561978 332.452767,300.870924 C332.535128,301.177783 332.419405,301.611978 332.194215,301.836382 C331.969025,302.061829 331.719856,301.996074 331.637495,301.687127 C331.555134,301.379225 331.669814,300.946074 331.896047,300.720626" id="Fill-206" fill="#936590"></path>
                    <path d="M330.723181,296.337763 C330.948371,296.112316 331.19754,296.179115 331.279901,296.488062 C331.362263,296.79492 331.24654,297.229115 331.02135,297.453519 C330.796159,297.68001 330.545948,297.613211 330.463587,297.305308 C330.381226,296.996362 330.496948,296.564254 330.723181,296.337763" id="Fill-208" fill="#936590"></path>
                    <path d="M328.002759,301.850994 C328.220651,301.910487 328.315523,302.26327 328.214396,302.641103 C328.113269,303.017893 327.854717,303.27674 327.636824,303.219334 C327.418932,303.159841 327.325103,302.807058 327.42623,302.429225 C327.527357,302.051392 327.785909,301.792545 328.002759,301.850994" id="Fill-210" fill="#936590"></path>
                    <path d="M327.497749,308.387609 C327.722939,308.162162 327.972108,308.228961 328.054469,308.537908 C328.13683,308.844766 328.021107,309.278961 327.795917,309.503365 C327.570727,309.729856 327.321558,309.663057 327.239197,309.355154 C327.156836,309.046208 327.271516,308.6141 327.497749,308.387609" id="Fill-212" fill="#936590"></path>
                    <path d="M330.63665,311.689995 C330.854542,311.748444 330.948371,312.102271 330.847244,312.479061 C330.746117,312.856894 330.487566,313.114697 330.269673,313.057291 C330.052823,312.998842 329.958994,312.645015 330.059079,312.268226 C330.160206,311.889349 330.418757,311.631546 330.63665,311.689995" id="Fill-214" fill="#936590"></path>
                    <path d="M334.44643,310.251829 C334.672663,310.026382 334.921832,310.093181 335.004193,310.402127 C335.086554,310.708986 334.970831,311.143181 334.745641,311.367584 C334.519408,311.593032 334.27024,311.527276 334.187878,311.21833 C334.105517,310.910427 334.22124,310.477276 334.44643,310.251829" id="Fill-216" fill="#936590"></path>
                    <path d="M337.830642,304.487788 C338.048535,304.546238 338.143407,304.900065 338.04228,305.276854 C337.94011,305.653643 337.682601,305.91249 337.464708,305.855084 C337.246816,305.796635 337.152987,305.442808 337.253071,305.064975 C337.354198,304.687142 337.61275,304.428295 337.830642,304.487788" id="Fill-218" fill="#936590"></path>
                    <path d="M337.671758,298.201983 C337.896948,297.976536 338.146117,298.043335 338.229521,298.352281 C338.311882,298.65914 338.196159,299.093335 337.969927,299.317739 C337.744737,299.543186 337.495568,299.47743 337.413207,299.168484 C337.330845,298.860582 337.446568,298.42743 337.671758,298.201983" id="Fill-220" fill="#936590"></path>
                    <path d="M335.197794,294.648787 C335.414644,294.707237 335.509515,295.061064 335.408388,295.437853 C335.307261,295.815686 335.048709,296.074533 334.830817,296.016083 C334.612925,295.957634 334.520138,295.603807 334.620223,295.227018 C334.72135,294.849185 334.979901,294.590338 335.197794,294.648787" id="Fill-222" fill="#936590"></path>
                    <path d="M330.732356,304.048479 C330.515506,303.99003 330.420634,303.636203 330.521761,303.259414 C330.622888,302.882624 330.88144,302.623777 331.099332,302.681183 C331.317225,302.739632 331.411054,303.093459 331.309927,303.470249 C331.2088,303.849125 330.950248,304.107972 330.732356,304.048479" id="Fill-224" fill="#936590"></path>
                    <path d="M330.701809,305.178951 C330.928042,304.953504 331.17721,305.021347 331.259572,305.32925 C331.341933,305.636108 331.22621,306.070303 331.00102,306.294707 C330.774787,306.521198 330.525618,306.454399 330.443257,306.146496 C330.360896,305.83755 330.476619,305.405442 330.701809,305.178951" id="Fill-226" fill="#936590"></path>
                    <path d="M332.073176,306.322575 C332.291068,306.381024 332.38594,306.734851 332.28377,307.11164 C332.182643,307.488429 331.924091,307.747276 331.706199,307.689871 C331.489349,307.631421 331.39552,307.277594 331.495604,306.900805 C331.596731,306.521928 331.855283,306.263082 332.073176,306.322575" id="Fill-228" fill="#936590"></path>
                    <path d="M333.273564,305.868966 C333.498755,305.643519 333.748966,305.710318 333.831327,306.019264 C333.913688,306.326123 333.797966,306.760318 333.571733,306.984722 C333.346543,307.211213 333.097374,307.144414 333.015013,306.835467 C332.932651,306.527565 333.048374,306.095457 333.273564,305.868966" id="Fill-230" fill="#936590"></path>
                    <path d="M334.735528,303.657078 C334.952378,303.715527 335.04725,304.069354 334.946123,304.446143 C334.844996,304.823976 334.586444,305.081779 334.368552,305.024374 C334.150659,304.965924 334.057873,304.612097 334.157957,304.235308 C334.259084,303.856431 334.517636,303.598628 334.735528,303.657078" id="Fill-232" fill="#936590"></path>
                    <path d="M334.208104,302.376933 C334.125742,302.069031 334.241465,301.63588 334.466655,301.410432 C334.692888,301.183941 334.942057,301.251784 335.024418,301.559687 C335.106779,301.868633 334.991057,302.300741 334.765866,302.527232 C334.539634,302.751635 334.290465,302.684836 334.208104,302.376933" id="Fill-234" fill="#936590"></path>
                    <path d="M333.761164,300.016312 C333.978014,300.075805 334.072885,300.428588 333.971758,300.806421 C333.870631,301.183211 333.612079,301.442058 333.394187,301.384652 C333.176295,301.325159 333.082465,300.971332 333.183593,300.594543 C333.28472,300.21671 333.543271,299.957863 333.761164,300.016312" id="Fill-236" fill="#936590"></path>
                    <path d="M181.38747,309.30495 C181.525086,309.456292 181.677298,309.584672 181.83785,309.676521 C182.449825,310.029304 182.943993,309.74332 182.943993,309.037753 C182.943993,308.455348 182.606207,307.768569 182.146444,307.347942 C182.048445,307.259225 181.94419,307.180944 181.83785,307.119364 C181.226917,306.765537 180.731708,307.052565 180.731708,307.759175 C180.731708,308.28 181.001727,308.882237 181.38747,309.30495" id="Fill-238" fill="#EDE3F0"></path>
                    <path d="M186.176619,310.811377 C186.208938,310.847908 186.245427,310.878176 186.285044,310.901138 C186.431,310.985681 186.548808,310.917838 186.548808,310.747709 C186.548808,310.608892 186.468532,310.443981 186.358022,310.343782 C186.334043,310.321864 186.310065,310.303077 186.285044,310.288464 C186.138045,310.203921 186.020237,310.271764 186.020237,310.441894 C186.020237,310.566098 186.083832,310.710134 186.176619,310.811377" id="Fill-240" fill="#EDE3F0"></path>
                    <path d="M188.891933,312.399423 C188.924252,312.434911 188.960741,312.465179 189.000358,312.488141 C189.145272,312.572684 189.264122,312.504841 189.264122,312.334712 C189.264122,312.195895 189.182804,312.030984 189.073336,311.930785 C189.049358,311.908867 189.025379,311.891123 189.000358,311.875467 C188.853359,311.790924 188.734508,311.858767 188.734508,312.028897 C188.734508,312.154145 188.799146,312.297137 188.891933,312.399423" id="Fill-242" fill="#EDE3F0"></path>
                    <polygon id="Fill-244" fill="#AB77A4" points="316.584677 334.158951 310.680733 330.77411 316.570082 327.390313"></polygon>
                    <path d="M250.236244,286.804473 L250.236244,284.73996 L250.446839,284.618887 C251.807363,283.832952 251.807363,282.554374 250.446839,281.767396 C249.086314,280.981461 246.872987,280.981461 245.514548,281.767396 L243.342922,283.023012 C243.207391,283.100249 243.131285,283.207753 243.131285,283.31839 L243.127115,285.372465 L242.155461,285.933996 C241.87293,286.096819 241.87293,286.361928 242.155461,286.525795 C242.439034,286.689662 242.896712,286.689662 243.179242,286.525795 L244.362533,285.842147 C244.499107,285.763867 244.57417,285.657406 244.575213,285.546769 L244.57834,283.49165 L246.537287,282.359195 C247.333793,281.89995 248.627594,281.89995 249.423057,282.359195 C250.217478,282.819483 250.217478,283.566799 249.423057,284.027087 L249.0394,284.249404 C248.98623,284.275497 248.939315,284.305765 248.901784,284.341252 C248.899699,284.342296 248.898656,284.344384 248.896571,284.346471 C248.87572,284.364215 248.856954,284.384046 248.842358,284.40492 C248.793359,284.470676 248.776678,284.540606 248.787103,284.609493 L248.787103,286.631213 L246.085864,288.192644 C244.222832,289.268738 241.19319,289.268738 239.330158,288.192644 C237.559913,287.169781 237.462956,285.51337 239.111223,284.423708 C239.374987,284.250447 239.343711,283.985338 239.043457,283.832952 C238.742161,283.68161 238.284483,283.69831 238.020719,283.872614 C235.873071,285.293141 235.998177,287.450547 238.307419,288.784443 C240.733426,290.187227 244.682595,290.187227 247.109645,288.784443 L250.024607,287.099851 C250.160138,287.021571 250.236244,286.915109 250.236244,286.804473" id="Fill-246" fill="#936590"></path>
                    <path d="M240.640535,284.584443 L240.234985,284.819284 C238.875503,285.605219 238.875503,286.883797 240.234985,287.669732 C241.595509,288.455666 243.807794,288.455666 245.168318,287.669732 L247.307625,286.432903 C247.443156,286.354622 247.520304,286.248161 247.519262,286.136481 L247.511964,284.040656 L248.485703,283.478082 C248.769276,283.314215 248.769276,283.049105 248.485703,282.886282 C248.203173,282.723459 247.744452,282.723459 247.461922,282.886282 L246.27446,283.572018 C246.137887,283.650298 246.061781,283.757803 246.062823,283.868439 L246.070121,285.964264 L244.143494,287.077932 C243.349073,287.538221 242.054229,287.537177 241.259808,287.077932 C240.463302,286.617644 240.463302,285.870328 241.259808,285.41004 L241.73938,285.132406 C241.94789,285.059344 242.088633,284.927833 242.088633,284.776491 L242.088633,284.767097 C242.089676,284.759791 242.089676,284.753529 242.088633,284.746223 L242.088633,282.694235 L244.72732,281.169334 C246.58931,280.092197 249.619994,280.092197 251.481984,281.169334 C253.194889,282.158797 253.336675,283.782853 251.804131,284.867296 L251.756174,284.90174 C251.497622,285.078131 251.536196,285.343241 251.839577,285.490408 C252.145044,285.640706 252.602722,285.618787 252.861274,285.442396 L252.924869,285.397515 C254.955751,283.961332 254.776433,281.888469 252.506808,280.576491 C250.079758,279.173708 246.130589,279.173708 243.703539,280.576491 L240.852172,282.224553 C240.716641,282.302833 240.640535,282.410338 240.640535,282.520974 L240.640535,284.584443 Z" id="Fill-248" fill="#936590"></path>
                    <path d="M158.359791,499.299841 C158.359791,499.299841 218.293745,542.668181 256.303973,484.028917 C294.314201,425.389652 189.64142,386.495815 217.548323,347.827425" id="Stroke-250" stroke="#E98178" stroke-width="3" stroke-linecap="round"></path>
                    <polygon id="Fill-252" fill="#D57576" points="141.857208 228.825999 140.554024 229.578534 140.554024 218.026446 141.857208 217.273912"></polygon>
                    <polygon id="Fill-254" fill="#E79C95" points="139.251778 228.825999 140.553919 229.578534 140.553919 218.026446 139.251778 217.273912"></polygon>
                    <polygon id="Fill-256" fill="#E8BEB9" points="140.554962 216.524404 139.251778 217.273807 140.554962 218.024254 141.857103 217.273807"></polygon>
                    <polygon id="Fill-258" fill="#D57576" points="145.854334 231.174409 144.55115 231.926943 144.55115 220.374856 145.854334 219.622321"></polygon>
                    <polygon id="Fill-260" fill="#E79C95" points="143.247966 231.174409 144.55115 231.926943 144.55115 220.374856 143.247966 219.622321"></polygon>
                    <polygon id="Fill-262" fill="#E8BEB9" points="144.552088 218.872813 143.247861 219.622217 144.552088 220.372664 145.854229 219.622217"></polygon>
                    <path d="M23.5810623,432.160169 C23.5810623,432.160169 -30.1226289,384.247396 26.3803015,352.632584 C82.8821893,321.01673 99.4388814,297.571252 137.239558,237.27662" id="Stroke-264" stroke="#E98178" stroke-width="3" stroke-linecap="round"></path>
                    <polygon id="Fill-266" fill="#EDE3F0" points="160.853147 135.892649 151.746498 141.130124 160.853147 146.367599 169.945201 141.130124"></polygon>
                    <polygon id="Fill-268" fill="#DCC3DE" points="151.746081 141.100065 160.838135 146.352152 160.838135 147.33744 151.746081 142.084309"></polygon>
                    <polygon id="Fill-270" fill="#C7AAD1" points="169.914342 141.100065 160.837926 146.352152 160.837926 147.33744 169.914342 142.084309"></polygon>
                    <polygon id="Fill-272" fill="#EDE3F0" points="160.85002 136.844642 155.12018 140.140765 160.85002 143.435845 166.571519 140.140765"></polygon>
                    <polygon id="Fill-274" fill="#DCC3DE" points="155.12018 140.121561 160.840637 143.427078 160.840637 144.047058 155.12018 140.741541"></polygon>
                    <polygon id="Fill-276" fill="#C7AAD1" points="166.552544 140.121561 160.840428 143.427078 160.840428 144.047058 166.552544 140.741541"></polygon>
                    <polygon id="Fill-278" fill="#D57576" points="162.341592 140.194935 160.845537 141.060194 160.845537 48.9524404 162.341592 48.0871819"></polygon>
                    <polygon id="Fill-280" fill="#E79C95" points="159.349377 140.194935 160.846475 141.060194 160.846475 48.9524404 159.349377 48.0871819"></polygon>
                    <polygon id="Fill-282" fill="#E8BEB9" points="160.846996 47.2269334 159.348856 48.0869732 160.846996 48.9480567 162.342009 48.0869732"></polygon>
                    <polygon id="Fill-284" fill="#EDE3F0" points="207.548836 163.177619 198.442187 168.415094 207.548836 173.651526 216.64089 168.415094"></polygon>
                    <polygon id="Fill-286" fill="#DCC3DE" points="198.441874 168.385035 207.533928 173.637122 207.533928 174.622411 198.441874 169.369279"></polygon>
                    <polygon id="Fill-288" fill="#C7AAD1" points="216.610031 168.385035 207.533615 173.637122 207.533615 174.622411 216.610031 169.369279"></polygon>
                    <polygon id="Fill-290" fill="#EDE3F0" points="207.545813 164.129612 201.814931 167.424692 207.545813 170.720815 213.266269 167.424692"></polygon>
                    <polygon id="Fill-292" fill="#DCC3DE" points="201.814827 167.406531 207.536326 170.712048 207.536326 171.332028 201.814827 168.026511"></polygon>
                    <polygon id="Fill-294" fill="#C7AAD1" points="213.248233 167.406531 207.536117 170.712048 207.536117 171.332028 213.248233 168.026511"></polygon>
                    <polygon id="Fill-296" fill="#D57576" points="209.037281 167.479906 207.540183 168.34412 207.540183 76.2374105 209.037281 75.3721521"></polygon>
                    <polygon id="Fill-298" fill="#E79C95" points="206.045066 167.479906 207.541121 168.34412 207.541121 76.2374105 206.045066 75.3721521"></polygon>
                    <polygon id="Fill-300" fill="#E8BEB9" points="207.54279 74.5108598 206.044649 75.3719433 207.54279 76.2330268 209.037802 75.3719433"></polygon>
                    <polygon id="Fill-302" fill="#E98178" points="206.046109 144.908141 160.846475 118.367982 160.846475 48.948996 206.046109 75.4881113"></polygon>
                    <polygon id="Fill-304" fill="#C7AAD1" points="162.342635 48.1197465 160.845537 48.9797863 206.046213 75.5084642 207.541226 74.6473807"></polygon>
                    <path d="M179.201561,106.296948 C180.652787,107.885517 182.255182,109.238201 183.947236,110.216183 C190.378709,113.932932 195.592488,110.919662 195.592488,103.486163 C195.592488,97.3510736 192.038445,90.1315408 187.184345,85.704006 C186.156393,84.7635984 185.072144,83.9432207 183.947236,83.2929722 C177.515762,79.5751789 172.301984,82.5884493 172.301984,90.022992 C172.301984,95.5026143 175.138755,101.847495 179.201561,106.296948" id="Fill-306" fill="#D57576"></path>
                    <path d="M179.65559,105.383678 C180.968157,106.820905 182.416255,108.044165 183.946715,108.928211 C189.763085,112.289046 194.477484,109.564891 194.477484,102.841133 C194.477484,97.293668 191.264353,90.7650895 186.87523,86.7602684 C185.944235,85.9117097 184.964241,85.1685686 183.946715,84.5809443 C178.131386,81.2190656 173.415945,83.9442644 173.415945,90.6669781 C173.415945,95.6216004 175.981654,101.361113 179.65559,105.383678" id="Fill-308" fill="#E79C95"></path>
                    <polygon id="Fill-310" fill="#D57576" points="180.111705 95.8830567 182.498095 97.2837525 182.498095 94.4343489 180.111705 95.8360885"></polygon>
                    <polygon id="Fill-312" fill="#EFDBD8" points="180.107639 95.8595726 182.50237 94.4536581 182.50237 90.1837276 180.107639 88.7778131"></polygon>
                    <polygon id="Fill-314" fill="#D57576" points="185.395751 98.9071819 187.781099 100.307878 187.781099 97.4584742 185.395751 98.85917"></polygon>
                    <polygon id="Fill-316" fill="#EFDBD8" points="185.395751 98.8592744 187.781099 97.4585785 187.781099 93.2022167 185.395751 91.8015209"></polygon>
                    <path d="M184.189315,101.719324 C183.96621,101.46674 183.718084,101.252773 183.453277,101.099344 C182.508729,100.553469 181.742457,100.996014 181.742457,102.088807 C181.742457,102.691044 181.97703,103.364254 182.344007,103.940398 L183.181172,104.423648 C182.902812,103.911173 182.730792,103.344423 182.730792,102.828817 C182.730792,101.836223 183.36466,101.383241 184.189315,101.719324" id="Fill-318" fill="#EFDBD8"></path>
                    <path d="M185.164618,104.06575 C185.164618,103.278772 184.765323,102.370721 184.188794,101.719428 C183.364139,101.383345 182.73027,101.836327 182.73027,102.828921 C182.73027,103.344528 182.902291,103.911277 183.181693,104.423752 L184.563068,105.221168 C184.930045,105.071914 185.164618,104.667987 185.164618,104.06575" id="Fill-320" fill="#D57576"></path>
                    <polygon id="Fill-322" fill="#EFDBD8" points="160.359293 46.3126193 155.508321 49.1672416 210.44743 80.2132157 215.283807 77.3585934"></polygon>
                    <polygon id="Fill-324" fill="#E8BEB9" points="155.508008 49.1380169 210.432522 80.1986034 210.432522 82.2276292 155.508008 51.165999"></polygon>
                    <polygon id="Fill-326" fill="#E79C95" points="215.253886 77.32916 210.432105 80.1983946 210.432105 82.2274205 215.253886 79.3571421"></polygon>
                    <path d="M162.338569,17.9247316 C158.934652,15.9572863 156.683793,16.3507753 155.531778,17.6836282 C156.159391,13.5660835 157.312449,5.33412525 157.312449,5.33412525 L168.506278,11.8063419 L168.506278,13.7028131 L169.983567,12.6590755 L169.98461,12.6590755 L169.98461,9.5716998 L155.111631,0.976520875 L152.441668,19.6500298 L153.75215,20.6603678 L153.47796,22.6309443 L154.955249,21.5872068 C156.159391,19.3170775 158.044317,18.2879523 161.70887,20.4067396 C166.68599,23.2822366 168.884722,28.3067893 168.884722,34.5420775 L168.884722,38.7191153 C168.884722,45.5597714 166.370099,47.6775149 161.658828,44.9533598 C157.520958,42.5611133 154.536145,37.6284095 154.536145,31.938996 L151.813012,30.3650398 C151.813012,37.4467992 155.897712,44.5901392 161.70887,47.9499304 C163.813773,49.1658847 165.598614,49.6428728 167.05401,49.4810934 L167.427241,49.8756262 L168.769,48.8997316 C168.943105,48.7922266 169.10887,48.6721968 169.267337,48.5365109 L169.397656,48.4425746 L169.368464,48.4457058 C170.833243,47.1138966 171.607856,44.5786581 171.607856,41.0184692 L171.607856,36.1160338 C171.607856,29.759672 169.513378,22.0725447 162.338569,17.9247316" id="Fill-328" fill="#936590"></path>
                    <path d="M194.020223,54.4586779 C194.020223,60.209672 191.03541,61.7523161 186.845413,59.3308449 C182.657501,56.9093738 179.671646,51.9150895 179.671646,46.1651392 L179.671646,26.9144433 C179.671646,21.164493 182.657501,19.5602684 186.845413,21.9817396 C191.03541,24.4032107 194.020223,29.4569881 194.020223,35.2079821 L194.020223,54.4586779 Z M186.845413,18.9538569 C183.899174,17.2515209 181.413742,17.0636481 179.674773,18.209672 L179.671646,18.205497 L178.194356,19.2481909 L178.520673,19.3139463 C177.546934,20.6175746 177.001682,22.5933698 177.001682,25.1891451 L177.001682,44.8635984 C177.001682,51.8242843 181.033212,59.0584294 186.845413,62.4182207 C189.05874,63.6978429 191.02707,64.1205567 192.617997,63.7761233 L192.543976,64.2635487 L194.344455,62.9985388 L194.329859,62.9881014 C195.884297,61.8232903 196.795483,59.5562922 196.795483,56.3050497 L196.795483,36.6305964 C196.795483,29.548837 192.658656,22.3146918 186.845413,18.9538569 Z" id="Fill-330" fill="#936590"></path>
                    <path d="M211.981747,73.8595676 C207.792792,71.4380964 204.80798,66.4448559 204.80798,60.6938618 L204.80798,41.443166 C204.80798,35.6932157 207.792792,34.0889911 211.981747,36.5104622 C216.171744,38.9319334 219.155514,43.9857107 219.155514,49.7367048 L219.155514,68.9874006 C219.155514,74.7383946 216.171744,76.2810388 211.981747,73.8595676 M211.981747,33.4825795 C209.135593,31.8376491 206.721054,31.6101143 204.993553,32.6277584 L204.993553,32.6152336 L204.936213,32.6559394 C204.86115,32.7018638 204.792342,32.7561382 204.721448,32.8062376 L203.136777,33.9125994 L203.548583,34.0044483 C202.646779,35.3091203 202.136974,37.223335 202.136974,39.7178678 L202.136974,59.3923211 C202.136974,66.353007 206.169546,73.5871521 211.981747,76.9469433 C214.231564,78.2474404 216.224914,78.658673 217.829394,78.2818837 L217.873181,78.6628479 L219.508938,77.5042992 L219.489129,77.4980368 C221.028972,76.328007 221.931817,74.0683151 221.931817,70.8337724 L221.931817,51.1593191 C221.931817,44.0775596 217.79499,36.8434145 211.981747,33.4825795" id="Fill-332" fill="#936590"></path>
                    <path d="M153.059482,32.9825249 C153.059482,38.6719384 156.043252,43.6067296 160.181121,45.9979324 C164.894477,48.7210437 167.408059,46.6033002 167.408059,39.7626441 L167.408059,35.5856064 C167.408059,29.3513618 165.208284,24.3257654 160.233249,21.4502684 C156.567653,19.3314811 154.682728,20.3606064 153.477543,22.6307356 L150.963962,20.6946024 L153.634968,2.0200497 L168.506903,10.6152286 L168.506903,13.7026044 L155.834742,6.37869781 C155.834742,6.37869781 154.682728,14.6096123 154.054072,18.7271571 C155.207129,17.3943042 157.459031,17.0008151 160.860862,18.9682604 C168.035672,23.1160736 170.130149,30.8032008 170.130149,37.1595626 L170.130149,42.061998 C170.130149,49.6906759 166.621978,52.6862028 160.233249,48.9934592 C154.421048,45.633668 150.337391,38.490328 150.337391,31.4085686 L153.059482,32.9825249 Z" id="Fill-334" fill="#AB77A4"></path>
                    <path d="M192.542933,55.5024155 L192.542933,36.2517197 C192.542933,30.5017694 189.559163,25.4469483 185.369166,23.0254771 C181.180211,20.604006 178.195399,22.2082306 178.195399,27.9581809 L178.195399,47.2088767 C178.195399,52.958827 181.180211,57.9541551 185.369166,60.3745825 C189.559163,62.7960537 192.542933,61.2534095 192.542933,55.5024155 M175.524393,45.907336 L175.524393,26.2328827 C175.524393,19.152167 179.556965,16.6388469 185.369166,19.9975944 C191.181367,23.3584294 195.319236,30.5936183 195.319236,37.674334 L195.319236,57.3487873 C195.319236,64.3094732 191.181367,66.8227932 185.369166,63.4619583 C179.556965,60.102167 175.524393,52.8690656 175.524393,45.907336" id="Fill-336" fill="#AB77A4"></path>
                    <path d="M217.679059,70.0311382 L217.679059,50.7804423 C217.679059,45.030492 214.695289,39.975671 210.504249,37.5541998 C206.316337,35.1327286 203.330482,36.7369533 203.330482,42.4869036 L203.330482,61.7375994 C203.330482,67.4875497 206.316337,72.4828777 210.504249,74.9033052 C214.695289,77.3247763 217.679059,75.7821322 217.679059,70.0311382 M200.660518,60.4360586 L200.660518,40.7616054 C200.660518,33.6808897 204.692048,31.1675696 210.504249,34.5263171 C216.317492,37.8871521 220.45432,45.122341 220.45432,52.2030567 L220.45432,71.8775099 C220.45432,78.8381958 216.317492,81.3515159 210.504249,77.9906809 C204.692048,74.6308897 200.660518,67.3977883 200.660518,60.4360586" id="Fill-338" fill="#AB77A4"></path>
                    <polygon id="Fill-340" fill="#C7AAD1" points="153.634655 2.0200497 155.111944 0.976312127 169.98388 9.57149105 168.507633 10.6152286"></polygon>
                    <polygon id="Fill-342" fill="#C7AAD1" points="153.059482 32.9825249 154.535728 31.9387873 151.813638 30.364831 150.337391 31.4085686"></polygon>
                </g>
                <g id="Tree-2" transform="translate(65.476190, 301.190476)">
                    <g>
                        <path d="M22.4819167,56.7830137 C29.86275,60.9854795 41.8660833,60.9641096 49.2935833,56.7345205 C56.72025,52.5057534 56.75775,45.669863 49.3769167,41.4673973 C42.57775,37.5953425 31.8569167,37.3126027 24.40275,40.5986301 L18.5185833,37.2476712 C17.60525,36.7273973 16.1194167,36.7306849 15.20025,37.2534247 C14.28025,37.7769863 14.27525,38.6227397 15.1894167,39.1438356 L21.0585833,42.4849315 C15.1785833,46.7326027 15.6419167,52.8879452 22.4819167,56.7830137" id="Fill-1" fill="#000000" opacity="0.05" filter="url(#filter-4)"></path>
                        <path d="M13.67375,37.2440548 C13.67375,38.2911781 14.5345833,39.1402192 15.59625,39.1402192 C16.6579167,39.1402192 17.51875,38.2911781 17.51875,37.2440548 C17.51875,36.1977534 16.6579167,35.3478904 15.59625,35.3478904 C14.5345833,35.3478904 13.67375,36.1977534 13.67375,37.2440548" id="Fill-3" fill="#D57576"></path>
                        <polygon id="Fill-5" fill="#D57576" points="13.6733333 37.2434795 17.5183333 37.2434795 17.5183333 22.2903288 13.6733333 22.2903288"></polygon>
                        <path d="M15.528,8.21917808e-05 C24.1038333,8.21917808e-05 31.0555,6.85734247 31.0555,15.3156986 C31.0555,23.7732329 24.1038333,30.6304932 15.528,30.6304932 C-1.2645,13.4146027 15.528,8.21917808e-05 15.528,8.21917808e-05" id="Fill-7" fill="#00BA6D"></path>
                        <path d="M15.528,8.21917808e-05 C15.528,8.21917808e-05 -1.2645,13.4146027 15.528,30.6304932 C6.95216667,30.6304932 -0.000333333333,23.7732329 -0.000333333333,15.3156986 C-0.000333333333,6.85734247 6.95216667,8.21917808e-05 15.528,8.21917808e-05" id="Fill-8" fill="#00E75D"></path>
                    </g>
                </g>
                <g id="Tree-1" transform="translate(376.190476, 360.714286)">
                    <g>
                        <path d="M39.5680833,55.2922269 C41.86975,53.9599284 26.3905833,33.7196896 13.6289167,38.2314507 L10.2014167,36.2463761 C9.28808333,35.7173015 7.80141667,35.719809 6.88225,36.2530627 C5.96308333,36.7846448 5.95808333,37.6455403 6.87225,38.1754507 L10.2564167,40.1337791 C1.88225,47.5500179 37.2530833,56.6328836 39.5680833,55.2922269" id="Fill-1" fill="#000000" opacity="0.05" filter="url(#filter-5)"></path>
                        <path d="M5.56258333,36.2781373 C5.56258333,37.3421373 6.42341667,38.2063761 7.48508333,38.2063761 C8.54675,38.2063761 9.40758333,37.3421373 9.40758333,36.2781373 C9.40758333,35.2133015 8.54675,34.3498985 7.48508333,34.3498985 C6.42341667,34.3498985 5.56258333,35.2133015 5.56258333,36.2781373" id="Fill-3" fill="#D57576"></path>
                        <polygon id="Fill-5" fill="#D57576" points="5.5625 36.2774687 9.4075 36.2774687 9.4075 21.0713791 5.5625 21.0713791"></polygon>
                        <path d="M7.37291667,-8.35820896e-05 C10.1679167,-8.35820896e-05 22.4645833,32.5158567 7.37291667,32.5158567 C7.37291667,32.5158567 1.36291667,23.8575881 7.37291667,-8.35820896e-05" id="Fill-7" fill="#00BA6D"></path>
                        <path d="M7.37291667,-8.35820896e-05 C1.36291667,23.8575881 7.37291667,32.5158567 7.37291667,32.5158567 C-7.71875,32.5158567 4.57791667,-8.35820896e-05 7.37291667,-8.35820896e-05" id="Fill-8" fill="#00E75D"></path>
                    </g>
                </g>
                <g id="Tree-1" transform="translate(226.190476, 120.238095)">
                    <g>
                        <path d="M39.5680833,55.2922269 C41.86975,53.9599284 26.3905833,33.7196896 13.6289167,38.2314507 L10.2014167,36.2463761 C9.28808333,35.7173015 7.80141667,35.719809 6.88225,36.2530627 C5.96308333,36.7846448 5.95808333,37.6455403 6.87225,38.1754507 L10.2564167,40.1337791 C1.88225,47.5500179 37.2530833,56.6328836 39.5680833,55.2922269" id="Fill-1" fill="#000000" opacity="0.05" filter="url(#filter-6)"></path>
                        <path d="M5.56258333,36.2781373 C5.56258333,37.3421373 6.42341667,38.2063761 7.48508333,38.2063761 C8.54675,38.2063761 9.40758333,37.3421373 9.40758333,36.2781373 C9.40758333,35.2133015 8.54675,34.3498985 7.48508333,34.3498985 C6.42341667,34.3498985 5.56258333,35.2133015 5.56258333,36.2781373" id="Fill-3" fill="#D57576"></path>
                        <polygon id="Fill-5" fill="#D57576" points="5.5625 36.2774687 9.4075 36.2774687 9.4075 21.0713791 5.5625 21.0713791"></polygon>
                        <path d="M7.37291667,-8.35820896e-05 C10.1679167,-8.35820896e-05 22.4645833,32.5158567 7.37291667,32.5158567 C7.37291667,32.5158567 1.36291667,23.8575881 7.37291667,-8.35820896e-05" id="Fill-7" fill="#00BA6D"></path>
                        <path d="M7.37291667,-8.35820896e-05 C1.36291667,23.8575881 7.37291667,32.5158567 7.37291667,32.5158567 C-7.71875,32.5158567 4.57791667,-8.35820896e-05 7.37291667,-8.35820896e-05" id="Fill-8" fill="#00E75D"></path>
                    </g>
                </g>
                <g id="Person" transform="translate(315.476190, 467.857143)">
                    <g>
                        <path d="M18.8709231,35.4968372 C20.6013077,35.9706977 21.9636154,35.0413953 21.9636154,33.2907907 C21.9636154,31.5393488 20.6013077,29.6288372 18.8709231,28.8569302 L18.8709231,28.8276279 L9.33984615,25.3950698 C8.18484615,24.9789767 7.16692308,25.1874419 6.55684615,25.8421395 L3.94392308,24.9011163 C2.88369231,24.5193488 2.02315385,25.060186 2.02315385,26.1100465 C2.02315385,27.1590698 2.88369231,28.3202791 3.94392308,28.7020465 L6.55684615,29.6430698 C7.16692308,30.7364651 8.18484615,31.6774884 9.33984615,32.0935814 L18.8709231,35.5261395 L18.8709231,35.4968372 Z" id="Fill-1" fill="#000000" opacity="0.1" filter="url(#filter-7)"></path>
                        <path d="M1.46384615,26.5261395 L1.46384615,11.5375814 L5.30538462,11.5375814 L5.30538462,26.4949276 C5.30555363,26.5053116 5.30563846,26.5157158 5.30563846,26.5261395 C5.30563846,27.5751628 4.4451,28.4266047 3.38486923,28.4266047 C2.32379231,28.4266047 1.4641,27.5751628 1.4641,26.5261395 Z" id="Combined-Shape" fill="#D57576"></path>
                        <path d="M6.76948462,3.34917209 C6.76948462,5.19856744 5.25402308,6.6980093 3.38486923,6.6980093 C1.51571538,6.6980093 0.000253846154,5.19856744 0.000253846154,3.34917209 C0.000253846154,1.49893953 1.51571538,0.000334883721 3.38486923,0.000334883721 C5.25402308,0.000334883721 6.76948462,1.49893953 6.76948462,3.34917209" id="Fill-10" fill="#E98178"></path>
                        <path d="M6.74012308,11.7572651 C6.58950769,10.0451721 5.15358462,8.69726512 3.38512308,8.69726512 C1.61496923,8.69726512 0.179892308,10.0451721 0.0292769231,11.7572651 L0.000507692308,11.7572651 L0.000507692308,21.1875907 C0.000507692308,23.036986 1.51512308,24.5364279 3.38512308,24.5364279 C5.25427692,24.5364279 6.76973846,23.036986 6.76973846,21.1875907 L6.76973846,11.7572651 L6.74012308,11.7572651 Z" id="Fill-11" fill="#FBD6D9"></path>
                    </g>
                </g>
                <g id="Person" transform="translate(298.809524, 451.190476)">
                    <g>
                        <path d="M18.8709231,35.4968372 C20.6013077,35.9706977 21.9636154,35.0413953 21.9636154,33.2907907 C21.9636154,31.5393488 20.6013077,29.6288372 18.8709231,28.8569302 L18.8709231,28.8276279 L9.33984615,25.3950698 C8.18484615,24.9789767 7.16692308,25.1874419 6.55684615,25.8421395 L3.94392308,24.9011163 C2.88369231,24.5193488 2.02315385,25.060186 2.02315385,26.1100465 C2.02315385,27.1590698 2.88369231,28.3202791 3.94392308,28.7020465 L6.55684615,29.6430698 C7.16692308,30.7364651 8.18484615,31.6774884 9.33984615,32.0935814 L18.8709231,35.5261395 L18.8709231,35.4968372 Z" id="Fill-1" fill="#000000" opacity="0.1" filter="url(#filter-8)"></path>
                        <path d="M1.46384615,26.5261395 L1.46384615,11.5375814 L5.30538462,11.5375814 L5.30538462,26.4949276 C5.30555363,26.5053116 5.30563846,26.5157158 5.30563846,26.5261395 C5.30563846,27.5751628 4.4451,28.4266047 3.38486923,28.4266047 C2.32379231,28.4266047 1.4641,27.5751628 1.4641,26.5261395 Z" id="Combined-Shape" fill="#D57576"></path>
                        <path d="M6.76948462,3.34917209 C6.76948462,5.19856744 5.25402308,6.6980093 3.38486923,6.6980093 C1.51571538,6.6980093 0.000253846154,5.19856744 0.000253846154,3.34917209 C0.000253846154,1.49893953 1.51571538,0.000334883721 3.38486923,0.000334883721 C5.25402308,0.000334883721 6.76948462,1.49893953 6.76948462,3.34917209" id="Fill-10" fill="#E98178"></path>
                        <path d="M6.74012308,11.7572651 C6.58950769,10.0451721 5.15358462,8.69726512 3.38512308,8.69726512 C1.61496923,8.69726512 0.179892308,10.0451721 0.0292769231,11.7572651 L0.000507692308,11.7572651 L0.000507692308,21.1875907 C0.000507692308,23.036986 1.51512308,24.5364279 3.38512308,24.5364279 C5.25427692,24.5364279 6.76973846,23.036986 6.76973846,21.1875907 L6.76973846,11.7572651 L6.74012308,11.7572651 Z" id="Fill-11" fill="#FBD6D9"></path>
                    </g>
                </g>
                <g id="Person" transform="translate(372.619048, 284.523810)">
                    <g>
                        <path d="M18.8709231,35.4968372 C20.6013077,35.9706977 21.9636154,35.0413953 21.9636154,33.2907907 C21.9636154,31.5393488 20.6013077,29.6288372 18.8709231,28.8569302 L18.8709231,28.8276279 L9.33984615,25.3950698 C8.18484615,24.9789767 7.16692308,25.1874419 6.55684615,25.8421395 L3.94392308,24.9011163 C2.88369231,24.5193488 2.02315385,25.060186 2.02315385,26.1100465 C2.02315385,27.1590698 2.88369231,28.3202791 3.94392308,28.7020465 L6.55684615,29.6430698 C7.16692308,30.7364651 8.18484615,31.6774884 9.33984615,32.0935814 L18.8709231,35.5261395 L18.8709231,35.4968372 Z" id="Fill-1" fill="#000000" opacity="0.1" filter="url(#filter-9)"></path>
                        <path d="M1.46384615,26.5261395 L1.46384615,11.5375814 L5.30538462,11.5375814 L5.30538462,26.4949276 C5.30555363,26.5053116 5.30563846,26.5157158 5.30563846,26.5261395 C5.30563846,27.5751628 4.4451,28.4266047 3.38486923,28.4266047 C2.32379231,28.4266047 1.4641,27.5751628 1.4641,26.5261395 Z" id="Combined-Shape" fill="#D57576"></path>
                        <path d="M6.76948462,3.34917209 C6.76948462,5.19856744 5.25402308,6.6980093 3.38486923,6.6980093 C1.51571538,6.6980093 0.000253846154,5.19856744 0.000253846154,3.34917209 C0.000253846154,1.49893953 1.51571538,0.000334883721 3.38486923,0.000334883721 C5.25402308,0.000334883721 6.76948462,1.49893953 6.76948462,3.34917209" id="Fill-10" fill="#E98178"></path>
                        <path d="M6.74012308,11.7572651 C6.58950769,10.0451721 5.15358462,8.69726512 3.38512308,8.69726512 C1.61496923,8.69726512 0.179892308,10.0451721 0.0292769231,11.7572651 L0.000507692308,11.7572651 L0.000507692308,21.1875907 C0.000507692308,23.036986 1.51512308,24.5364279 3.38512308,24.5364279 C5.25427692,24.5364279 6.76973846,23.036986 6.76973846,21.1875907 L6.76973846,11.7572651 L6.74012308,11.7572651 Z" id="Fill-11" fill="#FBD6D9"></path>
                    </g>
                </g>
                <g id="Person" transform="translate(132.142857, 125.000000)">
                    <g>
                        <path d="M18.8709231,35.4968372 C20.6013077,35.9706977 21.9636154,35.0413953 21.9636154,33.2907907 C21.9636154,31.5393488 20.6013077,29.6288372 18.8709231,28.8569302 L18.8709231,28.8276279 L9.33984615,25.3950698 C8.18484615,24.9789767 7.16692308,25.1874419 6.55684615,25.8421395 L3.94392308,24.9011163 C2.88369231,24.5193488 2.02315385,25.060186 2.02315385,26.1100465 C2.02315385,27.1590698 2.88369231,28.3202791 3.94392308,28.7020465 L6.55684615,29.6430698 C7.16692308,30.7364651 8.18484615,31.6774884 9.33984615,32.0935814 L18.8709231,35.5261395 L18.8709231,35.4968372 Z" id="Fill-1" fill="#000000" opacity="0.1" filter="url(#filter-10)"></path>
                        <path d="M1.46384615,26.5261395 L1.46384615,11.5375814 L5.30538462,11.5375814 L5.30538462,26.4949276 C5.30555363,26.5053116 5.30563846,26.5157158 5.30563846,26.5261395 C5.30563846,27.5751628 4.4451,28.4266047 3.38486923,28.4266047 C2.32379231,28.4266047 1.4641,27.5751628 1.4641,26.5261395 Z" id="Combined-Shape" fill="#D57576"></path>
                        <path d="M6.76948462,3.34917209 C6.76948462,5.19856744 5.25402308,6.6980093 3.38486923,6.6980093 C1.51571538,6.6980093 0.000253846154,5.19856744 0.000253846154,3.34917209 C0.000253846154,1.49893953 1.51571538,0.000334883721 3.38486923,0.000334883721 C5.25402308,0.000334883721 6.76948462,1.49893953 6.76948462,3.34917209" id="Fill-10" fill="#E98178"></path>
                        <path d="M6.74012308,11.7572651 C6.58950769,10.0451721 5.15358462,8.69726512 3.38512308,8.69726512 C1.61496923,8.69726512 0.179892308,10.0451721 0.0292769231,11.7572651 L0.000507692308,11.7572651 L0.000507692308,21.1875907 C0.000507692308,23.036986 1.51512308,24.5364279 3.38512308,24.5364279 C5.25427692,24.5364279 6.76973846,23.036986 6.76973846,21.1875907 L6.76973846,11.7572651 L6.74012308,11.7572651 Z" id="Fill-11" fill="#FBD6D9"></path>
                    </g>
                </g>
                <g id="Person" transform="translate(30.952381, 266.666667)">
                    <g>
                        <path d="M18.8709231,35.4968372 C20.6013077,35.9706977 21.9636154,35.0413953 21.9636154,33.2907907 C21.9636154,31.5393488 20.6013077,29.6288372 18.8709231,28.8569302 L18.8709231,28.8276279 L9.33984615,25.3950698 C8.18484615,24.9789767 7.16692308,25.1874419 6.55684615,25.8421395 L3.94392308,24.9011163 C2.88369231,24.5193488 2.02315385,25.060186 2.02315385,26.1100465 C2.02315385,27.1590698 2.88369231,28.3202791 3.94392308,28.7020465 L6.55684615,29.6430698 C7.16692308,30.7364651 8.18484615,31.6774884 9.33984615,32.0935814 L18.8709231,35.5261395 L18.8709231,35.4968372 Z" id="Fill-1" fill="#000000" opacity="0.1" filter="url(#filter-11)"></path>
                        <path d="M1.46384615,26.5261395 L1.46384615,11.5375814 L5.30538462,11.5375814 L5.30538462,26.4949276 C5.30555363,26.5053116 5.30563846,26.5157158 5.30563846,26.5261395 C5.30563846,27.5751628 4.4451,28.4266047 3.38486923,28.4266047 C2.32379231,28.4266047 1.4641,27.5751628 1.4641,26.5261395 Z" id="Combined-Shape" fill="#D57576"></path>
                        <path d="M6.76948462,3.34917209 C6.76948462,5.19856744 5.25402308,6.6980093 3.38486923,6.6980093 C1.51571538,6.6980093 0.000253846154,5.19856744 0.000253846154,3.34917209 C0.000253846154,1.49893953 1.51571538,0.000334883721 3.38486923,0.000334883721 C5.25402308,0.000334883721 6.76948462,1.49893953 6.76948462,3.34917209" id="Fill-10" fill="#E98178"></path>
                        <path d="M6.74012308,11.7572651 C6.58950769,10.0451721 5.15358462,8.69726512 3.38512308,8.69726512 C1.61496923,8.69726512 0.179892308,10.0451721 0.0292769231,11.7572651 L0.000507692308,11.7572651 L0.000507692308,21.1875907 C0.000507692308,23.036986 1.51512308,24.5364279 3.38512308,24.5364279 C5.25427692,24.5364279 6.76973846,23.036986 6.76973846,21.1875907 L6.76973846,11.7572651 L6.74012308,11.7572651 Z" id="Fill-11" fill="#FBD6D9"></path>
                    </g>
                </g>
                <g id="Person" transform="translate(0.000000, 459.523810)">
                    <g>
                        <path d="M18.8709231,35.4968372 C20.6013077,35.9706977 21.9636154,35.0413953 21.9636154,33.2907907 C21.9636154,31.5393488 20.6013077,29.6288372 18.8709231,28.8569302 L18.8709231,28.8276279 L9.33984615,25.3950698 C8.18484615,24.9789767 7.16692308,25.1874419 6.55684615,25.8421395 L3.94392308,24.9011163 C2.88369231,24.5193488 2.02315385,25.060186 2.02315385,26.1100465 C2.02315385,27.1590698 2.88369231,28.3202791 3.94392308,28.7020465 L6.55684615,29.6430698 C7.16692308,30.7364651 8.18484615,31.6774884 9.33984615,32.0935814 L18.8709231,35.5261395 L18.8709231,35.4968372 Z" id="Fill-1" fill="#000000" opacity="0.1" filter="url(#filter-12)"></path>
                        <path d="M1.46384615,26.5261395 L1.46384615,11.5375814 L5.30538462,11.5375814 L5.30538462,26.4949276 C5.30555363,26.5053116 5.30563846,26.5157158 5.30563846,26.5261395 C5.30563846,27.5751628 4.4451,28.4266047 3.38486923,28.4266047 C2.32379231,28.4266047 1.4641,27.5751628 1.4641,26.5261395 Z" id="Combined-Shape" fill="#D57576"></path>
                        <path d="M6.76948462,3.34917209 C6.76948462,5.19856744 5.25402308,6.6980093 3.38486923,6.6980093 C1.51571538,6.6980093 0.000253846154,5.19856744 0.000253846154,3.34917209 C0.000253846154,1.49893953 1.51571538,0.000334883721 3.38486923,0.000334883721 C5.25402308,0.000334883721 6.76948462,1.49893953 6.76948462,3.34917209" id="Fill-10" fill="#E98178"></path>
                        <path d="M6.74012308,11.7572651 C6.58950769,10.0451721 5.15358462,8.69726512 3.38512308,8.69726512 C1.61496923,8.69726512 0.179892308,10.0451721 0.0292769231,11.7572651 L0.000507692308,11.7572651 L0.000507692308,21.1875907 C0.000507692308,23.036986 1.51512308,24.5364279 3.38512308,24.5364279 C5.25427692,24.5364279 6.76973846,23.036986 6.76973846,21.1875907 L6.76973846,11.7572651 L6.74012308,11.7572651 Z" id="Fill-11" fill="#FBD6D9"></path>
                    </g>
                </g>
                <g id="Cone" transform="translate(141.666667, 253.571429)">
                    <g>
                        <polygon id="Fill-1" fill="#000000" opacity="0.09" filter="url(#filter-13)" points="4 14.047 11.045 18.095 18.079 14.047 11.045 10"></polygon>
                        <polygon id="Fill-1" fill="#EFDBD8" points="0 11.4047 7.045 15.4527 14.079 11.4047 7.045 7.3577"></polygon>
                        <polygon id="Fill-2" fill="#E8BEB9" points="0 12.1427 7.033 16.2017 7.033 15.4417 0 11.3827"></polygon>
                        <polygon id="Fill-3" fill="#E79C95" points="7.0335 15.4412 7.0335 16.2012 14.0555 12.1422 14.0555 11.3822"></polygon>
                        <path d="M10.3773,9.9994 L9.8793,8.9804 C8.8853,9.4634 7.9183,9.6404 7.0483,9.6404 C5.8093,9.6404 4.7673,9.2934 4.1093,9.0034 L3.6843,9.8754 C4.9283,10.4564 7.4043,11.2034 10.3773,9.9994" id="Fill-4" fill="#E98178"></path>
                        <path d="M9.6429,8.4965 L6.9999,0.0005 L4.3439,8.5235 C5.3629,8.9825 7.4049,9.5915 9.6429,8.4965" id="Fill-6" fill="#E98178"></path>
                        <path d="M7.1771,11.1938 C5.5671,11.1938 4.2651,10.7458 3.4461,10.3628 L2.9721,11.3328 C4.2391,13.3238 7.0001,13.2338 7.0001,13.2338 C7.0001,13.2338 9.7611,13.3238 11.0291,11.3328 L10.6201,10.4978 C9.3781,11.0068 8.2141,11.1938 7.1771,11.1938" id="Fill-8" fill="#E98178"></path>
                        <path d="M9.8793,8.9809 L9.6433,8.4969 C7.4043,9.5909 5.3623,8.9829 4.3443,8.5239 L4.1093,9.0029 C4.7673,9.2929 5.8093,9.6399 7.0483,9.6399 C7.9183,9.6399 8.8853,9.4629 9.8793,8.9809" id="Fill-10" fill="#FFFFFF"></path>
                        <path d="M10.6205,10.4975 L10.3775,9.9995 C7.4045,11.2035 4.9285,10.4565 3.6835,9.8755 L3.4455,10.3625 C4.2655,10.7455 5.5665,11.1935 7.1775,11.1935 C8.2145,11.1935 9.3785,11.0075 10.6205,10.4975" id="Fill-12" fill="#FFFFFF"></path>
                    </g>
                </g>
                <g id="Cone" transform="translate(167.857143, 228.571429)">
                    <g>
                        <polygon id="Fill-1" fill="#000000" opacity="0.09" filter="url(#filter-14)" points="4 14.047 11.045 18.095 18.079 14.047 11.045 10"></polygon>
                        <polygon id="Fill-1" fill="#EFDBD8" points="0 11.4047 7.045 15.4527 14.079 11.4047 7.045 7.3577"></polygon>
                        <polygon id="Fill-2" fill="#E8BEB9" points="0 12.1427 7.033 16.2017 7.033 15.4417 0 11.3827"></polygon>
                        <polygon id="Fill-3" fill="#E79C95" points="7.0335 15.4412 7.0335 16.2012 14.0555 12.1422 14.0555 11.3822"></polygon>
                        <path d="M10.3773,9.9994 L9.8793,8.9804 C8.8853,9.4634 7.9183,9.6404 7.0483,9.6404 C5.8093,9.6404 4.7673,9.2934 4.1093,9.0034 L3.6843,9.8754 C4.9283,10.4564 7.4043,11.2034 10.3773,9.9994" id="Fill-4" fill="#E98178"></path>
                        <path d="M9.6429,8.4965 L6.9999,0.0005 L4.3439,8.5235 C5.3629,8.9825 7.4049,9.5915 9.6429,8.4965" id="Fill-6" fill="#E98178"></path>
                        <path d="M7.1771,11.1938 C5.5671,11.1938 4.2651,10.7458 3.4461,10.3628 L2.9721,11.3328 C4.2391,13.3238 7.0001,13.2338 7.0001,13.2338 C7.0001,13.2338 9.7611,13.3238 11.0291,11.3328 L10.6201,10.4978 C9.3781,11.0068 8.2141,11.1938 7.1771,11.1938" id="Fill-8" fill="#E98178"></path>
                        <path d="M9.8793,8.9809 L9.6433,8.4969 C7.4043,9.5909 5.3623,8.9829 4.3443,8.5239 L4.1093,9.0029 C4.7673,9.2929 5.8093,9.6399 7.0483,9.6399 C7.9183,9.6399 8.8853,9.4629 9.8793,8.9809" id="Fill-10" fill="#FFFFFF"></path>
                        <path d="M10.6205,10.4975 L10.3775,9.9995 C7.4045,11.2035 4.9285,10.4565 3.6835,9.8755 L3.4455,10.3625 C4.2655,10.7455 5.5665,11.1935 7.1775,11.1935 C8.2145,11.1935 9.3785,11.0075 10.6205,10.4975" id="Fill-12" fill="#FFFFFF"></path>
                    </g>
                </g>
                <g id="Cone" transform="translate(158.333333, 200.000000)">
                    <g>
                        <polygon id="Fill-1" fill="#000000" opacity="0.09" filter="url(#filter-15)" points="4 14.047 11.045 18.095 18.079 14.047 11.045 10"></polygon>
                        <polygon id="Fill-1" fill="#EFDBD8" points="0 11.4047 7.045 15.4527 14.079 11.4047 7.045 7.3577"></polygon>
                        <polygon id="Fill-2" fill="#E8BEB9" points="0 12.1427 7.033 16.2017 7.033 15.4417 0 11.3827"></polygon>
                        <polygon id="Fill-3" fill="#E79C95" points="7.0335 15.4412 7.0335 16.2012 14.0555 12.1422 14.0555 11.3822"></polygon>
                        <path d="M10.3773,9.9994 L9.8793,8.9804 C8.8853,9.4634 7.9183,9.6404 7.0483,9.6404 C5.8093,9.6404 4.7673,9.2934 4.1093,9.0034 L3.6843,9.8754 C4.9283,10.4564 7.4043,11.2034 10.3773,9.9994" id="Fill-4" fill="#E98178"></path>
                        <path d="M9.6429,8.4965 L6.9999,0.0005 L4.3439,8.5235 C5.3629,8.9825 7.4049,9.5915 9.6429,8.4965" id="Fill-6" fill="#E98178"></path>
                        <path d="M7.1771,11.1938 C5.5671,11.1938 4.2651,10.7458 3.4461,10.3628 L2.9721,11.3328 C4.2391,13.3238 7.0001,13.2338 7.0001,13.2338 C7.0001,13.2338 9.7611,13.3238 11.0291,11.3328 L10.6201,10.4978 C9.3781,11.0068 8.2141,11.1938 7.1771,11.1938" id="Fill-8" fill="#E98178"></path>
                        <path d="M9.8793,8.9809 L9.6433,8.4969 C7.4043,9.5909 5.3623,8.9829 4.3443,8.5239 L4.1093,9.0029 C4.7673,9.2929 5.8093,9.6399 7.0483,9.6399 C7.9183,9.6399 8.8853,9.4629 9.8793,8.9809" id="Fill-10" fill="#FFFFFF"></path>
                        <path d="M10.6205,10.4975 L10.3775,9.9995 C7.4045,11.2035 4.9285,10.4565 3.6835,9.8755 L3.4455,10.3625 C4.2655,10.7455 5.5665,11.1935 7.1775,11.1935 C8.2145,11.1935 9.3785,11.0075 10.6205,10.4975" id="Fill-12" fill="#FFFFFF"></path>
                    </g>
                </g>
                <g id="Cone" transform="translate(123.809524, 194.047619)">
                    <g>
                        <polygon id="Fill-1" fill="#000000" opacity="0.09" filter="url(#filter-16)" points="4 14.047 11.045 18.095 18.079 14.047 11.045 10"></polygon>
                        <polygon id="Fill-1" fill="#EFDBD8" points="0 11.4047 7.045 15.4527 14.079 11.4047 7.045 7.3577"></polygon>
                        <polygon id="Fill-2" fill="#E8BEB9" points="0 12.1427 7.033 16.2017 7.033 15.4417 0 11.3827"></polygon>
                        <polygon id="Fill-3" fill="#E79C95" points="7.0335 15.4412 7.0335 16.2012 14.0555 12.1422 14.0555 11.3822"></polygon>
                        <path d="M10.3773,9.9994 L9.8793,8.9804 C8.8853,9.4634 7.9183,9.6404 7.0483,9.6404 C5.8093,9.6404 4.7673,9.2934 4.1093,9.0034 L3.6843,9.8754 C4.9283,10.4564 7.4043,11.2034 10.3773,9.9994" id="Fill-4" fill="#E98178"></path>
                        <path d="M9.6429,8.4965 L6.9999,0.0005 L4.3439,8.5235 C5.3629,8.9825 7.4049,9.5915 9.6429,8.4965" id="Fill-6" fill="#E98178"></path>
                        <path d="M7.1771,11.1938 C5.5671,11.1938 4.2651,10.7458 3.4461,10.3628 L2.9721,11.3328 C4.2391,13.3238 7.0001,13.2338 7.0001,13.2338 C7.0001,13.2338 9.7611,13.3238 11.0291,11.3328 L10.6201,10.4978 C9.3781,11.0068 8.2141,11.1938 7.1771,11.1938" id="Fill-8" fill="#E98178"></path>
                        <path d="M9.8793,8.9809 L9.6433,8.4969 C7.4043,9.5909 5.3623,8.9829 4.3443,8.5239 L4.1093,9.0029 C4.7673,9.2929 5.8093,9.6399 7.0483,9.6399 C7.9183,9.6399 8.8853,9.4629 9.8793,8.9809" id="Fill-10" fill="#FFFFFF"></path>
                        <path d="M10.6205,10.4975 L10.3775,9.9995 C7.4045,11.2035 4.9285,10.4565 3.6835,9.8755 L3.4455,10.3625 C4.2655,10.7455 5.5665,11.1935 7.1775,11.1935 C8.2145,11.1935 9.3785,11.0075 10.6205,10.4975" id="Fill-12" fill="#FFFFFF"></path>
                    </g>
                </g>
                <g id="Cone" transform="translate(104.761905, 219.047619)">
                    <g>
                        <polygon id="Fill-1" fill="#000000" opacity="0.09" filter="url(#filter-17)" points="4 14.047 11.045 18.095 18.079 14.047 11.045 10"></polygon>
                        <polygon id="Fill-1" fill="#EFDBD8" points="0 11.4047 7.045 15.4527 14.079 11.4047 7.045 7.3577"></polygon>
                        <polygon id="Fill-2" fill="#E8BEB9" points="0 12.1427 7.033 16.2017 7.033 15.4417 0 11.3827"></polygon>
                        <polygon id="Fill-3" fill="#E79C95" points="7.0335 15.4412 7.0335 16.2012 14.0555 12.1422 14.0555 11.3822"></polygon>
                        <path d="M10.3773,9.9994 L9.8793,8.9804 C8.8853,9.4634 7.9183,9.6404 7.0483,9.6404 C5.8093,9.6404 4.7673,9.2934 4.1093,9.0034 L3.6843,9.8754 C4.9283,10.4564 7.4043,11.2034 10.3773,9.9994" id="Fill-4" fill="#E98178"></path>
                        <path d="M9.6429,8.4965 L6.9999,0.0005 L4.3439,8.5235 C5.3629,8.9825 7.4049,9.5915 9.6429,8.4965" id="Fill-6" fill="#E98178"></path>
                        <path d="M7.1771,11.1938 C5.5671,11.1938 4.2651,10.7458 3.4461,10.3628 L2.9721,11.3328 C4.2391,13.3238 7.0001,13.2338 7.0001,13.2338 C7.0001,13.2338 9.7611,13.3238 11.0291,11.3328 L10.6201,10.4978 C9.3781,11.0068 8.2141,11.1938 7.1771,11.1938" id="Fill-8" fill="#E98178"></path>
                        <path d="M9.8793,8.9809 L9.6433,8.4969 C7.4043,9.5909 5.3623,8.9829 4.3443,8.5239 L4.1093,9.0029 C4.7673,9.2929 5.8093,9.6399 7.0483,9.6399 C7.9183,9.6399 8.8853,9.4629 9.8793,8.9809" id="Fill-10" fill="#FFFFFF"></path>
                        <path d="M10.6205,10.4975 L10.3775,9.9995 C7.4045,11.2035 4.9285,10.4565 3.6835,9.8755 L3.4455,10.3625 C4.2655,10.7455 5.5665,11.1935 7.1775,11.1935 C8.2145,11.1935 9.3785,11.0075 10.6205,10.4975" id="Fill-12" fill="#FFFFFF"></path>
                    </g>
                </g>
                <g id="Cone" transform="translate(107.142857, 244.047619)">
                    <g>
                        <polygon id="Fill-1" fill="#000000" opacity="0.09" filter="url(#filter-18)" points="4 14.047 11.045 18.095 18.079 14.047 11.045 10"></polygon>
                        <polygon id="Fill-1" fill="#EFDBD8" points="0 11.4047 7.045 15.4527 14.079 11.4047 7.045 7.3577"></polygon>
                        <polygon id="Fill-2" fill="#E8BEB9" points="0 12.1427 7.033 16.2017 7.033 15.4417 0 11.3827"></polygon>
                        <polygon id="Fill-3" fill="#E79C95" points="7.0335 15.4412 7.0335 16.2012 14.0555 12.1422 14.0555 11.3822"></polygon>
                        <path d="M10.3773,9.9994 L9.8793,8.9804 C8.8853,9.4634 7.9183,9.6404 7.0483,9.6404 C5.8093,9.6404 4.7673,9.2934 4.1093,9.0034 L3.6843,9.8754 C4.9283,10.4564 7.4043,11.2034 10.3773,9.9994" id="Fill-4" fill="#E98178"></path>
                        <path d="M9.6429,8.4965 L6.9999,0.0005 L4.3439,8.5235 C5.3629,8.9825 7.4049,9.5915 9.6429,8.4965" id="Fill-6" fill="#E98178"></path>
                        <path d="M7.1771,11.1938 C5.5671,11.1938 4.2651,10.7458 3.4461,10.3628 L2.9721,11.3328 C4.2391,13.3238 7.0001,13.2338 7.0001,13.2338 C7.0001,13.2338 9.7611,13.3238 11.0291,11.3328 L10.6201,10.4978 C9.3781,11.0068 8.2141,11.1938 7.1771,11.1938" id="Fill-8" fill="#E98178"></path>
                        <path d="M9.8793,8.9809 L9.6433,8.4969 C7.4043,9.5909 5.3623,8.9829 4.3443,8.5239 L4.1093,9.0029 C4.7673,9.2929 5.8093,9.6399 7.0483,9.6399 C7.9183,9.6399 8.8853,9.4629 9.8793,8.9809" id="Fill-10" fill="#FFFFFF"></path>
                        <path d="M10.6205,10.4975 L10.3775,9.9995 C7.4045,11.2035 4.9285,10.4565 3.6835,9.8755 L3.4455,10.3625 C4.2655,10.7455 5.5665,11.1935 7.1775,11.1935 C8.2145,11.1935 9.3785,11.0075 10.6205,10.4975" id="Fill-12" fill="#FFFFFF"></path>
                    </g>
                </g>
            </g>
        </g>
    </g>
</svg>