<?xml version="1.0" encoding="UTF-8"?>
<svg width="570px" height="570px" viewBox="0 0 570 570" version="1.1" xmlns="http://www.w3.org/2000/svg" xmlns:xlink="http://www.w3.org/1999/xlink">
    <!-- Generator: Sketch 51.2 (57519) - http://www.bohemiancoding.com/sketch -->
    <title>Maintenance</title>
    <desc>Created with Sketch.</desc>
    <defs>
        <filter x="-22.7%" y="-39.6%" width="145.5%" height="179.3%" filterUnits="objectBoundingBox" id="filter-1">
            <feGaussianBlur stdDeviation="15" in="SourceGraphic"></feGaussianBlur>
        </filter>
        <filter x="-31.3%" y="-54.5%" width="162.6%" height="209.1%" filterUnits="objectBoundingBox" id="filter-2">
            <feGaussianBlur stdDeviation="10" in="SourceGraphic"></feGaussianBlur>
        </filter>
        <path d="M262.812277,114.758204 L257.368317,107.222115 L257.374556,106.574442 C257.418233,102.400432 254.041626,97.7284517 249.850764,96.1596894 C245.659903,94.5930062 242.214661,96.7137983 242.172025,100.886769 L242.10339,107.55167 C242.099231,107.968551 242.260418,108.429095 242.553674,108.834541 L247.968516,116.341521 L247.937319,119.324145 C247.92796,120.192214 248.627823,121.159046 249.499273,121.485481 C250.370722,121.810877 251.085144,121.372165 251.093464,120.504095 L251.131941,116.871719 C251.13506,116.455877 250.973873,115.994293 250.681657,115.589887 L245.265775,108.081868 L245.32817,102.067759 C245.353128,99.6267686 247.367445,98.386521 249.818527,99.3044913 C252.269609,100.221422 254.244409,102.953501 254.218411,105.393452 L254.206972,106.574442 C254.194493,106.723105 254.201773,106.878006 254.23401,107.039145 C254.23505,107.047462 254.23817,107.055778 254.24025,107.064095 C254.257928,107.152462 254.279766,107.240828 254.312004,107.330234 C254.407676,107.615085 254.566783,107.889541 254.768527,108.132808 L260.101216,115.513996 L260.015943,123.807957 C259.956668,129.523699 255.239609,132.427313 249.500313,130.280531 C244.041794,128.238749 239.523359,122.283897 239.215544,116.725135 C239.165628,115.836274 238.417928,114.89959 237.549598,114.633452 C236.679189,114.366274 236.013642,114.868402 236.063558,115.757264 C236.467046,123.003303 242.35505,130.762907 249.468075,133.423254 C256.947151,136.221868 263.094094,132.437709 263.172088,124.988947 L263.2636,116.042115 C263.26672,115.626274 263.104493,115.16365 262.812277,114.758204" id="path-3"></path>
        <filter x="-1.8%" y="-1.3%" width="103.7%" height="102.6%" filterUnits="objectBoundingBox" id="filter-4">
            <feOffset dx="1" dy="1" in="SourceAlpha" result="shadowOffsetInner1"></feOffset>
            <feComposite in="shadowOffsetInner1" in2="SourceAlpha" operator="arithmetic" k2="-1" k3="1" result="shadowInnerInner1"></feComposite>
            <feColorMatrix values="0 0 0 0 0.483684099   0 0 0 0 0.321101048   0 0 0 0 0.473080856  0 0 0 1 0" type="matrix" in="shadowInnerInner1"></feColorMatrix>
        </filter>
        <path d="M241.956286,115.296122 L241.943807,116.539488 C241.900131,120.714538 245.275698,125.385478 249.467599,126.954241 C253.65846,128.521963 257.102662,126.402211 257.145299,122.227161 L257.213933,115.662062 C257.218093,115.244142 257.055866,114.780478 256.76053,114.373993 L251.219857,106.728746 L251.251055,103.737805 C251.259374,102.869736 250.560551,101.901864 249.689101,101.576468 C248.817652,101.248993 248.103229,101.688746 248.09491,102.556815 L248.057473,106.200627 C248.053313,106.617508 248.21658,107.082211 248.510876,107.487656 L254.051549,115.133944 L253.990194,121.046171 C253.965236,123.487161 251.949878,124.727409 249.499836,123.810478 C247.047715,122.893547 245.073954,120.161468 245.098912,117.720478 L245.114511,116.247359 C245.24554,115.778498 245.117631,115.163052 244.717263,114.609983 L244.692305,114.573597 C244.674626,114.548646 244.657988,114.525775 244.640309,114.501864 L239.223387,107.004241 L239.30658,98.9046861 C239.365855,93.1889435 244.082914,90.2853297 249.82221,92.4321118 C255.100824,94.4063198 259.60782,100.205231 260.082021,105.631963 L260.09554,105.800379 C260.157935,106.693399 260.918114,107.623845 261.782284,107.874389 C262.651654,108.128052 263.305761,107.611369 263.243366,106.719389 L263.224647,106.492755 C262.596538,99.3018148 256.847883,91.9050326 249.854448,89.2883495 C242.374332,86.4907752 236.227389,90.2749336 236.151475,97.7247356 L236.061002,106.476122 C236.056843,106.891963 236.21907,107.353547 236.512326,107.758993 L241.956286,115.296122 Z" id="path-5"></path>
        <filter x="-1.8%" y="-1.3%" width="103.7%" height="102.6%" filterUnits="objectBoundingBox" id="filter-6">
            <feOffset dx="1" dy="1" in="SourceAlpha" result="shadowOffsetInner1"></feOffset>
            <feComposite in="shadowOffsetInner1" in2="SourceAlpha" operator="arithmetic" k2="-1" k3="1" result="shadowInnerInner1"></feComposite>
            <feColorMatrix values="0 0 0 0 0.483684099   0 0 0 0 0.321101048   0 0 0 0 0.473080856  0 0 0 1 0" type="matrix" in="shadowInnerInner1"></feColorMatrix>
        </filter>
        <filter x="-51.1%" y="-88.4%" width="202.2%" height="276.7%" filterUnits="objectBoundingBox" id="filter-7">
            <feGaussianBlur stdDeviation="6" in="SourceGraphic"></feGaussianBlur>
        </filter>
        <filter x="-51.1%" y="-88.4%" width="202.2%" height="276.7%" filterUnits="objectBoundingBox" id="filter-8">
            <feGaussianBlur stdDeviation="6" in="SourceGraphic"></feGaussianBlur>
        </filter>
        <filter x="-61.2%" y="-107.3%" width="222.4%" height="314.6%" filterUnits="objectBoundingBox" id="filter-9">
            <feGaussianBlur stdDeviation="6" in="SourceGraphic"></feGaussianBlur>
        </filter>
        <filter x="-61.2%" y="-107.3%" width="222.4%" height="314.6%" filterUnits="objectBoundingBox" id="filter-10">
            <feGaussianBlur stdDeviation="6" in="SourceGraphic"></feGaussianBlur>
        </filter>
        <filter x="-69.7%" y="-128.5%" width="239.4%" height="357.1%" filterUnits="objectBoundingBox" id="filter-11">
            <feGaussianBlur stdDeviation="4" in="SourceGraphic"></feGaussianBlur>
        </filter>
        <filter x="-69.7%" y="-128.5%" width="239.4%" height="357.1%" filterUnits="objectBoundingBox" id="filter-12">
            <feGaussianBlur stdDeviation="4" in="SourceGraphic"></feGaussianBlur>
        </filter>
        <filter x="-69.7%" y="-128.5%" width="239.4%" height="357.1%" filterUnits="objectBoundingBox" id="filter-13">
            <feGaussianBlur stdDeviation="4" in="SourceGraphic"></feGaussianBlur>
        </filter>
        <filter x="-69.7%" y="-128.5%" width="239.4%" height="357.1%" filterUnits="objectBoundingBox" id="filter-14">
            <feGaussianBlur stdDeviation="4" in="SourceGraphic"></feGaussianBlur>
        </filter>
        <filter x="-69.7%" y="-128.5%" width="239.4%" height="357.1%" filterUnits="objectBoundingBox" id="filter-15">
            <feGaussianBlur stdDeviation="4" in="SourceGraphic"></feGaussianBlur>
        </filter>
        <filter x="-69.7%" y="-128.5%" width="239.4%" height="357.1%" filterUnits="objectBoundingBox" id="filter-16">
            <feGaussianBlur stdDeviation="4" in="SourceGraphic"></feGaussianBlur>
        </filter>
        <filter x="-60.7%" y="-105.6%" width="221.5%" height="311.2%" filterUnits="objectBoundingBox" id="filter-17">
            <feGaussianBlur stdDeviation="3" in="SourceGraphic"></feGaussianBlur>
        </filter>
        <filter x="-60.7%" y="-105.6%" width="221.5%" height="311.2%" filterUnits="objectBoundingBox" id="filter-18">
            <feGaussianBlur stdDeviation="3" in="SourceGraphic"></feGaussianBlur>
        </filter>
        <filter x="-60.7%" y="-105.6%" width="221.5%" height="311.2%" filterUnits="objectBoundingBox" id="filter-19">
            <feGaussianBlur stdDeviation="3" in="SourceGraphic"></feGaussianBlur>
        </filter>
        <filter x="-60.7%" y="-105.6%" width="221.5%" height="311.2%" filterUnits="objectBoundingBox" id="filter-20">
            <feGaussianBlur stdDeviation="3" in="SourceGraphic"></feGaussianBlur>
        </filter>
        <filter x="-60.7%" y="-105.6%" width="221.5%" height="311.2%" filterUnits="objectBoundingBox" id="filter-21">
            <feGaussianBlur stdDeviation="3" in="SourceGraphic"></feGaussianBlur>
        </filter>
    </defs>
    <g id="Maintenance" stroke="none" stroke-width="1" fill="none" fill-rule="evenodd">
        <g id="Maintenance-Illustration" transform="translate(38.000000, 18.000000)">
            <g>
                <g id="Buildilng-Under-Construction" transform="translate(181.985294, 0.000000)">
                    <g>
                        <polygon id="Fill-16-Copy" fill="#000000" opacity="0.07" filter="url(#filter-1)" points="149.090087 333.513634 50.0168067 390.289142 149.090087 447.060362 248 390.289142"></polygon>
                        <polygon id="Fill-1" fill="#EDE3F0" points="0 353.907111 103.576471 413.261394 206.98205 353.907111 103.576471 294.553867"></polygon>
                        <polygon id="Fill-2" fill="#DCC3DE" points="0 364.729897 103.406622 424.25257 103.406622 413.092069 0 353.569396"></polygon>
                        <polygon id="Fill-3" fill="#C7AAD1" points="103.406309 413.092381 103.406309 424.252882 206.643082 364.730209 206.643082 353.569708"></polygon>
                        <polygon id="Fill-4" fill="#C7AAD1" points="104.49084 11.0439796 33.5503361 51.5552371 104.49084 92.2380028 175.131244 51.5552371"></polygon>
                        <polygon id="Fill-5" fill="#C7AAD1" points="104.444054 5.15345522 55.3754824 33.1737244 104.444054 61.3145689 153.305264 33.1737244"></polygon>
                        <polygon id="Fill-6" fill="#AB77A4" points="33.6479731 51.424891 104.288376 92.1097355 104.288376 392.409021 33.6469311 351.725216"></polygon>
                        <polygon id="Fill-7" fill="#936590" points="174.968376 51.3924603 104.236276 92.1407109 104.236276 392.441036 174.969418 351.692785"></polygon>
                        <polygon id="Fill-8" fill="#AB77A4" points="55.365479 33.2601021 104.29442 61.4383666 104.29442 77.9727889 55.365479 49.7934849"></polygon>
                        <polygon id="Fill-9" fill="#936590" points="153.250871 33.2367146 104.258366 61.4607146 104.258366 77.1760557 153.250871 48.9520557"></polygon>
                        <polygon id="Fill-10" fill="#C7AAD1" opacity="0.7" points="126.904101 114.188028 115.286655 121.404882 115.286655 344.497448 126.904101 337.804473"></polygon>
                        <polygon id="Fill-13" fill="#C7AAD1" opacity="0.7" points="145.604134 102.897596 133.985647 110.11445 133.985647 333.724659 145.604134 327.05871"></polygon>
                        <polygon id="Fill-16" fill="#C7AAD1" opacity="0.7" points="164.302084 91.6082042 152.684639 98.8240186 152.684639 322.95291 164.302084 316.259935"></polygon>
                        <polygon id="Fill-19" fill="#C7AAD1" opacity="0.7" points="80.6 157.419508 92.2164034 164.832817 92.2164034 343.118107 80.6 336.427211"></polygon>
                        <polygon id="Fill-22" fill="#C7AAD1" opacity="0.7" points="61.8999664 145.822441 73.5184538 153.235749 73.5184538 332.348436 61.8999664 325.65858"></polygon>
                        <polygon id="Fill-25" fill="#C7AAD1" opacity="0.7" points="43.2009748 134.225374 54.8194622 141.637643 54.8194622 321.436362 43.2009748 314.88891"></polygon>
                        <path d="M126.112689,26.0458469 C126.112689,33.1785058 115.97595,38.9609281 103.47279,38.9609281 C90.9685882,38.9609281 80.8339328,33.1785058 80.8339328,26.0458469 C80.8339328,18.9131879 90.9685882,13.1307657 103.47279,13.1307657 C115.97595,13.1307657 126.112689,18.9131879 126.112689,26.0458469" id="Fill-28" fill="#936590"></path>
                        <path d="M126.112689,20.3076009 C126.112689,27.4402599 115.97595,33.2226821 103.47279,33.2226821 C90.9685882,33.2226821 80.8339328,27.4402599 80.8339328,20.3076009 C80.8339328,13.174942 90.9685882,7.39251972 103.47279,7.39251972 C115.97595,7.39251972 126.112689,13.174942 126.112689,20.3076009" id="Fill-30" fill="#FFFFFF"></path>
                        <path d="M103.561778,29.4412919 C111.988568,29.4412919 117.789476,24.940503 121.148938,21.2161782 C121.377139,20.0831852 121.500097,18.9106933 121.500097,17.7101364 C121.500097,7.92897633 113.550551,0.000103944316 103.745173,0.000103944316 C93.940837,0.000103944316 85.9912908,7.92897633 85.9912908,17.7101364 C85.9912908,19.5094125 86.2642992,21.2442432 86.7644672,22.8803267 C89.4549546,25.7200854 94.6712908,29.4412919 103.561778,29.4412919" id="Fill-32" fill="#EFDBD8"></path>
                        <path d="M103.746007,-0.000103944316 C102.277805,-0.000103944316 100.85962,0.196350812 99.4956202,0.532090951 C104.55357,4.24290302 107.851553,10.2041095 107.851553,16.9490561 C107.851553,21.6618914 106.233301,25.9880538 103.541771,29.441084 L103.56157,29.441084 C111.98836,29.441084 117.790309,24.9402951 121.148729,21.2159703 C121.376931,20.0829773 121.499889,18.9104854 121.499889,17.7099285 C121.499889,7.92876845 113.551385,-0.000103944316 103.746007,-0.000103944316" id="Fill-34" fill="#E79C95"></path>
                        <path d="M55.6198353,363.848657 L55.6198353,342.580611 C55.6198353,337.745121 59.5867933,335.228629 64.4342555,336.988406 C69.2817176,338.749223 73.2486756,344.144973 73.2486756,348.980462 L73.2486756,373.990504 L55.6198353,363.848657 Z" id="Fill-37" fill="#DCC3DE"></path>
                        <path d="M58.0019899,365.037364 L58.0019899,343.768278 C58.0019899,338.932789 61.9689479,336.416297 66.8164101,338.176074 C71.6638723,339.936891 75.6308303,345.33368 75.6308303,350.169169 L75.6308303,375.178172 L58.0019899,365.037364 Z" id="Fill-39" fill="#C7AAD1"></path>
                    </g>
                </g>
                <g id="Crane" transform="translate(42.636555, 29.108911)">
                    <g>
                        <polygon id="Fill-16" fill="#000000" opacity="0.06" filter="url(#filter-2)" points="122.797907 401.952273 74.8704319 429.453286 122.797907 456.952223 170.646352 429.453286"></polygon>
                        <path d="M204.577528,242.935903 L204.577528,214.04831" id="Stroke-1" stroke="#000000" stroke-linecap="round"></path>
                        <polygon id="Fill-2" fill="#E8BEB9" points="204.580648 203.117805 196.441608 207.787514 204.580648 212.457223 212.705129 207.787514"></polygon>
                        <polygon id="Fill-3" fill="#D57576" points="209.204209 208.079682 209.710624 207.787825 204.57784 204.838098 199.435697 207.787825 199.944192 208.079682 204.57784 205.419734"></polygon>
                        <polygon id="Fill-4" fill="#E98178" points="209.204209 208.079682 204.57784 205.419734 199.944192 208.079682 204.57784 210.738591"></polygon>
                        <polygon id="Fill-5" fill="#E98178" points="196.4414 207.761236 204.565881 212.444447 204.565881 221.200152 196.4414 216.517979"></polygon>
                        <polygon id="Fill-6" fill="#D57576" points="212.679237 207.761236 204.566193 212.444447 204.566193 221.200152 212.679237 216.517979"></polygon>
                        <path d="M204.577528,207.497422 L204.577528,147.450738" id="Stroke-7" stroke="#000000" stroke-linecap="round"></path>
                        <path d="M218.399442,268.088352 L212.955737,260.559277 L212.961976,259.912207 C213.005651,255.742082 209.629202,251.07445 205.438538,249.507148 C201.247873,247.941923 197.802794,250.060741 197.760159,254.229827 L197.691528,260.888525 C197.687368,261.305018 197.848548,261.765134 198.14179,262.170202 L203.556378,269.670195 L203.525182,272.650043 C203.515824,273.517304 204.215654,274.483236 205.087063,274.809368 C205.958471,275.134461 206.67286,274.696157 206.681179,273.828895 L206.719654,270.1999 C206.722774,269.784445 206.561594,269.323291 206.269392,268.919261 L200.853764,261.418229 L200.916156,255.409718 C200.941113,252.971 202.955335,251.731907 205.406302,252.649023 C207.857269,253.5651 209.831976,256.294636 209.80598,258.732316 L209.794541,259.912207 C209.782063,260.060732 209.789342,260.215488 209.821578,260.376477 C209.822618,260.384786 209.825737,260.393095 209.827817,260.401404 C209.845495,260.489688 209.867332,260.577973 209.899568,260.667295 C209.995236,260.951882 210.154335,261.226082 210.356069,261.469123 L215.688508,268.843441 L215.603239,277.129682 C215.543966,282.840104 210.827129,285.741016 205.088103,283.596232 C199.62984,281.55635 195.111618,275.607041 194.803817,270.053452 C194.753903,269.165418 194.006239,268.229607 193.13795,267.963716 C192.267581,267.696786 191.602066,268.198448 191.65198,269.086482 C192.055448,276.325777 197.943176,284.078159 205.055867,286.736029 C212.534591,289.532038 218.681246,285.751402 218.759236,278.309573 L218.850744,269.371068 C218.853863,268.955613 218.691644,268.49342 218.399442,268.088352" id="Fill-8" fill="#936590"></path>
                        <path d="M197.606155,269.175597 L197.593676,270.417806 C197.550002,274.588969 200.925411,279.255563 205.117115,280.822865 C209.307779,282.389128 212.751819,280.271349 212.794454,276.100185 L212.863085,269.541197 C212.867245,269.123665 212.705025,268.660433 212.409703,268.254326 L206.869291,260.616194 L206.900487,257.628038 C206.908806,256.760776 206.210015,255.793806 205.338607,255.468713 C204.467198,255.141542 203.752809,255.580885 203.74449,256.448147 L203.707055,260.088567 C203.702896,260.50506 203.866155,260.969331 204.160437,261.374399 L209.700849,269.013569 L209.639497,274.920294 C209.61454,277.359013 207.599278,278.598106 205.149351,277.682028 C202.697344,276.765951 200.723676,274.036415 200.748633,271.597697 L200.764231,270.125949 C200.895254,269.657524 200.767351,269.042651 200.367002,268.490097 L200.342045,268.453744 C200.324367,268.428817 200.30773,268.405967 200.290052,268.382078 L194.873384,260.891433 L194.956573,252.799417 C195.015846,247.088994 199.732683,244.188083 205.47171,246.332867 C210.750075,248.305238 215.256859,254.098751 215.731039,259.520433 L215.744557,259.688692 C215.806949,260.580881 216.567092,261.51046 217.431221,261.760772 C218.30055,262.014199 218.954627,261.497997 218.892235,260.606847 L218.873517,260.380424 C218.245437,253.196176 212.497052,245.806278 205.503946,243.192031 C198.024181,240.39706 191.877527,244.177697 191.801617,251.620565 L191.711148,260.363806 C191.706989,260.77926 191.869208,261.240415 192.16245,261.645483 L197.606155,269.175597 Z" id="Fill-10" fill="#936590"></path>
                        <path d="M217.359574,269.126988 L211.91587,261.597913 L211.922109,260.950843 C211.965784,256.780718 208.589335,252.113086 204.398671,250.545784 C200.208006,248.980559 196.762927,251.099377 196.720292,255.268463 L196.651661,261.927161 C196.647501,262.343654 196.808681,262.80377 197.101923,263.208838 L202.516511,270.708832 L202.485315,273.688679 C202.475956,274.555941 203.175787,275.521873 204.047196,275.848004 C204.918604,276.173098 205.632993,275.734793 205.641312,274.867532 L205.679787,271.238536 C205.682907,270.823082 205.521727,270.361927 205.229525,269.957898 L199.813897,262.456866 L199.876289,256.448354 C199.901246,254.009636 201.915468,252.770543 204.366435,253.687659 C206.817402,254.603736 208.792109,257.333273 208.766113,259.770952 L208.754674,260.950843 C208.742196,261.099368 208.749475,261.254125 208.781711,261.415113 C208.78275,261.423423 208.78587,261.431732 208.78795,261.440041 C208.805628,261.528325 208.827465,261.616609 208.859701,261.705932 C208.955368,261.990518 209.114468,262.264718 209.316202,262.507759 L214.648641,269.882077 L214.563372,278.168318 C214.504099,283.878741 209.787262,286.779652 204.048236,284.634868 C198.589973,282.594986 194.07175,276.645677 193.76395,271.092088 C193.714036,270.204054 192.966372,269.268243 192.098083,269.002352 C191.227714,268.735423 190.562199,269.237084 190.612113,270.125118 C191.015581,277.364413 196.903309,285.116795 204.016,287.774666 C211.494724,290.570675 217.641378,286.790038 217.719368,279.348209 L217.810877,270.409704 C217.813996,269.99425 217.651777,269.532057 217.359574,269.126988" id="Fill-12" fill="#FFFFFF"></path>
                        <path d="M196.566288,270.214233 L196.553809,271.456442 C196.510135,275.627606 199.885544,280.294199 204.077248,281.861501 C208.267912,283.427765 211.711952,281.309985 211.754587,277.138822 L211.823218,270.579833 C211.827377,270.162301 211.665158,269.699069 211.369836,269.292963 L205.829424,261.654831 L205.86062,258.666674 C205.868939,257.799413 205.170148,256.832442 204.29874,256.507349 C203.427331,256.180178 202.712942,256.619522 202.704623,257.486783 L202.667188,261.127203 C202.663029,261.543697 202.826288,262.007967 203.12057,262.413035 L208.660982,270.052206 L208.59963,275.958931 C208.574673,278.397649 206.559411,279.636742 204.109484,278.720665 C201.657477,277.804588 199.683809,275.075051 199.708766,272.636333 L199.724364,271.164585 C199.855387,270.69616 199.727484,270.081288 199.327135,269.528733 L199.302178,269.492381 C199.2845,269.467453 199.267862,269.444603 199.250185,269.420715 L193.833517,261.930069 L193.916706,253.838053 C193.975979,248.127631 198.692816,245.226719 204.431843,247.371503 C209.710208,249.343874 214.216992,255.137388 214.691171,260.559069 L214.70469,260.727328 C214.767082,261.619517 215.527225,262.549097 216.391354,262.799408 C217.260683,263.052835 217.914759,262.536633 217.852367,261.645483 L217.83365,261.41906 C217.20557,254.234813 211.457185,246.844915 204.464078,244.230667 C196.984314,241.435697 190.83766,245.216333 190.76175,252.659201 L190.671281,261.402442 C190.667122,261.817897 190.829341,262.279051 191.122583,262.684119 L196.566288,270.214233 Z" id="Fill-14" fill="#FFFFFF"></path>
                        <polygon id="Fill-16" fill="#EDE3F0" points="79.5650159 369.629182 31.6375409 397.130196 79.5650159 424.629132 127.413461 397.130196"></polygon>
                        <polygon id="Fill-18" fill="#DCC3DE" points="31.6377488 396.972531 79.486194 424.551442 79.486194 429.721774 31.6377488 402.143901"></polygon>
                        <polygon id="Fill-20" fill="#C7AAD1" points="127.256753 396.972531 79.486298 424.551442 79.486298 429.721774 127.256753 402.143901"></polygon>
                        <path d="M63.0479748,386.769798 L63.0479748,350.380134 L78.1822007,359.106757 L78.1822007,395.496421 L63.0479748,386.769798 Z M63.0479748,115.20378 L63.0479748,99.5868434 L78.1822007,108.314505 L78.1822007,123.931441 L63.0479748,115.20378 Z M63.0479748,134.495412 L63.0479748,118.878475 L78.1822007,127.607175 L78.1822007,143.224112 L63.0479748,134.495412 Z M63.0479748,153.788082 L63.0479748,138.170107 L78.1822007,146.897768 L78.1822007,162.515743 L63.0479748,153.788082 Z M63.0479748,173.079714 L63.0479748,157.462777 L78.1822007,166.1894 L78.1822007,181.806337 L63.0479748,173.079714 Z M63.0479748,192.371346 L63.0479748,176.754409 L78.1822007,185.481032 L78.1822007,201.097968 L63.0479748,192.371346 Z M63.0479748,211.662978 L63.0479748,196.046041 L78.1822007,204.772664 L78.1822007,220.390639 L63.0479748,211.662978 Z M63.0479748,230.954609 L63.0479748,215.337673 L78.1822007,224.065334 L78.1822007,239.682271 L63.0479748,230.954609 Z M63.0479748,250.24728 L63.0479748,234.629305 L78.1822007,243.356966 L78.1822007,258.973903 L63.0479748,250.24728 Z M63.0479748,269.537873 L63.0479748,253.920937 L78.1822007,262.648598 L78.1822007,278.265534 L63.0479748,269.537873 Z M63.0479748,288.829505 L63.0479748,273.212568 L78.1822007,281.94023 L78.1822007,297.557166 L63.0479748,288.829505 Z M63.0479748,308.121137 L63.0479748,292.5042 L78.1822007,301.2329 L78.1822007,316.849837 L63.0479748,308.121137 Z M78.1822007,339.815125 L78.1822007,355.4331 L63.0479748,346.705439 L63.0479748,331.088503 L78.1822007,339.815125 Z M63.0479748,327.413807 L63.0479748,311.795832 L78.1822007,320.524532 L78.1822007,336.141468 L63.0479748,327.413807 Z M78.1822007,89.022873 L78.1822007,104.639809 L63.0479748,95.912148 L63.0479748,80.2952116 L78.1822007,89.022873 Z M78.1822007,77.9987866 L78.1822007,85.3481775 L63.0479748,76.6205161 L63.0479748,69.2721639 L59.8618219,67.4337775 L59.8618219,397.792846 L61.20741,398.712039 L63.0479748,396.874691 L63.0479748,390.444493 L78.1822007,399.171116 L78.1822007,405.602352 L81.3683535,407.4397 L81.3683535,79.8361343 L78.1822007,77.9987866 Z" id="Fill-22" fill="#C7AAD1"></path>
                        <path d="M80.8689053,395.496732 L80.8689053,359.107069 L96.0031312,350.380446 L96.0031312,386.77011 L80.8689053,395.496732 Z M80.8689053,123.931753 L80.8689053,108.314816 L96.0031312,99.587155 L96.0031312,115.204091 L80.8689053,123.931753 Z M80.8689053,143.223385 L80.8689053,127.606448 L96.0031312,118.878787 L96.0031312,134.495723 L80.8689053,143.223385 Z M80.8689053,162.516055 L80.8689053,146.897041 L96.0031312,138.170419 L96.0031312,153.787355 L80.8689053,162.516055 Z M80.8689053,181.806648 L80.8689053,166.189712 L96.0031312,157.46205 L96.0031312,173.078987 L80.8689053,181.806648 Z M80.8689053,201.09828 L80.8689053,185.481344 L96.0031312,176.754721 L96.0031312,192.371657 L80.8689053,201.09828 Z M80.8689053,220.389912 L80.8689053,204.772975 L96.0031312,196.046353 L96.0031312,211.663289 L80.8689053,220.389912 Z M80.8689053,239.681544 L80.8689053,224.064607 L96.0031312,215.337985 L96.0031312,230.954921 L80.8689053,239.681544 Z M80.8689053,258.974214 L80.8689053,243.357278 L96.0031312,234.628578 L96.0031312,250.246553 L80.8689053,258.974214 Z M80.8689053,278.265846 L80.8689053,262.64891 L96.0031312,253.92021 L96.0031312,269.538185 L80.8689053,278.265846 Z M80.8689053,297.557478 L80.8689053,281.940541 L96.0031312,273.21288 L96.0031312,288.829816 L80.8689053,297.557478 Z M80.8689053,316.84911 L80.8689053,301.232173 L96.0031312,292.504512 L96.0031312,308.121448 L80.8689053,316.84911 Z M96.0031312,331.087775 L96.0031312,346.704712 L80.8689053,355.433412 L80.8689053,339.815437 L96.0031312,331.087775 Z M80.8689053,336.14178 L80.8689053,320.523805 L96.0031312,311.796144 L96.0031312,327.41308 L80.8689053,336.14178 Z M96.0031312,80.2944845 L96.0031312,95.9124595 L80.8689053,104.640121 L80.8689053,89.0231845 L96.0031312,80.2944845 Z M96.0031312,69.2714368 L96.0031312,76.6197891 L80.8689053,85.3484891 L80.8689053,77.9990982 L77.6827525,79.8364459 L77.6827525,407.440012 L80.8689053,405.601625 L80.8689053,399.171428 L96.0031312,390.444805 L96.0031312,396.875003 L97.8416163,398.71235 L99.1892841,395.037655 L99.1892841,67.4340891 L96.0031312,69.2714368 Z" id="Fill-24" fill="#AB77A4"></path>
                        <path d="M61.2079299,388.606626 L61.2079299,352.216963 L76.3431957,360.944624 L76.3431957,397.334288 L61.2079299,388.606626 Z M61.2079299,117.041647 L61.2079299,101.42471 L76.3431957,110.151333 L76.3431957,125.76827 L61.2079299,117.041647 Z M61.2079299,136.333279 L61.2079299,120.716342 L76.3431957,129.444004 L76.3431957,145.06094 L61.2079299,136.333279 Z M61.2079299,155.625949 L61.2079299,140.006935 L76.3431957,148.735635 L76.3431957,164.352572 L61.2079299,155.625949 Z M61.2079299,174.916542 L61.2079299,159.299606 L76.3431957,168.027267 L76.3431957,183.644204 L61.2079299,174.916542 Z M61.2079299,194.208174 L61.2079299,178.591238 L76.3431957,187.318899 L76.3431957,202.935835 L61.2079299,194.208174 Z M61.2079299,213.499806 L61.2079299,197.88287 L76.3431957,206.610531 L76.3431957,222.228506 L61.2079299,213.499806 Z M61.2079299,232.791438 L61.2079299,217.174501 L76.3431957,225.903201 L76.3431957,241.520138 L61.2079299,232.791438 Z M61.2079299,252.084108 L61.2079299,236.467172 L76.3431957,245.193795 L76.3431957,260.81177 L61.2079299,252.084108 Z M61.2079299,271.37574 L61.2079299,255.758804 L76.3431957,264.485426 L76.3431957,280.102363 L61.2079299,271.37574 Z M61.2079299,290.667372 L61.2079299,275.050435 L76.3431957,283.777058 L76.3431957,299.393995 L61.2079299,290.667372 Z M61.2079299,309.959004 L61.2079299,294.342067 L76.3431957,303.069729 L76.3431957,318.686665 L61.2079299,309.959004 Z M76.3431957,341.652992 L76.3431957,357.269929 L61.2079299,348.543306 L61.2079299,332.925331 L76.3431957,341.652992 Z M61.2079299,329.251674 L61.2079299,313.633699 L76.3431957,322.36136 L76.3431957,337.978297 L61.2079299,329.251674 Z M76.3431957,90.8597014 L76.3431957,106.476638 L61.2079299,97.750015 L61.2079299,82.1330786 L76.3431957,90.8597014 Z M76.3431957,79.8366536 L76.3431957,87.1850059 L61.2079299,78.4583832 L61.2079299,71.1089923 L58.0228169,69.2716445 L58.0228169,396.87521 L61.2079299,398.71152 L61.2079299,392.281322 L76.3431957,401.008983 L76.3431957,407.44022 L79.5283086,409.276529 L79.5283086,81.6729627 L76.3431957,79.8366536 Z" id="Fill-26" fill="#AB77A4"></path>
                        <path d="M82.7080143,397.334599 L82.7080143,360.944936 L97.8422402,352.217274 L97.8422402,388.606938 L82.7080143,397.334599 Z M82.7080143,125.768581 L82.7080143,110.151645 L97.8422402,101.425022 L97.8422402,117.041958 L82.7080143,125.768581 Z M82.7080143,145.060213 L82.7080143,129.443277 L97.8422402,120.716654 L97.8422402,136.33359 L82.7080143,145.060213 Z M82.7080143,164.352883 L82.7080143,148.734908 L97.8422402,140.007247 L97.8422402,155.625222 L82.7080143,164.352883 Z M82.7080143,183.644515 L82.7080143,168.027579 L97.8422402,159.298879 L97.8422402,174.915815 L82.7080143,183.644515 Z M82.7080143,202.936147 L82.7080143,187.319211 L97.8422402,178.591549 L97.8422402,194.208486 L82.7080143,202.936147 Z M82.7080143,222.227779 L82.7080143,206.610843 L97.8422402,197.883181 L97.8422402,213.500118 L82.7080143,222.227779 Z M82.7080143,241.519411 L82.7080143,225.902474 L97.8422402,217.174813 L97.8422402,232.791749 L82.7080143,241.519411 Z M82.7080143,260.812081 L82.7080143,245.194106 L97.8422402,236.466445 L97.8422402,252.083381 L82.7080143,260.812081 Z M82.7080143,280.102674 L82.7080143,264.485738 L97.8422402,255.758077 L97.8422402,271.376052 L82.7080143,280.102674 Z M82.7080143,299.394306 L82.7080143,283.77737 L97.8422402,275.050747 L97.8422402,290.667683 L82.7080143,299.394306 Z M82.7080143,318.685938 L82.7080143,303.069002 L97.8422402,294.342379 L97.8422402,309.959315 L82.7080143,318.685938 Z M97.8422402,332.924604 L97.8422402,348.542579 L82.7080143,357.27024 L82.7080143,341.653304 L97.8422402,332.924604 Z M82.7080143,337.978608 L82.7080143,322.360633 L97.8422402,313.634011 L97.8422402,329.250947 L82.7080143,337.978608 Z M97.8422402,82.1323516 L97.8422402,97.7503266 L82.7080143,106.476949 L82.7080143,90.860013 L97.8422402,82.1323516 Z M97.8422402,71.1082652 L97.8422402,78.4576561 L82.7080143,87.1853175 L82.7080143,79.8369652 L79.5218615,81.6732743 L79.5218615,409.27684 L82.7080143,407.439493 L82.7080143,401.009295 L97.8422402,392.281633 L97.8422402,398.711831 L101.028393,396.875522 L101.028393,69.2719561 L97.8422402,71.1082652 Z" id="Fill-28" fill="#936590"></path>
                        <polygon id="Fill-30" fill="#C7AAD1" points="79.5549292 52.1067245 47.3658429 70.576795 79.5549292 89.0468655 111.692022 70.576795"></polygon>
                        <polygon id="Fill-32" fill="#AB77A4" points="47.3657389 70.4714773 79.501792 88.9945182 79.501792 92.4677182 47.3657389 73.9446773"></polygon>
                        <polygon id="Fill-34" fill="#936590" points="111.586684 70.4714773 79.5026239 88.9945182 79.5026239 92.4677182 111.586684 73.9446773"></polygon>
                        <polygon id="Fill-36" fill="#C7AAD1" points="29.0167638 -0.000519318182 0.000311960133 16.6488216 29.0167638 33.2992011 57.9864216 16.6488216"></polygon>
                        <polygon id="Fill-39" fill="#AB77A4" points="0 16.5547211 28.9696578 33.2518393 28.9696578 64.4701325 0 47.7730143"></polygon>
                        <polygon id="Fill-41" fill="#936590" points="57.8912738 16.5547211 28.9704897 33.2518393 28.9704897 64.4701325 57.8912738 47.7730143"></polygon>
                        <polygon id="Fill-43" fill="#C7AAD1" opacity="0.7" points="18.1664784 31.2317955 22.1533289 33.7110205 22.1533289 56.0687068 18.1654385 53.7681273"></polygon>
                        <polygon id="Fill-46" fill="#C7AAD1" opacity="0.7" points="11.7484186 27.35145 15.7352691 29.8317136 15.7352691 52.3659682 11.7484186 50.075775"></polygon>
                        <polygon id="Fill-49" fill="#C7AAD1" opacity="0.7" points="5.33139867 23.4721432 9.31824917 25.9524068 9.31824917 48.6653068 5.33139867 46.3647273"></polygon>
                        <path d="M290.404208,202.597448 L95.9147425,89.9801841 L105.79452,84.282225 L300.283985,196.899489 L290.404208,202.597448 Z M85.3756894,72.5072045 L101.841985,82.0034568 L91.9622076,87.7014159 L75.4948721,78.2051636 L85.3756894,72.5072045 Z M64.9558189,60.7321841 L81.4231545,70.2284364 L71.5423372,75.9263955 L55.0760415,66.4301432 L64.9558189,60.7321841 Z M34.437799,59.0869841 L295.014978,209.813893 L298.966473,207.535125 L294.355703,204.876216 L304.23652,199.178257 L308.846251,201.838205 L312.798786,199.558398 L52.2226462,48.83045 L48.2701113,47.2517227 L48.2701113,51.1092182 L61.0053638,58.4534159 L51.1245465,64.151375 L38.389294,56.8082159 L34.437799,55.2274114 L34.437799,59.0869841 Z" id="Fill-52" fill="#DCC3DE"></path>
                        <path d="M290.404208,198.738083 L95.9147425,86.1208191 L105.79452,80.4238986 L300.283985,193.041162 L290.404208,198.738083 Z M85.3756894,68.6478395 L101.841985,78.1451305 L91.9622076,83.8420509 L75.4948721,74.3457986 L85.3756894,68.6478395 Z M64.9558189,56.8728191 L81.4231545,66.37011 L71.5423372,72.0670305 L55.0760415,62.5707782 L64.9558189,56.8728191 Z M34.437799,55.2276191 L295.014978,205.954528 L298.966473,203.67576 L294.355703,201.016851 L304.23652,195.318892 L308.846251,197.97884 L312.798786,195.699033 L52.2226462,44.9721236 L48.2701113,47.2508918 L61.0053638,54.5950895 L51.1245465,60.29201 L38.389294,52.9488509 L34.437799,55.2276191 Z" id="Fill-54" fill="#EDE3F0"></path>
                        <polygon id="Fill-56" fill="#C7AAD1" points="295.014562 205.954736 295.014562 209.814309 298.967097 207.534502 298.967097 203.675968"></polygon>
                        <polygon id="Fill-58" fill="#C7AAD1" points="308.846563 197.97832 308.846563 201.837893 312.799098 199.558086 312.799098 195.699552"></polygon>
                        <polygon id="Fill-60" fill="#E8BEB9" points="180.590601 120.241893 168.217223 127.493652 253.933468 176.421734 266.246535 169.168936"></polygon>
                        <polygon id="Fill-62" fill="#E79C95" points="168.216703 127.370366 253.871596 176.359727 253.871596 180.443646 168.216703 131.455323"></polygon>
                        <polygon id="Fill-64" fill="#D57576" points="266.122687 169.04565 253.872012 176.359727 253.872012 180.443646 266.122687 173.129568"></polygon>
                        <path d="M290.404208,181.269881 L95.9147425,68.6526173 L105.79452,62.9556968 L300.283985,175.57296 L290.404208,181.269881 Z M85.3756894,51.1806764 L101.841985,60.6769286 L91.9622076,66.3738491 L75.4948721,56.8775968 L85.3756894,51.1806764 Z M64.9558189,39.4056559 L81.4231545,48.9019082 L71.5423372,54.5988286 L55.0760415,45.1025764 L64.9558189,39.4056559 Z M34.437799,37.7594173 L295.014978,188.487365 L298.966473,186.208597 L294.355703,183.548649 L304.23652,177.851729 L308.846251,180.510638 L312.798786,178.230831 L52.2226462,27.5039218 L48.2701113,25.9241559 L48.2701113,29.78269 L61.0053638,37.1268877 L51.1245465,42.8238082 L38.389294,35.4806491 L34.437799,33.9008832 L34.437799,37.7594173 Z" id="Fill-66" fill="#DCC3DE"></path>
                        <path d="M290.404208,177.411555 L95.9147425,64.7942909 L105.79452,59.0963318 L300.283985,171.713595 L290.404208,177.411555 Z M85.3756894,47.3213114 L101.841985,56.8175636 L91.9622076,62.5155227 L75.4948721,53.0182318 L85.3756894,47.3213114 Z M64.9558189,35.5462909 L81.4231545,45.0425432 L71.5423372,50.7405023 L55.0760415,41.2432114 L64.9558189,35.5462909 Z M34.437799,33.9010909 L295.014978,184.628 L298.966473,182.349232 L294.355703,179.689284 L304.23652,173.992364 L308.846251,176.651273 L312.798786,174.371466 L52.2226462,23.6445568 L48.2701113,25.923325 L61.0053638,33.2675227 L51.1245465,38.9654818 L38.389294,31.6223227 L34.437799,33.9010909 Z" id="Fill-68" fill="#EDE3F0"></path>
                        <polygon id="Fill-70" fill="#C7AAD1" points="295.014562 184.628208 295.014562 188.48778 298.967097 186.207974 298.967097 182.34944"></polygon>
                        <polygon id="Fill-72" fill="#C7AAD1" points="308.846563 176.650753 308.846563 180.510326 312.799098 178.230519 312.799098 174.371985"></polygon>
                        <polygon id="Fill-74" fill="#D57576" points="82.3068336 86.438538 63.9656575 96.6919561 63.9656575 90.8132743 58.6280196 68.3922311 76.9691957 58.1398516 82.3068336 81.3803789"></polygon>
                        <polygon id="Fill-76" fill="#E8BEB9" points="74.368696 61.967642 61.0916728 69.6234307 66.019603 88.762383 79.0221013 81.3797557"></polygon>
                        <polygon id="Fill-78" fill="#E79C95" points="58.6276037 68.3922311 43.7086302 59.9169584 43.7086302 85.2077539 63.9662814 96.6919561 63.9662814 90.8132743"></polygon>
                        <polygon id="Fill-80" fill="#E8BEB9" points="61.7755934 88.7622791 46.9938824 80.5601677 46.9938824 63.881745 56.9859654 69.4862268"></polygon>
                        <polygon id="Fill-82" fill="#E8BEB9" points="76.9694037 58.1397477 58.6271877 68.3921273 43.7092542 59.9168545 61.7759053 49.3892364"></polygon>
                        <polygon id="Fill-84" fill="#D57576" points="48.053195 64.4750141 48.257009 80.004705 61.4269259 87.3613664 61.7752814 88.7624868 46.9935704 80.5593368 46.9935704 63.8819527"></polygon>
                        <polygon id="Fill-86" fill="#E79C95" points="65.6182143 87.2043245 77.3822309 80.6775336 73.1499718 62.6696564 74.368696 61.9675382 79.0221013 81.3806905 66.019603 88.7622791"></polygon>
                    </g>
                </g>
                <g id="Fill-12">
                    <use fill="#936590" fill-rule="evenodd" xlink:href="#path-3"></use>
                    <use fill="black" fill-opacity="1" filter="url(#filter-4)" xlink:href="#path-3"></use>
                </g>
                <g id="Fill-14">
                    <use fill="#936590" fill-rule="evenodd" xlink:href="#path-5"></use>
                    <use fill="black" fill-opacity="1" filter="url(#filter-6)" xlink:href="#path-5"></use>
                </g>
                <g id="Tree-2" transform="translate(0.000000, 263.019802)">
                    <g>
                        <path d="M19.6205818,50.1583288 C26.0620364,53.8705068 36.5376727,53.8516301 43.0198545,50.1154932 C49.5013091,46.3800822 49.5340364,40.3417123 43.0925818,36.6295342 C37.1587636,33.2092192 27.8024,32.9594658 21.2969455,35.8621233 L16.1616727,32.9021096 C15.3645818,32.4425342 14.0678545,32.4454384 13.2656727,32.9071918 C12.4627636,33.3696712 12.4584,34.1167534 13.2562182,34.5770548 L18.3784,37.5283562 C13.2467636,41.2804658 13.6511273,46.7176849 19.6205818,50.1583288" id="Fill-1" fill="#000000" opacity="0.05" filter="url(#filter-7)"></path>
                        <path d="M11.9334545,32.8989151 C11.9334545,33.823874 12.6847273,34.5738603 13.6112727,34.5738603 C14.5378182,34.5738603 15.2890909,33.823874 15.2890909,32.8989151 C15.2890909,31.9746822 14.5378182,31.2239699 13.6112727,31.2239699 C12.6847273,31.2239699 11.9334545,31.9746822 11.9334545,32.8989151" id="Fill-3" fill="#D57576"></path>
                        <polygon id="Fill-5" fill="#D57576" points="11.9330909 32.8984068 15.2887273 32.8984068 15.2887273 19.6897904 11.9330909 19.6897904"></polygon>
                        <path d="M13.5517091,7.26027397e-05 C21.0360727,7.26027397e-05 27.1029818,6.05731918 27.1029818,13.5288671 C27.1029818,20.999689 21.0360727,27.0569356 13.5517091,27.0569356 C-1.10356364,11.8495658 13.5517091,7.26027397e-05 13.5517091,7.26027397e-05" id="Fill-7" fill="#00BA6D"></path>
                        <path d="M13.5517091,7.26027397e-05 C13.5517091,7.26027397e-05 -1.10356364,11.8495658 13.5517091,27.0569356 C6.06734545,27.0569356 -0.000290909091,20.999689 -0.000290909091,13.5288671 C-0.000290909091,6.05731918 6.06734545,7.26027397e-05 13.5517091,7.26027397e-05" id="Fill-8" fill="#00E75D"></path>
                    </g>
                </g>
                <g id="Tree-2" transform="translate(447.163866, 425.198020)">
                    <g>
                        <path d="M19.6205818,50.1583288 C26.0620364,53.8705068 36.5376727,53.8516301 43.0198545,50.1154932 C49.5013091,46.3800822 49.5340364,40.3417123 43.0925818,36.6295342 C37.1587636,33.2092192 27.8024,32.9594658 21.2969455,35.8621233 L16.1616727,32.9021096 C15.3645818,32.4425342 14.0678545,32.4454384 13.2656727,32.9071918 C12.4627636,33.3696712 12.4584,34.1167534 13.2562182,34.5770548 L18.3784,37.5283562 C13.2467636,41.2804658 13.6511273,46.7176849 19.6205818,50.1583288" id="Fill-1" fill="#000000" opacity="0.05" filter="url(#filter-8)"></path>
                        <path d="M11.9334545,32.8989151 C11.9334545,33.823874 12.6847273,34.5738603 13.6112727,34.5738603 C14.5378182,34.5738603 15.2890909,33.823874 15.2890909,32.8989151 C15.2890909,31.9746822 14.5378182,31.2239699 13.6112727,31.2239699 C12.6847273,31.2239699 11.9334545,31.9746822 11.9334545,32.8989151" id="Fill-3" fill="#D57576"></path>
                        <polygon id="Fill-5" fill="#D57576" points="11.9330909 32.8984068 15.2887273 32.8984068 15.2887273 19.6897904 11.9330909 19.6897904"></polygon>
                        <path d="M13.5517091,7.26027397e-05 C21.0360727,7.26027397e-05 27.1029818,6.05731918 27.1029818,13.5288671 C27.1029818,20.999689 21.0360727,27.0569356 13.5517091,27.0569356 C-1.10356364,11.8495658 13.5517091,7.26027397e-05 13.5517091,7.26027397e-05" id="Fill-7" fill="#00BA6D"></path>
                        <path d="M13.5517091,7.26027397e-05 C13.5517091,7.26027397e-05 -1.10356364,11.8495658 13.5517091,27.0569356 C6.06734545,27.0569356 -0.000290909091,20.999689 -0.000290909091,13.5288671 C-0.000290909091,6.05731918 6.06734545,7.26027397e-05 13.5517091,7.26027397e-05" id="Fill-8" fill="#00E75D"></path>
                    </g>
                </g>
                <g id="Tree-1" transform="translate(425.325630, 289.009901)">
                    <g>
                        <path d="M34.6220729,47.3933373 C36.6360313,46.2513672 23.0917604,28.902591 11.9253021,32.7698149 L8.92623958,31.0683224 C8.12707292,30.6148299 6.82623958,30.6169791 6.02196875,31.0740537 C5.21769792,31.5296955 5.21332292,32.267606 6.01321875,32.7218149 L8.97436458,34.4003821 C1.64696875,40.7571582 32.5964479,48.5424716 34.6220729,47.3933373" id="Fill-1" fill="#000000" opacity="0.05" filter="url(#filter-9)"></path>
                        <path d="M4.86726042,31.0955463 C4.86726042,32.0075463 5.62048958,32.7483224 6.54944792,32.7483224 C7.47840625,32.7483224 8.23163542,32.0075463 8.23163542,31.0955463 C8.23163542,30.1828299 7.47840625,29.4427701 6.54944792,29.4427701 C5.62048958,29.4427701 4.86726042,30.1828299 4.86726042,31.0955463" id="Fill-3" fill="#D57576"></path>
                        <polygon id="Fill-5" fill="#D57576" points="4.8671875 31.0949731 8.2315625 31.0949731 8.2315625 18.0611821 4.8671875 18.0611821"></polygon>
                        <path d="M6.45130208,-7.1641791e-05 C8.89692708,-7.1641791e-05 19.6565104,27.8707343 6.45130208,27.8707343 C6.45130208,27.8707343 1.19255208,20.4493612 6.45130208,-7.1641791e-05" id="Fill-7" fill="#00BA6D"></path>
                        <path d="M6.45130208,-7.1641791e-05 C1.19255208,20.4493612 6.45130208,27.8707343 6.45130208,27.8707343 C-6.75390625,27.8707343 4.00567708,-7.1641791e-05 6.45130208,-7.1641791e-05" id="Fill-8" fill="#00E75D"></path>
                    </g>
                </g>
                <g id="Tree-1" transform="translate(453.403361, 317.079208)">
                    <g>
                        <path d="M34.6220729,47.3933373 C36.6360313,46.2513672 23.0917604,28.902591 11.9253021,32.7698149 L8.92623958,31.0683224 C8.12707292,30.6148299 6.82623958,30.6169791 6.02196875,31.0740537 C5.21769792,31.5296955 5.21332292,32.267606 6.01321875,32.7218149 L8.97436458,34.4003821 C1.64696875,40.7571582 32.5964479,48.5424716 34.6220729,47.3933373" id="Fill-1" fill="#000000" opacity="0.05" filter="url(#filter-10)"></path>
                        <path d="M4.86726042,31.0955463 C4.86726042,32.0075463 5.62048958,32.7483224 6.54944792,32.7483224 C7.47840625,32.7483224 8.23163542,32.0075463 8.23163542,31.0955463 C8.23163542,30.1828299 7.47840625,29.4427701 6.54944792,29.4427701 C5.62048958,29.4427701 4.86726042,30.1828299 4.86726042,31.0955463" id="Fill-3" fill="#D57576"></path>
                        <polygon id="Fill-5" fill="#D57576" points="4.8671875 31.0949731 8.2315625 31.0949731 8.2315625 18.0611821 4.8671875 18.0611821"></polygon>
                        <path d="M6.45130208,-7.1641791e-05 C8.89692708,-7.1641791e-05 19.6565104,27.8707343 6.45130208,27.8707343 C6.45130208,27.8707343 1.19255208,20.4493612 6.45130208,-7.1641791e-05" id="Fill-7" fill="#00BA6D"></path>
                        <path d="M6.45130208,-7.1641791e-05 C1.19255208,20.4493612 6.45130208,27.8707343 6.45130208,27.8707343 C-6.75390625,27.8707343 4.00567708,-7.1641791e-05 6.45130208,-7.1641791e-05" id="Fill-8" fill="#00E75D"></path>
                    </g>
                </g>
                <g id="Person" transform="translate(166.386555, 493.811881)">
                    <g>
                        <path d="M16.2976154,30.5667209 C17.7920385,30.9747674 18.9685769,30.1745349 18.9685769,28.6670698 C18.9685769,27.1588837 17.7920385,25.5137209 16.2976154,24.8490233 L16.2976154,24.8237907 L8.06623077,21.8679767 C7.06873077,21.5096744 6.18961538,21.689186 5.66273077,22.2529535 L3.40611538,21.4426279 C2.49046154,21.1138837 1.74726923,21.5796047 1.74726923,22.4836512 C1.74726923,23.3869767 2.49046154,24.386907 3.40611538,24.7156512 L5.66273077,25.5259767 C6.18961538,26.4675116 7.06873077,27.2778372 8.06623077,27.6361395 L16.2976154,30.5919535 L16.2976154,30.5667209 Z" id="Fill-1" fill="#000000" opacity="0.1" filter="url(#filter-11)"></path>
                        <path d="M1.26423077,22.8419535 L1.26423077,9.93513953 L4.58192308,9.93513953 L4.58192308,22.8150766 C4.58206904,22.8240183 4.58214231,22.8329775 4.58214231,22.8419535 C4.58214231,23.7452791 3.83895,24.4784651 2.92329615,24.4784651 C2.00691154,24.4784651 1.26445,23.7452791 1.26445,22.8419535 Z" id="Combined-Shape" fill="#D57576"></path>
                        <path d="M5.84637308,2.8840093 C5.84637308,4.47654419 4.53756538,5.76773023 2.92329615,5.76773023 C1.30902692,5.76773023 0.000219230769,4.47654419 0.000219230769,2.8840093 C0.000219230769,1.29075349 1.30902692,0.000288372093 2.92329615,0.000288372093 C4.53756538,0.000288372093 5.84637308,1.29075349 5.84637308,2.8840093" id="Fill-10" fill="#E98178"></path>
                        <path d="M5.82101538,10.1243116 C5.69093846,8.6500093 4.45082308,7.48931163 2.92351538,7.48931163 C1.39474615,7.48931163 0.155361538,8.6500093 0.0252846154,10.1243116 L0.000438461538,10.1243116 L0.000438461538,18.2448698 C0.000438461538,19.8374047 1.30851538,21.1285907 2.92351538,21.1285907 C4.53778462,21.1285907 5.84659231,19.8374047 5.84659231,18.2448698 L5.84659231,10.1243116 L5.82101538,10.1243116 Z" id="Fill-11" fill="#FBD6D9"></path>
                    </g>
                </g>
                <g id="Person" transform="translate(0.000000, 389.851485)">
                    <g>
                        <path d="M16.2976154,30.5667209 C17.7920385,30.9747674 18.9685769,30.1745349 18.9685769,28.6670698 C18.9685769,27.1588837 17.7920385,25.5137209 16.2976154,24.8490233 L16.2976154,24.8237907 L8.06623077,21.8679767 C7.06873077,21.5096744 6.18961538,21.689186 5.66273077,22.2529535 L3.40611538,21.4426279 C2.49046154,21.1138837 1.74726923,21.5796047 1.74726923,22.4836512 C1.74726923,23.3869767 2.49046154,24.386907 3.40611538,24.7156512 L5.66273077,25.5259767 C6.18961538,26.4675116 7.06873077,27.2778372 8.06623077,27.6361395 L16.2976154,30.5919535 L16.2976154,30.5667209 Z" id="Fill-1" fill="#000000" opacity="0.1" filter="url(#filter-12)"></path>
                        <path d="M1.26423077,22.8419535 L1.26423077,9.93513953 L4.58192308,9.93513953 L4.58192308,22.8150766 C4.58206904,22.8240183 4.58214231,22.8329775 4.58214231,22.8419535 C4.58214231,23.7452791 3.83895,24.4784651 2.92329615,24.4784651 C2.00691154,24.4784651 1.26445,23.7452791 1.26445,22.8419535 Z" id="Combined-Shape" fill="#D57576"></path>
                        <path d="M5.84637308,2.8840093 C5.84637308,4.47654419 4.53756538,5.76773023 2.92329615,5.76773023 C1.30902692,5.76773023 0.000219230769,4.47654419 0.000219230769,2.8840093 C0.000219230769,1.29075349 1.30902692,0.000288372093 2.92329615,0.000288372093 C4.53756538,0.000288372093 5.84637308,1.29075349 5.84637308,2.8840093" id="Fill-10" fill="#E98178"></path>
                        <path d="M5.82101538,10.1243116 C5.69093846,8.6500093 4.45082308,7.48931163 2.92351538,7.48931163 C1.39474615,7.48931163 0.155361538,8.6500093 0.0252846154,10.1243116 L0.000438461538,10.1243116 L0.000438461538,18.2448698 C0.000438461538,19.8374047 1.30851538,21.1285907 2.92351538,21.1285907 C4.53778462,21.1285907 5.84659231,19.8374047 5.84659231,18.2448698 L5.84659231,10.1243116 L5.82101538,10.1243116 Z" id="Fill-11" fill="#FBD6D9"></path>
                    </g>
                </g>
                <g id="Person" transform="translate(172.626050, 281.732673)">
                    <g>
                        <path d="M16.2976154,30.5667209 C17.7920385,30.9747674 18.9685769,30.1745349 18.9685769,28.6670698 C18.9685769,27.1588837 17.7920385,25.5137209 16.2976154,24.8490233 L16.2976154,24.8237907 L8.06623077,21.8679767 C7.06873077,21.5096744 6.18961538,21.689186 5.66273077,22.2529535 L3.40611538,21.4426279 C2.49046154,21.1138837 1.74726923,21.5796047 1.74726923,22.4836512 C1.74726923,23.3869767 2.49046154,24.386907 3.40611538,24.7156512 L5.66273077,25.5259767 C6.18961538,26.4675116 7.06873077,27.2778372 8.06623077,27.6361395 L16.2976154,30.5919535 L16.2976154,30.5667209 Z" id="Fill-1" fill="#000000" opacity="0.1" filter="url(#filter-13)"></path>
                        <path d="M1.26423077,22.8419535 L1.26423077,9.93513953 L4.58192308,9.93513953 L4.58192308,22.8150766 C4.58206904,22.8240183 4.58214231,22.8329775 4.58214231,22.8419535 C4.58214231,23.7452791 3.83895,24.4784651 2.92329615,24.4784651 C2.00691154,24.4784651 1.26445,23.7452791 1.26445,22.8419535 Z" id="Combined-Shape" fill="#D57576"></path>
                        <path d="M5.84637308,2.8840093 C5.84637308,4.47654419 4.53756538,5.76773023 2.92329615,5.76773023 C1.30902692,5.76773023 0.000219230769,4.47654419 0.000219230769,2.8840093 C0.000219230769,1.29075349 1.30902692,0.000288372093 2.92329615,0.000288372093 C4.53756538,0.000288372093 5.84637308,1.29075349 5.84637308,2.8840093" id="Fill-10" fill="#E98178"></path>
                        <path d="M5.82101538,10.1243116 C5.69093846,8.6500093 4.45082308,7.48931163 2.92351538,7.48931163 C1.39474615,7.48931163 0.155361538,8.6500093 0.0252846154,10.1243116 L0.000438461538,10.1243116 L0.000438461538,18.2448698 C0.000438461538,19.8374047 1.30851538,21.1285907 2.92351538,21.1285907 C4.53778462,21.1285907 5.84659231,19.8374047 5.84659231,18.2448698 L5.84659231,10.1243116 L5.82101538,10.1243116 Z" id="Fill-11" fill="#FBD6D9"></path>
                    </g>
                </g>
                <g id="Person" transform="translate(410.766807, 399.207921)">
                    <g>
                        <path d="M16.2976154,30.5667209 C17.7920385,30.9747674 18.9685769,30.1745349 18.9685769,28.6670698 C18.9685769,27.1588837 17.7920385,25.5137209 16.2976154,24.8490233 L16.2976154,24.8237907 L8.06623077,21.8679767 C7.06873077,21.5096744 6.18961538,21.689186 5.66273077,22.2529535 L3.40611538,21.4426279 C2.49046154,21.1138837 1.74726923,21.5796047 1.74726923,22.4836512 C1.74726923,23.3869767 2.49046154,24.386907 3.40611538,24.7156512 L5.66273077,25.5259767 C6.18961538,26.4675116 7.06873077,27.2778372 8.06623077,27.6361395 L16.2976154,30.5919535 L16.2976154,30.5667209 Z" id="Fill-1" fill="#000000" opacity="0.1" filter="url(#filter-14)"></path>
                        <path d="M1.26423077,22.8419535 L1.26423077,9.93513953 L4.58192308,9.93513953 L4.58192308,22.8150766 C4.58206904,22.8240183 4.58214231,22.8329775 4.58214231,22.8419535 C4.58214231,23.7452791 3.83895,24.4784651 2.92329615,24.4784651 C2.00691154,24.4784651 1.26445,23.7452791 1.26445,22.8419535 Z" id="Combined-Shape" fill="#D57576"></path>
                        <path d="M5.84637308,2.8840093 C5.84637308,4.47654419 4.53756538,5.76773023 2.92329615,5.76773023 C1.30902692,5.76773023 0.000219230769,4.47654419 0.000219230769,2.8840093 C0.000219230769,1.29075349 1.30902692,0.000288372093 2.92329615,0.000288372093 C4.53756538,0.000288372093 5.84637308,1.29075349 5.84637308,2.8840093" id="Fill-10" fill="#E98178"></path>
                        <path d="M5.82101538,10.1243116 C5.69093846,8.6500093 4.45082308,7.48931163 2.92351538,7.48931163 C1.39474615,7.48931163 0.155361538,8.6500093 0.0252846154,10.1243116 L0.000438461538,10.1243116 L0.000438461538,18.2448698 C0.000438461538,19.8374047 1.30851538,21.1285907 2.92351538,21.1285907 C4.53778462,21.1285907 5.84659231,19.8374047 5.84659231,18.2448698 L5.84659231,10.1243116 L5.82101538,10.1243116 Z" id="Fill-11" fill="#FBD6D9"></path>
                    </g>
                </g>
                <g id="Person" transform="translate(392.048319, 442.871287)">
                    <g>
                        <path d="M16.2976154,30.5667209 C17.7920385,30.9747674 18.9685769,30.1745349 18.9685769,28.6670698 C18.9685769,27.1588837 17.7920385,25.5137209 16.2976154,24.8490233 L16.2976154,24.8237907 L8.06623077,21.8679767 C7.06873077,21.5096744 6.18961538,21.689186 5.66273077,22.2529535 L3.40611538,21.4426279 C2.49046154,21.1138837 1.74726923,21.5796047 1.74726923,22.4836512 C1.74726923,23.3869767 2.49046154,24.386907 3.40611538,24.7156512 L5.66273077,25.5259767 C6.18961538,26.4675116 7.06873077,27.2778372 8.06623077,27.6361395 L16.2976154,30.5919535 L16.2976154,30.5667209 Z" id="Fill-1" fill="#000000" opacity="0.1" filter="url(#filter-15)"></path>
                        <path d="M1.26423077,22.8419535 L1.26423077,9.93513953 L4.58192308,9.93513953 L4.58192308,22.8150766 C4.58206904,22.8240183 4.58214231,22.8329775 4.58214231,22.8419535 C4.58214231,23.7452791 3.83895,24.4784651 2.92329615,24.4784651 C2.00691154,24.4784651 1.26445,23.7452791 1.26445,22.8419535 Z" id="Combined-Shape" fill="#D57576"></path>
                        <path d="M5.84637308,2.8840093 C5.84637308,4.47654419 4.53756538,5.76773023 2.92329615,5.76773023 C1.30902692,5.76773023 0.000219230769,4.47654419 0.000219230769,2.8840093 C0.000219230769,1.29075349 1.30902692,0.000288372093 2.92329615,0.000288372093 C4.53756538,0.000288372093 5.84637308,1.29075349 5.84637308,2.8840093" id="Fill-10" fill="#E98178"></path>
                        <path d="M5.82101538,10.1243116 C5.69093846,8.6500093 4.45082308,7.48931163 2.92351538,7.48931163 C1.39474615,7.48931163 0.155361538,8.6500093 0.0252846154,10.1243116 L0.000438461538,10.1243116 L0.000438461538,18.2448698 C0.000438461538,19.8374047 1.30851538,21.1285907 2.92351538,21.1285907 C4.53778462,21.1285907 5.84659231,19.8374047 5.84659231,18.2448698 L5.84659231,10.1243116 L5.82101538,10.1243116 Z" id="Fill-11" fill="#FBD6D9"></path>
                    </g>
                </g>
                <g id="Person" transform="translate(425.325630, 493.811881)">
                    <g>
                        <path d="M16.2976154,30.5667209 C17.7920385,30.9747674 18.9685769,30.1745349 18.9685769,28.6670698 C18.9685769,27.1588837 17.7920385,25.5137209 16.2976154,24.8490233 L16.2976154,24.8237907 L8.06623077,21.8679767 C7.06873077,21.5096744 6.18961538,21.689186 5.66273077,22.2529535 L3.40611538,21.4426279 C2.49046154,21.1138837 1.74726923,21.5796047 1.74726923,22.4836512 C1.74726923,23.3869767 2.49046154,24.386907 3.40611538,24.7156512 L5.66273077,25.5259767 C6.18961538,26.4675116 7.06873077,27.2778372 8.06623077,27.6361395 L16.2976154,30.5919535 L16.2976154,30.5667209 Z" id="Fill-1" fill="#000000" opacity="0.1" filter="url(#filter-16)"></path>
                        <path d="M1.26423077,22.8419535 L1.26423077,9.93513953 L4.58192308,9.93513953 L4.58192308,22.8150766 C4.58206904,22.8240183 4.58214231,22.8329775 4.58214231,22.8419535 C4.58214231,23.7452791 3.83895,24.4784651 2.92329615,24.4784651 C2.00691154,24.4784651 1.26445,23.7452791 1.26445,22.8419535 Z" id="Combined-Shape" fill="#D57576"></path>
                        <path d="M5.84637308,2.8840093 C5.84637308,4.47654419 4.53756538,5.76773023 2.92329615,5.76773023 C1.30902692,5.76773023 0.000219230769,4.47654419 0.000219230769,2.8840093 C0.000219230769,1.29075349 1.30902692,0.000288372093 2.92329615,0.000288372093 C4.53756538,0.000288372093 5.84637308,1.29075349 5.84637308,2.8840093" id="Fill-10" fill="#E98178"></path>
                        <path d="M5.82101538,10.1243116 C5.69093846,8.6500093 4.45082308,7.48931163 2.92351538,7.48931163 C1.39474615,7.48931163 0.155361538,8.6500093 0.0252846154,10.1243116 L0.000438461538,10.1243116 L0.000438461538,18.2448698 C0.000438461538,19.8374047 1.30851538,21.1285907 2.92351538,21.1285907 C4.53778462,21.1285907 5.84659231,19.8374047 5.84659231,18.2448698 L5.84659231,10.1243116 L5.82101538,10.1243116 Z" id="Fill-11" fill="#FBD6D9"></path>
                    </g>
                </g>
                <g id="Cone" transform="translate(181.985294, 379.455446)">
                    <g>
                        <polygon id="Fill-1" fill="#000000" opacity="0.09" filter="url(#filter-17)" points="4.21052632 14.7863158 11.6263158 19.0473684 19.0305263 14.7863158 11.6263158 10.5263158"></polygon>
                        <polygon id="Fill-1" fill="#EFDBD8" points="0 12.0049474 7.41578947 16.266 14.82 12.0049474 7.41578947 7.74494737"></polygon>
                        <polygon id="Fill-2" fill="#E8BEB9" points="0 12.7817895 7.40315789 17.0544211 7.40315789 16.2544211 0 11.9817895"></polygon>
                        <polygon id="Fill-3" fill="#E79C95" points="7.40368421 16.2538947 7.40368421 17.0538947 14.7952632 12.7812632 14.7952632 11.9812632"></polygon>
                        <path d="M10.9234737,10.5256842 L10.3992632,9.45305263 C9.35294737,9.96147368 8.33505263,10.1477895 7.41926316,10.1477895 C6.11505263,10.1477895 5.01821053,9.78252632 4.32557895,9.47726316 L3.87821053,10.3951579 C5.18768421,11.0067368 7.794,11.7930526 10.9234737,10.5256842" id="Fill-4" fill="#E98178"></path>
                        <path d="M10.1504211,8.94368421 L7.36831579,0.000526315789 L4.57252632,8.97210526 C5.64515789,9.45526316 7.79463158,10.0963158 10.1504211,8.94368421" id="Fill-6" fill="#E98178"></path>
                        <path d="M7.55484211,11.7829474 C5.86010526,11.7829474 4.48957895,11.3113684 3.62747368,10.9082105 L3.12852632,11.9292632 C4.46221053,14.0250526 7.36852632,13.9303158 7.36852632,13.9303158 C7.36852632,13.9303158 10.2748421,14.0250526 11.6095789,11.9292632 L11.1790526,11.0503158 C9.87168421,11.5861053 8.64642105,11.7829474 7.55484211,11.7829474" id="Fill-8" fill="#E98178"></path>
                        <path d="M10.3992632,9.45357895 L10.1508421,8.94410526 C7.794,10.0956842 5.64452632,9.45568421 4.57294737,8.97252632 L4.32557895,9.47673684 C5.01821053,9.782 6.11505263,10.1472632 7.41926316,10.1472632 C8.33505263,10.1472632 9.35294737,9.96094737 10.3992632,9.45357895" id="Fill-10" fill="#FFFFFF"></path>
                        <path d="M11.1794737,11.05 L10.9236842,10.5257895 C7.79421053,11.7931579 5.18789474,11.0068421 3.87736842,10.3952632 L3.62684211,10.9078947 C4.49,11.3110526 5.85947368,11.7826316 7.55526316,11.7826316 C8.64684211,11.7826316 9.87210526,11.5868421 11.1794737,11.05" id="Fill-12" fill="#FFFFFF"></path>
                    </g>
                </g>
                <g id="Cone" transform="translate(185.105042, 412.722772)">
                    <g>
                        <polygon id="Fill-1" fill="#000000" opacity="0.09" filter="url(#filter-18)" points="4.21052632 14.7863158 11.6263158 19.0473684 19.0305263 14.7863158 11.6263158 10.5263158"></polygon>
                        <polygon id="Fill-1" fill="#EFDBD8" points="0 12.0049474 7.41578947 16.266 14.82 12.0049474 7.41578947 7.74494737"></polygon>
                        <polygon id="Fill-2" fill="#E8BEB9" points="0 12.7817895 7.40315789 17.0544211 7.40315789 16.2544211 0 11.9817895"></polygon>
                        <polygon id="Fill-3" fill="#E79C95" points="7.40368421 16.2538947 7.40368421 17.0538947 14.7952632 12.7812632 14.7952632 11.9812632"></polygon>
                        <path d="M10.9234737,10.5256842 L10.3992632,9.45305263 C9.35294737,9.96147368 8.33505263,10.1477895 7.41926316,10.1477895 C6.11505263,10.1477895 5.01821053,9.78252632 4.32557895,9.47726316 L3.87821053,10.3951579 C5.18768421,11.0067368 7.794,11.7930526 10.9234737,10.5256842" id="Fill-4" fill="#E98178"></path>
                        <path d="M10.1504211,8.94368421 L7.36831579,0.000526315789 L4.57252632,8.97210526 C5.64515789,9.45526316 7.79463158,10.0963158 10.1504211,8.94368421" id="Fill-6" fill="#E98178"></path>
                        <path d="M7.55484211,11.7829474 C5.86010526,11.7829474 4.48957895,11.3113684 3.62747368,10.9082105 L3.12852632,11.9292632 C4.46221053,14.0250526 7.36852632,13.9303158 7.36852632,13.9303158 C7.36852632,13.9303158 10.2748421,14.0250526 11.6095789,11.9292632 L11.1790526,11.0503158 C9.87168421,11.5861053 8.64642105,11.7829474 7.55484211,11.7829474" id="Fill-8" fill="#E98178"></path>
                        <path d="M10.3992632,9.45357895 L10.1508421,8.94410526 C7.794,10.0956842 5.64452632,9.45568421 4.57294737,8.97252632 L4.32557895,9.47673684 C5.01821053,9.782 6.11505263,10.1472632 7.41926316,10.1472632 C8.33505263,10.1472632 9.35294737,9.96094737 10.3992632,9.45357895" id="Fill-10" fill="#FFFFFF"></path>
                        <path d="M11.1794737,11.05 L10.9236842,10.5257895 C7.79421053,11.7931579 5.18789474,11.0068421 3.87736842,10.3952632 L3.62684211,10.9078947 C4.49,11.3110526 5.85947368,11.7826316 7.55526316,11.7826316 C8.64684211,11.7826316 9.87210526,11.5868421 11.1794737,11.05" id="Fill-12" fill="#FFFFFF"></path>
                    </g>
                </g>
                <g id="Cone" transform="translate(204.863445, 436.633663)">
                    <g>
                        <polygon id="Fill-1" fill="#000000" opacity="0.09" filter="url(#filter-19)" points="4.21052632 14.7863158 11.6263158 19.0473684 19.0305263 14.7863158 11.6263158 10.5263158"></polygon>
                        <polygon id="Fill-1" fill="#EFDBD8" points="0 12.0049474 7.41578947 16.266 14.82 12.0049474 7.41578947 7.74494737"></polygon>
                        <polygon id="Fill-2" fill="#E8BEB9" points="0 12.7817895 7.40315789 17.0544211 7.40315789 16.2544211 0 11.9817895"></polygon>
                        <polygon id="Fill-3" fill="#E79C95" points="7.40368421 16.2538947 7.40368421 17.0538947 14.7952632 12.7812632 14.7952632 11.9812632"></polygon>
                        <path d="M10.9234737,10.5256842 L10.3992632,9.45305263 C9.35294737,9.96147368 8.33505263,10.1477895 7.41926316,10.1477895 C6.11505263,10.1477895 5.01821053,9.78252632 4.32557895,9.47726316 L3.87821053,10.3951579 C5.18768421,11.0067368 7.794,11.7930526 10.9234737,10.5256842" id="Fill-4" fill="#E98178"></path>
                        <path d="M10.1504211,8.94368421 L7.36831579,0.000526315789 L4.57252632,8.97210526 C5.64515789,9.45526316 7.79463158,10.0963158 10.1504211,8.94368421" id="Fill-6" fill="#E98178"></path>
                        <path d="M7.55484211,11.7829474 C5.86010526,11.7829474 4.48957895,11.3113684 3.62747368,10.9082105 L3.12852632,11.9292632 C4.46221053,14.0250526 7.36852632,13.9303158 7.36852632,13.9303158 C7.36852632,13.9303158 10.2748421,14.0250526 11.6095789,11.9292632 L11.1790526,11.0503158 C9.87168421,11.5861053 8.64642105,11.7829474 7.55484211,11.7829474" id="Fill-8" fill="#E98178"></path>
                        <path d="M10.3992632,9.45357895 L10.1508421,8.94410526 C7.794,10.0956842 5.64452632,9.45568421 4.57294737,8.97252632 L4.32557895,9.47673684 C5.01821053,9.782 6.11505263,10.1472632 7.41926316,10.1472632 C8.33505263,10.1472632 9.35294737,9.96094737 10.3992632,9.45357895" id="Fill-10" fill="#FFFFFF"></path>
                        <path d="M11.1794737,11.05 L10.9236842,10.5257895 C7.79421053,11.7931579 5.18789474,11.0068421 3.87736842,10.3952632 L3.62684211,10.9078947 C4.49,11.3110526 5.85947368,11.7826316 7.55526316,11.7826316 C8.64684211,11.7826316 9.87210526,11.5868421 11.1794737,11.05" id="Fill-12" fill="#FFFFFF"></path>
                    </g>
                </g>
                <g id="Cone" transform="translate(238.140756, 441.831683)">
                    <g>
                        <polygon id="Fill-1" fill="#000000" opacity="0.09" filter="url(#filter-20)" points="4.21052632 14.7863158 11.6263158 19.0473684 19.0305263 14.7863158 11.6263158 10.5263158"></polygon>
                        <polygon id="Fill-1" fill="#EFDBD8" points="0 12.0049474 7.41578947 16.266 14.82 12.0049474 7.41578947 7.74494737"></polygon>
                        <polygon id="Fill-2" fill="#E8BEB9" points="0 12.7817895 7.40315789 17.0544211 7.40315789 16.2544211 0 11.9817895"></polygon>
                        <polygon id="Fill-3" fill="#E79C95" points="7.40368421 16.2538947 7.40368421 17.0538947 14.7952632 12.7812632 14.7952632 11.9812632"></polygon>
                        <path d="M10.9234737,10.5256842 L10.3992632,9.45305263 C9.35294737,9.96147368 8.33505263,10.1477895 7.41926316,10.1477895 C6.11505263,10.1477895 5.01821053,9.78252632 4.32557895,9.47726316 L3.87821053,10.3951579 C5.18768421,11.0067368 7.794,11.7930526 10.9234737,10.5256842" id="Fill-4" fill="#E98178"></path>
                        <path d="M10.1504211,8.94368421 L7.36831579,0.000526315789 L4.57252632,8.97210526 C5.64515789,9.45526316 7.79463158,10.0963158 10.1504211,8.94368421" id="Fill-6" fill="#E98178"></path>
                        <path d="M7.55484211,11.7829474 C5.86010526,11.7829474 4.48957895,11.3113684 3.62747368,10.9082105 L3.12852632,11.9292632 C4.46221053,14.0250526 7.36852632,13.9303158 7.36852632,13.9303158 C7.36852632,13.9303158 10.2748421,14.0250526 11.6095789,11.9292632 L11.1790526,11.0503158 C9.87168421,11.5861053 8.64642105,11.7829474 7.55484211,11.7829474" id="Fill-8" fill="#E98178"></path>
                        <path d="M10.3992632,9.45357895 L10.1508421,8.94410526 C7.794,10.0956842 5.64452632,9.45568421 4.57294737,8.97252632 L4.32557895,9.47673684 C5.01821053,9.782 6.11505263,10.1472632 7.41926316,10.1472632 C8.33505263,10.1472632 9.35294737,9.96094737 10.3992632,9.45357895" id="Fill-10" fill="#FFFFFF"></path>
                        <path d="M11.1794737,11.05 L10.9236842,10.5257895 C7.79421053,11.7931579 5.18789474,11.0068421 3.87736842,10.3952632 L3.62684211,10.9078947 C4.49,11.3110526 5.85947368,11.7826316 7.55526316,11.7826316 C8.64684211,11.7826316 9.87210526,11.5868421 11.1794737,11.05" id="Fill-12" fill="#FFFFFF"></path>
                    </g>
                </g>
                <g id="Cone" transform="translate(271.418067, 433.514851)">
                    <g>
                        <polygon id="Fill-1" fill="#000000" opacity="0.09" filter="url(#filter-21)" points="4.21052632 14.7863158 11.6263158 19.0473684 19.0305263 14.7863158 11.6263158 10.5263158"></polygon>
                        <polygon id="Fill-1" fill="#EFDBD8" points="0 12.0049474 7.41578947 16.266 14.82 12.0049474 7.41578947 7.74494737"></polygon>
                        <polygon id="Fill-2" fill="#E8BEB9" points="0 12.7817895 7.40315789 17.0544211 7.40315789 16.2544211 0 11.9817895"></polygon>
                        <polygon id="Fill-3" fill="#E79C95" points="7.40368421 16.2538947 7.40368421 17.0538947 14.7952632 12.7812632 14.7952632 11.9812632"></polygon>
                        <path d="M10.9234737,10.5256842 L10.3992632,9.45305263 C9.35294737,9.96147368 8.33505263,10.1477895 7.41926316,10.1477895 C6.11505263,10.1477895 5.01821053,9.78252632 4.32557895,9.47726316 L3.87821053,10.3951579 C5.18768421,11.0067368 7.794,11.7930526 10.9234737,10.5256842" id="Fill-4" fill="#E98178"></path>
                        <path d="M10.1504211,8.94368421 L7.36831579,0.000526315789 L4.57252632,8.97210526 C5.64515789,9.45526316 7.79463158,10.0963158 10.1504211,8.94368421" id="Fill-6" fill="#E98178"></path>
                        <path d="M7.55484211,11.7829474 C5.86010526,11.7829474 4.48957895,11.3113684 3.62747368,10.9082105 L3.12852632,11.9292632 C4.46221053,14.0250526 7.36852632,13.9303158 7.36852632,13.9303158 C7.36852632,13.9303158 10.2748421,14.0250526 11.6095789,11.9292632 L11.1790526,11.0503158 C9.87168421,11.5861053 8.64642105,11.7829474 7.55484211,11.7829474" id="Fill-8" fill="#E98178"></path>
                        <path d="M10.3992632,9.45357895 L10.1508421,8.94410526 C7.794,10.0956842 5.64452632,9.45568421 4.57294737,8.97252632 L4.32557895,9.47673684 C5.01821053,9.782 6.11505263,10.1472632 7.41926316,10.1472632 C8.33505263,10.1472632 9.35294737,9.96094737 10.3992632,9.45357895" id="Fill-10" fill="#FFFFFF"></path>
                        <path d="M11.1794737,11.05 L10.9236842,10.5257895 C7.79421053,11.7931579 5.18789474,11.0068421 3.87736842,10.3952632 L3.62684211,10.9078947 C4.49,11.3110526 5.85947368,11.7826316 7.55526316,11.7826316 C8.64684211,11.7826316 9.87210526,11.5868421 11.1794737,11.05" id="Fill-12" fill="#FFFFFF"></path>
                    </g>
                </g>
            </g>
        </g>
    </g>
</svg>