<?xml version="1.0" encoding="UTF-8"?>
<svg width="200px" height="126px" viewBox="0 0 200 126" version="1.1" xmlns="http://www.w3.org/2000/svg" xmlns:xlink="http://www.w3.org/1999/xlink">
    <!-- Generator: Sketch 51.1 (57501) - http://www.bohemiancoding.com/sketch -->
    <title>Female - Shyft ID</title>
    <desc>Created with Sketch.</desc>
    <defs></defs>
    <g id="Female---Shyft-ID" stroke="none" stroke-width="1" fill="none" fill-rule="evenodd">
        <g id="Illustration" transform="translate(0.000000, 1.000000)">
            <path d="M112.889067,12.6517333 L87.9997333,12.6517333 C85.6277333,12.6517333 83.6277333,11.3357333 82.9410667,9.54106667 C82.7784,9.96373333 82.6664,10.4064 82.6664,10.8744 C82.6664,13.3184 85.0664,15.3184 87.9997333,15.3184 L112.889067,15.3184 C115.8224,15.3184 118.2224,13.3184 118.2224,10.8744 C118.2224,10.4064 118.1104,9.96373333 117.947733,9.54106667 C117.261067,11.3357333 115.261067,12.6517333 112.889067,12.6517333" id="Fill-1" fill="#E98178"></path>
            <path d="M186.6664,118.555333 L13.3330667,118.555333 C6.04506667,118.555333 0.0797333333,112.627333 0.0064,105.355333 L-0.000266666667,105.355333 L-0.000266666667,106.555333 L-0.000266666667,110.555333 C-0.000266666667,117.888667 5.99973333,123.888667 13.3330667,123.888667 L186.6664,123.888667 C193.999733,123.888667 199.999733,117.888667 199.999733,110.555333 L199.999733,106.555333 L199.999733,105.355333 L199.993067,105.355333 C199.921067,112.627333 193.955733,118.555333 186.6664,118.555333" id="Fill-3" fill="#E98178"></path>
            <path d="M117.948267,12.2077333 C117.2616,14.0024 115.2616,15.3184 112.8896,15.3184 L88.0002667,15.3184 C85.6269333,15.3184 83.6269333,14.0024 82.9402667,12.2077333 C82.7789333,11.7850667 82.6669333,11.3424 82.6669333,10.8744 C82.6669333,8.4304 85.0669333,6.4304 88.0002667,6.4304 L112.8896,6.4304 C115.8216,6.4304 118.222933,8.4304 118.222933,10.8744 C118.222933,11.3424 118.110933,11.7850667 117.948267,12.2077333 M186.666933,0.3344 L13.3336,0.3344 C6.00026667,0.3344 0.000266666667,6.3344 0.000266666667,13.6677333 L0.000266666667,17.6677333 L0.000266666667,107.889067 C0.000266666667,107.933067 0.0056,107.977067 0.00693333333,108.021067 C0.0789333333,115.293067 6.04426667,121.2224 13.3336,121.2224 L186.666933,121.2224 C193.954933,121.2224 199.920267,115.293067 199.9936,108.021067 C199.9936,107.977067 200.000267,107.933067 200.000267,107.889067 L200.000267,17.6677333 L200.000267,13.6677333 C200.000267,6.3344 194.000267,0.3344 186.666933,0.3344" id="Fill-6" fill="#FFFFFF"></path>
            <path d="M117.948267,12.2077333 C117.2616,14.0024 115.2616,15.3184 112.8896,15.3184 L88.0002667,15.3184 C85.6269333,15.3184 83.6269333,14.0024 82.9402667,12.2077333 C82.7789333,11.7850667 82.6669333,11.3424 82.6669333,10.8744 C82.6669333,8.4304 85.0669333,6.4304 88.0002667,6.4304 L112.8896,6.4304 C115.8216,6.4304 118.222933,8.4304 118.222933,10.8744 C118.222933,11.3424 118.110933,11.7850667 117.948267,12.2077333 M186.666933,0.3344 L13.3336,0.3344 C6.00026667,0.3344 0.000266666667,6.3344 0.000266666667,13.6677333 L0.000266666667,17.6677333 L0.000266666667,107.889067 C0.000266666667,107.933067 0.0056,107.977067 0.00693333333,108.021067 C0.0789333333,115.293067 6.04426667,121.2224 13.3336,121.2224 L186.666933,121.2224 C193.954933,121.2224 199.920267,115.293067 199.9936,108.021067 C199.9936,107.977067 200.000267,107.933067 200.000267,107.889067 L200.000267,17.6677333 L200.000267,13.6677333 C200.000267,6.3344 194.000267,0.3344 186.666933,0.3344" id="Fill-9" fill="#FFFFFF"></path>
            <path d="M183.999733,118.555333 C191.333067,118.555333 197.333067,112.555333 197.333067,105.222 L197.333067,101.222 L197.333067,16.334 C197.333067,9.00066667 191.333067,3.00066667 183.999733,3.00066667 L138.6664,3.00066667 L138.6664,118.555333 L183.999733,118.555333 Z" id="Fill-12" fill="#E98178"></path>
            <path d="M174.151467,46.8118667 L170.6648,43.3265333 L170.6648,42.9132 C170.6648,40.2572 168.503467,38.0958667 165.846133,38.0958667 C163.190133,38.0958667 161.0288,40.2572 161.0288,42.9132 L161.0288,47.1545333 C161.0288,47.4198667 161.134133,47.6732 161.3208,47.8612 L164.790133,51.3372 L164.790133,53.2332 C164.790133,53.7852 165.2368,54.2332 165.790133,54.2332 C166.342133,54.2332 166.790133,53.7852 166.790133,53.2332 L166.790133,50.9225333 C166.790133,50.6572 166.6848,50.4025333 166.4968,50.2158667 L163.0288,46.7412 L163.0288,42.9132 C163.0288,41.3598667 164.2928,40.0958667 165.846133,40.0958667 C167.4008,40.0958667 168.6648,41.3598667 168.6648,42.9132 L168.6648,43.6652 C168.658133,43.7612 168.663467,43.8572 168.6848,43.9518667 C168.6848,43.9572 168.687467,43.9612 168.6888,43.9665333 C168.7008,44.0185333 168.715467,44.0692 168.735467,44.1185333 C168.798133,44.2772 168.9008,44.4118667 169.0288,44.5185333 L172.443467,47.9332 L172.443467,53.2132 C172.443467,56.8492 169.4848,59.8092 165.846133,59.8092 C162.387467,59.8092 159.495467,57.1065333 159.2648,53.6558667 C159.227467,53.1038667 158.750133,52.6865333 158.199467,52.7238667 C157.6488,52.7612 157.231467,53.2372 157.2688,53.7878667 C157.570133,58.2865333 161.338133,61.8092 165.846133,61.8092 C170.587467,61.8092 174.4448,57.9518667 174.4448,53.2132 L174.4448,47.5185333 C174.4448,47.2545333 174.339467,46.9998667 174.151467,46.8118667" id="Fill-14" fill="#FFFFFF"></path>
            <path d="M161.029067,52.4329333 L161.029067,53.2249333 C161.029067,55.8809333 163.1904,58.0422667 165.8464,58.0422667 C168.5024,58.0422667 170.665067,55.8809333 170.665067,53.2249333 L170.665067,49.0462667 C170.665067,48.7809333 170.5584,48.5249333 170.3704,48.3382667 L166.8224,44.8049333 L166.8224,42.9022667 C166.8224,42.3502667 166.3744,41.9022667 165.8224,41.9022667 C165.2704,41.9022667 164.8224,42.3502667 164.8224,42.9022667 L164.8224,45.2209333 C164.8224,45.4862667 164.927733,45.7409333 165.115733,45.9289333 L168.665067,49.4622667 L168.665067,53.2249333 C168.665067,54.7782667 167.399733,56.0422667 165.8464,56.0422667 C164.293067,56.0422667 163.029067,54.7782667 163.029067,53.2249333 L163.029067,52.2876 C163.109067,51.9596 163.023733,51.5996 162.767733,51.3436 L162.751733,51.3262667 C162.741067,51.3156 162.729067,51.3036 162.7184,51.2942667 L159.2504,47.8249333 L159.2504,42.6702667 C159.2504,39.0329333 162.209067,36.0729333 165.8464,36.0729333 C169.193067,36.0729333 172.075733,38.6809333 172.4104,42.0089333 L172.419733,42.1116 C172.465067,42.6622667 172.951733,43.0716 173.499733,43.0262667 C174.0504,42.9809333 174.459733,42.4982667 174.4144,41.9476 L174.401067,41.8089333 C173.957067,37.3996 170.279733,34.0729333 165.8464,34.0729333 C161.1064,34.0729333 157.249067,37.9302667 157.249067,42.6702667 L157.249067,48.2382667 C157.249067,48.5049333 157.3544,48.7582667 157.5424,48.9476 L161.029067,52.4329333 Z" id="Fill-16" fill="#FFFFFF"></path>
            <polygon id="Fill-18" fill="#ECAAAA" points="87.3333333 100.572 175.777333 100.572 175.777333 98.128 87.3333333 98.128"></polygon>
            <polygon id="Fill-20" fill="#ECAAAA" points="87.3333333 91.2386667 175.777333 91.2386667 175.777333 88.7946667 87.3333333 88.7946667"></polygon>
            <polygon id="Fill-21" fill="#ECAAAA" points="87.3333333 81.9053333 175.777333 81.9053333 175.777333 79.4613333 87.3333333 79.4613333"></polygon>
            <polygon id="Fill-22" fill="#E98178" points="87.1106667 54.7093333 96 54.7093333 96 45.82 87.1106667 45.82"></polygon>
            <polygon id="Fill-23" fill="#ECAAAA" points="100.444 54.7093333 109.333333 54.7093333 109.333333 45.82 100.444 45.82"></polygon>
            <path d="M183.999733,3.00066667 L15.9997333,3.00066667 C8.6664,3.00066667 2.6664,9.00066667 2.6664,16.334 L2.6664,20.334 L2.6664,105.222 C2.6664,112.555333 8.6664,118.555333 15.9997333,118.555333 L183.999733,118.555333 C191.333067,118.555333 197.333067,112.555333 197.333067,105.222 L197.333067,20.334 L197.333067,16.334 C197.333067,9.00066667 191.333067,3.00066667 183.999733,3.00066667 Z" id="Stroke-24" stroke="#ECAAAA"></path>
            <path d="M24.3578667,56.9264 C24.3578667,56.9264 27.1138667,71.6277333 25.4298667,76.3757333 C25.4298667,76.3757333 26.7698667,74.5757333 27.2298667,72.9677333 C27.2298667,72.9677333 29.4365333,83.7797333 26.5405333,89.6224 C26.5405333,89.6224 29.0672,86.5277333 29.4125333,84.6290667 C29.4125333,84.6290667 29.9125333,89.8584 28.5138667,94.5077333 L41.7018667,83.5357333 L42.7352,73.8877333 L24.3578667,56.9264 Z" id="Fill-25" fill="#D57576"></path>
            <path d="M32.8129333,97.8482667 C33.3249333,98.5416 34.0702667,98.8802667 35.0916,98.8882667 L35.2942667,98.8882667 C40.9716,98.8882667 45.8169333,97.1322667 59.2436,84.0576 C56.3116,83.3456 54.2289333,83.2669333 54.2289333,83.2669333 C51.1662667,79.8976 53.9236,71.7816 53.9236,71.7816 C65.3196,65.4922667 71.3809333,32.1162667 46.8782667,27.5229333 C25.2849333,29.2069333 23.7529333,40.6936 23.7529333,40.6936 C23.0396,42.0482667 22.8609333,45.1682667 22.9009333,48.5296 C25.8289333,48.6109333 29.5876,49.2949333 29.1129333,52.3309333 C28.3476,57.2322667 29.1129333,57.3856 27.7342667,60.6016 C26.3569333,63.8189333 25.5902667,66.4056 28.3476,65.9536 C31.1036,65.5016 32.6356,66.8802667 32.6356,69.7909333 C32.6356,72.7002667 32.4182667,76.6229333 34.1262667,78.7962667 C36.4062667,79.4802667 38.4542667,79.2856 38.4542667,79.2856 C38.4542667,79.2856 47.6436,79.1322667 50.0942667,75.1509333 C50.0942667,75.1509333 45.9582667,87.0962667 36.3116,85.7949333 L36.3102667,85.7949333 C35.2076,86.2016 34.0449333,86.8256 32.8782667,87.5749333 C32.2489333,89.7122667 31.0716,95.4882667 32.8129333,97.8482667" id="Fill-26" fill="#FBD6D9"></path>
            <path d="M61.3025333,84.6296 C47.6238667,98.1096 42.1358667,100.726933 35.2745333,100.726933 C35.2092,100.726933 35.1438667,100.7256 35.0798667,100.7256 C33.4612,100.7136 32.1998667,100.112267 31.3332,98.9362667 C29.5012,96.4536 30.0478667,91.9016 30.6025333,89.1776 C25.7825333,92.8602667 21.4558667,97.8162667 21.4558667,97.8162667 C51.0132,115.1216 73.5252,92.7629333 73.5252,92.7629333 C70.0825333,88.2482667 65.2638667,85.8762667 61.3025333,84.6296" id="Fill-27" fill="#E98178"></path>
            <path d="M31.3337333,98.9368 C32.2004,100.1128 33.4604,100.714133 35.0790667,100.726133 C35.1444,100.726133 35.2084,100.727467 35.2737333,100.727467 C42.1364,100.727467 47.6244,98.1101333 61.3030667,84.6301333 C60.5830667,84.4048 59.8924,84.2154667 59.2430667,84.0581333 C45.8177333,97.1314667 40.9710667,98.8888 35.2937333,98.8888 L35.0910667,98.8888 C34.0697333,98.8808 33.3244,98.5408 32.8124,97.8488 C31.0710667,95.4888 32.2484,89.7128 32.8777333,87.5754667 C32.1177333,88.0634667 31.3537333,88.6034667 30.6030667,89.1781333 C30.0484,91.9021333 29.5017333,96.4541333 31.3337333,98.9368" id="Fill-28" fill="#ECAAAA"></path>
            <path d="M50.0934667,75.1504 C47.6441333,79.1317333 38.4548,79.2864 38.4548,79.2864 L36.3108,85.7944 C45.9588,87.0957333 50.0934667,75.1504 50.0934667,75.1504" id="Fill-29" fill="#F8B6C1"></path>
            <path d="M32.6352,69.7910667 C32.6352,66.8804 31.1045333,65.5017333 28.3472,65.9537333 C25.5898667,66.4057333 26.3565333,63.8190667 27.7352,60.6017333 C29.1125333,57.3857333 28.3472,57.2324 29.1125333,52.3310667 C29.5872,49.2950667 25.8298667,48.6110667 22.9005333,48.5297333 C22.9472,52.3830667 23.2832,56.5550667 23.4458667,58.7630667 C23.7525333,62.8990667 26.5098667,70.4030667 29.2658667,75.1510667 C30.4672,77.2190667 32.3645333,78.2684 34.1258667,78.7964 C32.4178667,76.6230667 32.6352,72.7004 32.6352,69.7910667" id="Fill-30" fill="#F8B6C1"></path>
            <path d="M23.4001333,40.9993333 C23.4001333,40.9993333 29.9854667,39.774 31.9761333,37.4766667 C31.9761333,37.4766667 33.3548,46.0526667 43.3094667,54.0166667 C53.2628,61.9793333 49.7414667,82.502 49.7414667,82.502 C49.7414667,82.502 53.4161333,70.25 51.1201333,61.3673333 C51.1201333,61.3673333 52.8041333,65.5793333 53.0334667,67.8766667 C53.0334667,67.8766667 52.8041333,57.9206667 50.5828,54.0926667 C50.5828,54.0926667 54.3348,49.8046667 57.8574667,54.4753333 C61.3801333,59.146 58.7001333,64.8126667 56.6321333,65.5793333 C56.6321333,65.5793333 56.3734667,68.8993333 53.2908,72.7393333 C53.2908,72.7393333 51.8094667,80.7406667 53.7228,83.7273333 C53.7228,83.7273333 57.4748,83.4966667 57.7814667,85.1046667 C58.0868,86.7126667 58.5468,89.6233333 55.7894667,96.0553333 C55.7894667,96.0553333 57.9334667,94.294 58.1641333,92.8393333 C58.1641333,92.8393333 57.3988,99.2713333 55.6374667,102.256667 C55.6374667,102.256667 65.1321333,96.3606667 64.9788,91.154 C64.9788,91.154 65.5921333,91.3846667 65.5921333,93.1446667 C65.5921333,93.1446667 68.7308,86.866 66.5108,83.114 C66.5108,83.114 68.8081333,86.4833333 68.7308,87.8606667 C68.7308,87.8606667 68.1948,81.2766667 66.2814667,78.4433333 C64.3668,75.61 65.9748,57.6153333 66.5108,54.5526667 C67.0468,51.49 68.9748,37.022 55.0241333,28.9006667 C38.7148,19.406 21.0254667,34.414 23.4001333,40.9993333" id="Fill-31" fill="#D57576"></path>
        </g>
    </g>
</svg>