<?xml version="1.0" encoding="UTF-8"?>
<svg width="200px" height="126px" viewBox="0 0 200 126" version="1.1" xmlns="http://www.w3.org/2000/svg" xmlns:xlink="http://www.w3.org/1999/xlink">
    <!-- Generator: Sketch 51.1 (57501) - http://www.bohemiancoding.com/sketch -->
    <title>Male - Shyft ID</title>
    <desc>Created with Sketch.</desc>
    <defs></defs>
    <g id="Male---Shyft-ID" stroke="none" stroke-width="1" fill="none" fill-rule="evenodd">
        <g id="Illustration">
            <path d="M112.889333,13.6524 L88,13.6524 C85.628,13.6524 83.628,12.3350667 82.9413333,10.5404 C82.7786667,10.9644 82.6666667,11.4070667 82.6666667,11.8737333 C82.6666667,14.3190667 85.0666667,16.3190667 88,16.3190667 L112.889333,16.3190667 C115.822667,16.3190667 118.222667,14.3190667 118.222667,11.8737333 C118.222667,11.4070667 118.110667,10.9644 117.948,10.5404 C117.261333,12.3350667 115.261333,13.6524 112.889333,13.6524" id="Fill-1" fill="#C7AAD1"></path>
            <path d="M0,66.3542667 L0,107.5556 L0,111.5556 C0,118.888933 6,124.888933 13.3333333,124.888933 L186.666667,124.888933 C194,124.888933 200,118.888933 200,111.5556 L200,107.5556 L200,66.3542667 L0,66.3542667 Z" id="Fill-3" fill="#C7AAD1"></path>
            <path d="M117.948533,13.2070667 C117.261867,15.0017333 115.261867,16.3190667 112.889867,16.3190667 L88.0005333,16.3190667 C85.6272,16.3190667 83.6272,15.0017333 82.9405333,13.2070667 C82.7792,12.7844 82.6672,12.3417333 82.6672,11.8737333 C82.6672,9.42973333 85.0672,7.42973333 88.0005333,7.42973333 L112.889867,7.42973333 C115.821867,7.42973333 118.2232,9.42973333 118.2232,11.8737333 C118.2232,12.3417333 118.1112,12.7844 117.948533,13.2070667 M186.6672,1.33373333 L13.3338667,1.33373333 C6.00053333,1.33373333 0.000533333333,7.33373333 0.000533333333,14.6670667 L0.000533333333,18.6670667 L0.000533333333,108.889733 C0.000533333333,116.223067 6.00053333,122.223067 13.3338667,122.223067 L186.6672,122.223067 C194.000533,122.223067 200.000533,116.223067 200.000533,108.889733 L200.000533,18.6670667 L200.000533,14.6670667 C200.000533,7.33373333 194.000533,1.33373333 186.6672,1.33373333" id="Fill-5" fill="#FFFFFF"></path>
            <path d="M16.0006667,4.66666667 C9.01666667,4.66666667 3.334,10.3493333 3.334,17.3333333 L3.334,106.222667 C3.334,113.206667 9.01666667,118.889333 16.0006667,118.889333 L184.000667,118.889333 C190.984667,118.889333 196.667333,113.206667 196.667333,106.222667 L196.667333,17.3333333 C196.667333,10.3493333 190.984667,4.66666667 184.000667,4.66666667 L16.0006667,4.66666667 Z M184.000667,120.222667 L16.0006667,120.222667 C8.28066667,120.222667 2.00066667,113.942667 2.00066667,106.222667 L2.00066667,17.3333333 C2.00066667,9.61333333 8.28066667,3.33333333 16.0006667,3.33333333 L184.000667,3.33333333 C191.720667,3.33333333 198.000667,9.61333333 198.000667,17.3333333 L198.000667,106.222667 C198.000667,113.942667 191.720667,120.222667 184.000667,120.222667 Z" id="Fill-8" fill="#C6AAD0"></path>
            <path d="M184,119.556 C191.333333,119.556 197.333333,113.556 197.333333,106.222667 L197.333333,102.222667 L197.333333,17.3333333 C197.333333,10 191.333333,4 184,4 L138.666667,4 L138.666667,119.556 L184,119.556 Z" id="Fill-10" fill="#936590"></path>
            <path d="M174.151067,47.8112 L170.6644,44.3258667 L170.6644,43.9125333 C170.6644,41.2565333 168.503067,39.0952 165.847067,39.0952 C163.189733,39.0952 161.0284,41.2565333 161.0284,43.9125333 L161.0284,48.1552 C161.0284,48.4192 161.133733,48.6725333 161.3204,48.8605333 L164.789733,52.3365333 L164.789733,54.2325333 C164.789733,54.7845333 165.2364,55.2325333 165.789733,55.2325333 C166.341733,55.2325333 166.789733,54.7845333 166.789733,54.2325333 L166.789733,51.9218667 C166.789733,51.6565333 166.6844,51.4018667 166.497733,51.2152 L163.029733,47.7405333 L163.029733,43.9125333 C163.029733,42.3592 164.2924,41.0952 165.847067,41.0952 C167.4004,41.0952 168.6644,42.3592 168.6644,43.9125333 L168.6644,44.6645333 C168.657733,44.7605333 168.663067,44.8578667 168.6844,44.9525333 C168.685733,44.9565333 168.687067,44.9618667 168.6884,44.9658667 C168.701733,45.0178667 168.715067,45.0685333 168.735067,45.1178667 C168.797733,45.2765333 168.9004,45.4112 169.029733,45.5178667 L172.4444,48.9338667 L172.4444,54.2125333 C172.4444,57.8485333 169.4844,60.8085333 165.847067,60.8085333 C162.387067,60.8085333 159.4964,58.1058667 159.2644,54.6552 C159.227067,54.1032 158.749733,53.6858667 158.2004,53.7245333 C157.6484,53.7605333 157.2324,54.2365333 157.2684,54.7885333 C157.569733,59.2858667 161.337733,62.8098667 165.847067,62.8098667 C170.587067,62.8098667 174.4444,58.9525333 174.4444,54.2125333 L174.4444,48.5192 C174.4444,48.2538667 174.339067,47.9992 174.151067,47.8112" id="Fill-12" fill="#FFFFFF"></path>
            <path d="M161.028667,53.4336 L161.028667,54.2242667 C161.028667,56.8816 163.19,59.0416 165.847333,59.0416 C168.503333,59.0416 170.664667,56.8816 170.664667,54.2242667 L170.664667,50.0469333 C170.664667,49.7802667 170.558,49.5256 170.37,49.3376 L166.822,45.8042667 L166.822,43.9016 C166.822,43.3496 166.374,42.9016 165.822,42.9016 C165.27,42.9016 164.822,43.3496 164.822,43.9016 L164.822,46.2202667 C164.822,46.4856 164.927333,46.7402667 165.116667,46.9282667 L168.664667,50.4616 L168.664667,54.2242667 C168.664667,55.7789333 167.400667,57.0416 165.847333,57.0416 C164.292667,57.0416 163.028667,55.7789333 163.028667,54.2242667 L163.028667,53.2869333 C163.108667,52.9589333 163.024667,52.5989333 162.768667,52.3429333 L162.751333,52.3269333 C162.740667,52.3149333 162.728667,52.3029333 162.718,52.2936 L159.25,48.8242667 L159.25,43.6709333 C159.25,40.0322667 162.208667,37.0722667 165.847333,37.0722667 C169.192667,37.0722667 172.075333,39.6802667 172.411333,43.0082667 L172.420667,43.1122667 C172.466,43.6629333 172.951333,44.0722667 173.499333,44.0256 C174.05,43.9802667 174.459333,43.4976 174.414,42.9482667 L174.400667,42.8082667 C173.956667,38.3989333 170.279333,35.0722667 165.847333,35.0722667 C161.106,35.0722667 157.25,38.9296 157.25,43.6709333 L157.25,49.2389333 C157.25,49.5042667 157.355333,49.7589333 157.542,49.9469333 L161.028667,53.4336 Z" id="Fill-14" fill="#FFFFFF"></path>
            <polygon id="Fill-16" fill="#C7AAD1" points="87.3333333 101.5716 175.777333 101.5716 175.777333 99.1276 87.3333333 99.1276"></polygon>
            <polygon id="Fill-18" fill="#C7AAD1" points="87.3333333 92.2382667 175.777333 92.2382667 175.777333 89.7942667 87.3333333 89.7942667"></polygon>
            <polygon id="Fill-19" fill="#C7AAD1" points="87.3333333 82.9049333 175.777333 82.9049333 175.777333 80.4609333 87.3333333 80.4609333"></polygon>
            <polygon id="Fill-20" fill="#936590" points="87.1106667 55.7089333 96 55.7089333 96 46.8209333 87.1106667 46.8209333"></polygon>
            <polygon id="Fill-21" fill="#C6AAD0" points="100.444 55.7089333 109.333333 55.7089333 109.333333 46.8209333 100.444 46.8209333"></polygon>
            <path d="M35.5318667,76.2396 C35.9505333,72.5449333 32.6732,72.6836 30.9998667,72.4049333 C29.3265333,72.1262667 29.8145333,71.0809333 31.2092,67.5249333 C32.6038667,63.9689333 32.6732,62.0156 32.6732,59.5756 C32.6732,57.8329333 27.8718667,57.1569333 25.1278667,56.9129333 C24.9305333,60.3809333 25.2358667,63.9102667 25.4918667,64.8049333 C25.9105333,66.2689333 26.3972,66.3382667 26.6078667,71.4982667 C26.8025333,76.3142667 34.0385333,84.0409333 36.2505333,85.7862667 C34.9398667,82.8382667 35.1852,79.3009333 35.5318667,76.2396" id="Fill-23" fill="#F8B6C1"></path>
            <path d="M60.1445333,90.1849333 C59.8538667,90.1169333 59.6085333,90.0476 59.3952,89.9796 C58.2618667,94.0649333 54.4885333,97.1662667 53.1725333,97.6462667 C51.6378667,98.2036 50.0338667,98.9702667 45.5032,97.6462667 C43.7205333,97.1236 42.5698667,96.0969333 41.8218667,95.0409333 C40.6685333,93.4129333 40.4818667,91.7182667 40.4818667,91.7182667 C34.2765333,93.6022667 26.6072,100.364933 26.6072,100.364933 C58.0525333,115.912933 73.5312,95.4142667 73.5312,95.4142667 C68.9992,92.2076 62.2365333,90.6729333 60.1445333,90.1849333" id="Fill-25" fill="#C7AAD1"></path>
            <path d="M52.9629333,83.7005333 C49.4762667,86.5592 42.1562667,87.2565333 42.1562667,87.2565333 C42.7829333,89.2792 40.4829333,91.7192 40.4829333,91.7192 C40.4829333,91.7192 40.6682667,93.4125333 41.8229333,95.0405333 C50.5096,91.7458667 52.9629333,83.7005333 52.9629333,83.7005333" id="Fill-27" fill="#F8B6C1"></path>
            <path d="M41.8222667,95.0404 C42.5702667,96.0964 43.7196,97.1230667 45.5022667,97.6457333 C50.0342667,98.9697333 51.6382667,98.2030667 53.1716,97.6457333 C54.4889333,97.1670667 58.2622667,94.0657333 59.3956,89.9790667 C58.0742667,89.5524 58.1222667,89.1390667 58.1222667,89.1390667 C57.2156,83.9097333 60.1449333,75.6817333 60.1449333,75.6817333 C65.6529333,66.6190667 66.6982667,41.7964 49.4062667,39.9137333 C32.1156,38.0310667 28.0022667,47.3044 26.2582667,51.0684 C25.5809333,52.5324 25.2542667,54.7110667 25.1276,56.9124 C27.8729333,57.1577333 32.6729333,57.8337333 32.6729333,59.5750667 C32.6729333,62.0150667 32.6036,63.9684 31.2089333,67.5244 C29.8142667,71.0804 29.3262667,72.1257333 30.9996,72.4044 C32.6729333,72.6830667 35.9502667,72.5444 35.5316,76.2390667 C35.1849333,79.3004 34.9396,82.8390667 36.2502667,85.7870667 C36.4089333,85.9110667 36.5449333,86.0110667 36.6476,86.0697333 C38.1809333,86.9777333 42.1556,87.2564 42.1556,87.2564 C42.1556,87.2564 49.4769333,86.5590667 52.9622667,83.7004 C52.9622667,83.7004 50.5089333,91.7457333 41.8222667,95.0404" id="Fill-29" fill="#FBD6D9"></path>
            <path d="M61.6086667,75.6824 L59.8646667,75.6824 C59.8646667,75.6824 57.4606667,72.7544 58.61,71.9170667 C59.7606667,71.0810667 64.258,66.3744 59.8646667,60.8304 C55.4726667,55.2877333 51.498,63.4450667 53.59,65.4330667 L54.6366667,69.9304 C54.6366667,69.9304 52.9273333,70.5570667 52.6833333,69.7210667 C52.4406667,68.8837333 49.0926667,64.7010667 50.2433333,60.3090667 C50.2433333,60.3090667 44.282,57.6944 44.282,55.0784 C44.282,52.4637333 43.8633333,50.1624 38.8433333,51.1037333 C33.8233333,52.0450667 29.1166667,52.6037333 25.9793333,51.0690667 C22.842,49.5357333 20.2273333,36.7757333 21.0633333,35.6264 C21.9006667,34.4757333 24.306,33.7437333 28.0713333,34.9984 C31.8366667,36.2544 32.3593333,37.8210667 34.8686667,36.8797333 C37.3793333,35.9397333 37.2406667,34.3717333 41.1446667,35.1024 C42.4806667,35.3530667 48.326,34.3717333 49.7553333,33.5344 C51.1846667,32.6984 58.1566667,32.1744 60.6673333,35.7304 C63.1766667,39.2864 72.486,47.1304 61.6086667,75.6824" id="Fill-31" fill="#936590"></path>
        </g>
    </g>
</svg>