<?xml version="1.0" encoding="UTF-8"?>
<svg width="200px" height="126px" viewBox="0 0 200 126" version="1.1" xmlns="http://www.w3.org/2000/svg" xmlns:xlink="http://www.w3.org/1999/xlink">
    <!-- Generator: Sketch 51.1 (57501) - http://www.bohemiancoding.com/sketch -->
    <title>GenderNeutral - Shyft ID</title>
    <desc>Created with Sketch.</desc>
    <defs>
        <path d="M46,115.556 C53.3333333,115.556 59.3333333,109.556 59.3333333,102.222667 L59.3333333,98.2226667 L59.3333333,13.3333333 C59.3333333,6 53.3333333,0 46,0 L0.666666667,0 L0.666666667,115.556 L46,115.556 Z" id="path-1"></path>
    </defs>
    <g id="GenderNeutral---Shyft-ID" stroke="none" stroke-width="1" fill="none" fill-rule="evenodd">
        <g id="Illustration" transform="translate(0.000000, 1.000000)">
            <path d="M112.889333,12.6524 L88,12.6524 C85.628,12.6524 83.628,11.3350667 82.9413333,9.5404 C82.7786667,9.9644 82.6666667,10.4070667 82.6666667,10.8737333 C82.6666667,13.3190667 85.0666667,15.3190667 88,15.3190667 L112.889333,15.3190667 C115.822667,15.3190667 118.222667,13.3190667 118.222667,10.8737333 C118.222667,10.4070667 118.110667,9.9644 117.948,9.5404 C117.261333,11.3350667 115.261333,12.6524 112.889333,12.6524" id="Fill-1" fill="#C7AAD1"></path>
            <path d="M0,65.3542667 L0,106.5556 L0,110.5556 C0,117.888933 6,123.888933 13.3333333,123.888933 L186.666667,123.888933 C194,123.888933 200,117.888933 200,110.5556 L200,106.5556 L200,65.3542667 L0,65.3542667 Z" id="Fill-3" fill="#C7AAD1"></path>
            <path d="M117.948533,12.2070667 C117.261867,14.0017333 115.261867,15.3190667 112.889867,15.3190667 L88.0005333,15.3190667 C85.6272,15.3190667 83.6272,14.0017333 82.9405333,12.2070667 C82.7792,11.7844 82.6672,11.3417333 82.6672,10.8737333 C82.6672,8.42973333 85.0672,6.42973333 88.0005333,6.42973333 L112.889867,6.42973333 C115.821867,6.42973333 118.2232,8.42973333 118.2232,10.8737333 C118.2232,11.3417333 118.1112,11.7844 117.948533,12.2070667 M186.6672,0.333733333 L13.3338667,0.333733333 C6.00053333,0.333733333 0.000533333333,6.33373333 0.000533333333,13.6670667 L0.000533333333,17.6670667 L0.000533333333,107.889733 C0.000533333333,115.223067 6.00053333,121.223067 13.3338667,121.223067 L186.6672,121.223067 C194.000533,121.223067 200.000533,115.223067 200.000533,107.889733 L200.000533,17.6670667 L200.000533,13.6670667 C200.000533,6.33373333 194.000533,0.333733333 186.6672,0.333733333" id="Fill-5" fill="#FFFFFF"></path>
            <path d="M16.0006667,3.66666667 C9.01666667,3.66666667 3.334,9.34933333 3.334,16.3333333 L3.334,105.222667 C3.334,112.206667 9.01666667,117.889333 16.0006667,117.889333 L184.000667,117.889333 C190.984667,117.889333 196.667333,112.206667 196.667333,105.222667 L196.667333,16.3333333 C196.667333,9.34933333 190.984667,3.66666667 184.000667,3.66666667 L16.0006667,3.66666667 Z M184.000667,119.222667 L16.0006667,119.222667 C8.28066667,119.222667 2.00066667,112.942667 2.00066667,105.222667 L2.00066667,16.3333333 C2.00066667,8.61333333 8.28066667,2.33333333 16.0006667,2.33333333 L184.000667,2.33333333 C191.720667,2.33333333 198.000667,8.61333333 198.000667,16.3333333 L198.000667,105.222667 C198.000667,112.942667 191.720667,119.222667 184.000667,119.222667 Z" id="Fill-8" fill="#ECAAAA"></path>
            <g id="Rectangle" transform="translate(138.000000, 3.000000)">
                <mask id="mask-2" fill="white">
                    <use xlink:href="#path-1"></use>
                </mask>
                <use id="Mask" fill="#936590" xlink:href="#path-1"></use>
                <rect fill="#E98178" mask="url(#mask-2)" x="48" y="0" width="12" height="116"></rect>
            </g>
            <path d="M174.151067,46.8112 L170.6644,43.3258667 L170.6644,42.9125333 C170.6644,40.2565333 168.503067,38.0952 165.847067,38.0952 C163.189733,38.0952 161.0284,40.2565333 161.0284,42.9125333 L161.0284,47.1552 C161.0284,47.4192 161.133733,47.6725333 161.3204,47.8605333 L164.789733,51.3365333 L164.789733,53.2325333 C164.789733,53.7845333 165.2364,54.2325333 165.789733,54.2325333 C166.341733,54.2325333 166.789733,53.7845333 166.789733,53.2325333 L166.789733,50.9218667 C166.789733,50.6565333 166.6844,50.4018667 166.497733,50.2152 L163.029733,46.7405333 L163.029733,42.9125333 C163.029733,41.3592 164.2924,40.0952 165.847067,40.0952 C167.4004,40.0952 168.6644,41.3592 168.6644,42.9125333 L168.6644,43.6645333 C168.657733,43.7605333 168.663067,43.8578667 168.6844,43.9525333 C168.685733,43.9565333 168.687067,43.9618667 168.6884,43.9658667 C168.701733,44.0178667 168.715067,44.0685333 168.735067,44.1178667 C168.797733,44.2765333 168.9004,44.4112 169.029733,44.5178667 L172.4444,47.9338667 L172.4444,53.2125333 C172.4444,56.8485333 169.4844,59.8085333 165.847067,59.8085333 C162.387067,59.8085333 159.4964,57.1058667 159.2644,53.6552 C159.227067,53.1032 158.749733,52.6858667 158.2004,52.7245333 C157.6484,52.7605333 157.2324,53.2365333 157.2684,53.7885333 C157.569733,58.2858667 161.337733,61.8098667 165.847067,61.8098667 C170.587067,61.8098667 174.4444,57.9525333 174.4444,53.2125333 L174.4444,47.5192 C174.4444,47.2538667 174.339067,46.9992 174.151067,46.8112" id="Fill-12" fill="#FFFFFF"></path>
            <path d="M161.028667,52.4336 L161.028667,53.2242667 C161.028667,55.8816 163.19,58.0416 165.847333,58.0416 C168.503333,58.0416 170.664667,55.8816 170.664667,53.2242667 L170.664667,49.0469333 C170.664667,48.7802667 170.558,48.5256 170.37,48.3376 L166.822,44.8042667 L166.822,42.9016 C166.822,42.3496 166.374,41.9016 165.822,41.9016 C165.27,41.9016 164.822,42.3496 164.822,42.9016 L164.822,45.2202667 C164.822,45.4856 164.927333,45.7402667 165.116667,45.9282667 L168.664667,49.4616 L168.664667,53.2242667 C168.664667,54.7789333 167.400667,56.0416 165.847333,56.0416 C164.292667,56.0416 163.028667,54.7789333 163.028667,53.2242667 L163.028667,52.2869333 C163.108667,51.9589333 163.024667,51.5989333 162.768667,51.3429333 L162.751333,51.3269333 C162.740667,51.3149333 162.728667,51.3029333 162.718,51.2936 L159.25,47.8242667 L159.25,42.6709333 C159.25,39.0322667 162.208667,36.0722667 165.847333,36.0722667 C169.192667,36.0722667 172.075333,38.6802667 172.411333,42.0082667 L172.420667,42.1122667 C172.466,42.6629333 172.951333,43.0722667 173.499333,43.0256 C174.05,42.9802667 174.459333,42.4976 174.414,41.9482667 L174.400667,41.8082667 C173.956667,37.3989333 170.279333,34.0722667 165.847333,34.0722667 C161.106,34.0722667 157.25,37.9296 157.25,42.6709333 L157.25,48.2389333 C157.25,48.5042667 157.355333,48.7589333 157.542,48.9469333 L161.028667,52.4336 Z" id="Fill-14" fill="#FFFFFF"></path>
            <polygon id="Fill-16" fill="#C7AAD1" points="87.3333333 100.5716 175.777333 100.5716 175.777333 98.1276 87.3333333 98.1276"></polygon>
            <polygon id="Fill-18" fill="#C7AAD1" points="87.3333333 91.2382667 175.777333 91.2382667 175.777333 88.7942667 87.3333333 88.7942667"></polygon>
            <polygon id="Fill-19" fill="#C7AAD1" points="87.3333333 81.9049333 175.777333 81.9049333 175.777333 79.4609333 87.3333333 79.4609333"></polygon>
            <polygon id="Fill-20" fill="#936590" points="87.1106667 54.7089333 96 54.7089333 96 45.8209333 87.1106667 45.8209333"></polygon>
            <polygon id="Fill-21" fill="#E98178" points="100.444 54.7089333 109.333333 54.7089333 109.333333 45.8209333 100.444 45.8209333"></polygon>
            <path d="M30.11,56.4974667 C30.11,44.2281333 39.01,34.0428 50.7046667,32.0281333 C49.3246667,31.7908 47.9086667,31.6601333 46.4606667,31.6601333 C32.7433333,31.6601333 21.622,42.7801333 21.622,56.4974667 C21.622,70.2148 32.7433333,81.3361333 46.4606667,81.3361333 C47.9086667,81.3361333 49.3246667,81.2041333 50.7046667,80.9681333 C39.01,78.9534667 30.11,68.7681333 30.11,56.4974667" id="Fill-23" fill="#F8B6C1"></path>
            <path d="M71.2981333,56.4974667 C71.2981333,44.2281333 62.3994667,34.0428 50.7048,32.0281333 C39.0101333,34.0428 30.1101333,44.2281333 30.1101333,56.4974667 C30.1101333,68.7681333 39.0101333,78.9534667 50.7048,80.9681333 C62.3994667,78.9534667 71.2981333,68.7681333 71.2981333,56.4974667" id="Fill-25" fill="#FBD6D9"></path>
            <path d="M46.4602667,69.3294667 C44.3642667,69.3294667 42.7216,67.6868 42.7216,65.5894667 L42.7216,64.3734667 C42.7216,64.0134667 43.0149333,63.7201333 43.3762667,63.7201333 C43.7362667,63.7201333 44.0282667,64.0134667 44.0282667,64.3734667 L44.0282667,65.5894667 C44.0282667,66.9548 45.0976,68.0228 46.4602667,68.0228 C47.8696,68.0228 48.8922667,67.0001333 48.8922667,65.5894667 L48.8589333,64.3921333 C48.8482667,64.0308 49.1322667,63.7308 49.4936,63.7201333 C49.8656,63.7001333 50.1549333,63.9948 50.1642667,64.3561333 L50.1989333,65.5721333 C50.1989333,67.7214667 48.5922667,69.3294667 46.4602667,69.3294667" id="Fill-27" fill="#936590"></path>
            <path d="M39.0508,57.0729333 C39.0508,58.4929333 37.9001333,59.6449333 36.4788,59.6449333 C35.0588,59.6449333 33.9068,58.4929333 33.9068,57.0729333 C33.9068,55.6529333 35.0588,54.5009333 36.4788,54.5009333 C37.9001333,54.5009333 39.0508,55.6529333 39.0508,57.0729333" id="Fill-29" fill="#936590"></path>
            <path d="M59.0137333,57.0729333 C59.0137333,58.4929333 57.8617333,59.6449333 56.4417333,59.6449333 C55.0204,59.6449333 53.8697333,58.4929333 53.8697333,57.0729333 C53.8697333,55.6529333 55.0204,54.5009333 56.4417333,54.5009333 C57.8617333,54.5009333 59.0137333,55.6529333 59.0137333,57.0729333" id="Fill-31" fill="#936590"></path>
            <path d="M61.4108,83.7409333 C57.2214667,86.8142667 52.0548,88.6329333 46.4601333,88.6329333 C40.8668,88.6329333 35.6988,86.8142667 31.5094667,83.7409333 C24.8894667,86.9329333 20.5641333,91.0262667 20.5641333,91.0262667 C20.5641333,91.0262667 32.1588,102.018267 46.4601333,102.018267 C60.7628,102.018267 72.3561333,91.0262667 72.3561333,91.0262667 C72.3561333,91.0262667 68.0308,86.9329333 61.4108,83.7409333" id="Fill-33" fill="#D57576"></path>
        </g>
    </g>
</svg>