<?xml version="1.0" encoding="UTF-8"?>
<svg width="49px" height="54px" viewBox="0 0 49 54" version="1.1" xmlns="http://www.w3.org/2000/svg" xmlns:xlink="http://www.w3.org/1999/xlink">
    <!-- Generator: Sketch 51.1 (57501) - http://www.bohemiancoding.com/sketch -->
    <title>Ease</title>
    <desc>Created with Sketch.</desc>
    <defs></defs>
    <g id="Ease" stroke="none" stroke-width="1" fill="none" fill-rule="evenodd" stroke-linecap="round" stroke-linejoin="round">
        <g id="Easy" transform="translate(5.000000, 2.000000)" stroke="#FFFFFF" stroke-width="3">
            <path d="M24.1175294,13.5294118 L32.9410588,13.5294118 C36.1763529,13.5294118 38.8234118,16.1764706 38.8234118,19.4117647 L38.8234118,40 C38.8234118,43.2352941 36.1763529,45.8823529 32.9410588,45.8823529 L24.1175294,45.8823529" id="Stroke-1"></path>
            <path d="M14.7057647,45.8823529 L5.88223529,45.8823529 C2.64694118,45.8823529 -0.00011764706,43.2352941 -0.00011764706,40 L-0.00011764706,19.4117647 C-0.00011764706,16.1764706 2.64694118,13.5294118 5.88223529,13.5294118 L14.7057647,13.5294118" id="Stroke-3"></path>
            <path d="M19.4116471,50 L19.4116471,2.35294118" id="Stroke-7"></path>
            <polyline id="Stroke-9" points="12.7451765 6.81352941 19.2645882 0.294117647 25.9316471 7.05882353"></polyline>
            <path d="M24.1666471,20 L27.6960588,20 C29.6372353,20 31.2254706,21.8529412 31.2254706,24.1176471 L31.2254706,25.2941176 C31.2254706,27.5588235 29.3725294,29.4117647 27.1078235,29.4117647 L11.2254706,29.4117647 C8.96076471,29.4117647 7.10782353,31.2647059 7.10782353,33.5294118 L7.10782353,34.1176471 C7.10782353,36.3823529 8.82841176,38.2352941 10.9313529,38.2352941 L14.7548824,38.2352941" id="Stroke-11"></path>
        </g>
    </g>
</svg>