<?xml version="1.0" encoding="UTF-8"?>
<svg width="560px" height="304px" viewBox="0 0 560 304" version="1.1" xmlns="http://www.w3.org/2000/svg" xmlns:xlink="http://www.w3.org/1999/xlink">
    <!-- Generator: Sketch 52.6 (67491) - http://www.bohemiancoding.com/sketch -->
    <title>ecosystem-2</title>
    <desc>Created with Sketch.</desc>
    <g id="Assets" stroke="none" stroke-width="1" fill="none" fill-rule="evenodd">
        <g id="ecosystem-2">
            <g id="static" transform="translate(0.000000, 0.334086)" fill-rule="nonzero">
                <path d="M468.665169,66.48307 C424.14382,40.8241986 365.842697,27.9767946 307.41573,27.9767946 C248.988764,27.9767946 190.741573,40.8241986 146.220225,66.48307 C101.698876,92.1419413 79.4426966,125.877607 79.4426966,159.550384 C79.4426966,193.22316 101.698876,226.931874 146.220225,252.590745 C190.741573,278.249616 249.08764,291.088036 307.41573,291.088036 C365.74382,291.088036 424.116854,278.240632 468.638202,252.545824 C513.159551,226.851016 535.41573,193.187223 535.41573,159.514447 C535.41573,125.84167 513.186517,92.2048307 468.665169,66.48307 Z M413.204494,216.609029 C384,233.463386 345.716854,241.88158 307.41573,241.872596 C269.114607,241.863612 231.011236,233.436433 201.806742,216.609029 C174.382022,200.769887 159.838202,180.294898 158.202247,159.550384 C156.404494,136.191467 170.903371,112.473183 201.824719,94.6305643 C230.993258,77.8031603 269.240449,69.3849661 307.433708,69.3759819 C345.626966,69.3669977 383.991011,77.7851919 413.195506,94.6305643 C444.116854,112.473183 458.651685,136.191467 456.817978,159.550384 C455.191011,180.294898 440.65618,200.769887 413.204494,216.609029 Z" id="shadow" fill="#000000" opacity="0.1"></path>
                <ellipse id="shadow" fill="#000000" opacity="0.1" cx="319.352809" cy="146.469391" rx="85.6808989" ry="49.4400451"></ellipse>
                <g id="tree" transform="translate(92.584270, 25.155756)">
                    <path d="M35.8022472,49.6646501 C37.8696629,48.4697517 23.9820225,30.3755756 12.5303371,34.3915124 L9.45617978,32.5946727 C8.51863457,32.117793 7.40945532,32.117793 6.47191011,32.5946727 C6.08838951,32.706476 5.8247191,33.057858 5.8247191,33.4571558 C5.8247191,33.8564535 6.08838951,34.2078355 6.47191011,34.3196388 L9.51011236,36.0715576 C1.98651685,42.7468172 33.7258427,50.8685327 35.8022472,49.6646501 Z" id="shadow" fill="#000000" opacity="0.1"></path>
                    <path d="M5.29440166,32.6575621 L5.28539326,32.6575621 L5.28539326,19.0644695 L8.73707865,19.0644695 L8.73707865,32.4894083 C8.74302232,32.5476458 8.74606742,32.6067406 8.74606742,32.6665463 C8.74606742,33.6192188 7.97338132,34.3915124 7.02022472,34.3915124 C6.06706812,34.3915124 5.29438202,33.6192188 5.29438202,32.6665463 C5.29438202,32.6635498 5.29438967,32.660555 5.29440494,32.6575621 Z" id="trunk" fill="#D27576"></path>
                    <path d="M6.91235955,0.233589165 C9.42022472,0.233589165 20.458427,29.306456 6.91235955,29.306456 C6.91235955,29.306456 1.52808989,21.5620767 6.91235955,0.233589165 Z" id="shade" fill="#22B26D"></path>
                    <path d="M6.91235955,0.233589165 C1.51910112,21.5620767 6.91235955,29.306456 6.91235955,29.306456 C-6.6247191,29.306456 4.40449438,0.233589165 6.91235955,0.233589165 Z" id="highlight" fill="#5CB853"></path>
                </g>
                <g id="person" transform="translate(536.629213, 58.397291)">
                    <path d="M16.7370787,32.5767043 C17.3684603,32.8197533 18.0801966,32.7248989 18.6258031,32.3249907 C19.1714096,31.9250824 19.4758559,31.2751147 19.4337079,30.6001806 C19.3197965,28.8908035 18.2875147,27.3775591 16.7370787,26.6471332 L8.31460674,23.5835214 C7.49328799,23.1972306 6.51897566,23.3541829 5.86067416,23.9788262 L3.5505618,23.1432957 C3.18334535,22.9433843 2.73652216,22.9583413 2.38351085,23.1823616 C2.03049954,23.406382 1.82688208,23.8041934 1.85168539,24.2213995 C1.92436131,25.2564785 2.58507527,26.1579474 3.5505618,26.5393228 L5.86067416,27.3748533 C6.3962716,28.3684099 7.26517393,29.1414356 8.31460674,29.5580135 L16.7370787,32.6216253 L16.7370787,32.5767043 Z" id="Shape" fill="#000000" opacity="0.1"></path>
                    <path d="M4.73707865,11.1853273 C4.64788608,10.3244644 3.92208608,9.67027623 3.05617978,9.67027623 C2.19027348,9.67027623 1.46447347,10.3244644 1.3752809,11.1853273 L1.3752809,24.5627991 C1.37528112,25.5005859 2.13589393,26.2608122 3.0741573,26.2608122 C4.01242068,26.2608122 4.77303348,25.5005859 4.77303371,24.5627991 L4.77303371,11.1853273 L4.73707865,11.1853273 Z" id="Shape" fill="#B86878"></path>
                    <ellipse id="Oval" fill="#D06061" cx="3.05617978" cy="3.88117381" rx="2.99325843" ry="2.99173815"></ellipse>
                    <path d="M6.02247191,11.3829797 C5.90180063,9.83488861 4.60975109,8.64019296 3.05617978,8.64019296 C1.50260846,8.64019296 0.210558924,9.83488861 0.0898876404,11.3829797 L0.0898876404,19.765237 C0.0898876404,21.4175284 1.43001509,22.7569752 3.08314607,22.7569752 C4.73627705,22.7569752 6.07640449,21.4175284 6.07640449,19.765237 L6.07640449,11.3470429 L6.02247191,11.3829797 Z" id="Shape" fill="#C3B9CC"></path>
                </g>
                <g id="person" transform="translate(540.224719, 206.636569)">
                    <path d="M16.7370787,32.5767043 C17.3684603,32.8197533 18.0801966,32.7248989 18.6258031,32.3249907 C19.1714096,31.9250824 19.4758559,31.2751147 19.4337079,30.6001806 C19.3197965,28.8908035 18.2875147,27.3775591 16.7370787,26.6471332 L8.31460674,23.5835214 C7.49328799,23.1972306 6.51897566,23.3541829 5.86067416,23.9788262 L3.5505618,23.1432957 C3.18334535,22.9433843 2.73652216,22.9583413 2.38351085,23.1823616 C2.03049954,23.406382 1.82688208,23.8041934 1.85168539,24.2213995 C1.92436131,25.2564785 2.58507527,26.1579474 3.5505618,26.5393228 L5.86067416,27.3748533 C6.3962716,28.3684099 7.26517393,29.1414356 8.31460674,29.5580135 L16.7370787,32.6216253 L16.7370787,32.5767043 Z" id="Shape" fill="#000000" opacity="0.1"></path>
                    <path d="M4.73707865,11.1853273 C4.64788608,10.3244644 3.92208608,9.67027623 3.05617978,9.67027623 C2.19027348,9.67027623 1.46447347,10.3244644 1.3752809,11.1853273 L1.3752809,24.5627991 C1.37528112,25.5005859 2.13589393,26.2608122 3.0741573,26.2608122 C4.01242068,26.2608122 4.77303348,25.5005859 4.77303371,24.5627991 L4.77303371,11.1853273 L4.73707865,11.1853273 Z" id="Shape" fill="#B86878"></path>
                    <ellipse id="Oval" fill="#D06061" cx="3.05617978" cy="3.88117381" rx="2.99325843" ry="2.99173815"></ellipse>
                    <path d="M6.02247191,11.3829797 C5.90180063,9.83488861 4.60975109,8.64019296 3.05617978,8.64019296 C1.50260846,8.64019296 0.210558924,9.83488861 0.0898876404,11.3829797 L0.0898876404,19.765237 C0.0898876404,21.4175284 1.43001509,22.7569752 3.08314607,22.7569752 C4.73627705,22.7569752 6.07640449,21.4175284 6.07640449,19.765237 L6.07640449,11.3470429 L6.02247191,11.3829797 Z" id="Shape" fill="#C3B9CC"></path>
                </g>
                <g id="person" transform="translate(517.685057, 237.182844)">
                    <path d="M16.7370787,32.5767043 C17.3684603,32.8197533 18.0801966,32.7248989 18.6258031,32.3249907 C19.1714096,31.9250824 19.4758559,31.2751147 19.4337079,30.6001806 C19.3197965,28.8908035 18.2875147,27.3775591 16.7370787,26.6471332 L8.31460674,23.5835214 C7.49328799,23.1972306 6.51897566,23.3541829 5.86067416,23.9788262 L3.5505618,23.1432957 C3.18334535,22.9433843 2.73652216,22.9583413 2.38351085,23.1823616 C2.03049954,23.406382 1.82688208,23.8041934 1.85168539,24.2213995 C1.92436131,25.2564785 2.58507527,26.1579474 3.5505618,26.5393228 L5.86067416,27.3748533 C6.3962716,28.3684099 7.26517393,29.1414356 8.31460674,29.5580135 L16.7370787,32.6216253 L16.7370787,32.5767043 Z" id="Shape" fill="#000000" opacity="0.1"></path>
                    <path d="M4.73707865,11.1853273 C4.64788608,10.3244644 3.92208608,9.67027623 3.05617978,9.67027623 C2.19027348,9.67027623 1.46447347,10.3244644 1.3752809,11.1853273 L1.3752809,24.5627991 C1.37528112,25.5005859 2.13589393,26.2608122 3.0741573,26.2608122 C4.01242068,26.2608122 4.77303348,25.5005859 4.77303371,24.5627991 L4.77303371,11.1853273 L4.73707865,11.1853273 Z" id="Shape" fill="#B86878"></path>
                    <ellipse id="Oval" fill="#D06061" cx="3.05617978" cy="3.88117381" rx="2.99325843" ry="2.99173815"></ellipse>
                    <path d="M6.02247191,11.3829797 C5.90180063,9.83488861 4.60975109,8.64019296 3.05617978,8.64019296 C1.50260846,8.64019296 0.210558924,9.83488861 0.0898876404,11.3829797 L0.0898876404,19.765237 C0.0898876404,21.4175284 1.43001509,22.7569752 3.08314607,22.7569752 C4.73627705,22.7569752 6.07640449,21.4175284 6.07640449,19.765237 L6.07640449,11.3470429 L6.02247191,11.3829797 Z" id="Shape" fill="#C3B9CC"></path>
                </g>
                <g id="tree" transform="translate(59.325843, 237.182844)">
                    <path d="M20.2966292,52.3778781 C26.9213483,56.2051467 37.6898876,56.1781941 44.3505618,52.3329571 C51.011236,48.4877201 51.0561798,42.2796388 44.4314607,38.4523702 C38.3280899,34.9395485 28.7101124,34.6790068 22.0224719,37.6617607 L16.7460674,34.6161174 C15.8102738,34.1451642 14.7065801,34.1451642 13.7707865,34.6161174 C12.9438202,35.0922799 12.9348315,35.864921 13.7707865,36.3320993 L19.0382022,39.3687585 C13.7438202,43.2409481 14.1662921,48.8381038 20.2966292,52.3778781 Z" id="shadow" fill="#000000" opacity="0.1"></path>
                    <path d="M12.3955056,21.0230248 L12.3955056,34.6161174 C12.3955056,35.5687899 13.1681917,36.3410835 14.1213483,36.3410835 C15.0745049,36.3410835 15.847191,35.5687899 15.847191,34.6161174 L15.847191,21.0230248 L12.3955056,21.0230248 Z" id="trunk" fill="#D27576"></path>
                    <path d="M14.058427,0.754672686 C21.7531808,0.754672686 27.9910112,6.98933494 27.9910112,14.6801806 C27.9910112,22.3710262 21.7531808,28.6056885 14.058427,28.6056885 C-1.00674157,12.9552144 14.058427,0.754672686 14.058427,0.754672686 Z" id="shade" fill="#22B26D"></path>
                    <path d="M14.058427,0.754672686 C14.058427,0.754672686 -1.00674157,12.9552144 14.058427,28.6056885 C6.36367315,28.6056885 0.125842697,22.3710262 0.125842697,14.6801806 C0.125842697,6.98933494 6.36367315,0.754672686 14.058427,0.754672686 Z" id="highlight" fill="#5CB853"></path>
                </g>
                <g id="tree" transform="translate(473.707865, 0.000000)">
                    <path d="M35.8022472,49.6646501 C37.8696629,48.4697517 23.9820225,30.3755756 12.5303371,34.3915124 L9.45617978,32.5946727 C8.51863457,32.117793 7.40945532,32.117793 6.47191011,32.5946727 C6.08838951,32.706476 5.8247191,33.057858 5.8247191,33.4571558 C5.8247191,33.8564535 6.08838951,34.2078355 6.47191011,34.3196388 L9.51011236,36.0715576 C1.98651685,42.7468172 33.7258427,50.8685327 35.8022472,49.6646501 Z" id="shadow" fill="#000000" opacity="0.1"></path>
                    <path d="M5.29440166,32.6575621 L5.28539326,32.6575621 L5.28539326,19.0644695 L8.73707865,19.0644695 L8.73707865,32.4894083 C8.74302232,32.5476458 8.74606742,32.6067406 8.74606742,32.6665463 C8.74606742,33.6192188 7.97338132,34.3915124 7.02022472,34.3915124 C6.06706812,34.3915124 5.29438202,33.6192188 5.29438202,32.6665463 C5.29438202,32.6635498 5.29438967,32.660555 5.29440494,32.6575621 Z" id="trunk" fill="#D27576"></path>
                    <path d="M6.91235955,0.233589165 C9.42022472,0.233589165 20.458427,29.306456 6.91235955,29.306456 C6.91235955,29.306456 1.52808989,21.5620767 6.91235955,0.233589165 Z" id="shade" fill="#22B26D"></path>
                    <path d="M6.91235955,0.233589165 C1.51910112,21.5620767 6.91235955,29.306456 6.91235955,29.306456 C-6.6247191,29.306456 4.40449438,0.233589165 6.91235955,0.233589165 Z" id="highlight" fill="#5CB853"></path>
                </g>
                <g id="person" transform="translate(0.678316, 166.207675)">
                    <path d="M16.7370787,32.5767043 C17.3684603,32.8197533 18.0801966,32.7248989 18.6258031,32.3249907 C19.1714096,31.9250824 19.4758559,31.2751147 19.4337079,30.6001806 C19.3197965,28.8908035 18.2875147,27.3775591 16.7370787,26.6471332 L8.31460674,23.5835214 C7.49328799,23.1972306 6.51897566,23.3541829 5.86067416,23.9788262 L3.5505618,23.1432957 C3.18334535,22.9433843 2.73652216,22.9583413 2.38351085,23.1823616 C2.03049954,23.406382 1.82688208,23.8041934 1.85168539,24.2213995 C1.92436131,25.2564785 2.58507527,26.1579474 3.5505618,26.5393228 L5.86067416,27.3748533 C6.3962716,28.3684099 7.26517393,29.1414356 8.31460674,29.5580135 L16.7370787,32.6216253 L16.7370787,32.5767043 Z" id="Shape" fill="#000000" opacity="0.1"></path>
                    <path d="M4.73707865,11.1853273 C4.64788608,10.3244644 3.92208608,9.67027623 3.05617978,9.67027623 C2.19027348,9.67027623 1.46447347,10.3244644 1.3752809,11.1853273 L1.3752809,24.5627991 C1.37528112,25.5005859 2.13589393,26.2608122 3.0741573,26.2608122 C4.01242068,26.2608122 4.77303348,25.5005859 4.77303371,24.5627991 L4.77303371,11.1853273 L4.73707865,11.1853273 Z" id="Shape" fill="#B86878"></path>
                    <ellipse id="Oval" fill="#D06061" cx="3.05617978" cy="3.88117381" rx="2.99325843" ry="2.99173815"></ellipse>
                    <path d="M6.02247191,11.3829797 C5.90180063,9.83488861 4.60975109,8.64019296 3.05617978,8.64019296 C1.50260846,8.64019296 0.210558924,9.83488861 0.0898876404,11.3829797 L0.0898876404,19.765237 C0.0898876404,21.4175284 1.43001509,22.7569752 3.08314607,22.7569752 C4.73627705,22.7569752 6.07640449,21.4175284 6.07640449,19.765237 L6.07640449,11.3470429 L6.02247191,11.3829797 Z" id="Shape" fill="#C3B9CC"></path>
                </g>
            </g>
            <g id="top" transform="translate(60.224719, 14.000000)" fill-rule="nonzero">
                <g id="tl">
                    <path d="M230.813483,52.0714673 C230.563186,51.8152234 230.218951,51.6724057 229.860674,51.6761625 C189.734831,51.6761625 151.982022,60.7232506 123.577528,77.1194131 C91.3797753,95.6897517 75.4426966,121.456433 79.8292135,147.798104 C79.9349979,148.450408 80.4983975,148.929815 81.1595506,148.930113 C81.8207036,148.929815 82.3841032,148.450408 82.4898876,147.798104 C85.7078652,128.284424 100.773034,109.911738 124.94382,95.9413093 C152.952809,79.7697517 190.220225,70.8664108 229.878652,70.8574266 C230.623305,70.8574266 231.226966,70.2540722 231.226966,69.5097968 L231.226966,53.0237923 C231.221908,52.6638989 231.07302,52.3209825 230.813483,52.0714673 Z" id="line" fill="#808080"></path>
                    <path d="M124.251685,78.2873589 C153.411236,61.4509707 191.667416,53.0327765 229.860674,53.0237923 L229.860674,11.6335892 C171.505618,11.6335892 113.159551,24.472009 68.6382022,50.1668172 C24.1168539,75.8616253 1.86067416,109.525418 1.86067416,143.198194 L80.6292135,143.198194 C78.7955056,119.839278 93.3303371,96.1209932 124.251685,78.2873589 Z" id="fill" fill="#F4F4F8"></path>
                    <path d="M80.6292135,144.545824 L1.86067416,144.545824 C1.50319937,144.545509 1.16048064,144.403321 0.907865169,144.150519 C0.65149109,143.90035 0.508600786,143.556289 0.512359551,143.198194 C0.512359551,107.557878 24.4674157,74.1007223 67.9280899,48.9988713 C111.191011,24.0317833 168.692135,10.2859594 229.824719,10.2859594 C230.181098,10.282898 230.524001,10.4219295 230.777528,10.6722799 C231.029356,10.9291606 231.171212,11.2739543 231.173034,11.6335892 L231.173034,53.0237923 C231.173034,53.7680677 230.569373,54.3714221 229.824719,54.3714221 C190.157303,54.3714221 152.898876,63.2927314 124.889888,79.4463205 L124.21573,78.2873589 L124.889888,79.4463205 C95.7393258,96.2737246 80.0808989,119.470926 81.9325843,143.090384 C81.9652038,143.465887 81.8379279,143.837735 81.5820225,144.114582 C81.3366498,144.382325 80.9924041,144.538131 80.6292135,144.545824 Z M3.21797753,141.850564 L79.1910112,141.850564 C77.9865169,117.656117 94.0764045,94.1354853 123.577528,77.1194131 C151.667416,60.9029345 188.889888,51.9187359 228.51236,51.6761625 L228.51236,12.981219 C168.341573,13.1788713 111.85618,26.7809481 69.3123596,51.334763 C27.2359551,75.6100677 3.82022472,107.710609 3.21797753,141.850564 Z" id="stroke" fill="#808080"></path>
                </g>
                <g id="tr" transform="translate(227.348315, 4.000000)">
                    <path d="M108.948315,73.0744921 C80.5168539,56.6693454 42.7460674,47.6402257 2.59325843,47.6402257 C2.22456061,47.6281354 1.86628536,47.7636352 1.5979526,48.0166507 C1.32961985,48.2696663 1.17342828,48.619266 1.16404494,48.9878555 L1.16404494,65.5097968 C1.16435964,65.8670901 1.30662025,66.2096347 1.55955056,66.4621219 C1.83810511,66.7255806 2.20989592,66.8677587 2.59325843,66.8574266 C42.2786517,66.8574266 79.5730337,75.7607675 107.6,91.9323251 C131.752809,105.875801 146.817978,124.27544 150.026966,143.753183 C150.132751,144.405487 150.69615,144.884894 151.357303,144.885192 C152.015573,144.885622 152.577929,144.4109 152.68764,143.762167 C157.083146,117.447449 141.137079,91.6897517 108.948315,73.0744921 Z" id="line" fill="#808080"></path>
                    <path d="M108.274157,74.2783747 C139.195506,92.1209932 153.775281,115.839278 151.88764,139.198194 L230.51236,139.198194 C230.51236,105.525418 208.25618,71.8167043 163.734831,46.1668172 C119.213483,20.51693 60.858427,7.62460497 2.51235955,7.63357979 L2.51235955,49.0237923 C40.7865169,49.0058239 79.0696629,57.4330023 108.274157,74.2783747 Z" id="fill" fill="#F4F4F8"></path>
                    <path d="M230.51236,140.545824 L151.88764,140.545824 C151.512598,140.544786 151.1547,140.388692 150.898876,140.114582 C150.646787,139.835476 150.520096,139.465337 150.548315,139.090384 C152.408989,115.470926 136.750562,92.2737246 107.6,75.4463205 C79.5730337,59.274763 42.2786517,50.3714221 2.59325843,50.3714221 C2.20989592,50.3817542 1.83810511,50.2395761 1.55955056,49.9761174 C1.30826887,49.7225308 1.16630261,49.3806949 1.16404494,49.0237923 L1.16404494,7.63358916 C1.16404494,6.88931378 1.76770596,6.28595937 2.51235955,6.28595937 C63.6359551,6.28595937 121.164045,20.0317833 164.408989,44.9988713 C207.905618,70.1007223 231.824719,103.548894 231.824719,139.198194 C231.824979,139.928658 231.242935,140.526345 230.51236,140.545824 Z M153.325843,137.850564 L229.155056,137.850564 C228.552809,103.710609 205.137079,71.6100677 163.060674,47.334763 C120.516854,22.7629797 64.0224719,9.17887133 3.86067416,8.98121896 L3.86067416,47.6761625 C43.5460674,47.8648307 80.8134831,56.8759819 108.948315,73.1104289 C138.494382,90.1444695 154.539326,113.656117 153.325843,137.850564 Z" id="stroke" fill="#808080"></path>
                </g>
                <g id="bl" transform="translate(0.000000, 140.000000)">
                    <path d="M230.885393,84.5680813 C230.632778,84.3152794 230.290059,84.1730911 229.932584,84.1727765 C190.238202,84.1727765 152.94382,75.2694357 124.916854,59.0888939 C98.8764045,44.0673138 83.5955056,24.221219 81.9685393,3.09038375 C81.916662,2.38991923 81.3319488,1.84864785 80.6292135,1.85056433 L1.86067416,1.85056433 C1.11602056,1.85056433 0.512359551,2.45391875 0.512359551,3.19819413 L0.512359551,16.4139503 C0.512359551,52.0632506 24.458427,85.5204063 67.9280899,110.622257 C111.226966,135.625282 168.719101,149.335169 229.923596,149.335169 C230.669717,149.335186 231.275958,148.733266 231.280899,147.98754 L231.280899,85.5204063 C231.280584,85.1631131 231.138324,84.8205684 230.885393,84.5680813 Z" id="line" fill="#808080"></path>
                    <path d="M124.242697,60.2568397 C96.7910112,44.4176975 82.2561798,23.9427088 80.6292135,3.19819413 L1.86067416,3.19819413 C1.86067416,36.8709707 24.1168539,70.579684 68.6382022,96.2385553 C113.159551,121.897427 171.505618,134.771783 229.860674,134.771783 L229.860674,85.5204063 C191.631461,85.5114221 153.411236,77.0842438 124.242697,60.2568397 Z" id="fill" fill="#F4F4F8"></path>
                    <path d="M229.860674,136.119413 C168.737079,136.119413 111.208989,122.364605 67.9640449,97.3975169 C24.458427,72.3046501 0.503370787,38.8474944 0.548314607,3.19819413 C0.548314607,2.45391875 1.15197562,1.85056433 1.89662921,1.85056433 L80.6292135,1.85056433 C81.3319488,1.84864785 81.916662,2.38991923 81.9685393,3.09038375 C83.5955056,24.221219 98.8764045,44.0673138 124.94382,59.0888939 C152.952809,75.2604515 190.220225,84.1637923 229.88764,84.1727765 C230.632294,84.1727765 231.235955,84.7761309 231.235955,85.5204063 L231.235955,134.771783 C231.236028,135.133916 231.090278,135.48084 230.831557,135.734359 C230.572836,135.987878 230.222919,136.126656 229.860674,136.119413 Z M3.21797753,4.54582393 C3.82022472,38.6857788 27.2359551,70.7863205 69.3123596,95.0706095 C111.85618,119.61544 168.341573,133.217517 228.51236,133.415169 L228.51236,86.8590519 C188.889888,86.6524153 151.667416,77.6322799 123.568539,61.4247856 C97.2404494,46.2325056 81.6089888,26.0719639 79.3977528,4.54582393 L3.21797753,4.54582393 Z" id="stroke" fill="#808080"></path>
                </g>
                <g id="br" transform="translate(226.651685, 126.000000)">
                    <path d="M231.208989,15.8505643 L152.58427,15.8505643 C151.881534,15.8486479 151.296821,16.3899192 151.244944,17.0903837 C149.591011,38.176298 134.337079,58.0673138 108.296629,73.0888939 C80.2696629,89.2604515 42.9752809,98.1727765 3.28089888,98.1727765 C2.53624528,98.1727765 1.93258427,98.7761309 1.93258427,99.5204063 L1.93258427,161.98754 C1.93258427,162.731815 2.53624528,163.335169 3.28089888,163.335169 C64.4044944,163.335169 121.860674,149.571377 165.078652,124.622257 C208.58427,99.5204063 232.539326,66.0632506 232.539326,30.4139503 L232.539326,17.1981941 C232.539391,16.4608797 231.946612,15.8603952 231.208989,15.8505643 Z" id="line" fill="#D5694B"></path>
                    <path d="M152.58427,17.1981941 C150.957303,37.9427088 136.404494,58.4176975 108.970787,74.2568397 C79.7662921,91.1111964 41.4831461,99.5293905 3.20898876,99.5204063 L3.20898876,148.771783 C61.5550562,148.771783 119.910112,135.924379 164.422472,110.229571 C208.934831,84.534763 231.208989,50.8709707 231.208989,17.1981941 L152.58427,17.1981941 Z" id="fill" fill="#F0D0C8"></path>
                    <path d="M3.20898876,150.119413 C2.85151398,150.119099 2.50879525,149.97691 2.25617978,149.724108 C2.00489809,149.470522 1.86293183,149.128686 1.86067416,148.771783 L1.86067416,99.5204063 C1.86067416,98.7761309 2.46433517,98.1727765 3.20898876,98.1727765 C3.20898876,98.1727765 3.20898876,98.1727765 3.28089888,98.1727765 C42.9752809,98.1727765 80.2606742,89.2604515 108.296629,73.0888939 C134.364045,58.0673138 149.591011,38.176298 151.244944,17.0903837 C151.296821,16.3899192 151.881534,15.8486479 152.58427,15.8505643 L231.208989,15.8505643 C231.953642,15.8505643 232.557303,16.4539187 232.557303,17.1981941 C232.557303,52.8474944 208.602247,86.2956659 165.096629,111.397517 C121.833708,136.364605 64.341573,150.119413 3.20898876,150.119413 Z M4.55730337,100.859052 L4.55730337,147.415169 C64.7191011,147.217517 121.204494,133.61544 163.748315,109.061625 C205.824719,84.8042889 229.249438,52.6857788 229.851685,18.5458239 L153.81573,18.5458239 C151.604494,40.1079007 135.964045,60.2325056 109.644944,75.4247856 C81.5101124,91.6592325 44.2426966,100.670384 4.55730337,100.859052 Z" id="stroke" fill="#D5694B"></path>
                    <g id="person" transform="translate(53.797753, 80.446953)">
                        <path d="M16.7370787,32.5767043 C17.3684603,32.8197533 18.0801966,32.7248989 18.6258031,32.3249907 C19.1714096,31.9250824 19.4758559,31.2751147 19.4337079,30.6001806 C19.3197965,28.8908035 18.2875147,27.3775591 16.7370787,26.6471332 L8.31460674,23.5835214 C7.49328799,23.1972306 6.51897566,23.3541829 5.86067416,23.9788262 L3.5505618,23.1432957 C3.18334535,22.9433843 2.73652216,22.9583413 2.38351085,23.1823616 C2.03049954,23.406382 1.82688208,23.8041934 1.85168539,24.2213995 C1.92436131,25.2564785 2.58507527,26.1579474 3.5505618,26.5393228 L5.86067416,27.3748533 C6.3962716,28.3684099 7.26517393,29.1414356 8.31460674,29.5580135 L16.7370787,32.6216253 L16.7370787,32.5767043 Z" id="Shape" fill="#000000" opacity="0.1"></path>
                        <path d="M4.73707865,11.1853273 C4.64788608,10.3244644 3.92208608,9.67027623 3.05617978,9.67027623 C2.19027348,9.67027623 1.46447347,10.3244644 1.3752809,11.1853273 L1.3752809,24.5627991 C1.37528112,25.5005859 2.13589393,26.2608122 3.0741573,26.2608122 C4.01242068,26.2608122 4.77303348,25.5005859 4.77303371,24.5627991 L4.77303371,11.1853273 L4.73707865,11.1853273 Z" id="Shape" fill="#B86878"></path>
                        <ellipse id="Oval" fill="#D06061" cx="3.05617978" cy="3.88117381" rx="2.99325843" ry="2.99173815"></ellipse>
                        <path d="M6.02247191,11.3829797 C5.90180063,9.83488861 4.60975109,8.64019296 3.05617978,8.64019296 C1.50260846,8.64019296 0.210558924,9.83488861 0.0898876404,11.3829797 L0.0898876404,19.765237 C0.0898876404,21.4175284 1.43001509,22.7569752 3.08314607,22.7569752 C4.73627705,22.7569752 6.07640449,21.4175284 6.07640449,19.765237 L6.07640449,11.3470429 L6.02247191,11.3829797 Z" id="Shape" fill="#C3B9CC"></path>
                    </g>
                    <g id="person" transform="translate(95.146067, 87.634312)">
                        <path d="M16.7370787,32.5767043 C17.3684603,32.8197533 18.0801966,32.7248989 18.6258031,32.3249907 C19.1714096,31.9250824 19.4758559,31.2751147 19.4337079,30.6001806 C19.3197965,28.8908035 18.2875147,27.3775591 16.7370787,26.6471332 L8.31460674,23.5835214 C7.49328799,23.1972306 6.51897566,23.3541829 5.86067416,23.9788262 L3.5505618,23.1432957 C3.18334535,22.9433843 2.73652216,22.9583413 2.38351085,23.1823616 C2.03049954,23.406382 1.82688208,23.8041934 1.85168539,24.2213995 C1.92436131,25.2564785 2.58507527,26.1579474 3.5505618,26.5393228 L5.86067416,27.3748533 C6.3962716,28.3684099 7.26517393,29.1414356 8.31460674,29.5580135 L16.7370787,32.6216253 L16.7370787,32.5767043 Z" id="Shape" fill="#000000" opacity="0.1"></path>
                        <path d="M4.73707865,11.1853273 C4.64788608,10.3244644 3.92208608,9.67027623 3.05617978,9.67027623 C2.19027348,9.67027623 1.46447347,10.3244644 1.3752809,11.1853273 L1.3752809,24.5627991 C1.37528112,25.5005859 2.13589393,26.2608122 3.0741573,26.2608122 C4.01242068,26.2608122 4.77303348,25.5005859 4.77303371,24.5627991 L4.77303371,11.1853273 L4.73707865,11.1853273 Z" id="Shape" fill="#B86878"></path>
                        <ellipse id="Oval" fill="#D06061" cx="3.05617978" cy="3.88117381" rx="2.99325843" ry="2.99173815"></ellipse>
                        <path d="M6.02247191,11.3829797 C5.90180063,9.83488861 4.60975109,8.64019296 3.05617978,8.64019296 C1.50260846,8.64019296 0.210558924,9.83488861 0.0898876404,11.3829797 L0.0898876404,19.765237 C0.0898876404,21.4175284 1.43001509,22.7569752 3.08314607,22.7569752 C4.73627705,22.7569752 6.07640449,21.4175284 6.07640449,19.765237 L6.07640449,11.3470429 L6.02247191,11.3829797 Z" id="Shape" fill="#C3B9CC"></path>
                    </g>
                    <g id="person" transform="translate(178.741573, 1.386005)">
                        <path d="M16.7370787,32.5767043 C17.3684603,32.8197533 18.0801966,32.7248989 18.6258031,32.3249907 C19.1714096,31.9250824 19.4758559,31.2751147 19.4337079,30.6001806 C19.3197965,28.8908035 18.2875147,27.3775591 16.7370787,26.6471332 L8.31460674,23.5835214 C7.49328799,23.1972306 6.51897566,23.3541829 5.86067416,23.9788262 L3.5505618,23.1432957 C3.18334535,22.9433843 2.73652216,22.9583413 2.38351085,23.1823616 C2.03049954,23.406382 1.82688208,23.8041934 1.85168539,24.2213995 C1.92436131,25.2564785 2.58507527,26.1579474 3.5505618,26.5393228 L5.86067416,27.3748533 C6.3962716,28.3684099 7.26517393,29.1414356 8.31460674,29.5580135 L16.7370787,32.6216253 L16.7370787,32.5767043 Z" id="Shape" fill="#000000" opacity="0.1"></path>
                        <path d="M4.73707865,11.1853273 C4.64788608,10.3244644 3.92208608,9.67027623 3.05617978,9.67027623 C2.19027348,9.67027623 1.46447347,10.3244644 1.3752809,11.1853273 L1.3752809,24.5627991 C1.37528112,25.5005859 2.13589393,26.2608122 3.0741573,26.2608122 C4.01242068,26.2608122 4.77303348,25.5005859 4.77303371,24.5627991 L4.77303371,11.1853273 L4.73707865,11.1853273 Z" id="Shape" fill="#B86878"></path>
                        <ellipse id="Oval" fill="#D06061" cx="3.05617978" cy="3.88117381" rx="2.99325843" ry="2.99173815"></ellipse>
                        <path d="M6.02247191,11.3829797 C5.90180063,9.83488861 4.60975109,8.64019296 3.05617978,8.64019296 C1.50260846,8.64019296 0.210558924,9.83488861 0.0898876404,11.3829797 L0.0898876404,19.765237 C0.0898876404,21.4175284 1.43001509,22.7569752 3.08314607,22.7569752 C4.73627705,22.7569752 6.07640449,21.4175284 6.07640449,19.765237 L6.07640449,11.3470429 L6.02247191,11.3829797 Z" id="Shape" fill="#C3B9CC"></path>
                    </g>
                </g>
            </g>
            <g id="world" transform="translate(196.853933, 51.544018)">
                <path d="M173.890876,134.792268 C175.187056,134.043884 176.441888,133.281126 177.663461,132.506688 C183.250876,120.54872 186.378067,107.210778 186.378067,93.1415233 C186.378067,85.6522953 185.489079,78.3715007 183.818966,71.394372 C183.70391,70.9182095 183.577169,70.4465391 183.454921,69.9730718 C183.319191,69.4430041 183.182562,68.9129363 183.037843,68.3873607 C182.826607,67.6281959 182.606382,66.8726248 182.377169,66.1215458 C182.316944,65.9211982 182.25582,65.721749 182.193798,65.5222998 C175.223011,43.2127377 160.138966,24.5004488 140.405933,12.860521 C148.645034,26.8022005 153.381213,43.0716858 153.381213,60.4516181 C153.381213,107.671668 118.46436,146.709808 73.1061573,153.044566 C108.586607,156.685862 146.475146,150.612544 173.890876,134.792268" id="Fill-1" fill="#4F3B63"></path>
                <path d="M153.380854,60.4515282 C153.380854,43.0715959 148.644674,26.8021106 140.405573,12.8604312 C132.622202,8.26860722 124.115236,4.77644921 115.099506,2.59778104 C115.07164,2.5914921 115.044674,2.58520316 115.017708,2.57891422 C114.09636,2.35700451 113.170517,2.15126637 112.238382,1.95810609 C112.071191,1.92306772 111.904,1.88982619 111.736809,1.85658465 C110.944,1.69576749 110.146697,1.54573138 109.345798,1.40557788 C109.092315,1.3615553 108.838831,1.31843115 108.585348,1.275307 C107.863551,1.15581716 107.139955,1.04441309 106.413663,0.941993228 C106.106247,0.897970655 105.798831,0.853948081 105.490517,0.813519187 C104.80827,0.722778781 104.122427,0.642819413 103.435685,0.568250564 C103.09591,0.53051693 102.756135,0.490986456 102.415461,0.457744921 C101.745798,0.391261851 101.07164,0.337356659 100.397483,0.286146727 C100.046921,0.259194131 99.6963596,0.227749436 99.3448989,0.204390519 C98.6374831,0.158571106 97.9273708,0.127126411 97.2163596,0.0956817155 C96.9008539,0.0831038374 96.5871461,0.0624401806 96.2707416,0.052557562 C95.2577079,0.0193160271 94.2419775,0.00134762977 93.2199551,0.000449209905 C93.2100674,0.000449209905 93.1992809,0.000449209905 93.1893933,0.000449209905 C92.2887191,0.000449209905 91.3916404,0.0157223476 90.4972584,0.0417765237 C90.2051236,0.0498623025 89.9156854,0.0642370203 89.6244494,0.0750180587 C89.0204045,0.0974785553 88.4172584,0.124431151 87.816809,0.158571106 C87.475236,0.177437923 87.1345618,0.19989842 86.7938876,0.223257336 C86.2410787,0.260092551 85.6900674,0.303216704 85.1408539,0.350832957 C84.7884944,0.380480813 84.4361348,0.410128668 84.085573,0.444268623 C83.5309663,0.498173815 82.9772584,0.560164786 82.4244494,0.623952596 C82.0945618,0.66168623 81.7628764,0.695826185 81.4338876,0.737153499 C80.6141124,0.840471783 79.7970337,0.953672686 78.9835506,1.07855305 C78.5844494,1.13874718 78.1871461,1.21062077 77.7889438,1.27620542 C77.3475955,1.34987585 76.9053483,1.42174944 76.4666966,1.5017088 C75.9929888,1.58705869 75.5219775,1.68049436 75.0509663,1.77393002 C74.7004045,1.84310835 74.3507416,1.91228668 74.0010787,1.98505869 C73.4914157,2.09197065 72.9826517,2.20337472 72.4756854,2.31837246 C72.195236,2.38216027 71.9165843,2.44774492 71.6379326,2.51422799 C71.0743371,2.64809255 70.5116404,2.78285553 69.9525393,2.92660271 C69.8374831,2.95625056 69.7233258,2.98859368 69.6082697,3.01824153 C38.5547865,11.1309729 13.8033258,34.8860926 4.224,65.3892438 C4.12152809,65.7180655 4.02175281,66.0477856 3.9228764,66.3793025 C3.72782022,67.0234695 3.5381573,67.6703318 3.35748315,68.3207878 C3.13186517,69.1383499 2.9134382,69.9595056 2.70939326,70.7851535 C2.65096629,71.0241332 2.5934382,71.2631129 2.53501124,71.5020926 C0.881078652,78.4468781 0.00017977527,85.6908375 0.00017977527,93.1414334 C0.00017977527,107.212485 3.12737079,120.551325 8.71658427,132.51109 C9.93635955,133.28463 11.1902921,134.04649 12.4846742,134.793975 C29.6406292,144.693664 50.9035506,150.766084 73.1066966,153.045375 C118.464,146.709718 153.380854,107.672476 153.380854,60.4515282" id="Fill-3" fill="#654A7D"></path>
                <path d="M65.5461573,6.09892325 C66.0711011,6.24536569 66.1034607,6.44301806 65.6414382,6.69188036 C65.1902022,9.39881941 69.2459326,5.43768623 69.2693034,5.63893228 C69.206382,5.1016772 65.3780674,5.92103612 65.5461573,6.09892325" id="Fill-5" fill="#D1D4F2"></path>
                <path d="M80.1449888,54.2560248 C80.2627416,53.8059165 80.0182472,53.704395 79.7413933,53.9298984 C79.8582472,54.0547788 79.5382472,53.1824131 79.8133034,53.0674153 C79.7333034,53.1006569 78.7211685,54.0547788 78.6717303,53.7690813 C78.3157753,51.7063093 80.0398202,53.8885711 79.0142022,52.3603589 C78.8919551,52.1645034 78.9081348,51.9920068 79.1022921,51.8985711 C80.3607191,53.2992077 76.1656629,49.2347562 77.0213933,51.3208871 C76.9773483,51.2139752 75.8285843,48.2437991 75.6182472,49.6120926 C75.7584719,48.6669549 78.0038652,48.2491896 77.9526292,47.2294831 C77.9310562,46.7766795 71.6865618,51.3433476 71.9697079,51.2085847 C71.7593708,51.260693 71.7063371,51.4035418 71.8115056,51.6398262 C71.0330787,53.956851 75.0249888,53.2695598 76.3490337,53.9334921 C76.2843146,54.0341151 74.9899326,54.6576185 75.2101573,54.7492573 C75.6083596,54.9163634 78.3148764,53.8912664 78.2933034,53.6558804 C78.3211685,53.9478668 77.4079101,54.9172619 77.7998202,55.1939752 C78.4074607,55.6234199 79.7099326,55.8866569 80.1449888,54.2560248" id="Fill-7" fill="#D1D4F2"></path>
                <path d="M80.7261124,22.654735 C80.8528539,22.3483738 76.9813933,19.5111639 76.6452135,19.1958185 C76.503191,19.0754302 75.848809,18.7007892 75.608809,18.6010646 C76.2712809,18.4725905 77.0326292,18.3998185 77.8002697,18.2354077 C77.0065618,18.4070059 77.8838652,16.6443061 77.856,17.2480442 C78.0420674,16.5068479 77.6106067,16.3020081 77.1000449,16.3020081 C77.8515056,15.2418727 77.0227416,14.9435973 75.6366742,15.0181661 L74.9751011,14.9885183 C75.3427416,14.8411774 76.6829663,14.9211368 76.3980225,14.2302519 C75.9476854,13.130586 74.9499326,14.4485679 74.5670112,14.4872 C74.5517303,14.4889968 74.663191,12.7334844 74.5742022,12.5906357 C73.9818427,12.2950555 73.1719551,11.7586989 72.9391461,11.5358907 L73.114427,11.7470194 C74.3935281,11.8817824 75.1198202,11.673349 74.154427,10.6302835 L73.9234157,10.641963 C73.4919551,10.8063738 73.1521798,10.6877824 72.8897079,10.3248208 L72.5912809,10.3266176 C72.2308315,11.6742474 72.3557753,11.6598727 71.5800449,12.3265002 C71.0784719,12.317516 70.5625169,12.3786086 70.750382,11.8781887 C71.1782472,11.3903467 72.103191,11.033674 72.110382,10.1613084 C72.1148764,9.49288397 66.7737528,12.0704506 66.6254382,12.8799269 C66.016,13.0883603 65.8685843,12.8889111 66.0052135,12.4163422 C67.1063371,10.7731323 68.6002697,10.9869562 70.1094831,9.86123612 C69.9315056,9.78397201 69.7508315,9.71838736 69.564764,9.66448217 C67.6753258,9.6977237 63.8982472,10.7973896 62.881618,12.2483377 C62.9058876,12.2132993 63.6348764,13.4477282 63.5018427,13.1746086 C59.9818427,14.0900984 67.3526292,15.6722158 68.8097079,14.8735205 C68.524764,15.0271503 70.6308315,18.3513038 70.6191461,18.6163377 C70.5337528,20.5533309 69.6177978,20.0439269 68.227236,21.0923828 C67.7301573,21.4670239 61.7328539,22.4984099 61.7445393,23.2557779 C61.761618,24.1353309 65.4658876,23.8541255 65.6115056,23.8352587 C65.5791461,23.8092045 67.4586966,25.6249111 67.4524045,25.6626447 C67.2897079,26.7452406 66.4771236,26.5907124 67.9467865,27.1252722 L68.2658876,27.1495296 C68.6622921,27.4882339 70.721618,29.4243287 71.4622921,29.1332406 C72.6802697,28.6561797 70.0097079,25.9186944 70.2362247,25.8018998 C70.7081348,25.558428 73.0470112,27.2196063 74.190382,26.7191865 C73.1809438,27.161209 75.2267865,26.9680488 74.9013933,27.0345318 C75.3643146,26.9392993 73.0083596,22.8353174 74.0222921,21.8344777 C75.3840899,20.4760668 75.0739775,26.7021165 77.5782472,23.5711233 C77.9368989,24.0526763 78.4519551,23.9718185 78.9643146,23.5244054 C79.2933034,22.194744 80.2479101,23.8065093 80.7261124,22.654735" id="Fill-9" fill="#D1D4F2"></path>
                <path d="M166.025888,83.400316 C166.028584,83.1685237 166.091506,82.9538014 166.213753,82.7570474 C166.014202,82.6474402 165.801169,82.5845508 165.576449,82.5692777 C164.819596,82.5791603 164.229034,82.5513093 163.566562,82.475842 C163.68791,82.7624379 164.629933,85.4388307 166.058247,85.1872731 C166.306337,85.1423521 165.990831,83.6437878 166.025888,83.400316" id="Fill-11" fill="#D1D4F2"></path>
                <path d="M159.507775,74.0923269 C159.157213,74.2073246 158.935191,74.4561869 158.879461,74.8011801 C158.974742,75.0716045 159.127551,76.5863404 159.656989,76.4129454 C160.236764,76.2206835 159.927551,75.1300018 159.941034,74.6834871 C159.895191,74.5038032 159.876315,74.3214239 159.883506,74.1363494 C159.905079,74.079749 159.893393,74.024047 159.898787,73.9369002 C159.905978,73.8497535 159.764854,73.6125707 159.657888,73.6440153 C159.657888,73.6440153 159.681258,74.034828 159.507775,74.0923269" id="Fill-13" fill="#D1D4F2"></path>
                <path d="M174.46382,89.3869368 C174.77573,89.5459571 175.726742,89.5998623 175.894831,89.1847923 C175.958652,89.0329594 173.857079,88.0429007 173.468764,87.8955598 C173.549663,88.3986749 173.954157,89.1272935 174.46382,89.3869368" id="Fill-15" fill="#D1D4F2"></path>
                <path d="M180.822742,89.2764312 C180.820944,89.1371761 180.815551,89.0203815 180.696,89.0491309 C180.184539,89.2602596 179.771056,89.6115418 179.504989,90.0966885 C180.052404,90.5414063 180.844315,90.2566072 180.822742,89.2764312" id="Fill-17" fill="#D1D4F2"></path>
                <path d="M73.9173933,5.95014492 C73.563236,5.89623973 73.1299775,5.94385598 72.7749213,5.96991016 C73.243236,5.48296659 78.443236,9.03891242 79.7250337,7.20344063 C80.1295281,6.6230614 78.7362697,6.44247901 78.9052584,6.15228939 C78.3093034,7.18008172 85.9973933,4.27189661 84.7012135,4.39857381 C87.140764,4.15600045 90.3560449,4.1308447 93.4086292,3.30160316 C95.0068315,3.4300772 96.333573,3.21805011 96.3893034,2.60083567 C95.0877303,2.17857833 92.1277303,1.50116975 91.2531236,1.39335937 C90.2661573,1.32418104 89.1326742,1.45445192 88.4342472,1.73565734 L88.4827865,1.96205914 C88.6355955,2.03393273 81.773573,1.14539549 82.5546966,2.60173409 C82.8324494,3.12191919 85.2387416,3.07070926 85.8715506,3.09945869 C84.886382,2.98086727 84.0315506,3.19648804 83.3277303,3.78315621 C82.923236,2.71673183 82.0477303,2.92875892 81.0275056,3.92959865 C80.959191,4.42552641 80.8018876,4.84239323 80.3173933,4.5063842 C79.8850337,4.17127359 78.7344719,4.40755801 78.2005393,4.51626682 C77.999191,4.69145869 77.7708764,4.76692596 77.5155955,4.74087178 C77.2639101,5.83694402 76.6418876,5.67972054 75.7852584,5.24668217 C75.3187416,5.95463702 74.7146966,6.06873634 73.9173933,5.95014492" id="Fill-19" fill="#D1D4F2"></path>
                <path d="M158.673798,77.3798248 C158.554247,77.613414 159.063011,78.2099648 158.901213,78.4785923 C158.904809,78.4723034 158.867955,80.0409445 158.911101,80.1002402 C160.08773,81.6625923 160.381663,79.4147458 160.412225,78.5199196 C160.424809,77.6089219 160.454472,77.5729851 160.028404,76.6224569 C159.94391,76.4481634 158.755596,77.2199061 158.673798,77.3798248" id="Fill-21" fill="#D1D4F2"></path>
                <path d="M89.5639551,19.8441183 C89.6358652,20.066028 91.5927191,19.8108767 91.6942921,19.6356849 C91.8426067,19.3796352 88.3738427,16.1650889 89.5639551,19.8441183" id="Fill-23" fill="#D1D4F2"></path>
                <path d="M118.561888,23.3776935 C119.305258,22.552944 118.718292,22.5987634 117.292674,22.3310343 C116.908854,22.0839688 116.489978,21.9671743 116.035146,21.9806506 L115.767281,22.0794767 C115.548854,22.0246731 115.339416,22.0471336 115.137169,22.1459598 L114.833348,22.3319327 C114.474697,22.3337296 114.116944,22.3184564 113.76009,22.2870117 L113.757393,22.1477567 C114.500764,22.1324835 115.226157,21.9078786 115.758292,21.5224564 C116.801888,20.6986054 115.240539,21.123558 114.312899,21.3517567 C114.312899,21.3517567 114.023461,21.4469892 113.955146,21.4371065 C113.866157,21.1990253 113.898517,20.9825061 114.053124,20.7884474 C114.570876,21.1774632 115.263011,21.1145738 115.838292,20.6995038 L115.745708,20.4407589 C115.517393,20.2179508 115.221663,20.1020546 114.900764,20.1074451 L114.692225,20.0014316 C114.544809,19.8666686 114.252674,19.5782758 114.252674,19.5782758 C114.060315,19.3716393 113.890427,19.1542217 113.734921,18.9188357 C115.58391,20.0733052 116.973573,21.0319192 118.706607,22.3499011 C118.980764,22.345409 119.664809,22.2582623 119.921888,22.1944745 C119.524584,21.033716 119.014921,20.3329485 118.345258,20.137093 C118.101663,19.6618289 117.365483,19.1461359 116.543011,18.8514542 C116.608629,18.6870433 116.564584,18.562163 116.411775,18.4759147 L116.243685,18.3564248 C116.258067,17.945847 116.08009,17.6430795 115.717843,17.5074181 L115.65582,17.2917973 C116.108854,17.3690614 119.373573,18.365409 119.618966,17.6044474 C119.891326,16.7725106 116.757843,15.9980727 119.903011,16.2011156 L119.913798,16.1283436 C119.396944,15.8740907 118.881888,15.3323436 118.748854,14.9388357 L118.952,14.9505151 C119.68009,16.3709169 116.545708,12.1034226 116.597843,12.6074361 C116.589753,12.5211878 118.587056,12.9533278 118.961888,12.8868447 C118.843236,12.9075084 117.70436,11.1367228 117.718742,11.3478515 C117.685483,11.1690659 117.563236,11.0693413 117.352899,11.0495761 L117.183011,11.0612555 C116.957393,10.0343616 116.532225,9.06945869 115.767281,8.05065056 L116.122337,8.0479553 C117.516494,7.90330971 118.378517,7.45320135 115.628854,6.22775666 C114.804584,6.12713363 114.16818,6.39845643 113.477843,7.27621264 L113.20818,7.32921941 C114.056719,6.28705237 114.009978,5.63120587 112.756944,5.60874537 C111.621663,6.10826682 110.588854,4.1128763 108.917843,5.08945869 C109.181213,4.93582889 112.56009,5.3023842 112.53582,5.46320135 C112.757843,3.96463702 108.895371,4.01045643 106.243685,3.39324199 C106.133124,3.40132777 104.013573,3.39414041 103.192,3.34832099 L103.355596,3.50374763 C103.281888,3.54687178 101.798742,4.19103883 101.177618,4.09760316 C99.9012135,3.20098014 98.6086292,3.04016298 97.0589663,3.70499368 C95.3852584,3.61065959 93.424809,3.76069571 91.1740225,4.15510203 C91.2315506,5.26824424 89.9434607,5.69768894 87.7196404,5.68421264 C86.9259326,5.87647449 86.1286292,5.89803657 85.3286292,5.74979729 C83.4643596,6.41462799 87.7277303,7.39390564 87.7259326,7.39390564 C84.4782921,7.7128447 85.2360449,7.68948578 84.9421124,8.08029842 C84.2742472,9.45218555 86.1744719,9.23117427 88.0513258,9.18984695 C91.4257079,10.2580682 92.0225618,12.5319688 90.377618,15.4239824 C89.1605393,16.8039553 90.5484045,16.5730614 91.9146966,16.2100998 C92.2508764,16.7042307 92.5951461,18.040181 92.523236,18.2917386 C92.4594157,18.6088808 90.8594157,22.4163842 91.4724494,21.3274993 C90.4531236,21.9168628 84.6239101,27.5265964 90.4081798,27.2310163 C85.4499775,27.4753865 93.1281798,33.6017115 93.9021124,34.0033052 C94.9430112,36.0220546 96.246382,36.292479 97.6198652,34.6537612 C99.8589663,33.3833955 98.2113258,31.4661675 100.620315,30.5677476 C100.812674,30.5309124 100.952,30.4132194 101.039191,30.2146686 C101.163236,29.7843255 100.977169,29.5830795 100.510652,29.6028447 L100.316494,29.3656619 C100.556494,29.2138289 100.977169,29.2668357 101.227056,29.2704293 L101.038292,28.9883255 C101.116494,28.7637205 101.051775,28.5831381 100.844135,28.4492736 L101.119191,28.1438108 C101.66391,28.5346235 102.066607,28.5409124 102.060315,27.8455354 C103.226157,28.041391 104.036045,27.6963977 104.592449,26.5814587 C104.683236,26.8482894 104.605933,27.0603165 104.360539,27.21754 C104.244584,27.408005 104.175371,27.6128447 104.152899,27.8347544 C106.841438,27.6928041 108.275146,25.4584339 110.471101,25.0801991 C110.475596,24.851102 110.37582,24.6974722 110.171775,24.6184113 L110.154697,24.268926 L109.992899,23.9670569 C111.586607,25.17633 113.091326,25.2895309 115.093124,24.5932555 C115.971326,24.4297431 117.92818,24.0748673 118.561888,23.3776935" id="Fill-25" fill="#D1D4F2"></path>
                <path d="M126.037303,18.6614384 C126.137079,18.7584677 127.532135,19.7494248 127.650787,19.6595828 C129.081798,18.5958537 124.635056,17.2994339 126.037303,18.6614384" id="Fill-27" fill="#D1D4F2"></path>
                <path d="M183.014562,79.6578582 C182.877034,80.5751449 179.59164,78.1233571 177.993438,79.565321 C175.881978,78.8753345 176.380854,77.8421517 176.005124,76.3139395 C175.727371,75.0902916 176.043775,70.3646032 176.984,70.2010907 C178.256809,69.9764858 177.749843,73.8837138 179.586247,73.5890321 L179.832539,73.4057544 L180.104899,73.4902059 C181.135011,74.8629914 183.304899,77.6166483 183.014562,79.6578582 M178.795236,71.5532126 C179.145798,71.2917725 179.805573,69.8309418 180.353888,69.912698 C179.754337,69.822856 180.332315,72.7615874 180.243326,72.8496325 C179.473888,73.6150862 179.018157,71.8245354 178.733213,71.6753977 C178.733213,71.6753977 178.721528,71.6080163 178.795236,71.5532126 M186.046472,87.8864858 C185.510742,87.4687205 185.516135,85.4787205 185.524225,84.8624045 C185.522427,81.6972713 184.492315,78.7702194 183.742652,75.6104767 C183.659955,74.9339666 183.610517,74.2915964 183.59164,73.6276641 C183.384899,72.3977273 183.101753,70.9512713 183.385798,69.7096551 C179.918831,56.3977679 173.340854,43.9591449 164.595685,33.3577905 C164.571416,33.3784542 164.709843,34.0558628 164.708045,34.0603549 C164.478831,34.6991314 165.178157,35.6757138 165.061303,36.4070275 C165.302202,36.799637 165.583551,37.1841607 165.894562,37.5408334 C166.197483,37.8786393 166.926472,39.1930275 166.005124,38.3548018 C165.621303,38.1948831 165.33636,37.8274293 165.202427,37.343181 C165.202427,37.343181 165.015461,37.5030998 165.058607,37.6737995 C165.058607,37.6737995 165.099955,37.8669598 165.259056,38.0547296 C165.369618,38.2442962 165.498157,38.419488 165.645573,38.582102 C166.295461,39.0259214 167.255461,39.6107928 166.251416,39.5173571 C166.002427,39.2020117 165.601528,38.9396731 165.129618,38.7626844 L165.018157,38.5812036 C164.980404,38.425777 164.915685,38.2838266 164.824,38.1544542 L164.63973,37.9864497 C164.589393,37.7016506 164.445573,37.4698582 164.209169,37.287479 C163.835236,36.8715106 163.59164,36.401637 163.517933,35.9883639 C162.820404,35.5256777 160.118382,33.2589643 161.557483,34.4511675 L161.75973,34.5050727 C161.883775,34.6910456 162.055461,34.7880749 162.275685,34.7934655 C162.751191,35.134865 164.240629,36.3558176 164.675685,36.1860163 C164.796135,35.9488334 164.819506,35.6918853 164.739506,35.4448199 C164.269393,34.8060433 158.815011,29.5116551 158.564225,30.0156686 C158.761978,29.6365354 156.266697,28.8333481 156.063551,28.8198718 C155.801978,28.4901517 155.696809,28.1730095 155.699506,27.8271178 C155.709393,27.5396235 155.56827,27.393181 155.276135,27.3886889 L154.657708,27.3195106 C154.143551,26.7229598 153.659955,26.3456235 153.505348,27.0760388 C153.51973,27.046391 153.526921,27.7947747 152.822202,27.1380298 C152.695461,26.95026 152.632539,26.7454203 152.633438,26.5235106 C152.485124,26.3860524 152.04827,26.20547 152.129169,26.6349147 C152.171416,26.9071359 152.477034,27.4057589 152.573213,27.7103233 C152.175011,27.5405219 151.201528,26.9430727 151.611416,27.7534474 C151.754337,28.0418402 151.849618,28.279023 151.950292,28.6015558 C151.704899,28.4398402 151.531416,28.2987883 151.264449,28.0535196 L151.013663,28.015786 L150.843775,28.060707 C150.881528,28.3140614 150.809618,28.5296822 150.629843,28.7084677 C150.705348,28.8477228 150.752989,28.9959621 150.773663,29.1522871 C150.80782,29.3050185 150.839281,29.4586483 150.868045,29.6122781 L150.704449,29.7748921 C150.597483,30.1333616 150.736809,30.2959756 151.123326,30.2645309 C151.090966,30.386716 151.112539,30.4972217 151.187146,30.5978447 C150.398831,30.7856144 150.355685,30.8952217 151.211416,30.9060027 C150.832989,31.5034519 150.784449,31.9194203 150.762876,32.9732668 L150.79164,33.4000163 L150.901303,33.6030591 L151.13591,33.7557905 C151.238382,34.4583549 151.24018,35.3190411 151.138607,36.0782059 C151.12782,36.1464858 151.410067,36.2830456 151.410067,36.2830456 C151.308494,36.3872623 151.214112,36.4977679 151.12782,36.6154609 C151.018157,37.6216912 150.692764,38.2999982 150.001528,38.6979982 C149.638382,38.8156912 149.350742,38.7923323 149.415461,39.1957228 C149.717483,39.1552939 149.856809,39.2622059 149.832539,39.5164587 C149.570966,39.5389192 149.31209,39.5065761 149.05591,39.4239214 C148.892315,39.5784497 148.864449,39.7698131 148.969618,39.9971133 C148.752989,40.2163278 148.308944,40.0995332 149.054112,40.5253842 C148.749393,40.49933 148.562427,40.544251 148.477933,40.7913165 L148.437483,41.066233 C148.779955,41.8343819 149.421753,42.1039079 150.104899,42.0670727 L149.88018,42.0095738 C149.747146,42.0320343 149.617708,42.0670727 149.491865,42.1155874 L149.300404,41.9934023 L149.110742,42.0113707 L148.843775,42.0886348 C149.333663,42.5603052 149.925124,42.9627973 149.423551,43.0436551 L149.308494,43.1900975 L149.326472,43.3805625 C149.945798,43.7021968 150.474337,43.5773165 150.573213,43.4506393 C150.474337,43.593488 150.389843,43.7444226 150.31973,43.9052397 C149.850517,44.4999937 150.435685,45.8709824 150.809618,45.4559124 L150.733213,45.6553616 L150.530966,45.7658673 L150.504899,46.0901968 C150.720629,46.5259305 151.038831,46.8376822 151.481978,47.0335377 L151.539506,47.2770095 C153.399281,47.2150185 154.751191,46.3291765 154.855461,45.9689102 C154.890517,46.2078898 155.010966,46.2878492 155.215011,46.2105851 C155.147596,46.4315964 155.229393,46.5609688 155.460404,46.5987025 L155.543101,46.822409 C155.698607,47.3210321 156.020404,47.7325084 156.505798,48.0217995 C156.422202,48.3173797 156.524674,48.5527657 156.79973,48.6992081 C157.864899,49.9102781 157.846921,51.3836867 158.093213,51.8948876 C158.244225,52.2264045 157.523326,51.6487205 157.563775,51.6981336 C157.074787,52.1491404 157.157483,52.6729192 157.584449,53.2721652 C157.734562,53.2191585 157.881978,53.2254474 158.024899,53.2919305 L158.19209,53.5749327 C158.001528,53.5857138 157.850517,53.5911043 157.56018,53.5973932 L157.658157,53.8696144 C157.892764,54.1849598 158.271191,54.1912488 158.566921,54.0295332 C158.666697,53.7411404 158.775461,53.0053345 158.549843,52.7376054 C158.558831,52.557023 158.635236,52.0682826 158.619056,52.1150005 L158.759281,52.1123052 C158.866247,52.2839034 158.981303,52.4492126 159.104449,52.6100298 L159.224,52.7447928 C159.593438,53.0772081 160.841079,53.1185354 159.907146,52.3782375 C160.032989,52.1814835 160.198382,52.0521111 160.37636,52.0503142 C160.898607,52.2839034 161.258157,52.1895693 161.394787,51.6163774 C161.390292,51.273181 161.394787,50.9290862 161.409169,50.5867883 C160.549843,49.4727476 160.285573,48.2895287 160.99209,47.4522014 C161.251865,47.1036144 161.242876,46.8295964 160.962427,46.5564767 C159.906247,45.039944 158.029393,42.8981111 157.845124,40.6017499 L158.000629,40.343005 C157.924225,40.1390637 157.937708,39.9459034 158.041079,39.7635242 C158.139056,39.6350501 158.248719,39.5182555 158.371865,39.4140388 C158.896809,38.986391 158.905798,38.3682781 158.533663,37.7034474 C158.41591,37.601926 158.289169,37.5129824 158.155236,37.4348199 C158.160629,37.2443549 158.099506,37.0790456 157.972764,36.9388921 C158.698157,35.0531088 159.387596,36.0844948 159.913438,37.5111856 C160.106697,38.346716 160.148944,39.2550185 160.042876,39.9225445 C159.652764,39.7841878 159.373213,39.9881291 159.805573,40.426558 L159.828045,40.734716 C160.626247,41.9763323 161.358831,43.3266573 161.972764,44.6877634 C162.454562,45.101935 162.909393,45.4424361 163.401079,45.7568831 C163.660854,46.0533616 164.004225,46.1701562 164.383551,46.0901968 C164.770067,45.942856 165.126921,45.7505941 165.467596,45.5098176 C165.757933,45.780242 166.072539,45.7272352 166.413213,45.3534926 C166.649618,45.9895738 167.148494,46.3848786 167.834337,46.458549 C167.606022,46.5852262 167.384899,46.6759666 167.128719,46.7469418 C167.064,46.9688515 167.082876,47.1449418 167.171865,47.3776325 C167.002876,47.3713436 166.832989,47.3776325 166.664,47.3938041 L166.352989,47.3237273 C162.248719,47.2105264 167.508944,49.2921652 166.462652,51.3675151 C166.519281,51.2543142 164.717034,49.8617634 164.919281,50.0019169 C165.130517,52.2003503 165.531416,53.8246935 164.872539,54.6233887 C165.01636,55.5793074 164.23973,55.8290682 164.147146,54.7231133 C164.137258,54.6287792 164.05636,54.547023 164.05636,54.547023 C163.500854,54.48054 163.003775,54.5676867 162.547146,54.8066664 C162.244225,55.387944 161.643775,55.7212578 160.881528,55.8066077 C160.031191,54.6754971 159.04782,54.5290546 157.967371,55.1615422 L158.047371,54.7797138 C158.047371,54.7797138 157.997034,54.6566302 157.908045,54.4814384 C157.692315,54.4365174 157.503551,54.401479 157.281528,54.3646438 L157.116135,54.2469508 C157.15209,53.9702375 157.027146,53.7842646 156.769169,53.639619 C156.32782,53.3673977 156.104,53.0233029 156.041079,52.512102 L156.383551,52.6792081 C158.046472,53.7618041 157.074787,52.8256506 156.166921,51.9757454 C156.51209,50.8670953 156.822202,49.7027431 155.610517,48.4665174 C155.028944,47.8735603 154.398831,51.0961923 154.637034,49.7557499 C154.919281,49.7081336 155.064899,49.8141472 155.049618,50.0719937 C154.530966,50.7134655 156.139955,55.3025941 155.733663,55.4975512 C155.915236,55.4122014 153.913438,55.3627883 153.915236,55.3636867 L153.452315,55.3861472 C152.876135,56.2980433 151.985348,57.6295016 151.675236,58.0589463 C151.258157,58.5593661 150.428494,59.2574384 149.830742,59.6338763 C149.809169,59.8369192 149.842427,60.0264858 149.929618,60.2043729 C149.725573,60.3903458 149.569169,60.5304993 149.399281,60.679637 C147.803775,60.9204135 146.903101,60.8898673 146.755685,61.6023142 C146.837483,61.7505535 146.898607,61.9059801 146.939056,62.0694926 C146.716135,62.451321 146.17591,62.4746799 145.55209,62.277926 C145.619506,62.0452352 145.53591,61.8862149 145.301303,61.800865 L144.971416,61.7056325 L144.715236,61.8754339 L144.468045,62.0003142 L144.211865,61.8691449 C143.848719,61.9275422 143.660854,61.935628 143.262652,61.9122691 L143.093663,62.1180072 C143.459506,62.4495242 143.615011,62.8645941 143.570067,63.392865 C143.842427,63.6471178 144.141753,63.7261788 144.459056,63.5959079 C144.708045,63.7468424 144.950742,63.897777 145.195236,64.0532036 C146.323326,64.7395964 147.324674,65.9470727 147.792989,67.1275964 C147.970067,67.5094248 148.027596,67.7061788 147.979955,68.034102 C148.237933,69.4437228 147.96018,70.6772533 146.921079,71.2773977 L146.48782,71.2585309 C145.442427,70.9467792 144.429393,70.7033074 143.403775,70.518233 L142.938157,70.4023368 C141.878382,70.2684722 141.065798,70.0250005 140.210966,69.5766889 L139.928719,69.4652849 C139.616809,69.5542284 139.483775,69.7770366 139.464,70.1130456 C139.281528,70.0564451 139.099056,69.9989463 138.916584,69.9378537 C138.445573,69.9387521 138.110292,70.1265219 138.066247,70.5514745 C138.23164,70.702409 138.378157,70.8210005 138.557933,70.9485761 L138.628045,71.0986122 L138.740404,71.2764993 C138.686472,72.2018718 138.749393,72.9071314 138.969618,73.7417634 C138.744899,75.1073616 138.413213,76.2285896 137.898157,77.3758718 C138.623551,78.0892172 138.803326,78.9525986 138.358382,79.991172 C139.810067,80.1960117 141.09636,80.904865 141.952989,82.2417138 C143.384,82.1680433 145.372315,82.0979666 147.335461,82.0548424 C149.171865,81.039628 150.031191,79.3604813 149.592539,77.5564542 C150.184,76.886233 150.702652,76.2142149 151.101753,75.6077815 L151.410966,75.5386032 C152.974112,73.9421111 152.845573,71.806567 155.389393,72.5944813 C155.840629,73.163181 156.370067,73.2826709 156.93636,72.8496325 C157.994337,71.3654429 159.133213,71.0024813 160.442876,72.6115512 C160.365573,72.8092036 160.383551,72.9969734 160.49591,73.1757589 L160.765573,73.377005 C160.844674,73.9816415 161.140404,74.5979576 161.556584,75.0004497 C161.939506,75.1918131 162.27209,75.5412984 162.450966,75.9446889 C162.79973,76.7703368 163.37591,77.2797409 164.196584,77.4791901 L164.308045,77.6579756 C164.308045,77.6579756 164.356584,77.8044181 164.444674,77.9796099 C165.194337,78.640847 165.739056,79.240093 166.339506,80.0684361 C166.665798,80.6425264 166.80782,81.3271223 166.673888,81.8311359 C166.453663,84.2056596 167.478382,82.4744045 167.241079,82.0323819 C167.268944,81.8922284 167.345348,81.7880117 167.47209,81.7197318 C167.409169,81.050409 167.51164,79.5392668 167.571865,79.3505986 C168.178607,79.9067205 168.342202,80.3128063 169.037034,80.164567 L168.945348,79.7494971 C168.537258,79.2913029 166.384449,77.3156777 166.522876,76.8871314 L166.607371,76.5295603 C165.72018,76.5205761 164.979506,76.0354293 164.472539,75.2223594 C164.086022,73.9088695 163.344449,72.6789327 162.415011,71.7652397 C162.441978,71.1120885 162.315236,70.5388966 162.075236,70.1408966 C162.388045,70.2010907 162.597483,70.0986709 162.702652,69.833637 C162.702652,69.833637 163.046022,69.7932081 163.341753,69.8686754 C163.479281,71.2675151 163.820854,71.5451269 164.370067,70.5775287 C164.603775,71.2585309 164.836584,71.9215648 165.079281,72.5971765 L165.153888,72.917014 C165.565573,73.214391 165.866697,73.522549 166.137258,73.9286348 C166.581303,74.1199982 166.919281,74.4479214 167.013663,74.8315467 C170.062652,76.6032307 169.841528,81.2148199 171.52782,83.5929372 C171.317483,84.414093 171.636584,85.3816912 172.334112,85.9971088 C172.903101,86.583777 173.384,86.8820524 173.142202,85.7177002 C172.779955,85.1193526 172.964225,84.9414655 173.523326,85.0034564 C172.896809,84.3709688 171.857708,83.5507115 172.629843,83.6037183 C172.864449,83.7169192 173.639281,84.7096731 173.753438,84.6979937 C174.833888,84.5901833 173.014562,81.7125445 172.737708,82.2623774 C172.665798,81.9892578 172.281079,80.7952578 172.259506,80.3388605 C172.307146,81.330716 173.920629,80.1214429 173.481978,80.1528876 L173.239281,79.9309779 L173.365124,79.7027792 L173.772315,79.6398898 L173.842427,79.3739576 C173.842427,79.3739576 174.050067,79.2194293 174.281079,79.3164587 C174.406921,79.4997363 174.544449,79.6749282 174.692764,79.8402375 L174.948944,79.9714068 L175.222202,80.1978086 C175.222202,80.1978086 175.346247,80.1852307 175.564674,80.1564813 L175.853213,80.0765219 L176.004225,79.8824632 C176.004225,79.8824632 176.237933,79.5473526 176.444674,79.3937228 C177.487371,80.1699576 177.227596,80.5041698 176.00782,80.4691314 C175.805573,80.4466709 175.602427,80.4367883 175.399281,80.4403819 C175.150292,80.2723774 175.030742,80.3262826 175.038831,80.6020975 C175.022652,81.3046619 175.099955,81.8311359 175.491865,81.8733616 C175.866697,82.6954158 175.844225,83.4249327 175.374112,84.1086302 C175.498157,84.2272217 175.635685,84.33054 175.786697,84.4167883 L175.974562,84.5991675 C176.152539,84.8839666 176.19209,85.2038041 176.108494,85.5452036 L176.334112,85.8875016 C176.781753,86.9709959 176.561528,86.5972533 177.658157,87.6906302 C178.441978,88.0679666 178.629843,87.5594609 178.544449,86.6817047 C178.75209,86.7517815 178.916584,86.8802555 179.038831,87.0644316 C179.549393,88.3788199 180.05636,88.7444767 180.477933,87.2800524 C180.754787,87.2827476 181.00827,87.3618086 181.237483,87.5181336 C181.402876,87.4237995 181.526022,87.2872397 181.606022,87.110251 L181.589843,87.632233 C181.432539,90.0669508 181.398382,92.6633842 180.806022,95.1367341 C180.734112,95.7413707 180.387146,96.1573391 179.803775,96.3127657 C179.354337,96.1519485 179.29591,95.8806257 179.376809,95.4772352 C178.622652,95.6425445 177.690517,95.9569914 177.185348,96.1977679 L177.007371,95.9551946 L176.554337,95.7018402 C176.469843,95.3613391 176.261303,95.1133752 175.929618,94.9606438 L175.588045,94.7854519 C175.247371,94.958847 174.950742,94.8932623 174.699056,94.5904948 C173.746247,92.7747883 172.273888,92.0237093 170.358382,93.0757589 C170.64782,94.7584993 170.428494,95.9605851 168.845573,95.4098537 C168.577708,95.1358357 168.325124,94.851935 168.085124,94.5554564 C167.392989,94.3416325 166.802427,94.0514429 166.201079,93.6246935 C166.092315,93.4027837 166.045573,93.1691946 166.059955,92.9248244 L166.174112,92.5717454 C166.351191,92.3552262 166.315236,92.1845264 166.067146,92.0614429 C165.620404,91.712856 165.257258,91.5304767 164.669393,91.3579801 C163.773213,91.2393887 163.036135,90.8512713 162.347596,90.0840208 L161.946697,89.9007431 L161.926022,89.6195377 C161.47209,89.5027431 161.129618,89.2790366 160.868045,88.9061923 L160.919281,88.3581562 L161.126022,88.203628 L161.410067,87.9376957 L161.675236,87.6079756 L161.828045,87.1982962 L161.971865,86.8497093 L162.072539,86.5873707 C162.072539,86.5873707 161.933213,86.2881968 161.784899,86.0501156 L161.436135,85.7203955 L161.300404,85.3915738 L161.495461,85.1121652 L161.724674,84.8067025 L161.979955,84.5371765 C161.979955,84.5371765 162.050966,84.2694474 161.936809,84.005312 L161.661753,83.9954293 C161.36782,84.3925309 161.185348,84.3853436 161.114337,83.9747657 L161.144899,83.763637 L161.046022,83.4087612 L160.754787,83.303646 C158.997483,83.5507115 156.921978,83.5057905 155.346247,83.2021246 C154.553438,82.9074429 153.622202,82.8759982 152.903101,83.1446257 C151.228494,83.0835332 149.756135,83.4051675 148.344,84.1265986 C146.576809,85.0843142 144.587596,84.7231494 143.052315,83.2407567 C142.95164,82.8238898 142.658607,82.7951404 142.246921,83.0889237 C142.191191,83.337786 142.134562,83.5866483 142.075236,83.8346122 C140.23164,85.9324226 137.649169,86.8461156 136.699056,89.4766889 C136.652315,89.778558 136.607371,90.0804271 136.563326,90.3822962 L136.593888,90.7883819 L136.80782,91.0049011 C135.259955,94.0703097 131.428944,94.374874 129.27164,96.9407612 C127.977258,99.2290366 126.659506,100.914472 125.067596,102.728382 C124.502202,103.563014 124.262202,104.326671 124.947146,104.562057 C125.595236,105.291574 125.529618,106.109136 124.939056,106.87459 C125.337258,109.363213 124.523775,111.611958 122.621753,113.161732 L122.325124,113.301885 C122.726921,114.105971 123.188944,115.447312 123.238382,115.815664 C123.118831,115.574888 122.941753,115.394305 122.706247,115.27212 C122.416809,116.379872 122.45636,116.958454 123.054112,117.453484 C122.835685,118.110228 123.210517,117.693362 123.619506,118.186594 C124.552539,117.902693 124.975011,117.901795 124.083326,118.564829 C123.964674,118.906228 124.055461,119.187434 124.356584,119.408445 C124.334112,119.554888 125.193438,120.557524 125.345348,120.790215 C125.762427,121.370594 126.072539,121.845858 126.417708,122.432526 C126.268494,122.604125 126.138157,122.790098 126.028494,122.991344 C125.924225,123.622034 126.078831,124.18175 126.512989,124.668693 C129.420854,127.764648 132.79164,131.490395 137.254562,129.487818 C137.561978,129.782499 137.899955,130.025971 138.277483,130.229014 C140.156135,130.02687 142.073438,129.450084 144.077933,128.938883 L144.477034,128.937086 C146.778157,128.996382 147.710292,130.283818 147.452315,132.405885 C147.75164,132.447213 148.031191,132.396003 148.301753,132.255849 C149.484674,132.09593 149.354337,132.57389 150.358382,131.824608 C149.897258,132.168702 151.074787,133.309696 151.017258,133.157863 C150.673888,134.949312 149.929618,136.531429 148.893213,137.745195 L148.635236,138.23124 C148.441079,138.613068 148.12827,138.935601 147.742652,139.084739 C147.811865,141.01724 147.915236,143.253407 148.01591,145.050247 C147.981753,144.833727 148.082427,145.940581 147.91973,146.014251 C158.323326,142.730526 168.436584,138.357917 177.663551,132.506508 C178.444674,130.834549 179.172764,129.132942 179.855011,127.408874 C179.756135,127.590355 178.773663,128.316278 178.633438,128.382761 C179.721978,127.863474 179.411865,117.98445 179.677034,116.257687 C180.166022,112.88412 180.397034,109.656098 179.997933,106.308585 C180.065348,104.890879 179.965573,103.273723 179.72827,101.948553 C179.438831,100.751858 179.340854,99.5632488 179.437034,98.3566709 C179.667146,99.4698131 179.907146,100.6144 180.154337,101.765276 C180.379056,101.197474 180.52827,100.481434 180.566921,99.8219937 C180.574112,100.381709 180.602876,100.943222 180.653213,101.50114 C181.304899,104.275461 180.987596,106.941073 181.631191,109.731565 C181.173663,111.904842 180.983101,113.990973 181.037034,116.184016 C180.724225,118.2971 179.664449,125.262549 180.084225,124.61928 C180.490517,124.124251 181.029843,123.828671 181.384,123.284228 C183.365124,117.495709 184.810517,111.488874 185.546697,105.410165 C185.544899,105.405673 185.544,105.402079 185.541303,105.396689 C185.494562,105.295167 185.531416,105.206224 185.579056,105.119077 C185.597034,104.97533 185.611416,104.832481 185.627596,104.688734 C185.299506,103.672621 184.999281,99.2362239 186.125573,98.65854 C186.307146,95.0334158 186.274787,91.4388379 186.046472,87.8864858" id="Fill-29" fill="#D1D4F2"></path>
                <path d="M122.738517,33.8288321 C122.381663,34.9770126 126.352,34.2250352 126.590202,34.104647 C131.741663,32.6483084 126.802337,29.4921594 125.125034,29.8919562 C125.026157,30.2648005 124.878742,30.4256176 124.609079,29.9269946 L124.140764,29.9458614 C124.096719,30.1201549 123.811775,29.9009404 123.042337,30.0051571 C123.177169,30.2432384 123.100764,30.3591345 122.813124,30.3510488 C122.538067,29.4786831 122.025708,29.9773061 121.255371,30.5199517 C121.358742,30.0105476 121.22391,29.6206334 120.85627,29.3187643 C120.425708,28.8875228 119.946607,28.6683084 119.391101,28.7195183 L119.386607,28.8974054 L119.591551,29.0177937 C119.815371,29.1606424 119.921438,29.3717711 119.878292,29.619735 C119.494472,28.9809585 119.101663,28.8426018 118.729528,29.5820014 C119.223011,29.910823 119.095371,29.9791029 118.553348,29.8685973 C117.717393,30.4624528 118.888629,30.2827688 119.544809,30.2180826 C120.00773,30.3735093 120.206382,30.4337034 120.714247,30.5729585 C120.897618,30.8676402 120.949753,31.5037214 119.840539,31.0679878 C120.316045,33.1424393 121.036944,31.6007508 120.138966,32.8953738 C119.959191,33.1523219 122.866157,33.4173558 122.738517,33.8288321" id="Fill-31" fill="#D1D4F2"></path>
                <path d="M67.3623371,19.4931955 C67.6257079,19.3323783 69.3902022,19.2146853 69.2095281,18.3584912 C69.0108764,17.4115567 66.1515506,18.5184099 66.0670562,19.0907034 C65.9879551,19.6072948 67.1160449,19.6432316 67.3623371,19.4931955" id="Fill-33" fill="#D1D4F2"></path>
                <path d="M75.5316854,4.63458871 C75.8831461,4.84122528 76.8889888,4.80888217 77.2080899,4.49263837 C79.5101124,4.65884605 81.5244944,3.78737878 82.7217978,1.73269255 C81.2296629,1.88003341 79.425618,2.27983025 78.2301124,2.7254465 C77.1164045,3.33906727 77.3914607,3.2456316 76.6723596,3.46304921 L76.5510112,3.65351422 L76.2453933,3.70023205 C76.108764,3.86733815 75.9694382,4.03085056 75.8274157,4.19346456 C75.5289888,4.19615982 75.0813483,4.36955485 75.5316854,4.63458871" id="Fill-35" fill="#D1D4F2"></path>
                <path d="M35.8643596,95.8400172 C36.0522247,96.0628253 36.0800899,96.0673174 36.319191,96.1311052 C36.5582921,96.194893 36.6400899,96.2065725 36.7982921,96.2586808 C36.9564944,96.3098907 36.937618,96.2514935 37.1434607,96.1706357 C37.3493034,96.0897779 37.2989663,96.0547395 37.5308764,96.1733309 C37.7618876,96.2910239 37.7888539,96.295516 37.9012135,96.284735 C38.013573,96.2730555 38.1178427,96.3170781 38.1564944,96.2389156 C38.1960449,96.1616515 38.2679551,95.8660713 38.0243596,95.8292361 C38.0243596,95.8292361 37.5182921,95.6980668 37.4382921,95.4905318 C37.359191,95.2829968 37.1317753,95.1374528 37.0311011,95.0673761 C36.9313258,94.9964009 36.5753708,94.9712451 36.4126742,94.9469878 C36.2508764,94.9227305 35.7861573,94.8805047 35.7861573,94.8805047 C35.7861573,94.8805047 35.3951461,94.9047621 35.286382,94.8885905 C35.1785169,94.872419 35.039191,94.8796063 35.053573,94.9658546 C35.0688539,95.0512045 35.213573,95.3800262 35.3798652,95.3773309 C35.5461573,95.3737372 35.7834607,95.270419 35.8086292,95.4689698 C35.8346966,95.668419 35.6764944,95.6163106 35.8643596,95.8400172" id="Fill-37" fill="#D1D4F2"></path>
                <path d="M52.5449888,97.9232731 C52.8200449,97.9367494 53.0546517,98.0283883 52.9018427,97.7543702 C52.7490337,97.4803521 52.6726292,97.4408217 52.5180225,97.3617607 C52.3634157,97.2835982 52.376,97.201842 52.070382,97.2117246 C51.7638652,97.2216072 51.6092584,97.1425463 51.3539775,97.1874673 C51.0986966,97.2323883 50.9090337,97.2045372 50.8434157,97.0832506 C50.7786966,96.9619639 50.8461124,97.2503567 50.6294831,97.2180135 C50.3742022,97.1802799 50.4568989,97.638474 50.4595955,97.8055801 C50.4622921,97.9735847 50.3993708,98.0203025 50.7867865,98.0220993 C51.1742022,98.0238962 51.4564494,97.9834673 51.5652135,97.9996388 C51.6730787,98.0158104 51.7881348,98.1721354 52.0083596,98.177526 C52.2294831,98.1829165 52.2798202,98.2179549 52.4038652,98.1254176 C52.5279101,98.0328804 52.2699326,97.9106953 52.5449888,97.9232731" id="Fill-39" fill="#D1D4F2"></path>
                <path d="M45.2490787,96.7458939 C45.5196404,96.7863228 45.6526742,96.6389819 45.7902022,96.8267517 C45.9277303,97.0145214 46.0868315,97.0666298 46.1803146,96.996553 C46.2737978,96.9273747 46.4400899,96.923781 46.5452584,96.7728465 C46.6513258,96.621912 46.672,96.4853521 46.7672809,96.5832799 C46.8634607,96.6812077 47.7146966,96.7261287 47.864809,96.8312438 C48.0149213,96.9372573 48.0733483,96.9183905 48.2585169,96.9740926 C48.4445843,97.0297946 48.4796404,96.9794831 48.6495281,96.9489368 C48.8203146,96.9192889 48.9371685,96.8806569 48.9344719,96.7126524 C48.9317753,96.5455463 48.8553708,96.3119571 48.7870562,96.217623 C48.7178427,96.1232889 48.6612135,95.9480971 48.5254831,95.9274334 C48.3906517,95.9067698 48.3088539,95.8950903 48.1425618,95.8977856 C47.9762697,95.9013792 47.7093034,95.8322009 47.6364944,95.7666163 C47.5636854,95.6992348 47.246382,95.5968149 47.4405393,95.5977133 C47.6337978,95.5986117 47.7884045,95.6776727 47.7542472,95.5330271 C47.7209888,95.3883815 47.8099775,95.3461558 47.5933483,95.3138126 C47.3767191,95.2814695 47.1214382,95.3263905 47.079191,95.2365485 C47.0369438,95.1467065 46.9524494,95.1619797 46.9758202,94.9984673 C47.0009888,94.8349549 46.9587416,94.7451129 46.8005393,94.6930045 C46.6414382,94.6417946 46.5146966,94.5672257 46.4293034,94.5816005 C46.344809,94.5968736 46.1164944,94.4513296 46.1164944,94.4513296 C46.1164944,94.4513296 45.9816629,94.4315643 45.9124494,94.3372302 C45.8441348,94.2428962 45.6041348,94.1800068 45.6041348,94.1800068 C45.6041348,94.1800068 44.7178427,94.1853973 44.6171685,94.1153205 C44.5173933,94.0443454 44.5075056,94.2932077 44.2405393,94.2258262 C43.9744719,94.1584447 43.9933483,94.216842 43.784809,94.1296953 C43.5762697,94.0425485 43.6077303,94.0191896 43.340764,93.9518081 C43.0746966,93.8835282 43.3659326,93.7882957 42.9551461,93.7541558 C42.5452584,93.7209142 42.3555955,93.6930632 42.2396404,93.7307968 C42.1227865,93.7694289 42.2378427,93.925754 42.2531236,94.0111038 C42.2684045,94.0973521 42.3600899,94.2222325 42.526382,94.2195372 C42.6926742,94.216842 42.9524494,94.14407 42.9093034,94.2491851 C42.8661573,94.3543002 42.8688539,94.5214063 42.7978427,94.6229278 C42.7277303,94.7235508 42.7493034,94.9499526 42.8230112,95.0164357 C42.8958202,95.0829187 43.1349213,95.1467065 43.0917753,95.2518217 C43.0486292,95.3569368 42.8778427,95.3865847 42.9434607,95.5078713 C43.0072809,95.629158 43.2652584,95.9463002 43.2652584,95.9463002 C43.2652584,95.9463002 42.8239101,95.9364176 42.6072809,95.9031761 C42.3906517,95.870833 42.2782921,95.8825124 42.1012135,95.7720068 C41.923236,95.6615011 41.5906517,95.6677901 41.4099775,95.5851354 C41.2275056,95.5015824 41.3362697,95.517754 41.0198652,95.4144357 C40.7034607,95.3111174 40.4823371,95.3057269 40.4167191,95.3793973 C40.3502022,95.4530677 40.0769438,95.802553 40.3511011,95.8160293 C40.6252584,95.8286072 40.9299775,96.0145801 40.8553708,96.1421558 C40.780764,96.2706298 40.6612135,96.3362144 40.8149213,96.4152754 C40.9695281,96.4943363 41.1313258,96.5185937 41.2787416,96.4566027 C41.4270562,96.3955102 41.4971685,96.2948871 41.617618,96.2284041 C41.7380674,96.1637178 41.7497528,96.0810632 41.8998652,96.1879752 C42.0508764,96.2939887 42.1677303,96.2553567 42.344809,96.3658623 C42.5218876,96.4763679 42.5353708,96.1996546 42.7978427,96.2948871 C43.0603146,96.3901196 43.1573933,96.2930903 43.2850337,96.3676591 C43.4126742,96.442228 43.5475056,96.4628916 43.5475056,96.4628916 C43.5475056,96.4628916 43.683236,96.4835553 43.770427,96.6353883 C43.8585169,96.7881196 44.1146966,96.7431986 44.090427,96.9067111 C44.0661573,97.0702235 43.9681798,97.1663544 44.1416629,97.3047111 C44.3142472,97.4412709 44.2495281,97.3208826 44.4625618,97.3801783 C44.6746966,97.439474 44.7681798,97.3702957 44.912,97.3361558 C45.0549213,97.3020158 45.1960449,97.0998713 45.1852584,96.9866704 C45.1744719,96.8743679 45.1403146,96.7288239 45.2490787,96.7458939" id="Fill-41" fill="#D1D4F2"></path>
                <path d="M46.555236,14.4360799 C46.8446742,14.5744366 47.1242247,14.5537729 47.3929888,14.3731905 C47.9853483,14.4657278 48.5974831,14.4154163 49.1538876,14.2276465 C49.3498427,14.3381521 50.4923146,13.8449196 50.5390562,13.7991002 C48.772764,15.5573079 60.3161348,8.48943883 60.0995056,8.4067842 C59.0729888,8.00788578 57.4019775,9.24051783 56.4293933,9.6915246 C53.842427,10.280888 56.7556854,9.37348397 56.395236,9.20817472 C54.9561348,8.55053138 57.0810787,8.45260361 57.2608539,7.32239142 C54.5102921,8.47236885 51.8217528,9.75171874 49.2015281,11.1550506 C49.8415281,11.4111002 50.5372584,11.2763372 50.4231011,12.0615562 C50.5048989,11.5359806 47.6284944,13.4397323 47.5925393,13.5700032 C47.5736629,13.5789874 46.3862472,14.3704953 46.555236,14.4360799" id="Fill-43" fill="#D1D4F2"></path>
                <path d="M71.2585169,4.54905914 C71.7708764,4.28851738 74.5070562,3.91297788 73.9461573,2.93909074 C73.8266067,2.73065734 71.3367191,3.69466185 71.1596404,3.74766862 C71.1389663,3.77641806 70.3506517,5.01264379 71.2585169,4.54905914" id="Fill-45" fill="#D1D4F2"></path>
                <path d="M62.3553258,9.46179865 C62.7643146,9.40789345 63.9795955,8.33877381 63.648809,8.33697698 C62.4083596,8.32799278 61.6209438,8.97665192 60.5135281,9.48605598 C60.0128539,9.77444876 59.7377978,9.70886411 59.4618427,9.44472867 C58.7067865,9.88225914 58.2654382,10.5264262 58.0919551,11.3907061 C59.3755506,11.4455097 61.2802697,9.6046474 62.3553258,9.46179865" id="Fill-47" fill="#D1D4F2"></path>
                <path d="M70.1024719,6.82844018 C69.8220225,7.10695034 67.891236,7.83916253 68.2229213,8.49051693 C69.0229213,10.0816185 76.5519101,8.48063431 76.2013483,8.15989842 C75.4777528,7.5031535 71.8939326,7.16624605 71.3420225,6.9919526 C71.228764,7.0782009 73.2080899,6.31993454 72.3946067,5.94619187 C70.9986517,5.31011061 71.0975281,5.65061174 69.8462921,5.77189842 C69.2296629,6.23009255 70.1842697,6.36126185 70.3604494,6.33520767 C70.3550562,6.54094582 70.2696629,6.70535666 70.1024719,6.82844018" id="Fill-49" fill="#D1D4F2"></path>
                <path d="M64.7434607,54.2437165 C65.3609888,54.3362537 65.7277303,54.422502 66.3326742,54.4817977 C66.464809,54.2544975 66.639191,54.0649309 66.857618,53.913098 C66.3803146,53.795405 65.3403146,53.4935359 64.8657079,53.6489625 C64.5286292,53.4593959 64.2868315,53.1844795 64.1430112,52.8242131 C63.7618876,53.2482673 64.4360449,54.1978971 64.7434607,54.2437165" id="Fill-51" fill="#D1D4F2"></path>
                <path d="M138.957393,44.7892849 C138.623011,44.8997905 137.668404,45.9859801 138.632899,46.0219169 C139.277393,46.0452758 139.653124,44.5637815 138.957393,44.7892849" id="Fill-53" fill="#D1D4F2"></path>
                <path d="M139.667056,47.2629832 C139.750652,47.293545 140.074247,47.3771405 140.074247,47.3771405 C140.170427,47.3681517 139.579865,46.5043315 139.494472,46.4000619 C138.999191,46.6292753 139.115146,47.0616349 139.667056,47.2629832" id="Fill-55" fill="#D1D4F2"></path>
                <path d="M137.010337,13.5556284 C137.402247,13.5484411 139.964944,16.0253847 140.121348,15.5034027 C140.501573,14.1997955 136.666067,13.5619174 137.010337,13.5556284" id="Fill-57" fill="#D1D4F2"></path>
                <path d="M140.144989,45.7149269 C140.243865,45.7957847 139.825888,48.4443264 140.107236,48.6985792 C140.459596,49.0220104 140.562067,47.9232429 140.758022,47.8882045 C140.461393,47.9412113 140.889258,50.461279 140.887461,50.4531932 C141.007011,49.889884 141.595775,49.1406018 141.56791,49.3274731 C141.449258,50.1162858 142.002966,52.6004167 142.846112,51.4234867 C142.84791,51.4216898 143.553528,51.5070397 143.504989,51.5043445 C143.693753,51.4423535 143.842966,53.852814 143.610157,54.1178479 C143.443865,54.116051 143.282067,54.1385115 143.122966,54.1870262 C143.080719,53.7782451 142.386787,53.6291074 142.657348,54.3487418 L142.628584,54.5401052 C142.539596,55.5202813 142.609708,54.8815047 142.127011,56.2444077 C141.841169,57.0413061 143.277573,56.9990804 143.293753,56.9532609 C143.178697,57.2605205 144.901843,57.6612158 145.069933,57.362042 C144.54409,58.2613603 142.725663,57.5929359 142.153978,59.0241187 C141.721618,60.0375363 143.405213,59.2613016 143.589483,59.1157576 C144.289708,59.7257847 144.667236,59.4203219 144.948584,58.7680691 C145.593978,59.1211481 146.30409,59.161577 147.028584,58.919902 C147.611955,59.2100916 148.40836,59.2684889 149.092404,59.0690397 C149.602067,57.8507824 150.227685,58.7824438 148.697798,58.1562451 C151.238921,59.2244664 147.193978,54.0423806 147.712629,55.6406695 C147.474427,54.8994731 145.826787,52.6875634 145.724315,52.2644077 C145.429483,50.9464257 144.937798,50.0309359 143.662292,49.6230533 L143.477124,49.6841458 C144.366112,48.2897982 144.499146,46.9242 142.021843,46.6367056 C141.930157,46.8074054 141.813303,46.8810758 141.663191,46.7966244 L141.63173,46.6492835 C141.976,46.4282722 142.063191,46.2890172 141.570607,46.2306199 C142.284315,45.9431255 142.710382,45.5388366 142.06409,44.9350984 C141.789933,44.9458795 140.50364,44.850647 140.404764,45.0420104 C140.277124,45.2513422 140.190831,45.4750488 140.144989,45.7149269" id="Fill-59" fill="#D1D4F2"></path>
                <path d="M59.2961798,7.47593138 C60.4925843,7.65561535 61.2026966,6.91082528 62.5393258,7.15250023 C62.8916854,7.01953409 66.2408989,5.9800623 65.7438202,4.92531738 C65.5730337,4.55606682 63.2593258,6.34751603 62.9033708,6.09595847 C64.1644944,6.98719097 62.6247191,4.37548442 62.7775281,5.24425643 C62.7766292,5.23706907 62.7757303,5.2289833 62.7739326,5.22179594 C61.6844944,5.59733544 60.6040449,5.99443702 59.5316854,6.409507 C59.992809,6.82996749 60.1591011,7.60530384 59.2961798,7.47593138" id="Fill-61" fill="#D1D4F2"></path>
                <path d="M140.746337,52.5850537 C142.824539,53.2669544 139.111281,49.1737535 139.309034,50.2509589 C139.301843,50.2078348 137.165213,49.7128054 137.558022,50.967898 C138.154876,52.7602456 136.537798,50.3183404 135.98409,51.4611305 C135.972404,51.6668686 136.059596,51.7926474 136.245663,51.8384668 C136.314876,52.7135278 136.020944,53.0675052 137.219146,53.2480876 C136.557573,53.1510582 136.492854,55.7331169 136.463191,55.8436226 C136.998022,56.2479115 137.525663,56.3566203 138.150382,56.169749 C138.382292,56.0870944 138.612404,55.9999476 138.83982,55.9083088 C141.113978,55.7106564 141.518472,54.4573607 140.362517,52.4952117 C140.398472,52.4332208 140.645663,52.5518122 140.746337,52.5850537" id="Fill-63" fill="#D1D4F2"></path>
                <path d="M162.606831,49.330977 C162.48818,49.1935187 162.334472,49.1468009 162.14391,49.1926203 C162.147506,49.2159792 161.805034,51.0227016 162.463011,50.9068054 C162.716494,50.860986 162.832449,49.5106609 162.606831,49.330977" id="Fill-65" fill="#D1D4F2"></path>
                <path d="M47.7850787,39.4979512 C47.6754157,39.5500596 46.9311461,39.7782582 46.7819326,40.0971973 C48.5688989,41.5912695 47.4686742,39.6488858 47.7850787,39.4979512" id="Fill-67" fill="#D1D4F2"></path>
                <path d="M57.073618,27.3644316 C57.5158652,27.7157138 58.2718202,26.7921381 58.4920449,26.4471449 C58.4542921,25.9485219 58.2187865,25.8200479 57.7963146,26.1012533 C57.5886742,26.2539847 56.5684494,26.9637363 57.073618,27.3644316" id="Fill-69" fill="#D1D4F2"></path>
                <path d="M59.1509213,23.6413797 C58.6529438,23.0115874 57.5491236,21.2443955 57.3963146,20.9038944 C57.3558652,19.6802465 53.1518202,22.5012849 52.9981124,23.5254835 C53.1904719,22.2452352 54.389573,25.1866619 53.8169888,24.4823007 C54.1324944,24.4077318 54.440809,24.3098041 54.7419326,24.1903142 L54.9324944,24.1651585 C55.1706966,24.0268018 55.4196854,23.9118041 55.6794607,23.8201652 C56.1199101,23.5614203 56.4812584,23.3826348 56.8596854,23.2442781 C57.0826067,23.3314248 57.2201348,23.4868515 57.2713708,23.7087612 C57.9850787,24.6323368 58.6897978,24.7644045 59.1509213,23.6413797" id="Fill-71" fill="#D1D4F2"></path>
                <path d="M130.953888,11.3279964 C132.307596,11.1492108 138.644674,16.9251521 138.986247,16.4903169 C139.854562,15.37987 134.483775,11.8670483 133.816809,11.5490077 L133.731416,11.3513553 C133.971416,11.2237797 134.136809,11.2947549 134.228494,11.5642808 C134.504449,11.6532244 136.175461,12.5848858 136.385798,12.3512966 C136.893663,11.7897842 133.902202,10.6991025 133.855461,10.6748451 L133.633438,10.6191431 C132.973663,10.648791 131.135461,11.3037391 130.953888,11.3279964" id="Fill-73" fill="#D1D4F2"></path>
                <path d="M55.8692135,24.8705079 C56.0759551,24.8336727 53.4791011,25.3826072 54.3078652,25.8461919 C55.3685393,26.4409458 57.8593258,24.5174289 55.8692135,24.8705079" id="Fill-75" fill="#D1D4F2"></path>
                <path d="M67.2526742,49.6779467 C67.5340225,50.3230122 67.9852584,50.4020731 68.6045843,49.9151296 C68.8131236,49.8082176 66.1497528,47.8245065 65.2742472,48.1883666 C65.4567191,48.1120009 67.2481798,49.6680641 67.2526742,49.6779467" id="Fill-77" fill="#D1D4F2"></path>
                <path d="M39.3097528,91.1254691 C38.4854831,90.6016903 36.2760449,88.1678709 34.3281798,87.1203133 C32.3812135,86.0718573 29.1227865,86.8471937 29.1227865,86.8471937 C29.1227865,86.8471937 27.4140225,88.4320063 28.4962697,88.7060244 C28.5412135,88.7195007 28.5915506,88.7293833 28.6499775,88.7383675 C28.850427,88.7680153 28.9106517,88.7976632 29.0346966,88.7536406 C29.832,88.7446564 30.2131236,88.4059521 30.3569438,88.2244713 C30.3937978,88.2011124 30.4225618,88.1687693 30.4315506,88.1139657 C30.4315506,88.1139657 31.2899775,88.1400199 31.5605393,88.3538438 C31.5587416,88.3583359 31.5569438,88.3610312 31.5560449,88.3664217 C31.5084045,88.4984894 31.5128989,88.4706384 31.6396404,88.5461056 C31.5344719,88.8389905 33.1614382,89.4364397 34.020764,89.7293246 C34.1996404,89.8353381 34.4468315,89.9674059 34.5367191,89.9000244 C34.5367191,89.9000244 36.2760449,92.2862275 36.1259326,92.9968777 C35.9767191,93.7084262 39.5344719,93.9707648 41.2261573,93.7120199 C42.9187416,93.4541734 40.1340225,91.6492479 39.3097528,91.1254691" id="Fill-79" fill="#D1D4F2"></path>
                <path d="M173.890876,134.792268 C175.187056,134.043884 176.441888,133.281126 177.663461,132.506688 C183.250876,120.54872 186.378067,107.210778 186.378067,93.1415233 C186.378067,85.6522953 185.489079,78.3715007 183.818966,71.394372 C183.70391,70.9182095 183.577169,70.4465391 183.454921,69.9730718 C183.319191,69.4430041 183.182562,68.9129363 183.037843,68.3873607 C182.826607,67.6281959 182.606382,66.8726248 182.377169,66.1215458 C182.316944,65.9211982 182.25582,65.721749 182.193798,65.5222998 C175.223011,43.2127377 160.138966,24.5004488 140.405933,12.860521 C148.645034,26.8022005 153.381213,43.0716858 153.381213,60.4516181 C153.381213,107.671668 118.46436,146.709808 73.1061573,153.044566 C108.586607,156.685862 146.475146,150.612544 173.890876,134.792268" id="Fill-81" fill-opacity="0.1" fill="#4F3B63"></path>
                <path d="M49.0218427,144.076988 C48.8555506,144.022185 48.9094831,143.855079 48.9094831,143.855079 L48.8294831,143.608912 L48.5580225,143.478641 C48.1085843,143.351963 47.8263371,143.082437 47.7858876,142.600884 C47.921618,142.195697 48.1409438,142.190307 48.4142022,142.48948 C48.7261124,143.043805 49.0730787,143.539733 49.4946517,144.03027 C49.4946517,144.03027 49.1890337,144.131792 49.0218427,144.076988 M92.2577978,138.366632 C92.110382,136.254447 87.1989213,132.708383 84.5724045,132.30679 C83.6474607,132.252884 82.5813933,131.880939 81.6519551,131.302356 C80.4834157,131.45958 80.204764,131.496415 79.7310562,131.723715 C80.1715056,129.895431 78.7935281,128.961074 76.6973483,128.460654 L76.4339775,128.335774 C76.1373483,128.21269 75.8290337,128.138121 75.5099326,128.111169 L75.1530787,128.427413 C74.8798202,129.085056 74.5598202,129.348293 74.0825169,129.37255 L73.8371236,129.505516 L73.5252135,129.71395 C73.244764,129.293489 73.0425169,128.898185 73.7427416,129.009589 C74.0852135,128.961074 74.4115056,128.757133 74.6407191,128.464248 C75.0793708,127.498447 74.6955506,127.112126 73.5773483,127.282826 C72.4843146,126.63776 71.8101573,126.934239 71.6636404,128.216284 C71.3598202,128.029413 71.0335281,127.990781 70.6955506,128.098591 L70.3791461,128.334875 L70.1382472,128.441787 L69.7786966,128.584636 L69.507236,128.516356 L69.2582472,128.11027 C69.5261124,128.175855 69.7957753,128.188433 70.0690337,128.147106 C70.4968989,127.48497 70.9876854,126.897404 71.5440899,126.382609 C75.7634157,123.588523 67.987236,117.601453 64.9768989,117.542158 C64.7800449,117.758677 64.3306067,117.647273 63.7840899,117.419972 C63.2222921,117.52958 62.9490337,117.115408 62.7045393,116.350853 C62.3782472,115.915119 61.9458876,115.765981 61.4425169,115.933986 C61.143191,114.72651 58.9571236,111.75274 57.3652135,112.6853 C60.190382,111.036699 55.8425169,111.114862 55.5917303,110.036758 C55.477573,109.545322 57.0694831,110.144568 56.6470112,109.571377 C56.3440899,109.160799 54.8546517,109.335092 54.4555506,109.157205 C53.8865618,109.202126 53.5351011,109.337787 53.0209438,109.707936 C50.4825169,109.479738 48.0771236,108.370189 46.5607191,106.952483 C46.1786966,106.265191 45.5458876,105.139471 45.5881348,106.863539 C45.2564494,107.012677 45.0398202,106.950686 45.0398202,106.950686 C43.9620674,106.986623 43.5180225,107.502316 43.8829663,108.478898 C44.0258876,108.74483 44.1148764,109.018848 44.1526292,109.31353 C44.227236,109.503995 44.1670112,109.655828 43.9719551,109.76813 C43.1557753,109.719616 42.8411685,109.231774 43.2168989,108.407024 L43.2510562,108.186013 C42.9697079,108.589404 44.3036404,105.20865 44.3368989,105.626415 C44.248809,104.498 39.5476854,106.501476 39.7094831,107.001896 C39.2843146,105.690203 38.9589213,106.890492 38.3377978,107.136659 C38.3854382,108.289331 37.8056629,109.026036 36.6982472,109.443801 C34.8582472,107.690085 31.4056629,109.05209 29.8200449,107.121386 C27.9989213,104.903187 28.5238652,102.155819 29.1881348,99.7516474 C29.1665618,99.5216519 29.2177978,99.3024375 29.3427416,99.0949025 C28.568809,97.8757467 27.404764,97.2702117 25.6285843,97.3744284 C25.3652135,97.3986858 25.1009438,97.4067716 24.8357753,97.3968889 C24.6029663,96.9863111 24.2434157,97.0294352 23.8829663,97.3681395 C23.8164494,97.2360718 23.7193708,97.1363472 23.5899326,97.0689657 C23.5476854,97.2091192 23.463191,97.2720086 23.3364494,97.2576339 C23.5054382,96.8874849 23.4407191,96.7554172 23.1413933,96.8596339 C23.1449888,96.5137422 23.3256629,96.3133946 23.6825169,96.2603878 L23.7004944,95.9513314 L23.703191,95.5542298 C23.797573,94.9477964 24.350382,93.0431463 23.9917303,92.676591 C24.1813933,92.8481892 24.3099326,93.0566226 24.3773483,93.3009928 C25.0191461,92.8239318 24.9715056,91.0935752 25.2690337,90.3433946 C25.9054382,89.86274 26.0933034,89.1790424 25.8425169,88.388433 C25.3283596,88.3426135 24.6020674,88.382144 23.8245393,88.5106181 C23.3310562,88.5564375 22.8348764,88.5959679 22.3422921,88.6292095 L22.1634157,88.8852591 L22.1454382,89.195214 C22.1454382,89.195214 21.8326292,89.4036474 21.9027416,89.4988799 C20.0330787,94.2254668 15.9566742,92.043205 15.6843146,87.5735661 L15.7463371,87.1575977 L15.5512809,86.8431508 C14.9265618,82.1129702 17.4092584,77.210293 21.2537528,75.3838054 C22.2011685,74.9336971 29.1782472,75.6641124 29.7121798,76.234609 C31.150382,78.1976564 32.5858876,75.6883698 31.8748764,79.4859905 C31.521618,81.2334172 32.0519551,82.7391688 33.4658876,84.004144 C34.4186966,84.8190108 34.6506067,76.6963968 34.7746517,76.3927309 C36.1274607,73.0910379 39.7148764,71.4325549 42.9427416,69.6384104 C46.9625169,67.0913901 46.1894831,62.6478054 52.2056629,60.3325774 C52.8330787,60.3191011 53.4595955,60.3074217 54.0861124,60.2939454 C55.6708315,59.0038144 54.0339775,56.7056564 59.4506067,55.9186406 C59.4506067,55.9186406 61.441618,55.6239589 62.1849888,55.6230605 C59.783191,55.9743427 59.587236,57.5618506 61.5584719,57.7846587 C61.5584719,57.7846587 61.6249888,57.7559093 61.7130787,57.7235661 C63.1063371,57.4360718 70.8429663,56.9033088 69.9395955,54.0391463 C68.8258876,50.5083562 64.4142022,56.6481576 65.0407191,50.1112546 C65.2348764,49.8147761 65.2312809,49.6270063 65.0281348,49.5479454 C64.8636404,48.235354 63.6977978,48.5390199 62.7629663,48.7240944 C62.5813933,48.6603065 62.394427,48.6962433 62.2020674,48.8328032 C60.357573,49.5066181 59.8101573,49.4455255 60.5589213,48.6495255 C60.7800449,48.6701892 60.9939775,48.616284 61.1989213,48.4860131 C61.1989213,48.4860131 61.7571236,48.1446135 61.841618,47.9586406 C62.1076854,47.7430199 64.3333034,47.6046632 65.9279101,47.6145458 C66.4276854,47.8005187 66.6901573,47.7942298 67.2294831,47.6792321 C67.3193708,47.6918099 67.3984719,47.7052862 67.4533034,47.7223562 C67.5494831,47.7717693 67.6807191,47.8104014 67.8065618,47.8436429 C70.6964494,48.8813178 73.150382,48.246135 75.9674607,47.3279499 C75.9674607,47.3279499 76.5436404,47.2120537 77.2052135,46.9838551 C77.2420674,46.9883472 77.274427,46.9766677 77.3022921,46.9506135 C81.4263371,45.4727129 76.9876854,42.7460086 76.3602697,41.4594713 C75.8092584,40.3283607 73.7813933,39.8063788 73.1063371,38.3994533 C72.8294831,37.8208709 72.9553258,34.4221485 72.3746517,33.0098325 C72.3458876,31.7592321 71.856,31.2713901 70.7701573,31.9703607 C69.4326292,33.8309883 67.6825169,34.2828935 66.023191,32.8121801 C66.023191,32.8121801 66.7494831,30.7134713 67.0209438,30.190591 C67.2294831,30.1106316 67.2906067,29.9579002 67.2070112,29.7314984 C67.2870112,29.2185007 66.1858876,29.394591 66.1858876,29.394591 L65.281618,28.4602343 C65.2915056,28.4269928 64.416,27.1099093 64.416,27.1099093 C64.3764494,26.9913178 64.2425169,26.8287038 64.2425169,26.8287038 C63.1656629,26.277074 56.5004944,25.1935797 58.0213933,29.0513946 C57.3930787,30.1896926 55.6393708,31.3432637 55.6393708,31.3432637 C55.6393708,31.3432637 55.5225169,31.5013856 55.4002697,31.7331779 C54.7962247,33.3314668 56.2038652,34.8821395 54.6955506,36.3627354 C53.5324045,37.2126406 51.4901573,37.6537648 50.5283596,38.2413314 C49.1386966,39.0894397 50.6542022,42.3156655 47.7508315,42.1665278 C45.6384719,42.057819 48.8007191,37.2773269 48.2029663,36.2468393 C47.6663371,35.3223652 44.9463371,34.7581576 43.9773483,33.4841982 C43.9773483,33.4841982 43.9764494,33.4815029 43.9764494,33.4815029 L43.9746517,33.4806045 C39.9342022,28.1763336 45.8002697,25.3274442 51.0937528,23.0975661 C51.0946517,23.0966677 54.7701573,21.9269251 55.2186966,21.3528348 C55.2789213,21.3124059 55.5126292,21.0976835 55.7849888,20.9215932 C56.1580225,20.7437061 56.5184719,20.5397648 56.8645393,20.3097693 C57.441618,20.0339544 58.8204944,20.8820628 58.7665618,20.9341711 C58.7827416,20.9692095 58.7881348,20.9808889 58.7701573,20.9323743 C59.1566742,20.5460537 59.230382,20.0025097 59.8227416,19.76353 C59.6366742,19.9018867 61.1018427,19.5883381 61.3184719,19.4454894 C62.364764,19.2586181 67.5683596,15.1528393 64.1553258,15.0162795 C64.0456629,14.8240176 63.9252135,14.7620266 63.7939775,14.8303065 C63.5449888,14.7359725 63.3076854,14.7476519 63.0820674,14.8653449 C62.8492584,14.7575345 62.5625169,15.0180763 62.5382472,15.2444781 C61.601618,16.0988754 60.9148764,16.1060628 59.8479101,16.8032366 C59.5926292,16.7223788 59.4398202,16.8194081 59.3876854,17.095223 C58.3611685,17.7232185 58.9481348,17.050302 59.2276854,16.7385503 C59.2321798,16.7367535 59.2420674,16.7340582 59.2420674,16.7340582 C59.2420674,16.7340582 59.2456629,16.7205819 59.2465618,16.7151914 C59.4002697,16.5444916 59.5171236,16.4259002 59.6061124,16.3324646 C61.4757753,15.2480718 58.2200449,16.2012953 57.7283596,16.2857467 L57.637573,16.0072366 C58.2407191,15.6927896 58.8267865,15.2471734 59.3454382,14.7153088 C59.244764,14.3523472 58.9957753,14.3164104 58.6434157,14.5652727 C59.1638652,14.2544194 59.5899326,13.8231779 59.928809,13.1655345 L60.2353258,12.879837 C60.8249888,12.6588257 61.2321798,12.1260628 61.3148764,11.3830695 C61.3562247,11.2563923 61.5566742,11.0874894 61.5566742,11.0874894 C61.9800449,11.2968212 62.3827416,11.2276429 62.707236,10.8844465 C63.3679101,10.60953 63.921618,10.4415255 64.7548764,10.26274 C64.9858876,10.1980537 67.2735281,9.57634718 67.324764,9.23225237 C67.3948764,8.76507404 65.5566742,8.59886637 65.3822921,8.56472641 C60.1957753,10.9724916 56.8061124,16.2300447 52.3198202,17.1994397 L52.3737528,16.9874126 C52.6299326,16.7951508 52.9013933,16.6505052 53.1845393,16.5561711 C53.274427,16.4429702 53.3858876,16.3791824 53.5207191,16.3630108 L53.8155506,16.2965278 C53.7004944,16.1294217 53.5297079,15.8967309 53.3418427,15.6505639 C51.7184719,16.4735165 50.1292584,16.423205 49.1162247,15.2597512 C49.2061124,14.9399138 49.3490337,14.8168302 49.7130787,14.7961666 C50.6721798,15.1276835 46.9067865,14.4197287 47.4524045,15.0764736 C47.4982472,15.1312772 48.2083596,15.36846 48.1957753,15.0998325 C48.2002697,15.1905729 45.4371236,16.8517512 45.6771236,16.6684736 C46.124764,16.2767625 46.3548764,15.8041937 46.3692584,15.267837 C46.0106067,15.5140041 45.6025169,15.6092366 45.1881348,15.5328709 L44.8717303,15.4412321 L44.627236,15.3163517 C45.7166742,14.9695616 46.6011685,14.118758 46.0897079,12.8996023 C44.3962247,13.8914578 42.7306067,14.9300312 41.1027416,16.025205 C41.5539775,16.091688 40.2946517,16.4465639 40.6919551,16.96046 C40.1724045,17.555214 39.5728539,17.9046993 38.8402697,18.0313765 C38.5867865,18.3305503 38.2551011,18.5183201 37.856,18.5919905 L37.616,18.732144 L37.4515056,18.6108573 C27.8524045,25.7550921 19.6070112,34.7509702 13.4092584,44.989363 C11.6762247,51.5073991 4.48341573,58.5141756 6.20026966,65.6332546 C6.35937079,68.863074 5.63757303,72.1584781 5.63577528,75.4296248 C5.48835955,75.5482163 5.32476404,75.5850515 5.14408989,75.5419273 L5.08925843,75.9057874 C5.34813483,76.1807038 5.47757303,76.4906587 5.47397753,76.8661982 C5.6465618,77.6298551 6.68835955,83.7768438 6.79352809,83.757977 C7.43442697,83.6429792 6.95083146,78.7636609 6.89420225,77.9559815 C6.82498876,77.687354 6.77734831,77.4142343 6.75217978,77.1384194 C6.45195506,74.4440582 6.33330337,71.8988348 6.75307865,69.2754488 C7.71307865,73.7648528 7.64746067,98.8550244 17.1818427,95.4940357 C19.0595955,97.8002795 22.1984719,99.0886135 23.994427,101.175643 C24.1813933,101.39306 25.4173483,104.29316 26.096,105.16283 C27.3373483,106.753033 32.2883596,112.635887 32.3773483,109.684577 C32.8393708,109.504893 33.1638652,109.186853 33.3238652,108.684636 C35.8892584,109.815747 36.7908315,114.840609 35.564764,117.691295 L35.3283596,117.840433 C35.1243146,117.760474 34.9283596,117.772153 34.7404944,117.87637 C34.7638652,118.750532 34.4690337,119.367747 33.8515056,119.624695 C31.8461124,121.939024 34.2074607,123.545399 34.0564494,124.56241 C33.3085843,129.583679 34.3548764,129.547742 37.6933034,134.902325 C40.7836404,139.860704 47.7679101,143.54153 48.8357753,148.90869 C59.7229663,151.555435 71.1692584,153.192356 82.7548764,153.802383 C82.8789213,153.70176 83.0218427,153.45739 83.0218427,153.45739 C83.3157753,152.955173 83.6151011,152.609282 83.9791461,152.325381 C84.6092584,150.409051 85.557573,147.910546 85.5153258,145.806447 L85.6861124,145.6052 C86.4438652,145.320401 87.2555506,144.654672 88.4798202,143.301652 C90.5274607,142.414013 92.4106067,140.616275 92.2577978,138.366632" id="Fill-83" fill="#D1D4F2"></path>
            </g>
        </g>
    </g>
</svg>