<?xml version="1.0" encoding="UTF-8"?>
<svg width="49px" height="54px" viewBox="0 0 49 54" version="1.1" xmlns="http://www.w3.org/2000/svg" xmlns:xlink="http://www.w3.org/1999/xlink">
    <!-- Generator: Sketch 51.1 (57501) - http://www.bohemiancoding.com/sketch -->
    <title>Efficient</title>
    <desc>Created with Sketch.</desc>
    <defs></defs>
    <g id="Efficient" stroke="none" stroke-width="1" fill="none" fill-rule="evenodd">
        <g transform="translate(2.000000, 2.000000)" stroke="#FFFFFF" stroke-width="3">
            <path d="M45.377198,27.0059558 C45.377198,39.536869 35.218945,49.6945547 22.688599,49.6945547 C10.158253,49.6945547 0,39.536869 0,27.0059558 C0,14.4750425 10.158253,4.31735678 22.688599,4.31735678 C35.218945,4.31735678 45.377198,14.4750425 45.377198,27.0059558 Z" id="Stroke-5"></path>
            <path d="M22.688599,8.2878616 L22.688599,11.167612" id="Stroke-7" stroke-linecap="round"></path>
            <path d="M41.4066931,27.0059558 L38.5269427,27.0059558" id="Stroke-9" stroke-linecap="round"></path>
            <path d="M22.688599,45.7240499 L22.688599,42.8442995" id="Stroke-11" stroke-linecap="round"></path>
            <path d="M3.97050482,27.0059558 L6.85025525,27.0059558" id="Stroke-13" stroke-linecap="round"></path>
            <path d="M32.2775383,10.9306296 L30.8022121,13.4036869" id="Stroke-15" stroke-linecap="round"></path>
            <path d="M38.7642087,36.5948951 L36.2911514,35.1195689" id="Stroke-17" stroke-linecap="round"></path>
            <path d="M13.0996597,43.0812819 L14.5749858,40.6082246" id="Stroke-19" stroke-linecap="round"></path>
            <path d="M6.61298922,17.4170164 L9.08604651,18.8923426" id="Stroke-21" stroke-linecap="round"></path>
            <path d="M38.8683494,17.5942711 L36.3788429,19.042371" id="Stroke-23" stroke-linecap="round"></path>
            <path d="M32.1005672,43.1854226 L30.6524674,40.6964833" id="Stroke-25" stroke-linecap="round"></path>
            <path d="M6.50884855,36.4176404 L8.99835508,34.9695406" id="Stroke-27" stroke-linecap="round"></path>
            <path d="M13.2766307,10.8264889 L14.7247306,13.3154282" id="Stroke-29" stroke-linecap="round"></path>
            <polyline id="Stroke-31" stroke-linecap="round" stroke-linejoin="round" points="17.6545661 27.0630176 20.688599 30.0976177 27.7226319 23.0635848"></polyline>
            <path d="M18.7180942,0.406277179 L26.6591038,0.406277179" id="Stroke-1" stroke-linecap="round"></path>
        </g>
    </g>
</svg>