<?xml version="1.0" encoding="UTF-8"?>
<svg width="49px" height="54px" viewBox="0 0 49 54" version="1.1" xmlns="http://www.w3.org/2000/svg" xmlns:xlink="http://www.w3.org/1999/xlink">
    <!-- Generator: Sketch 51.1 (57501) - http://www.bohemiancoding.com/sketch -->
    <title>Security</title>
    <desc>Created with Sketch.</desc>
    <defs></defs>
    <g id="Security" stroke="none" stroke-width="1" fill="none" fill-rule="evenodd">
        <g transform="translate(7.000000, 5.000000)" stroke="#FFFFFF" stroke-width="3">
            <path d="M34.1647059,38.8235294 C34.1647059,41.6705882 31.8352941,44 28.9882353,44 L5.17647059,44 C2.32941176,44 0,41.6705882 0,38.8235294 L0,20.7058824 C0,17.8588235 2.32941176,15.5294118 5.17647059,15.5294118 L28.9882353,15.5294118 C31.8352941,15.5294118 34.1647059,17.8588235 34.1647059,20.7058824 L34.1647059,38.8235294 Z" id="Stroke-3"></path>
            <path d="M19.6705882,25.2352941 C19.6705882,26.6650353 18.5115765,27.8235294 17.0823529,27.8235294 C15.6531294,27.8235294 14.4941176,26.6650353 14.4941176,25.2352941 C14.4941176,23.8055529 15.6531294,22.6470588 17.0823529,22.6470588 C18.5115765,22.6470588 19.6705882,23.8055529 19.6705882,25.2352941 Z" id="Stroke-7"></path>
            <path d="M17.0823529,27.8235294 L17.0823529,36.6235294" id="Stroke-11" stroke-linecap="round"></path>
            <path d="M28.3277694,15.5294118 L28.3277694,11.2458824 C28.3277694,5.03515294 23.2931341,0 17.0824047,0 C10.8716753,0 5.83704,5.03515294 5.83704,11.2458824 L5.83704,15.5294118" id="Stroke-13"></path>
        </g>
    </g>
</svg>