<?xml version="1.0" encoding="UTF-8"?>
<svg width="493px" height="375px" viewBox="0 0 493 375" version="1.1" xmlns="http://www.w3.org/2000/svg" xmlns:xlink="http://www.w3.org/1999/xlink">
    <!-- Generator: Sketch 52.6 (67491) - http://www.bohemiancoding.com/sketch -->
    <title>1-02</title>
    <desc>Created with Sketch.</desc>
    <g id="Assets" stroke="none" stroke-width="1" fill="none" fill-rule="evenodd">
        <g id="1-02" fill-rule="nonzero">
            <polygon id="Shape" fill="#000000" opacity="0.1" points="270.38 351.02 270.38 341 288.8 351.99 250.09 374.36 240.05 368.42"></polygon>
            <polygon id="Shape" fill="#CFBDCC" points="241.91 319.4 229.99 326.2 241.91 333.07 253.75 326.2"></polygon>
            <polygon id="Shape" fill="#956C89" points="229.99 326.2 241.83 333 241.83 347.2 229.99 340.33"></polygon>
            <polygon id="Shape" fill="#6C2B5B" points="253.75 326.2 241.83 333 241.83 347.2 253.75 340.33"></polygon>
            <path d="M275,332.16 L256.57,300 C256.472803,299.813355 256.303452,299.674622 256.101328,299.616063 C255.899203,299.557504 255.681918,299.58422 255.5,299.69 L227.56,315.44 C227.440955,315.450657 227.328621,315.499803 227.24,315.58 L209.75,328.26 C209.528038,328.415819 209.409091,328.680572 209.44,328.95 C209.522119,329.198366 209.683788,329.412753 209.9,329.56 L212.04,330.56 L212.04,351.78 C212.040667,352.059764 212.183921,352.319883 212.42,352.47 L241.14,369.04 C241.255992,369.103595 241.388213,369.131431 241.52,369.12 L241.72,369.12 C241.818914,369.094534 241.913343,369.054065 242,369 L255.83,361.13 C256.070479,360.984058 256.215213,360.721251 256.21,360.44 L256.21,359.2 L263.62,355 L264.38,355.61 C264.61477,355.823171 264.963519,355.851892 265.23,355.68 L270.72,352.48 C270.958513,352.330936 271.105307,352.071223 271.11,351.79 L271.11,335.35 L274.7,333.23 C274.884936,333.13104 275.021498,332.96092 275.078123,332.75896 C275.134747,332.556999 275.106532,332.34068 275,332.16 Z M246.34,350 L254.59,345.11 L254.59,354.42 L242.29,361.49 L242.29,361.15 L242.43,347.74 L245.34,349.74 C245.435951,349.865362 245.574849,349.950838 245.73,349.98 C245.82065,350.024996 245.919101,350.052155 246.02,350.06 C246.105905,350.056288 246.189049,350.028573 246.26,349.98 L246.34,350 Z M262.84,353.58 L256.11,357.38 L256.11,355.1 C256.14473,354.979112 256.14473,354.850888 256.11,354.73 L256.11,344.23 L262.84,340.23 L262.84,353.58 Z M240.76,346.79 L240.76,361.49 L213.64,345.84 L213.64,330.55 L226.86,321.31 L240.79,346.68 C240.775241,346.725519 240.765189,346.772431 240.76,346.82 L240.76,346.79 Z M227.38,317.29 L243.62,346.63 L241.91,345.49 L241.85,345.49 L227.7,319.78 C227.62,319.55 227.47,319.48 227.24,319.4 C227.024868,319.368153 226.805829,319.422015 226.63,319.55 L212.78,329.25 L211.66,328.72 L227.38,317.29 Z M213.64,351.29 L213.64,347.64 L240.76,363.29 L240.76,367.03 L213.57,351.29 L213.64,351.29 Z M254.59,360 L242.29,367 L242.29,363.26 L254.59,356.2 L254.59,358.67 L254.59,360 Z M264.82,354 L264.36,353.63 L264.36,350.54 L269.56,347.54 L269.56,351.35 L264.82,354 Z M269.56,345.7 L264.36,348.7 L264.36,339.47 C264.365535,339.400109 264.365535,339.329891 264.36,339.26 L269.59,336.16 L269.56,345.7 Z M246.26,348.12 L237.46,332.18 L228.77,316.42 L255.66,301.29 L273.3,332.08 L246.26,348.12 Z" id="Shape" fill="#CFBDCC"></path>
            <path d="M252.6,305.88 L248.16,308.53 C248.053754,308.540357 247.951211,308.574538 247.86,308.63 C247.623921,308.780117 247.480667,309.040236 247.48,309.32 L247.48,315.2 C247.48,315.35 247.56,315.43 247.64,315.58 L252.24,323.01 C252.288066,323.220815 252.417453,323.404113 252.6,323.52 C252.715778,323.58417 252.848177,323.612044 252.98,323.6 L253.36,323.6 L258.1,320.77 C258.337381,320.625879 258.481657,320.367701 258.48,320.09 L258.48,309.39 C258.479333,309.110236 258.336079,308.850117 258.1,308.7 L253.36,305.88 C253.128722,305.730503 252.831278,305.730503 252.6,305.88 Z M252.98,307.48 L256.16,309.37 L253.05,311.12 L249.88,309.33 L252.98,307.48 Z M248.98,310.73 L252.19,312.54 L252.19,320.24 L249,315.05 L248.98,310.73 Z M253.72,321.54 L253.72,312.54 L256.92,310.73 L256.92,319.63 L253.72,321.54 Z" id="Shape" fill="#CFBDCC"></path>
            <polygon id="Shape" fill="#000000" opacity="0.1" points="137.24 327.94 137.25 317.92 155.67 328.91 116.96 351.29 106.92 345.35"></polygon>
            <polygon id="Shape" fill="#CFBDCC" points="108.78 296.32 96.86 303.12 108.78 310 120.62 303.12"></polygon>
            <polygon id="Shape" fill="#956C89" points="96.86 303.12 108.7 309.92 108.7 324.13 96.86 317.25"></polygon>
            <polygon id="Shape" fill="#6C2B5B" points="120.62 303.12 108.7 309.92 108.7 324.13 120.62 317.25"></polygon>
            <path d="M141.85,309.08 L123.44,276.92 C123.34104,276.735064 123.17092,276.598502 122.96896,276.541877 C122.766999,276.485253 122.55068,276.513468 122.37,276.62 L94.43,292.37 C94.3114597,292.374795 94.1982995,292.420766 94.11,292.5 L76.61,305.19 C76.3968231,305.347696 76.2827606,305.606238 76.31,305.87 C76.3921194,306.118366 76.5537884,306.332753 76.77,306.48 L78.91,307.48 L78.91,328.7 C78.9047871,328.981251 79.0495212,329.244058 79.29,329.39 L108,346 C108.118232,346.056575 108.249369,346.080732 108.38,346.07 L108.51,346.07 L108.58,346.07 C108.675744,346.047883 108.76486,346.003325 108.84,345.94 L122.68,338 C122.917381,337.855879 123.061657,337.597701 123.06,337.32 L123.06,336.09 L130.47,331.89 L131.23,332.5 C131.460657,332.711394 131.803586,332.744054 132.07,332.58 L137.57,329.37 C137.812806,329.225086 137.961077,328.962761 137.96,328.68 L137.96,312.28 L141.55,310.15 C141.734936,310.05104 141.871498,309.88092 141.928123,309.67896 C141.984747,309.476999 141.956532,309.26068 141.85,309.08 Z M113.21,327 L121.46,322.1 L121.46,331.42 L109.16,338.48 L109.16,338.15 L109.3,324.74 L112.21,326.74 C112.306843,326.859595 112.440396,326.943944 112.59,326.98 C112.681179,327.022016 112.779694,327.045795 112.88,327.05 C112.965085,327.050363 113.048451,327.026048 113.12,326.98 L113.21,327 Z M129.71,330.57 L122.98,334.37 L122.98,332.1 C123.015039,331.975756 123.015039,331.844244 122.98,331.72 L122.98,321.16 L129.71,317.16 L129.71,330.57 Z M107.63,323.79 L107.63,338.48 L80.51,322.79 L80.51,307.48 L93.73,298.23 L107.65,323.61 C107.65,323.61 107.63,323.7 107.63,323.75 L107.63,323.79 Z M94.25,294.29 L110.48,323.63 L108.77,322.49 L94.62,296.77 C94.5461457,296.567994 94.3713665,296.419812 94.16,296.38 C93.9432722,296.346345 93.7223075,296.404303 93.55,296.54 L79.7,306.24 L78.57,305.7 L94.25,294.29 Z M80.51,328.29 L80.51,324.65 L107.63,340.3 L107.63,344 L80.43,328.26 L80.51,328.29 Z M121.51,337 L109.21,344 L109.21,340.27 L121.51,333.2 L121.51,335.67 L121.51,337 Z M131.69,331 L131.23,330.63 L131.23,327.53 L136.43,324.53 L136.43,328.34 L131.69,331 Z M136.43,322.69 L131.23,325.69 L131.23,316.46 C131.235565,316.393449 131.235565,316.326551 131.23,316.26 L136.46,313.16 L136.43,322.69 Z M113.13,325.11 L104.33,309.17 L95.64,293.41 L122.52,278.29 L140.17,309.07 L113.13,325.11 Z" id="Shape" fill="#CFBDCC"></path>
            <path d="M119.47,282.8 L115,285.45 C114.893453,285.458919 114.790588,285.493207 114.7,285.55 C114.463921,285.700117 114.320667,285.960236 114.32,286.24 L114.32,292.12 C114.32,292.28 114.4,292.35 114.47,292.5 L119.08,299.93 C119.127672,300.143615 119.256837,300.330187 119.44,300.45 C119.555778,300.51417 119.688177,300.542044 119.82,300.53 L120.2,300.53 L125,297.7 C125.240479,297.554058 125.385213,297.291251 125.38,297.01 L125.38,286.32 C125.385213,286.038749 125.240479,285.775942 125,285.63 L120.26,282.8 C120.021826,282.637208 119.708174,282.637208 119.47,282.8 Z M119.85,284.41 L123,286.3 L119.9,288.05 L116.72,286.26 L119.85,284.41 Z M115.85,287.65 L119.06,289.46 L119.06,297.16 L115.88,292 L115.85,287.65 Z M120.59,298.46 L120.59,289.46 L123.79,287.65 L123.79,296.55 L120.59,298.46 Z" id="Shape" fill="#CFBDCC"></path>
            <polygon id="Shape" fill="#000000" opacity="0.1" points="397.94 327.94 397.95 317.92 416.37 328.91 377.66 351.29 367.62 345.35"></polygon>
            <polygon id="Shape" fill="#CFBDCC" points="369.47 296.32 357.56 303.12 369.47 310 381.31 303.12"></polygon>
            <polygon id="Shape" fill="#956C89" points="357.56 303.12 369.4 309.92 369.4 324.13 357.56 317.25"></polygon>
            <polygon id="Shape" fill="#6C2B5B" points="381.31 303.12 369.4 309.92 369.4 324.13 381.31 317.25"></polygon>
            <path d="M402.55,309.08 L384.14,276.92 C384.04104,276.735064 383.87092,276.598502 383.66896,276.541877 C383.466999,276.485253 383.25068,276.513468 383.07,276.62 L355.13,292.37 C355.01146,292.374795 354.898299,292.420766 354.81,292.5 L337.31,305.19 C337.09346,305.344984 336.97849,305.605582 337.01,305.87 C337.088606,306.12019 337.251068,306.335629 337.47,306.48 L339.6,307.48 L339.6,328.7 C339.598923,328.982761 339.747194,329.245086 339.99,329.39 L368.71,346 C368.828232,346.056575 368.959369,346.080732 369.09,346.07 L369.22,346.07 L369.29,346.07 C369.385024,346.045914 369.473717,346.001568 369.55,345.94 L383.38,338 C383.614499,337.853117 383.757795,337.596693 383.76,337.32 L383.76,336.09 L391.17,331.89 L391.93,332.5 C392.160657,332.711394 392.503586,332.744054 392.77,332.58 L398.27,329.37 C398.510479,329.224058 398.655213,328.961251 398.65,328.68 L398.65,312.28 L402.24,310.15 C402.426645,310.052803 402.565378,309.883452 402.623937,309.681328 C402.682496,309.479203 402.65578,309.261918 402.55,309.08 Z M373.9,327 L382.15,322.1 L382.15,331.42 L369.85,338.48 L369.85,338.15 L370,324.7 L372.9,326.7 C373.002653,326.8177 373.138669,326.901402 373.29,326.94 C373.380817,326.983048 373.479545,327.006878 373.58,327.01 C373.665085,327.010363 373.748451,326.986048 373.82,326.94 L373.9,327 Z M390.4,330.57 L383.68,334.37 L383.68,332.1 C383.715039,331.975756 383.715039,331.844244 383.68,331.72 L383.68,321.16 L390.4,317.16 L390.4,330.57 Z M368.33,323.79 L368.33,338.48 L341.21,322.83 L341.21,307.48 L354.42,298.23 L368.35,323.61 C368.337744,323.655696 368.331029,323.7027 368.33,323.75 L368.33,323.79 Z M355,294.25 L371.23,323.59 L369.52,322.45 L369.46,322.45 L355.31,296.73 C355.24,296.5 355.09,296.42 354.86,296.34 C354.64019,296.307105 354.416443,296.364846 354.24,296.5 L340.4,306.2 L339.27,305.66 L355,294.25 Z M341.26,328.25 L341.26,324.61 L368.38,340.26 L368.38,344 L341.18,328.26 L341.26,328.25 Z M382.15,337 L369.85,344 L369.85,340.27 L382.15,333.2 L382.15,335.67 L382.15,337 Z M392.39,331 L391.93,330.63 L391.93,327.53 L397.13,324.53 L397.13,328.34 L392.39,331 Z M397.13,322.69 L391.93,325.69 L391.93,316.46 C391.935565,316.393449 391.935565,316.326551 391.93,316.26 L397.16,313.16 L397.13,322.69 Z M373.83,325.11 L365,309.18 L356.3,293.42 L383.19,278.3 L400.84,309.08 L373.83,325.11 Z" id="Shape" fill="#CFBDCC"></path>
            <path d="M380.17,282.8 L375.73,285.45 C375.623453,285.458919 375.520588,285.493207 375.43,285.55 C375.193921,285.700117 375.050667,285.960236 375.05,286.24 L375.05,292.12 C375.05,292.28 375.13,292.35 375.2,292.5 L379.81,299.93 C379.849992,300.146891 379.981067,300.336222 380.17,300.45 C380.285778,300.51417 380.418177,300.542044 380.55,300.53 L380.93,300.53 L385.67,297.7 C385.910479,297.554058 386.055213,297.291251 386.05,297.01 L386.05,286.32 C386.055213,286.038749 385.910479,285.775942 385.67,285.63 L380.93,282.8 C380.698722,282.650503 380.401278,282.650503 380.17,282.8 Z M380.55,284.41 L383.72,286.3 L380.62,288.05 L377.44,286.26 L380.55,284.41 Z M376.55,287.65 L379.76,289.46 L379.76,297.16 L376.58,292 L376.55,287.65 Z M381.28,298.46 L381.28,289.46 L384.49,287.65 L384.49,296.55 L381.28,298.46 Z" id="Shape" fill="#CFBDCC"></path>
            <polygon id="Shape" fill="#000000" opacity="0.1" points="253.8 176.49 186.28 215.28 253.8 254.07 321.21 215.28"></polygon>
            <polygon id="Shape" fill="#8D919F" points="300.99 207.55 242.43 241.4 242.43 247.74 300.99 213.89"></polygon>
            <polygon id="Shape" fill="#D1D4F2" points="242.43 173.92 183.77 207.62 242.43 241.32 300.99 207.62"></polygon>
            <polygon id="Shape" fill="#A5A8BB" points="183.77 207.55 242.43 241.4 242.43 247.74 183.77 213.89"></polygon>
            <polygon id="Shape" fill="#6C2B5B" points="254.76 45.77 254.76 61.61 238.55 52"></polygon>
            <polygon id="Shape" fill="#CFBDCC" points="204.95 74.3 217.57 67.11 217.57 81.64"></polygon>
            <polygon id="Shape" fill="#CFBDCC" points="217.5 124.92 229.97 117.95 229.6 132.63"></polygon>
            <polygon id="Shape" fill="#6C2B5B" points="229.97 117.88 217.13 110.18 217.5 124.92"></polygon>
            <polygon id="Shape" fill="#CFBDCC" points="204.95 189.99 217.28 182.8 217.28 197.62"></polygon>
            <polygon id="Shape" fill="#CFBDCC" points="279.49 103.43 267.16 96.24 267.16 111.06"></polygon>
            <polygon id="Shape" fill="#956C89" points="217.57 52.73 217.42 67.19 230.19 60.07"></polygon>
            <polygon id="Shape" fill="#6C2B5B" points="229.75 161.02 229.75 175.39 242.15 168.21"></polygon>
            <polygon id="Shape" fill="#956C89" points="254.69 175.39 242.15 168.21 254.69 161.02"></polygon>
            <path d="M242.22,168.13 L242.22,81.42 L217.5,67.11 L217.5,81.49 L205,74.3 L205,175.54 L217.33,182.8 L217.33,197.18 L205,189.92 L205,205.18 L242.27,226.67 L242.27,182.51 L229.8,175.39 L229.8,161 L242.27,168.11 L242.22,168.13 Z M229.75,132.18 L217.42,124.78 L217.42,110.69 L229.9,117.88 L229.75,132.18 Z" id="Shape" fill="#956C89"></path>
            <polygon id="Shape" fill="#CFBDCC" points="229.75 175.39 242.15 168.21 254.69 175.39 242.51 182.73"></polygon>
            <polygon id="Shape" fill="#6C2B5B" points="267.16 110.62 267.16 96.24 279.49 89.12 279.49 59.92 242.15 81.49 242.15 168.21 254.69 161.02 254.69 175.39 242.51 182.73 242.15 182.51 242.15 226.75 267.16 212.29 267.16 197.04 279.49 189.92 279.49 103.5"></polygon>
            <polygon id="Shape" fill="#CFBDCC" points="267.38 52.95 255.06 60.44 242.15 53.03 254.76 45.77 242.29 38.58 217.57 52.73 230.19 60.07 217.42 67.19 242.29 81.49 279.56 60"></polygon>
            <path d="M366.27,111.67 C365.198568,111.67 364.33,112.538568 364.33,113.61 C364.33,114.681432 365.198568,115.55 366.27,115.55 C367.341432,115.55 368.21,114.681432 368.21,113.61 C368.21,113.09548 368.005608,112.602033 367.641787,112.238213 C367.277967,111.874392 366.78452,111.67 366.27,111.67 Z" id="Shape" fill="#F1C784"></path>
            <path d="M338.7,96 C337.913538,95.9959564 337.202451,96.4671337 336.899614,97.1929634 C336.596777,97.9187931 336.762118,98.7556415 337.318238,99.3117615 C337.874359,99.8678815 338.711207,100.033223 339.437037,99.7303862 C340.162866,99.4275493 340.634044,98.7164621 340.63,97.93 C340.63,97.4181322 340.426661,96.9272291 340.064716,96.5652839 C339.702771,96.2033387 339.211868,96 338.7,96 Z" id="Shape" fill="#F1C784"></path>
            <polygon id="Rectangle-path" fill="#F1C784" transform="translate(353.573793, 106.022348) rotate(-59.990000) translate(-353.573793, -106.022348) " points="353.073793 95.902348 353.633793 95.902348 353.633793 116.142348 353.073793 116.142348"></polygon>
            <path d="M366.27,80.22 C365.198568,80.22 364.33,81.0885676 364.33,82.16 C364.33,83.2314324 365.198568,84.1 366.27,84.1 C367.341432,84.1 368.21,83.2314324 368.21,82.16 C368.21,81.64548 368.005608,81.1520334 367.641787,80.7882128 C367.277967,80.4243923 366.78452,80.22 366.27,80.22 Z" id="Shape" fill="#F1C784"></path>
            <polygon id="Rectangle-path" fill="#F1C784" transform="translate(353.570039, 74.572595) rotate(-59.990000) translate(-353.570039, -74.572595) " points="353.070039 64.4525946 353.630039 64.4525946 353.630039 84.6925946 353.070039 84.6925946"></polygon>
            <polygon id="Rectangle-path" fill="#F1C784" transform="translate(351.947277, 90.527507) rotate(-30.000000) translate(-351.947277, -90.527507) " points="341.062277 90.0275068 362.832277 90.0275068 362.832277 90.5875068 341.062277 90.5875068"></polygon>
            <path d="M393.61,95.62 C392.824446,95.6159507 392.113988,96.0860405 391.81056,96.8106389 C391.507131,97.5352372 391.670632,98.3713007 392.224673,98.9282121 C392.778714,99.4851236 393.613921,99.6529429 394.340078,99.3532631 C395.066234,99.0535833 395.53999,98.3455645 395.54,97.56 C395.540014,96.4924607 394.677525,95.6255028 393.61,95.62 Z" id="Shape" fill="#F1C784"></path>
            <polygon id="Rectangle-path" fill="#F1C784" transform="translate(380.906937, 89.990177) rotate(-59.990000) translate(-380.906937, -89.990177) " points="380.406937 79.8701769 380.966937 79.8701769 380.966937 100.110177 380.406937 100.110177"></polygon>
            <polygon id="Rectangle-path" fill="#F1C784" transform="translate(379.289411, 105.932958) rotate(-30.000000) translate(-379.289411, -105.932958) " points="368.404411 105.432958 390.174411 105.432958 390.174411 105.992958 368.404411 105.992958"></polygon>
            <path d="M419.74,114.33 C420.525565,114.32999 421.233583,113.856234 421.533263,113.130078 C421.832943,112.403921 421.665124,111.568714 421.108212,111.014673 C420.551301,110.460632 419.715237,110.297131 418.990639,110.60056 C418.266041,110.903988 417.795951,111.614446 417.8,112.4 C417.799993,112.913605 418.004704,113.40603 418.368815,113.768264 C418.732926,114.130498 419.226402,114.332661 419.74,114.33 Z" id="Shape" fill="#F1C784"></path>
            <polygon id="Rectangle-path" fill="#F1C784" transform="translate(406.999444, 104.778744) rotate(-59.990000) translate(-406.999444, -104.778744) " points="406.499444 94.6587445 407.059444 94.6587445 407.059444 114.898744 406.499444 114.898744"></polygon>
            <polygon id="Rectangle-path" fill="#F1C784" transform="translate(405.382674, 120.695493) rotate(-30.000000) translate(-405.382674, -120.695493) " points="394.497674 120.195493 416.267674 120.195493 416.267674 120.755493 394.497674 120.755493"></polygon>
            <circle id="Oval" fill="#F1C784" cx="448.68" cy="128.28" r="1.94"></circle>
            <polygon id="Rectangle-path" fill="#F1C784" transform="translate(435.983945, 120.622594) rotate(-59.990000) translate(-435.983945, -120.622594) " points="435.483945 110.502594 436.043945 110.502594 436.043945 130.742594 435.483945 130.742594"></polygon>
            <polygon id="Rectangle-path" fill="#F1C784" transform="translate(434.365090, 136.675919) rotate(-30.000000) translate(-434.365090, -136.675919) " points="423.48009 136.175919 445.25009 136.175919 445.25009 136.735919 423.48009 136.735919"></polygon>
            <path d="M311,111.67 C310.214446,111.665951 309.503988,112.136041 309.20056,112.860639 C308.897131,113.585237 309.060632,114.421301 309.614673,114.978212 C310.168714,115.535124 311.003921,115.702943 311.730078,115.403263 C312.456234,115.103583 312.92999,114.395565 312.93,113.61 C312.930014,112.542461 312.067525,111.675503 311,111.67 Z" id="Shape" fill="#F1C784"></path>
            <polygon id="Rectangle-path" fill="#F1C784" transform="translate(323.916915, 106.367849) rotate(-30.000000) translate(-323.916915, -106.367849) " points="313.796915 105.867849 334.036915 105.867849 334.036915 106.427849 313.796915 106.427849"></polygon>
            <path d="M338.7,64.26 C337.913538,64.2559564 337.202451,64.7271337 336.899614,65.4529634 C336.596777,66.1787931 336.762118,67.0156415 337.318238,67.5717615 C337.874359,68.1278815 338.711207,68.2932231 339.437037,67.9903862 C340.162866,67.6875493 340.634044,66.9764621 340.63,66.19 C340.63,65.6781322 340.426661,65.1872291 340.064716,64.8252839 C339.702771,64.4633387 339.211868,64.26 338.7,64.26 Z" id="Shape" fill="#F1C784"></path>
            <path d="M311,48.13 C309.937,48.1628921 309.098646,49.0454806 309.120406,50.1087663 C309.142167,51.1720521 310.015929,52.0196015 311.079384,52.0089751 C312.14284,51.9983487 312.999491,51.1335083 313,50.07 C313.000251,49.5449136 312.787643,49.0421517 312.410741,48.6765561 C312.033838,48.3109605 311.524835,48.1137602 311,48.13 Z" id="Shape" fill="#F1C784"></path>
            <polygon id="Rectangle-path" fill="#F1C784" transform="translate(296.763847, 41.540389) rotate(-59.990000) translate(-296.763847, -41.540389) " points="296.263847 30.6553885 296.823847 30.6553885 296.823847 52.4253885 296.263847 52.4253885"></polygon>
            <polygon id="Rectangle-path" fill="#F1C784" transform="translate(270.225620, 26.280080) rotate(-59.990000) translate(-270.225620, -26.280080) " points="269.72562 15.3950799 270.28562 15.3950799 270.28562 37.1650799 269.72562 37.1650799"></polygon>
            <circle id="Oval" fill="#F1C784" cx="311.04" cy="82.32" r="1.94"></circle>
            <polygon id="Rectangle-path" fill="#F1C784" transform="translate(323.918254, 75.014293) rotate(-30.000000) translate(-323.918254, -75.014293) " points="313.798254 74.5142925 334.038254 74.5142925 334.038254 75.0742925 313.798254 75.0742925"></polygon>
            <polygon id="Rectangle-path" fill="#F1C784" transform="translate(325.572684, 90.303739) rotate(-59.990000) translate(-325.572684, -90.303739) " points="325.072684 79.4187387 325.632684 79.4187387 325.632684 101.188739 325.072684 101.188739"></polygon>
            <path d="M393.05,127.47 C392.264446,127.465951 391.553988,127.936041 391.25056,128.660639 C390.947131,129.385237 391.110632,130.221301 391.664673,130.778212 C392.218714,131.335124 393.053921,131.502943 393.780078,131.203263 C394.506234,130.903583 394.97999,130.195565 394.98,129.41 C394.980014,128.342461 394.117525,127.475503 393.05,127.47 Z" id="Shape" fill="#F1C784"></path>
            <polygon id="Rectangle-path" fill="#F1C784" transform="translate(379.959370, 121.235039) rotate(-59.990000) translate(-379.959370, -121.235039) " points="379.45937 110.350039 380.01937 110.350039 380.01937 132.120039 379.45937 132.120039"></polygon>
            <polygon id="Rectangle-path" fill="#F1C784" points="392.72 102.4 393.37 102.4 393.37 124.41 392.72 124.41"></polygon>
            <circle id="Oval" fill="#F1C784" cx="422.15" cy="79.9" r="1.94"></circle>
            <polygon id="Rectangle-path" fill="#F1C784" transform="translate(407.825776, 88.216988) rotate(-30.000000) translate(-407.825776, -88.216988) " points="396.940776 87.7169881 418.710776 87.7169881 418.710776 88.2769881 396.940776 88.2769881"></polygon>
            <polygon id="Rectangle-path" fill="#F1C784" points="421.35 84.66 422 84.66 422 106.67 421.35 106.67"></polygon>
            <path d="M420.14,143.52 C419.354446,143.515951 418.643988,143.986041 418.34056,144.710639 C418.037131,145.435237 418.200632,146.271301 418.754673,146.828212 C419.308714,147.385124 420.143921,147.552943 420.870078,147.253263 C421.596234,146.953583 422.06999,146.245565 422.07,145.46 C422.070014,144.392461 421.207525,143.525503 420.14,143.52 Z" id="Shape" fill="#F1C784"></path>
            <polygon id="Rectangle-path" fill="#F1C784" transform="translate(406.984082, 137.306160) rotate(-59.990000) translate(-406.984082, -137.306160) " points="406.484082 126.42116 407.044082 126.42116 407.044082 148.19116 406.484082 148.19116"></polygon>
            <polygon id="Rectangle-path" fill="#F1C784" points="419.82 118.44 420.47 118.44 420.47 140.45 419.82 140.45"></polygon>
            <path d="M62.76,129.33 C61.9744355,129.33001 61.2664167,129.803766 60.9667369,130.529922 C60.6670571,131.256079 60.8348764,132.091286 61.3917879,132.645327 C61.9486993,133.199368 62.7847628,133.362869 63.5093611,133.05944 C64.2339595,132.756012 64.7040493,132.045554 64.7,131.26 C64.7000069,130.746395 64.4952961,130.25397 64.1311851,129.891736 C63.7670742,129.529502 63.2735983,129.327339 62.76,129.33 Z" id="Shape" fill="#F1C784"></path>
            <polygon id="Rectangle-path" fill="#F1C784" transform="translate(77.307060, 123.269839) rotate(-30.000000) translate(-77.307060, -123.269839) " points="66.4220597 122.769839 88.1920597 122.769839 88.1920597 123.329839 66.4220597 123.329839"></polygon>
            <path d="M35.91,112.32 C35.1244355,112.32001 34.4164167,112.793766 34.1167369,113.519922 C33.8170571,114.246079 33.9848764,115.081286 34.5417879,115.635327 C35.0986993,116.189368 35.9347628,116.352869 36.6593611,116.04944 C37.3839595,115.746012 37.8540493,115.035554 37.85,114.25 C37.8527074,113.735569 37.6488605,113.241569 37.284159,112.878747 C36.9194574,112.515925 36.4244103,112.314634 35.91,112.32 Z" id="Shape" fill="#F1C784"></path>
            <polygon id="Rectangle-path" fill="#F1C784" transform="translate(48.882104, 121.520062) rotate(-59.990000) translate(-48.882104, -121.520062) " points="48.3821038 111.400062 48.9421038 111.400062 48.9421038 131.640062 48.3821038 131.640062"></polygon>
            <polygon id="Rectangle-path" fill="#F1C784" transform="translate(50.454278, 106.255086) rotate(-30.000000) translate(-50.454278, -106.255086) " points="39.5692776 105.755086 61.3392776 105.755086 61.3392776 106.315086 39.5692776 106.315086"></polygon>
            <polygon id="Rectangle-path" fill="#F1C784" points="365.71 86.59 366.36 86.59 366.36 108.6 365.71 108.6"></polygon>
            <path d="M256.37,17.17 C255.583538,17.1659564 254.872451,17.6371337 254.569614,18.3629634 C254.266777,19.0887931 254.432118,19.9256415 254.988238,20.4817615 C255.544359,21.0378815 256.381207,21.2032231 257.107037,20.9003862 C257.832866,20.5975493 258.304044,19.8864621 258.3,19.1 C258.3,18.0340904 257.43591,17.17 256.37,17.17 Z" id="Shape" fill="#F1C784"></path>
            <path d="M201.78,17.17 C200.993538,17.1659564 200.282451,17.6371337 199.979614,18.3629634 C199.676777,19.0887931 199.842118,19.9256415 200.398238,20.4817615 C200.954359,21.0378815 201.791207,21.2032231 202.517037,20.9003862 C203.242866,20.5975493 203.714044,19.8864621 203.71,19.1 C203.71,18.5881322 203.506661,18.0972291 203.144716,17.7352839 C202.782771,17.3733387 202.291868,17.17 201.78,17.17 Z" id="Shape" fill="#F1C784"></path>
            <polygon id="Rectangle-path" fill="#F1C784" transform="translate(242.597399, 25.610138) rotate(-30.000000) translate(-242.597399, -25.610138) " points="231.712399 25.1101376 253.482399 25.1101376 253.482399 25.6701376 231.712399 25.6701376"></polygon>
            <polygon id="Rectangle-path" fill="#F1C784" transform="translate(215.687655, 42.378384) rotate(-30.000000) translate(-215.687655, -42.378384) " points="204.802655 41.8783836 226.572655 41.8783836 226.572655 42.4383836 204.802655 42.4383836"></polygon>
            <polygon id="Rectangle-path" fill="#F1C784" transform="translate(214.681630, 11.037147) rotate(-30.000000) translate(-214.681630, -11.037147) " points="203.79663 10.5371474 225.56663 10.5371474 225.56663 11.0971474 203.79663 11.0971474"></polygon>
            <polygon id="Rectangle-path" fill="#F1C784" points="310.07 55.31 310.72 55.31 310.72 77.32 310.07 77.32"></polygon>
            <polygon id="Rectangle-path" fill="#F1C784" points="310.07 87.08 310.72 87.08 310.72 109.09 310.07 109.09"></polygon>
            <polygon id="Rectangle-path" fill="#F1C784" points="338.37 70.71 339.02 70.71 339.02 92.72 338.37 92.72"></polygon>
            <path d="M284,127.88 C283.213538,127.875956 282.502451,128.347134 282.199614,129.072963 C281.896777,129.798793 282.062118,130.635641 282.618238,131.191762 C283.174359,131.747882 284.011207,131.913223 284.737037,131.610386 C285.462866,131.307549 285.934044,130.596462 285.93,129.81 C285.93,128.74409 285.06591,127.88 284,127.88 Z" id="Shape" fill="#F1C784"></path>
            <path d="M284,96 C282.944928,96.0331685 282.110007,96.9038286 282.121064,97.9593644 C282.132122,99.0149001 282.9851,99.8678778 284.040636,99.8789356 C285.096171,99.8899934 285.966832,99.0550724 286,98 C286.01983,97.4637335 285.815491,96.9434226 285.436034,96.5639658 C285.056577,96.184509 284.536266,95.9801701 284,96 Z" id="Shape" fill="#F1C784"></path>
            <polygon id="Rectangle-path" fill="#F1C784" transform="translate(298.902850, 106.044529) rotate(-59.990000) translate(-298.902850, -106.044529) " points="298.40285 95.9245289 298.96285 95.9245289 298.96285 116.164529 298.40285 116.164529"></polygon>
            <polygon id="Rectangle-path" fill="#F1C784" transform="translate(297.290328, 121.982666) rotate(-30.000000) translate(-297.290328, -121.982666) " points="286.405328 121.482666 308.175328 121.482666 308.175328 122.042666 286.405328 122.042666"></polygon>
            <polygon id="Rectangle-path" fill="#F1C784" transform="translate(298.909096, 74.584775) rotate(-59.990000) translate(-298.909096, -74.584775) " points="298.409096 64.4647754 298.969096 64.4647754 298.969096 84.7047754 298.409096 84.7047754"></polygon>
            <polygon id="Rectangle-path" fill="#F1C784" transform="translate(297.285328, 90.546167) rotate(-30.000000) translate(-297.285328, -90.546167) " points="286.400328 90.046167 308.170328 90.046167 308.170328 90.606167 286.400328 90.606167"></polygon>
            <polygon id="Rectangle-path" fill="#F1C784" transform="translate(297.263007, 58.524694) rotate(-30.000000) translate(-297.263007, -58.524694) " points="286.378007 58.0246939 308.148007 58.0246939 308.148007 58.5846939 286.378007 58.5846939"></polygon>
            <path d="M256.37,111.67 C255.584446,111.665951 254.873988,112.136041 254.57056,112.860639 C254.267131,113.585237 254.430632,114.421301 254.984673,114.978212 C255.538714,115.535124 256.373921,115.702943 257.100078,115.403263 C257.826234,115.103583 258.29999,114.395565 258.3,113.61 C258.300014,112.542461 257.437525,111.675503 256.37,111.67 Z" id="Shape" fill="#F1C784"></path>
            <polygon id="Rectangle-path" fill="#F1C784" transform="translate(269.325588, 106.336868) rotate(-30.000000) translate(-269.325588, -106.336868) " points="259.205588 105.836868 279.445588 105.836868 279.445588 106.396868 259.205588 106.396868"></polygon>
            <polygon id="Rectangle-path" fill="#F1C784" transform="translate(243.769979, 122.308634) rotate(-30.000000) translate(-243.769979, -122.308634) " points="233.649979 121.808634 253.889979 121.808634 253.889979 122.368634 233.649979 122.368634"></polygon>
            <polygon id="Rectangle-path" fill="#F1C784" transform="translate(270.897306, 121.574302) rotate(-59.990000) translate(-270.897306, -121.574302) " points="270.397306 110.689302 270.957306 110.689302 270.957306 132.459302 270.397306 132.459302"></polygon>
            <polygon id="Rectangle-path" fill="#F1C784" transform="translate(243.298740, 105.636787) rotate(-59.990000) translate(-243.298740, -105.636787) " points="242.79874 94.7517867 243.35874 94.7517867 243.35874 116.521787 242.79874 116.521787"></polygon>
            <polygon id="Rectangle-path" fill="#F1C784" points="283.7 102.72 284.35 102.72 284.35 124.73 283.7 124.73"></polygon>
            <path d="M284,64.26 C282.935705,64.2929437 282.096875,65.1775694 282.120499,66.2421121 C282.144122,67.3066547 283.02137,68.1531982 284.086078,68.1388963 C285.150787,68.1245944 286.004979,67.2547931 286,66.19 C286.000345,65.6657698 285.787426,65.1639529 285.410196,64.7999264 C285.032966,64.4358999 284.523885,64.2409864 284,64.26 Z" id="Shape" fill="#F1C784"></path>
            <path d="M284,32.49 C282.935705,32.5229437 282.096875,33.4075694 282.120499,34.4721121 C282.144122,35.5366547 283.02137,36.3831982 284.086078,36.3688963 C285.150787,36.3545944 286.004979,35.4847931 286,34.42 C286.000345,33.8957698 285.787426,33.3939529 285.410196,33.0299264 C285.032966,32.6658999 284.523885,32.4709864 284,32.49 Z" id="Shape" fill="#F1C784"></path>
            <path d="M229.36,32.49 C228.573538,32.4859564 227.862451,32.9571337 227.559614,33.6829634 C227.256777,34.4087931 227.422118,35.2456415 227.978238,35.8017615 C228.534359,36.3578815 229.371207,36.5232231 230.097037,36.2203862 C230.822866,35.9175493 231.294044,35.2064621 231.29,34.42 C231.29,33.3540904 230.42591,32.49 229.36,32.49 Z" id="Shape" fill="#F1C784"></path>
            <path d="M230.56,2.73 C230.55999,1.94443548 230.086234,1.23641665 229.360078,0.936736882 C228.633921,0.637057111 227.798714,0.804876373 227.244673,1.36178786 C226.690632,1.91869934 226.527131,2.75476279 226.83056,3.47936114 C227.133988,4.20395948 227.844446,4.6740493 228.63,4.67 C229.144431,4.67270735 229.638431,4.46886052 230.001253,4.10415896 C230.364075,3.73945741 230.565366,3.24441032 230.56,2.73 Z" id="Shape" fill="#F1C784"></path>
            <path d="M256.37,48.13 C255.584446,48.1259507 254.873988,48.5960405 254.57056,49.3206389 C254.267131,50.0452372 254.430632,50.8813007 254.984673,51.4382121 C255.538714,51.9951236 256.373921,52.1629429 257.100078,51.8632631 C257.826234,51.5635833 258.29999,50.8555645 258.3,50.07 C258.300014,49.0024607 257.437525,48.1355028 256.37,48.13 Z" id="Shape" fill="#F1C784"></path>
            <polygon id="Rectangle-path" fill="#F1C784" transform="translate(269.321928, 42.733992) rotate(-30.000000) translate(-269.321928, -42.733992) " points="259.201928 42.2339925 279.441928 42.2339925 279.441928 42.7939925 259.201928 42.7939925"></polygon>
            <polygon id="Rectangle-path" fill="#F1C784" transform="translate(270.922915, 57.965101) rotate(-60.010000) translate(-270.922915, -57.965101) " points="270.422915 47.0801009 270.982915 47.0801009 270.982915 68.8501009 270.422915 68.8501009"></polygon>
            <path d="M256.37,80.38 C255.584446,80.3759507 254.873988,80.8460405 254.57056,81.5706389 C254.267131,82.2952372 254.430632,83.1313007 254.984673,83.6882121 C255.538714,84.2451236 256.373921,84.4129429 257.100078,84.1132631 C257.826234,83.8135833 258.29999,83.1055645 258.3,82.32 C258.300014,81.2524607 257.437525,80.3855028 256.37,80.38 Z" id="Shape" fill="#F1C784"></path>
            <polygon id="Rectangle-path" fill="#F1C784" transform="translate(269.308267, 74.988312) rotate(-30.000000) translate(-269.308267, -74.988312) " points="259.188267 74.4883117 279.428267 74.4883117 279.428267 75.0483117 259.188267 75.0483117"></polygon>
            <polygon id="Rectangle-path" fill="#F1C784" transform="translate(243.275626, 89.683885) rotate(-30.000000) translate(-243.275626, -89.683885) " points="233.155626 89.1838852 253.395626 89.1838852 253.395626 89.7438852 233.155626 89.7438852"></polygon>
            <polygon id="Rectangle-path" fill="#F1C784" transform="translate(270.941131, 90.246272) rotate(-59.990000) translate(-270.941131, -90.246272) " points="270.441131 79.3612715 271.001131 79.3612715 271.001131 101.131272 270.441131 101.131272"></polygon>
            <polygon id="Rectangle-path" fill="#F1C784" transform="translate(216.079860, 27.527159) rotate(-59.990000) translate(-216.079860, -27.527159) " points="215.57986 16.6421589 216.13986 16.6421589 216.13986 38.4121589 215.57986 38.4121589"></polygon>
            <polygon id="Rectangle-path" fill="#F1C784" points="283.7 39.1 284.35 39.1 284.35 61.11 283.7 61.11"></polygon>
            <polygon id="Rectangle-path" fill="#F1C784" points="228.31 8.22 228.96 8.22 228.96 30.23 228.31 30.23"></polygon>
            <polygon id="Rectangle-path" fill="#F1C784" points="283.7 70.71 284.35 70.71 284.35 92.72 283.7 92.72"></polygon>
            <polygon id="Rectangle-path" fill="#F1C784" points="255.64 87.24 256.29 87.24 256.29 109.25 255.64 109.25"></polygon>
            <polygon id="Rectangle-path" fill="#F1C784" points="255.64 55.23 256.29 55.23 256.29 77.24 255.64 77.24"></polygon>
            <polygon id="Rectangle-path" fill="#F1C784" points="255.64 24.02 256.29 24.02 256.29 46.03 255.64 46.03"></polygon>
            <polygon id="Rectangle-path" fill="#F1C784" points="228.95 103.77 229.6 103.77 229.6 125.78 228.95 125.78"></polygon>
            <polygon id="Rectangle-path" fill="#F1C784" points="228.95 71.76 229.6 71.76 229.6 93.77 228.95 93.77"></polygon>
            <polygon id="Rectangle-path" fill="#F1C784" points="228.95 39.26 229.6 39.26 229.6 61.27 228.95 61.27"></polygon>
            <polygon id="Rectangle-path" fill="#F1C784" points="201.46 24.34 202.11 24.34 202.11 46.35 201.46 46.35"></polygon>
            <path d="M119.45,128 C118.663538,127.995956 117.952451,128.467134 117.649614,129.192963 C117.346777,129.918793 117.512118,130.755641 118.068238,131.311762 C118.624359,131.867882 119.461207,132.033223 120.187037,131.730386 C120.912866,131.427549 121.384044,130.716462 121.38,129.93 C121.374531,128.866364 120.513636,128.005469 119.45,128 Z" id="Shape" fill="#F1C784"></path>
            <path d="M147,112.32 C146.213538,112.315956 145.502451,112.787134 145.199614,113.512963 C144.896777,114.238793 145.062118,115.075641 145.618238,115.631762 C146.174359,116.187882 147.011207,116.353223 147.737037,116.050386 C148.462866,115.747549 148.934044,115.036462 148.93,114.25 C148.93,113.18409 148.06591,112.32 147,112.32 Z" id="Shape" fill="#F1C784"></path>
            <polygon id="Rectangle-path" fill="#F1C784" transform="translate(132.421710, 122.634422) rotate(-30.000000) translate(-132.421710, -122.634422) " points="122.30171 122.134422 142.54171 122.134422 142.54171 122.694422 122.30171 122.694422"></polygon>
            <path d="M119.45,96.51 C118.664446,96.5059507 117.953988,96.9760405 117.65056,97.7006389 C117.347131,98.4252372 117.510632,99.2613007 118.064673,99.8182121 C118.618714,100.375124 119.453921,100.542943 120.180078,100.243263 C120.906234,99.9435833 121.37999,99.2355645 121.38,98.45 C121.380014,97.3824607 120.517525,96.5155028 119.45,96.51 Z" id="Shape" fill="#F1C784"></path>
            <polygon id="Rectangle-path" fill="#F1C784" transform="translate(132.426710, 91.177923) rotate(-30.000000) translate(-132.426710, -91.177923) " points="122.30671 90.6779233 142.54671 90.6779233 142.54671 91.2379233 122.30671 91.2379233"></polygon>
            <polygon id="Rectangle-path" fill="#F1C784" transform="translate(133.995335, 106.385279) rotate(-59.990000) translate(-133.995335, -106.385279) " points="133.495335 95.5002792 134.055335 95.5002792 134.055335 117.270279 133.495335 117.270279"></polygon>
            <path d="M92.11,111.91 C91.0385676,111.91 90.17,112.778568 90.17,113.85 C90.17,114.921432 91.0385676,115.79 92.11,115.79 C93.1814324,115.79 94.05,114.921432 94.05,113.85 C94.05,113.33548 93.8456077,112.842033 93.4817872,112.478213 C93.1179666,112.114392 92.62452,111.91 92.11,111.91 Z" id="Shape" fill="#F1C784"></path>
            <polygon id="Rectangle-path" fill="#F1C784" transform="translate(105.089576, 106.574715) rotate(-30.000000) translate(-105.089576, -106.574715) " points="94.9695755 106.074715 115.209576 106.074715 115.209576 106.634715 94.9695755 106.634715"></polygon>
            <polygon id="Rectangle-path" fill="#F1C784" transform="translate(106.603598, 121.845661) rotate(-59.990000) translate(-106.603598, -121.845661) " points="106.103598 110.960661 106.663598 110.960661 106.663598 132.730661 106.103598 132.730661"></polygon>
            <polygon id="Rectangle-path" fill="#F1C784" points="63.57 103.93 64.22 103.93 64.22 125.94 63.57 125.94"></polygon>
            <path d="M64.05,96 C62.9878112,96.0059839 62.1279393,96.8650591 62.1209708,97.9272419 C62.1140022,98.9894246 62.9625284,99.859708 64.0245473,99.879628 C65.0865661,99.8995481 65.9671314,99.0616969 66,98 C66.0220988,97.4718188 65.8254445,96.957895 65.4563986,96.5793864 C65.0873526,96.2008777 64.5785713,95.9912779 64.05,96 Z" id="Shape" fill="#F1C784"></path>
            <polygon id="Rectangle-path" fill="#F1C784" transform="translate(78.583628, 105.926841) rotate(-59.990000) translate(-78.583628, -105.926841) " points="78.0836283 95.0418411 78.6436283 95.0418411 78.6436283 116.811841 78.0836283 116.811841"></polygon>
            <path d="M174.68,128 C173.894435,128.00001 173.186417,128.473766 172.886737,129.199922 C172.587057,129.926079 172.754876,130.761286 173.311788,131.315327 C173.868699,131.869368 174.704763,132.032869 175.429361,131.72944 C176.153959,131.426012 176.624049,130.715554 176.62,129.93 C176.614497,128.862475 175.747539,127.999986 174.68,128 Z" id="Shape" fill="#F1C784"></path>
            <polygon id="Rectangle-path" fill="#F1C784" transform="translate(161.929983, 122.274528) rotate(-59.990000) translate(-161.929983, -122.274528) " points="161.429983 112.154528 161.989983 112.154528 161.989983 132.394528 161.429983 132.394528"></polygon>
            <path d="M147,80.55 C145.935705,80.5829437 145.096875,81.4675694 145.120499,82.5321121 C145.144122,83.5966547 146.02137,84.4431982 147.086078,84.4288963 C148.150787,84.4145944 149.004979,83.5447931 149,82.48 C149.000345,81.9557698 148.787426,81.4539529 148.410196,81.0899264 C148.032966,80.7258999 147.523885,80.5309864 147,80.55 Z" id="Shape" fill="#F1C784"></path>
            <path d="M147,48.69 C145.937,48.7228921 145.098646,49.6054806 145.120406,50.6687663 C145.142167,51.7320521 146.015929,52.5796015 147.079384,52.5689751 C148.14284,52.5583487 148.999491,51.6935083 149,50.63 C149.000251,50.1049136 148.787643,49.6021517 148.410741,49.2365561 C148.033838,48.8709605 147.524835,48.6737602 147,48.69 Z" id="Shape" fill="#F1C784"></path>
            <path d="M174.68,64.34 C173.894435,64.3400104 173.186417,64.8137656 172.886737,65.5399223 C172.587057,66.2660791 172.754876,67.1012864 173.311788,67.6553272 C173.868699,68.209368 174.704763,68.3728688 175.429361,68.0694403 C176.153959,67.7660118 176.624049,67.0555541 176.62,66.27 C176.620007,65.7563948 176.415296,65.2639702 176.051185,64.9017362 C175.687074,64.5395021 175.193598,64.3373388 174.68,64.34 Z" id="Shape" fill="#F1C784"></path>
            <polygon id="Rectangle-path" fill="#F1C784" transform="translate(161.907656, 58.657233) rotate(-59.990000) translate(-161.907656, -58.657233) " points="161.407656 48.5372329 161.967656 48.5372329 161.967656 68.7772329 161.407656 68.7772329"></polygon>
            <polygon id="Rectangle-path" fill="#F1C784" transform="translate(160.364130, 74.645023) rotate(-30.000000) translate(-160.364130, -74.645023) " points="149.47913 74.1450234 171.24913 74.1450234 171.24913 74.7050234 149.47913 74.7050234"></polygon>
            <path d="M174.68,96.59 C173.608568,96.59 172.74,97.4585676 172.74,98.53 C172.74,99.6014324 173.608568,100.47 174.68,100.47 C175.751432,100.47 176.62,99.6014324 176.62,98.53 C176.62,98.01548 176.415608,97.5220334 176.051787,97.1582128 C175.687967,96.7943923 175.19452,96.59 174.68,96.59 Z" id="Shape" fill="#F1C784"></path>
            <polygon id="Rectangle-path" fill="#F1C784" transform="translate(161.914161, 90.917107) rotate(-59.990000) translate(-161.914161, -90.917107) " points="161.414161 80.7971072 161.974161 80.7971072 161.974161 101.037107 161.414161 101.037107"></polygon>
            <polygon id="Rectangle-path" fill="#F1C784" transform="translate(160.372790, 106.898003) rotate(-30.000000) translate(-160.372790, -106.898003) " points="149.48779 106.398003 171.25779 106.398003 171.25779 106.958003 149.48779 106.958003"></polygon>
            <polygon id="Rectangle-path" fill="#F1C784" points="146.62 55.39 147.27 55.39 147.27 77.4 146.62 77.4"></polygon>
            <polygon id="Rectangle-path" fill="#F1C784" points="146.62 87 147.27 87 147.27 109.01 146.62 109.01"></polygon>
            <polygon id="Rectangle-path" fill="#F1C784" points="174.36 103.2 175.01 103.2 175.01 125.21 174.36 125.21"></polygon>
            <polygon id="Rectangle-path" fill="#F1C784" points="174.36 71.19 175.01 71.19 175.01 93.2 174.36 93.2"></polygon>
            <polygon id="Rectangle-path" fill="#F1C784" points="118.56 104.17 119.21 104.17 119.21 126.18 118.56 126.18"></polygon>
            <path d="M201.62,144.09 C200.833538,144.085956 200.122451,144.557134 199.819614,145.282963 C199.516777,146.008793 199.682118,146.845641 200.238238,147.401762 C200.794359,147.957882 201.631207,148.123223 202.357037,147.820386 C203.082866,147.517549 203.554044,146.806462 203.55,146.02 C203.55,145.508132 203.346661,145.017229 202.984716,144.655284 C202.622771,144.293339 202.131868,144.09 201.62,144.09 Z" id="Shape" fill="#F1C784"></path>
            <path d="M201.62,112.32 C200.833538,112.315956 200.122451,112.787134 199.819614,113.512963 C199.516777,114.238793 199.682118,115.075641 200.238238,115.631762 C200.794359,116.187882 201.631207,116.353223 202.357037,116.050386 C203.082866,115.747549 203.554044,115.036462 203.55,114.25 C203.55,113.738132 203.346661,113.247229 202.984716,112.885284 C202.622771,112.523339 202.131868,112.32 201.62,112.32 Z" id="Shape" fill="#F1C784"></path>
            <polygon id="Rectangle-path" fill="#F1C784" transform="translate(187.801700, 123.206600) rotate(-29.886527) translate(-187.801700, -123.206600) " points="177.646846 122.704878 197.956554 122.704878 197.956554 123.266807 177.646846 123.266807"></polygon>
            <polygon id="Rectangle-path" fill="#F1C784" transform="translate(188.620641, 137.892500) rotate(-59.990000) translate(-188.620641, -137.892500) " points="188.120641 127.0075 188.680641 127.0075 188.680641 148.7775 188.120641 148.7775"></polygon>
            <polygon id="Rectangle-path" fill="#F1C784" transform="translate(187.018037, 91.208904) rotate(-30.000000) translate(-187.018037, -91.208904) " points="176.898037 90.708904 197.138037 90.708904 197.138037 91.268904 176.898037 91.268904"></polygon>
            <polygon id="Rectangle-path" fill="#F1C784" transform="translate(188.607705, 106.416957) rotate(-60.000000) translate(-188.607705, -106.416957) " points="188.107705 95.5319572 188.667705 95.5319572 188.667705 117.301957 188.107705 117.301957"></polygon>
            <polygon id="Rectangle-path" fill="#F1C784" transform="translate(188.599654, 74.270203) rotate(-59.990000) translate(-188.599654, -74.270203) " points="188.099654 63.3852029 188.659654 63.3852029 188.659654 85.1552029 188.099654 85.1552029"></polygon>
            <path d="M229.36,128 C228.573538,127.995956 227.862451,128.467134 227.559614,129.192963 C227.256777,129.918793 227.422118,130.755641 227.978238,131.311762 C228.534359,131.867882 229.371207,132.033223 230.097037,131.730386 C230.822866,131.427549 231.294044,130.716462 231.29,129.93 C231.284531,128.866364 230.423636,128.005469 229.36,128 Z" id="Shape" fill="#F1C784"></path>
            <polygon id="Rectangle-path" fill="#F1C784" transform="translate(216.592266, 122.257346) rotate(-59.990000) translate(-216.592266, -122.257346) " points="216.092266 112.137346 216.652266 112.137346 216.652266 132.377346 216.092266 132.377346"></polygon>
            <polygon id="Rectangle-path" fill="#F1C784" transform="translate(214.999983, 138.189576) rotate(-29.990000) translate(-214.999983, -138.189576) " points="204.114983 137.689576 225.884983 137.689576 225.884983 138.249576 204.114983 138.249576"></polygon>
            <polygon id="Rectangle-path" fill="#F1C784" points="201.29 119.01 201.94 119.01 201.94 141.02 201.29 141.02"></polygon>
            <path d="M201.62,80.55 C200.833538,80.5459564 200.122451,81.0171337 199.819614,81.7429634 C199.516777,82.4687931 199.682118,83.3056415 200.238238,83.8617615 C200.794359,84.4178815 201.631207,84.5832231 202.357037,84.2803862 C203.082866,83.9775493 203.554044,83.2664621 203.55,82.48 C203.55,81.9681322 203.346661,81.4772291 202.984716,81.1152839 C202.622771,80.7533387 202.131868,80.55 201.62,80.55 Z" id="Shape" fill="#F1C784"></path>
            <path d="M201.62,48.69 C200.834446,48.6859507 200.123988,49.1560405 199.82056,49.8806389 C199.517131,50.6052372 199.680632,51.4413007 200.234673,51.9982121 C200.788714,52.5551236 201.623921,52.7229429 202.350078,52.4232631 C203.076234,52.1235833 203.54999,51.4155645 203.55,50.63 C203.550014,49.5624607 202.687525,48.6955028 201.62,48.69 Z" id="Shape" fill="#F1C784"></path>
            <path d="M229.36,64.34 C228.573538,64.3359564 227.862451,64.8071337 227.559614,65.5329634 C227.256777,66.2587931 227.422118,67.0956415 227.978238,67.6517615 C228.534359,68.2078815 229.371207,68.3732231 230.097037,68.0703862 C230.822866,67.7675493 231.294044,67.0564621 231.29,66.27 C231.29,65.7581322 231.086661,65.2672291 230.724716,64.9052839 C230.362771,64.5433387 229.871868,64.34 229.36,64.34 Z" id="Shape" fill="#F1C784"></path>
            <polygon id="Rectangle-path" fill="#F1C784" transform="translate(216.569939, 58.640050) rotate(-59.990000) translate(-216.569939, -58.640050) " points="216.069939 48.5200505 216.629939 48.5200505 216.629939 68.7600505 216.069939 68.7600505"></polygon>
            <polygon id="Rectangle-path" fill="#F1C784" transform="translate(215.034739, 74.641363) rotate(-30.000000) translate(-215.034739, -74.641363) " points="204.149739 74.1413631 225.919739 74.1413631 225.919739 74.7013631 204.149739 74.7013631"></polygon>
            <polygon id="Rectangle-path" fill="#F1C784" transform="translate(188.552386, 59.630982) rotate(-30.000000) translate(-188.552386, -59.630982) " points="177.667386 59.1309821 199.437386 59.1309821 199.437386 59.6909821 177.667386 59.6909821"></polygon>
            <polygon id="Rectangle-path" fill="#F1C784" transform="translate(242.755963, 58.105963) rotate(-30.000000) translate(-242.755963, -58.105963) " points="231.870963 57.6059632 253.640963 57.6059632 253.640963 58.1659632 231.870963 58.1659632"></polygon>
            <path d="M229.36,96.59 C228.574446,96.5859507 227.863988,97.0560405 227.56056,97.7806389 C227.257131,98.5052372 227.420632,99.3413007 227.974673,99.8982121 C228.528714,100.455124 229.363921,100.622943 230.090078,100.323263 C230.816234,100.023583 231.28999,99.3155645 231.29,98.53 C231.290014,97.4624607 230.427525,96.5955028 229.36,96.59 Z" id="Shape" fill="#F1C784"></path>
            <polygon id="Rectangle-path" fill="#F1C784" transform="translate(216.560340, 90.879047) rotate(-60.000000) translate(-216.560340, -90.879047) " points="216.06034 80.7590471 216.62034 80.7590471 216.62034 100.999047 216.06034 100.999047"></polygon>
            <polygon id="Rectangle-path" fill="#F1C784" transform="translate(215.029739, 106.890682) rotate(-30.000000) translate(-215.029739, -106.890682) " points="204.144739 106.390682 225.914739 106.390682 225.914739 106.950682 204.144739 106.950682"></polygon>
            <polygon id="Rectangle-path" fill="#F1C784" points="201.29 55.39 201.94 55.39 201.94 77.4 201.29 77.4"></polygon>
            <polygon id="Rectangle-path" fill="#F1C784" points="201.29 87 201.94 87 201.94 109.01 201.29 109.01"></polygon>
            <path d="M120,289.56 C119.868177,289.572044 119.735778,289.54417 119.62,289.48 L114.89,286.81 C114.651487,286.660936 114.504693,286.401223 114.5,286.12 C114.498923,285.837239 114.647194,285.574914 114.89,285.43 L119.62,282.61 C119.851944,282.450684 120.158056,282.450684 120.39,282.61 L125.12,285.43 C125.360479,285.575942 125.505213,285.838749 125.5,286.12 C125.499333,286.399764 125.356079,286.659883 125.12,286.81 L120.39,289.48 C120.261775,289.514685 120.131526,289.541403 120,289.56 Z M116.75,286 L119.96,287.84 L123.17,286 L120,284.13 L116.75,286 Z" id="Shape" fill="#D8BFDB"></path>
            <path d="M120,300.33 C119.740872,300.329906 119.504321,300.182547 119.39,299.95 L114.66,292.31 C114.58,292.15 114.5,292.08 114.5,291.93 L114.5,286 C114.502432,285.720808 114.650246,285.463081 114.89,285.32 C115.117914,285.159506 115.422086,285.159506 115.65,285.32 L120.39,287.99 C120.626079,288.140117 120.769333,288.400236 120.77,288.68 L120.77,299.45 C120.741192,299.782533 120.534538,300.07338 120.23,300.21 C120.180191,300.288123 120.092571,300.333837 120,300.33 Z M116,291.7 L119.21,296.89 L119.21,289.17 L116,287.34 L116,291.7 Z" id="Shape" fill="#D8BFDB"></path>
            <path d="M120,300.33 C119.868177,300.342044 119.735778,300.31417 119.62,300.25 C119.379521,300.104058 119.234787,299.841251 119.24,299.56 L119.24,288.79 C119.238343,288.512299 119.382619,288.254121 119.62,288.11 L124.36,285.43 C124.591278,285.280503 124.888722,285.280503 125.12,285.43 C125.360479,285.575942 125.505213,285.838749 125.5,286.12 L125.5,296.81 C125.505213,297.091251 125.360479,297.354058 125.12,297.5 L120.39,300.33 C120.27,300.25 120.12,300.33 120,300.33 Z M120.77,289.17 L120.77,298.17 L123.98,296.26 L123.98,287.32 L120.77,289.17 Z" id="Shape" fill="#D8BFDB"></path>
            <path d="M152.74,229.39 C151.750106,229.182359 150.769959,229.782417 150.50473,230.758459 C150.239502,231.734502 150.781157,232.748092 151.74,233.07 L153.53,233.57 C135.451638,241.394689 121.147398,255.975252 113.67,274.2 C109.966926,282.931563 107.879752,292.262857 107.51,301.74 C107.51,302.794864 108.365136,303.65 109.42,303.65 C109.928301,303.650007 110.415638,303.447403 110.774122,303.087043 C111.132605,302.726683 111.332661,302.238294 111.33,301.73 C111.33,301.27 111.73,255.64 156.19,236.57 L155.3,239.78 C155.074319,240.45222 155.23962,241.19414 155.729331,241.70697 C156.219042,242.2198 156.952554,242.419124 157.634463,242.224669 C158.316371,242.030214 158.834429,241.473989 158.98,240.78 L161.47,231.78 L152.74,229.39 Z" id="Shape" fill="#CA8C98"></path>
            <path d="M364.92,274.2 C357.442602,255.975252 343.138362,241.394689 325.06,233.57 L326.86,233.07 C327.553989,232.924429 328.110214,232.406371 328.304669,231.724463 C328.499124,231.042554 328.2998,230.309042 327.78697,229.819331 C327.27414,229.32962 326.53222,229.164319 325.86,229.39 L317.15,231.81 L319.65,240.81 C319.876144,241.639082 320.630635,242.213151 321.49,242.21 C321.66244,242.21068 321.83412,242.187116 322,242.14 C323.015973,241.858039 323.611293,240.806158 323.33,239.79 L322.44,236.6 C340.76,244.44 353.86,257.52 361.36,275.53 C364.879856,283.84442 366.88799,292.720169 367.29,301.74 C367.287339,302.248294 367.487395,302.736683 367.845878,303.097043 C368.204362,303.457403 368.691699,303.660007 369.2,303.66 C369.70738,303.662678 370.194753,303.462306 370.553529,303.103529 C370.912306,302.744753 371.112678,302.25738 371.11,301.75 C370.737698,292.26685 368.640088,282.930962 364.92,274.2 Z" id="Shape" fill="#CA8C98"></path>
            <polygon id="Shape" fill="#000000" opacity="0.1" points="61.25 244.57 61.25 234.54 79.67 245.54 40.96 267.91 30.92 261.97"></polygon>
            <polygon id="Shape" fill="#CFBDCC" points="32.78 212.95 20.86 219.75 32.78 226.62 44.62 219.75"></polygon>
            <polygon id="Shape" fill="#956C89" points="20.86 219.75 32.7 226.54 32.7 240.75 20.86 233.88"></polygon>
            <polygon id="Shape" fill="#6C2B5B" points="44.62 219.75 32.7 226.54 32.7 240.75 44.62 233.88"></polygon>
            <path d="M65.85,225.7 L47.44,193.54 C47.3410404,193.355064 47.1709199,193.218502 46.9689596,193.161877 C46.7669993,193.105253 46.5506797,193.133468 46.37,193.24 L18.43,209 C18.310955,209.010657 18.1986214,209.059803 18.11,209.14 L0.62,221.81 C0.398037553,221.965819 0.279090923,222.230572 0.31,222.5 C0.397660657,222.74542 0.558144493,222.958235 0.77,223.11 L2.91,224.11 L2.91,245.34 C2.90834299,245.617701 3.05261857,245.875879 3.29,246.02 L32,262.6 C32.119316,262.664406 32.2549634,262.692231 32.39,262.68 L32.58,262.68 C32.6742537,262.649053 32.7622803,262.601654 32.84,262.54 L46.67,254.68 C46.906079,254.529883 47.0493329,254.269764 47.05,253.99 L47.05,252.77 L54.46,248.56 L55.23,249.18 C55.4643605,249.384997 55.8049415,249.413379 56.07,249.25 L61.57,246.04 C61.8073814,245.895879 61.951657,245.637701 61.95,245.36 L61.95,228.9 L65.54,226.77 C65.726645,226.672803 65.8653775,226.503452 65.923937,226.301328 C65.9824965,226.099203 65.9557799,225.881918 65.85,225.7 Z M37.21,243.58 L45.46,238.69 L45.46,248 L33.16,255.07 L33.16,254.73 L33.3,241.32 L36.21,243.32 C36.3088889,243.442064 36.4464697,243.526729 36.6,243.56 C36.6910651,243.6039 36.7893069,243.631001 36.89,243.64 C36.9759046,243.636288 37.0590493,243.608573 37.13,243.56 L37.21,243.58 Z M53.71,247.16 L47,251 L47,248.73 C47.0300725,248.6085 47.0300725,248.4815 47,248.36 L47,237.78 L53.72,233.78 L53.71,247.16 Z M31.63,240.37 L31.63,255.06 L4.51,239.41 L4.51,224.1 L17.73,214.86 L31.66,240.23 C31.6452411,240.275519 31.6351886,240.322431 31.63,240.37 Z M18.25,210.87 L34.49,240.21 L32.78,239.07 L32.72,239.07 L18.57,213.33 C18.4985708,213.12813 18.3217245,212.982039 18.11,212.95 C17.8948675,212.918153 17.6758294,212.972015 17.5,213.1 L3.65,222.8 L2.53,222.27 L18.25,210.87 Z M4.51,244.87 L4.51,241.22 L31.63,256.87 L31.63,260.6 L4.44,244.88 L4.51,244.87 Z M45.51,253.58 L33.21,260.58 L33.21,256.85 L45.51,249.78 L45.51,252.26 L45.51,253.58 Z M55.74,247.58 L55.29,247.21 L55.29,244.12 L60.48,241.12 L60.48,245 L55.74,247.58 Z M60.48,239.28 L55.29,242.28 L55.29,233.04 C55.2994367,232.973667 55.2994367,232.906333 55.29,232.84 L60.52,229.74 L60.48,239.28 Z M37.18,241.69 L28.39,225.76 L19.64,210 L46.53,194.88 L64.17,225.7 L37.18,241.69 Z" id="Shape" fill="#CFBDCC"></path>
            <path d="M43.47,199.43 L39,202.07 C38.8934085,202.085286 38.7912083,202.12276 38.7,202.18 C38.4602456,202.323081 38.3124318,202.580808 38.31,202.86 L38.31,208.75 C38.31,208.9 38.39,208.97 38.47,209.13 L43.07,216.56 C43.1180658,216.770815 43.2474527,216.954113 43.43,217.07 C43.545778,217.13417 43.6781769,217.162044 43.81,217.15 L44.2,217.15 L49,214.32 C49.2404788,214.174058 49.3852129,213.911251 49.38,213.63 L49.38,202.94 C49.3852129,202.658749 49.2404788,202.395942 49,202.25 L44.27,199.43 C44.0315394,199.256545 43.7084606,199.256545 43.47,199.43 Z M43.85,201.03 L47,202.92 L43.89,204.67 L40.72,202.88 L43.85,201.03 Z M39.85,204.27 L43.06,206.09 L43.06,213.79 L39.85,208.59 L39.85,204.27 Z M44.59,215.09 L44.59,206.09 L47.8,204.27 L47.8,213.18 L44.59,215.09 Z" id="Shape" fill="#CFBDCC"></path>
            <polygon id="Shape" fill="#000000" opacity="0.1" points="474.22 244.57 474.23 234.54 492.65 245.54 453.94 267.91 443.9 261.97"></polygon>
            <polygon id="Shape" fill="#CFBDCC" points="445.75 212.95 433.84 219.75 445.75 226.62 457.6 219.75"></polygon>
            <polygon id="Shape" fill="#956C89" points="433.84 219.75 445.68 226.54 445.68 240.75 433.84 233.88"></polygon>
            <polygon id="Shape" fill="#6C2B5B" points="457.6 219.75 445.68 226.54 445.68 240.75 457.6 233.88"></polygon>
            <path d="M478.83,225.7 L460.42,193.54 C460.32104,193.355064 460.15092,193.218502 459.94896,193.161877 C459.746999,193.105253 459.53068,193.133468 459.35,193.24 L431.41,209 C431.290382,209.008375 431.177334,209.057834 431.09,209.14 L413.59,221.82 C413.375179,221.980893 413.261149,222.243163 413.29,222.51 C413.377661,222.75542 413.538144,222.968235 413.75,223.12 L415.89,224.12 L415.89,245.35 C415.888343,245.627701 416.032619,245.885879 416.27,246.03 L445,262.6 C445.115778,262.66417 445.248177,262.692044 445.38,262.68 L445.58,262.68 C445.674254,262.649053 445.76228,262.601654 445.84,262.54 L459.67,254.68 C459.884136,254.520568 460.007254,254.266872 460,254 L460,252.78 L467.41,248.57 L468.17,249.19 C468.40436,249.394997 468.744941,249.423379 469.01,249.26 L474.51,246.05 C474.749754,245.906919 474.897568,245.649192 474.9,245.37 L474.9,228.9 L478.49,226.77 C478.68182,226.678235 478.827153,226.511231 478.891548,226.308576 C478.955943,226.105921 478.933667,225.885658 478.83,225.7 Z M450.19,243.58 L458.43,238.69 L458.43,248 L446.14,255.07 L446.14,254.73 L446.28,241.32 L449.19,243.32 C449.286843,243.439595 449.420396,243.523944 449.57,243.56 C449.66065,243.604996 449.759101,243.632155 449.86,243.64 C449.945905,243.636288 450.029049,243.608573 450.1,243.56 L450.19,243.58 Z M466.69,247.16 L460,251 L460,248.73 C460.03473,248.609112 460.03473,248.480888 460,248.36 L460,237.78 L466.73,233.78 L466.69,247.16 Z M444.61,240.37 L444.61,255.06 L417.49,239.41 L417.49,224.1 L430.71,214.86 L444.63,240.23 C444.63,240.23 444.61,240.32 444.61,240.37 Z M431.23,210.87 L447.46,240.21 L445.75,239.07 L445.7,239.07 L431.55,213.35 C431.478571,213.14813 431.301724,213.002039 431.09,212.97 C430.874868,212.938153 430.655829,212.992015 430.48,213.12 L416.63,222.82 L415.5,222.29 L431.23,210.87 Z M417.49,244.87 L417.49,241.22 L444.61,256.87 L444.61,260.6 L417.41,244.87 L417.49,244.87 Z M458.43,253.58 L446.14,260.58 L446.14,256.85 L458.43,249.78 L458.43,252.26 L458.43,253.58 Z M468.67,247.58 L468.21,247.21 L468.21,244.12 L473.41,241.12 L473.41,245 L468.67,247.58 Z M473.41,239.28 L468.21,242.28 L468.21,233.04 C468.214837,232.973421 468.214837,232.906579 468.21,232.84 L473.44,229.74 L473.41,239.28 Z M450.11,241.69 L441.31,225.76 L432.62,210 L459.5,194.88 L477.15,225.66 L450.11,241.69 Z" id="Shape" fill="#CFBDCC"></path>
            <path d="M456.45,199.43 L452,202.07 C451.893883,202.087134 451.792041,202.124476 451.7,202.18 C451.462619,202.324121 451.318343,202.582299 451.32,202.86 L451.32,208.75 C451.32,208.9 451.4,208.97 451.47,209.13 L456.08,216.56 C456.128066,216.770815 456.257453,216.954113 456.44,217.07 C456.555778,217.13417 456.688177,217.162044 456.82,217.15 L457.2,217.15 L461.94,214.32 C462.180479,214.174058 462.325213,213.911251 462.32,213.63 L462.32,202.94 C462.325213,202.658749 462.180479,202.395942 461.94,202.25 L457.2,199.43 C456.974288,199.274155 456.675712,199.274155 456.45,199.43 Z M456.83,201.03 L460,202.92 L456.9,204.67 L453.72,202.88 L456.83,201.03 Z M452.83,204.27 L456.04,206.09 L456.04,213.79 L452.83,208.59 L452.83,204.27 Z M457.56,215.09 L457.56,206.09 L460.77,204.27 L460.77,213.18 L457.56,215.09 Z" id="Shape" fill="#CFBDCC"></path>
            <path d="M446.71,217.76 C446.41,217.14 439.09,202.39 421.43,189.35 C405.63,177.68 378.31,165.41 337.18,172.02 L338.57,170.26 C339.024465,169.727068 339.150788,168.98814 338.899173,168.334501 C338.647558,167.680862 338.058369,167.217366 337.363863,167.126724 C336.669357,167.036082 335.980946,167.332833 335.57,167.9 L330,175 L337.33,180.77 C337.862932,181.224465 338.60186,181.350788 339.255499,181.099173 C339.909138,180.847558 340.372634,180.258369 340.463276,179.563863 C340.553918,178.869357 340.257167,178.180946 339.69,177.77 L337.28,175.87 C377.28,169.3 403.77,181.08 419.03,192.3 C436.03,204.78 443.23,219.3 443.3,219.43 C443.592247,220.056035 444.199793,220.475446 444.888772,220.526786 C445.577751,220.578127 446.240749,220.253394 446.622554,219.677587 C447.004359,219.101781 447.045446,218.364672 446.73,217.75 L446.71,217.76 Z" id="Shape" fill="#CA8C98"></path>
            <path d="M142.51,167.9 C141.844591,167.119703 140.681746,167.00412 139.875757,167.638165 C139.069767,168.27221 138.908309,169.429578 139.51,170.26 L140.89,172.02 C99.76,165.41 72.45,177.68 56.65,189.35 C38.99,202.35 31.65,217.14 31.37,217.76 C31.1464831,218.21452 31.1137002,218.739473 31.2789322,219.21827 C31.4441643,219.697068 31.7937323,220.090072 32.25,220.31 C32.5059125,220.444167 32.7910647,220.512878 33.08,220.51 C33.8115089,220.514182 34.4804528,220.098037 34.8,219.44 C34.87,219.29 42.1,204.79 59.07,192.31 C74.33,181.09 100.8,169.31 140.81,175.88 L138.41,177.78 C137.58235,178.432132 137.439162,179.631332 138.09,180.46 C138.448756,180.923992 139.003503,181.193969 139.59,181.19 C140.01778,181.187172 140.432629,181.043029 140.77,180.78 L148.1,175 L142.51,167.9 Z" id="Shape" fill="#CA8C98"></path>
            <path d="M248.91,272.46 L242.31,265.86 L235.92,272.26 C235.413965,272.737356 235.207484,273.45209 235.380995,274.125762 C235.554506,274.799434 236.080566,275.325494 236.754238,275.499005 C237.42791,275.672516 238.142644,275.466035 238.62,274.96 L240.34,273.24 L240.34,324.7 C240.34,325.754864 241.195136,326.61 242.25,326.61 C243.304864,326.61 244.16,325.754864 244.16,324.7 L244.16,273.11 L246.21,275.16 C246.961556,275.868963 248.140634,275.851774 248.871204,275.121204 C249.601774,274.390634 249.618963,273.211556 248.91,272.46 Z" id="Shape" fill="#CA8C98"></path>
            <path d="M366.82,240.31 C372.82,243.75 382.48,243.73 388.48,240.31 C394.48,236.89 394.48,231.24 388.55,227.8 C383.06,224.63 374.39,224.4 368.37,227.09 L363.62,224.34 C362.773583,223.915466 361.776417,223.915466 360.93,224.34 C360.599574,224.454225 360.377909,224.765388 360.377909,225.115 C360.377909,225.464612 360.599574,225.775775 360.93,225.89 L365.67,228.62 C360.92,232.07 361.29,237.12 366.82,240.31 Z" id="Shape" fill="#000000" opacity="0.1"></path>
            <circle id="Oval" fill="#D27576" cx="361.25" cy="224.3" r="1.55"></circle>
            <polygon id="Rectangle-path" fill="#D27576" transform="translate(361.255000, 218.175000) rotate(-180.000000) translate(-361.255000, -218.175000) " points="359.7 212.05 362.81 212.05 362.81 224.3 359.7 224.3"></polygon>
            <path d="M361.2,193.79 C365.76635,193.661063 370.042109,196.023526 372.363318,199.95801 C374.684527,203.892494 374.684527,208.777506 372.363318,212.71199 C370.042109,216.646474 365.76635,219.008937 361.2,218.88 C347.63,204.78 361.2,193.79 361.2,193.79 Z" id="Shape" fill="#22B26D"></path>
            <path d="M361.2,193.79 C361.2,193.79 347.63,204.79 361.2,218.88 C356.63365,219.008937 352.357891,216.646474 350.036682,212.71199 C347.715473,208.777506 347.715473,203.892494 350.036682,199.95801 C352.357891,196.023526 356.63365,193.661063 361.2,193.79 Z" id="Shape" fill="#5CB853"></path>
            <path d="M208.59,315 C210.45,313.93 197.94,297.62 187.59,301.26 L184.82,299.66 C183.976314,299.238802 182.983686,299.238802 182.14,299.66 C181.4,300.09 181.39,300.78 182.14,301.21 L184.88,302.79 C178.14,308.8 206.72,316.12 208.59,315 Z" id="Shape" fill="#000000" opacity="0.1"></path>
            <circle id="Oval" fill="#D27576" cx="182.67" cy="299.72" r="1.55"></circle>
            <polygon id="Rectangle-path" fill="#D27576" transform="translate(182.675000, 293.605000) rotate(-180.000000) translate(-182.675000, -293.605000) " points="181.12 287.48 184.23 287.48 184.23 299.73 181.12 299.73"></polygon>
            <path d="M182.58,270.5 C184.84,270.5 194.77,296.69 182.58,296.69 C182.58,296.69 177.72,289.72 182.58,270.5 Z" id="Shape" fill="#22B26D"></path>
            <path d="M182.58,270.5 C177.72,289.72 182.58,296.69 182.58,296.69 C170.38,296.69 180.32,270.5 182.58,270.5 Z" id="Shape" fill="#5CB853"></path>
            <path d="M120.87,244.26 C122.73,243.19 110.22,226.88 99.87,230.52 L97.1,228.92 C96.2563144,228.498802 95.2636856,228.498802 94.42,228.92 C93.68,229.35 93.67,230.04 94.42,230.47 L97.15,232.05 C90.42,238 119,245.34 120.87,244.26 Z" id="Shape" fill="#000000" opacity="0.1"></path>
            <circle id="Oval" fill="#D27576" cx="94.94" cy="228.94" r="1.55"></circle>
            <polygon id="Rectangle-path" fill="#D27576" transform="translate(94.945000, 222.815000) rotate(-180.000000) translate(-94.945000, -222.815000) " points="93.39 216.69 96.5 216.69 96.5 228.94 93.39 228.94"></polygon>
            <path d="M94.85,199.72 C97.11,199.72 107.05,225.91 94.85,225.91 C94.85,225.91 90,218.94 94.85,199.72 Z" id="Shape" fill="#22B26D"></path>
            <path d="M94.85,199.72 C90,218.94 94.85,225.91 94.85,225.91 C82.66,225.91 92.6,199.72 94.85,199.72 Z" id="Shape" fill="#5CB853"></path>
            <path d="M49.49,303.35 C50.1332106,303.620841 50.8710862,303.536802 51.4369191,303.128258 C52.0027519,302.719714 52.3146968,302.045761 52.26,301.35 C52.1329861,299.612074 51.0721801,298.080224 49.49,297.35 L41,294.21 C40.1670654,293.816138 39.1776679,293.975077 38.51,294.61 L36.17,293.76 C35.7988823,293.554248 35.3450354,293.567555 34.9866099,293.794696 C34.6281844,294.021838 34.4223869,294.426562 34.45,294.85 C34.5227741,295.899261 35.1918458,296.8134 36.17,297.2 L38.51,298.05 C39.0568114,299.056863 39.9372459,299.841829 41,300.27 L49.54,303.37 L49.49,303.35 Z" id="Shape" fill="#000000" opacity="0.1"></path>
            <path d="M37.33,281.67 C37.2617053,280.778891 36.5187221,280.090671 35.625,280.090671 C34.7312779,280.090671 33.9882947,280.778891 33.92,281.67 L33.92,295.23 C33.9200001,296.17993 34.6900703,296.95 35.64,296.95 C36.5899297,296.95 37.3599999,296.17993 37.36,295.23 L37.36,281.67 L37.33,281.67 Z" id="Shape" fill="#B86878"></path>
            <circle id="Oval" fill="#D06061" cx="35.62" cy="274.25" r="3.03"></circle>
            <path d="M38.63,281.86 C38.63,280.203146 37.2868542,278.86 35.63,278.86 C33.9731458,278.86 32.63,280.203146 32.63,281.86 L32.63,290.4 C32.63,292.073423 33.9865772,293.43 35.66,293.43 C37.3334228,293.43 38.69,292.073423 38.69,290.4 L38.69,281.86 L38.63,281.86 Z" id="Shape" fill="#C3B9CC"></path>
            <path d="M105.34,271.07 C105.983211,271.340841 106.721086,271.256802 107.286919,270.848258 C107.852752,270.439714 108.164697,269.765761 108.11,269.07 C107.982986,267.332074 106.92218,265.800224 105.34,265.07 L96.8,261.96 C95.9670654,261.566138 94.9776679,261.725077 94.31,262.36 L91.97,261.51 C91.5966087,261.310201 91.1443971,261.327768 90.7876312,261.555932 C90.4308654,261.784097 90.2252416,262.187238 90.25,262.61 C90.3241205,263.65642 90.9933954,264.566945 91.97,264.95 L94.31,265.8 C94.860429,266.799364 95.7404379,267.576882 96.8,268 L105.34,271.11 L105.34,271.07 Z" id="Shape" fill="#000000" opacity="0.1"></path>
            <path d="M93.17,249.39 C93.1017053,248.498891 92.3587221,247.810671 91.465,247.810671 C90.5712779,247.810671 89.8282947,248.498891 89.76,249.39 L89.76,263 C89.76,263.94993 90.5300702,264.72 91.48,264.72 C92.4299298,264.72 93.2,263.94993 93.2,263 L93.2,249.39 L93.17,249.39 Z" id="Shape" fill="#B86878"></path>
            <circle id="Oval" fill="#D06061" cx="91.47" cy="241.98" r="3.03"></circle>
            <path d="M94.47,249.59 C94.47,247.933146 93.1268542,246.59 91.47,246.59 C89.8131458,246.59 88.47,247.933146 88.47,249.59 L88.47,258.12 C88.47,259.793423 89.8265772,261.15 91.5,261.15 C93.1734228,261.15 94.53,259.793423 94.53,258.12 L94.53,249.59 L94.47,249.59 Z" id="Shape" fill="#C3B9CC"></path>
            <path d="M203.69,357 C204.333211,357.270841 205.071086,357.186802 205.636919,356.778258 C206.202752,356.369714 206.514697,355.695761 206.46,355 C206.339329,353.259841 205.276501,351.725071 203.69,351 L195.15,347.89 C194.315057,347.498734 193.325414,347.661687 192.66,348.3 L190.32,347.44 C189.946609,347.240201 189.494397,347.257768 189.137631,347.485932 C188.780865,347.714097 188.575242,348.117238 188.6,348.54 C188.671729,349.587297 189.341844,350.498965 190.32,350.88 L192.66,351.74 C193.204603,352.746309 194.086149,353.528726 195.15,353.95 L203.69,357.06 L203.69,357 Z" id="Shape" fill="#000000" opacity="0.1"></path>
            <path d="M191.53,335.32 C191.461705,334.428891 190.718722,333.740671 189.825,333.740671 C188.931278,333.740671 188.188295,334.428891 188.12,335.32 L188.12,348.89 C188.12,349.83993 188.89007,350.61 189.84,350.61 C190.78993,350.61 191.56,349.83993 191.56,348.89 L191.56,335.32 L191.53,335.32 Z" id="Shape" fill="#B86878"></path>
            <circle id="Oval" fill="#D06061" cx="189.82" cy="327.91" r="3.03"></circle>
            <path d="M192.83,335.52 C192.83,333.863146 191.486854,332.52 189.83,332.52 C188.173146,332.52 186.83,333.863146 186.83,335.52 L186.83,344.05 C186.83,345.723423 188.186577,347.08 189.86,347.08 C191.533423,347.08 192.89,345.723423 192.89,344.05 L192.89,335.52 L192.83,335.52 Z" id="Shape" fill="#C3B9CC"></path>
            <path d="M311.12,338.16 C311.763211,338.430841 312.501086,338.346802 313.066919,337.938258 C313.632752,337.529714 313.944697,336.855761 313.89,336.16 C313.769329,334.419841 312.706501,332.885071 311.12,332.16 L302.59,329 C301.755469,328.605773 300.764074,328.769015 300.1,329.41 L297.76,328.56 C297.388882,328.354248 296.935035,328.367555 296.57661,328.594696 C296.218184,328.821838 296.012387,329.226562 296.04,329.65 C296.112774,330.699261 296.781846,331.6134 297.76,332 L300.1,332.85 C300.639056,333.860695 301.522453,334.644755 302.59,335.06 L311.12,338.17 L311.12,338.16 Z" id="Shape" fill="#000000" opacity="0.1"></path>
            <path d="M299,316.48 C298.931705,315.588891 298.188722,314.900671 297.295,314.900671 C296.401278,314.900671 295.658295,315.588891 295.59,316.48 L295.59,330.05 C295.59,330.99993 296.36007,331.77 297.31,331.77 C298.25993,331.77 299.03,330.99993 299.03,330.05 L299.03,316.48 L299,316.48 Z" id="Shape" fill="#B86878"></path>
            <circle id="Oval" fill="#D06061" cx="297.26" cy="309.07" r="3.03"></circle>
            <path d="M300.26,316.68 C300.26,315.023146 298.916854,313.68 297.26,313.68 C295.603146,313.68 294.26,315.023146 294.26,316.68 L294.26,325.21 C294.26,326.883423 295.616577,328.24 297.29,328.24 C298.963423,328.24 300.32,326.883423 300.32,325.21 L300.32,316.68 L300.26,316.68 Z" id="Shape" fill="#C3B9CC"></path>
            <path d="M434.82,293.7 C435.463211,293.970841 436.201086,293.886802 436.766919,293.478258 C437.332752,293.069714 437.644697,292.395761 437.59,291.7 C437.469329,289.959841 436.406501,288.425071 434.82,287.7 L426.28,284.59 C425.445057,284.198734 424.455414,284.361687 423.79,285 L421.45,284.14 C421.076609,283.940201 420.624397,283.957768 420.267631,284.185932 C419.910865,284.414097 419.705242,284.817238 419.73,285.24 C419.801729,286.287297 420.471844,287.198965 421.45,287.58 L423.79,288.44 C424.334603,289.446309 425.216149,290.228726 426.28,290.65 L434.82,293.76 L434.82,293.7 Z" id="Shape" fill="#000000" opacity="0.1"></path>
            <path d="M422.65,272 C422.555732,271.13217 421.822934,270.474662 420.95,270.474662 C420.077066,270.474662 419.344268,271.13217 419.25,272 L419.25,285.57 C419.25,286.51993 420.02007,287.29 420.97,287.29 C421.91993,287.29 422.69,286.51993 422.69,285.57 L422.69,272 L422.65,272 Z" id="Shape" fill="#B86878"></path>
            <circle id="Oval" fill="#D06061" cx="420.95" cy="264.61" r="3.03"></circle>
            <path d="M424,272.22 C424,270.563146 422.656854,269.22 421,269.22 C419.343146,269.22 418,270.563146 418,272.22 L418,280.75 C418,282.423423 419.356577,283.78 421.03,283.78 C422.703423,283.78 424.06,282.423423 424.06,280.75 L424.06,272.22 L424,272.22 Z" id="Shape" fill="#C3B9CC"></path>
            <path d="M314.2,282.49 C314.843211,282.760841 315.581086,282.676802 316.146919,282.268258 C316.712752,281.859714 317.024697,281.185761 316.97,280.49 C316.842986,278.752074 315.78218,277.220224 314.2,276.49 L305.66,273.38 C304.827065,272.986138 303.837668,273.145077 303.17,273.78 L300.83,272.93 C300.456609,272.730201 300.004397,272.747768 299.647631,272.975932 C299.290865,273.204097 299.085242,273.607238 299.11,274.03 C299.181729,275.077297 299.851844,275.988965 300.83,276.37 L303.17,277.22 C303.714127,278.228988 304.595442,279.014739 305.66,279.44 L314.2,282.55 L314.2,282.49 Z" id="Shape" fill="#000000" opacity="0.1"></path>
            <path d="M302,260.81 C301.931705,259.918891 301.188722,259.230671 300.295,259.230671 C299.401278,259.230671 298.658295,259.918891 298.59,260.81 L298.59,274.37 C298.59,275.31993 299.36007,276.09 300.31,276.09 C301.25993,276.09 302.03,275.31993 302.03,274.37 L302.03,260.81 L302,260.81 Z" id="Shape" fill="#B86878"></path>
            <circle id="Oval" fill="#D06061" cx="300.33" cy="253.4" r="3.03"></circle>
            <path d="M303.34,261 C303.34,259.343146 301.996854,258 300.34,258 C298.683146,258 297.34,259.343146 297.34,261 L297.34,269.53 C297.34,271.203423 298.696577,272.56 300.37,272.56 C302.043423,272.56 303.4,271.203423 303.4,269.53 L303.4,261 L303.34,261 Z" id="Shape" fill="#C3B9CC"></path>
            <path d="M328.28,354.6 C328.923211,354.870841 329.661086,354.786802 330.226919,354.378258 C330.792752,353.969714 331.104697,353.295761 331.05,352.6 C330.922986,350.862074 329.86218,349.330224 328.28,348.6 L319.74,345.5 C318.907065,345.106138 317.917668,345.265077 317.25,345.9 L314.91,345.05 C314.538882,344.844248 314.085035,344.857555 313.72661,345.084696 C313.368184,345.311838 313.162387,345.716562 313.19,346.14 C313.262774,347.189261 313.931846,348.1034 314.91,348.49 L317.25,349.34 C317.796811,350.346863 318.677246,351.131829 319.74,351.56 L328.28,354.66 L328.28,354.6 Z" id="Shape" fill="#000000" opacity="0.1"></path>
            <path d="M316.11,332.91 C316.041705,332.018891 315.298722,331.330671 314.405,331.330671 C313.511278,331.330671 312.768295,332.018891 312.7,332.91 L312.7,346.48 C312.7,347.42993 313.47007,348.2 314.42,348.2 C315.36993,348.2 316.14,347.42993 316.14,346.48 L316.14,332.91 L316.11,332.91 Z" id="Shape" fill="#B86878"></path>
            <circle id="Oval" fill="#D06061" cx="314.41" cy="325.5" r="3.03"></circle>
            <path d="M317.41,333.11 C317.41,331.453146 316.066854,330.11 314.41,330.11 C312.753146,330.11 311.41,331.453146 311.41,333.11 L311.41,341.65 C311.41,343.323423 312.766577,344.68 314.44,344.68 C316.113423,344.68 317.47,343.323423 317.47,341.65 L317.47,333.11 L317.41,333.11 Z" id="Shape" fill="#C3B9CC"></path>
        </g>
    </g>
</svg>