<?xml version="1.0" encoding="UTF-8"?>
<svg width="100px" height="100px" viewBox="0 0 100 100" version="1.1" xmlns="http://www.w3.org/2000/svg" xmlns:xlink="http://www.w3.org/1999/xlink">
    <!-- Generator: Sketch 51.1 (57501) - http://www.bohemiancoding.com/sketch -->
    <title>Shyft-Token</title>
    <desc>Created with Sketch.</desc>
    <defs></defs>
    <g id="Shyft-Token" stroke="none" stroke-width="1" fill="none" fill-rule="evenodd">
        <g id="Group" transform="translate(1.000000, 1.000000)" fill-rule="nonzero">
            <path d="M48.55375,2.25831395 C21.7765988,2.25831395 0.0806540698,23.8736047 0.0806540698,50.5701017 C0.0806540698,77.2665988 21.7765988,98.8818895 48.55375,98.8818895 C75.3309012,98.8818895 97.0268459,77.2665988 97.0268459,50.5701017 C97.0268459,23.8736047 75.2502471,2.25831395 48.55375,2.25831395 Z M48.55375,91.6230233 C25.8093023,91.6230233 7.42017442,73.3145494 7.42017442,50.6507558 C7.42017442,27.9869622 25.8093023,9.67848837 48.55375,9.67848837 C71.2981977,9.67848837 89.6873256,27.9869622 89.6873256,50.6507558 C89.6873256,73.3145494 71.2175436,91.6230233 48.55375,91.6230233 Z" id="Shape" fill="#B99DC5"></path>
            <path d="M26.4545349,93.4780669 C27.0191134,93.7200291 27.5030378,94.0426453 28.0676163,94.2846076 L28.0676163,88.3162064 L26.4545349,88.3162064 L26.4545349,93.4780669 Z M23.147718,91.7036773 C23.7122965,92.0262936 24.1962209,92.3489099 24.7607994,92.6715262 L24.7607994,85.493314 L23.147718,85.493314 L23.147718,91.7036773 Z M20.0022093,89.5260174 C20.5667878,89.9292878 21.0507122,90.2519041 21.6152907,90.6551744 L21.6152907,83.3963081 L20.0022093,83.3963081 L20.0022093,89.5260174 Z M18.550436,88.4775145 L18.550436,81.4606105 L16.9373547,81.4606105 L16.9373547,87.1870494 C17.5019331,87.5903198 17.9858576,87.9935901 18.550436,88.4775145 Z M10.3237209,80.2507994 C10.8076453,80.896032 11.3722238,81.5412645 11.9368023,82.1864971 L11.9368023,75.7341715 L10.3237209,73.3952035 L10.3237209,80.2507994 Z M15.082311,85.4126599 L15.082311,79.6055669 L13.4692297,77.2665988 L13.4692297,83.7995785 C13.9531541,84.364157 14.5177326,84.9287355 15.082311,85.4126599 Z M30.1646221,95.2524564 C30.7292006,95.4944186 31.213125,95.6557267 31.7777035,95.897689 L31.7777035,89.7679797 L30.1646221,89.7679797 L30.1646221,95.2524564 Z M33.471439,96.4622674 C34.0360174,96.6235756 34.5199419,96.7848837 35.0845203,96.9461919 L35.0845203,91.300407 L33.471439,91.300407 L33.471439,96.4622674 Z M37.1008721,97.4301163 C37.6654506,97.5107703 38.149375,97.6720785 38.7139535,97.7527326 L38.7139535,92.7521802 L37.1008721,92.7521802 L37.1008721,97.4301163 Z M41.2948837,98.317311 C41.8594622,98.3979651 42.3433866,98.4786192 42.9079651,98.5592733 L42.9079651,93.7200291 L41.2948837,93.7200291 L41.2948837,98.317311 Z M49.4409448,98.8012355 L49.4409448,94.2846076 L47.8278634,94.2846076 L47.8278634,98.8012355 C48.0698256,98.8012355 48.2311337,98.8012355 48.4730959,98.8012355 C48.8763663,98.8012355 49.1183285,98.8012355 49.4409448,98.8012355 Z M55.8932703,93.1554506 L54.280189,93.1554506 L54.280189,98.4786192 C54.8447674,98.3979651 55.3286919,98.3979651 55.8932703,98.236657 L55.8932703,93.1554506 Z" id="Shape" fill="#DAC1DD" opacity="0.6"></path>
            <ellipse id="Oval" fill="#E6DEE8" cx="48.55375" cy="47.1019767" rx="41.1335756" ry="40.9722674"></ellipse>
            <path d="M48.55375,62.7488663 C28.3902326,62.7488663 11.8561483,59.3613953 10.4850291,49.8442151 C11.8561483,69.6044622 28.3902326,85.2513517 48.55375,85.2513517 C68.7172674,85.2513517 85.2513517,69.6044622 86.6224709,49.8442151 C85.2513517,59.4420494 68.7172674,62.7488663 48.55375,62.7488663 Z" id="Shape" fill="#DAC1DD" opacity="0.3"></path>
            <path d="M48.55375,2.25831395 C22.9057558,2.25831395 2.09700581,22.9864099 2.09700581,48.55375 C2.09700581,74.1210901 22.9057558,94.849186 48.55375,94.849186 C74.2017442,94.849186 95.0104942,74.1210901 95.0104942,48.55375 C95.0104942,22.9864099 74.2017442,2.25831395 48.55375,2.25831395 Z M48.55375,89.5260174 C25.8093023,89.5260174 7.42017442,71.2175436 7.42017442,48.55375 C7.42017442,25.8899564 25.8093023,8.14606105 48.55375,8.14606105 C71.2981977,8.14606105 89.6873256,25.8899564 89.6873256,48.55375 C89.6873256,71.2175436 71.2175436,89.5260174 48.55375,89.5260174 Z" id="Shape" fill="#C6AAD0"></path>
            <path d="M48.55375,4.51662791 C22.9057558,4.51662791 2.25831395,20.8894041 2.25831395,46.4567442 C2.25831395,72.0240843 22.9057558,92.7521802 48.55375,92.7521802 C74.2017442,92.7521802 94.849186,72.0240843 94.849186,46.4567442 C94.849186,20.8894041 74.2017442,4.51662791 48.55375,4.51662791 Z M48.55375,86.5418169 C25.8093023,86.5418169 7.17821221,69.3625 7.17821221,46.7793605 C7.17821221,24.1962209 25.8093023,4.51662791 48.55375,4.51662791 C71.2981977,4.51662791 89.9292878,24.1155669 89.9292878,46.6987064 C89.9292878,69.2818459 71.2175436,86.5418169 48.55375,86.5418169 Z" id="Shape" fill="#FFFFFF" opacity="0.4"></path>
            <path d="M67.9228249,43.2765542 L59.7767638,35.1304932 L59.7767638,34.1626443 C59.7767638,27.952281 54.6955574,22.9517286 48.485194,22.9517286 C42.2748307,22.9517286 37.1936243,28.032935 37.1936243,34.1626443 L37.1936243,44.0830949 C37.1936243,44.7283275 37.4355865,45.292906 37.8388568,45.6961763 L46.0655719,53.8422374 L46.0655719,58.1975571 C46.0655719,59.4880222 47.1140749,60.5365251 48.40454,60.5365251 C49.6950051,60.5365251 50.743508,59.4880222 50.743508,58.1975571 L50.743508,52.7937344 C50.743508,52.1485019 50.5015458,51.5839234 50.0982754,51.1806531 L41.9522144,43.1152461 L41.9522144,34.1626443 C41.9522144,30.5332112 44.936415,27.6296647 48.5658481,27.6296647 C52.1952812,27.6296647 55.1794818,30.6138653 55.1794818,34.1626443 L55.1794818,35.9370339 C55.1794818,36.1789961 55.1794818,36.4209583 55.2601359,36.5822664 C55.2601359,36.6629205 55.34079,36.8242286 55.421444,36.9048827 C55.5827522,37.227499 55.8247144,37.5501153 56.0666766,37.8727315 L64.0514295,45.8574844 L64.0514295,58.1975571 C64.0514295,66.6662344 57.1151795,73.6024844 48.6465022,73.6024844 C40.5810952,73.6024844 33.8061533,67.311467 33.2415749,59.24606 C33.1609208,57.9555949 32.0317638,56.9877461 30.7412987,57.0684001 C29.4508336,57.1490542 28.4829847,58.2782112 28.5636388,59.5686763 C29.2895254,70.0537054 38.080819,78.2804205 48.6465022,78.2804205 C59.6154557,78.1997664 68.6487115,69.2471647 68.6487115,58.1975571 L68.6487115,44.8896356 C68.6487115,44.3250571 68.4067493,43.6798246 67.9228249,43.2765542 Z" id="Shape" fill="#FFFFFF"></path>
            <path d="M37.2742783,56.3425135 L37.2742783,58.1975571 C37.2742783,64.4079205 42.3554847,69.4084728 48.5658481,69.4084728 C54.7762115,69.4084728 59.8574179,64.3272664 59.8574179,58.1975571 L59.8574179,48.4384147 C59.8574179,47.7931821 59.6154557,47.2286036 59.2121853,46.8253333 L50.8241621,38.5986182 L50.8241621,34.1626443 C50.8241621,32.8721792 49.7756592,31.8236763 48.485194,31.8236763 C47.1947289,31.8236763 46.146226,32.8721792 46.146226,34.1626443 L46.146226,39.566467 C46.146226,40.2116996 46.3881882,40.7762781 46.7914586,41.1795484 L55.0988278,49.4062635 L55.0988278,58.1975571 C55.0988278,61.8269903 52.1146272,64.7305368 48.485194,64.7305368 C44.8557609,64.7305368 41.8715603,61.7463362 41.8715603,58.1975571 L41.8715603,56.0198972 C42.0328685,55.2133565 41.8715603,54.4068158 41.2263278,53.8422374 L41.1456737,53.7615833 C41.1456737,53.7615833 41.0650196,53.6809292 41.0650196,53.6809292 L32.9189586,45.6155222 L32.9189586,33.5980658 C32.9189586,25.1293885 39.8552086,18.1931385 48.3238859,18.1931385 C56.1473307,18.1931385 62.9222725,24.2421938 63.6481592,31.9849844 L63.6481592,32.2269467 C63.7288132,33.5174118 64.8579702,34.4852606 66.1484353,34.3239525 C67.4389004,34.2432984 68.4067493,33.1141414 68.2454411,31.8236763 L68.2454411,31.50106 C67.4389004,21.3386472 58.889569,13.5958565 48.485194,13.5958565 C37.4355865,13.5958565 28.4023307,22.6291124 28.4023307,33.6787199 L28.4023307,46.6640251 C28.4023307,47.3092577 28.6442929,47.8738362 29.0475632,48.2771065 L37.2742783,56.3425135 Z" id="Shape" fill="#FFFFFF"></path>
            <path d="M67.9228249,45.9308797 L59.7767638,37.7848186 L59.7767638,36.8169698 C59.7767638,30.6066064 54.6955574,25.6060541 48.485194,25.6060541 C42.2748307,25.6060541 37.1936243,30.6872605 37.1936243,36.8169698 L37.1936243,46.7374203 C37.1936243,47.3826529 37.4355865,47.9472314 37.8388568,48.3505017 L46.0655719,56.4965628 L46.0655719,60.9325366 C46.0655719,62.2230017 47.1140749,63.2715047 48.40454,63.2715047 C49.6950051,63.2715047 50.743508,62.2230017 50.743508,60.9325366 L50.743508,55.528714 C50.743508,54.8834814 50.5015458,54.3189029 50.0982754,53.9156326 L41.9522144,45.7695715 L41.9522144,36.8169698 C41.9522144,33.1875366 44.936415,30.2839901 48.5658481,30.2839901 C52.1952812,30.2839901 55.1794818,33.2681907 55.1794818,36.8169698 L55.1794818,38.5913593 C55.1794818,38.8333215 55.1794818,39.0752837 55.2601359,39.2365919 C55.2601359,39.3172459 55.34079,39.4785541 55.421444,39.5592081 C55.5827522,39.8818244 55.8247144,40.2044407 56.0666766,40.527057 L64.0514295,48.5118099 L64.0514295,60.8518826 C64.0514295,69.3205599 57.1151795,76.2568099 48.6465022,76.2568099 C40.5810952,76.2568099 33.8061533,69.9657924 33.2415749,61.9003855 C33.1609208,60.6099203 32.0317638,59.6420715 30.7412987,59.7227256 C29.4508336,59.8033797 28.4829847,60.9325366 28.5636388,62.2230017 C29.2088714,72.7080308 38.000165,80.8540919 48.5658481,80.8540919 C59.6154557,80.8540919 68.6487115,71.9014901 68.6487115,60.8518826 L68.6487115,47.543961 C68.6487115,46.8987285 68.4067493,46.33415 67.9228249,45.9308797 Z" id="Shape" fill="#B899C4"></path>
            <path d="M37.2742783,58.996839 L37.2742783,60.8518826 C37.2742783,67.0622459 42.3554847,72.0627983 48.5658481,72.0627983 C54.7762115,72.0627983 59.8574179,66.9815919 59.8574179,60.8518826 L59.8574179,51.0927401 C59.8574179,50.4475076 59.6154557,49.8829291 59.2121853,49.4796587 L50.8241621,41.2529436 L50.8241621,36.8169698 C50.8241621,35.5265047 49.7756592,34.4780017 48.485194,34.4780017 C47.1947289,34.4780017 46.146226,35.5265047 46.146226,36.8169698 L46.146226,42.2207924 C46.146226,42.866025 46.3881882,43.4306035 46.7914586,43.8338738 L55.0988278,52.060589 L55.0988278,60.8518826 C55.0988278,64.4813157 52.1146272,67.3848622 48.485194,67.3848622 C44.8557609,67.3848622 41.8715603,64.4006616 41.8715603,60.8518826 L41.8715603,58.6742227 C42.0328685,57.867682 41.8715603,57.0611413 41.2263278,56.4965628 L41.1456737,56.4159087 C41.1456737,56.4159087 41.0650196,56.3352547 41.0650196,56.3352547 L32.9189586,48.2698477 L32.9189586,36.2523913 C32.9189586,27.783714 39.8552086,20.847464 48.3238859,20.847464 C56.1473307,20.847464 62.9222725,26.8965192 63.6481592,34.6393099 L63.6481592,34.8812721 C63.7288132,36.1717372 64.8579702,37.139586 66.1484353,36.9782779 C67.4389004,36.8976238 68.4067493,35.7684669 68.2454411,34.4780017 L68.2454411,34.1553855 C67.4389004,23.9929727 58.889569,16.1695279 48.485194,16.1695279 C37.4355865,16.1695279 28.4023307,25.2027837 28.4023307,36.2523913 L28.4023307,49.2376965 C28.4023307,49.8829291 28.6442929,50.4475076 29.0475632,50.8507779 L37.2742783,58.996839 Z" id="Shape" fill="#B899C4"></path>
            <path d="M67.9228249,44.4831391 L59.7767638,36.3370781 L59.7767638,35.3692292 C59.7767638,29.1588658 54.6955574,24.1583135 48.485194,24.1583135 C42.2748307,24.1583135 37.1936243,29.2395199 37.1936243,35.3692292 L37.1936243,45.2896798 C37.1936243,45.9349124 37.4355865,46.4994908 37.8388568,46.9027612 L46.0655719,54.9681682 L46.0655719,59.404142 C46.0655719,60.6946071 47.1140749,61.74311 48.40454,61.74311 C49.6950051,61.74311 50.743508,60.6946071 50.743508,59.404142 L50.743508,54.0003193 C50.743508,53.3550868 50.5015458,52.7905083 50.0982754,52.3872379 L41.9522144,44.2411769 L41.9522144,35.3692292 C41.9522144,31.7397961 44.936415,28.8362496 48.5658481,28.8362496 C52.1952812,28.8362496 55.1794818,31.8204501 55.1794818,35.3692292 L55.1794818,37.1436188 C55.1794818,37.385581 55.1794818,37.6275432 55.2601359,37.7888513 C55.2601359,37.8695054 55.34079,38.0308135 55.421444,38.1114676 C55.5827522,38.4340839 55.8247144,38.7567001 56.0666766,39.0793164 L64.0514295,47.0640693 L64.0514295,59.404142 C64.0514295,67.8728193 57.1151795,74.8090693 48.6465022,74.8090693 C40.5810952,74.8090693 33.8061533,68.5180519 33.2415749,60.4526449 C33.1609208,59.1621798 32.0317638,58.194331 30.7412987,58.274985 C29.4508336,58.3556391 28.4829847,59.4847961 28.5636388,60.7752612 C29.2895254,71.2602903 38.080819,79.4870054 48.6465022,79.4870054 C59.6154557,79.4063513 68.6487115,70.3730955 68.6487115,59.3234879 L68.6487115,46.0962205 C68.6487115,45.4509879 68.4067493,44.8864094 67.9228249,44.4831391 Z" id="Shape" fill="#C6AAD0"></path>
            <path d="M37.2742783,57.5490984 L37.2742783,59.404142 C37.2742783,65.6145054 42.3554847,70.6150577 48.5658481,70.6150577 C54.7762115,70.6150577 59.8574179,65.5338513 59.8574179,59.404142 L59.8574179,49.6449996 C59.8574179,48.999767 59.6154557,48.4351885 59.2121853,48.0319182 L50.8241621,39.724549 L50.8241621,35.2885751 C50.8241621,33.99811 49.7756592,32.9496071 48.485194,32.9496071 C47.1947289,32.9496071 46.146226,33.99811 46.146226,35.2885751 L46.146226,40.6923978 C46.146226,41.3376304 46.3881882,41.9022089 46.7914586,42.3054792 L55.0988278,50.5321943 L55.0988278,59.3234879 C55.0988278,62.9529211 52.1146272,65.8564676 48.485194,65.8564676 C44.8557609,65.8564676 41.8715603,62.872267 41.8715603,59.3234879 L41.8715603,57.1458281 C42.0328685,56.3392874 41.8715603,55.5327467 41.2263278,54.9681682 L41.1456737,54.8875141 C41.1456737,54.8875141 41.0650196,54.80686 41.0650196,54.80686 L32.9189586,46.7414531 L32.9189586,34.8046507 C32.9189586,26.3359734 39.8552086,19.3997234 48.3238859,19.3997234 C56.1473307,19.3997234 62.9222725,25.4487786 63.6481592,33.1915693 L63.6481592,33.4335315 C63.7288132,34.7239967 64.8579702,35.6918455 66.1484353,35.5305374 C67.4389004,35.4498833 68.4067493,34.3207263 68.2454411,33.0302612 L68.2454411,32.7076449 C67.4389004,22.4645781 58.889569,14.7217874 48.485194,14.7217874 C37.4355865,14.7217874 28.4023307,23.7550432 28.4023307,34.8046507 L28.4023307,47.789956 C28.4023307,48.4351885 28.6442929,48.999767 29.0475632,49.4030374 L37.2742783,57.5490984 Z" id="Shape" fill="#C6AAD0"></path>
            <path d="M48.55375,0.725886628 C22.9057558,0.725886628 2.09700581,21.4539826 2.09700581,47.0213227 C2.09700581,72.5886628 22.9057558,93.3167587 48.55375,93.3167587 C74.2017442,93.3167587 95.0104942,72.5886628 95.0104942,47.0213227 C95.0104942,21.4539826 74.2017442,0.725886628 48.55375,0.725886628 Z M48.55375,88.0742442 C25.8093023,88.0742442 7.42017442,69.7657703 7.42017442,47.1019767 C7.42017442,24.4381831 25.8093023,6.1297093 48.55375,6.1297093 C71.2981977,6.1297093 89.6873256,24.4381831 89.6873256,47.1019767 C89.6873256,69.7657703 71.2175436,88.0742442 48.55375,88.0742442 Z" id="Shape" fill="#DAC1DD"></path>
            <path d="M90.0099419,54.1188808 C88.3968605,63.8780233 83.3156541,72.7499709 75.8148256,79.2022965 C68.152689,85.7352762 58.4742006,89.2840552 48.3924419,89.2840552 C38.3106831,89.2840552 28.5515407,85.6546221 20.9700581,79.2022965 C13.3885756,72.7499709 8.38802326,63.8780233 6.77494186,54.1188808 C6.69428779,53.6349564 6.45232558,53.3123401 6.04905523,53.0703779 C5.40382267,52.6671076 4.75859012,52.1831831 4.11335756,51.4572965 C3.79074128,51.1346802 3.22616279,51.3766424 3.30681686,51.8605669 C4.35531977,62.1842878 8.95260174,71.7821221 16.3727762,79.2022965 C24.9221076,87.6709738 36.2943314,92.3489099 48.3924419,92.3489099 C60.4905523,92.3489099 71.8627762,87.6709738 80.4121076,79.1216424 C87.832282,71.701468 92.429564,62.1036337 93.4780669,51.7799128 C93.5587209,51.2959884 92.9941424,51.0540262 92.6715262,51.3766424 C92.0262936,52.021875 91.300407,52.5864535 90.7358285,52.9897238 C90.3325581,53.3123401 90.0905959,53.7156105 90.0099419,54.1188808 Z" id="Shape" fill="#C6AAD0" opacity="0.4"></path>
        </g>
    </g>
</svg>