<?xml version="1.0" encoding="UTF-8"?>
<svg width="458px" height="348px" viewBox="0 0 458 348" version="1.1" xmlns="http://www.w3.org/2000/svg" xmlns:xlink="http://www.w3.org/1999/xlink">
    <!-- Generator: Sketch 52.6 (67491) - http://www.bohemiancoding.com/sketch -->
    <title>1-03</title>
    <desc>Created with Sketch.</desc>
    <g id="Assets" stroke="none" stroke-width="1" fill="none" fill-rule="evenodd">
        <g id="1-03">
            <path d="M301.9,122.77 C303.84,121.65 290.81,104.67 280.07,108.45 L277.19,106.79 C276.311005,106.339596 275.268995,106.339596 274.39,106.79 C273.62,107.24 273.61,107.96 274.39,108.4 L277.24,110.05 C270.18,116.27 300,123.89 301.9,122.77 Z" id="Shape" fill="#000000" fill-rule="nonzero" opacity="0.1"></path>
            <circle id="Oval" fill="#D27576" fill-rule="nonzero" cx="274.9" cy="106.81" r="1.62"></circle>
            <polygon id="Rectangle-path" fill="#D27576" fill-rule="nonzero" transform="translate(274.900000, 100.430000) rotate(-180.000000) translate(-274.900000, -100.430000) " points="273.28 94.05 276.52 94.05 276.52 106.81 273.28 106.81"></polygon>
            <path d="M274.8,76.37 C277.16,76.37 287.51,103.66 274.8,103.66 C274.8,103.66 269.75,96.39 274.8,76.37 Z" id="Shape" fill="#22B26D" fill-rule="nonzero"></path>
            <path d="M274.8,76.37 C269.75,96.37 274.8,103.66 274.8,103.66 C262.1,103.66 272.45,76.37 274.8,76.37 Z" id="Shape" fill="#5CB853" fill-rule="nonzero"></path>
            <polygon id="Shape" fill="#000000" fill-rule="nonzero" opacity="0.1" points="140.55 275.93 63.14 320.4 109.83 347.12 187.11 302.65"></polygon>
            <path d="M245,304.89 C246.94,303.78 233.91,286.79 223.17,290.58 L220.28,288.91 C219.403321,288.464632 218.366679,288.464632 217.49,288.91 C217.145013,289.026953 216.912901,289.350728 216.912901,289.715 C216.912901,290.079272 217.145013,290.403047 217.49,290.52 L220.34,292.16 C213.31,298.4 243.08,306 245,304.89 Z" id="Shape" fill="#000000" fill-rule="nonzero" opacity="0.1"></path>
            <circle id="Oval" fill="#D27576" fill-rule="nonzero" cx="218.03" cy="288.94" r="1.62"></circle>
            <polygon id="Rectangle-path" fill="#D27576" fill-rule="nonzero" transform="translate(218.020000, 282.560000) rotate(-180.000000) translate(-218.020000, -282.560000) " points="216.4 276.18 219.64 276.18 219.64 288.94 216.4 288.94"></polygon>
            <path d="M217.93,258.5 C220.28,258.5 230.63,285.78 217.93,285.78 C217.93,285.78 212.87,278.52 217.93,258.5 Z" id="Shape" fill="#22B26D" fill-rule="nonzero"></path>
            <path d="M217.93,258.5 C212.87,278.5 217.93,285.78 217.93,285.78 C205.23,285.78 215.58,258.5 217.93,258.5 Z" id="Shape" fill="#5CB853" fill-rule="nonzero"></path>
            <path d="M176.29,200.5 C176.884735,200.749475 177.566467,200.671215 178.089199,200.293459 C178.611931,199.915704 178.900205,199.292983 178.85,198.65 C178.736621,197.039182 177.755731,195.617658 176.29,194.94 L168.39,192.07 C167.617445,191.704681 166.699805,191.851662 166.08,192.44 L163.91,191.65 C163.567651,191.466092 163.152892,191.480295 162.823926,191.687192 C162.494959,191.894089 162.302516,192.261774 162.32,192.65 C162.389657,193.618523 163.007488,194.461726 163.91,194.82 L166.08,195.61 C166.588769,196.540699 167.405433,197.265444 168.39,197.66 L176.29,200.53 L176.29,200.5 Z" id="Shape" fill="#000000" fill-rule="nonzero" opacity="0.1"></path>
            <path d="M165,180.43 C165,179.55739 164.29261,178.85 163.42,178.85 C162.54739,178.85 161.84,179.55739 161.84,180.43 L161.84,193 C161.84,193.878133 162.551867,194.59 163.43,194.59 C164.308133,194.59 165.02,193.878133 165.02,193 L165.02,180.43 L165,180.43 Z" id="Shape" fill="#B86878" fill-rule="nonzero"></path>
            <circle id="Oval" fill="#D06061" fill-rule="nonzero" cx="163.45" cy="173.57" r="2.81"></circle>
            <path d="M166.23,180.61 C166.107395,179.165809 164.899386,178.056008 163.45,178.056008 C162.000614,178.056008 160.792605,179.165809 160.67,180.61 L160.67,188.51 C160.607751,189.552098 161.12835,190.542811 162.021883,191.082665 C162.915416,191.622519 164.034584,191.622519 164.928117,191.082665 C165.82165,190.542811 166.342249,189.552098 166.28,188.51 L166.28,180.61 L166.23,180.61 Z" id="Shape" fill="#C3B9CC" fill-rule="nonzero"></path>
            <path d="M154.09,200.5 C154.684735,200.749475 155.366467,200.671215 155.889199,200.293459 C156.411931,199.915704 156.700205,199.292983 156.65,198.65 C156.540861,197.037699 155.558623,195.61422 154.09,194.94 L146.19,192.07 C145.417445,191.704681 144.499805,191.851662 143.88,192.44 L141.72,191.65 C141.377651,191.466092 140.962892,191.480295 140.633926,191.687192 C140.304959,191.894089 140.112516,192.261774 140.13,192.65 C140.194898,193.620264 140.814393,194.465739 141.72,194.82 L143.88,195.61 C144.388769,196.540699 145.205433,197.265444 146.19,197.66 L154.09,200.53 L154.09,200.5 Z" id="Shape" fill="#000000" fill-rule="nonzero" opacity="0.1"></path>
            <path d="M142.83,180.43 C142.764506,179.608704 142.078904,178.975599 141.255,178.975599 C140.431096,178.975599 139.745494,179.608704 139.68,180.43 L139.68,193 C139.745933,193.832032 140.44036,194.473608 141.275,194.473608 C142.10964,194.473608 142.804067,193.832032 142.87,193 L142.87,180.43 L142.83,180.43 Z" id="Shape" fill="#B86878" fill-rule="nonzero"></path>
            <circle id="Oval" fill="#D06061" fill-rule="nonzero" cx="141.26" cy="173.57" r="2.81"></circle>
            <path d="M144,180.61 C143.911672,179.136614 142.691032,177.986958 141.215,177.986958 C139.738968,177.986958 138.518328,179.136614 138.43,180.61 L138.43,188.51 C138.367751,189.552098 138.88835,190.542811 139.781883,191.082665 C140.675416,191.622519 141.794584,191.622519 142.688117,191.082665 C143.58165,190.542811 144.102249,189.552098 144.04,188.51 L144.04,180.61 L144,180.61 Z" id="Shape" fill="#C3B9CC" fill-rule="nonzero"></path>
            <path d="M289.06,269.11 C289.65301,269.358433 290.332481,269.281161 290.854563,268.905914 C291.376646,268.530667 291.666461,267.911266 291.62,267.27 C291.508042,265.656239 290.527279,264.231068 289.06,263.55 L281.16,260.67 C280.385438,260.307279 279.467553,260.458273 278.85,261.05 L276.68,260.26 C276.338326,260.069032 275.919644,260.079869 275.588306,260.288257 C275.256969,260.496646 275.065861,260.869324 275.09,261.26 C275.154898,262.230264 275.774393,263.075739 276.68,263.43 L278.85,264.22 C279.355418,265.153363 280.173186,265.879088 281.16,266.27 L289.06,269.15 L289.06,269.11 Z" id="Shape" fill="#000000" fill-rule="nonzero" opacity="0.1"></path>
            <path d="M277.8,249 C277.709383,248.195851 277.029238,247.588045 276.22,247.588045 C275.410762,247.588045 274.730617,248.195851 274.64,249 L274.64,261.6 C274.64,262.478133 275.351867,263.19 276.23,263.19 C277.108133,263.19 277.82,262.478133 277.82,261.6 L277.82,249 L277.8,249 Z" id="Shape" fill="#B86878" fill-rule="nonzero"></path>
            <circle id="Oval" fill="#D06061" fill-rule="nonzero" cx="276.22" cy="242.18" r="2.81"></circle>
            <path d="M279,249.23 C278.877395,247.785809 277.669386,246.676008 276.22,246.676008 C274.770614,246.676008 273.562605,247.785809 273.44,249.23 L273.44,257.13 C273.44,258.68192 274.69808,259.94 276.25,259.94 C277.80192,259.94 279.06,258.68192 279.06,257.13 L279.06,249.23 L279,249.23 Z" id="Shape" fill="#C3B9CC" fill-rule="nonzero"></path>
            <path d="M333.3,227.83 C333.894761,228.073389 334.573028,227.992519 335.093891,227.616114 C335.614754,227.239709 335.904418,226.621098 335.86,225.98 C335.748042,224.366239 334.767279,222.941068 333.3,222.26 L325.4,219.38 C324.625037,219.020197 323.708868,219.170909 323.09,219.76 L320.93,218.97 C320.586954,218.780905 320.168412,218.79238 319.836242,218.999986 C319.504071,219.207593 319.310351,219.578782 319.33,219.97 C319.399023,220.941806 320.022036,221.786768 320.93,222.14 L323.09,222.93 C323.593105,223.869795 324.410861,224.60259 325.4,225 L333.3,227.87 L333.3,227.83 Z" id="Shape" fill="#000000" fill-rule="nonzero" opacity="0.1"></path>
            <path d="M322,207.76 C322,206.88739 321.29261,206.18 320.42,206.18 C319.54739,206.18 318.84,206.88739 318.84,207.76 L318.84,220.31 C318.84,221.188133 319.551867,221.9 320.43,221.9 C321.308133,221.9 322.02,221.188133 322.02,220.31 L322.02,207.76 L322,207.76 Z" id="Shape" fill="#B86878" fill-rule="nonzero"></path>
            <circle id="Oval" fill="#D06061" fill-rule="nonzero" cx="320.46" cy="200.9" r="2.81"></circle>
            <path d="M323.24,207.94 C323.117395,206.495809 321.909386,205.386008 320.46,205.386008 C319.010614,205.386008 317.802605,206.495809 317.68,207.94 L317.68,215.84 C317.768658,217.324198 318.998156,218.482444 320.485,218.482444 C321.971844,218.482444 323.201342,217.324198 323.29,215.84 L323.29,207.94 L323.24,207.94 Z" id="Shape" fill="#C3B9CC" fill-rule="nonzero"></path>
            <path d="M364.18,257.84 C364.775823,258.088 365.457617,258.009419 365.9814,257.632377 C366.505182,257.255335 366.796082,256.633728 366.75,255.99 C366.636835,254.376199 365.651062,252.953156 364.18,252.28 L356.28,249.41 C355.513212,249.028025 354.588305,249.176815 353.98,249.78 L351.81,248.99 C351.467651,248.806092 351.052892,248.820295 350.723926,249.027192 C350.394959,249.234089 350.202516,249.601774 350.22,249.99 C350.284898,250.960264 350.904393,251.805739 351.81,252.16 L353.98,252.95 C354.484275,253.880538 355.297817,254.605652 356.28,255 L364.18,257.87 L364.18,257.84 Z" id="Shape" fill="#000000" fill-rule="nonzero" opacity="0.1"></path>
            <path d="M352.93,237.77 C352.93,236.89739 352.22261,236.19 351.35,236.19 C350.47739,236.19 349.77,236.89739 349.77,237.77 L349.77,250.33 C349.77,251.208133 350.481867,251.92 351.36,251.92 C352.238133,251.92 352.95,251.208133 352.95,250.33 L352.95,237.77 L352.93,237.77 Z" id="Shape" fill="#B86878" fill-rule="nonzero"></path>
            <circle id="Oval" fill="#D06061" fill-rule="nonzero" cx="351.35" cy="230.91" r="2.81"></circle>
            <path d="M354.13,238 C354.007395,236.555809 352.799386,235.446008 351.35,235.446008 C349.900614,235.446008 348.692605,236.555809 348.57,238 L348.57,245.9 C348.507751,246.942098 349.02835,247.932811 349.921883,248.472665 C350.815416,249.012519 351.934584,249.012519 352.828117,248.472665 C353.72165,247.932811 354.242249,246.942098 354.18,245.9 L354.18,238 L354.13,238 Z" id="Shape" fill="#C3B9CC" fill-rule="nonzero"></path>
            <path d="M425.77,223.86 C426.365823,224.108 427.047617,224.029419 427.5714,223.652377 C428.095182,223.275335 428.386082,222.653728 428.34,222.01 C428.226835,220.396199 427.241062,218.973156 425.77,218.3 L417.87,215.43 C417.103212,215.048025 416.178305,215.196815 415.57,215.8 L413.4,215 C413.057651,214.816092 412.642892,214.830295 412.313926,215.037192 C411.984959,215.244089 411.792516,215.611774 411.81,216 C411.874898,216.970264 412.494393,217.815739 413.4,218.17 L415.57,218.96 C416.083289,219.87179 416.895769,220.578294 417.87,220.96 L425.77,223.83 L425.77,223.86 Z" id="Shape" fill="#000000" fill-rule="nonzero" opacity="0.1"></path>
            <path d="M414.52,203.79 C414.52,202.91739 413.81261,202.21 412.94,202.21 C412.06739,202.21 411.36,202.91739 411.36,203.79 L411.36,216.34 C411.36,217.218133 412.071867,217.93 412.95,217.93 C413.828133,217.93 414.54,217.218133 414.54,216.34 L414.54,203.79 L414.52,203.79 Z" id="Shape" fill="#B86878" fill-rule="nonzero"></path>
            <circle id="Oval" fill="#D06061" fill-rule="nonzero" cx="412.94" cy="196.93" r="2.81"></circle>
            <path d="M415.72,204 C415.597395,202.555809 414.389386,201.446008 412.94,201.446008 C411.490614,201.446008 410.282605,202.555809 410.16,204 L410.16,211.9 C410.097751,212.942098 410.61835,213.932811 411.511883,214.472665 C412.405416,215.012519 413.524584,215.012519 414.418117,214.472665 C415.31165,213.932811 415.832249,212.942098 415.77,211.9 L415.77,204 L415.72,204 Z" id="Shape" fill="#C3B9CC" fill-rule="nonzero"></path>
            <path d="M241,75.82 C240.19797,75.2149855 239.09203,75.2149855 238.29,75.82 L204.19,95.82 L193.78,102 C192.78,101.36 191.43,101.41 189.91,102.3 C188.308121,103.320631 187.015032,104.758934 186.17,106.46 L171.17,115.25 C171.05294,114.908961 170.91604,114.575057 170.76,114.25 L171.45,113.92 L169.45,112.35 C169.217097,112.102083 168.966433,111.871472 168.7,111.66 C168.491939,111.504064 168.274899,111.360483 168.05,111.23 L168,111.23 C167.543868,110.972173 167.056562,110.77389 166.55,110.64 L166.45,110.64 C166.199739,110.577971 165.945937,110.531218 165.69,110.5 L165.59,110.5 C165.034975,110.439535 164.475025,110.439535 163.92,110.5 L163.78,110.5 C163.49478,110.525258 163.211065,110.565312 162.93,110.62 L162.78,110.62 C162.48,110.69 162.18,110.76 161.88,110.85 C161.58,110.94 161.27,111.05 160.96,111.17 L160.78,111.24 C160.48,111.36 160.18,111.5 159.87,111.65 L159.7,111.73 C159.37,111.89 159.05,112.07 158.7,112.26 C151.78,116.31 146.37,125.78 146.63,133.37 C146.74,136.66 147.9,139.06 149.75,140.37 L152.48,142.64 L152.2,141.41 C154.801114,141.790647 157.451105,141.195823 159.64,139.74 C159.96,139.54 160.28,139.34 160.64,139.12 L160.82,139.01 C161.12,138.803333 161.42,138.583333 161.72,138.35 L161.89,138.21 C162.2,137.97 162.5,137.72 162.8,137.46 C163.1,137.2 163.39,136.92 163.68,136.64 L163.82,136.5 C164.1,136.22 164.38,135.94 164.65,135.65 L164.78,135.5 C165.34,134.88 165.88,134.23 166.39,133.5 L166.48,133.38 C166.73,133.04 166.97,132.7 167.21,132.38 L167.3,132.25 C167.78,131.53 168.24,130.78 168.66,130.01 L168.66,129.94 C168.86,129.56 169.06,129.17 169.25,128.78 C169.253765,128.750118 169.253765,128.719882 169.25,128.69 C169.62452,127.897568 169.958289,127.08651 170.25,126.26 C170.39,125.85 170.53,125.44 170.66,125.03 C170.66,125.03 170.66,125.03 170.66,124.97 C170.909212,124.148535 171.112855,123.31393 171.27,122.47 C171.37,121.93 171.45,121.39 171.5,120.85 C171.5,121.39 171.37,121.93 171.27,122.47 L186.27,113.69 C187.27,114.33 188.63,114.27 190.15,113.38 C191.756223,112.364505 193.050537,110.924841 193.89,109.22 L204.34,103.09 L210.34,99.6 L210.85,114.6 C210.831855,115.131746 211.079223,115.637727 211.51,115.95 L214.23,118.21 L214.15,115.09 C215.009244,114.226564 215.506429,113.06766 215.54,111.85 L215.32,105.25 L231.32,95.86 L231.55,102.46 C231.655117,103.027837 231.955874,103.540893 232.4,103.91 L235,106 L234.79,103 C235.73242,102.122979 236.286611,100.906639 236.33,99.62 L235.82,84.62 L238.62,82.98 C240.301833,81.8927023 241.431972,80.1318722 241.72,78.15 L243.82,78.04 L241,75.82 Z M159.47,134.59 C155.13,137.13 151.47,135.33 151.3,130.59 C151.13,125.85 154.54,119.88 158.88,117.34 C163.22,114.8 166.88,116.59 167.05,121.34 C167.22,126.09 163.85,132 159.51,134.59 L159.47,134.59 Z" id="Shape" fill="#F4D6A6" fill-rule="nonzero"></path>
            <path d="M241,78.13 L196.45,104.27 C195.45,103.63 194.1,103.69 192.58,104.58 C190.973777,105.595495 189.679463,107.035159 188.84,108.74 L173.84,117.52 C173.645489,116.932018 173.390806,116.365684 173.08,115.83 C172.933965,115.584186 172.773692,115.347116 172.6,115.12 C172.262136,114.690387 171.872523,114.304131 171.44,113.97 C171.234567,113.815244 171.020922,113.671702 170.8,113.54 C170.341866,113.286335 169.855089,113.088267 169.35,112.95 L169.25,112.95 C168.999939,112.884652 168.746138,112.83456 168.49,112.8 L168.39,112.8 C167.834967,112.739692 167.275033,112.739692 166.72,112.8 L166.58,112.8 C166.3,112.8 166.01,112.87 165.72,112.93 L165.58,112.93 C165.28,112.99 164.98,113.06 164.68,113.15 C164.38,113.24 164.07,113.35 163.75,113.47 L163.58,113.53 C163.28,113.66 162.98,113.79 162.67,113.94 L162.49,114.03 C162.17,114.19 161.85,114.36 161.49,114.55 C154.57,118.61 149.16,128.08 149.42,135.66 C149.68,143.24 155.51,146.12 162.42,142.06 C162.75,141.87 163.07,141.66 163.42,141.45 L163.59,141.33 C163.9,141.12 164.2,140.9 164.5,140.67 L164.67,140.54 L165.58,139.78 C165.88,139.52 166.17,139.24 166.46,138.96 L166.6,138.83 C166.88,138.55 167.16,138.26 167.43,137.97 L167.56,137.82 C168.12,137.2 168.66,136.55 169.17,135.82 L169.26,135.7 C169.51,135.37 169.75,135.03 169.99,134.7 L170.07,134.57 C170.56,133.84 171.02,133.09 171.44,132.33 L171.44,132.26 C171.65,131.87 171.85,131.49 172.04,131.1 L172.04,131.01 C172.414564,130.214181 172.74833,129.399792 173.04,128.57 C173.186667,128.163333 173.326667,127.753333 173.46,127.34 L173.46,127.28 C173.709189,126.46191 173.912835,125.630634 174.07,124.79 L189.07,116 C190.07,116.64 191.42,116.59 192.95,115.7 C194.551879,114.679369 195.844968,113.241066 196.69,111.54 L213.09,101.92 L213.6,116.92 C213.6,118.34 214.73,118.87 216.02,118.11 C217.373086,117.252048 218.215161,115.781223 218.27,114.18 L218.04,107.58 L234.04,98.19 L234.27,104.79 C234.32,106.21 235.4,106.74 236.69,105.98 C238.0405,105.119579 238.881723,103.650243 238.94,102.05 L238.42,87.05 L241.23,85.4 C243.116056,84.1932663 244.289642,82.1376231 244.37,79.9 C244.36,77.82 242.85,77.08 241,78.13 Z M162.18,136.84 C157.84,139.39 154.18,137.58 154.01,132.84 C153.84,128.1 157.25,122.14 161.59,119.59 C165.93,117.04 169.59,118.85 169.76,123.59 C169.93,128.33 166.56,134.29 162.22,136.84 L162.18,136.84 Z" id="Shape" fill="#EDB155" fill-rule="nonzero"></path>
            <path d="M205.21,100.79 L195.54,106.47 C194.660616,105.775403 193.419384,105.775403 192.54,106.47 C191.291332,107.269977 190.339381,108.457281 189.83,109.85 L176.22,117.85 L176.61,118.52 L190.46,110.39 L190.51,110.26 C190.94549,108.984137 191.797972,107.892114 192.93,107.16 C193.87,106.61 194.69,106.64 195.13,107.25 L195.33,107.54 L205.58,101.54 C205.670445,101.489778 205.736504,101.404852 205.762925,101.304829 C205.789346,101.204807 205.773845,101.098336 205.72,101.01 C205.636922,100.811353 205.411504,100.714114 205.21,100.79 Z" id="Shape" fill="#F6E6C8" fill-rule="nonzero"></path>
            <path d="M152.66,137.09 C152.565108,136.920123 152.359517,136.846182 152.178164,136.916708 C151.996812,136.987234 151.895191,137.180646 151.94,137.37 C152.075131,137.71471 152.235568,138.048955 152.42,138.37 C152.495342,138.485231 152.622376,138.556221 152.76,138.56 C152.827009,138.563669 152.893476,138.546178 152.95,138.51 C153.137537,138.404876 153.20463,138.167812 153.1,137.98 C152.928998,137.695998 152.781828,137.398313 152.66,137.09 Z" id="Shape" fill="#F6E6C8" fill-rule="nonzero"></path>
            <path d="M172,121.32 C171.897312,121.32508 171.801066,121.371553 171.73323,121.448811 C171.665393,121.526069 171.631758,121.627518 171.64,121.73 C171.649951,121.913198 171.649951,122.096802 171.64,122.28 C171.650417,122.489258 171.820542,122.655021 172.03,122.66 C172.24147,122.649218 172.405704,122.471668 172.4,122.26 L172.4,121.67 C172.374659,121.468808 172.202775,121.31841 172,121.32 Z" id="Shape" fill="#F6E6C8" fill-rule="nonzero"></path>
            <path d="M161.31,116.75 C158.04411,118.811582 155.399881,121.721961 153.66,125.17 C153.611659,125.261154 153.602463,125.368046 153.634525,125.466117 C153.666586,125.564188 153.737149,125.645005 153.83,125.69 C153.884362,125.722667 153.946578,125.73995 154.01,125.74 C154.152686,125.735684 154.282258,125.655654 154.35,125.53 C156.017208,122.20878 158.558315,119.404918 161.7,117.42 C165.4,115.25 168.77,115.54 170.51,118.17 C170.563267,118.257732 170.650584,118.319397 170.751079,118.340254 C170.851575,118.361112 170.956219,118.339288 171.04,118.28 C171.219334,118.161152 171.268553,117.919529 171.15,117.74 C169.2,114.78 165.34,114.39 161.31,116.75 Z" id="Shape" fill="#F6E6C8" fill-rule="nonzero"></path>
            <path d="M153.1,127.29 C153.004662,127.251088 152.897614,127.252532 152.803362,127.294004 C152.709109,127.335475 152.635722,127.413421 152.6,127.51 C152.15241,128.678724 151.817554,129.887554 151.6,131.12 C151.563412,131.32942 151.701289,131.529563 151.91,131.57 L152,131.57 C152.187007,131.56824 152.346441,131.43398 152.38,131.25 C152.601896,130.067336 152.936764,128.908693 153.38,127.79 C153.417022,127.686555 153.407458,127.572149 153.353775,127.476286 C153.300092,127.380423 153.207545,127.312488 153.1,127.29 Z" id="Shape" fill="#F6E6C8" fill-rule="nonzero"></path>
            <path d="M235.41,83.08 L208.84,98.67 C208.749555,98.7202218 208.683496,98.8051484 208.657075,98.9051707 C208.630654,99.005193 208.646155,99.1116639 208.7,99.2 C208.769505,99.3163797 208.894455,99.3883208 209.03,99.39 C209.10113,99.3901977 209.170725,99.3693193 209.23,99.33 L235.8,83.75 C235.936849,83.6894384 236.026976,83.5559108 236.031957,83.4063428 C236.036937,83.2567748 235.955894,83.1175469 235.823378,83.0480149 C235.690861,82.9784829 235.530243,82.9909106 235.41,83.08 Z" id="Shape" fill="#F6E6C8" fill-rule="nonzero"></path>
            <path d="M239.07,80.93 L237.24,82 C237.149555,82.0502218 237.083496,82.1351484 237.057075,82.2351707 C237.030654,82.335193 237.046155,82.4416639 237.1,82.53 C237.169505,82.6463797 237.294455,82.7183208 237.43,82.72 C237.50113,82.7201977 237.570725,82.6993193 237.63,82.66 L239.46,81.59 C239.639416,81.478106 239.700753,81.2459008 239.6,81.06 C239.488117,80.8796997 239.252614,80.8219349 239.07,80.93 Z" id="Shape" fill="#F6E6C8" fill-rule="nonzero"></path>
            <path d="M241.85,79.75 C241.799778,79.659555 241.714852,79.5934957 241.614829,79.5670747 C241.514807,79.5406538 241.408336,79.5561552 241.32,79.61 L240.97,79.81 C240.813808,79.8976508 240.737394,80.0804195 240.78472,80.2531588 C240.832046,80.4258982 240.990944,80.544198 241.17,80.54 C241.237809,80.5388304 241.303817,80.5179856 241.36,80.48 L241.71,80.28 C241.800445,80.2297782 241.866504,80.1448516 241.892925,80.0448293 C241.919346,79.944807 241.903845,79.8383361 241.85,79.75 Z" id="Shape" fill="#F6E6C8" fill-rule="nonzero"></path>
            <path d="M234.16,95.37 L217.71,105 C217.565416,105.090694 217.4966,105.264866 217.540148,105.429891 C217.583697,105.594917 217.729492,105.712455 217.9,105.72 C217.969591,105.718679 218.037975,105.701583 218.1,105.67 L234.55,96 C234.640445,95.9497782 234.706504,95.8648516 234.732925,95.7648293 C234.759346,95.664807 234.743845,95.5583361 234.69,95.47 C234.568571,95.3001895 234.334957,95.2561114 234.16,95.37 Z" id="Shape" fill="#F6E6C8" fill-rule="nonzero"></path>
            <path d="M79,246.51 L78.88,246.51 L78.75,246.51 C46,241 17.49,247.83 15.19,261.69 C12.89,275.55 37.63,291.2 70.46,296.69 L70.58,296.69 L70.71,296.69 C103.53,302.15 132.01,295.34 134.31,281.48 C136.61,267.62 111.87,252 79,246.51 Z" id="Shape" fill="#133F3C" fill-rule="nonzero" opacity="0.15"></path>
            <path d="M124.13,277.2 L123.34,262.2 C123.34,262.2 123.34,251.75 112.89,244.28 C106.68,239.85 97.34,233.28 90.13,227.8 L85.75,224.35 L85.61,224.24 L85.46,224.11 C84.4933333,223.316667 83.6233333,222.576667 82.85,221.89 C79.79,226.84 74.66,232.95 66.64,235.08 L66.64,233.56 L50.92,233.56 C44.83,230.1 42.05,223.49 40.92,219.74 C35.7148578,221.521006 30.3598961,222.829624 24.92,223.65 C17.45,225.09 6.74,227.18 3.92,239.8 C3.11,243.41 2.42,246.36 1.84,248.8 C1.26,251.24 0.77,253.04 0.4,254.41 C0.382688788,255.660038 0.52722243,256.907061 0.83,258.12 C0.93,258.52 1.03,258.92 1.15,259.32 C1.88862944,261.45711 2.92916813,263.477574 4.24,265.32 C7.99,270.75 14.44,276.32 23.6,281.47 C32.0245221,286.103051 40.9485014,289.763225 50.2,292.38 L57.67,294.38 C69.2067895,297.157597 81.0572188,298.414919 92.92,298.12 C98.6317075,297.778776 104.275242,296.699815 109.71,294.91 C110.94,294.47 112.07,293.99 113.13,293.49 C112.3,284.09 110.13,258.85 110.49,256.61 C110.94,253.85 111.49,249.36 113.44,249.56 C115.39,249.76 122.34,258.26 121.88,279.83 C121.816803,282.005179 121.880244,284.182192 122.07,286.35 C122.628243,285.526879 123.094372,284.644922 123.46,283.72 C123.938678,282.48474 124.222073,281.182471 124.3,279.86 L124.13,277.2 Z" id="Shape" fill="#CFBDCC" fill-rule="nonzero"></path>
            <path d="M50.17,237 L50.17,271 L57.64,273.23 L57.64,237 C54.36,237.66 52.17,238.05 52.17,238.05 L50.17,237 Z" id="Shape"></path>
            <path d="M121.85,279.78 C122.31,258.21 115.32,249.7 113.41,249.51 L91,233.56 C91,233.56 103.52,243.62 106.41,248.18 C109.3,252.74 110.68,262.52 110.68,262.52 C111.21,271.13 112.54,286.52 113.15,293.44 C115.505653,292.357784 117.683712,290.924851 119.61,289.19 C120.508919,288.31601 121.310282,287.346998 122,286.3 C121.823586,284.131415 121.773501,281.954403 121.85,279.78 Z" id="Shape" fill="#6C2B5B" fill-rule="nonzero"></path>
            <path d="M22.54,280.69 C22.8467263,280.973638 23.1818243,281.224961 23.54,281.44 C25,282.2 24.08,281.62 22.54,280.69 Z" id="Shape" fill="#90658D" fill-rule="nonzero"></path>
            <path d="M18.65,275 C18.99,267.6 19.98,250.53 21.88,249.5 C21.0664192,248.045612 20.4955869,246.468223 20.19,244.83 C20.19,244.83 16.29,272.05 17.11,277.44 L18.51,278.37 L18.51,278.27 C19.67,278.96 21.31,279.93 22.51,280.69 C20.9138034,279.022851 19.6089831,277.099424 18.65,275 Z" id="Shape" fill="#6C2B5B" fill-rule="nonzero"></path>
            <path d="M96.44,297.72 L95.17,286.82 L92.87,282.57 C92.87,282.57 94.98,283.57 95.17,278.31 L97.17,297.64 L96.44,297.72 Z" id="Shape" fill="#90658D" fill-rule="nonzero"></path>
            <path d="M59.06,235.49 C58.06,234.99 56.68,232.41 55.32,231.27 L55.32,271.18 C57.79,271.9 60.32,272.57 62.79,273.18 L62.79,233.41 C60.52,234.71 59.06,235.49 59.06,235.49 Z" id="Shape" fill="#956C89" fill-rule="nonzero"></path>
            <path d="M59.86,245.91 C59.9941546,245.89281 60.123428,245.848585 60.24,245.78 C60.5942061,245.517806 60.7841777,245.08847 60.74,244.65 C60.6987723,243.736572 60.345844,242.864839 59.74,242.18 C59.5590648,242.000412 59.3576889,241.842668 59.14,241.71 C58.7546098,241.421965 58.2336922,241.39434 57.82,241.64 C57.7441943,241.696854 57.6768542,241.764194 57.62,241.84 C57.441796,242.101445 57.3539988,242.414003 57.37,242.73 C57.4201463,243.650844 57.7917181,244.524922 58.42,245.2 C58.598295,245.382556 58.8000614,245.540606 59.02,245.67 C59.2709628,245.829407 59.5627033,245.912762 59.86,245.91 Z" id="Shape" fill="#6C2B5B" fill-rule="nonzero"></path>
            <path d="M59.65,245.91 C59.7841546,245.89281 59.913428,245.848585 60.03,245.78 C60.3842061,245.517806 60.5741777,245.08847 60.53,244.65 C60.4887723,243.736572 60.135844,242.864839 59.53,242.18 C59.3490648,242.000412 59.1476889,241.842668 58.93,241.71 C58.5446098,241.421965 58.0236922,241.39434 57.61,241.64 C57.5341943,241.696854 57.4668542,241.764194 57.41,241.84 C57.231796,242.101445 57.1439988,242.414003 57.16,242.73 C57.1963423,243.644488 57.5499095,244.517799 58.16,245.2 C58.338295,245.382556 58.5400614,245.540606 58.76,245.67 C59.025204,245.838993 59.3357875,245.922746 59.65,245.91 Z" id="Shape" fill="#FFFFFF" fill-rule="nonzero"></path>
            <path d="M59,244.22 L59.09,244.22 C59.1746193,244.157302 59.220165,244.054824 59.21,243.95 C59.1936384,243.731235 59.1057933,243.523921 58.96,243.36 L58.81,243.25 C58.7153369,243.190136 58.5946631,243.190136 58.5,243.25 L58.5,243.3 C58.4567443,243.361161 58.4355849,243.435219 58.44,243.51 C58.4563616,243.728765 58.5442067,243.936079 58.69,244.1 C58.7328513,244.148198 58.7835714,244.188774 58.84,244.22 C58.892574,244.232728 58.947426,244.232728 59,244.22 Z" id="Shape" fill="#6C2B5B" fill-rule="nonzero"></path>
            <path d="M59.86,256 C59.9954844,255.988836 60.1260676,255.944163 60.24,255.87 C60.5925655,255.611005 60.7825698,255.185395 60.74,254.75 C60.7036577,253.835512 60.3500905,252.962201 59.74,252.28 C59.561705,252.097444 59.3599386,251.939394 59.14,251.81 C58.7566815,251.518803 58.2356803,251.487227 57.82,251.73 C57.7460383,251.788949 57.678949,251.856038 57.62,251.93 C57.4430022,252.195746 57.355421,252.511038 57.37,252.83 C57.4250923,253.749688 57.7959822,254.622163 58.42,255.3 C58.6009352,255.479588 58.8023111,255.637332 59.02,255.77 C59.271572,255.926959 59.5635597,256.006908 59.86,256 Z" id="Shape" fill="#6C2B5B" fill-rule="nonzero"></path>
            <path d="M59.65,256 C59.7854844,255.988836 59.9160676,255.944163 60.03,255.87 C60.3825655,255.611005 60.5725698,255.185395 60.53,254.75 C60.4936577,253.835512 60.1400905,252.962201 59.53,252.28 C59.351705,252.097444 59.1499386,251.939394 58.93,251.81 C58.5466815,251.518803 58.0256803,251.487227 57.61,251.73 C57.5360383,251.788949 57.468949,251.856038 57.41,251.93 C57.2330022,252.195746 57.145421,252.511038 57.16,252.83 C57.2012277,253.743428 57.554156,254.615161 58.16,255.3 C58.3409352,255.479588 58.5423111,255.637332 58.76,255.77 C59.0258181,255.936686 59.3367055,256.017027 59.65,256 Z" id="Shape" fill="#FFFFFF" fill-rule="nonzero"></path>
            <path d="M59,254.3 L59.09,254.3 C59.1716426,254.234959 59.2164309,254.134185 59.21,254.03 C59.1936384,253.811235 59.1057933,253.603921 58.96,253.44 C58.9150674,253.394047 58.8646951,253.35375 58.81,253.32 C58.7153369,253.260136 58.5946631,253.260136 58.5,253.32 L58.5,253.37 C58.456689,253.434894 58.4356322,253.512102 58.44,253.59 C58.4563616,253.808765 58.5442067,254.016079 58.69,254.18 C58.7357204,254.222171 58.7860363,254.25907 58.84,254.29 C58.8923049,254.302883 58.946498,254.30627 59,254.3 Z" id="Shape" fill="#6C2B5B" fill-rule="nonzero"></path>
            <path d="M59.86,266.05 C59.9946832,266.042268 60.1253027,266.00102 60.24,265.93 C60.5942061,265.667806 60.7841777,265.23847 60.74,264.8 C60.6987723,263.886572 60.345844,263.014839 59.74,262.33 C59.5590648,262.150412 59.3576889,261.992668 59.14,261.86 C58.7546098,261.571965 58.2336922,261.54434 57.82,261.79 C57.7441943,261.846854 57.6768542,261.914194 57.62,261.99 C57.441796,262.251445 57.3539988,262.564003 57.37,262.88 C57.4250923,263.799688 57.7959822,264.672163 58.42,265.35 C58.598295,265.532556 58.8000614,265.690606 59.02,265.82 C59.2698166,265.980931 59.5630469,266.06122 59.86,266.05 Z" id="Shape" fill="#6C2B5B" fill-rule="nonzero"></path>
            <path d="M59.65,266.05 C59.7846832,266.042268 59.9153027,266.00102 60.03,265.93 C60.3842061,265.667806 60.5741777,265.23847 60.53,264.8 C60.4887723,263.886572 60.135844,263.014839 59.53,262.33 C59.3490648,262.150412 59.1476889,261.992668 58.93,261.86 C58.5446098,261.571965 58.0236922,261.54434 57.61,261.79 C57.5341943,261.846854 57.4668542,261.914194 57.41,261.99 C57.231796,262.251445 57.1439988,262.564003 57.16,262.88 C57.2012277,263.793428 57.554156,264.665161 58.16,265.35 C58.338295,265.532556 58.5400614,265.690606 58.76,265.82 C59.0238702,265.991163 59.3362401,266.071888 59.65,266.05 Z" id="Shape" fill="#FFFFFF" fill-rule="nonzero"></path>
            <path d="M59,264.37 C59.029382,264.378611 59.060618,264.378611 59.09,264.37 C59.1716426,264.304959 59.2164309,264.204185 59.21,264.1 C59.1936384,263.881235 59.1057933,263.673921 58.96,263.51 C58.9149666,263.467002 58.864546,263.430027 58.81,263.4 C58.7179654,263.331662 58.5920346,263.331662 58.5,263.4 C58.4567443,263.461161 58.4355849,263.535219 58.44,263.61 C58.4563616,263.828765 58.5442067,264.036079 58.69,264.2 C58.7331244,264.245223 58.7839063,264.282463 58.84,264.31 C58.8863892,264.345088 58.9419779,264.365933 59,264.37 Z" id="Shape" fill="#6C2B5B" fill-rule="nonzero"></path>
            <path d="M57.64,235.69 C71.02,237.14 78.78,228.49 82.85,221.89 C81.35,220.55 80.2,219.41 79.39,218.57 C78.39,217.49 77.89,216.87 77.89,216.87 C77.89,216.87 53.57,213.64 45.57,217.73 C44.0782125,218.495682 42.5383104,219.163753 40.96,219.73 C42.4,224.66 46.72,234.52 57.64,235.69 Z" id="Shape" fill="#6C2B5B" fill-rule="nonzero"></path>
            <path d="M38.8,190.88 C39.92,184.64 34.33,184.51 31.51,183.88 C28.69,183.25 29.64,181.49 32.41,175.6 C34.4958124,171.446815 35.6428954,166.885794 35.77,162.24 C35.96,159.24 27.87,157.59 23.23,156.88 C22.51,162.75 22.64,168.79 22.98,170.34 C23.53,172.88 24.35,173.05 24.14,181.85 C23.94,190 35.41,204 39,207.2 C37.07,202 37.88,196.05 38.8,190.88 Z" id="Shape" fill="#DBB1BA" fill-rule="nonzero"></path>
            <path d="M67.63,205.48 C61.39,209.96 48.86,210.35 48.86,210.35 C49.7,213.85 45.52,217.75 45.52,217.75 C45.7041321,219.805534 46.3612615,221.790612 47.44,223.55 C56.4636173,220.72478 63.8251333,214.136242 67.63,205.48 Z" id="Shape" fill="#DBB1BA" fill-rule="nonzero"></path>
            <path d="M47.44,223.55 C48.8192007,225.809442 50.9398818,227.520125 53.44,228.39 C61,231.14 63.82,230.01 66.44,229.23 C68.73,228.56 75.49,223.7 77.87,216.87 C75.67,216 75.79,215.3 75.79,215.3 C74.79,206.3 80.71,192.63 80.71,192.63 C91.08,177.82 95.59,135.71 66.38,130.63 C37.17,125.55 29.17,140.83 25.79,147 C24.48,149.41 23.68,153.08 23.23,156.82 C27.87,157.53 35.96,159.21 35.77,162.18 C35.6428954,166.825794 34.4958124,171.386815 32.41,175.54 C29.64,181.43 28.7,183.16 31.51,183.82 C34.32,184.48 39.92,184.6 38.8,190.82 C37.88,195.99 37.07,201.98 38.98,207.14 C39.1793147,207.329908 39.393313,207.503781 39.62,207.66 C42.13,209.37 48.86,210.29 48.86,210.29 C48.86,210.29 61.39,209.9 67.63,205.42 C63.8390757,214.099117 56.4755069,220.711375 47.44,223.55 Z" id="Shape" fill="#E3C4CB" fill-rule="nonzero"></path>
            <path d="M83.22,192.79 L80.22,192.6 C80.22,192.6 76.45,187.36 78.5,186.06 C80.55,184.76 88.71,177.25 81.85,167.34 C74.99,157.43 67.33,170.87 70.67,174.48 L72,182.24 C72,182.24 69,183.12 68.71,181.67 C68.42,180.22 63.15,172.74 65.59,165.39 C65.59,165.39 55.74,160.29 56.02,155.84 C56.3,151.39 55.85,147.43 47.21,148.48 C38.57,149.53 30.49,150 25.32,147 C20.15,144 17.11,122.05 18.65,120.19 C20.19,118.33 24.38,117.34 30.65,119.89 C36.92,122.44 37.65,125.17 42.01,123.84 C46.37,122.51 46.32,119.84 52.88,121.51 C55.13,122.08 65.18,121.05 67.7,119.78 C70.22,118.51 82.14,118.39 86.02,124.72 C89.9,131.05 104.86,145.42 83.22,192.79 Z" id="Shape" fill="#86567B" fill-rule="nonzero"></path>
            <polygon id="Shape" fill="#3E1C5E" fill-rule="nonzero" points="55.54 293.16 55.54 312.75 61.46 312.75 61.46 291.95"></polygon>
            <polygon id="Shape" fill="#146973" fill-rule="nonzero" points="104 343.4 55.54 315.42 124.93 275.44 173.38 303.41"></polygon>
            <polygon id="Shape" fill="#654A7D" fill-rule="nonzero" points="104 340.73 55.54 312.75 124.93 272.76 173.38 300.74"></polygon>
            <polygon id="Shape" fill="#3E1C5E" fill-rule="nonzero" points="173.38 300.74 173.38 303.41 104 343.4 104 340.73"></polygon>
            <polygon id="Shape" fill="#E68077" fill-rule="nonzero" points="104 321.14 55.54 293.16 124.93 253.18 173.38 281.15"></polygon>
            <polygon id="Shape" fill="#654A7D" fill-rule="nonzero" points="104 318.47 55.54 290.49 124.93 250.5 173.38 278.48"></polygon>
            <polygon id="Shape" fill="#3E1C5E" fill-rule="nonzero" points="173.38 278.48 173.38 281.15 104 321.14 104 318.47"></polygon>
            <polygon id="Shape" fill="#F6E6C8" fill-rule="nonzero" points="104 322.92 104 322.92 57.73 296.22 57.73 311.42 104 338.14"></polygon>
            <polygon id="Shape" fill="#F6DDB7" fill-rule="nonzero" points="104 322.92 104 338.14 169.17 300.59 169.17 285.36 104 322.92"></polygon>
            <polygon id="Shape" fill="#51356C" fill-rule="nonzero" points="55.54 312.75 55.54 315.42 104 343.4 104 340.73"></polygon>
            <polygon id="Shape" fill="#51356C" fill-rule="nonzero" points="55.54 290.49 55.54 293.16 104 321.14 104 318.47"></polygon>
            <path d="M55.54,290.49 C53.4616928,298.670055 53.4616928,307.239945 55.54,315.42 L55.54,290.49 Z" id="Shape" fill="#51356C" fill-rule="nonzero"></path>
            <ellipse id="Oval" fill="#FFFFFF" fill-rule="nonzero" cx="121.23" cy="280.11" rx="8.18" ry="4.72"></ellipse>
            <path d="M115.45,283.45 C121.53,286.96 120.55,293.22 113.26,297.45 L91.26,284.73 C98.53,280.5 109.37,279.93 115.45,283.45 Z" id="Shape" fill="#FFFFFF" fill-rule="nonzero"></path>
            <polygon id="Shape" fill="#CA8C98" fill-rule="nonzero" points="261.78 205.64 266.26 180.96 223.51 183.55 237.78 191.79 168.97 231.52 178.69 237.13 247.5 197.4"></polygon>
            <polygon id="Shape" fill="#F3CF95" fill-rule="nonzero" points="104 321.14 104 321.14 57.73 294.44 57.73 296.99 104 323.69"></polygon>
            <polygon id="Shape" fill="#F1C784" fill-rule="nonzero" points="104 321.14 104 321.14 104 323.69 169.17 286.13 169.17 283.58"></polygon>
            <polygon id="Shape" fill="#EDB155" fill-rule="nonzero" points="132.71 303.25 132.71 329.14 150.9 318.67 150.9 292.78"></polygon>
            <polygon id="Shape" fill="#F1C784" fill-rule="nonzero" points="132.71 303.25 131.18 302.36 131.18 328.25 132.71 329.14"></polygon>
            <polygon id="Shape" fill="#F4D6A6" fill-rule="nonzero" points="149.36 291.88 150.9 292.78 132.71 303.25 131.18 302.36"></polygon>
            <path d="M142.82,305.36 C143.45,305.49 143.82,306.08 143.82,307.02 C143.763208,308.18117 143.319682,309.289986 142.56,310.17 L142.56,316.17 C142.51581,316.936868 142.111633,317.637689 141.47,318.06 L141.26,318.15 C141.516044,318.230675 141.795581,318.174012 142,318 C142.641633,317.577689 143.04581,316.876868 143.09,316.11 L143.09,310.11 C143.849682,309.229986 144.293208,308.12117 144.35,306.96 C144.37,305.84 143.72,305.22 142.82,305.36 Z" id="Shape" fill="#F1C784" fill-rule="nonzero"></path>
            <path d="M142.6,316.13 L142.6,310.13 C143.359682,309.249986 143.803208,308.14117 143.86,306.98 C143.86,306.04 143.45,305.45 142.86,305.32 C142.577536,305.371346 142.306577,305.472956 142.06,305.62 C140.669158,306.527208 139.792931,308.04204 139.7,309.7 C139.7,310.75 140.22,311.36 140.97,311.38 L140.97,317.38 C140.933966,317.673175 141.080652,317.958618 141.34,318.1 L141.55,318.01 C142.173712,317.58108 142.56192,316.886002 142.6,316.13 Z" id="Shape" fill="#3E1C5E" fill-rule="nonzero"></path>
            <g id="Group" opacity="0.1" transform="translate(267.000000, 71.000000)" fill="#000000" fill-rule="nonzero">
                <polygon id="Shape" points="190.86 55.18 96.06 110.27 0.64 55.18 95.44 0.09"></polygon>
            </g>
            <g id="Group" transform="translate(267.000000, 68.000000)" fill-rule="nonzero">
                <polygon id="Shape" fill="#D1D4F2" points="166.43 48.52 83.81 96.54 0.64 48.52 83.27 0.51"></polygon>
                <polygon id="Shape" fill="#8D919F" points="166.43 48.52 166.4 58.11 83.78 106.12 83.81 96.54"></polygon>
                <polygon id="Shape" fill="#A5A8BB" points="83.81 96.54 83.78 106.12 0.62 58.11 0.64 48.52"></polygon>
            </g>
            <g id="Group" transform="translate(281.000000, 66.000000)" fill-rule="nonzero">
                <polygon id="Shape" fill="#D1D4F2" points="138.39 39.92 69.76 79.81 0.69 39.92 69.32 0.04"></polygon>
                <polygon id="Shape" fill="#8D919F" points="138.39 39.92 138.37 49.51 69.74 89.39 69.76 79.81"></polygon>
                <polygon id="Shape" fill="#A5A8BB" points="69.76 79.81 69.74 89.39 0.66 49.51 0.69 39.92"></polygon>
            </g>
            <path d="M405.74,108.56 C402.133581,108.56 399.21,105.636419 399.21,102.03 L399.21,56.63 C399.21,53.0235806 402.133581,50.1 405.74,50.1 C409.346419,50.1 412.27,53.0235806 412.27,56.63 L412.27,102 C412.27798,103.737056 411.593525,105.405704 410.368046,106.636813 C409.142568,107.867922 407.477074,108.560018 405.74,108.56 Z" id="Shape" fill="#6C2B5B" fill-rule="nonzero"></path>
            <g id="Group" transform="translate(305.000000, 37.000000)" fill-rule="nonzero">
                <polygon id="Shape" fill="#734A6A" points="95.82 34.43 59.56 55.5 0.75 21.54 37 0.47"></polygon>
                <polygon id="Shape" fill="#86567B" points="95.82 34.43 95.71 72.59 59.46 93.66 59.56 55.5"></polygon>
                <polygon id="Shape" fill="#956C89" points="59.56 55.5 59.46 93.66 0.64 59.7 0.75 21.54"></polygon>
            </g>
            <path d="M299.25,109.74 C297.519054,109.740002 295.85915,109.051703 294.636125,107.826802 C293.4131,106.601901 292.727345,104.940943 292.73,103.21 L292.73,57.81 C292.492288,55.3386661 293.676591,52.9463193 295.785936,51.6368683 C297.895281,50.3274173 300.564719,50.3274173 302.674064,51.6368683 C304.783409,52.9463193 305.967712,55.3386661 305.73,57.81 L305.73,103.21 C305.730105,106.796983 302.836878,109.712535 299.25,109.74 Z" id="Shape" fill="#6C2B5B" fill-rule="nonzero"></path>
            <path d="M325.74,123.55 C322.137482,123.550004 319.215517,120.632514 319.21,117.03 L319.21,71.63 C319.21,68.0235806 322.133581,65.1 325.74,65.1 C329.346419,65.1 332.27,68.0235806 332.27,71.63 L332.27,117 C332.277991,118.736138 331.593219,120.403766 330.367449,121.633289 C329.14168,122.862813 327.476154,123.552681 325.74,123.55 Z" id="Shape" fill="#6C2B5B" fill-rule="nonzero"></path>
            <path d="M352.23,137.37 C348.623581,137.37 345.7,134.446419 345.7,130.84 L345.7,85.44 C345.7,81.8335806 348.623581,78.91 352.23,78.91 C355.836419,78.91 358.76,81.8335806 358.76,85.44 L358.76,130.84 C358.76,134.446419 355.836419,137.37 352.23,137.37 Z" id="Shape" fill="#6C2B5B" fill-rule="nonzero"></path>
            <g id="Group" transform="translate(277.000000, 11.000000)" fill-rule="nonzero">
                <polygon id="Shape" fill="#D1D4F2" points="154.99 47.31 81.21 90.18 0.31 43.48 74.1 0.6"></polygon>
                <polygon id="Shape" fill="#8D919F" points="154.99 47.31 154.97 54.66 81.19 97.53 81.21 90.18"></polygon>
                <polygon id="Shape" fill="#A5A8BB" points="81.21 90.18 81.19 97.53 0.29 50.83 0.31 43.48"></polygon>
            </g>
            <g id="Group" transform="translate(285.000000, 0.000000)" fill-rule="nonzero">
                <polygon id="Shape" fill="#9D8CAC" points="15.71 52.9 82.01 14.37 123.53 38.34 57.23 76.87"></polygon>
                <polygon id="Shape" fill="#9D8CAC" points="0.21 46.5 66.51 7.97 102.84 0.5 36.54 39.03"></polygon>
                <path d="M36.54,39 L72.71,88.33 L72.71,96.11 L0.21,54.25 L0.21,46.47 L36.54,39 Z M15.71,52.9 L57.23,76.9 L36.52,48.62 L15.71,52.9 Z" id="Shape" fill="#654A7D"></path>
                <polygon id="Shape" fill="#89789B" points="36.54 39.03 102.84 0.5 139.01 49.83 72.71 88.36"></polygon>
                <polygon id="Shape" fill="#3E1C5E" points="72.71 88.36 139.01 49.83 138.99 57.61 72.69 96.14"></polygon>
            </g>
            <path d="M354.31,203.48 C360.52,207.07 370.62,207.05 376.87,203.48 C383.12,199.91 383.16,194.04 376.94,190.48 C371.22,187.18 362.2,186.94 355.94,189.74 L351,186.81 C350.123321,186.364632 349.086679,186.364632 348.21,186.81 C347.865013,186.926953 347.632901,187.250728 347.632901,187.615 C347.632901,187.979272 347.865013,188.303047 348.21,188.42 L353.15,191.27 C348.16,194.9 348.55,200.16 354.31,203.48 Z" id="Shape" fill="#000000" fill-rule="nonzero" opacity="0.1"></path>
            <circle id="Oval" fill="#D27576" fill-rule="nonzero" cx="348.51" cy="186.81" r="1.62"></circle>
            <polygon id="Rectangle-path" fill="#D27576" fill-rule="nonzero" transform="translate(348.520000, 180.420000) rotate(-180.000000) translate(-348.520000, -180.420000) " points="346.9 174.04 350.14 174.04 350.14 186.8 346.9 186.8"></polygon>
            <path d="M348.46,155 C355.534867,155.195751 361.16851,160.987426 361.16851,168.065 C361.16851,175.142574 355.534867,180.934249 348.46,181.13 C334.32,166.47 348.46,155 348.46,155 Z" id="Shape" fill="#22B26D" fill-rule="nonzero"></path>
            <path d="M348.46,155 C348.46,155 334.32,166.44 348.46,181.13 C343.706141,181.261533 339.256007,178.800525 336.840294,174.704087 C334.424582,170.607649 334.424582,165.522351 336.840294,161.425913 C339.256007,157.329475 343.706141,154.868467 348.46,155 Z" id="Shape" fill="#5CB853" fill-rule="nonzero"></path>
        </g>
    </g>
</svg>