<?xml version="1.0" encoding="UTF-8"?>
<svg width="484px" height="363px" viewBox="0 0 484 363" version="1.1" xmlns="http://www.w3.org/2000/svg" xmlns:xlink="http://www.w3.org/1999/xlink">
    <!-- Generator: Sketch 52.6 (67491) - http://www.bohemiancoding.com/sketch -->
    <title>1-11</title>
    <desc>Created with Sketch.</desc>
    <g id="Assets" stroke="none" stroke-width="1" fill="none" fill-rule="evenodd">
        <g id="1-11">
            <polygon id="Shape" fill="#000000" fill-rule="nonzero" opacity="0.1" points="318.02 191.92 164.16 280.31 256.82 333.72 410.77 245.14"></polygon>
            <g id="Group" transform="translate(108.000000, 163.000000)" fill-rule="nonzero">
                <polygon id="Shape" fill="#D1D4F2" points="258.57 74.93 130.15 149.56 0.89 74.93 129.31 0.3"></polygon>
                <polygon id="Shape" fill="#8D919F" points="258.57 74.93 258.55 85.39 130.13 160.02 130.15 149.56"></polygon>
                <polygon id="Shape" fill="#A5A8BB" points="130.15 149.56 130.13 160.02 0.87 85.39 0.89 74.93"></polygon>
            </g>
            <polygon id="Shape" fill="#000000" fill-rule="nonzero" opacity="0.1" points="297.19 197.82 182.55 263.7 252.76 304.17 366.6 237.92"></polygon>
            <g id="Group" transform="translate(140.000000, 17.000000)" fill-rule="nonzero">
                <polygon id="Shape" fill="#CFBDCC" points="194.59 56.95 98.27 112.92 1.33 56.95 97.64 0.98"></polygon>
                <polygon id="Shape" fill="#6C2B5B" points="194.59 56.95 194.12 222.54 97.8 278.51 98.27 112.92"></polygon>
                <polygon id="Shape" fill="#956C89" points="98.27 112.92 97.8 278.51 0.86 222.54 1.33 56.95"></polygon>
            </g>
            <ellipse id="Oval" fill="#FFFFFF" fill-rule="nonzero" transform="translate(286.739207, 132.017545) rotate(-60.000000) translate(-286.739207, -132.017545) " cx="286.739207" cy="132.017545" rx="10.94" ry="6.32"></ellipse>
            <path d="M286.74,141 C278.6,145.7 272.01,158.64 272.01,169.91 L301.47,152.91 C301.47,141.58 294.88,136.26 286.74,141 Z" id="Shape" fill="#FFFFFF" fill-rule="nonzero"></path>
            <path d="M261.23,197.6 L312.89,167.78 C313.824615,167.165932 314.414117,166.146353 314.48,165.03 C314.48,164.03 313.76,163.61 312.89,164.11 L261.23,193.94 C260.290586,194.549522 259.699549,195.571756 259.64,196.69 C259.64,197.7 260.35,198.11 261.23,197.6 Z" id="Shape" fill="#F6DDB7" fill-rule="nonzero"></path>
            <path d="M312.89,177.32 L286.63,192.47 C285.698004,193.085151 285.112043,194.105021 285.05,195.22 C285.05,196.22 285.76,196.65 286.63,196.14 L312.89,181 C313.826999,180.388188 314.417262,179.367294 314.48,178.25 C314.48,177.22 313.76,176.81 312.89,177.32 Z" id="Shape" fill="#F6DDB7" fill-rule="nonzero"></path>
            <path d="M274.78,203 C275.711996,202.384849 276.297957,201.364979 276.36,200.25 C276.36,199.25 275.65,198.82 274.78,199.33 L260.59,207.52 C259.650586,208.129522 259.059549,209.151756 259,210.27 C259,211.27 259.71,211.69 260.59,211.19 L274.78,203 Z" id="Shape" fill="#F6DDB7" fill-rule="nonzero"></path>
            <path d="M300.18,197.85 L261.23,220.35 C260.288141,220.957196 259.696313,221.980798 259.64,223.1 C259.64,224.1 260.35,224.52 261.23,224.01 L300.18,201.52 C301.118203,200.909329 301.708851,199.887768 301.77,198.77 C301.77,197.76 301.06,197.35 300.18,197.85 Z" id="Shape" fill="#F6DDB7" fill-rule="nonzero"></path>
            <path d="M269.86,36.58 C252.64,34.23 233.75,36.91 220.34,44.66 L196.24,58.57 L210.11,66.57 L234.2,52.66 C247.11,45.2 268.12,45.2 281.04,52.66 C293.96,60.12 293.95,72.24 281.04,79.66 L256.94,93.57 L270.81,101.57 L294.9,87.7 C308.31,79.96 312.97,69.06 308.9,59.11 L269.86,36.58 Z" id="Shape" fill="#000000" fill-rule="nonzero" opacity="0.1"></path>
            <g id="Group" transform="translate(190.000000, 0.000000)">
                <path d="M90.5,63.83 L90.5,63.41 C90.5,62.3033333 90.46,61.3033333 90.38,60.41 C90.25,58.41 90.06,57.16 90.03,56.96 L90.03,56.77 C90.03,56.57 89.97,56.37 89.93,56.15 C89.85,55.58 89.76,54.98 89.65,54.34 C89.65,54.57 89.72,54.8 89.75,55.05 C89.69,54.72 89.64,54.38 89.58,54.05 L89.52,53.7 L89.39,53.09 C89.23,52.2966667 89.06,51.5166667 88.88,50.75 L88.8,50.39 C88.64,49.66 88.38,48.77 88.14,47.95 C88.05,47.6 87.95,47.26 87.84,46.95 C87.73,46.64 87.57,46.07 87.42,45.59 L87.24,45.06 C83.0475099,32.3168948 75.5613676,20.9082899 65.54,11.99 L65.11,11.61 L64.66,11.24 C64.32,10.96 63.98,10.68 63.66,10.41 L62.53,9.49 C61.65,8.78 60.4,7.93 59.47,7.3 C58.54,6.67 57.63,6.16 56.82,5.66 L58.03,6.38 L56.72,5.6 L56.67,5.6 C55.62,5.01 54.26,4.26 53.18,3.78 L52.78,3.61 C52.26,3.37 51.78,3.16 51.28,2.97 L50.6,2.69 C49.69,2.33 48.77,1.99 47.97,1.75 L47.65,1.66 C46.96,1.45 46.27,1.26 45.59,1.1 L45.41,1.05 L45.34,1.05 L45.24,1.05 L44.77,0.95 L44.01,0.79 L43.86,0.79 L43.34,0.69 L43.51,0.69 L43.32,0.69 L42.2,0.52 L42,0.52 L41.65,0.47 L41.44,0.47 L41.09,0.47 L40.2,0.38 L39.7,0.38 L39.33,0.38 L38.78,0.38 L38.32,0.38 L38,0.38 C37.62,0.38 37.18,0.38 36.71,0.38 C34.1353491,0.400152435 31.5728875,0.735992739 29.08,1.38 L29,1 L28.2,1.22 C27.81,1.34 27.34,1.48 26.79,1.67 L26.72,1.67 L26.79,1.67 L27.07,1.58 L26.6,1.74 L26.39,1.82 C25.85,2 25.28,2.21 24.69,2.46 C24.1,2.71 23.07,3.17 22.39,3.51 C21.71,3.85 21.13,4.19 20.6,4.51 C21.03,4.26 21.49,4.03 21.95,3.81 L22.02,3.81 L22.09,3.81 L22.18,3.81 L22.23,3.81 L22.32,3.81 L22.44,3.81 C22.73,3.69 23.01,3.57 23.31,3.46 L23.47,3.41 L23.54,3.41 L23.63,3.41 L23.72,3.41 L24,3 L24.74,2.77 L24.97,2.71 L25.11,2.71 L25.2,2.71 L25.35,2.71 L25.57,2.66 L26.31,2.49 L26.39,2.49 L26.56,2.49 L26.69,2.49 L27.12,2.42 L27.95,2.31 L28,2.31 L28.17,2.31 L28.7,2.31 C28.99,2.31 29.29,2.31 29.58,2.26 L30.45,2.26 C30.76,2.26 31.07,2.26 31.38,2.26 L31.98,2.26 L32.23,2.26 C32.54,2.26 32.86,2.31 33.17,2.35 L33.67,2.41 L33.96,2.41 C34.2,2.41 34.44,2.45 34.68,2.53 L35.55,2.68 L35.72,2.68 L36.41,2.84 C36.7,2.9 36.98,2.97 37.26,3.05 L37.42,3.05 L38.18,3.26 C38.49,3.35 38.81,3.45 39.12,3.56 L39.91,3.82 L40.07,3.88 L40.93,4.2 L41.67,4.49 L41.91,4.6 L42.78,4.97 L43.46,5.28 L43.76,5.42 L44.65,5.85 L45.53,6.31 C46.05,6.58 46.58,6.86 47.1,7.17 C47.84,7.59 48.56,8.04 49.29,8.51 L49.37,8.57 L49.47,8.63 L49.57,8.7 L49.72,8.79 L49.91,8.92 L50.21,9.13 C50.67,9.43 51.12,9.74 51.57,10.06 L51.77,10.21 L52.12,10.46 L52.64,10.86 C53.05,11.16 53.45,11.46 53.85,11.78 L54.2,12.06 L54.94,12.66 C55.38,13.02 55.82,13.39 56.25,13.77 L56.63,14.09 L57,14.42 C57.54,14.91 58.08,15.42 58.61,15.91 C58.83,16.11 59.04,16.32 59.25,16.53 L59.32,16.59 C59.78,17.04 60.23,17.5 60.68,17.96 L61.01,18.3 C61.18,18.47 61.35,18.65 61.51,18.83 C62.02,19.36 62.51,19.9 63.01,20.46 L63.25,20.72 C63.88,21.43 64.5,22.16 65.11,22.9 C69.2524793,27.9500928 72.8335273,33.4356682 75.79,39.26 C75.93,39.53 76.07,39.81 76.2,40.08 C76.42,40.52 76.64,40.96 76.85,41.41 L77.27,42.29 L77.85,43.58 L78.25,44.49 L78.8,45.79 L79.16,46.69 C79.34,47.14 79.51,47.59 79.68,48.04 L80,48.88 L80,48.94 C80.15,49.34 80.29,49.75 80.43,50.16 C80.57,50.57 80.81,51.27 80.99,51.83 C81.08,52.12 81.18,52.41 81.27,52.7 L81.38,53.08 C81.53,53.58 81.68,54.08 81.82,54.58 C81.87,54.76 81.93,54.94 81.98,55.12 C82.03,55.3 82.12,55.67 82.2,55.95 C82.33,56.47 82.47,56.95 82.59,57.52 L82.65,57.76 L82.86,58.67 C82.97,59.2 83.09,59.73 83.19,60.26 C83.26,60.6 83.32,60.94 83.38,61.26 L83.38,61.38 C83.38,61.64 83.46,61.9 83.51,62.16 L83.63,62.89 L83.75,63.68 L83.75,63.95 C83.7548817,63.9998808 83.7548817,64.0501192 83.75,64.1 C83.82,64.59 83.88,65.1 83.93,65.56 L83.99,66.11 C83.99,66.17 83.99,66.23 83.99,66.29 C83.9850914,66.3565763 83.9850914,66.4234237 83.99,66.49 C83.9949411,66.5732601 83.9949411,66.6567399 83.99,66.74 C83.99,67.21 84.07,67.68 84.1,68.14 C84.1,68.21 84.1,68.28 84.1,68.34 C84.1,68.4 84.1,68.53 84.1,68.62 L84.1,68.68 C84.1,68.73 84.1,68.78 84.1,68.82 C84.1,68.86 84.1,68.92 84.1,68.97 C84.1,69.02 84.1,69.09 84.1,69.15 C84.0950537,69.1998777 84.0950537,69.2501223 84.1,69.3 C84.1,70.1 84.15,70.9 84.15,71.69 L84.07,99.47 L84.39,99.28 L84.55,99.17 L85.05,98.82 L85.33,98.62 C85.5,98.49 85.66,98.35 85.82,98.21 L86.04,98.02 C86.27,97.82 86.48,97.6 86.69,97.38 C86.88,97.17 87.07,96.95 87.25,96.73 L87.3,96.67 L87.39,96.54 C87.57,96.3133333 87.74,96.0733333 87.9,95.82 L88.05,95.6 C88.24,95.3 88.42,94.99 88.58,94.68 L88.67,94.48 C88.77,94.29 88.86,94.1 88.95,93.9 L89.07,93.58 L89.28,93.04 C89.3010859,92.9950316 89.3178286,92.9481521 89.33,92.9 C89.33,92.82 89.33,92.73 89.41,92.65 L89.53,92.27 C89.53,92.13 89.61,91.98 89.64,91.84 C89.67,91.7 89.71,91.58 89.74,91.45 C89.77,91.32 89.74,91.34 89.74,91.29 C89.74,91.24 89.74,91.2 89.74,91.15 C89.83,90.71 89.9,90.27 89.95,89.82 C89.95,89.82 89.95,89.82 89.95,89.82 C89.9455017,89.7834713 89.9455017,89.7465287 89.95,89.71 C89.95,89.32 90.01,88.94 90.02,88.55 C90.02,88.55 90.02,88.45 90.02,88.4 L90.02,69.68 C90.02,67.84 90.02,66 90.02,64.16 C90.51,64.05 90.5,63.94 90.5,63.83 Z" id="Shape" fill="#89789B" fill-rule="nonzero"></path>
                <path d="M84.4,70 C84.4,69.9 84.4,69.79 84.4,69.68 C84.4,69.57 84.4,69.23 84.4,69 L84.4,68.2 C84.4,67.99 84.4,67.78 84.35,67.58 L84.29,66.85 C84.29,66.7 84.29,66.54 84.29,66.39 C84.29,66.04 84.21,65.69 84.17,65.39 L84.11,64.8 C84.105603,64.736743 84.105603,64.673257 84.11,64.61 C84.03,63.98 83.94,63.35 83.84,62.71 C83.8281756,62.6191703 83.8114849,62.5290407 83.79,62.44 C83.71,61.9133333 83.62,61.3833333 83.52,60.85 L83.46,60.58 C83.41,60.31 83.35,60.04 83.3,59.77 C83.25,59.5 83.17,59.14 83.1,58.77 C83.1,58.63 83.03,58.48 83,58.34 L82.79,57.44 C82.73,57.2 82.68,56.96 82.62,56.71 L82.47,56.15 C82.38,55.8 82.28,55.45 82.18,55.15 C82.08,54.85 82.08,54.75 82.02,54.54 C81.96,54.33 81.9,54.15 81.84,53.95 C81.73,53.56 81.61,53.16 81.49,52.77 L81.31,52.19 L81.13,51.64 L80.68,50.31 L80.47,49.69 L80.32,49.28 C80.08,48.64 79.84,47.99 79.59,47.35 L79.38,46.79 C79.38,46.73 79.33,46.68 79.31,46.62 C78.91,45.62 78.5,44.62 78.06,43.62 C78.022425,43.5418341 77.9890443,43.4617204 77.96,43.38 L77.54,42.48 C77.39,42.15 77.24,41.82 77.08,41.48 L76.47,40.22 L76,39.27 C75.9593669,39.1987178 75.9226459,39.1252758 75.89,39.05 L75.32,37.98 C75.16,37.68 75.01,37.38 74.85,37.09 C74.6,36.63 74.34,36.18 74.08,35.72 C73.94,35.46 73.79,35.2 73.64,34.94 C73.32,34.38 72.99,33.83 72.64,33.29 L72.36,32.82 C71.93,32.12 71.49,31.43 71.04,30.74 L70.67,30.18 C70.34,29.69 70.01,29.18 69.67,28.71 C69.5,28.45 69.31,28.2 69.13,27.94 L68.25,26.71 L67.64,25.9 L66.78,24.76 L66.12,23.94 L65.47,23.12 L65.26,22.87 C65.03,22.58 64.78,22.3 64.54,22.02 C64.3,21.74 63.98,21.35 63.69,21.02 C63.4,20.69 63.2,20.46 62.95,20.19 L62.36,19.53 L62.15,19.31 C61.45,18.56 60.75,17.82 60.03,17.1 L59.97,17.04 L59.61,16.7 C59.11,16.21 58.61,15.7 58.1,15.25 L57.88,15.04 L57.33,14.56 C56.97,14.2266667 56.61,13.8933333 56.25,13.56 L55.94,13.29 L55.35,12.8 L54.49,12.1 L54,11.8 L53.32,11.28 L52.56,10.7 L52.3,10.5 L51.41,9.87 L50.79,9.43 L50.65,9.33 C50.12,8.96 49.59,8.61 49.05,8.27 L48.92,8.19 L47.48,7.31 L47.11,7.1 C46.72,6.87 46.32,6.65 45.93,6.44 C45.78,6.35 45.63,6.28 45.48,6.2 L44.87,5.89 C44.72,5.81 44.56,5.72 44.4,5.65 C44.24,5.58 43.9,5.41 43.64,5.29 L43.11,5.04 L42.9,4.93 C42.4,4.71 41.9,4.5 41.4,4.3 L41.33,4.3 C40.85,4.11 40.33,3.93 39.9,3.77 L39.69,3.7 L39.15,3.52 C38.9,3.44 38.65,3.35 38.4,3.28 L38.02,3.17 L37.36,2.99 L36.86,2.85 L36.32,2.73 L35.67,2.59 L35.33,2.51 L34.7,2.41 L33.95,2.28 L33.69,2.28 L33.06,2.22 L32.26,2.13 L32.03,2.13 L31.49,2.13 L30.49,2.13 L30.23,2.13 C29.88,2.13 29.53,2.13 29.18,2.13 L29.04,2.13 L28.29,2.13 L27.79,2.19 L27.43,2.24 C26.99,2.3 26.56,2.36 26.13,2.45 L25.75,2.54 L24.75,2.79 L24.24,2.95 C24.02,3.02 23.8,3.08 23.58,3.16 L23.42,3.23 C23.08,3.35 22.75,3.49 22.42,3.63 L21.95,3.83 C21.47,4.06 21,4.3 20.55,4.56 L17.67,6.23 C18.13,5.97 18.6,5.73 19.08,5.5 L19.55,5.3 L20.55,4.89 L21.37,4.62 L21.88,4.46 L22.88,4.21 L23.25,4.12 C23.69,4.03 24.14,3.96 24.6,3.9 L24.96,3.85 C25.37,3.8 25.79,3.77 26.21,3.74 L26.35,3.74 C26.78,3.74 27.22,3.74 27.66,3.74 L28.66,3.74 L29.43,3.74 L30.23,3.82 L31.12,3.93 L31.87,4.06 L32.87,4.23 L33.53,4.38 C33.87,4.46 34.22,4.54 34.53,4.64 L35.18,4.82 C35.56,4.93 35.94,5.04 36.32,5.17 L36.86,5.35 C37.4,5.53 37.94,5.73 38.49,5.95 L38.56,5.95 C39.13,6.17 39.7,6.42 40.28,6.68 L40.81,6.93 L42.04,7.54 L42.65,7.85 C43.19,8.14 43.73,8.43 44.28,8.75 C44.83,9.07 45.49,9.46 46.09,9.84 L46.22,9.92 C46.81,10.3 47.39,10.69 47.97,11.09 L48.59,11.53 C48.97,11.8 49.36,12.07 49.74,12.36 L50.5,12.94 L51.5,13.73 L52.35,14.43 L53.26,15.19 L54.34,16.14 C54.59,16.38 54.85,16.6 55.11,16.84 C55.61,17.31 56.11,17.84 56.62,18.29 L57.04,18.69 C57.75,19.41 58.46,20.15 59.16,20.9 C59.42,21.19 59.69,21.48 59.95,21.78 L60.7,22.61 C60.99,22.94 61.27,23.27 61.55,23.61 L62.27,24.46 L63.13,25.52 L63.79,26.35 L64.64,27.48 L65.26,28.3 C65.56,28.7 65.85,29.12 66.14,29.53 L66.68,30.3 C67.02,30.78 67.3533333,31.27 67.68,31.77 C67.81,31.96 67.94,32.14 68.06,32.33 C68.51,33.02 68.95,33.71 69.38,34.41 C69.47,34.56 69.56,34.72 69.66,34.87 C69.99,35.42 70.32,35.97 70.66,36.53 C70.81,36.79 70.96,37.05 71.1,37.31 C71.36,37.76 71.62,38.22 71.87,38.68 C72.03,38.97 72.18,39.27 72.34,39.57 C72.5,39.87 72.79,40.42 73.01,40.86 L73.49,41.86 C73.69,42.28 73.9,42.7 74.1,43.11 C74.3,43.52 74.41,43.78 74.56,44.11 L75.08,45.25 C75.51,46.25 75.93,47.25 76.33,48.25 C76.42,48.48 76.51,48.72 76.61,48.96 C76.86,49.61 77.1,50.25 77.34,50.9 L77.7,51.9 L78.15,53.23 L78.51,54.36 C78.63,54.75 78.75,55.15 78.86,55.54 C78.97,55.93 79.09,56.34 79.2,56.74 C79.31,57.14 79.39,57.44 79.49,57.74 C79.59,58.04 79.7,58.6 79.81,59.03 L80.02,59.93 C80.12,60.39 80.22,60.85 80.31,61.31 C80.37,61.58 80.43,61.85 80.48,62.12 C80.6,62.74 80.71,63.36 80.81,63.98 C80.81,64.07 80.81,64.16 80.86,64.25 C80.9733333,64.9566667 81.0733333,65.6666667 81.16,66.38 L81.22,66.97 C81.28,67.47 81.33,67.97 81.38,68.48 C81.38,68.72 81.38,68.96 81.43,69.2 C81.43,69.68 81.5,70.2 81.52,70.63 L81.52,71.31 C81.52,71.98 81.52,72.65 81.52,73.31 L81.44,101.09 L84.31,99.42 L84.39,71.64 C84.42,71.1 84.42,70.54 84.4,70 Z" id="Shape" fill="#9D8CAC" fill-rule="nonzero"></path>
                <path d="M0.63,52.3 L0.63,51.61 C0.63,51.61 0.62,51.87 0.63,52.3 Z" id="Shape"></path>
                <polygon id="Shape" points="5.73 64.24 5.48 64.05 5.23 63.84 5.46 64.04"></polygon>
                <polygon id="Shape" points="5.25 41.55 5.26 41.56 5.25 41.55"></polygon>
                <path d="M81.53,71.78 L81.53,71.64 L81.53,71.41 C81.5349577,71.3668085 81.5349577,71.3231915 81.53,71.28 L81.53,71.09 C81.53,71.09 81.53,71.09 81.53,71.01 C81.5349821,70.9434264 81.5349821,70.8765736 81.53,70.81 L81.53,70.66 C81.53,70.66 81.53,70.57 81.53,70.52 C81.53,70.47 81.53,70.32 81.53,70.22 C81.53,70.12 81.53,70.08 81.53,70.01 C81.5349463,69.9601223 81.5349463,69.9098777 81.53,69.86 C81.5353346,69.8168308 81.5353346,69.7731692 81.53,69.73 C81.53,69.65 81.53,69.58 81.53,69.5 C81.53,69.42 81.53,69.32 81.53,69.24 C81.53,69.16 81.53,69.08 81.53,69 C81.53,68.92 81.53,68.91 81.53,68.86 C81.53,68.86 81.53,68.76 81.53,68.71 L81.53,68.58 C81.53,68.52 81.53,68.46 81.53,68.39 L81.53,68.13 C81.53,68.13 81.53,68.07 81.53,68.05 C81.53,68.03 81.53,67.99 81.53,67.96 L81.53,67.64 L81.53,67.59 C81.53,67.52 81.53,67.44 81.53,67.37 C81.53,67.3 81.53,67.24 81.53,67.18 C81.5250835,67.1401511 81.5250835,67.0998489 81.53,67.06 L81.53,66.82 C81.53,66.82 81.53,66.72 81.53,66.66 C81.53,66.6 81.53,66.6 81.53,66.57 L81.53,66.39 C81.5245882,66.3568863 81.5245882,66.3231137 81.53,66.29 L81.53,66.12 L81.53,65.9 C81.53,65.79 81.53,65.68 81.53,65.58 L81.53,65.38 C81.53,65.38 81.53,65.38 81.53,65.3 L81.53,65.12 C81.5355416,65.0267489 81.5355416,64.9332511 81.53,64.84 C81.53,64.74 81.53,64.64 81.53,64.54 C81.5252114,64.496799 81.5252114,64.453201 81.53,64.41 C81.53,64.41 81.53,64.32 81.53,64.28 L81.53,64.15 L81.53,63.96 L81.53,63.76 C81.5338997,63.6867185 81.5338997,63.6132815 81.53,63.54 L81.47,63.19 C81.47,63.09 81.47,62.99 81.42,62.89 L81.42,62.75 L81.42,62.58 L81.42,62.52 C81.4246522,62.486829 81.4246522,62.453171 81.42,62.42 C81.4247474,62.3500805 81.4247474,62.2799195 81.42,62.21 L81.42,62.1 C81.3985364,62.0176983 81.381842,61.9342261 81.37,61.85 C81.37,61.79 81.37,61.73 81.37,61.68 C81.3746835,61.6501828 81.3746835,61.6198172 81.37,61.59 C81.37,61.59 81.37,61.59 81.37,61.51 L81.37,61.34 L81.37,61.25 C81.37,61.13 81.32,61.02 81.29,60.9 C81.26,60.78 81.29,60.74 81.29,60.66 C81.29,60.58 81.29,60.66 81.29,60.6 C81.29,60.44 81.21,60.28 81.18,60.11 L81.18,60.05 L81.18,59.88 C81.1844757,59.8535211 81.1844757,59.8264789 81.18,59.8 L81.18,59.63 C81.1754527,59.5767636 81.1754527,59.5232364 81.18,59.47 C81.18,59.36 81.13,59.26 81.1,59.16 C81.07,59.06 81.05,58.93 81.02,58.82 C81.0232707,58.7733906 81.0232707,58.7266094 81.02,58.68 C81.0246835,58.6501828 81.0246835,58.6198172 81.02,58.59 C81.0244257,58.5334197 81.0244257,58.4765803 81.02,58.42 C81.02,58.26 80.95,58.11 80.9,57.95 C80.85,57.79 80.85,57.76 80.83,57.66 L80.77,57.43 C80.7420386,57.3480324 80.718669,57.2645695 80.7,57.18 C80.7,57.09 80.65,57 80.62,56.92 C80.59,56.84 80.56,56.66 80.52,56.53 L80.52,56.47 C80.52,56.47 80.52,56.47 80.52,56.47 C80.52,56.42 80.52,56.36 80.47,56.31 C80.41,56.08 80.34,55.86 80.27,55.63 L80.18,55.29 C80.18,55.29 80.18,55.22 80.18,55.18 C80.18,55.14 80.07,54.81 80.01,54.62 C79.95,54.43 80.01,54.51 79.96,54.45 C79.9557019,54.4101155 79.9557019,54.3698845 79.96,54.33 C79.96,54.33 79.96,54.24 79.96,54.19 L79.96,54.11 L79.9,53.93 C79.84,53.73 79.77,53.52 79.7,53.32 C79.6778947,53.2352752 79.6511884,53.1518182 79.62,53.07 C79.62,52.97 79.55,52.87 79.52,52.76 C79.49,52.65 79.39,52.41 79.33,52.23 C79.27,52.05 79.2,51.86 79.14,51.67 C79.1358713,51.6334496 79.1358713,51.5965504 79.14,51.56 C79.14,51.56 79.14,51.48 79.09,51.43 C79.04,51.38 78.98,51.12 78.92,50.96 C78.86,50.8 78.85,50.76 78.82,50.66 L78.75,50.5 C78.62,50.14 78.49,49.79 78.35,49.44 C78.3,49.3 78.25,49.16 78.19,49.02 C78.170905,48.964911 78.1474992,48.9114121 78.12,48.86 C78.1242981,48.8201155 78.1242981,48.7798845 78.12,48.74 L78.04,48.56 C77.96,48.34 77.87,48.12 77.78,47.9 L77.45,47.1 L77.24,46.61 L77.14,46.4 L76.87,45.76 L76.72,45.42 L76.18,44.24 C76.05,43.95 75.91,43.65 75.77,43.36 C75.56,42.91 75.34,42.47 75.12,42.03 C74.99,41.76 74.85,41.48 74.71,41.21 L74.59,40.95 C71.6921491,35.2927631 68.2062355,29.9566339 64.19,25.03 C64.1313662,24.9713268 64.0778392,24.9077635 64.03,24.84 C63.4233333,24.1 62.8033333,23.37 62.17,22.65 L61.93,22.4 C61.67,22.1 61.39,21.8 61.12,21.51 L60.84,21.22 L60.22,20.56 C60.06,20.39 59.89,20.22 59.73,20.04 L59.12,19.42 L58.71,19.01 L58.09,18.41 L57.7,18.03 L57.41,17.76 L57.16,17.52 L56.8,17.18 L56.59,17 L56,16.47 L55.89,16.37 L55.7,16.19 L55.59,16.1 L55.47,15.99 L55.35,15.89 L54.67,15.31 L54.48,15.16 C54.441375,15.1181061 54.3977092,15.0811581 54.35,15.05 L54.1,14.83 L53.94,14.7 L53.71,14.51 L53.38,14.24 L53.1,14.02 L52.92,13.88 L52.85,13.88 L52.64,13.72 L52.59,13.72 L52.26,13.47 L51.89,13.18 L51.66,13.01 L51.38,12.8 L51.27,12.71 L51.12,12.61 L50.97,12.5 C50.9275594,12.4611149 50.8805477,12.4275351 50.83,12.4 L50.71,12.31 L50.39,12.08 L50.12,11.89 L50.05,11.89 L49.96,11.82 L49.78,11.7 L49.67,11.62 L49.56,11.54 L49.22,11.31 L48.83,11.05 L48.66,10.94 L48.49,10.84 L48.27,10.69 L48.12,10.59 L48.04,10.54 L47.95,10.49 L47.89,10.49 L47.72,10.38 L47.53,10.26 L46.53,9.67 L46.16,9.46 C45.76,9.22 45.36,9.01 44.96,8.8 L44.57,8.6 L43.68,8.15 L43.42,8.02 L43.26,7.95 L42.68,7.67 L42.01,7.36 L41.91,7.36 L41.8,7.31 L41.48,7.18 L40.85,6.91 L40.76,6.91 L40.42,6.77 L40.36,6.77 L40.13,6.69 L39.72,6.53 L39.24,6.35 C39.1311397,6.31611317 39.0242998,6.27604817 38.92,6.23 L38.84,6.23 L38.66,6.16 L38.47,6.1 L38.04,5.96 L37.67,5.84 L37.51,5.84 L37.46,5.84 L37.3,5.79 L36.95,5.69 L36.73,5.62 L36.48,5.56 L36.24,5.49 L36.19,5.49 L36.09,5.49 L36.01,5.49 L35.92,5.49 L35.74,5.49 L35.34,5.4 L35.29,5.4 L35.02,5.33 L34.96,5.33 L34.87,5.33 L34.8,5.33 L34.65,5.33 L34.43,5.33 L34.34,5.33 L34.25,5.33 L33.96,5.27 L33.69,5.22 L33.45,5.22 L33.32,5.22 L33.25,5.22 L32.98,5.22 L32.88,5.22 L32.81,5.22 L32.76,5.22 L32.68,5.22 L32.28,5.22 L32.07,5.22 L31.88,5.22 L31.68,5.22 L31.52,5.22 L27.8,5.22 L27.62,5.22 L27.05,5.22 L26.86,5.22 L26.7,5.22 L26.6,5.22 L26.42,5.22 L26.27,5.22 L26.08,5.22 L25.99,5.22 L25.89,5.22 L25.74,5.22 L25.59,5.22 L25.51,5.22 L25.44,5.22 L25.35,5.22 L25.28,5.22 L25.2,5.22 L25.08,5.22 L23,5.22 L22.85,5.22 L22.8,5.22 L22.71,5.22 L22.63,5.22 L22.5,5.22 L22.42,5.22 L22.33,5.22 L22.24,5.22 L22.18,5.22 L22.03,5.27 L21.88,5.27 L21.8,5.27 L21.74,5.27 L21.67,5.27 L21.56,5.27 L21.48,5.27 L21.36,5.27 L21.27,5.27 L21.17,5.27 L21.11,5.27 L20.98,5.27 L20.87,5.27 L20.78,5.27 L20.69,5.27 L20.62,5.27 L20.56,5.27 L20.49,5.27 L20,5 L19.92,5 L19.85,5 L19.75,5 L19.61,5.06 L19.51,5.06 L19.43,5.06 L19.33,5.11 L19.2,5.17 C19.2,5.17 19.2,5.17 19.14,5.17 L19.05,5.17 L18.99,5.17 L18.92,5.17 L18.87,5.17 L18.82,5.17 L18.75,5.17 L18.69,5.17 L17.87,5.62 C16.96,6.18 15.74,6.93 14.87,7.62 C14.59,7.83 14.05,8.24 13.44,8.73 L13.28,8.86 L13.16,8.96 C12.5241405,9.47337321 11.9165821,10.0208433 11.34,10.6 L10.76,11.19 L9.93,12.05 L9.7,12.3 C9.62,12.4 9.53,12.49 9.45,12.58 C9.04,13.04 8.51,13.69 8.13,14.19 C7.04550624,15.5889516 6.08203006,17.0776561 5.25,18.64 C4.93,19.2333333 4.64,19.8133333 4.38,20.38 L4.27,20.6 C4.27,20.6 4.22,20.72 4.19,20.77 C3.29192228,22.7568489 2.57890571,24.8222537 2.06,26.94 C1.71169346,28.3748586 1.43799296,29.8268064 1.24,31.29 C1.19,31.75 1.14,32.29 1.1,32.78 C1.06,33.27 1.01,33.64 0.96,34.16 L0.86,37.16 C0.904334441,38.742864 1.8310545,40.1676961 3.26,40.85 C3.31,22.11 16.65,14.51 32.95,23.93 C49.25,33.35 62.51,56.3 62.45,75.02 L62.45,77.67 C62.8,82.55 62.93,86.47 62.93,86.47 C62.5,103.38 77.32,102.08 77.32,102.08 L77.89,102.01 C78.15,102.01 78.41,101.89 78.66,101.83 L79.19,101.7 C79.47,101.62 79.74,101.51 80.02,101.4 L80.45,101.24 C80.8683088,101.060836 81.2756832,100.857148 81.67,100.63 L81.75,72.85 C81.55,72.81 81.55,72.29 81.53,71.78 Z" id="Shape" fill="#89789B" fill-rule="nonzero"></path>
                <polygon id="Shape" points="5.25 41.55 5.26 41.56 5.25 41.55"></polygon>
                <path d="M32.76,22.44 C32.14,22.09 31.53,21.76 30.92,21.44 C30.8241593,21.3820812 30.7238394,21.3319213 30.62,21.29 C14.49,13.29 1.62,21.17 1.38,39.82 C0.918788441,39.1791124 0.670442641,38.4095903 0.67,37.62 L0.67,41.76 C0.67,43.09 0.67,44.43 0.67,45.76 L0.67,51.57 L0.67,52.26 C0.73,54.88 1.67,64.26 11.95,67.17 C12.25,67.23 12.56,67.29 12.86,67.33 L12.93,67.33 C13.3,67.38 13.68,67.41 14.05,67.43 L14.35,67.43 C14.7330711,67.4500516 15.1169289,67.4500516 15.5,67.43 C15.75,67.43 16,67.37 16.25,67.34 C16.4410824,67.3265368 16.631338,67.3031721 16.82,67.27 C17.08,67.27 17.34,67.15 17.59,67.09 C17.84,67.03 17.95,67.02 18.12,66.97 C18.29,66.92 18.67,66.77 18.95,66.66 C19.23,66.55 19.24,66.57 19.38,66.51 C19.7984642,66.3274177 20.2058335,66.1203939 20.6,65.89 L23.47,64.22 C23.5800849,64.1626092 23.6869144,64.0991792 23.79,64.03 C23.8471037,63.9991444 23.9007422,63.9622678 23.95,63.92 C24.12,63.81 24.29,63.7 24.45,63.58 L24.73,63.37 L25.22,62.97 L25.44,62.78 C25.67,62.57 25.88,62.36 26.09,62.14 C26.28,61.93 26.47,61.71 26.65,61.48 L26.7,61.42 L26.79,61.3 C26.97,61.06 27.14,60.82 27.3,60.58 L27.45,60.35 C27.6421416,60.0525121 27.8190365,59.7454492 27.98,59.43 L28.07,59.23 C28.17,59.04 28.26,58.84 28.35,58.64 L28.47,58.33 L28.68,57.79 C28.7011339,57.7416016 28.7178681,57.691399 28.73,57.64 C28.73,57.56 28.73,57.48 28.81,57.4 L29,57 C29,56.86 29.08,56.72 29.11,56.58 C29.14,56.44 29.18,56.31 29.21,56.18 C29.24,56.05 29.21,56.07 29.21,56.02 C29.21,55.97 29.21,55.93 29.21,55.89 C29.3,55.45 29.37,55 29.42,54.55 C29.42,54.55 29.42,54.55 29.42,54.55 C29.4150835,54.5101511 29.4150835,54.4698489 29.42,54.43 C29.42,54.05 29.48,53.66 29.49,53.27 C29.49,53.27 29.49,53.17 29.49,53.12 L29.49,52.91 C29.49,50.23 29.49,47.55 29.49,44.91 L29.49,39.87 C29.49,38.58 29.49,37.3 29.49,36.02 L29.49,31.14 C29.49,30.43 29.49,29.72 29.49,29.01 C29.49,28.69 29.49,28.38 29.49,28.07 C29.49,27.76 29.49,27.53 29.49,27.27 C29.49,27.02 29.49,26.78 29.49,26.55 C29.49,26.49 29.49,26.42 29.49,26.36 L29.49,26.11 C29.56,25.44 29.66,24.84 29.77,24.2 C34.28,25.68 40.82,29.82 47.34,37.82 L47.48,37.99 C47.92,38.53 48.36,39.1 48.8,39.68 L50.06,41.38 C50.58,42.11 51.23,43.13 51.73,43.88 L53.3,46.46 C53.71,47.17 54.21,48.11 54.63,48.87 L54.87,49.34 L55.87,51.44 C55.94,51.6 56.02,51.75 56.09,51.91 L56.3,52.36 C56.37,52.53 56.45,52.69 56.52,52.86 C56.69,53.24 56.86,53.63 57.02,54.01 C57.02,54.09 57.09,54.17 57.12,54.26 C57.15,54.35 57.27,54.62 57.34,54.79 L58.25,57.16 C58.25,57.16 58.25,57.24 58.25,57.29 C58.53,58.06 58.84,59.05 59.1,59.85 C59.1,59.98 59.17,60.11 59.21,60.24 L59.52,61.35 C61.74,67.94 62.36,86.91 62.36,86.91 C62.2290775,89.5463536 62.6303875,92.1820763 63.54,94.66 L63.54,76.44 C64,56.62 50,32.43 32.76,22.44 Z" id="Shape" fill="#654A7D" fill-rule="nonzero"></path>
            </g>
            <path d="M265.65,87.25 L265.59,87.25 C265.002106,87.197062 264.560791,86.6895494 264.59,86.1 C264.59,85.75 266.14,51.32 249.2,31.37 C248.805116,30.9060808 248.861081,30.2098837 249.325,29.8150001 C249.788919,29.4201165 250.485116,29.4760809 250.88,29.94 C260.05,40.75 263.88,55.48 265.49,65.94 C266.548181,72.6420437 266.983373,79.4276889 266.79,86.21 C266.757668,86.809766 266.250207,87.2727122 265.65,87.25 Z" id="Shape" fill="#FFFFFF" fill-rule="nonzero"></path>
            <path d="M220.79,8.53 C220.623859,8.52906635 220.459968,8.49150795 220.31,8.42 C219.56627,8.18921337 218.78774,8.09105098 218.01,8.13 C217.402487,8.13 216.91,7.63751322 216.91,7.03 C216.91,6.42248678 217.402487,5.93 218.01,5.93 C219.128314,5.8590845 220.248457,6.03666815 221.29,6.45 C221.74314,6.68100871 221.978812,7.19256063 221.859933,7.68709926 C221.741053,8.18163789 221.298626,8.5301851 220.79,8.53 Z" id="Shape" fill="#FFFFFF" fill-rule="nonzero"></path>
            <path d="M220.06,24.2 C220.06,24.2 206.24,19.33 206.61,41.55 C206.98,63.77 206.8,67.32 206.8,67.32 C206.8,67.32 219.51,65.85 219.55,52.86 C219.59,39.87 219.21,27 220.06,24.2 Z" id="Shape" fill="#3E1C5E" fill-rule="nonzero"></path>
            <path d="M241.05,21.05 C240.768115,21.0482952 240.497047,20.9412943 240.29,20.75 C240.22,20.68 233.06,13.95 228.29,11.75 C227.737715,11.495949 227.495949,10.8422847 227.75,10.29 C228.004051,9.73771525 228.657715,9.49594902 229.21,9.75 C234.33,12.12 241.52,18.88 241.82,19.17 C242.029558,19.3733879 242.14782,19.6529703 242.14782,19.945 C242.14782,20.2370297 242.029558,20.5166121 241.82,20.72 C241.616288,20.9263507 241.339917,21.0447954 241.05,21.05 Z" id="Shape" fill="#FFFFFF" fill-rule="nonzero"></path>
            <ellipse id="Oval" fill="#000000" fill-rule="nonzero" opacity="0.1" cx="96.22" cy="319.89" rx="31.3" ry="18.07"></ellipse>
            <polygon id="Shape" fill="#6C2B5B" fill-rule="nonzero" points="149.13 160.17 149.13 172.74 160.01 166.46"></polygon>
            <polygon id="Shape" fill="#CFBDCC" fill-rule="nonzero" points="160.01 166.46 149.13 172.74 149.13 172.74 227.15 217.78 227.15 205.22"></polygon>
            <polygon id="Shape" fill="#6C2B5B" fill-rule="nonzero" points="149.13 116.18 149.13 128.74 160.01 122.46"></polygon>
            <polygon id="Shape" fill="#CFBDCC" fill-rule="nonzero" points="160.01 122.46 149.13 128.74 149.13 128.75 227.15 173.79 227.15 161.22"></polygon>
            <polygon id="Shape" fill="#6C2B5B" fill-rule="nonzero" points="149.13 204.17 149.13 216.73 160.01 210.45"></polygon>
            <polygon id="Shape" fill="#CFBDCC" fill-rule="nonzero" points="160.01 210.45 149.13 216.73 149.13 216.74 227.15 261.78 227.15 249.21"></polygon>
            <path d="M154.85,178 C149.49,181.09 145.85,184.8 144.02,188.74 L142.51,188.74 L142.51,195.19 C142.51,201.41 146.62,207.64 154.85,212.38 C171.29,221.88 197.96,221.88 214.41,212.38 C218.343482,210.259762 221.703118,207.215843 224.2,203.51 L170.2,172.36 C164.820144,173.426665 159.640656,175.329748 154.85,178 Z" id="Shape" fill="#994848" fill-rule="nonzero"></path>
            <path d="M214.41,212.39 C218.343482,210.269762 221.703118,207.225843 224.2,203.52 L214.41,197.87 L214.41,212.39 Z" id="Shape" fill="#663131" fill-rule="nonzero"></path>
            <path d="M162.7,168 C159.978268,168.931614 157.350058,170.11682 154.85,171.54 C138.4,181.03 138.4,196.43 154.85,205.92 C171.3,215.41 197.96,215.42 214.41,205.92 C216.627408,204.659397 218.691186,203.145959 220.56,201.41 L162.7,168 Z" id="Shape" fill="#F27272" fill-rule="nonzero"></path>
            <path d="M162.49,176 C150.27,183.06 150.27,194.5 162.49,201.56 C174.71,208.62 194.49,208.62 206.76,201.56 C208.958495,200.33036 210.938535,198.745652 212.62,196.87 L170.62,172.63 C167.784156,173.421775 165.054372,174.553309 162.49,176 Z" id="Shape" fill="#D25F5F" fill-rule="nonzero"></path>
            <path d="M184.39,182.79 L183.94,182.53 C180.642665,180.860275 176.747335,180.860275 173.45,182.53 C170.56,184.2 170.56,186.92 173.45,188.59 L178.07,191.25 C178.404801,191.429298 178.780315,191.51887 179.16,191.51 L186.72,191.51 L188.78,192.7 C189.464352,193.050707 190.275648,193.050707 190.96,192.7 C191.225261,192.603986 191.401965,192.352103 191.401965,192.07 C191.401965,191.787897 191.225261,191.536014 190.96,191.44 L188.44,190 C188.108823,189.820661 187.736511,189.73103 187.36,189.74 L179.8,189.74 L175.63,187.34 C173.94,186.34 173.94,184.77 175.63,183.8 C177.559393,182.820163 179.840607,182.820163 181.77,183.8 L182.58,184.27 C182.688092,184.336594 182.80187,184.393483 182.92,184.44 L183.14,184.51 C183.38548,184.568394 183.637954,184.591958 183.89,184.58 L191.33,184.58 L197.07,187.9 C201.07,190.19 201.07,193.9 197.07,196.2 C192.728707,198.381966 187.632979,198.481233 183.21,196.47 C182.512833,196.144139 181.701408,196.173916 181.03,196.55 C180.47,196.92 180.54,197.48 181.18,197.81 C186.4,200.44 194.34,200.29 199.25,197.46 C202.14,195.79 203.41,193.54 203.07,191.35 L188.26,182.81 L184.39,182.79 Z" id="Shape" fill="#FFFFFF" fill-rule="nonzero"></path>
            <path d="M169.07,180 C163.91,183 163.91,187.83 169.07,190.81 L175.14,194.31 C175.471177,194.489339 175.843489,194.57897 176.22,194.57 L183.82,194.57 L184.68,195.07 C187.977335,196.739725 191.872665,196.739725 195.17,195.07 C198.06,193.4 198.06,190.68 195.17,189.01 L190.62,186.38 C190.283513,186.205185 189.909166,186.115891 189.53,186.12 L181.82,186.12 L179.75,184.93 C179.065648,184.579293 178.254352,184.579293 177.57,184.93 C177.302217,185.020863 177.122073,185.272221 177.122073,185.555 C177.122073,185.837779 177.302217,186.089137 177.57,186.18 L180.09,187.64 C180.428412,187.819273 180.807136,187.90879 181.19,187.9 L188.9,187.9 L192.99,190.27 C194.68,191.27 194.68,192.83 192.99,193.81 C191.064098,194.789696 188.785902,194.789696 186.86,193.81 L185.86,193.22 C185.485456,192.923656 185.017228,192.771127 184.54,192.79 L176.88,192.79 L171.27,189.55 C167.27,187.26 167.27,183.55 171.27,181.26 C174.91,179.15 180.89,178.98 184.88,180.86 L185,180.92 L185.15,180.97 L179.67,177.81 C176.001113,177.530024 172.327544,178.288997 169.07,180 Z" id="Shape" fill="#FFFFFF" fill-rule="nonzero"></path>
            <path d="M165.07,169.35 C162.847452,169.344182 160.626632,169.474426 158.42,169.74 C157.21,170.3 156.04,170.89 154.91,171.54 C139.69,180.33 138.57,194.18 151.55,203.72 C163.16,206.9 177.46,205.72 187.07,200.19 C193.21,196.64 196.26,191.99 196.23,187.34 L165.07,169.35 Z" id="Shape" fill="#000000" fill-rule="nonzero" opacity="0.1"></path>
            <path d="M138.09,292.28 C136.22,288.35 132.61,284.63 127.26,281.54 C110.81,272.05 84.14,272.05 67.7,281.54 C62.34,284.63 58.7,288.35 56.86,292.28 L55.36,292.28 L55.36,298.73 C55.36,304.96 59.47,311.18 67.7,315.93 C84.14,325.42 110.81,325.42 127.25,315.93 C135.48,311.18 139.59,304.93 139.59,298.73 L139.59,292.28 L138.09,292.28 Z" id="Shape" fill="#994848" fill-rule="nonzero"></path>
            <path d="M138.09,292.28 C136.22,288.35 132.61,284.63 127.26,281.54 L127.26,315.93 C135.49,311.18 139.6,304.93 139.6,298.73 L139.6,292.28 L138.09,292.28 Z" id="Shape" fill="#663131" fill-rule="nonzero"></path>
            <path d="M127.25,275.09 C110.81,265.6 84.14,265.6 67.7,275.09 C51.26,284.58 51.25,299.98 67.7,309.48 C84.15,318.98 110.81,318.97 127.26,309.48 C143.71,299.99 143.7,284.59 127.25,275.09 Z" id="Shape" fill="#F27272" fill-rule="nonzero"></path>
            <ellipse id="Oval" fill="#D25F5F" fill-rule="nonzero" cx="97.48" cy="292.28" rx="31.3" ry="18.07"></ellipse>
            <path d="M104.83,286.32 L97.24,286.32 L96.79,286.06 C93.4926648,284.390275 89.5973352,284.390275 86.3,286.06 C83.41,287.73 83.41,290.45 86.3,292.12 L90.92,294.79 C91.2564868,294.964815 91.630834,295.054109 92.01,295.05 L99.57,295.05 L101.63,296.24 C102.314352,296.590707 103.125648,296.590707 103.81,296.24 C104.077783,296.149137 104.257927,295.897779 104.257927,295.615 C104.257927,295.332221 104.077783,295.080863 103.81,294.99 L101.29,293.53 C100.957089,293.355226 100.585977,293.265884 100.21,293.27 L92.65,293.27 L88.48,290.86 C86.79,289.86 86.79,288.3 88.48,287.32 C90.4093929,286.340163 92.6906071,286.340163 94.62,287.32 L95.43,287.79 C95.5358778,287.86049 95.650081,287.917592 95.77,287.96 L95.99,288.02 C96.2354138,288.078792 96.4879452,288.102362 96.74,288.09 L104.18,288.09 L109.92,291.41 C113.92,293.69 113.92,297.41 109.92,299.7 C105.58086,301.890648 100.481166,301.989993 96.06,299.97 C95.3602678,299.652135 94.5511499,299.685539 93.88,300.06 C93.32,300.43 93.39,300.99 94.03,301.31 C99.25,303.95 107.19,303.79 112.1,300.96 C117.26,297.96 117.26,293.13 112.1,290.15 L105.9,286.57 C105.570221,286.397503 105.202071,286.311487 104.83,286.32 Z" id="Shape" fill="#FFFFFF" fill-rule="nonzero"></path>
            <path d="M96.67,298.1 L97.53,298.6 C100.827335,300.269725 104.722665,300.269725 108.02,298.6 C110.91,296.93 110.91,294.21 108.02,292.54 L103.47,289.92 C103.135199,289.740702 102.759685,289.65113 102.38,289.66 L94.67,289.66 L92.6,288.46 C91.9156483,288.109293 91.1043517,288.109293 90.42,288.46 C90.154739,288.556014 89.9780351,288.807897 89.9780351,289.09 C89.9780351,289.372103 90.154739,289.623986 90.42,289.72 L92.94,291.18 C93.2800529,291.354869 93.6576411,291.444118 94.04,291.44 L101.75,291.44 L105.84,293.8 C107.53,294.8 107.53,296.37 105.84,297.34 C103.914098,298.319696 101.635902,298.319696 99.71,297.34 L98.71,296.76 C98.335456,296.463656 97.8672283,296.311127 97.39,296.33 L89.73,296.33 L84.12,293.09 C80.12,290.8 80.12,287.09 84.12,284.79 C87.76,282.69 93.74,282.51 97.73,284.4 L97.85,284.45 C98.5475695,284.766307 99.3544779,284.729122 100.02,284.35 C100.57,283.98 100.49,283.42 99.84,283.1 L99.68,283.02 C94.39,280.53 86.77,280.75 81.94,283.53 C76.78,286.53 76.78,291.36 81.94,294.34 L88,297.84 C88.3351225,298.018449 88.7104114,298.107967 89.09,298.1 L96.67,298.1 Z" id="Shape" fill="#FFFFFF" fill-rule="nonzero"></path>
            <path d="M171.47,174.55 C169.6,170.61 165.99,166.89 160.63,163.8 C144.19,154.31 117.52,154.31 101.07,163.8 C95.72,166.9 92.07,170.61 90.24,174.55 L88.74,174.55 L88.74,181 C88.74,187.22 92.85,193.44 101.07,198.19 C117.52,207.69 144.19,207.69 160.63,198.19 C168.86,193.44 172.97,187.19 172.97,181 L172.97,174.55 L171.47,174.55 Z" id="Shape" fill="#994848" fill-rule="nonzero"></path>
            <path d="M171.47,174.55 C169.6,170.61 165.99,166.89 160.63,163.8 L160.63,198.19 C168.86,193.44 172.97,187.19 172.97,181 L172.97,174.55 L171.47,174.55 Z" id="Shape" fill="#663131" fill-rule="nonzero"></path>
            <path d="M160.63,157.35 C144.19,147.86 117.52,147.86 101.07,157.35 C84.62,166.84 84.63,182.24 101.07,191.74 C117.51,201.24 144.19,201.24 160.63,191.74 C177.07,182.24 177.08,166.85 160.63,157.35 Z" id="Shape" fill="#F27272" fill-rule="nonzero"></path>
            <ellipse id="Oval" fill="#D25F5F" fill-rule="nonzero" cx="130.85" cy="174.55" rx="31.3" ry="18.07"></ellipse>
            <path d="M138.21,168.58 L130.62,168.58 L130.17,168.32 C126.872665,166.650275 122.977335,166.650275 119.68,168.32 C116.79,169.99 116.79,172.71 119.68,174.38 L124.3,177.05 C124.631508,177.228474 125.003588,177.318048 125.38,177.31 L132.94,177.31 L135.01,178.51 C135.697,178.849554 136.503,178.849554 137.19,178.51 C137.455261,178.413986 137.631965,178.162103 137.631965,177.88 C137.631965,177.597897 137.455261,177.346014 137.19,177.25 L134.67,175.8 C134.334406,175.621713 133.960011,175.528973 133.58,175.53 L126,175.53 L121.84,173.12 C120.15,172.12 120.15,170.56 121.84,169.58 C123.768205,168.609958 126.041795,168.609958 127.97,169.58 L128.79,170.05 C128.893581,170.124371 129.008354,170.181758 129.13,170.22 C129.198607,170.244588 129.268759,170.264632 129.34,170.28 C129.587092,170.348685 129.844519,170.372395 130.1,170.35 L137.53,170.35 L143.28,173.67 C147.28,175.96 147.28,179.67 143.28,181.96 C138.938117,184.153846 133.833974,184.253206 129.41,182.23 C128.713695,181.912273 127.907604,181.945705 127.24,182.32 C126.68,182.69 126.75,183.25 127.39,183.57 C132.61,186.21 140.55,186.06 145.46,183.22 C150.62,180.22 150.62,175.39 145.46,172.41 L139.26,168.83 C138.934653,168.66492 138.574831,168.579248 138.21,168.58 Z" id="Shape" fill="#FFFFFF" fill-rule="nonzero"></path>
            <path d="M130,180.37 L130.87,180.86 C134.167335,182.529725 138.062665,182.529725 141.36,180.86 C144.25,179.19 144.25,176.48 141.36,174.81 L136.81,172.18 C136.475199,172.000702 136.099685,171.91113 135.72,171.92 L128.01,171.92 L125.93,170.72 C125.246467,170.380656 124.443533,170.380656 123.76,170.72 C123.484396,170.80606 123.296723,171.061272 123.296723,171.35 C123.296723,171.638728 123.484396,171.89394 123.76,171.98 L126.28,173.44 C126.616487,173.614815 126.990834,173.704109 127.37,173.7 L135.08,173.7 L139.18,176.06 C140.87,177.06 140.87,178.63 139.18,179.61 C137.248315,180.580213 134.971685,180.580213 133.04,179.61 L132.04,179.02 C131.671634,178.719416 131.204845,178.566195 130.73,178.59 L123.07,178.59 L117.46,175.35 C113.46,173.06 113.46,169.35 117.46,167.05 C121.1,164.95 127.08,164.78 131.07,166.66 L131.19,166.72 C131.889463,167.031608 132.695633,166.990743 133.36,166.61 C133.91,166.24 133.83,165.68 133.18,165.36 L133.02,165.28 C127.73,162.79 120.11,163.01 115.28,165.8 C110.12,168.8 110.12,173.63 115.28,176.61 L121.34,180.11 C121.676487,180.284815 122.050834,180.374109 122.43,180.37 L130,180.37 Z" id="Shape" fill="#FFFFFF" fill-rule="nonzero"></path>
            <path d="M287.85,245.4 L283.85,243.22 C283.28,242.91 283.26,241.86 283.85,240.88 C284.44,239.9 285.32,239.35 285.85,239.66 L287.59,240.6 L293.81,228.05 C294.31,227.05 295.22,226.4 295.81,226.62 C296.4,226.84 296.54,227.83 296.04,228.84 L287.85,245.4 Z" id="Shape" fill="#F6DDB7" fill-rule="nonzero"></path>
            <path d="M289.88,251.85 C282.58,256.06 276.64,252.63 276.64,244.2 C276.64,235.77 282.58,225.48 289.88,221.27 C297.18,217.06 303.12,220.48 303.12,228.91 C303.12,237.34 297.18,247.63 289.88,251.85 Z M289.88,224.61 C284.17,227.9 279.53,235.94 279.53,242.53 C279.53,249.12 284.17,251.79 289.88,248.53 C295.59,245.27 300.22,237.2 300.22,230.61 C300.22,224.02 295.58,221.32 289.88,224.61 Z" id="Shape" fill="#EDB155" fill-rule="nonzero"></path>
            <polygon id="Shape" fill="#000000" fill-rule="nonzero" opacity="0.1" points="417.65 257.25 385.39 275.88 353.13 257.25 385.39 238.63"></polygon>
            <polygon id="Shape" fill="#9D8CAC" fill-rule="nonzero" points="377.24 215.01 353.19 228.74 377.25 242.46 401.14 228.73"></polygon>
            <polygon id="Shape" fill="#78618B" fill-rule="nonzero" points="353.19 228.58 377.09 242.46 377.1 270.98 353.19 257.26"></polygon>
            <polygon id="Shape" fill="#3E1C5E" fill-rule="nonzero" points="401.14 228.58 377.09 242.46 377.1 270.98 401.15 257.1"></polygon>
            <polygon id="Shape" fill="#000000" fill-rule="nonzero" opacity="0.1" points="437.66 279.48 405.39 298.1 373.13 279.48 405.4 260.85"></polygon>
            <polygon id="Shape" fill="#9D8CAC" fill-rule="nonzero" points="397.25 237.23 373.2 250.96 397.25 264.68 421.15 250.95"></polygon>
            <polygon id="Shape" fill="#78618B" fill-rule="nonzero" points="373.2 250.8 397.1 264.68 397.1 293.2 373.2 279.48"></polygon>
            <polygon id="Shape" fill="#3E1C5E" fill-rule="nonzero" points="421.15 250.8 397.1 264.68 397.1 293.2 421.15 279.32"></polygon>
            <polygon id="Shape" fill="#000000" fill-rule="nonzero" opacity="0.1" points="392.49 290.48 360.23 309.1 327.97 290.48 360.23 271.85"></polygon>
            <polygon id="Shape" fill="#9D8CAC" fill-rule="nonzero" points="352.08 248.23 328.03 261.96 352.09 275.68 375.99 261.95"></polygon>
            <polygon id="Shape" fill="#78618B" fill-rule="nonzero" points="328.03 261.8 351.93 275.68 351.94 304.2 328.04 290.48"></polygon>
            <polygon id="Shape" fill="#3E1C5E" fill-rule="nonzero" points="375.99 261.8 351.93 275.68 351.94 304.2 375.99 290.32"></polygon>
            <polygon id="Shape" fill="#000000" fill-rule="nonzero" opacity="0.1" points="406.66 247.48 374.39 266.1 342.13 247.48 374.4 228.85"></polygon>
            <polygon id="Shape" fill="#9D8CAC" fill-rule="nonzero" points="366.25 205.23 342.2 218.96 366.25 232.68 390.15 218.95"></polygon>
            <polygon id="Shape" fill="#78618B" fill-rule="nonzero" points="342.2 218.8 366.1 232.68 366.1 261.2 342.2 247.48"></polygon>
            <polygon id="Shape" fill="#3E1C5E" fill-rule="nonzero" points="390.15 218.8 366.1 232.68 366.1 261.2 390.15 247.32"></polygon>
            <path d="M32.3,212.87 C41.81,218.36 57.3,218.33 66.85,212.81 C76.4,207.29 76.47,198.35 66.96,192.86 C58.19,187.8 44.38,187.43 34.77,191.72 L27.19,187.35 C25.8457105,186.664362 24.2542895,186.664362 22.91,187.35 C22.3765131,187.525349 22.0159249,188.023435 22.0159249,188.585 C22.0159249,189.146565 22.3765131,189.644651 22.91,189.82 L30.47,194.18 C22.88,199.74 23.48,207.78 32.3,212.87 Z" id="Shape" fill="#000000" fill-rule="nonzero" opacity="0.1"></path>
            <circle id="Oval" fill="#D27576" fill-rule="nonzero" cx="23.42" cy="187.34" r="2.48"></circle>
            <polygon id="Rectangle-path" fill="#D27576" fill-rule="nonzero" transform="translate(23.410344, 177.576359) rotate(179.990000) translate(-23.410344, -177.576359) " points="20.9353436 167.806359 25.8853436 167.806359 25.8853436 187.346359 20.9353436 187.346359"></polygon>
            <path d="M23.33,138.68 C34.375695,138.68 43.33,147.634305 43.33,158.68 C43.33,169.725695 34.375695,178.68 23.33,178.68 C1.69,156.21 23.33,138.68 23.33,138.68 Z" id="Shape" fill="#22B26D" fill-rule="nonzero"></path>
            <path d="M23.33,138.68 C23.33,138.68 1.69,156.21 23.33,178.68 C12.284305,178.68 3.33,169.725695 3.33,158.68 C3.33,147.634305 12.284305,138.68 23.33,138.68 Z" id="Shape" fill="#5CB853" fill-rule="nonzero"></path>
            <path d="M457,209.3 C460,207.59 440,181.58 423.56,187.38 L419.15,184.83 C417.805711,184.144362 416.214289,184.144362 414.87,184.83 C414.336513,185.005349 413.975925,185.503435 413.975925,186.065 C413.975925,186.626565 414.336513,187.124651 414.87,187.3 L419.23,189.82 C408.41,199.36 454,211 457,209.3 Z" id="Shape" fill="#000000" fill-rule="nonzero" opacity="0.1"></path>
            <circle id="Oval" fill="#D27576" fill-rule="nonzero" cx="415.63" cy="184.87" r="2.48"></circle>
            <polygon id="Rectangle-path" fill="#D27576" fill-rule="nonzero" transform="translate(415.610781, 175.124812) rotate(179.990000) translate(-415.610781, -175.124812) " points="413.135781 165.354812 418.085781 165.354812 418.085781 184.894812 413.135781 184.894812"></polygon>
            <path d="M415.48,138.26 C419.08,138.26 434.93,180.03 415.48,180.04 C415.48,180 407.73,168.91 415.48,138.26 Z" id="Shape" fill="#22B26D" fill-rule="nonzero"></path>
            <path d="M415.48,138.26 C407.73,168.91 415.48,180.04 415.48,180.04 C396,180 411.87,138.26 415.48,138.26 Z" id="Shape" fill="#5CB853" fill-rule="nonzero"></path>
            <path d="M363.68,361.94 C366.15,362.63 368.1,361.28 368.1,358.76 C367.906229,355.979483 366.211709,353.525879 363.68,352.36 L350.07,347.36 C348.731397,346.722601 347.137901,346.981544 346.07,348.01 L342.34,346.65 C340.82,346.1 339.6,346.88 339.6,348.39 C339.711408,350.06465 340.778404,351.524955 342.34,352.14 L346.07,353.49 C346.945151,355.103991 348.361592,356.357542 350.07,357.03 L363.68,362.03 L363.68,361.94 Z" id="Shape" fill="#000000" fill-rule="nonzero" opacity="0.1"></path>
            <path d="M344.28,327.36 C344.158806,325.947946 342.977246,324.863452 341.56,324.863452 C340.142754,324.863452 338.961194,325.947946 338.84,327.36 L338.84,349 C338.84,350.51326 340.06674,351.74 341.58,351.74 C343.09326,351.74 344.32,350.51326 344.32,349 L344.32,327.36 L344.28,327.36 Z" id="Shape" fill="#B86878" fill-rule="nonzero"></path>
            <circle id="Oval" fill="#D06061" fill-rule="nonzero" cx="341.56" cy="315.54" r="4.83"></circle>
            <path d="M346.35,327.68 C346.123468,325.203632 344.046707,323.308178 341.56,323.308178 C339.073293,323.308178 336.996532,325.203632 336.77,327.68 L336.77,341.29 C336.77,343.957535 338.932465,346.12 341.6,346.12 C344.267535,346.12 346.43,343.957535 346.43,341.29 L346.43,327.68 L346.35,327.68 Z" id="Shape" fill="#C3B9CC" fill-rule="nonzero"></path>
            <path d="M27.68,245.94 C30.15,246.63 32.1,245.28 32.1,242.76 C31.9062294,239.979483 30.211709,237.525879 27.68,236.36 L14.07,231.36 C12.7313975,230.722601 11.1379012,230.981544 10.07,232.01 L6.34,230.65 C4.82,230.1 3.6,230.88 3.6,232.39 C3.71140775,234.06465 4.77840371,235.524955 6.34,236.14 L10.07,237.49 C10.945151,239.103991 12.3615923,240.357542 14.07,241.03 L27.68,246.03 L27.68,245.94 Z" id="Shape" fill="#000000" fill-rule="nonzero" opacity="0.1"></path>
            <path d="M8.28,211.36 C8.15880611,209.947946 6.97724556,208.863452 5.56,208.863452 C4.14275444,208.863452 2.96119389,209.947946 2.84,211.36 L2.84,233 C2.84000005,234.51326 4.06673982,235.74 5.58,235.74 C7.09326018,235.74 8.31999995,234.51326 8.32,233 L8.32,211.36 L8.28,211.36 Z" id="Shape" fill="#B86878" fill-rule="nonzero"></path>
            <circle id="Oval" fill="#D06061" fill-rule="nonzero" cx="5.56" cy="199.54" r="4.83"></circle>
            <path d="M10.35,211.68 C10.1234677,209.203632 8.04670733,207.308178 5.56,207.308178 C3.07329267,207.308178 0.99653234,209.203632 0.77,211.68 L0.77,225.29 C0.770000056,227.957535 2.9324647,230.12 5.6,230.12 C8.2675353,230.12 10.4299999,227.957535 10.43,225.29 L10.43,211.68 L10.35,211.68 Z" id="Shape" fill="#C3B9CC" fill-rule="nonzero"></path>
            <path d="M478.68,279.94 C481.15,280.63 483.1,279.28 483.1,276.76 C482.906229,273.979483 481.211709,271.525879 478.68,270.36 L465.07,265.36 C463.731397,264.722601 462.137901,264.981544 461.07,266.01 L457.34,264.65 C455.82,264.1 454.6,264.88 454.6,266.39 C454.711408,268.06465 455.778404,269.524955 457.34,270.14 L461.07,271.49 C461.945151,273.103991 463.361592,274.357542 465.07,275.03 L478.68,280.03 L478.68,279.94 Z" id="Shape" fill="#000000" fill-rule="nonzero" opacity="0.1"></path>
            <path d="M459.28,245.36 C459.158806,243.947946 457.977246,242.863452 456.56,242.863452 C455.142754,242.863452 453.961194,243.947946 453.84,245.36 L453.84,267 C453.84,268.51326 455.06674,269.74 456.58,269.74 C458.09326,269.74 459.32,268.51326 459.32,267 L459.32,245.36 L459.28,245.36 Z" id="Shape" fill="#B86878" fill-rule="nonzero"></path>
            <circle id="Oval" fill="#D06061" fill-rule="nonzero" cx="456.56" cy="233.54" r="4.83"></circle>
            <path d="M461.35,245.68 C461.123468,243.203632 459.046707,241.308178 456.56,241.308178 C454.073293,241.308178 451.996532,243.203632 451.77,245.68 L451.77,259.29 C451.77,261.957535 453.932465,264.12 456.6,264.12 C459.267535,264.12 461.43,261.957535 461.43,259.29 L461.43,245.68 L461.35,245.68 Z" id="Shape" fill="#C3B9CC" fill-rule="nonzero"></path>
        </g>
    </g>
</svg>