<?xml version="1.0" encoding="UTF-8"?>
<svg width="449px" height="354px" viewBox="0 0 449 354" version="1.1" xmlns="http://www.w3.org/2000/svg" xmlns:xlink="http://www.w3.org/1999/xlink">
    <!-- Generator: Sketch 52.6 (67491) - http://www.bohemiancoding.com/sketch -->
    <title>1-10</title>
    <desc>Created with Sketch.</desc>
    <g id="Assets" stroke="none" stroke-width="1" fill="none" fill-rule="evenodd">
        <g id="1-10">
            <polygon id="Shape" fill="#000000" fill-rule="nonzero" opacity="0.1" points="281.04 215.07 227.44 246.01 173.85 215.07 227.44 184.13"></polygon>
            <polygon id="Shape" fill="#000000" fill-rule="nonzero" opacity="0.1" points="180.83 253.78 167.23 261.64 153.63 253.78 167.23 245.93"></polygon>
            <polygon id="Shape" fill="#000000" fill-rule="nonzero" opacity="0.1" points="136.5 216.37 122.9 224.22 109.29 216.37 122.9 208.51"></polygon>
            <polygon id="Shape" fill="#000000" fill-rule="nonzero" opacity="0.1" points="295.49 182.91 281.89 190.76 268.29 182.91 281.89 175.06"></polygon>
            <polygon id="Shape" fill="#000000" fill-rule="nonzero" opacity="0.1" points="334.01 216.3 320.41 224.16 306.81 216.3 320.41 208.45"></polygon>
            <path d="M386.48,182.73 C386.969381,182.931958 387.52839,182.866571 387.957952,182.557124 C388.387513,182.247677 388.626574,181.73815 388.59,181.21 C388.480729,179.902086 387.673958,178.755018 386.48,178.21 L380,175.79 C379.367018,175.488943 378.613644,175.612512 378.11,176.1 L376.33,175.45 C376.048285,175.296098 375.705116,175.307808 375.434547,175.480556 C375.163978,175.653304 375.008942,175.959678 375.03,176.28 C375.082767,177.074764 375.588983,177.76789 376.33,178.06 L378.11,178.71 C378.524498,179.473516 379.193154,180.067877 380,180.39 L386.48,182.75 L386.48,182.73 Z" id="Shape" fill="#000000" fill-rule="nonzero" opacity="0.1"></path>
            <path d="M377.25,166.27 C377.190959,165.598768 376.628823,165.083908 375.955,165.083908 C375.281177,165.083908 374.719041,165.598768 374.66,166.27 L374.66,176.57 C374.719283,177.246583 375.285825,177.765654 375.965,177.765654 C376.644175,177.765654 377.210717,177.246583 377.27,176.57 L377.27,166.27 L377.25,166.27 Z" id="Shape" fill="#B86878" fill-rule="nonzero"></path>
            <circle id="Oval" fill="#D06061" fill-rule="nonzero" cx="375.95" cy="160.64" r="2.3"></circle>
            <path d="M378.23,166.42 C378.119666,165.243249 377.131912,164.343776 375.95,164.343776 C374.768088,164.343776 373.780334,165.243249 373.67,166.42 L373.67,172.9 C373.67,174.170255 374.699745,175.2 375.97,175.2 C377.240255,175.2 378.27,174.170255 378.27,172.9 L378.27,166.42 L378.23,166.42 Z" id="Shape" fill="#C3B9CC" fill-rule="nonzero"></path>
            <path d="M90.55,263.86 C95.08,266.47 102.44,266.46 107,263.86 C111.56,261.26 111.58,256.98 107.05,254.36 C102.88,251.95 96.3,251.78 91.73,253.82 L88.12,251.74 C87.4896126,251.428962 86.7503874,251.428962 86.12,251.74 C85.56,252.07 85.55,252.59 86.12,252.92 L89.73,255 C86.07,257.61 86.35,261.44 90.55,263.86 Z" id="Shape" fill="#000000" fill-rule="nonzero" opacity="0.1"></path>
            <circle id="Oval" fill="#D27576" fill-rule="nonzero" cx="86.32" cy="251.71" r="1.18"></circle>
            <polygon id="Rectangle-path" fill="#D27576" fill-rule="nonzero" transform="translate(86.312869, 247.070480) rotate(179.990000) translate(-86.312869, -247.070480) " points="85.1328692 242.42048 87.4928692 242.42048 87.4928692 251.72048 85.1328692 251.72048"></polygon>
            <path d="M86.28,228.54 C89.854256,228.255723 93.2855811,230.001686 95.1598658,233.058347 C97.0341504,236.115008 97.0341504,239.964992 95.1598658,243.021653 C93.2855811,246.078314 89.854256,247.824277 86.28,247.54 C76,236.88 86.28,228.54 86.28,228.54 Z" id="Shape" fill="#22B26D" fill-rule="nonzero"></path>
            <path d="M86.28,228.54 C86.28,228.54 75.98,236.88 86.28,247.54 C82.705744,247.824277 79.2744189,246.078314 77.4001342,243.021653 C75.5258496,239.964992 75.5258496,236.115008 77.4001342,233.058347 C79.2744189,230.001686 82.705744,228.255723 86.28,228.54 Z" id="Shape" fill="#5CB853" fill-rule="nonzero"></path>
            <path d="M297.81,205.92 L250.45,205.92 C249.715182,205.799605 249.175764,205.164616 249.175764,204.42 C249.175764,203.675384 249.715182,203.040395 250.45,202.92 L297.81,202.92 C298.544818,203.040395 299.084236,203.675384 299.084236,204.42 C299.084236,205.164616 298.544818,205.799605 297.81,205.92 Z" id="Shape" fill="#CA8C98" fill-rule="nonzero"></path>
            <path d="M253,212 L250.48,212 C249.745182,211.879605 249.205764,211.244616 249.205764,210.5 C249.205764,209.755384 249.745182,209.120395 250.48,209 L253,209 C253.594356,208.902619 254.190152,209.165356 254.519073,209.669889 C254.847994,210.174422 254.847994,210.825578 254.519073,211.330111 C254.190152,211.834644 253.594356,212.097381 253,212 Z" id="Shape" fill="#EADBEC" fill-rule="nonzero"></path>
            <path d="M289.34,212 L259.71,212 C259.115644,212.097381 258.519848,211.834644 258.190927,211.330111 C257.862006,210.825578 257.862006,210.174422 258.190927,209.669889 C258.519848,209.165356 259.115644,208.902619 259.71,209 L289.34,209 C289.934356,208.902619 290.530152,209.165356 290.859073,209.669889 C291.187994,210.174422 291.187994,210.825578 290.859073,211.330111 C290.530152,211.834644 289.934356,212.097381 289.34,212 Z" id="Shape" fill="#CA8C98" fill-rule="nonzero"></path>
            <path d="M293.9,218.39 L250.64,218.39 C250.045644,218.487381 249.449848,218.224644 249.120927,217.720111 C248.792006,217.215578 248.792006,216.564422 249.120927,216.059889 C249.449848,215.555356 250.045644,215.292619 250.64,215.39 L293.9,215.39 C294.494356,215.292619 295.090152,215.555356 295.419073,216.059889 C295.747994,216.564422 295.747994,217.215578 295.419073,217.720111 C295.090152,218.224644 294.494356,218.487381 293.9,218.39 Z" id="Shape" fill="#CA8C98" fill-rule="nonzero"></path>
            <path d="M375.57,218.38 L351.19,218.38 C350.595644,218.477381 349.999848,218.214644 349.670927,217.710111 C349.342006,217.205578 349.342006,216.554422 349.670927,216.049889 C349.999848,215.545356 350.595644,215.282619 351.19,215.38 L375.57,215.38 C376.304818,215.500395 376.844236,216.135384 376.844236,216.88 C376.844236,217.624616 376.304818,218.259605 375.57,218.38 Z" id="Shape" fill="#CA8C98" fill-rule="nonzero"></path>
            <path d="M385.49,212.3 L336.88,212.3 C336.285644,212.397381 335.689848,212.134644 335.360927,211.630111 C335.032006,211.125578 335.032006,210.474422 335.360927,209.969889 C335.689848,209.465356 336.285644,209.202619 336.88,209.3 L385.49,209.3 C386.084356,209.202619 386.680152,209.465356 387.009073,209.969889 C387.337994,210.474422 387.337994,211.125578 387.009073,211.630111 C386.680152,212.134644 386.084356,212.397381 385.49,212.3 Z" id="Shape" fill="#CA8C98" fill-rule="nonzero"></path>
            <path d="M351.4,205.91 L339.91,205.91 C339.175182,205.789605 338.635764,205.154616 338.635764,204.41 C338.635764,203.665384 339.175182,203.030395 339.91,202.91 L351.4,202.91 C351.994356,202.812619 352.590152,203.075356 352.919073,203.579889 C353.247994,204.084422 353.247994,204.735578 352.919073,205.240111 C352.590152,205.744644 351.994356,206.007381 351.4,205.91 Z" id="Shape" fill="#CA8C98" fill-rule="nonzero"></path>
            <path d="M368,205.91 L359.7,205.91 C358.965182,205.789605 358.425764,205.154616 358.425764,204.41 C358.425764,203.665384 358.965182,203.030395 359.7,202.91 L368,202.91 C368.594356,202.812619 369.190152,203.075356 369.519073,203.579889 C369.847994,204.084422 369.847994,204.735578 369.519073,205.240111 C369.190152,205.744644 368.594356,206.007381 368,205.91 Z" id="Shape" fill="#CA8C98" fill-rule="nonzero"></path>
            <polygon id="Shape" fill="#CFBDCC" fill-rule="nonzero" points="316.97 198.53 306.83 204.32 316.97 210.1 327.05 204.32"></polygon>
            <polygon id="Shape" fill="#956C89" fill-rule="nonzero" points="306.83 204.26 316.91 210.1 316.91 222.13 306.83 216.35"></polygon>
            <polygon id="Shape" fill="#6C2B5B" fill-rule="nonzero" points="327.05 204.25 316.91 210.1 316.91 222.13 327.05 216.28"></polygon>
            <path d="M100.59,205.94 L53.23,205.94 C52.6356435,206.037381 52.0398479,205.774644 51.7109267,205.270111 C51.3820056,204.765578 51.3820056,204.114422 51.7109267,203.609889 C52.0398479,203.105356 52.6356435,202.842619 53.23,202.94 L100.59,202.94 C101.184356,202.842619 101.780152,203.105356 102.109073,203.609889 C102.437994,204.114422 102.437994,204.765578 102.109073,205.270111 C101.780152,205.774644 101.184356,206.037381 100.59,205.94 Z" id="Shape" fill="#CA8C98" fill-rule="nonzero"></path>
            <path d="M55.82,212 L53.3,212 C52.7056435,212.097381 52.1098479,211.834644 51.7809267,211.330111 C51.4520056,210.825578 51.4520056,210.174422 51.7809267,209.669889 C52.1098479,209.165356 52.7056435,208.902619 53.3,209 L55.82,209 C56.5548183,209.120395 57.0942359,209.755384 57.0942359,210.5 C57.0942359,211.244616 56.5548183,211.879605 55.82,212 Z" id="Shape" fill="#EADBEC" fill-rule="nonzero"></path>
            <path d="M92.12,212 L62.48,212 C61.7451817,211.879605 61.2057641,211.244616 61.2057641,210.5 C61.2057641,209.755384 61.7451817,209.120395 62.48,209 L92.12,209 C92.8548183,209.120395 93.3942359,209.755384 93.3942359,210.5 C93.3942359,211.244616 92.8548183,211.879605 92.12,212 Z" id="Shape" fill="#CA8C98" fill-rule="nonzero"></path>
            <path d="M96.68,218.41 L53.42,218.41 C52.6851817,218.289605 52.1457641,217.654616 52.1457641,216.91 C52.1457641,216.165384 52.6851817,215.530395 53.42,215.41 L96.68,215.41 C97.2743565,215.312619 97.8701521,215.575356 98.1990733,216.079889 C98.5279944,216.584422 98.5279944,217.235578 98.1990733,217.740111 C97.8701521,218.244644 97.2743565,218.507381 96.68,218.41 Z" id="Shape" fill="#CA8C98" fill-rule="nonzero"></path>
            <path d="M186.35,218.4 L154,218.4 C153.405644,218.497381 152.809848,218.234644 152.480927,217.730111 C152.152006,217.225578 152.152006,216.574422 152.480927,216.069889 C152.809848,215.565356 153.405644,215.302619 154,215.4 L186.38,215.4 C186.974356,215.302619 187.570152,215.565356 187.899073,216.069889 C188.227994,216.574422 188.227994,217.225578 187.899073,217.730111 C187.570152,218.234644 186.974356,218.497381 186.38,218.4 L186.35,218.4 Z" id="Shape" fill="#CA8C98" fill-rule="nonzero"></path>
            <path d="M201.53,212.33 L185.83,212.33 C185.235644,212.427381 184.639848,212.164644 184.310927,211.660111 C183.982006,211.155578 183.982006,210.504422 184.310927,209.999889 C184.639848,209.495356 185.235644,209.232619 185.83,209.33 L201.53,209.33 C202.124356,209.232619 202.720152,209.495356 203.049073,209.999889 C203.377994,210.504422 203.377994,211.155578 203.049073,211.660111 C202.720152,212.164644 202.124356,212.427381 201.53,212.33 Z" id="Shape" fill="#EADBEC" fill-rule="nonzero"></path>
            <path d="M176.88,212.33 L139.66,212.33 C139.065644,212.427381 138.469848,212.164644 138.140927,211.660111 C137.812006,211.155578 137.812006,210.504422 138.140927,209.999889 C138.469848,209.495356 139.065644,209.232619 139.66,209.33 L176.88,209.33 C177.614818,209.450395 178.154236,210.085384 178.154236,210.83 C178.154236,211.574616 177.614818,212.209605 176.88,212.33 Z" id="Shape" fill="#CA8C98" fill-rule="nonzero"></path>
            <path d="M154.18,205.93 L142.69,205.93 C142.095644,206.027381 141.499848,205.764644 141.170927,205.260111 C140.842006,204.755578 140.842006,204.104422 141.170927,203.599889 C141.499848,203.095356 142.095644,202.832619 142.69,202.93 L154.18,202.93 C154.914818,203.050395 155.454236,203.685384 155.454236,204.43 C155.454236,205.174616 154.914818,205.809605 154.18,205.93 Z" id="Shape" fill="#CA8C98" fill-rule="nonzero"></path>
            <path d="M201.28,205.93 L162.45,205.93 C161.855644,206.027381 161.259848,205.764644 160.930927,205.260111 C160.602006,204.755578 160.602006,204.104422 160.930927,203.599889 C161.259848,203.095356 161.855644,202.832619 162.45,202.93 L201.28,202.93 C202.014818,203.050395 202.554236,203.685384 202.554236,204.43 C202.554236,205.174616 202.014818,205.809605 201.28,205.93 Z" id="Shape" fill="#CA8C98" fill-rule="nonzero"></path>
            <polygon id="Shape" fill="#CFBDCC" fill-rule="nonzero" points="119.46 198.56 109.32 204.34 119.46 210.13 129.54 204.34"></polygon>
            <polygon id="Shape" fill="#956C89" fill-rule="nonzero" points="109.32 204.28 119.4 210.13 119.4 222.15 109.32 216.37"></polygon>
            <polygon id="Shape" fill="#6C2B5B" fill-rule="nonzero" points="129.54 204.28 119.4 210.13 119.4 222.15 129.54 216.3"></polygon>
            <path d="M257.75,178.8 C257.501233,178.364263 257.087795,178.046775 256.602616,177.918899 C256.117436,177.791022 255.601221,177.863485 255.17,178.12 L232,192 L236.56,193.52 L257.12,181.42 C257.975114,180.840424 258.248141,179.704977 257.75,178.8 Z" id="Shape" fill="#CA8C98" fill-rule="nonzero"></path>
            <path d="M263.93,183.53 C263.394175,182.649887 262.277374,182.320907 261.35,182.77 L239.63,195.08 L243.43,197.36 L263.25,186.11 C264.101007,185.548938 264.39391,184.437629 263.93,183.53 Z" id="Shape" fill="#CA8C98" fill-rule="nonzero"></path>
            <path d="M260.51,193.18 C259.974175,192.299887 258.857374,191.970907 257.93,192.42 L246.31,199 L250.26,201.2 L259.83,195.81 C260.279754,195.561482 260.607427,195.138844 260.736055,194.641356 C260.864683,194.143869 260.78293,193.615371 260.51,193.18 Z" id="Shape" fill="#CA8C98" fill-rule="nonzero"></path>
            <path d="M292.56,166.52 C293.095825,167.400113 294.212626,167.729093 295.14,167.28 L312,157.82 L308.73,155.16 L293.25,163.94 C292.810465,164.185083 292.488997,164.59781 292.358978,165.083971 C292.228958,165.570131 292.301484,166.088229 292.56,166.52 Z" id="Shape" fill="#CA8C98" fill-rule="nonzero"></path>
            <path d="M319.31,162.1 L306.07,169.43 C305.62898,169.675373 305.108143,169.734169 304.62352,169.59329 C304.138897,169.452412 303.730748,169.123561 303.49,168.68 C302.985476,167.754835 303.325562,166.595855 304.25,166.09 L316.43,159.44 L319.31,162.1 Z" id="Shape" fill="#CA8C98" fill-rule="nonzero"></path>
            <path d="M142.19,251.59 C141.943207,251.152156 141.529724,250.832826 141.043714,250.704731 C140.557705,250.576635 140.040542,250.650679 139.61,250.91 L126.23,258.85 L128.51,261.7 L141.59,254.25 C142.45713,253.658225 142.719124,252.496719 142.19,251.59 Z" id="Shape" fill="#CA8C98" fill-rule="nonzero"></path>
            <path d="M149.27,255.69 C148.734175,254.809887 147.617374,254.480907 146.69,254.93 L130.28,264.22 L132.21,267.22 L148.59,258.28 C149.446449,257.718169 149.739999,256.600087 149.27,255.69 Z" id="Shape" fill="#CA8C98" fill-rule="nonzero"></path>
            <path d="M145.85,265.33 C145.314175,264.449887 144.197374,264.120907 143.27,264.57 L124.87,274.83 L127.73,277.56 L145.17,267.91 C145.605737,267.661233 145.923225,267.247795 146.051101,266.762616 C146.178978,266.277436 146.106515,265.761221 145.85,265.33 Z" id="Shape" fill="#CA8C98" fill-rule="nonzero"></path>
            <path d="M179.41,237.16 C179.949694,238.041878 181.072588,238.367041 182,237.91 L200.3,227.58 L198.4,224.32 L180.1,234.57 C179.661902,234.819023 179.342117,235.233501 179.212391,235.720444 C179.082664,236.207387 179.153858,236.726025 179.41,237.16 Z" id="Shape" fill="#CA8C98" fill-rule="nonzero"></path>
            <path d="M239.1,214.52 L185.27,244.75 C184.347684,245.252579 183.192579,244.912316 182.69,243.99 C182.187421,243.067684 182.527684,241.912579 183.45,241.41 L236.21,211.86 L239.1,214.52 Z" id="Shape" fill="#CA8C98" fill-rule="nonzero"></path>
            <polygon id="Shape" fill="#D1D4F2" fill-rule="nonzero" points="219.73 183.16 173.34 209.82 219.74 236.47 266.06 209.81"></polygon>
            <polygon id="Shape" fill="#A5A8BB" fill-rule="nonzero" points="173.34 209.67 219.66 236.39 219.66 241.4 173.34 214.68"></polygon>
            <polygon id="Shape" fill="#8D919F" fill-rule="nonzero" points="265.91 209.66 219.66 236.39 219.66 241.4 265.91 214.67"></polygon>
            <polygon id="Shape" fill="#CFBDCC" fill-rule="nonzero" points="163.75 235.98 153.6 241.77 163.75 247.55 173.82 241.77"></polygon>
            <polygon id="Shape" fill="#956C89" fill-rule="nonzero" points="153.6 241.7 163.68 247.55 163.68 259.58 153.61 253.8"></polygon>
            <polygon id="Shape" fill="#6C2B5B" fill-rule="nonzero" points="173.82 241.7 163.68 247.55 163.68 259.58 173.82 253.73"></polygon>
            <polygon id="Shape" fill="#CFBDCC" fill-rule="nonzero" points="278.4 165.09 268.26 170.88 278.4 176.66 288.47 170.88"></polygon>
            <polygon id="Shape" fill="#956C89" fill-rule="nonzero" points="268.26 170.82 278.33 176.66 278.34 188.69 268.26 182.91"></polygon>
            <polygon id="Shape" fill="#6C2B5B" fill-rule="nonzero" points="288.47 170.81 278.33 176.66 278.34 188.69 288.48 182.84"></polygon>
            <polygon id="Shape" fill="#EDE3F0" fill-rule="nonzero" points="219.34 73 208.17 79.4 219.35 85.82 230.48 79.39"></polygon>
            <polygon id="Shape" fill="#78618B" fill-rule="nonzero" points="208.18 79.38 219.31 85.8 219.34 216.4 208.21 209.97"></polygon>
            <polygon id="Shape" fill="#3E1C5E" fill-rule="nonzero" points="230.45 79.37 219.31 85.81 219.33 216.4 230.48 209.96"></polygon>
            <path d="M264.71,56.7 C264.326383,55.908947 263.87468,55.1527634 263.36,54.44 C262.947202,53.8703636 262.492615,53.3322131 262,52.83 C261.581775,52.3986785 261.130394,52.0007939 260.65,51.64 C260.361791,51.4228547 260.061291,51.2225217 259.75,51.04 L259.29,50.78 L258,50 L256.65,49.22 L255.3,48.44 L253.95,47.66 L252.6,46.88 L251.24,46.1 L249.89,45.32 L248.54,44.53 L247.19,43.75 L245.79,43 L244.43,42.22 L243.08,41.44 L241.73,40.66 L240.38,39.88 L239,39.07 L237.65,38.29 L236.29,37.51 L235,36.73 L233.62,36 L232.27,35.22 L230.92,34.44 L229.56,33.66 L228.21,32.88 L226.86,32.1 L225.51,31.32 L224.16,30.54 L222.81,29.76 L221.45,28.98 L220.1,28.2 L218.75,27.42 L217.4,26.64 L216.05,25.86 L214.69,25 L213.34,24.22 L212,23.47 L210.65,22.69 L209.3,21.91 L207.95,21.13 L206.59,20.35 L205.24,19.57 L203.89,18.79 L202.53,18 L201.18,17.22 L199.83,16.44 L198.47,15.66 L197.12,14.88 L195.77,14.1 L194.42,13.31 L193.07,12.53 L191.71,11.75 L190.36,11 L189,10.2 L187.65,9.42 L186.3,8.64 L185,7.86 L183.64,7.08 L182.29,6.3 L180.94,5.52 L179.59,4.74 L178.2,4 L177.75,3.74 C177.457773,3.57425317 177.153597,3.43052157 176.84,3.31 C176.409266,3.12283633 175.95512,2.99500282 175.49,2.93 C175.040648,2.86546683 174.583347,2.88240393 174.14,2.98 C173.638417,3.09642612 173.174175,3.33714409 172.79,3.68 C171.833641,4.66481597 171.342577,6.01069573 171.44,7.38 L171.44,58.82 C171.44,58.82 171.44,58.87 171.44,58.89 C171.503933,60.6948845 171.964865,62.4634981 172.79,64.07 C173.473481,65.5187276 174.388849,66.8461801 175.5,68 C175.918225,68.4313215 176.369606,68.8292061 176.85,69.19 C177.15,69.41 177.45,69.61 177.75,69.79 L178.2,70.05 L179.56,70.83 L180.91,71.61 L182.26,72.39 L183.61,73.17 L184.96,73.95 L186.31,74.73 L187.67,75.51 L189.02,76.29 L190.37,77.07 L191.72,77.85 L193.07,78.63 L194.43,79.41 L195.78,80.19 L197.13,80.97 L198.48,81.75 L199.83,82.53 L201.18,83.31 L202.54,84.09 L203.89,84.88 L205.24,85.66 L206.59,86.44 L207.94,87.22 L209.3,88 L210.65,88.78 L212,89.56 L213.35,90.34 L214.7,91.12 L216.05,91.9 L217.41,92.68 L218.76,93.46 L220.11,94.24 L221.46,95.02 L222.81,95.8 L224.17,96.58 L225.52,97.36 L226.87,98.14 L228.22,98.92 L229.57,99.7 L230.92,100.48 L232.28,101.26 L233.63,102.04 L234.98,102.82 L236.33,103.6 L237.68,104.38 L239.04,105.16 L240.39,105.94 L241.74,106.72 L243.09,107.5 L244.44,108.28 L245.79,109.06 L247.15,109.84 L248.5,110.62 L249.85,111.4 L251.2,112.18 L252.55,112.96 L253.91,113.74 L255.26,114.52 L256.61,115.3 L258,116 L259.35,116.78 L259.8,117.04 C260.091904,117.199697 260.392356,117.343247 260.7,117.47 C261.134956,117.652992 261.592287,117.777413 262.06,117.84 C262.505881,117.926104 262.964119,117.926104 263.41,117.84 C263.912651,117.726484 264.377588,117.485405 264.76,117.14 C265.700913,116.173977 266.191037,114.856087 266.11,113.51 L266.11,62 C266.051768,60.1499556 265.572997,58.3374648 264.71,56.7 Z M227.24,38.76 C227.168452,38.9594712 227.035386,39.1310564 226.86,39.25 C226.453115,39.4993166 225.951879,39.5401581 225.51,39.36 C225.279598,39.2933844 225.058017,39.19938 224.85,39.08 L224.16,38.68 L222.81,37.9 L221.45,37.12 L220.1,36.34 L218.75,35.56 L217.4,34.78 L216.05,34 L214.7,33.21 L213.34,32.43 L213.07,32.28 C211.928324,31.5747555 211.079636,30.4810486 210.68,29.2 C210.675338,29.1400906 210.675338,29.0799094 210.68,29.02 C210.625632,28.8142086 210.595428,28.6027829 210.59,28.39 C210.591426,28.2031197 210.621786,28.0175876 210.68,27.84 C210.838623,27.2987458 211.372071,26.9573393 211.93,27.04 L212.03,27.04 C212.411868,27.0928467 212.779175,27.2220844 213.11,27.42 L213.38,27.58 L214.74,28.36 L216.09,29.14 L217.44,29.92 L218.79,30.7 L220.14,31.48 L221.49,32.26 L222.85,33.04 L224.2,33.82 L224.89,34.22 C225.124854,34.3585101 225.345868,34.5192474 225.55,34.7 C225.735407,34.8536366 225.909213,35.0207579 226.07,35.2 C226.39382,35.550654 226.672639,35.9403285 226.9,36.36 C227.208651,36.8900332 227.383686,37.487213 227.41,38.1 C227.399882,38.3294334 227.34198,38.5542282 227.24,38.76 Z" id="Shape" fill="#FFFFFF" fill-rule="nonzero"></path>
            <path d="M264.71,56.7 C264.326383,55.908947 263.87468,55.1527634 263.36,54.44 C262.947202,53.8703636 262.492615,53.3322131 262,52.83 C261.581775,52.3986785 261.130394,52.0007939 260.65,51.64 C260.361791,51.4228547 260.061291,51.2225217 259.75,51.04 L259.29,50.78 L258,50 L256.65,49.22 L255.3,48.44 L253.95,47.66 L252.6,46.88 L251.24,46.1 L249.89,45.32 L248.54,44.53 L247.19,43.75 L245.79,43 L244.43,42.22 L243.08,41.44 L241.73,40.66 L240.38,39.88 L239,39.07 L237.65,38.29 L236.29,37.51 L235,36.73 L233.62,36 L232.27,35.22 L230.92,34.44 L229.56,33.66 L228.21,32.88 L226.86,32.1 L225.51,31.32 L224.16,30.54 L222.81,29.76 L221.45,28.98 L220.1,28.2 L218.75,27.42 L217.4,26.64 L216.05,25.86 L214.69,25 L213.34,24.22 L212,23.47 L210.65,22.69 L209.3,21.91 L207.95,21.13 L206.59,20.35 L205.24,19.57 L203.89,18.79 L202.53,18 L201.18,17.22 L199.83,16.44 L198.47,15.66 L197.12,14.88 L195.77,14.1 L194.42,13.31 L193.07,12.53 L191.71,11.75 L190.36,11 L189,10.2 L187.65,9.42 L186.3,8.64 L185,7.86 L183.64,7.08 L182.29,6.3 L180.94,5.52 L179.59,4.74 L178.2,4 L177.75,3.74 C177.457773,3.57425317 177.153597,3.43052157 176.84,3.31 C176.409266,3.12283633 175.95512,2.99500282 175.49,2.93 C175.040648,2.86546683 174.583347,2.88240393 174.14,2.98 C173.638417,3.09642612 173.174175,3.33714409 172.79,3.68 C171.833641,4.66481597 171.342577,6.01069573 171.44,7.38 L171.44,58.82 C171.44,58.82 171.44,58.87 171.44,58.89 C171.503933,60.6948845 171.964865,62.4634981 172.79,64.07 C173.473481,65.5187276 174.388849,66.8461801 175.5,68 C175.918225,68.4313215 176.369606,68.8292061 176.85,69.19 C177.15,69.41 177.45,69.61 177.75,69.79 L178.2,70.05 L179.56,70.83 L180.91,71.61 L182.26,72.39 L183.61,73.17 L184.96,73.95 L186.31,74.73 L187.67,75.51 L189.02,76.29 L190.37,77.07 L191.72,77.85 L193.07,78.63 L194.43,79.41 L195.78,80.19 L197.13,80.97 L198.48,81.75 L199.83,82.53 L201.18,83.31 L202.54,84.09 L203.89,84.88 L205.24,85.66 L206.59,86.44 L207.94,87.22 L209.3,88 L210.65,88.78 L212,89.56 L213.35,90.34 L214.7,91.12 L216.05,91.9 L217.41,92.68 L218.76,93.46 L220.11,94.24 L221.46,95.02 L222.81,95.8 L224.17,96.58 L225.52,97.36 L226.87,98.14 L228.22,98.92 L229.57,99.7 L230.92,100.48 L232.28,101.26 L233.63,102.04 L234.98,102.82 L236.33,103.6 L237.68,104.38 L239.04,105.16 L240.39,105.94 L241.74,106.72 L243.09,107.5 L244.44,108.28 L245.79,109.06 L247.15,109.84 L248.5,110.62 L249.85,111.4 L251.2,112.18 L252.55,112.96 L253.91,113.74 L255.26,114.52 L256.61,115.3 L258,116 L259.35,116.78 L259.8,117.04 C260.091904,117.199697 260.392356,117.343247 260.7,117.47 C261.134956,117.652992 261.592287,117.777413 262.06,117.84 C262.505881,117.926104 262.964119,117.926104 263.41,117.84 C263.912651,117.726484 264.377588,117.485405 264.76,117.14 C265.700913,116.173977 266.191037,114.856087 266.11,113.51 L266.11,62 C266.051768,60.1499556 265.572997,58.3374648 264.71,56.7 Z M227.24,38.76 C227.168452,38.9594712 227.035386,39.1310564 226.86,39.25 C226.453115,39.4993166 225.951879,39.5401581 225.51,39.36 C225.279598,39.2933844 225.058017,39.19938 224.85,39.08 L224.16,38.68 L222.81,37.9 L221.45,37.12 L220.1,36.34 L218.75,35.56 L217.4,34.78 L216.05,34 L214.7,33.21 L213.34,32.43 L213.07,32.28 C211.928324,31.5747555 211.079636,30.4810486 210.68,29.2 C210.675338,29.1400906 210.675338,29.0799094 210.68,29.02 C210.625632,28.8142086 210.595428,28.6027829 210.59,28.39 C210.591426,28.2031197 210.621786,28.0175876 210.68,27.84 C210.838623,27.2987458 211.372071,26.9573393 211.93,27.04 L212.03,27.04 C212.411868,27.0928467 212.779175,27.2220844 213.11,27.42 L213.38,27.58 L214.74,28.36 L216.09,29.14 L217.44,29.92 L218.79,30.7 L220.14,31.48 L221.49,32.26 L222.85,33.04 L224.2,33.82 L224.89,34.22 C225.124854,34.3585101 225.345868,34.5192474 225.55,34.7 C225.735407,34.8536366 225.909213,35.0207579 226.07,35.2 C226.39382,35.550654 226.672639,35.9403285 226.9,36.36 C227.208651,36.8900332 227.383686,37.487213 227.41,38.1 C227.399882,38.3294334 227.34198,38.5542282 227.24,38.76 Z" id="Shape" fill="#FFFFFF" fill-rule="nonzero" opacity="0.4"></path>
            <path d="M259.75,48.91 L177.75,1.58 C174.28,-0.42 171.44,1.21 171.44,5.22 L171.44,7.34 C171.342577,5.97069573 171.833641,4.62481597 172.79,3.64 C173.174175,3.29714409 173.638417,3.05642612 174.14,2.94 C174.583347,2.84240393 175.040648,2.82546683 175.49,2.89 C175.95512,2.95500282 176.409266,3.08283633 176.84,3.27 C177.153597,3.39052157 177.457773,3.53425317 177.75,3.7 L178.2,3.96 L179.55,4.74 L180.9,5.52 L182.25,6.3 L183.6,7.08 L184.96,7.86 L186.31,8.64 L187.66,9.42 L189.01,10.2 L190.36,10.98 L191.71,11.76 L193.07,12.54 L194.42,13.32 L195.77,14.11 L197.12,14.89 L198.47,15.67 L199.83,16.45 L201.18,17.23 L202.53,18.01 L203.88,18.79 L205.23,19.57 L206.58,20.35 L207.94,21.13 L209.29,21.91 L210.64,22.69 L211.99,23.47 L213.34,24.25 L214.69,25.03 L216.05,25.81 L217.4,26.59 L218.75,27.37 L220.1,28.15 L221.45,28.93 L222.81,29.71 L224.16,30.49 L225.51,31.27 L226.86,32.05 L228.21,32.83 L229.56,33.61 L230.92,34.39 L232.27,35.17 L233.62,35.95 L234.97,36.73 L236.32,37.51 L237.68,38.29 L239.03,39.07 L240.38,39.85 L241.73,40.63 L243.08,41.41 L244.43,42.19 L245.79,42.97 L247.14,43.75 L248.49,44.53 L249.84,45.32 L251.19,46.1 L252.55,46.88 L253.9,47.66 L255.25,48.44 L256.6,49.22 L258,50 L259.35,50.78 L259.81,51.04 C260.121291,51.2225217 260.421791,51.4228547 260.71,51.64 C261.169685,52.0032279 261.60094,52.4010527 262,52.83 C262.489168,53.332568 262.940405,53.8707095 263.35,54.44 C263.86468,55.1527634 264.316383,55.908947 264.7,56.7 C265.5491,58.3407829 266.014147,60.1531009 266.06,62 L266.06,59.84 C265.811285,55.40148 263.469367,51.3448773 259.75,48.91 Z" id="Shape" fill="#6C2B5B" fill-rule="nonzero"></path>
            <path d="M264.71,56.7 C264.326383,55.908947 263.87468,55.1527634 263.36,54.44 C262.947202,53.8703636 262.492615,53.3322131 262,52.83 C261.581775,52.3986785 261.130394,52.0007939 260.65,51.64 C260.361791,51.4228547 260.061291,51.2225217 259.75,51.04 L259.29,50.78 L258,50 L256.65,49.22 L255.3,48.44 L253.95,47.66 L252.6,46.88 L251.24,46.1 L249.89,45.32 L248.54,44.53 L247.19,43.75 L245.79,43 L244.43,42.22 L243.08,41.44 L241.73,40.66 L240.38,39.88 L239,39.07 L237.65,38.29 L236.29,37.51 L235,36.73 L233.62,36 L232.27,35.22 L230.92,34.44 L229.56,33.66 L228.21,32.88 L226.86,32.1 L225.51,31.32 L224.16,30.54 L222.81,29.76 L221.45,28.98 L220.1,28.2 L218.75,27.42 L217.4,26.64 L216.05,25.86 L214.69,25 L213.34,24.22 L212,23.47 L210.65,22.69 L209.3,21.91 L207.95,21.13 L206.59,20.35 L205.24,19.57 L203.89,18.79 L202.53,18 L201.18,17.22 L199.83,16.44 L198.47,15.66 L197.12,14.88 L195.77,14.1 L194.42,13.31 L193.07,12.53 L191.71,11.75 L190.36,11 L189,10.2 L187.65,9.42 L186.3,8.64 L185,7.86 L183.64,7.08 L182.29,6.3 L180.94,5.52 L179.59,4.74 L178.2,4 L177.75,3.74 C177.457773,3.57425317 177.153597,3.43052157 176.84,3.31 C176.409266,3.12283633 175.95512,2.99500282 175.49,2.93 C175.040648,2.86546683 174.583347,2.88240393 174.14,2.98 C173.638417,3.09642612 173.174175,3.33714409 172.79,3.68 C171.833641,4.66481597 171.342577,6.01069573 171.44,7.38 L171.44,58.82 C171.44,58.82 171.44,58.87 171.44,58.89 C171.503933,60.6948845 171.964865,62.4634981 172.79,64.07 C173.473481,65.5187276 174.388849,66.8461801 175.5,68 C175.918225,68.4313215 176.369606,68.8292061 176.85,69.19 C177.15,69.41 177.45,69.61 177.75,69.79 L178.2,70.05 L179.56,70.83 L180.91,71.61 L182.26,72.39 L183.61,73.17 L184.96,73.95 L186.31,74.73 L187.67,75.51 L189.02,76.29 L190.37,77.07 L191.72,77.85 L193.07,78.63 L194.43,79.41 L195.78,80.19 L197.13,80.97 L198.48,81.75 L199.83,82.53 L201.18,83.31 L202.54,84.09 L203.89,84.88 L205.24,85.66 L206.59,86.44 L207.94,87.22 L209.3,88 L210.65,88.78 L212,89.56 L213.35,90.34 L214.7,91.12 L216.05,91.9 L217.41,92.68 L218.76,93.46 L220.11,94.24 L221.46,95.02 L222.81,95.8 L224.17,96.58 L225.52,97.36 L226.87,98.14 L228.22,98.92 L229.57,99.7 L230.92,100.48 L232.28,101.26 L233.63,102.04 L234.98,102.82 L236.33,103.6 L237.68,104.38 L239.04,105.16 L240.39,105.94 L241.74,106.72 L243.09,107.5 L244.44,108.28 L245.79,109.06 L247.15,109.84 L248.5,110.62 L249.85,111.4 L251.2,112.18 L252.55,112.96 L253.91,113.74 L255.26,114.52 L256.61,115.3 L258,116 L259.35,116.78 L259.8,117.04 C260.091904,117.199697 260.392356,117.343247 260.7,117.47 C261.134956,117.652992 261.592287,117.777413 262.06,117.84 C262.505881,117.926104 262.964119,117.926104 263.41,117.84 C263.912651,117.726484 264.377588,117.485405 264.76,117.14 C265.700913,116.173977 266.191037,114.856087 266.11,113.51 L266.11,62 C266.051768,60.1499556 265.572997,58.3374648 264.71,56.7 Z M227.24,38.76 C227.168452,38.9594712 227.035386,39.1310564 226.86,39.25 C226.453115,39.4993166 225.951879,39.5401581 225.51,39.36 C225.279598,39.2933844 225.058017,39.19938 224.85,39.08 L224.16,38.68 L222.81,37.9 L221.45,37.12 L220.1,36.34 L218.75,35.56 L217.4,34.78 L216.05,34 L214.7,33.21 L213.34,32.43 L213.07,32.28 C211.928324,31.5747555 211.079636,30.4810486 210.68,29.2 C210.675338,29.1400906 210.675338,29.0799094 210.68,29.02 C210.625632,28.8142086 210.595428,28.6027829 210.59,28.39 C210.591426,28.2031197 210.621786,28.0175876 210.68,27.84 C210.838623,27.2987458 211.372071,26.9573393 211.93,27.04 L212.03,27.04 C212.411868,27.0928467 212.779175,27.2220844 213.11,27.42 L213.38,27.58 L214.74,28.36 L216.09,29.14 L217.44,29.92 L218.79,30.7 L220.14,31.48 L221.49,32.26 L222.85,33.04 L224.2,33.82 L224.89,34.22 C225.124854,34.3585101 225.345868,34.5192474 225.55,34.7 C225.735407,34.8536366 225.909213,35.0207579 226.07,35.2 C226.39382,35.550654 226.672639,35.9403285 226.9,36.36 C227.208651,36.8900332 227.383686,37.487213 227.41,38.1 C227.399882,38.3294334 227.34198,38.5542282 227.24,38.76 Z" id="Shape" fill="#FFFFFF" fill-rule="nonzero" opacity="0.2"></path>
            <path d="M213.07,28.94 L224.85,35.73 C225.996052,36.4349456 226.845776,37.5335433 227.24,38.82 C227.328195,38.611261 227.372448,38.3865928 227.37,38.16 C227.18784,36.5420044 226.254111,35.1043577 224.85,34.28 L213.07,27.48 C211.69,26.68 210.55,27.12 210.55,28.48 C210.556038,28.754679 210.59978,29.0272266 210.68,29.29 C211,28.46 212,28.29 213.07,28.94 Z" id="Shape" fill="#6C2B5B" fill-rule="nonzero"></path>
            <path d="M224.85,34.22 L213.07,27.42 C211.69,26.62 210.55,27.06 210.55,28.42 C210.556038,28.694679 210.59978,28.9672266 210.68,29.23 C211.077188,30.5123249 211.92648,31.6068096 213.07,32.31 L224.85,39.11 C225.97,39.75 226.92,39.58 227.24,38.79 C227.328195,38.581261 227.372448,38.3565928 227.37,38.13 C227.196889,36.5010331 226.262014,35.0504927 224.85,34.22 Z" id="Shape"></path>
            <path d="M224.85,34.22 L213.07,27.42 C211.69,26.62 210.55,27.06 210.55,28.42 C210.556038,28.694679 210.59978,28.9672266 210.68,29.23 C211.077188,30.5123249 211.92648,31.6068096 213.07,32.31 L224.85,39.11 C225.97,39.75 226.92,39.58 227.24,38.79 C227.328195,38.581261 227.372448,38.3565928 227.37,38.13 C227.196889,36.5010331 226.262014,35.0504927 224.85,34.22 Z" id="Shape"></path>
            <path d="M258.5,114.89 C261.97,116.89 264.81,115.25 264.81,111.25 L264.81,62.69 C264.558182,58.2550771 262.21663,54.2028202 258.5,51.77 L237,39.39 L237,102.51 L258.5,114.89 Z" id="Shape" fill="#6C2B5B" fill-rule="nonzero"></path>
            <path d="M253.84,73 L252.19,70.14 L252.19,69.92 C252.112533,68.2990278 251.26528,66.8126189 249.91,65.92 C248.65,65.19 247.63,65.78 247.63,67.24 L247.63,69.55 C247.634257,69.7162945 247.682568,69.8784809 247.77,70.02 L249.41,72.86 L249.41,73.86 C249.419461,74.1947942 249.595898,74.5026219 249.88,74.68 C250.14,74.83 250.35,74.68 250.35,74.41 L250.35,73.24 C250.344491,73.078412 250.299883,72.9205693 250.22,72.78 L248.57,69.93 L248.57,67.84 C248.57,66.99 249.17,66.65 249.91,67.07 C250.689849,67.5899549 251.181866,68.4445122 251.24,69.38 L251.24,69.79 C251.235028,69.8432175 251.235028,69.8967825 251.24,69.95 C251.24,69.95 251.24,70.02 251.24,70.05 C251.274182,70.155365 251.321202,70.2561224 251.38,70.35 L253,73.15 L253,76 C253,78 251.6,78.79 249.88,77.8 C248.114515,76.6390515 246.967908,74.7427398 246.76,72.64 C246.737496,72.306533 246.549884,72.0063543 246.26,71.84 C246,71.71 245.8,71.84 245.82,72.17 C246.0849,74.9095643 247.578125,77.3811083 249.88,78.89 C252.12,80.19 253.95,79.14 253.95,76.55 L253.95,73.48 C253.95664,73.3130678 253.91867,73.1473821 253.84,73 Z" id="Shape" fill="#FFFFFF" fill-rule="nonzero"></path>
            <path d="M247.63,72.5 L247.63,72.93 C247.710265,74.5367965 248.558783,76.0068163 249.91,76.88 C251.17,77.6 252.19,77.01 252.19,75.56 L252.19,73.28 C252.185743,73.1137055 252.137432,72.9515191 252.05,72.81 L250.37,69.91 L250.37,68.91 C250.360539,68.5752058 250.184102,68.2673781 249.9,68.09 C249.63,67.94 249.42,68.09 249.42,68.37 L249.42,69.63 C249.424257,69.7962945 249.472568,69.9584809 249.56,70.1 L251.24,73 L251.24,75 C251.24,75.85 250.64,76.2 249.91,75.77 C249.119215,75.2589866 248.621013,74.4001453 248.57,73.46 L248.57,73 C248.602689,72.798488 248.559967,72.5919968 248.45,72.42 L246.81,69.57 L246.81,66.68 C246.81,64.68 248.21,63.88 249.93,64.88 C251.647533,66.0104775 252.781171,67.838926 253.03,69.88 L253.03,70 C253.057866,70.3318212 253.249072,70.6280033 253.54,70.79 C253.8,70.92 253.99,70.79 253.97,70.45 L253.97,70.37 C253.675788,67.6982379 252.210427,65.2950458 249.97,63.81 C247.72,62.52 245.9,63.57 245.9,66.16 L245.9,69.16 C245.904257,69.3262945 245.952568,69.4884809 246.04,69.63 L247.63,72.5 Z" id="Shape" fill="#FFFFFF" fill-rule="nonzero"></path>
            <polygon id="Shape" fill="#EDB155" fill-rule="nonzero" points="254.61 102.82 212.76 78.67 212.76 77.33 254.61 101.49"></polygon>
            <polygon id="Shape" fill="#EDB155" fill-rule="nonzero" points="254.61 97.72 212.76 73.57 212.76 72.23 254.61 96.39"></polygon>
            <polygon id="Shape" fill="#EDB155" fill-rule="nonzero" points="254.61 92.62 212.76 68.47 212.76 67.14 254.61 91.29"></polygon>
            <polygon id="Shape" fill="#EDB155" fill-rule="nonzero" points="216.86 55.98 212.66 53.55 212.66 48.7 216.86 51.13"></polygon>
            <polygon id="Shape" fill="#F4D6A6" fill-rule="nonzero" points="223.17 59.62 218.96 57.19 218.96 52.34 223.17 54.77"></polygon>
            <path d="M183.66,38 C183.66,38 184.97,46.78 184.17,48.92 C184.554374,48.5343451 184.845164,48.0656603 185.02,47.55 C185.02,47.55 186.02,54.06 184.7,56.46 C185.324059,55.9474607 185.79465,55.272716 186.06,54.51 C186.18298,56.2385688 186.037932,57.9757598 185.63,59.66 L191.87,57.27 L192.36,52.27 L183.66,38 Z" id="Shape" fill="#86567B" fill-rule="nonzero"></path>
            <path d="M187.67,62.69 C187.89152,63.190052 188.266218,63.606772 188.74,63.88 L188.84,63.94 C191.53,65.49 193.84,65.85 200.17,62.38 C199.421964,61.7266652 198.630116,61.1252616 197.8,60.58 C196.35,57.9 197.65,54.22 197.65,54.22 C203.04,53.9 205.91,37.32 194.32,28.12 C184.1,23.12 183.38,29 183.38,29 C182.993204,30.2957256 182.854109,31.652749 182.97,33 C184.36,33.84 186.14,35.24 185.91,36.77 C185.55,39.24 185.91,39.53 185.26,40.91 C184.61,42.29 184.26,43.49 185.55,44 C186.854751,44.5415342 187.662252,45.8617975 187.55,47.27 C187.55,48.86 187.45,50.94 188.26,52.59 C188.854567,53.16569 189.527973,53.65391 190.26,54.04 C190.26,54.04 194.61,56.47 195.77,54.96 C195.77,54.96 193.77,60.36 189.25,56.96 C188.712928,56.8804753 188.167072,56.8804753 187.63,56.96 C187.4,58.1 186.84,60.93 187.67,62.69 Z" id="Shape" fill="#E3C4CB" fill-rule="nonzero"></path>
            <path d="M201.14,63.25 C194.67,66.88 192.08,66.81 188.83,64.94 L188.74,64.88 C187.954441,64.4159565 187.335107,63.7161436 186.97,62.88 C186.305801,61.1125306 186.183939,59.1871061 186.62,57.35 C185.075113,57.8724838 183.615994,58.6205773 182.29,59.57 C196.28,77.1 206.93,71 206.93,71 C205.49032,68.0842391 203.527822,65.4574071 201.14,63.25 Z" id="Shape" fill="#CFBDCC" fill-rule="nonzero"></path>
            <path d="M187,62.88 C187.365107,63.7161436 187.984441,64.4159565 188.77,64.88 L188.86,64.94 C192.11,66.81 194.7,66.88 201.17,63.25 C200.83,62.93 200.51,62.64 200.17,62.38 C193.82,65.85 191.53,65.49 188.84,63.94 L188.74,63.88 C188.266218,63.606772 187.89152,63.190052 187.67,62.69 C186.84,60.93 187.4,58.1 187.67,57.1 C187.30563,57.1631783 186.945069,57.2466414 186.59,57.35 C186.173062,59.1930429 186.315824,61.1185949 187,62.88 Z" id="Shape" fill="#6C2B5B" fill-rule="nonzero"></path>
            <path d="M195.84,55 C194.68,56.51 190.33,54.08 190.33,54.08 L189.33,57.08 C193.88,60.41 195.84,55 195.84,55 Z" id="Shape" fill="#DBB1BA" fill-rule="nonzero"></path>
            <path d="M187.58,47.32 C187.692252,45.9117975 186.884751,44.5915342 185.58,44.05 C184.28,43.54 184.64,42.34 185.29,40.96 C185.94,39.58 185.58,39.29 185.94,36.82 C186.17,35.29 184.39,33.89 183,33.05 C183,35.16 183.18,37.53 183.26,38.79 C183.747974,42.4003781 184.667898,45.9390632 186,49.33 C186.498635,50.597286 187.286195,51.7306874 188.3,52.64 C187.48,51 187.58,48.91 187.58,47.32 Z" id="Shape" fill="#DBB1BA" fill-rule="nonzero"></path>
            <path d="M183.21,29.07 C183.21,29.07 186.32,30.2 187.27,29.49 C187.27,29.49 187.92,34.55 192.63,41.62 C197.34,48.69 195.63,58.93 195.63,58.93 C196.651272,55.29738 196.87303,51.4865588 196.28,47.76 C196.674788,49.0979758 196.978812,50.4610741 197.19,51.84 C197.19,51.84 197.08,46.34 196.03,43.64 C196.03,43.64 197.81,42.33 199.47,45.84 C201.13,49.35 199.87,51.72 198.89,51.57 C198.749419,52.730037 198.187046,53.7978345 197.31,54.57 C197.31,54.57 196.61,58.57 197.52,60.69 C197.52,60.69 199.29,61.59 199.44,62.55 C199.726298,64.4173031 199.396306,66.327044 198.5,67.99 C198.5,67.99 199.5,67.61 199.62,66.88 C199.62,66.88 199.26,70.18 198.42,71.34 C198.42,71.34 202.92,70.71 202.84,67.82 C202.84,67.82 203.13,68.11 203.13,69.08 C203.995688,67.4731452 204.15505,65.5789054 203.57,63.85 C204.03031,64.8727598 204.36605,65.947128 204.57,67.05 C204.439108,65.067673 204.049124,63.11103 203.41,61.23 C202.5,59.16 203.26,49.77 203.52,48.23 C203.78,46.69 204.68,39.33 198.08,31.09 C190.45,21.45 182.08,24.82 183.21,29.07 Z" id="Shape" fill="#86567B" fill-rule="nonzero"></path>
            <path d="M258.5,115.25 L179,69.38 C175.093401,66.8237084 172.635651,62.5616294 172.38,57.9 L172.38,9.35 C172.38,5.13 175.38,3.41 179.01,5.52 L258.49,51.4 C262.40007,53.9497418 264.862145,58.2091696 265.12,62.87 L265.12,111.43 C265.12,115.65 262.15,117.36 258.5,115.25 Z M179,6.25 C175.69,4.34 173,5.9 173,9.71 L173,58.27 C173.237033,62.4868241 175.464267,66.3399392 179,68.65 L258.49,114.53 C261.8,116.43 264.49,114.88 264.49,111.07 L264.49,62.51 C264.25932,58.2912819 262.030545,54.4355014 258.49,52.13 L179,6.25 Z" id="Shape" fill="#51356C" fill-rule="nonzero"></path>
            <path d="M270.37,287.39 C271.78,286.58 262.28,274.2 254.45,276.96 L252.35,275.74 C251.719613,275.428962 250.980387,275.428962 250.35,275.74 C249.79,276.06 249.78,276.59 250.35,276.91 L252.43,278.11 C247.24,282.66 269,288.21 270.37,287.39 Z" id="Shape" fill="#000000" fill-rule="nonzero" opacity="0.1"></path>
            <circle id="Oval" fill="#D27576" fill-rule="nonzero" cx="250.68" cy="275.76" r="1.18"></circle>
            <polygon id="Rectangle-path" fill="#D27576" fill-rule="nonzero" transform="translate(250.658672, 271.129167) rotate(179.990000) translate(-250.658672, -271.129167) " points="249.478672 266.479167 251.838672 266.479167 251.838672 275.779167 249.478672 275.779167"></polygon>
            <path d="M250.61,253.57 C252.32,253.57 259.87,273.46 250.61,273.46 C250.61,273.46 246.92,268.16 250.61,253.57 Z" id="Shape" fill="#22B26D" fill-rule="nonzero"></path>
            <path d="M250.61,253.57 C246.92,268.16 250.61,273.46 250.61,273.46 C241.35,273.46 248.89,253.57 250.61,253.57 Z" id="Shape" fill="#5CB853" fill-rule="nonzero"></path>
            <path d="M265,159.06 C266.41,158.24 256.91,145.86 249.08,148.62 L246.98,147.41 C246.350712,147.094285 245.609288,147.094285 244.98,147.41 C244.41,147.74 244.41,148.26 244.98,148.59 L247.06,149.78 C241.91,154.32 263.62,159.88 265,159.06 Z" id="Shape" fill="#000000" fill-rule="nonzero" opacity="0.1"></path>
            <circle id="Oval" fill="#D27576" fill-rule="nonzero" cx="245.35" cy="147.43" r="1.18"></circle>
            <polygon id="Rectangle-path" fill="#D27576" fill-rule="nonzero" transform="translate(245.331072, 142.798235) rotate(179.990000) translate(-245.331072, -142.798235) " points="244.151072 138.148235 246.511072 138.148235 246.511072 147.448235 244.151072 147.448235"></polygon>
            <path d="M245.28,125.23 C246.99,125.23 254.54,145.12 245.28,145.12 C245.28,145.12 241.59,139.83 245.28,125.23 Z" id="Shape" fill="#22B26D" fill-rule="nonzero"></path>
            <path d="M245.28,125.23 C241.59,139.83 245.28,145.120008 245.28,145.120008 C236,145.13 243.56,125.23 245.28,125.23 Z" id="Shape" fill="#5CB853" fill-rule="nonzero"></path>
            <path d="M177.65,168.15 C178.139381,168.351958 178.69839,168.286571 179.127952,167.977124 C179.557513,167.667677 179.796574,167.15815 179.76,166.63 C179.650729,165.322086 178.843958,164.175018 177.65,163.63 L171.17,161.27 C170.537018,160.968943 169.783644,161.092512 169.28,161.58 L167.5,160.93 C167.218285,160.776098 166.875116,160.787808 166.604547,160.960556 C166.333978,161.133304 166.178942,161.439678 166.2,161.76 C166.252767,162.554764 166.758983,163.24789 167.5,163.54 L169.28,164.19 C169.691778,164.955669 170.361334,165.55083 171.17,165.87 L177.65,168.23 L177.65,168.15 Z" id="Shape" fill="#000000" fill-rule="nonzero" opacity="0.1"></path>
            <path d="M168.42,151.69 C168.363008,151.013606 167.798785,150.492785 167.12,150.49 C166.443182,150.493202 165.882056,151.015179 165.83,151.69 L165.83,162 C165.889283,162.676583 166.455825,163.195654 167.135,163.195654 C167.814175,163.195654 168.380717,162.676583 168.44,162 L168.44,151.7 L168.42,151.69 Z" id="Shape" fill="#B86878" fill-rule="nonzero"></path>
            <circle id="Oval" fill="#D06061" fill-rule="nonzero" cx="167.12" cy="146.06" r="2.3"></circle>
            <path d="M169.4,151.84 C169.289666,150.663249 168.301912,149.763776 167.12,149.763776 C165.938088,149.763776 164.950334,150.663249 164.84,151.84 L164.84,158.32 C164.84,159.590255 165.869745,160.62 167.14,160.62 C168.410255,160.62 169.44,159.590255 169.44,158.32 L169.44,151.84 L169.4,151.84 Z" id="Shape" fill="#C3B9CC" fill-rule="nonzero"></path>
            <path d="M38.7,289.09 C39.1883082,289.287378 39.7438078,289.219721 40.1704633,288.910903 C40.5971188,288.602086 40.8349401,288.09553 40.8,287.57 C40.7101836,286.245887 39.9049194,285.076337 38.7,284.52 L32.22,282.16 C31.5861932,281.864852 30.836313,281.987848 30.33,282.47 L28.55,281.83 C28.2690208,281.668626 27.9216413,281.676772 27.6485354,281.85114 C27.3754295,282.025507 27.2218538,282.337202 27.25,282.66 C27.3051471,283.453897 27.8105335,284.145887 28.55,284.44 L30.33,285.08 C30.7385281,285.85052 31.4087707,286.449838 32.22,286.77 L38.7,289.13 L38.7,289.09 Z" id="Shape" fill="#000000" fill-rule="nonzero" opacity="0.1"></path>
            <path d="M29.46,272.62 C29.4076653,271.946874 28.8451544,271.427969 28.17,271.43 C27.4947252,271.432316 26.9318536,271.94756 26.87,272.62 L26.87,282.92 C26.87,283.388018 27.1196845,283.820484 27.525,284.054493 C27.9303154,284.288502 28.4296846,284.288502 28.835,284.054493 C29.2403155,283.820484 29.49,283.388018 29.49,282.92 L29.49,272.62 L29.46,272.62 Z" id="Shape" fill="#B86878" fill-rule="nonzero"></path>
            <circle id="Oval" fill="#D06061" fill-rule="nonzero" cx="28.17" cy="266.99" r="2.3"></circle>
            <path d="M30.45,272.77 C30.3396664,271.593249 29.3519125,270.693776 28.17,270.693776 C26.9880875,270.693776 26.0003336,271.593249 25.89,272.77 L25.89,279.25 C25.89,280.520255 26.9197451,281.55 28.19,281.55 C29.4602549,281.55 30.49,280.520255 30.49,279.25 L30.49,272.77 L30.45,272.77 Z" id="Shape" fill="#C3B9CC" fill-rule="nonzero"></path>
            <path d="M163.25,343.33 C163.736572,343.532382 164.293251,343.468298 164.721109,343.160648 C165.148966,342.852998 165.386944,342.345686 165.35,341.82 C165.262314,340.495146 164.456372,339.324611 163.25,338.77 L156.77,336.41 C156.136193,336.114852 155.386313,336.237848 154.88,336.72 L153.1,336.07 C152.816944,335.917939 152.473901,335.930256 152.202479,336.102226 C151.931057,336.274196 151.773403,336.579114 151.79,336.9 C151.846888,337.696304 152.356623,338.388921 153.1,338.68 L154.88,339.33 C155.288987,340.09787 155.959475,340.693859 156.77,341.01 L163.25,343.37 L163.25,343.33 Z" id="Shape" fill="#000000" fill-rule="nonzero" opacity="0.1"></path>
            <path d="M154,326.87 C153.940959,326.198768 153.378823,325.683908 152.705,325.683908 C152.031177,325.683908 151.469041,326.198768 151.41,326.87 L151.41,337.17 C151.469283,337.846583 152.035825,338.365654 152.715,338.365654 C153.394175,338.365654 153.960717,337.846583 154.02,337.17 L154.02,326.87 L154,326.87 Z" id="Shape" fill="#B86878" fill-rule="nonzero"></path>
            <circle id="Oval" fill="#D06061" fill-rule="nonzero" cx="152.72" cy="321.24" r="2.3"></circle>
            <path d="M155,327 C154.889666,325.823249 153.901912,324.923776 152.72,324.923776 C151.538088,324.923776 150.550334,325.823249 150.44,327 L150.44,333.48 C150.44,334.750255 151.469745,335.78 152.74,335.78 C154.010255,335.78 155.04,334.750255 155.04,333.48 L155.04,327 L155,327 Z" id="Shape" fill="#C3B9CC" fill-rule="nonzero"></path>
            <path d="M148.06,350.17 C148.549381,350.371958 149.10839,350.306571 149.537952,349.997124 C149.967513,349.687677 150.206574,349.17815 150.17,348.65 C150.060729,347.342086 149.253958,346.195018 148.06,345.65 L141.58,343.29 C140.948191,342.992246 140.198552,343.111236 139.69,343.59 L137.91,342.95 C137.628285,342.796098 137.285116,342.807808 137.014547,342.980556 C136.743978,343.153304 136.588942,343.459678 136.61,343.78 C136.662767,344.574764 137.168983,345.26789 137.91,345.56 L139.69,346.21 C140.101778,346.975669 140.771334,347.57083 141.58,347.89 L148.06,350.25 L148.06,350.17 Z" id="Shape" fill="#000000" fill-rule="nonzero" opacity="0.1"></path>
            <path d="M138.82,333.7 C138.82,332.987553 138.242447,332.41 137.53,332.41 C136.817553,332.41 136.24,332.987553 136.24,333.7 L136.24,344 C136.299283,344.676583 136.865825,345.195654 137.545,345.195654 C138.224175,345.195654 138.790717,344.676583 138.85,344 L138.85,333.7 L138.82,333.7 Z" id="Shape" fill="#B86878" fill-rule="nonzero"></path>
            <circle id="Oval" fill="#D06061" fill-rule="nonzero" cx="137.53" cy="328.08" r="2.3"></circle>
            <path d="M139.81,333.86 C139.699666,332.683249 138.711912,331.783776 137.53,331.783776 C136.348088,331.783776 135.360334,332.683249 135.25,333.86 L135.25,340.34 C135.25,341.161711 135.688377,341.921003 136.4,342.331859 C137.111622,342.742714 137.988378,342.742714 138.7,342.331859 C139.411623,341.921003 139.85,341.161711 139.85,340.34 L139.85,333.86 L139.81,333.86 Z" id="Shape" fill="#C3B9CC" fill-rule="nonzero"></path>
            <path d="M214.12,281.3 C214.608308,281.497378 215.163808,281.429721 215.590463,281.120903 C216.017119,280.812086 216.25494,280.30553 216.22,279.78 C216.108568,278.475792 215.307289,277.331108 214.12,276.78 L207.64,274.42 C207.002733,274.126033 206.25078,274.24872 205.74,274.73 L204,274 C203.71763,273.840748 203.370569,273.84964 203.096725,274.023144 C202.822881,274.196649 202.666607,274.506663 202.69,274.83 C202.746888,275.626304 203.256623,276.318921 204,276.61 L205.77,277.25 C206.185157,278.019026 206.857814,278.617337 207.67,278.94 L214.15,281.3 L214.12,281.3 Z" id="Shape" fill="#000000" fill-rule="nonzero" opacity="0.1"></path>
            <path d="M204.88,264.83 C204.820959,264.158768 204.258823,263.643908 203.585,263.643908 C202.911177,263.643908 202.349041,264.158768 202.29,264.83 L202.29,275.13 C202.246758,275.623505 202.485603,276.099189 202.907232,276.359279 C203.32886,276.619368 203.86114,276.619368 204.282768,276.359279 C204.704397,276.099189 204.943242,275.623505 204.9,275.13 L204.9,264.83 L204.88,264.83 Z" id="Shape" fill="#B86878" fill-rule="nonzero"></path>
            <circle id="Oval" fill="#D06061" fill-rule="nonzero" cx="203.58" cy="259.2" r="2.3"></circle>
            <path d="M205.87,265 C205.790347,263.796612 204.791021,262.861245 203.585,262.861245 C202.378979,262.861245 201.379653,263.796612 201.3,265 L201.3,271.48 C201.380017,272.694175 202.388191,273.638095 203.605,273.638095 C204.821809,273.638095 205.829983,272.694175 205.91,271.48 L205.91,265 L205.87,265 Z" id="Shape" fill="#C3B9CC" fill-rule="nonzero"></path>
            <path d="M407,276.13 C407.486572,276.332382 408.043251,276.268298 408.471109,275.960648 C408.898966,275.652998 409.136944,275.145686 409.1,274.62 C409.008069,273.296625 408.203475,272.128049 407,271.57 L400.52,269.21 C399.882733,268.916033 399.13078,269.03872 398.62,269.52 L396.85,268.87 C396.566944,268.717939 396.223901,268.730256 395.952479,268.902226 C395.681057,269.074196 395.523403,269.379114 395.54,269.7 C395.596888,270.496304 396.106623,271.188921 396.85,271.48 L398.62,272.13 C399.035631,272.896354 399.708521,273.491331 400.52,273.81 L407,276.17 L407,276.13 Z" id="Shape" fill="#000000" fill-rule="nonzero" opacity="0.1"></path>
            <path d="M397.76,259.67 C397.700959,258.998768 397.138823,258.483908 396.465,258.483908 C395.791177,258.483908 395.229041,258.998768 395.17,259.67 L395.17,270 C395.229283,270.676583 395.795825,271.195654 396.475,271.195654 C397.154175,271.195654 397.720717,270.676583 397.78,270 L397.78,259.7 L397.76,259.67 Z" id="Shape" fill="#B86878" fill-rule="nonzero"></path>
            <circle id="Oval" fill="#D06061" fill-rule="nonzero" cx="396.47" cy="254.04" r="2.3"></circle>
            <path d="M398.75,259.82 C398.670347,258.616612 397.671021,257.681245 396.465,257.681245 C395.258979,257.681245 394.259653,258.616612 394.18,259.82 L394.18,266.3 C394.18,267.570255 395.209745,268.6 396.48,268.6 C397.750255,268.6 398.78,267.570255 398.78,266.3 L398.78,259.82 L398.75,259.82 Z" id="Shape" fill="#C3B9CC" fill-rule="nonzero"></path>
            <path d="M358.41,343.31 C358.898297,343.51341 359.457228,343.448333 359.88573,343.138179 C360.314231,342.828025 360.550673,342.317404 360.51,341.79 C360.4006,340.485056 359.598677,339.339451 358.41,338.79 L351.92,336.43 C351.286599,336.131921 350.534992,336.255201 350.03,336.74 L348.26,336.09 C347.53,335.83 346.95,336.2 346.95,336.92 C347.002066,337.718072 347.513502,338.413 348.26,338.7 L350.03,339.35 C350.445631,340.116354 351.118521,340.711331 351.93,341.03 L358.41,343.39 L358.41,343.31 Z" id="Shape" fill="#000000" fill-rule="nonzero" opacity="0.1"></path>
            <path d="M349.17,326.85 C349.110959,326.178768 348.548823,325.663908 347.875,325.663908 C347.201177,325.663908 346.639041,326.178768 346.58,326.85 L346.58,337.15 C346.639283,337.826583 347.205825,338.345654 347.885,338.345654 C348.564175,338.345654 349.130717,337.826583 349.19,337.15 L349.19,326.85 L349.17,326.85 Z" id="Shape" fill="#B86878" fill-rule="nonzero"></path>
            <circle id="Oval" fill="#D06061" fill-rule="nonzero" cx="347.87" cy="321.22" r="2.3"></circle>
            <path d="M350.16,327 C350.080347,325.796612 349.081021,324.861245 347.875,324.861245 C346.668979,324.861245 345.669653,325.796612 345.59,327 L345.59,333.48 C345.670017,334.694175 346.678191,335.638095 347.895,335.638095 C349.111809,335.638095 350.119983,334.694175 350.2,333.48 L350.2,327 L350.16,327 Z" id="Shape" fill="#C3B9CC" fill-rule="nonzero"></path>
            <g id="Group" opacity="0.1" transform="translate(74.000000, 126.000000)" fill="#000000" fill-rule="nonzero">
                <polygon id="Shape" points="82.74 24.02 41.85 47.79 0.69 24.03 41.58 0.27"></polygon>
            </g>
            <g id="Group" transform="translate(74.000000, 125.000000)" fill-rule="nonzero">
                <polygon id="Shape" fill="#D1D4F2" points="72.2 20.86 36.56 41.57 0.69 20.87 36.33 0.16"></polygon>
                <polygon id="Shape" fill="#8D919F" points="72.2 20.86 72.19 24.99 36.55 45.71 36.56 41.57"></polygon>
                <polygon id="Shape" fill="#A5A8BB" points="36.56 41.57 36.55 45.71 0.68 25 0.69 20.87"></polygon>
            </g>
            <g id="Group" transform="translate(80.000000, 124.000000)" fill-rule="nonzero">
                <polygon id="Shape" fill="#D1D4F2" points="60.14 17.29 30.55 34.49 0.75 17.3 30.35 0.09"></polygon>
                <polygon id="Shape" fill="#8D919F" points="60.14 17.29 60.13 21.42 30.53 38.63 30.55 34.49"></polygon>
                <polygon id="Shape" fill="#A5A8BB" points="30.55 34.49 30.53 38.63 0.74 21.43 0.75 17.3"></polygon>
            </g>
            <path d="M134.26,142.43 C132.702557,142.43 131.44,141.167443 131.44,139.61 L131.44,120 C131.377644,118.954258 131.900126,117.960133 132.796797,117.418426 C133.693468,116.876719 134.816532,116.876719 135.713203,117.418426 C136.609874,117.960133 137.132356,118.954258 137.07,120 L137.07,139.58 C137.080708,140.332165 136.789389,141.057218 136.261247,141.592879 C135.733105,142.128539 135.012241,142.430076 134.26,142.43 Z" id="Shape" fill="#6C2B5B" fill-rule="nonzero"></path>
            <g id="Group" transform="translate(91.000000, 111.000000)" fill-rule="nonzero">
                <polygon id="Shape" fill="#734A6A" points="41.13 15.41 25.5 24.5 0.12 9.86 15.76 0.77"></polygon>
                <polygon id="Shape" fill="#86567B" points="41.13 15.41 41.09 31.87 25.45 40.96 25.5 24.5"></polygon>
                <polygon id="Shape" fill="#956C89" points="25.5 24.5 25.45 40.96 0.08 26.31 0.12 9.86"></polygon>
            </g>
            <path d="M88.33,142.94 C87.5830105,142.942658 86.8657043,142.64778 86.3365623,142.120514 C85.8074203,141.593248 85.5099953,140.876994 85.51,140.13 L85.51,120.54 C85.5988228,119.050395 86.8327496,117.887854 88.325,117.887854 C89.8172504,117.887854 91.0511772,119.050395 91.14,120.54 L91.14,140.12 C91.1426583,140.866989 90.8477796,141.584296 90.320514,142.113438 C89.7932483,142.64258 89.0769942,142.940005 88.33,142.94 Z" id="Shape" fill="#6C2B5B" fill-rule="nonzero"></path>
            <path d="M99.75,148.9 C99.0030058,148.900005 98.2867517,148.60258 97.759486,148.073438 C97.2322204,147.544296 96.9373417,146.826989 96.94,146.08 L96.94,126.5 C96.9400001,124.942557 98.2025571,123.68 99.76,123.68 C101.317443,123.68 102.58,124.942557 102.58,126.5 L102.58,146.08 C102.580005,146.829646 102.281526,147.548444 101.750509,148.077585 C101.219491,148.606726 100.499642,148.902658 99.75,148.9 Z" id="Shape" fill="#6C2B5B" fill-rule="nonzero"></path>
            <path d="M111.18,154.86 C109.622557,154.86 108.36,153.597443 108.36,152.04 L108.36,132.46 C108.297644,131.414258 108.820126,130.420133 109.716797,129.878426 C110.613468,129.336719 111.736532,129.336719 112.633203,129.878426 C113.529874,130.420133 114.052356,131.414258 113.99,132.46 L113.99,152 C114.000688,152.753086 113.70968,153.479155 113.181831,154.016397 C112.653982,154.553638 111.933158,154.857405 111.18,154.86 Z" id="Shape" fill="#6C2B5B" fill-rule="nonzero"></path>
            <g id="Group" transform="translate(78.000000, 100.000000)" fill-rule="nonzero">
                <polygon id="Shape" fill="#D1D4F2" points="67.57 20.75 35.75 39.25 0.86 19.11 32.68 0.61"></polygon>
                <polygon id="Shape" fill="#8D919F" points="67.57 20.75 67.56 23.92 35.75 42.42 35.75 39.25"></polygon>
                <polygon id="Shape" fill="#A5A8BB" points="35.75 39.25 35.75 42.42 0.85 22.28 0.86 19.11"></polygon>
            </g>
            <g id="Group" transform="translate(82.000000, 95.000000)" fill-rule="nonzero">
                <polygon id="Shape" fill="#9D8CAC" points="6.95 23.43 35.54 6.81 53.45 17.14 24.86 33.76"></polygon>
                <polygon id="Shape" fill="#9D8CAC" points="0.27 20.66 28.86 4.04 44.53 0.82 15.94 17.44"></polygon>
                <path d="M15.94,17.44 L31.54,38.71 L31.54,42.07 L0.27,24.07 L0.27,20.71 L15.94,17.44 Z M6.94,23.44 L24.85,33.77 L15.92,21.59 L6.92,23.44 L6.94,23.44 Z" id="Shape" fill="#654A7D"></path>
                <polygon id="Shape" fill="#89789B" points="15.94 17.44 44.53 0.82 60.13 22.09 31.54 38.71"></polygon>
                <polygon id="Shape" fill="#3E1C5E" points="31.54 38.71 60.13 22.09 60.12 25.45 31.53 42.07"></polygon>
            </g>
            <g id="Group" opacity="0.1" transform="translate(291.000000, 126.000000)" fill="#000000" fill-rule="nonzero">
                <polygon id="Shape" points="82.16 24 41.28 47.76 0.12 24.01 41 0.24"></polygon>
            </g>
            <g id="Group" transform="translate(291.000000, 125.000000)" fill-rule="nonzero">
                <polygon id="Shape" fill="#D1D4F2" points="71.63 20.83 35.99 41.55 0.12 20.84 35.75 0.13"></polygon>
                <polygon id="Shape" fill="#8D919F" points="71.63 20.83 71.62 24.97 35.98 45.68 35.99 41.55"></polygon>
                <polygon id="Shape" fill="#A5A8BB" points="35.99 41.55 35.98 45.68 0.11 24.98 0.12 20.84"></polygon>
            </g>
            <g id="Group" transform="translate(297.000000, 124.000000)" fill-rule="nonzero">
                <polygon id="Shape" fill="#D1D4F2" points="59.57 17.26 29.97 34.47 0.18 17.27 29.77 0.06"></polygon>
                <polygon id="Shape" fill="#8D919F" points="59.57 17.26 59.56 21.4 29.96 38.6 29.97 34.47"></polygon>
                <polygon id="Shape" fill="#A5A8BB" points="29.97 34.47 29.96 38.6 0.17 21.4 0.18 17.27"></polygon>
            </g>
            <path d="M350.68,142.4 C349.12808,142.4 347.87,141.14192 347.87,139.59 L347.87,120 C347.958823,118.510395 349.19275,117.347854 350.685,117.347854 C352.17725,117.347854 353.411177,118.510395 353.5,120 L353.5,139.59 C353.500005,140.336994 353.20258,141.053248 352.673438,141.580514 C352.144296,142.10778 351.426989,142.402658 350.68,142.4 Z" id="Shape" fill="#6C2B5B" fill-rule="nonzero"></path>
            <g id="Group" transform="translate(307.000000, 111.000000)" fill-rule="nonzero">
                <polygon id="Shape" fill="#734A6A" points="41.56 15.38 25.92 24.47 0.55 9.83 16.19 0.74"></polygon>
                <polygon id="Shape" fill="#86567B" points="41.56 15.38 41.51 31.84 25.88 40.93 25.92 24.47"></polygon>
                <polygon id="Shape" fill="#956C89" points="25.92 24.47 25.88 40.93 0.51 26.29 0.55 9.83"></polygon>
            </g>
            <path d="M304.75,142.91 C303.19808,142.91 301.94,141.65192 301.94,140.1 L301.94,120.52 C301.877644,119.474258 302.400126,118.480133 303.296797,117.938426 C304.193468,117.396719 305.316532,117.396719 306.213203,117.938426 C307.109874,118.480133 307.632356,119.474258 307.57,120.52 L307.57,140.1 C307.570005,140.846994 307.27258,141.563248 306.743438,142.090514 C306.214296,142.61778 305.496989,142.912658 304.75,142.91 Z" id="Shape" fill="#6C2B5B" fill-rule="nonzero"></path>
            <path d="M316.18,148.87 C315.433011,148.872658 314.715704,148.57778 314.186562,148.050514 C313.65742,147.523248 313.359995,146.806994 313.36,146.06 L313.36,126.47 C313.448823,124.980395 314.68275,123.817854 316.175,123.817854 C317.66725,123.817854 318.901177,124.980395 318.99,126.47 L318.99,146.06 C318.99,147.61192 317.73192,148.87 316.18,148.87 Z" id="Shape" fill="#6C2B5B" fill-rule="nonzero"></path>
            <path d="M327.6,154.83 C326.853006,154.830005 326.136752,154.53258 325.609486,154.003438 C325.08222,153.474296 324.787342,152.756989 324.79,152.01 L324.79,132.43 C324.878823,130.940395 326.11275,129.777854 327.605,129.777854 C329.09725,129.777854 330.331177,130.940395 330.42,132.43 L330.42,152 C330.422658,152.749642 330.126726,153.469491 329.597585,154.000509 C329.068444,154.531526 328.349646,154.830005 327.6,154.83 Z" id="Shape" fill="#6C2B5B" fill-rule="nonzero"></path>
            <g id="Group" transform="translate(295.000000, 100.000000)" fill-rule="nonzero">
                <polygon id="Shape" fill="#D1D4F2" points="67 20.72 35.18 39.22 0.29 19.08 32.11 0.58"></polygon>
                <polygon id="Shape" fill="#8D919F" points="67 20.72 66.99 23.9 35.17 42.39 35.18 39.22"></polygon>
                <polygon id="Shape" fill="#A5A8BB" points="35.18 39.22 35.17 42.39 0.28 22.25 0.29 19.08"></polygon>
            </g>
            <g id="Group" transform="translate(298.000000, 95.000000)" fill-rule="nonzero">
                <polygon id="Shape" fill="#9D8CAC" points="7.38 23.4 35.97 6.78 53.88 17.12 25.29 33.74"></polygon>
                <polygon id="Shape" fill="#9D8CAC" points="0.69 20.64 29.29 4.02 44.96 0.8 16.36 17.42"></polygon>
                <path d="M16.36,17.42 L32,38.69 L32,42 L0.73,24 L0.73,20.65 L16.36,17.42 Z M7.36,23.42 L25.27,33.76 L16.33,21.57 L7.33,23.42 L7.36,23.42 Z" id="Shape" fill="#654A7D"></path>
                <polygon id="Shape" fill="#89789B" points="16.36 17.42 44.96 0.8 60.56 22.07 31.97 38.69"></polygon>
                <polygon id="Shape" fill="#3E1C5E" points="31.97 38.69 60.56 22.07 60.55 25.42 31.96 42.04"></polygon>
            </g>
            <g id="Group" opacity="0.1" transform="translate(0.000000, 192.000000)" fill="#000000" fill-rule="nonzero">
                <polygon id="Shape" points="82.58 24.6 41.69 48.37 0.54 24.61 41.42 0.85"></polygon>
            </g>
            <g id="Group" transform="translate(0.000000, 191.000000)" fill-rule="nonzero">
                <polygon id="Shape" fill="#D1D4F2" points="72.04 21.44 36.41 42.16 0.53 21.45 36.17 0.74"></polygon>
                <polygon id="Shape" fill="#8D919F" points="72.04 21.44 72.03 25.58 36.39 46.29 36.41 42.16"></polygon>
                <polygon id="Shape" fill="#A5A8BB" points="36.41 42.16 36.39 46.29 0.52 25.59 0.53 21.45"></polygon>
            </g>
            <g id="Group" transform="translate(6.000000, 190.000000)" fill-rule="nonzero">
                <polygon id="Shape" fill="#D1D4F2" points="59.98 17.87 30.39 35.08 0.59 17.88 30.19 0.67"></polygon>
                <polygon id="Shape" fill="#8D919F" points="59.98 17.87 59.97 22 30.38 39.21 30.39 35.08"></polygon>
                <polygon id="Shape" fill="#A5A8BB" points="30.39 35.08 30.38 39.21 0.58 22.01 0.59 17.88"></polygon>
            </g>
            <path d="M60.1,209 C59.3530105,209.002658 58.6357043,208.70778 58.1065623,208.180514 C57.5774203,207.653248 57.2799953,206.936994 57.28,206.19 L57.28,186.61 C57.3688228,185.120395 58.6027496,183.957854 60.095,183.957854 C61.5872504,183.957854 62.8211772,185.120395 62.91,186.61 L62.91,206.19 C62.91,207.74192 61.6519201,209 60.1,209 Z" id="Shape" fill="#6C2B5B" fill-rule="nonzero"></path>
            <g id="Group" transform="translate(16.000000, 178.000000)" fill-rule="nonzero">
                <polygon id="Shape" fill="#734A6A" points="41.97 14.99 26.33 24.08 0.97 9.44 16.6 0.35"></polygon>
                <polygon id="Shape" fill="#86567B" points="41.97 14.99 41.93 31.45 26.29 40.54 26.33 24.08"></polygon>
                <polygon id="Shape" fill="#956C89" points="26.33 24.08 26.29 40.54 0.92 25.9 0.97 9.44"></polygon>
            </g>
            <path d="M14.17,209.52 C13.4230105,209.522658 12.7057043,209.22778 12.1765623,208.700514 C11.6474203,208.173248 11.3499953,207.456994 11.35,206.71 L11.35,187.13 C11.287644,186.084258 11.8101261,185.090133 12.7067971,184.548426 C13.603468,184.006719 14.726532,184.006719 15.6232029,184.548426 C16.5198739,185.090133 17.042356,186.084258 16.98,187.13 L16.98,206.71 C16.98,207.455258 16.6839473,208.169993 16.1569701,208.69697 C15.6299928,209.223947 14.9152583,209.52 14.17,209.52 Z" id="Shape" fill="#6C2B5B" fill-rule="nonzero"></path>
            <path d="M25.59,215.48 C24.0380799,215.48 22.78,214.22192 22.78,212.67 L22.78,193.08 C22.78,191.522557 24.042557,190.26 25.6,190.26 C27.157443,190.26 28.42,191.522557 28.42,193.08 L28.42,212.66 C28.4200047,213.409646 28.1215261,214.128444 27.5905087,214.657585 C27.0594914,215.186726 26.3396416,215.482658 25.59,215.48 Z" id="Shape" fill="#6C2B5B" fill-rule="nonzero"></path>
            <path d="M37,221.44 C35.442557,221.44 34.18,220.177443 34.18,218.62 L34.18,199 C34.117644,197.954258 34.6401261,196.960133 35.5367971,196.418426 C36.433468,195.876719 37.556532,195.876719 38.4532029,196.418426 C39.3498739,196.960133 39.872356,197.954258 39.81,199 L39.81,218.58 C39.8234164,219.333883 39.5332972,220.061531 39.0048588,220.599372 C38.4764204,221.137213 37.7540028,221.440119 37,221.44 Z" id="Shape" fill="#6C2B5B" fill-rule="nonzero"></path>
            <g id="Group" transform="translate(4.000000, 167.000000)" fill-rule="nonzero">
                <polygon id="Shape" fill="#D1D4F2" points="67.42 20.33 35.59 38.83 0.7 18.69 32.52 0.19"></polygon>
                <polygon id="Shape" fill="#8D919F" points="67.42 20.33 67.41 23.5 35.59 42 35.59 38.83"></polygon>
                <polygon id="Shape" fill="#A5A8BB" points="35.59 38.83 35.59 42 0.69 21.86 0.7 18.69"></polygon>
            </g>
            <g id="Group" transform="translate(8.000000, 162.000000)" fill-rule="nonzero">
                <polygon id="Shape" fill="#9D8CAC" points="6.79 23.01 35.39 6.39 53.29 16.72 24.7 33.34"></polygon>
                <polygon id="Shape" fill="#9D8CAC" points="0.11 20.25 28.7 3.63 44.37 0.41 15.78 17.03"></polygon>
                <path d="M15.78,17 L31.38,38.27 L31.38,41.62 L0.1,23.6 L0.1,20.25 L15.78,17 Z M6.78,23 L24.7,33.34 L15.77,21.16 L6.77,23.01 L6.78,23 Z" id="Shape" fill="#654A7D"></path>
                <polygon id="Shape" fill="#89789B" points="15.78 17.03 44.37 0.41 59.97 21.68 31.38 38.3"></polygon>
                <polygon id="Shape" fill="#3E1C5E" points="31.38 38.3 59.97 21.68 59.96 25.03 31.37 41.65"></polygon>
            </g>
            <g id="Group" opacity="0.1" transform="translate(366.000000, 192.000000)" fill="#000000" fill-rule="nonzero">
                <polygon id="Shape" points="82.6 24.56 41.72 48.33 0.56 24.57 41.45 0.8"></polygon>
            </g>
            <g id="Group" transform="translate(366.000000, 191.000000)" fill-rule="nonzero">
                <polygon id="Shape" fill="#D1D4F2" points="72.07 21.4 36.43 42.11 0.56 21.41 36.19 0.69"></polygon>
                <polygon id="Shape" fill="#8D919F" points="72.07 21.4 72.06 25.53 36.42 46.25 36.43 42.11"></polygon>
                <polygon id="Shape" fill="#A5A8BB" points="36.43 42.11 36.42 46.25 0.55 25.54 0.56 21.41"></polygon>
            </g>
            <g id="Group" transform="translate(372.000000, 190.000000)" fill-rule="nonzero">
                <polygon id="Shape" fill="#D1D4F2" points="60.01 17.83 30.41 35.03 0.62 17.83 30.22 0.63"></polygon>
                <polygon id="Shape" fill="#8D919F" points="60.01 17.83 60 21.96 30.4 39.16 30.41 35.03"></polygon>
                <polygon id="Shape" fill="#A5A8BB" points="30.41 35.03 30.4 39.16 0.61 21.97 0.62 17.83"></polygon>
            </g>
            <path d="M426.12,209 C425.373006,209.000005 424.656752,208.70258 424.129486,208.173438 C423.60222,207.644296 423.307342,206.926989 423.31,206.18 L423.31,186.57 C423.31,185.012557 424.572557,183.75 426.13,183.75 C427.687443,183.75 428.95,185.012557 428.95,186.57 L428.95,206.15 C428.958035,206.904832 428.663104,207.631373 428.13121,208.167026 C427.599316,208.702679 426.874869,209.00272 426.12,209 Z" id="Shape" fill="#6C2B5B" fill-rule="nonzero"></path>
            <g id="Group" transform="translate(382.000000, 178.000000)" fill-rule="nonzero">
                <polygon id="Shape" fill="#734A6A" points="42 14.95 26.36 24.04 0.99 9.4 16.63 0.31"></polygon>
                <polygon id="Shape" fill="#86567B" points="42 14.95 41.95 31.41 26.32 40.5 26.36 24.04"></polygon>
                <polygon id="Shape" fill="#956C89" points="26.36 24.04 26.32 40.5 0.95 25.85 0.99 9.4"></polygon>
            </g>
            <path d="M380.2,209.48 C378.642557,209.48 377.38,208.217443 377.38,206.66 L377.38,187.08 C377.468823,185.590395 378.70275,184.427854 380.195,184.427854 C381.68725,184.427854 382.921177,185.590395 383.01,187.08 L383.01,206.66 C383.012658,207.406989 382.71778,208.124296 382.190514,208.653438 C381.663248,209.18258 380.946994,209.480005 380.2,209.48 Z" id="Shape" fill="#6C2B5B" fill-rule="nonzero"></path>
            <path d="M391.62,215.44 C390.062557,215.44 388.8,214.177443 388.8,212.62 L388.8,193 C388.737644,191.954258 389.260126,190.960133 390.156797,190.418426 C391.053468,189.876719 392.176532,189.876719 393.073203,190.418426 C393.969874,190.960133 394.492356,191.954258 394.43,193 L394.43,212.58 C394.440688,213.333086 394.14968,214.059155 393.621831,214.596397 C393.093982,215.133638 392.373158,215.437405 391.62,215.44 Z" id="Shape" fill="#6C2B5B" fill-rule="nonzero"></path>
            <path d="M403.05,221.39 C402.303011,221.392658 401.585704,221.09778 401.056562,220.570514 C400.52742,220.043248 400.229995,219.326994 400.23,218.58 L400.23,199 C400.167644,197.954258 400.690126,196.960133 401.586797,196.418426 C402.483468,195.876719 403.606532,195.876719 404.503203,196.418426 C405.399874,196.960133 405.922356,197.954258 405.86,199 L405.86,218.58 C405.86,219.325258 405.563947,220.039993 405.03697,220.56697 C404.509993,221.093947 403.795258,221.39 403.05,221.39 Z" id="Shape" fill="#6C2B5B" fill-rule="nonzero"></path>
            <g id="Group" transform="translate(370.000000, 167.000000)" fill-rule="nonzero">
                <polygon id="Shape" fill="#D1D4F2" points="67.44 20.29 35.62 38.79 0.73 18.65 32.55 0.15"></polygon>
                <polygon id="Shape" fill="#8D919F" points="67.44 20.29 67.43 23.46 35.61 41.96 35.62 38.79"></polygon>
                <polygon id="Shape" fill="#A5A8BB" points="35.62 38.79 35.61 41.96 0.72 21.82 0.73 18.65"></polygon>
            </g>
            <g id="Group" transform="translate(374.000000, 162.000000)" fill-rule="nonzero">
                <polygon id="Shape" fill="#9D8CAC" points="6.82 22.96 35.41 6.34 53.32 16.68 24.73 33.3"></polygon>
                <polygon id="Shape" fill="#9D8CAC" points="0.14 20.2 28.73 3.58 44.4 0.36 15.81 16.98"></polygon>
                <path d="M15.8,17 L31.41,38.27 L31.41,41.63 L0.14,23.58 L0.14,20.2 L15.8,17 Z M6.8,23 L24.71,33.34 L15.77,21.16 L6.77,23 L6.8,23 Z" id="Shape" fill="#654A7D"></path>
                <polygon id="Shape" fill="#89789B" points="15.81 16.98 44.4 0.36 60 21.63 31.41 38.25"></polygon>
                <polygon id="Shape" fill="#3E1C5E" points="31.41 38.25 60 21.63 59.99 24.99 31.4 41.61"></polygon>
            </g>
            <g id="Group" opacity="0.1" transform="translate(69.000000, 271.000000)" fill="#000000" fill-rule="nonzero">
                <polygon id="Shape" points="82.31 23.81 41.43 47.58 0.27 23.82 41.15 0.06"></polygon>
            </g>
            <g id="Group" transform="translate(69.000000, 269.000000)" fill-rule="nonzero">
                <polygon id="Shape" fill="#D1D4F2" points="71.78 21.65 36.14 42.37 0.27 21.66 35.9 0.95"></polygon>
                <polygon id="Shape" fill="#8D919F" points="71.78 21.65 71.76 25.79 36.13 46.5 36.14 42.37"></polygon>
                <polygon id="Shape" fill="#A5A8BB" points="36.14 42.37 36.13 46.5 0.26 25.79 0.27 21.66"></polygon>
            </g>
            <g id="Group" transform="translate(75.000000, 268.000000)" fill-rule="nonzero">
                <polygon id="Shape" fill="#D1D4F2" points="59.72 18.08 30.12 35.29 0.33 18.09 29.92 0.88"></polygon>
                <polygon id="Shape" fill="#8D919F" points="59.72 18.08 59.71 22.21 30.11 39.42 30.12 35.29"></polygon>
                <polygon id="Shape" fill="#A5A8BB" points="30.12 35.29 30.11 39.42 0.31 22.22 0.33 18.09"></polygon>
            </g>
            <path d="M128.83,287.22 C128.079546,287.225346 127.358135,286.93028 126.826532,286.400555 C126.294929,285.87083 125.99731,285.150468 126,284.4 L126,264.82 C126.088823,263.330395 127.32275,262.167854 128.815,262.167854 C130.30725,262.167854 131.541177,263.330395 131.63,264.82 L131.63,284.4 C131.630039,285.949666 130.379627,287.209009 128.83,287.22 Z" id="Shape" fill="#6C2B5B" fill-rule="nonzero"></path>
            <g id="Group" transform="translate(85.000000, 256.000000)" fill-rule="nonzero">
                <polygon id="Shape" fill="#734A6A" points="41.71 15.2 26.07 24.29 0.7 9.65 16.34 0.56"></polygon>
                <polygon id="Shape" fill="#86567B" points="41.71 15.2 41.66 31.66 26.03 40.75 26.07 24.29"></polygon>
                <polygon id="Shape" fill="#956C89" points="26.07 24.29 26.03 40.75 0.66 26.11 0.7 9.65"></polygon>
            </g>
            <path d="M82.9,287.73 C81.3480799,287.73 80.09,286.47192 80.09,284.92 L80.09,265.33 C80.09,263.772557 81.352557,262.51 82.91,262.51 C84.467443,262.51 85.73,263.772557 85.73,265.33 L85.73,284.92 C85.730019,285.668737 85.4312224,286.386519 84.8999116,286.914075 C84.3686008,287.441631 83.6487176,287.735329 82.9,287.73 Z" id="Shape" fill="#6C2B5B" fill-rule="nonzero"></path>
            <path d="M94.33,293.69 C92.772557,293.69 91.51,292.427443 91.51,290.87 L91.51,271.29 C91.5988228,269.800395 92.8327496,268.637854 94.325,268.637854 C95.8172504,268.637854 97.0511772,269.800395 97.14,271.29 L97.14,290.87 C97.1426583,291.616989 96.8477796,292.334296 96.320514,292.863438 C95.7932483,293.39258 95.0769942,293.690005 94.33,293.69 Z" id="Shape" fill="#6C2B5B" fill-rule="nonzero"></path>
            <path d="M105.75,299.65 C105.003006,299.650005 104.286752,299.35258 103.759486,298.823438 C103.23222,298.294296 102.937342,297.576989 102.94,296.83 L102.94,277.25 C102.94,275.692557 104.202557,274.43 105.76,274.43 C107.317443,274.43 108.58,275.692557 108.58,277.25 L108.58,296.83 C108.580005,297.579646 108.281526,298.298444 107.750509,298.827585 C107.219491,299.356726 106.499642,299.652658 105.75,299.65 Z" id="Shape" fill="#6C2B5B" fill-rule="nonzero"></path>
            <g id="Group" transform="translate(73.000000, 245.000000)" fill-rule="nonzero">
                <polygon id="Shape" fill="#D1D4F2" points="67.15 20.54 35.33 39.04 0.44 18.9 32.26 0.4"></polygon>
                <polygon id="Shape" fill="#8D919F" points="67.15 20.54 67.14 23.71 35.32 42.21 35.33 39.04"></polygon>
                <polygon id="Shape" fill="#A5A8BB" points="35.33 39.04 35.32 42.21 0.43 22.07 0.44 18.9"></polygon>
            </g>
            <g id="Group" transform="translate(76.000000, 240.000000)" fill-rule="nonzero">
                <polygon id="Shape" fill="#9D8CAC" points="7.53 23.22 36.12 6.6 54.03 16.93 25.44 33.55"></polygon>
                <polygon id="Shape" fill="#9D8CAC" points="0.84 20.46 29.44 3.83 45.1 0.61 16.51 17.23"></polygon>
                <path d="M16.51,17.23 L32.12,38.51 L32.12,41.86 L0.85,23.81 L0.85,20.46 L16.51,17.23 Z M7.51,23.23 L25.42,33.56 L16.48,21.38 L7.48,23.23 L7.51,23.23 Z" id="Shape" fill="#654A7D"></path>
                <polygon id="Shape" fill="#89789B" points="16.51 17.23 45.1 0.61 60.71 21.88 32.12 38.51"></polygon>
                <polygon id="Shape" fill="#3E1C5E" points="32.12 38.51 60.71 21.88 60.7 25.24 32.11 41.86"></polygon>
            </g>
            <g id="Group" opacity="0.1" transform="translate(291.000000, 271.000000)" fill="#000000" fill-rule="nonzero">
                <polygon id="Shape" points="82.06 23.79 41.17 47.55 0.01 23.8 40.9 0.03"></polygon>
            </g>
            <g id="Group" transform="translate(291.000000, 269.000000)" fill-rule="nonzero">
                <polygon id="Shape" fill="#D1D4F2" points="71.52 21.63 35.88 42.34 0.01 21.63 35.65 0.92"></polygon>
                <polygon id="Shape" fill="#8D919F" points="71.52 21.63 71.51 25.76 35.87 46.47 35.88 42.34"></polygon>
                <polygon id="Shape" fill="#A5A8BB" points="35.88 42.34 35.87 46.47 0 25.77 0.01 21.63"></polygon>
            </g>
            <g id="Group" transform="translate(297.000000, 268.000000)" fill-rule="nonzero">
                <polygon id="Shape" fill="#D1D4F2" points="59.46 18.05 29.86 35.26 0.07 18.06 29.67 0.86"></polygon>
                <polygon id="Shape" fill="#8D919F" points="59.46 18.05 59.45 22.19 29.85 39.39 29.86 35.26"></polygon>
                <polygon id="Shape" fill="#A5A8BB" points="29.86 35.26 29.85 39.39 0.06 22.19 0.07 18.06"></polygon>
            </g>
            <path d="M350.57,287.19 C349.01808,287.19 347.76,285.93192 347.76,284.38 L347.76,264.8 C347.697644,263.754258 348.220126,262.760133 349.116797,262.218426 C350.013468,261.676719 351.136532,261.676719 352.033203,262.218426 C352.929874,262.760133 353.452356,263.754258 353.39,264.8 L353.39,284.38 C353.390005,285.126994 353.09258,285.843248 352.563438,286.370514 C352.034296,286.89778 351.316989,287.192658 350.57,287.19 Z" id="Shape" fill="#6C2B5B" fill-rule="nonzero"></path>
            <g id="Group" transform="translate(307.000000, 256.000000)" fill-rule="nonzero">
                <polygon id="Shape" fill="#734A6A" points="41.45 15.18 25.81 24.27 0.44 9.62 16.08 0.53"></polygon>
                <polygon id="Shape" fill="#86567B" points="41.45 15.18 41.4 31.63 25.77 40.72 25.81 24.27"></polygon>
                <polygon id="Shape" fill="#956C89" points="25.81 24.27 25.77 40.72 0.4 26.08 0.44 9.62"></polygon>
            </g>
            <path d="M304.65,287.71 C303.092557,287.71 301.83,286.447443 301.83,284.89 L301.83,265.31 C301.767644,264.264258 302.290126,263.270133 303.186797,262.728426 C304.083468,262.186719 305.206532,262.186719 306.103203,262.728426 C306.999874,263.270133 307.522356,264.264258 307.46,265.31 L307.46,284.89 C307.46001,286.443546 306.203536,287.704491 304.65,287.71 Z" id="Shape" fill="#6C2B5B" fill-rule="nonzero"></path>
            <path d="M316.07,293.66 C314.516454,293.66001 313.255509,292.403536 313.25,290.85 L313.25,271.27 C313.187644,270.224258 313.710126,269.230133 314.606797,268.688426 C315.503468,268.146719 316.626532,268.146719 317.523203,268.688426 C318.419874,269.230133 318.942356,270.224258 318.88,271.27 L318.88,290.85 C318.88,292.40192 317.62192,293.66 316.07,293.66 Z" id="Shape" fill="#6C2B5B" fill-rule="nonzero"></path>
            <path d="M327.5,299.62 C326.753011,299.622658 326.035704,299.32778 325.506562,298.800514 C324.97742,298.273248 324.679995,297.556994 324.68,296.81 L324.68,277.22 C324.768823,275.730395 326.00275,274.567854 327.495,274.567854 C328.98725,274.567854 330.221177,275.730395 330.31,277.22 L330.31,296.8 C330.312658,297.546989 330.01778,298.264296 329.490514,298.793438 C328.963248,299.32258 328.246994,299.620005 327.5,299.62 Z" id="Shape" fill="#6C2B5B" fill-rule="nonzero"></path>
            <g id="Group" transform="translate(295.000000, 245.000000)" fill-rule="nonzero">
                <polygon id="Shape" fill="#D1D4F2" points="66.89 20.51 35.07 39.01 0.18 18.87 32 0.38"></polygon>
                <polygon id="Shape" fill="#8D919F" points="66.89 20.51 66.88 23.69 35.06 42.18 35.07 39.01"></polygon>
                <polygon id="Shape" fill="#A5A8BB" points="35.07 39.01 35.06 42.18 0.17 22.04 0.18 18.87"></polygon>
            </g>
            <g id="Group" transform="translate(298.000000, 240.000000)" fill-rule="nonzero">
                <polygon id="Shape" fill="#9D8CAC" points="7.27 23.19 35.86 6.57 53.77 16.91 25.18 33.53"></polygon>
                <polygon id="Shape" fill="#9D8CAC" points="0.59 20.43 29.18 3.81 44.85 0.59 16.25 17.21"></polygon>
                <path d="M16.26,17.21 L31.86,38.48 L31.86,41.84 L0.59,23.84 L0.59,20.48 L16.26,17.21 Z M7.26,23.21 L25.17,33.55 L16.23,21.36 L7.23,23.21 L7.26,23.21 Z" id="Shape" fill="#654A7D"></path>
                <polygon id="Shape" fill="#89789B" points="16.25 17.21 44.85 0.59 60.45 21.86 31.86 38.48"></polygon>
                <polygon id="Shape" fill="#3E1C5E" points="31.86 38.48 60.45 21.86 60.44 25.21 31.85 41.83"></polygon>
            </g>
            <g id="Group" opacity="0.1" transform="translate(183.000000, 305.000000)" fill="#000000" fill-rule="nonzero">
                <polygon id="Shape" points="82.99 24.73 42.1 48.5 0.94 24.74 41.83 0.98"></polygon>
            </g>
            <g id="Group" transform="translate(183.000000, 304.000000)" fill-rule="nonzero">
                <polygon id="Shape" fill="#D1D4F2" points="72.45 21.57 36.81 42.28 0.94 21.58 36.58 0.87"></polygon>
                <polygon id="Shape" fill="#8D919F" points="72.45 21.57 72.44 25.7 36.8 46.42 36.81 42.28"></polygon>
                <polygon id="Shape" fill="#A5A8BB" points="36.81 42.28 36.8 46.42 0.93 25.71 0.94 21.58"></polygon>
            </g>
            <g id="Group" transform="translate(189.000000, 303.000000)" fill-rule="nonzero">
                <polygon id="Shape" fill="#D1D4F2" points="60.39 18 30.79 35.2 1 18 30.6 0.8"></polygon>
                <polygon id="Shape" fill="#8D919F" points="60.39 18 60.38 22.13 30.78 39.34 30.79 35.2"></polygon>
                <polygon id="Shape" fill="#A5A8BB" points="30.79 35.2 30.78 39.34 0.99 22.14 1 18"></polygon>
            </g>
            <path d="M243.5,322.14 C242.753006,322.140005 242.036752,321.84258 241.509486,321.313438 C240.98222,320.784296 240.687342,320.066989 240.69,319.32 L240.69,299.74 C240.627644,298.694258 241.150126,297.700133 242.046797,297.158426 C242.943468,296.616719 244.066532,296.616719 244.963203,297.158426 C245.859874,297.700133 246.382356,298.694258 246.32,299.74 L246.32,319.32 C246.32,320.067911 246.022894,320.785189 245.494041,321.314041 C244.965189,321.842894 244.247911,322.14 243.5,322.14 Z" id="Shape" fill="#6C2B5B" fill-rule="nonzero"></path>
            <g id="Group" transform="translate(200.000000, 291.000000)" fill-rule="nonzero">
                <polygon id="Shape" fill="#734A6A" points="41.38 15.12 25.74 24.21 0.37 9.57 16.01 0.48"></polygon>
                <polygon id="Shape" fill="#86567B" points="41.38 15.12 41.34 31.58 25.7 40.67 25.74 24.21"></polygon>
                <polygon id="Shape" fill="#956C89" points="25.74 24.21 25.7 40.67 0.33 26.02 0.37 9.57"></polygon>
            </g>
            <path d="M197.58,322.65 C196.022557,322.65 194.76,321.387443 194.76,319.83 L194.76,300.25 C194.848823,298.760395 196.08275,297.597854 197.575,297.597854 C199.06725,297.597854 200.301177,298.760395 200.39,300.25 L200.39,319.83 C200.392658,320.576989 200.09778,321.294296 199.570514,321.823438 C199.043248,322.35258 198.326994,322.650005 197.58,322.65 Z" id="Shape" fill="#6C2B5B" fill-rule="nonzero"></path>
            <path d="M209,328.61 C208.253006,328.610005 207.536752,328.31258 207.009486,327.783438 C206.48222,327.254296 206.187342,326.536989 206.19,325.79 L206.19,306.21 C206.127644,305.164258 206.650126,304.170133 207.546797,303.628426 C208.443468,303.086719 209.566532,303.086719 210.463203,303.628426 C211.359874,304.170133 211.882356,305.164258 211.82,306.21 L211.82,325.79 C211.82,327.347443 210.557443,328.61 209,328.61 Z" id="Shape" fill="#6C2B5B" fill-rule="nonzero"></path>
            <path d="M220.43,334.57 C218.872557,334.57 217.61,333.307443 217.61,331.75 L217.61,312.17 C217.547644,311.124258 218.070126,310.130133 218.966797,309.588426 C219.863468,309.046719 220.986532,309.046719 221.883203,309.588426 C222.779874,310.130133 223.302356,311.124258 223.24,312.17 L223.24,331.75 C223.234557,333.301288 221.981258,334.559046 220.43,334.57 Z" id="Shape" fill="#6C2B5B" fill-rule="nonzero"></path>
            <g id="Group" transform="translate(188.000000, 280.000000)" fill-rule="nonzero">
                <polygon id="Shape" fill="#D1D4F2" points="66.82 20.46 35 38.96 0.11 18.82 31.93 0.32"></polygon>
                <polygon id="Shape" fill="#8D919F" points="66.82 20.46 66.81 23.63 35 42.13 35 38.96"></polygon>
                <polygon id="Shape" fill="#A5A8BB" points="35 38.96 35 42.13 0.1 21.99 0.11 18.82"></polygon>
            </g>
            <g id="Group" transform="translate(191.000000, 275.000000)" fill-rule="nonzero">
                <polygon id="Shape" fill="#9D8CAC" points="7.2 23.13 35.8 6.51 53.7 16.85 25.11 33.47"></polygon>
                <polygon id="Shape" fill="#9D8CAC" points="0.52 20.37 29.11 3.75 44.78 0.53 16.19 17.15"></polygon>
                <path d="M16.19,17.15 L31.79,38.42 L31.79,41.78 L0.52,23.78 L0.52,20.42 L16.19,17.15 Z M7.19,23.15 L25.1,33.48 L16.17,21.3 L7.17,23.15 L7.19,23.15 Z" id="Shape" fill="#654A7D"></path>
                <polygon id="Shape" fill="#89789B" points="16.19 17.15 44.78 0.53 60.38 21.8 31.79 38.42"></polygon>
                <polygon id="Shape" fill="#3E1C5E" points="31.79 38.42 60.38 21.8 60.37 25.16 31.78 41.78"></polygon>
            </g>
            <polygon id="Shape" fill="#000000" fill-rule="nonzero" opacity="0.1" points="247.98 220.06 236.83 226.45 219.31 216.36 230.46 209.97"></polygon>
        </g>
    </g>
</svg>