<?xml version="1.0" encoding="UTF-8"?>
<svg width="130px" height="150px" viewBox="0 0 130 150" version="1.1" xmlns="http://www.w3.org/2000/svg" xmlns:xlink="http://www.w3.org/1999/xlink">
    <!-- Generator: sketchtool 50.2 (55047) - http://www.bohemiancoding.com/sketch -->
    <title>581A8560-7C69-4704-9670-D225381D9A4A</title>
    <desc>Created with sketchtool.</desc>
    <defs></defs>
    <g id="Portal" stroke="none" stroke-width="1" fill="none" fill-rule="evenodd">
        <g id="Marketplace-v2" transform="translate(-200.000000, -1360.000000)">
            <g id="Group-14" transform="translate(200.000000, 1250.000000)">
                <g id="BTC-Tile" transform="translate(0.000000, 110.000000)">
                    <rect id="Rectangle-3-Copy-2" fill="#373241" x="0" y="0" width="130" height="150"></rect>
                    <path d="M48.6171875,114.150391 L52.6162109,114.150391 C54.4384857,114.150391 55.7612264,114.409665 56.5844727,114.928223 C57.407719,115.44678 57.8193359,116.271479 57.8193359,117.402344 C57.8193359,118.169926 57.639162,118.799802 57.2788086,119.291992 C56.9184552,119.784182 56.4394561,120.080078 55.8417969,120.179688 L55.8417969,120.267578 C56.6562541,120.44922 57.2436505,120.78906 57.6040039,121.287109 C57.9643573,121.785159 58.1445312,122.447261 58.1445312,123.273438 C58.1445312,124.445318 57.7211956,125.359372 56.8745117,126.015625 C56.0278278,126.671878 54.877937,127 53.4248047,127 L48.6171875,127 L48.6171875,114.150391 Z M51.3417969,119.239258 L52.9238281,119.239258 C53.6621131,119.239258 54.1967757,119.125001 54.527832,118.896484 C54.8588884,118.667968 55.0244141,118.290042 55.0244141,117.762695 C55.0244141,117.270505 54.8442401,116.917482 54.4838867,116.703613 C54.1235334,116.489745 53.5537148,116.382812 52.7744141,116.382812 L51.3417969,116.382812 L51.3417969,119.239258 Z M51.3417969,121.401367 L51.3417969,124.75 L53.1171875,124.75 C53.8671912,124.75 54.4208967,124.606447 54.7783203,124.319336 C55.135744,124.032225 55.3144531,123.592776 55.3144531,123.000977 C55.3144531,121.934565 54.552742,121.401367 53.0292969,121.401367 L51.3417969,121.401367 Z M66.4175499,127 L63.6929406,127 L63.6929406,116.417969 L60.2036827,116.417969 L60.2036827,114.150391 L69.9068077,114.150391 L69.9068077,116.417969 L66.4175499,116.417969 L66.4175499,127 Z M78.2677171,116.233398 C77.2423213,116.233398 76.4483839,116.618648 75.8858811,117.38916 C75.3233783,118.159672 75.0421311,119.233392 75.0421311,120.610352 C75.0421311,123.4756 76.1173157,124.908203 78.2677171,124.908203 C79.1700653,124.908203 80.2628278,124.682619 81.5460374,124.231445 L81.5460374,126.516602 C80.4913446,126.956057 79.313622,127.175781 78.0128343,127.175781 C76.1436843,127.175781 74.7140111,126.608892 73.7237718,125.475098 C72.7335324,124.341303 72.2384202,122.713878 72.2384202,120.592773 C72.2384202,119.256829 72.4815818,118.086431 72.9679124,117.081543 C73.4542429,116.076655 74.1529664,115.306155 75.0641038,114.77002 C75.9752411,114.233884 77.0431016,113.96582 78.2677171,113.96582 C79.5157702,113.96582 80.7696639,114.267575 82.0294358,114.871094 L81.1505296,117.085938 C80.6700584,116.857421 80.1866648,116.658204 79.7003342,116.488281 C79.2140037,116.318359 78.7364694,116.233398 78.2677171,116.233398 Z" id="BTC" fill="#FFFFFF"></path>
                    <path d="M77.3210526,59.2 L77.3210526,59.0631579 C81.2894737,57.0105263 83.4789474,53.1105263 83.4789474,48.3894737 C83.4789474,42.7789474 80.4,38.6052632 75.8842105,36.8263158 C73.8315789,36.0052632 71.8473684,35.6631579 69.2473684,35.5263158 L69.2473684,28.4789474 C69.2473684,28.2052632 69.0421053,28 68.7684211,28 L64.8,28 C64.5263158,28 64.3210526,28.2052632 64.3210526,28.4789474 L64.3210526,35.4578947 L59.0526316,35.4578947 L59.0526316,28.4789474 C59.0526316,28.2052632 58.8473684,28 58.5736842,28 L54.6052632,28 C54.3315789,28 54.1263158,28.2052632 54.1263158,28.4789474 L54.1263158,35.4578947 L45.0263158,35.4578947 C44.4789474,35.4578947 44,35.8684211 44,36.4842105 L44,41.4789474 C44,42.0263158 44.4105263,42.5052632 45.0263158,42.5052632 L47.2157895,42.5052632 C48.7894737,42.5052632 50.0210526,43.8052632 50.0210526,45.3105263 L50.0210526,75.7578947 C50.0210526,77.3315789 48.7210526,78.5631579 47.2157895,78.5631579 L45.0263158,78.5631579 C44.4789474,78.5631579 44,78.9736842 44,79.5894737 L44,84.5157895 C44,85.0631579 44.4105263,85.5421053 45.0263158,85.5421053 L54.1263158,85.5421053 L54.1263158,92.5210526 C54.1263158,92.7947368 54.3315789,93 54.6052632,93 L58.5736842,93 C58.8473684,93 59.0526316,92.7947368 59.0526316,92.5210526 L59.0526316,85.5421053 L64.3210526,85.5421053 L64.3210526,92.5210526 C64.3210526,92.7947368 64.5263158,93 64.8,93 L68.7684211,93 C69.0421053,93 69.2473684,92.7947368 69.2473684,92.5210526 L69.2473684,85.4736842 C71.5052632,85.4736842 73.4210526,85.2684211 75.5421053,84.6526316 C80.9473684,82.9421053 85.4631579,78.0157895 85.4631579,71.0368421 C85.3947368,65.7684211 82.8631579,60.9105263 77.3210526,59.2 Z M59.1210526,42.9157895 L66.8526316,42.9157895 C68.6315789,42.9157895 70.0684211,43.1894737 71.1631579,43.6684211 C73.1473684,44.6947368 74.0368421,46.8842105 74.0368421,49.3473684 C74.0368421,53.2473684 71.8473684,55.9157895 67.8789474,55.9157895 L59.0526316,55.9157895 L59.0526316,42.9157895 L59.1210526,42.9157895 Z M72.0526316,77.5368421 C71.0263158,78.0157895 69.6578947,78.0842105 68.4947368,78.0842105 L59.1894737,78.0842105 L59.1894737,63.2368421 L68.8368421,63.2368421 C73.4210526,63.2368421 76.0894737,66.1789474 76.0894737,70.4894737 C76.0210526,73.6368421 74.5842105,76.5105263 72.0526316,77.5368421 Z" id="BTC" fill="#FFFFFF" fill-rule="nonzero"></path>
                </g>
            </g>
        </g>
    </g>
</svg>