<?xml version="1.0" encoding="UTF-8"?>
<svg width="11px" height="17px" viewBox="0 0 11 17" version="1.1" xmlns="http://www.w3.org/2000/svg" xmlns:xlink="http://www.w3.org/1999/xlink">
    <!-- Generator: sketchtool 50.2 (55047) - http://www.bohemiancoding.com/sketch -->
    <title>B0071286-0CD3-42FC-A5D7-81BEF1CDF2B2</title>
    <desc>Created with sketchtool.</desc>
    <defs></defs>
    <g id="Portal" stroke="none" stroke-width="1" fill="none" fill-rule="evenodd">
        <g id="Marketplace-v2" transform="translate(-670.000000, -2222.000000)" fill="#000000" fill-rule="nonzero">
            <g id="Group-5" transform="translate(200.000000, 1960.000000)">
                <path d="M478.714737,270.16 L478.714737,270.124211 C479.752632,269.587368 480.325263,268.567368 480.325263,267.332632 C480.325263,265.865263 479.52,264.773684 478.338947,264.308421 C477.802105,264.093684 477.283158,264.004211 476.603158,263.968421 L476.603158,262.125263 C476.603158,262.053684 476.549474,262 476.477895,262 L475.44,262 C475.368421,262 475.314737,262.053684 475.314737,262.125263 L475.314737,263.950526 L473.936842,263.950526 L473.936842,262.125263 C473.936842,262.053684 473.883158,262 473.811579,262 L472.773684,262 C472.702105,262 472.648421,262.053684 472.648421,262.125263 L472.648421,263.950526 L470.268421,263.950526 C470.125263,263.950526 470,264.057895 470,264.218947 L470,265.525263 C470,265.668421 470.107368,265.793684 470.268421,265.793684 L470.841053,265.793684 C471.252632,265.793684 471.574737,266.133684 471.574737,266.527368 L471.574737,274.490526 C471.574737,274.902105 471.234737,275.224211 470.841053,275.224211 L470.268421,275.224211 C470.125263,275.224211 470,275.331579 470,275.492632 L470,276.781053 C470,276.924211 470.107368,277.049474 470.268421,277.049474 L472.648421,277.049474 L472.648421,278.874737 C472.648421,278.946316 472.702105,279 472.773684,279 L473.811579,279 C473.883158,279 473.936842,278.946316 473.936842,278.874737 L473.936842,277.049474 L475.314737,277.049474 L475.314737,278.874737 C475.314737,278.946316 475.368421,279 475.44,279 L476.477895,279 C476.549474,279 476.603158,278.946316 476.603158,278.874737 L476.603158,277.031579 C477.193684,277.031579 477.694737,276.977895 478.249474,276.816842 C479.663158,276.369474 480.844211,275.081053 480.844211,273.255789 C480.826316,271.877895 480.164211,270.607368 478.714737,270.16 Z M473.954737,265.901053 L475.976842,265.901053 C476.442105,265.901053 476.817895,265.972632 477.104211,266.097895 C477.623158,266.366316 477.855789,266.938947 477.855789,267.583158 C477.855789,268.603158 477.283158,269.301053 476.245263,269.301053 L473.936842,269.301053 L473.936842,265.901053 L473.954737,265.901053 Z M477.336842,274.955789 C477.068421,275.081053 476.710526,275.098947 476.406316,275.098947 L473.972632,275.098947 L473.972632,271.215789 L476.495789,271.215789 C477.694737,271.215789 478.392632,271.985263 478.392632,273.112632 C478.374737,273.935789 477.998947,274.687368 477.336842,274.955789 Z" id="BTC"></path>
            </g>
        </g>
    </g>
</svg>