<?xml version="1.0" encoding="UTF-8" standalone="no"?>
<svg width="675px" height="330px" viewBox="0 0 675 330" version="1.1" xmlns="http://www.w3.org/2000/svg" xmlns:xlink="http://www.w3.org/1999/xlink">
    <!-- Generator: Sketch 49.3 (51167) - http://www.bohemiancoding.com/sketch -->
    <title>shyft-logo-horizontal-tm</title>
    <desc>Created with Sketch.</desc>
    <defs></defs>
    <g id="Page-1" stroke="none" stroke-width="1" fill="none" fill-rule="evenodd">
        <g id="shyft-logo-horizontal-tm" fill="#FFFFFF" fill-rule="nonzero">
            <g id="Group">
                <path d="M200.84058,151.324324 L159.543478,110 L159.543478,105.243243 C159.543478,73.7297297 133.992754,47.8648649 102.202899,47.8648649 C70.4130435,47.8648649 44.8623188,73.4324324 44.8623188,105.243243 L44.8623188,155.783784 C44.8623188,159.054054 46.0507246,162.027027 48.4275362,164.108108 L89.7246377,205.135135 L89.7246377,227.72973 C89.7246377,234.27027 95.0724638,239.621622 101.608696,239.621622 C108.144928,239.621622 113.492754,234.27027 113.492754,227.72973 L113.492754,200.378378 C113.492754,197.108108 112.304348,194.135135 109.927536,192.054054 L68.6304348,150.72973 L68.6304348,105.243243 C68.6304348,86.8108108 83.7826087,71.6486486 102.202899,71.6486486 C120.623188,71.6486486 135.775362,86.8108108 135.775362,105.243243 L135.775362,114.162162 C135.775362,115.351351 135.775362,116.540541 136.072464,117.72973 C136.072464,117.72973 136.072464,117.72973 136.072464,118.027027 C136.072464,118.621622 136.369565,119.216216 136.666667,119.810811 C137.26087,121.594595 138.746377,123.378378 140.231884,124.567568 L180.934783,165.297297 L180.934783,228.027027 C180.934783,271.135135 145.876812,306.513514 102.5,306.513514 C60.9057971,305.918919 26.7391304,273.810811 24.0652174,232.783784 C23.7681159,226.243243 17.826087,221.189189 11.2898551,221.783784 C4.75362319,222.081081 -0.297101449,228.027027 0.297101449,234.567568 C3.86231884,288.081081 48.7246377,330 102.202899,330 C158.652174,330 204.405797,284.216216 204.405797,227.72973 L204.405797,159.945946 C204.405797,156.675676 202.92029,153.702703 200.84058,151.324324 Z" id="Shape"></path>
                <path d="M44.8623188,218.216216 L44.8623188,227.72973 C44.8623188,259.243243 70.4130435,285.108108 102.202899,285.108108 C133.992754,285.108108 159.543478,259.540541 159.543478,227.72973 L159.543478,178.081081 C159.543478,174.810811 158.355072,171.837838 155.978261,169.756757 L113.789855,127.540541 L113.789855,104.945946 C113.789855,98.4054054 108.442029,93.0540541 101.905797,93.0540541 C95.3695652,93.0540541 90.0217391,98.4054054 90.0217391,104.945946 L90.0217391,132.594595 C90.0217391,135.864865 91.2101449,138.837838 93.5869565,140.918919 L135.775362,182.837838 L135.775362,227.432432 C135.775362,245.864865 120.623188,261.027027 102.202899,261.027027 C83.7826087,261.027027 68.6304348,245.864865 68.6304348,227.432432 L68.6304348,216.432432 C69.5217391,212.567568 68.6304348,208.405405 65.6594203,205.135135 L65.3623188,205.135135 C65.3623188,205.135135 65.0652174,204.837838 65.0652174,204.837838 L23.7681159,163.513514 L23.7681159,102.27027 C23.7681159,58.8648649 58.826087,23.7837838 102.202899,23.7837838 C142.014493,23.7837838 176.181159,54.7027027 180.043478,94.2432432 L180.043478,95.4324324 C180.637681,101.972973 186.282609,106.72973 192.818841,106.432432 C199.355072,105.837838 204.108696,100.189189 203.811594,93.6486486 L203.514493,91.8648649 C198.463768,39.5405405 154.789855,0 102.202899,0 C45.7536232,0 0,45.7837838 0,102.27027 L0,168.567568 C0,171.837838 1.1884058,174.810811 3.56521739,176.891892 L44.8623188,218.216216 Z" id="Shape"></path>
            </g>
            <g id="Group" transform="translate(255.000000, 95.000000)">
                <path d="M372.374424,131.667143 C372.07699,131.667143 371.482123,131.370595 371.184689,131.370595 C371.184689,131.370595 371.184689,131.370595 371.184689,131.370595 C359.882211,131.370595 358.097609,126.329286 358.097609,115.950119 L358.097609,59.0129762 L369.697521,59.0129762 C375.051327,59.0129762 379.512832,54.5647619 379.512832,49.2269048 C379.512832,43.8890476 375.051327,39.4408333 369.697521,39.4408333 L358.692476,39.4408333 L358.692476,10.6757143 C358.692476,4.7447619 353.933538,7.10542736e-15 347.984865,7.10542736e-15 L336.979819,7.10542736e-15 L336.979819,39.4408333 L299.205746,39.4408333 C299.205746,24.0203571 300.692914,18.3859524 315.267163,19.5721429 L315.267163,0.889642857 C315.267163,0.889642857 311.697959,0.296547619 306.04672,0.296547619 C282.252027,0.296547619 277.195655,12.1584524 277.195655,39.4408333 L269.759814,39.4408333 C264.406008,39.4408333 259.944503,43.8890476 259.944503,49.2269048 C259.944503,54.5647619 264.406008,59.0129762 269.759814,59.0129762 L277.195655,59.0129762 L277.195655,149.756548 L288.2007,149.756548 C294.149373,149.756548 298.908312,145.011786 298.908312,139.080833 L298.908312,59.0129762 L327.164509,59.0129762 L332.220881,59.0129762 L336.384952,59.0129762 L336.384952,109.129524 C336.384952,133.446429 339.359289,149.46 363.153981,150.942738 L370.589822,150.942738 C375.943628,150.942738 380.405133,146.494524 380.405133,141.156667 C380.405133,136.411905 377.133363,132.556786 372.374424,131.667143 Z" id="Shape"></path>
                <path d="M201.350074,150.053095 L176.365647,53.0820238 C174.581045,46.2614286 179.637417,39.737381 186.775825,39.737381 L187.96556,39.737381 C193.021932,39.737381 197.483436,43.2959524 198.375737,48.0407143 L212.057685,111.501905 L225.739633,48.0407143 C226.929368,42.9994048 231.093439,39.4408333 236.149811,39.4408333 L237.636979,39.4408333 C244.775387,39.4408333 249.831759,45.964881 248.047157,52.7854762 L215.626889,179.707857 C214.437155,184.452619 210.273083,187.714643 205.216711,187.714643 L191.23733,187.714643 L201.350074,150.053095 Z" id="Shape"></path>
                <path d="M104.386703,149.756548 L104.089269,149.756548 C98.1405964,149.756548 93.381658,145.011786 93.381658,139.080833 L93.381658,12.455 C93.381658,6.2275 98.4380301,1.4827381 104.386703,1.4827381 C110.335376,1.4827381 115.094315,6.2275 115.094315,12.1584524 L115.094315,39.1442857 C115.094315,39.1442857 118.366085,35.8822619 130.858298,35.8822619 C144.540246,35.8822619 162.386265,49.82 162.386265,71.1714286 L162.386265,138.784286 C162.386265,145.011786 157.329893,149.756548 151.38122,149.756548 L151.083787,149.756548 C145.135114,149.756548 140.376175,145.011786 140.376175,139.080833 L140.376175,76.2127381 C140.376175,63.4611905 136.806971,57.8267857 127.586528,57.8267857 C119.555819,57.8267857 115.094315,62.275 115.094315,72.6541667 L115.094315,138.784286 C115.094315,145.011786 110.335376,149.756548 104.386703,149.756548 Z" id="Shape"></path>
                <path d="M0.582358413,45.0752381 C0.582358413,23.4272619 15.454041,9.19297619 38.0589986,9.19297619 C55.3101505,9.19297619 68.6946648,18.6825 73.7510369,34.3995238 C75.8330725,41.220119 70.4792668,48.0407143 63.3408591,48.0407143 L62.1511245,48.0407143 C57.392186,48.0407143 53.2281149,44.7786905 51.7409466,40.3304762 C49.6589111,33.8064286 44.3051053,30.8409524 37.761565,30.8409524 C29.1359891,30.8409524 23.4847497,35.8822619 23.4847497,43.8890476 C23.4847497,68.5025 76.4279398,77.102381 76.4279398,113.874286 C76.4279398,136.708452 62.7459918,151.832381 38.3564323,151.832381 C19.9155458,151.832381 5.63873051,142.04631 0.582358413,125.439643 C-1.49967715,118.619048 3.85412859,111.798452 10.9925363,111.798452 L12.7771382,111.798452 C17.5360766,111.798452 21.4027141,115.060476 22.5924487,119.50869 C24.9719179,126.922381 31.2180246,129.887857 38.3564323,129.887857 C47.2794419,129.887857 53.8229822,124.55 53.8229822,115.357024 C54.1204159,91.6332143 0.582358413,79.7713095 0.582358413,45.0752381 Z" id="Shape"></path>
            </g>
            <path d="M656.538462,138.076923 L652.211538,138.076923 L652.211538,155 L649.038462,155 L649.038462,138.076923 L645,138.076923 L645,135 L656.538462,135 L656.538462,138.076923 Z M661.730769,143 L661.730769,155 L658.557692,155 L658.557692,135 L661.730769,135 L666.923077,147.923077 L672.115385,135 L675,135 L675,155 L671.826923,155 L671.826923,143 L667.788462,152.538462 L665.769231,152.538462 L661.730769,143 Z" id="Shape"></path>
        </g>
    </g>
</svg>