<?xml version="1.0" encoding="utf-8"?>
<!-- Generator: Adobe Illustrator 22.1.0, SVG Export Plug-In . SVG Version: 6.00 Build 0)  -->
<svg version="1.1" id="Layer_1" xmlns="http://www.w3.org/2000/svg" xmlns:xlink="http://www.w3.org/1999/xlink" x="0px" y="0px"
	 viewBox="0 0 115 50" style="enable-background:new 0 0 115 50;" xml:space="preserve">
<style type="text/css">
	.st0{fill:#FFFFFF;}
</style>
<title>LOGO - colour</title>
<desc>Created with Sketch.</desc>
<path id="Combined-Shape" class="st0" d="M112.4,32.5c0,0.8,0.3,1.1,1.4,1.1h0.8v4h-3.8c-2.3-0.1-3.2-1-3.2-3.3V24.1h-2v-4h2v-4.5
	h4.8v4.5h2.2v4h-2.2V32.5z M101.1,37.6h-4.8V24.1h-1.9v-4h1.9v-0.9c0-4.7,2.3-6.8,7.1-6.7v4.4c-1.7,0.2-2.3,0.8-2.3,2.3v0.9h2.3v4
	h-2.3V37.6z M87.4,20.1h4.8v9.2v1.5v8.5v1.1c0,4.4-2.1,6.6-6.4,6.7l-4,0v-4.4h3.4v0c1.7-0.2,2.3-0.8,2.3-2.3v-1.1v-1.3
	c-1.4,0-1.8,0-2.8,0c-2.4,0-4.5-0.7-5.8-1.9c-1.2-1.1-1.8-2.8-1.8-5.1V20.1h4.8v10.3c0,2,1.2,3.2,2.9,3.2c1.8,0,2.1,0,2.8,0v-4.4
	V20.1z M64.1,12.6v1.1v6.4c1.4,0,1.8,0,2.8,0c2.4,0,4.5,0.7,5.8,1.9c1.2,1.1,1.8,2.8,1.8,5.1v10.6h-4.8v-10c0-2-1.2-3.2-2.9-3.2
	c-1.8,0-2.1,0-2.8,0v13.2h-4.8V14v-1.4H64.1z M45,30.2v0.3c0,1.7,1.5,2.9,3.4,2.9c1.9,0,3.3-1.2,3.3-2.7c0-0.8-0.4-1.5-1-2
	c-0.6-0.5-1.1-0.7-3-1.4c-5.5-2-7.4-4-7.4-7.8c0-4.5,3.3-7.6,8.3-7.6c4.9,0,8,2.9,8.4,7.7h-5.2c-0.2-2.1-1.2-3.1-3.3-3.1
	c-1.8,0-3.1,1.1-3.1,2.6c0,1,0.5,1.8,1.5,2.4c0.7,0.4,1.1,0.6,2.9,1.2c2.7,1,4.1,1.7,5.2,2.8c1.3,1.2,2,2.9,2,4.8
	c0,4.6-3.5,7.6-8.6,7.6c-5.3,0-8.5-3-8.4-7.8H45z"/>
<path id="Combined-Shape_1_" class="st0" d="M30.4,22.9c0.3,0.4,0.5,0.8,0.5,1.3v10.3C31,43.1,24,50,15.5,50C7.4,50,0.6,43.6,0,35.5
	c-0.1-1,0.7-1.9,1.7-1.9c1-0.1,1.9,0.7,1.9,1.7c0.4,6.2,5.6,11.1,11.9,11.2c6.6,0,11.9-5.4,11.9-11.9V25l-6.2-6.2
	c-0.2-0.2-0.5-0.5-0.5-0.7c0-0.1-0.1-0.2-0.1-0.3c0,0,0,0,0,0c0-0.2,0-0.4,0-0.5v-1.4c0-2.8-2.3-5.1-5.1-5.1s-5.1,2.3-5.1,5.1v6.9
	l6.3,6.3c0.4,0.3,0.5,0.8,0.5,1.3v4.1c0,1-0.8,1.8-1.8,1.8s-1.8-0.8-1.8-1.8v-3.4l-6.3-6.2c-0.4-0.3-0.5-0.8-0.5-1.3v-7.7
	c0-4.8,3.9-8.7,8.7-8.7s8.7,3.9,8.7,8.7v0.7L30.4,22.9z M6.8,33.1l-6.3-6.3C0.2,26.5,0,26,0,25.5v-10C0,6.9,6.9,0,15.5,0
	c8,0,14.6,6,15.4,13.9l0,0.3c0,1-0.7,1.8-1.7,1.9c-1,0-1.8-0.7-1.9-1.7v-0.2c-0.6-6-5.8-10.7-11.8-10.7C8.9,3.6,3.6,8.9,3.6,15.5
	v9.3L9.9,31l0,0h0c0.5,0.5,0.6,1.1,0.5,1.7v1.7c0,2.8,2.3,5.1,5.1,5.1s5.1-2.3,5.1-5.1v-6.8l-6.4-6.4c-0.4-0.3-0.5-0.8-0.5-1.3v-4.2
	c0-1,0.8-1.8,1.8-1.8s1.8,0.8,1.8,1.8v3.4l6.4,6.4c0.4,0.3,0.5,0.8,0.5,1.3v7.5c0,4.8-3.9,8.7-8.7,8.7s-8.7-3.9-8.7-8.7V33.1z"/>
</svg>
