<?xml version="1.0" encoding="UTF-8"?>
<svg width="148px" height="50px" viewBox="0 0 148 50" version="1.1" xmlns="http://www.w3.org/2000/svg" xmlns:xlink="http://www.w3.org/1999/xlink">
    <!-- Generator: Sketch 52.6 (67491) - http://www.bohemiancoding.com/sketch -->
    <title>shyft-scope-logo</title>
    <desc>Created with Sketch.</desc>
    <g id="Page-1" stroke="none" stroke-width="1" fill="none" fill-rule="evenodd">
        <g id="shyft-scope-logo">
            <path d="M30.4303909,22.9279279 C30.7454985,23.2882883 30.9705753,23.7387387 30.9705753,24.2342342 L30.9705753,34.5045045 C30.9705753,43.0630631 24.0382082,50 15.4852877,50 C7.38252086,50 0.585199824,43.6486486 0.0450153711,35.5405405 C-0.0450153711,34.5495495 0.720245938,33.6486486 1.7105841,33.6036036 C2.70092227,33.5135135 3.60122969,34.2792793 3.64624506,35.2702703 C4.0513834,41.4864865 9.22815108,46.3513514 15.530303,46.4414414 C22.1025472,46.4414414 27.414361,41.0810811 27.414361,34.5495495 L27.414361,25.045045 L21.2472552,18.8738739 C21.0221783,18.6936937 20.7971014,18.4234234 20.7070707,18.1531532 C20.6620553,18.0630631 20.61704,17.972973 20.61704,17.8828829 C20.61704,17.8378378 20.61704,17.8378378 20.61704,17.8378378 C20.5720246,17.6576577 20.5720246,17.4774775 20.5720246,17.2972973 L20.5720246,15.9459459 C20.5720246,13.1531532 18.2762407,10.8558559 15.4852877,10.8558559 C12.6943347,10.8558559 10.3985507,13.1531532 10.3985507,15.9459459 L10.3985507,22.8378378 L16.6556873,29.0990991 C17.0158103,29.4144144 17.1958718,29.8648649 17.1958718,30.3603604 L17.1958718,34.5045045 C17.1958718,35.4954955 16.3855951,36.3063063 15.3952569,36.3063063 C14.4049188,36.3063063 13.5946421,35.4954955 13.5946421,34.5045045 L13.5946421,31.0810811 L7.33750549,24.8648649 C6.97738252,24.5495495 6.79732104,24.0990991 6.79732104,23.6036036 L6.79732104,15.9459459 C6.79732104,11.1261261 10.668643,7.25225225 15.4852877,7.25225225 C20.3019324,7.25225225 24.1732543,11.1711712 24.1732543,15.9459459 L24.1732543,16.6666667 L30.4303909,22.9279279 Z M6.79732104,33.0630631 L0.540184453,26.8018018 C0.180061484,26.4864865 -8.17124146e-14,26.036036 -8.17124146e-14,25.5405405 L-8.17124146e-14,15.4954955 C-8.17124146e-14,6.93693694 6.93236715,0 15.4852877,0 C23.4530083,0 30.0702679,5.99099099 30.8355292,13.9189189 L30.8805446,14.1891892 C30.9255599,15.1801802 30.205314,16.036036 29.2149758,16.1261261 C28.2246377,16.1711712 27.3693456,15.4504505 27.2793149,14.4594595 L27.2793149,14.2792793 C26.6941151,8.28828829 21.5173474,3.6036036 15.4852877,3.6036036 C8.91304348,3.6036036 3.60122969,8.91891892 3.60122969,15.4954955 L3.60122969,24.7747748 L9.85836627,31.036036 C9.85836627,31.036036 9.90338164,31.0810811 9.90338164,31.0810811 L9.94839701,31.0810811 C10.3985507,31.5765766 10.5335968,32.2072072 10.3985507,32.7927928 L10.3985507,34.4594595 C10.3985507,37.2522523 12.6943347,39.5495495 15.4852877,39.5495495 C18.2762407,39.5495495 20.5720246,37.2522523 20.5720246,34.4594595 L20.5720246,27.7027027 L14.1798419,21.3513514 C13.8197189,21.036036 13.6396574,20.5855856 13.6396574,20.0900901 L13.6396574,15.9009009 C13.6396574,14.9099099 14.4499341,14.0990991 15.4402723,14.0990991 C16.4306105,14.0990991 17.2408871,14.9099099 17.2408871,15.9009009 L17.2408871,19.3243243 L23.6330698,25.7207207 C23.9931928,26.036036 24.1732543,26.4864865 24.1732543,26.981982 L24.1732543,34.5045045 C24.1732543,39.3243243 20.3019324,43.1981982 15.4852877,43.1981982 C10.668643,43.1981982 6.79732104,39.2792793 6.79732104,34.5045045 L6.79732104,33.0630631 Z" id="Combined-Shape" fill="#80225F" fill-rule="nonzero"></path>
            <path d="M50.298,12.332 C55.374,12.332 57.462,16.004 58.074,17.84 L53.862,19.748 C53.322,18.56 52.386,17.012 50.19,17.012 C48.462,17.012 47.454,18.056 47.454,19.424 C47.454,23.6 58.398,22.988 58.398,30.8 C58.398,35.228 55.23,38.468 49.974,38.468 C44.574,38.468 42.342,34.688 41.622,32.636 L45.906,30.548 C46.59,32.204 47.994,33.752 50.262,33.752 C52.134,33.752 53.25,32.78 53.25,31.16 C53.25,26.84 42.378,27.56 42.378,19.496 C42.378,15.248 45.474,12.332 50.298,12.332 Z M74.056,38.468 C66.172,38.468 60.916,32.816 60.916,25.4 C60.916,17.984 66.46,12.332 74.056,12.332 C77.404,12.332 79.924,13.448 81.544,14.636 L80.104,19.1 C78.88,18.236 76.612,17.084 74.056,17.084 C69.484,17.084 66.208,20.648 66.208,25.4 C66.208,30.224 69.484,33.716 74.056,33.716 C76.792,33.716 79.132,32.492 80.32,31.664 L81.76,36.092 C80.248,37.208 77.728,38.468 74.056,38.468 Z M97.238,38.468 C89.498,38.468 84.134,32.816 84.134,25.4 C84.134,18.056 89.498,12.332 97.238,12.332 C104.978,12.332 110.342,18.056 110.342,25.4 C110.342,32.816 104.978,38.468 97.238,38.468 Z M97.238,17.084 C92.702,17.084 89.426,20.648 89.426,25.4 C89.426,30.224 92.702,33.716 97.238,33.716 C101.774,33.716 105.05,30.224 105.05,25.4 C105.05,20.648 101.774,17.084 97.238,17.084 Z M114.084,38 L114.084,12.8 L122.112,12.8 C127.044,12.8 130.392,15.896 130.392,20.648 C130.392,25.328 126.9,28.604 122.148,28.604 L119.16,28.604 L119.16,38 L114.084,38 Z M119.16,24.212 L121.428,24.212 C123.66,24.212 125.172,22.772 125.172,20.648 C125.172,18.56 123.624,17.192 121.5,17.192 L119.16,17.192 L119.16,24.212 Z M133.846,38 L133.846,12.8 L146.806,12.8 L146.806,17.372 L138.922,17.372 L138.922,22.988 L145.69,22.988 L145.69,27.488 L138.922,27.488 L138.922,33.464 L147.13,33.464 L147.13,38 L133.846,38 Z" id="SCOPE" fill="#373241"></path>
        </g>
    </g>
</svg>