<?xml version="1.0" encoding="UTF-8"?>
<svg width="148px" height="50px" viewBox="0 0 148 50" version="1.1" xmlns="http://www.w3.org/2000/svg" xmlns:xlink="http://www.w3.org/1999/xlink">
    <!-- Generator: Sketch 52.6 (67491) - http://www.bohemiancoding.com/sketch -->
    <title>shyft-scope-logo-white</title>
    <desc>Created with Sketch.</desc>
    <g id="Page-1" stroke="none" stroke-width="1" fill="none" fill-rule="evenodd">
        <g id="shyft-scope-logo-white" transform="translate(-1.000000, 0.000000)" fill="#FFFFFF">
            <path d="M31.4,22.9 C31.7,23.3 31.9,23.7 31.9,24.2 L31.9,34.5 C32,43.1 25,50 16.5,50 C8.4,50 1.6,43.6 1,35.5 C0.9,34.5 1.7,33.6 2.7,33.6 C3.7,33.5 4.6,34.3 4.6,35.3 C5,41.5 10.2,46.4 16.5,46.5 C23.1,46.5 28.4,41.1 28.4,34.6 L28.4,25 L22.2,18.8 C22,18.6 21.7,18.3 21.7,18.1 C21.7,18 21.6,17.9 21.6,17.8 C21.6,17.8 21.6,17.8 21.6,17.8 C21.6,17.6 21.6,17.4 21.6,17.3 L21.6,15.9 C21.6,13.1 19.3,10.8 16.5,10.8 C13.7,10.8 11.4,13.1 11.4,15.9 L11.4,22.8 L17.7,29.1 C18.1,29.4 18.2,29.9 18.2,30.4 L18.2,34.5 C18.2,35.5 17.4,36.3 16.4,36.3 C15.4,36.3 14.6,35.5 14.6,34.5 L14.6,31.1 L8.3,24.9 C7.9,24.6 7.8,24.1 7.8,23.6 L7.8,15.9 C7.8,11.1 11.7,7.2 16.5,7.2 C21.3,7.2 25.2,11.1 25.2,15.9 L25.2,16.6 L31.4,22.9 Z M7.8,33.1 L1.5,26.8 C1.2,26.5 1,26 1,25.5 L1,15.5 C1,6.9 7.9,0 16.5,0 C24.5,0 31.1,6 31.9,13.9 L31.9,14.2 C31.9,15.2 31.2,16 30.2,16.1 C29.2,16.1 28.4,15.4 28.3,14.4 L28.3,14.2 C27.7,8.2 22.5,3.5 16.5,3.5 C9.9,3.6 4.6,8.9 4.6,15.5 L4.6,24.8 L10.9,31 C11.4,31.5 11.5,32.1 11.4,32.7 L11.4,34.4 C11.4,37.2 13.7,39.5 16.5,39.5 C19.3,39.5 21.6,37.2 21.6,34.4 L21.6,27.6 L15.2,21.2 C14.8,20.9 14.7,20.4 14.7,19.9 L14.7,15.7 C14.7,14.7 15.5,13.9 16.5,13.9 C17.5,13.9 18.3,14.7 18.3,15.7 L18.3,19.1 L24.7,25.5 C25.1,25.8 25.2,26.3 25.2,26.8 L25.2,34.3 C25.2,39.1 21.3,43 16.5,43 C11.7,43 7.8,39.1 7.8,34.3 L7.8,33.1 Z" id="Combined-Shape_1_" fill-rule="nonzero"></path>
            <path d="M51.298,12.332 C56.374,12.332 58.462,16.004 59.074,17.84 L54.862,19.748 C54.322,18.56 53.386,17.012 51.19,17.012 C49.462,17.012 48.454,18.056 48.454,19.424 C48.454,23.6 59.398,22.988 59.398,30.8 C59.398,35.228 56.23,38.468 50.974,38.468 C45.574,38.468 43.342,34.688 42.622,32.636 L46.906,30.548 C47.59,32.204 48.994,33.752 51.262,33.752 C53.134,33.752 54.25,32.78 54.25,31.16 C54.25,26.84 43.378,27.56 43.378,19.496 C43.378,15.248 46.474,12.332 51.298,12.332 Z M75.056,38.468 C67.172,38.468 61.916,32.816 61.916,25.4 C61.916,17.984 67.46,12.332 75.056,12.332 C78.404,12.332 80.924,13.448 82.544,14.636 L81.104,19.1 C79.88,18.236 77.612,17.084 75.056,17.084 C70.484,17.084 67.208,20.648 67.208,25.4 C67.208,30.224 70.484,33.716 75.056,33.716 C77.792,33.716 80.132,32.492 81.32,31.664 L82.76,36.092 C81.248,37.208 78.728,38.468 75.056,38.468 Z M98.238,38.468 C90.498,38.468 85.134,32.816 85.134,25.4 C85.134,18.056 90.498,12.332 98.238,12.332 C105.978,12.332 111.342,18.056 111.342,25.4 C111.342,32.816 105.978,38.468 98.238,38.468 Z M98.238,17.084 C93.702,17.084 90.426,20.648 90.426,25.4 C90.426,30.224 93.702,33.716 98.238,33.716 C102.774,33.716 106.05,30.224 106.05,25.4 C106.05,20.648 102.774,17.084 98.238,17.084 Z M115.084,38 L115.084,12.8 L123.112,12.8 C128.044,12.8 131.392,15.896 131.392,20.648 C131.392,25.328 127.9,28.604 123.148,28.604 L120.16,28.604 L120.16,38 L115.084,38 Z M120.16,24.212 L122.428,24.212 C124.66,24.212 126.172,22.772 126.172,20.648 C126.172,18.56 124.624,17.192 122.5,17.192 L120.16,17.192 L120.16,24.212 Z M134.846,38 L134.846,12.8 L147.806,12.8 L147.806,17.372 L139.922,17.372 L139.922,22.988 L146.69,22.988 L146.69,27.488 L139.922,27.488 L139.922,33.464 L148.13,33.464 L148.13,38 L134.846,38 Z" id="SCOPE"></path>
        </g>
    </g>
</svg>