<?xml version="1.0" encoding="UTF-8"?>
<svg width="396px" height="158px" viewBox="0 0 396 158" version="1.1" xmlns="http://www.w3.org/2000/svg" xmlns:xlink="http://www.w3.org/1999/xlink">
    <title>Completion Screen - Coins</title>
    <defs>
        <linearGradient x1="0%" y1="25.109375%" x2="100%" y2="60.8046875%" id="linearGradient-1">
            <stop stop-color="#31185F" offset="0%"></stop>
            <stop stop-color="#A13D59" offset="50.9731756%"></stop>
            <stop stop-color="#F2854B" offset="100%"></stop>
        </linearGradient>
    </defs>
    <g stroke="none" stroke-width="1" fill="none" fill-rule="evenodd">
        <use xlink:href="#TOKEN" x="-110" y="142" transform="scale(.52)" />
        <use xlink:href="#TOKEN" x="-55" y="49" transform="scale(.76)" />
        <use xlink:href="#TOKEN" x="486" y="142" transform="scale(.52)" />
        <use xlink:href="#TOKEN" x="182" y="49" transform="scale(.76)" />
        <g id="TOKEN" transform="translate(114.281553, 0.000000)">
            <circle id="Oval" fill="url(#linearGradient-1)" cx="78.6165049" cy="78.6165049" r="78.6165049"></circle>
            <circle id="Oval-Copy" stroke="#FFFFFF" stroke-width="6" cx="78.6165049" cy="78.6165049" r="69.1825243"></circle>
            <path d="M106.522576,73.0070461 L95.0145157,61.4998108 L95.0145157,60.1397072 C95.0145157,51.3708357 87.8805744,44.2377198 79.1117029,44.2377198 C70.3436567,44.2377198 63.2097154,51.3708357 63.2097154,60.1397072 L63.2097154,74.1385401 C63.2097154,75.0125386 63.5571691,75.8518744 64.1744976,76.4708536 L75.6214857,87.9392996 L75.6214857,94.2025434 C75.6214857,96.0256434 77.099608,97.5037656 78.9227079,97.5037656 C80.7458079,97.5037656 82.2239301,96.0256434 82.2239301,94.2025434 L82.2239301,86.5734189 C82.2239301,85.698595 81.8764765,84.8600845 81.259148,84.2411054 L69.8121599,72.7726594 L69.8121599,60.1397072 C69.8121599,55.0120838 73.9840795,50.8401642 79.1117029,50.8401642 C84.2401516,50.8401642 88.4120712,55.0120838 88.4120712,60.1397072 L88.4120712,62.6180998 C88.389788,62.937493 88.4079447,63.2568863 88.478921,63.5705024 C88.4822222,63.5861832 88.4888246,63.6002134 88.4921258,63.6158942 C88.5325658,63.7859072 88.5796082,63.9550948 88.6481086,64.1185053 C88.8536097,64.6392731 89.191985,65.0865887 89.616192,65.4389942 L100.88739,76.7085416 L100.88739,94.1323924 C100.88739,106.138112 91.1190734,115.906429 79.1117029,115.906429 C67.6927752,115.906429 58.1497671,106.984051 57.3863594,95.5931833 C57.2642142,93.7742098 55.6870553,92.3984255 53.8713831,92.5197454 C52.0524096,92.6418906 50.6766253,94.2157483 50.7987705,96.0347218 C51.794089,110.880318 64.2314437,122.508873 79.1125282,122.508873 C94.7594962,122.508873 107.489834,109.77936 107.489834,94.1323924 L107.489834,75.3410102 C107.489834,74.4653611 107.141555,73.6260253 106.522576,73.0070461" id="Fill-1" fill="#FFFFFF"></path>
            <path d="M63.2657209,91.6333672 L63.2657209,94.2454593 C63.2657209,103.014331 70.3996621,110.147447 79.1677083,110.147447 C87.9365799,110.147447 95.0705211,103.014331 95.0705211,94.2454593 L95.0705211,80.4562541 C95.0705211,79.578129 94.7205915,78.7363173 94.0991364,78.1173381 L82.3880506,66.45412 L82.3880506,60.1727194 C82.3880506,58.3496195 80.9099283,56.8714972 79.0868284,56.8714972 C77.2637284,56.8714972 75.7856062,58.3496195 75.7856062,60.1727194 L75.7856062,67.8257779 C75.7856062,68.7030777 76.1355357,69.5457146 76.7569908,70.1646938 L88.4680766,81.8270866 L88.4680766,94.2454593 C88.4680766,99.373908 84.296157,103.545002 79.1677083,103.545002 C74.0400849,103.545002 69.8681653,99.373908 69.8681653,94.2454593 L69.8681653,91.1513888 C70.1314378,90.0685879 69.8516592,88.8817985 69.0065463,88.0358603 L68.9512508,87.9805648 C68.9149374,87.9434261 68.878624,87.9071126 68.8414852,87.8707992 L57.3936718,76.4238111 L57.3936718,59.4101371 C57.3936718,47.4035919 67.1619884,37.6352753 79.1685336,37.6352753 C90.2102967,37.6352753 99.726895,46.2407363 100.832804,57.2230774 L100.864991,57.5664045 C101.014372,59.3837273 102.619591,60.7364031 104.42536,60.5853722 C106.242682,60.4359919 107.594533,58.8415016 107.445153,57.025004 L107.402237,56.5653088 C105.936494,42.0093948 93.7987252,31.0328309 79.1677083,31.0328309 C63.5207403,31.0328309 50.7912274,43.7623438 50.7912274,59.4101371 L50.7912274,77.7913424 C50.7912274,78.6669916 51.138681,79.5063274 51.7576602,80.1253066 L63.2657209,91.6333672" id="Fill-3" fill="#FFFFFF"></path>
        </g>
    </g>
</svg>
