<?xml version="1.0" encoding="utf-8"?>
<!-- Generator: Adobe Illustrator 19.2.0, SVG Export Plug-In . SVG Version: 6.00 Build 0)  -->
<svg version="1.1" id="logo" xmlns="http://www.w3.org/2000/svg" xmlns:xlink="http://www.w3.org/1999/xlink" x="0px" y="0px"
	 width="675px" height="330px" viewBox="0 0 675 330" style="enable-background:new 0 0 675 330;" xml:space="preserve">
<style type="text/css">
	.st0{fill:#80225F;}
	.st1{fill:#373241;}
	.st2{fill:#3E2B2E;}
</style>
<g id="mark">
	<path id="Shape" class="st0" d="M200.8,151.3L159.5,110v-4.8c0-31.5-25.6-57.4-57.3-57.4s-57.3,25.6-57.3,57.4v50.5
		c0,3.3,1.2,6.2,3.6,8.3l41.3,41v22.6c0,6.5,5.3,11.9,11.9,11.9s11.9-5.4,11.9-11.9v-27.4c0-3.3-1.2-6.2-3.6-8.3l-41.3-41.3v-45.5
		c0-18.4,15.2-33.6,33.6-33.6s33.6,15.2,33.6,33.6v8.9c0,1.2,0,2.4,0.3,3.6c0,0,0,0,0,0.3c0,0.6,0.3,1.2,0.6,1.8
		c0.6,1.8,2.1,3.6,3.6,4.8l40.7,40.7V228c0,43.1-35.1,78.5-78.4,78.5c-41.6-0.6-75.8-32.7-78.4-73.7c-0.3-6.5-6.2-11.6-12.8-11
		c-6.5,0.3-11.6,6.2-11,12.8C3.9,288.1,48.7,330,102.2,330c56.4,0,102.2-45.8,102.2-102.3v-67.8
		C204.4,156.7,202.9,153.7,200.8,151.3z"/>
	<path id="Shape_1_" class="st0" d="M44.9,218.2v9.5c0,31.5,25.6,57.4,57.3,57.4s57.3-25.6,57.3-57.4v-49.6c0-3.3-1.2-6.2-3.6-8.3
		l-42.2-42.2v-22.6c0-6.5-5.3-11.9-11.9-11.9S90,98.4,90,104.9v27.6c0,3.3,1.2,6.2,3.6,8.3l42.2,41.9v44.6
		c0,18.4-15.2,33.6-33.6,33.6s-33.6-15.2-33.6-33.6v-11c0.9-3.9,0-8-3-11.3h-0.3l-0.3-0.3l-41.3-41.3v-61.2
		c0-43.4,35.1-78.5,78.4-78.5c39.8,0,74,30.9,77.8,70.5v1.2c0.6,6.5,6.2,11.3,12.8,11c6.5-0.6,11.3-6.2,11-12.8l-0.3-1.8
		C198.5,39.5,154.8,0,102.2,0C45.8,0,0,45.8,0,102.3v66.3c0,3.3,1.2,6.2,3.6,8.3L44.9,218.2z"/>
</g>
<g id="shyft" transform="translate(255.000000, 95.000000)">
	<path id="ft" class="st1" d="M372.4,131.7c-0.3,0-0.9-0.3-1.2-0.3l0,0c-11.3,0-13.1-5-13.1-15.4V59h11.6c5.4,0,9.8-4.4,9.8-9.8
		s-4.5-9.8-9.8-9.8h-11V10.7C358.7,4.7,353.9,0,348,0h-11v39.4h-37.8c0-15.4,1.5-21.1,16.1-19.9V0.9c0,0-3.6-0.6-9.2-0.6
		c-23.8,0-28.9,11.9-28.9,39.1h-7.4c-5.4,0-9.8,4.4-9.8,9.8s4.5,9.8,9.8,9.8h7.4v90.7h11c5.9,0,10.7-4.7,10.7-10.7V59h28.3h5.1h4.2
		v50.1c0,24.3,3,40.3,26.8,41.8h7.4c5.4,0,9.8-4.4,9.8-9.8C380.4,136.4,377.1,132.6,372.4,131.7z"/>
	<path id="y" class="st1" d="M201.4,150.1l-25-97c-1.8-6.8,3.3-13.3,10.4-13.3h1.2c5.1,0,9.5,3.6,10.4,8.3l13.7,63.5L225.7,48
		c1.2-5,5.4-8.6,10.4-8.6h1.5c7.1,0,12.2,6.5,10.4,13.3l-32.4,126.9c-1.2,4.7-5.4,8-10.4,8h-14L201.4,150.1z"/>
	<path id="h" class="st1" d="M104.4,149.8h-0.3c-5.9,0-10.7-4.7-10.7-10.7V12.5c0-6.2,5.1-11,11-11c5.9,0,10.7,4.7,10.7,10.7v27
		c0,0,3.3-3.3,15.8-3.3c13.7,0,31.5,13.9,31.5,35.3v67.6c0,6.2-5.1,11-11,11h-0.3c-5.9,0-10.7-4.7-10.7-10.7V76.2
		c0-12.8-3.6-18.4-12.8-18.4c-8,0-12.5,4.4-12.5,14.8v66.1C115.1,145,110.3,149.8,104.4,149.8z"/>
	<path id="s" class="st1" d="M0.6,45.1c0-21.6,14.9-35.9,37.5-35.9c17.3,0,30.6,9.5,35.7,25.2C75.8,41.2,70.5,48,63.3,48h-1.2
		c-4.8,0-8.9-3.3-10.4-7.7c-2.1-6.5-7.4-9.5-14-9.5c-8.6,0-14.3,5-14.3,13c0,24.6,52.9,33.2,52.9,70c0,22.8-13.7,38-38.1,38
		c-18.4,0-32.7-9.8-37.8-26.4c-2.1-6.8,3.3-13.6,10.4-13.6h1.8c4.8,0,8.6,3.3,9.8,7.7c2.4,7.4,8.6,10.4,15.8,10.4
		c8.9,0,15.5-5.3,15.5-14.5C54.1,91.6,0.6,79.8,0.6,45.1z"/>
</g>
<path id="tm" class="st2" d="M656.5,138.1h-4.3V155H649v-16.9h-4V135h11.5V138.1z M661.7,143v12h-3.2v-20h3.2l5.2,12.9l5.2-12.9h2.9
	v20h-3.2v-12l-4,9.5h-2L661.7,143z"/>
</svg>
