<?xml version="1.0" encoding="UTF-8"?>
<svg width="728px" height="194px" viewBox="0 0 728 194" version="1.1" xmlns="http://www.w3.org/2000/svg" xmlns:xlink="http://www.w3.org/1999/xlink">
    <!-- Generator: Sketch 52.6 (67491) - http://www.bohemiancoding.com/sketch -->
    <title>veriscope-logo-white</title>
    <desc>Created with Sketch.</desc>
    <g id="Page-1" stroke="none" stroke-width="1" fill="none" fill-rule="evenodd">
        <g id="veriscope-logo-white" transform="translate(0.400000, -15.000000)" fill="#FFFFFF">
            <path d="M48.0919829,191.3 C38.7000051,189.7 20.0192581,179.4 10.8336974,170.8 C-0.106408609,160.7 0.100008485,161.7 0.100008485,117 C0.100008485,79.7 0.203217032,78.4 2.37059652,73.8 C5.46685293,67.3 12.1754085,60.6 20.2256752,55.9 C23.9411829,53.8 27.3470649,52 27.6566906,52 C27.9663162,52 27.4502735,54.3 26.3149794,57 C22.083429,67.8 23.7347658,72.5 44.4796837,109.1 C60.4770085,137.4 64.6053504,142.9 72.5524085,146.8 C78.1256701,149.6 86.8983966,151.2 92.1620325,150.4 C94.6390376,150.1 96.6,150.1 96.6,150.5 C96.6,150.9 92.3684496,157.6 87.2080222,165.4 C77.4032102,180 70.9010718,187.1 65.0181846,189.5 C61.1994684,191 52.0139077,192 48.0919829,191.3 Z" id="Path" transform="translate(48.349868, 121.763995) rotate(-360.000000) translate(-48.349868, -121.763995) "></path>
            <path d="M48.0919829,191.3 C48.75195,191.3 48.75195,191.138802 48.0919829,190.816406 L69.737207,168.723633 L81.6273438,149.589844 C85.141379,150.663281 88.6529419,150.933333 92.1620325,150.4 C94.6390376,150.1 96.6,150.1 96.6,150.5 C96.6,150.9 92.3684496,157.6 87.2080222,165.4 C77.4032102,180 70.9010718,187.1 65.0181846,189.5 C61.1994684,191 44.0968029,191.3 48.0919829,191.3 Z" id="Path" transform="translate(72.045688, 170.444922) rotate(-360.000000) translate(-72.045688, -170.444922) "></path>
            <path d="M101.137038,143.536673 C91.7450603,142.002622 73.0643133,132.12717 63.8787526,123.881646 C52.9386466,114.19795 53.1450637,115.156732 53.1450637,72.2991851 C53.1450637,36.5366237 53.2482723,35.2902074 55.4156518,30.8798111 C58.5119082,24.6477293 64.3752272,16.4859884 72.4254939,11.9797139 C76.1410016,9.96627208 88.6099615,4.18847782 88.9195872,4.18847782 C89.2292128,4.18847782 84.5431781,11.4317224 83.4078841,14.0204333 C82.7314868,25.3343483 88.218413,42.9668247 98.4310468,64.3196101 C112.457177,93.6457336 117.650406,97.1316339 125.597464,100.870883 C131.170725,103.555472 139.943452,105.089523 145.207088,104.322497 C147.684093,104.034863 149.645055,104.034863 149.645055,104.418376 C149.645055,104.801888 145.413505,111.225726 140.253077,118.704225 C130.448265,132.702439 123.946127,139.50979 118.06324,141.810866 C114.244524,143.249039 105.058963,144.207821 101.137038,143.536673 Z" id="Path" transform="translate(101.394923, 73.971872) rotate(-245.000000) translate(-101.394923, -73.971872) "></path>
            <path d="M110.460315,213.309736 C101.068338,211.709736 82.3875905,201.409736 73.2020298,192.809736 C62.2619238,182.709736 62.4683409,183.709736 62.4683409,139.009736 C62.4683409,101.709736 62.5715494,100.409736 64.7389289,95.8097358 C67.8351853,89.3097358 74.5437409,82.6097358 82.5940076,77.9097358 C86.3095153,75.8097358 89.7153973,74.0097358 90.025023,74.0097358 C90.3346486,74.0097358 89.8186059,76.3097358 88.6833119,79.0097358 C84.4517614,89.8097358 86.1030982,94.5097358 106.848016,131.109736 C122.845341,159.409736 126.973683,164.909736 134.920741,168.809736 C140.494002,171.609736 149.266729,173.209736 154.530365,172.409736 C157.00737,172.109736 162.683575,170.416896 162.683575,170.816896 C162.683575,171.216896 157.360641,181.064165 152.200214,188.864165 C142.395402,203.464165 139.581741,208.035305 133.698854,210.435305 C129.880138,211.935305 114.38224,214.009736 110.460315,213.309736 Z" id="Path" transform="translate(112.575821, 143.729783) rotate(-119.000000) translate(-112.575821, -143.729783) "></path>
            <path d="M22.2423735,95.9074219 C22.9023406,95.9074219 22.9023406,95.746224 22.2423735,95.4238281 L43.8875977,73.3310547 L55.7777344,54.1972656 C59.2917696,55.2707031 62.8033325,55.5407552 66.3124231,55.0074219 C68.7894282,54.7074219 70.7503906,54.7074219 70.7503906,55.1074219 C70.7503906,55.5074219 66.5188402,62.2074219 61.3584128,70.0074219 C51.5536009,84.6074219 45.0514624,91.7074219 39.1685752,94.1074219 C35.349859,95.6074219 18.2471935,95.9074219 22.2423735,95.9074219 Z" id="Path" transform="translate(46.196078, 75.052344) rotate(-244.000000) translate(-46.196078, -75.052344) "></path>
            <path d="M117.345683,115.276794 C118.00565,115.276794 125.124276,108.490428 138.701559,94.9176949 L150.591696,75.7839058 C154.105731,76.8573433 157.617294,77.1273954 161.126385,76.594062 C163.60339,76.294062 165.564352,76.294062 165.564352,76.694062 C165.564352,77.094062 161.332802,83.794062 156.172374,91.594062 C146.367562,106.194062 142.102195,109.977912 136.219308,112.377912 C132.400592,113.877912 113.350503,115.276794 117.345683,115.276794 Z" id="Path" transform="translate(141.181243, 95.530350) rotate(-124.000000) translate(-141.181243, -95.530350) "></path>
            <path d="M245.767507,150 L229.702507,150 L202.612507,76.5 L218.887507,76.5 L237.682507,132.57 L256.477507,76.5 L272.752507,76.5 L245.767507,150 Z M281.146673,150 L281.146673,76.5 L318.946673,76.5 L318.946673,89.835 L295.951673,89.835 L295.951673,106.215 L315.691673,106.215 L315.691673,119.34 L295.951673,119.34 L295.951673,136.77 L319.891673,136.77 L319.891673,150 L281.146673,150 Z M332.380839,150 L332.380839,76.5 L354.535839,76.5 C370.600839,76.5 379.420839,86.265 379.420839,98.34 C379.420839,107.265 375.010839,114.09 368.290839,117.765 L385.720839,150 L369.340839,150 L355.060839,121.23 L347.185839,121.23 L347.185839,150 L332.380839,150 Z M347.185839,108.735 L354.115839,108.735 C359.470839,108.735 364.195839,105.375 364.195839,98.865 C364.195839,92.985 360.100839,89.31 353.380839,89.31 L347.185839,89.31 L347.185839,108.735 Z M394.535005,150 L394.535005,76.5 L409.340005,76.5 L409.340005,150 L394.535005,150 Z M444.71917,75.135 C459.52417,75.135 465.61417,85.845 467.39917,91.2 L455.11417,96.765 C453.53917,93.3 450.80917,88.785 444.40417,88.785 C439.36417,88.785 436.42417,91.83 436.42417,95.82 C436.42417,108 468.34417,106.215 468.34417,129 C468.34417,141.915 459.10417,151.365 443.77417,151.365 C428.02417,151.365 421.51417,140.34 419.41417,134.355 L431.90917,128.265 C433.90417,133.095 437.99917,137.61 444.61417,137.61 C450.07417,137.61 453.32917,134.775 453.32917,130.05 C453.32917,117.45 421.61917,119.55 421.61917,96.03 C421.61917,83.64 430.64917,75.135 444.71917,75.135 Z M514.013336,151.365 C491.018336,151.365 475.688336,134.88 475.688336,113.25 C475.688336,91.62 491.858336,75.135 514.013336,75.135 C523.778336,75.135 531.128336,78.39 535.853336,81.855 L531.653336,94.875 C528.083336,92.355 521.468336,88.995 514.013336,88.995 C500.678336,88.995 491.123336,99.39 491.123336,113.25 C491.123336,127.32 500.678336,137.505 514.013336,137.505 C521.993336,137.505 528.818336,133.935 532.283336,131.52 L536.483336,144.435 C532.073336,147.69 524.723336,151.365 514.013336,151.365 Z M581.627502,151.365 C559.052502,151.365 543.407502,134.88 543.407502,113.25 C543.407502,91.83 559.052502,75.135 581.627502,75.135 C604.202502,75.135 619.847502,91.83 619.847502,113.25 C619.847502,134.88 604.202502,151.365 581.627502,151.365 Z M581.627502,88.995 C568.397502,88.995 558.842502,99.39 558.842502,113.25 C558.842502,127.32 568.397502,137.505 581.627502,137.505 C594.857502,137.505 604.412502,127.32 604.412502,113.25 C604.412502,99.39 594.857502,88.995 581.627502,88.995 Z M630.761668,150 L630.761668,76.5 L654.176668,76.5 C668.561668,76.5 678.326668,85.53 678.326668,99.39 C678.326668,113.04 668.141668,122.595 654.281668,122.595 L645.566668,122.595 L645.566668,150 L630.761668,150 Z M645.566668,109.785 L652.181668,109.785 C658.691668,109.785 663.101668,105.585 663.101668,99.39 C663.101668,93.3 658.586668,89.31 652.391668,89.31 L645.566668,89.31 L645.566668,109.785 Z M688.400834,150 L688.400834,76.5 L726.200834,76.5 L726.200834,89.835 L703.205834,89.835 L703.205834,106.215 L722.945834,106.215 L722.945834,119.34 L703.205834,119.34 L703.205834,136.77 L727.145834,136.77 L727.145834,150 L688.400834,150 Z" id="VERISCOPE"></path>
        </g>
    </g>
</svg>