<?xml version="1.0" encoding="utf-8"?>
<!-- Generator: Adobe Illustrator 19.2.0, SVG Export Plug-In . SVG Version: 6.00 Build 0)  -->
<svg version="1.1" id="Layer_1" xmlns="http://www.w3.org/2000/svg" xmlns:xlink="http://www.w3.org/1999/xlink" x="0px" y="0px"
	 width="38.4px" height="37.4px" viewBox="0 0 38.4 37.4" style="enable-background:new 0 0 38.4 37.4;" xml:space="preserve">
<style type="text/css">
	.st0{fill:#AAAAAA;}
</style>
<path class="st0" d="M0.7,18.5c0,2.2,0.5,4.3,1.2,6.4l5.9-2.1c0.5,1.4,1.3,2.7,2.2,3.8l-4.8,4c1.4,1.7,3.1,3.1,5,4.2l3.1-5.4
	c1.3,0.7,2.6,1.2,4.1,1.5l-1.1,6.2c1,0.2,2.1,0.3,3.2,0.3c1.1,0,2.2-0.1,3.3-0.3l-1.1-6.2c1.5-0.3,2.9-0.8,4.1-1.5l3.1,5.4
	c1.9-1.1,3.6-2.5,5-4.2l-4.8-4c1-1.2,1.7-2.4,2.2-3.8l5.9,2.1c0.8-2,1.2-4.2,1.2-6.4h-6.3c0-1.6-0.3-3-0.8-4.3l5.9-2.2
	c-0.8-2-1.9-3.9-3.3-5.6l-4.8,4c-0.9-1.1-2-2.1-3.3-2.8l3.1-5.4C27,1.1,25,0.4,22.8,0l-1.1,6.3c-0.6-0.1-1.4-0.2-2.1-0.2
	c-0.8,0-1.5,0.1-2.2,0.2l-1.1-6.2c-2.1,0.3-4.2,1.1-6.1,2.2l3.1,5.4c-1.2,0.7-2.4,1.7-3.3,2.8l-4.8-4C3.8,8.1,2.7,10,2,12.1l5.7,2.1
	c-0.5,1.4-0.9,2.8-0.9,4.3H0.7z"/>
</svg>
