<?xml version="1.0" encoding="UTF-8"?>
<svg width="18px" height="17px" viewBox="0 0 18 17" version="1.1" xmlns="http://www.w3.org/2000/svg" xmlns:xlink="http://www.w3.org/1999/xlink">
    <!-- Generator: Sketch 50.2 (55047) - http://www.bohemiancoding.com/sketch -->
    <title>Shape</title>
    <desc>Created with Sketch.</desc>
    <defs></defs>
    <g id="Symbols" stroke="none" stroke-width="1" fill="none" fill-rule="evenodd">
        <g id="footer-v2" transform="translate(-1423.000000, -12.000000)" fill="#C35951" fill-rule="nonzero">
            <path d="M1431.71488,12 C1426.90281,12 1423,15.9020887 1423,20.7148827 C1423,24.5654083 1425.49681,27.8320369 1428.96025,28.9845801 C1429.39527,29.0651928 1429.53616,28.7950314 1429.53616,28.5655395 L1429.53616,26.9431188 C1427.11197,27.4703692 1426.60724,25.9147627 1426.60724,25.9147627 C1426.21071,24.9074675 1425.63916,24.6394848 1425.63916,24.6394848 C1424.84828,24.0984359 1425.69943,24.1100557 1425.69943,24.1100557 C1426.57455,24.1710599 1427.03499,25.0084149 1427.03499,25.0084149 C1427.81207,26.3403395 1429.07355,25.9554321 1429.57102,25.7324764 C1429.64873,25.1696402 1429.87459,24.7847329 1430.12442,24.5675871 C1428.18899,24.3460838 1426.15406,23.5987826 1426.15406,20.2602563 C1426.15406,19.3081554 1426.49467,18.5310783 1427.05169,17.9210365 C1426.96164,17.7009858 1426.66316,16.8142464 1427.13666,15.6144976 C1427.13666,15.6144976 1427.86871,15.3806482 1429.53398,16.5077731 C1430.229,16.3145932 1430.97412,16.2180032 1431.71488,16.214372 C1432.45565,16.2180032 1433.2015,16.3145932 1433.89796,16.5077731 C1435.56178,15.3806482 1436.29237,15.6144976 1436.29237,15.6144976 C1436.76661,16.8149727 1436.46812,17.701712 1436.37807,17.9210365 C1436.93728,18.5310783 1437.27498,19.3088816 1437.27498,20.2602563 C1437.27498,23.6074975 1435.23642,24.3446313 1433.29591,24.5603247 C1433.60819,24.830486 1433.8936,25.3606414 1433.8936,26.1740304 L1433.8936,28.5655395 C1433.8936,28.7972101 1434.03304,29.0695502 1434.47532,28.9838539 C1437.93586,27.8298581 1440.42977,24.5639559 1440.42977,20.7148827 C1440.42977,15.9020887 1436.52768,12 1431.71488,12 Z" id="Shape"></path>
        </g>
    </g>
</svg>