<?xml version="1.0" encoding="UTF-8"?>
<svg width="17px" height="17px" viewBox="0 0 17 17" version="1.1" xmlns="http://www.w3.org/2000/svg" xmlns:xlink="http://www.w3.org/1999/xlink">
    <!-- Generator: Sketch 50.2 (55047) - http://www.bohemiancoding.com/sketch -->
    <title>Medium</title>
    <desc>Created with Sketch.</desc>
    <defs></defs>
    <g id="Symbols" stroke="none" stroke-width="1" fill="none" fill-rule="evenodd">
        <g id="footer-v2" transform="translate(-1398.000000, -12.000000)" fill-rule="nonzero">
            <g id="Medium" transform="translate(1398.000000, 12.000000)">
                <rect id="Rectangle-path" fill="#C35951" x="0" y="0" width="17" height="17"></rect>
                <path d="M4.05681726,5.68547611 C4.07100637,5.54528294 4.01754462,5.40671757 3.91286121,5.31236226 L2.84652015,4.02778456 L2.84652015,3.83589744 L6.15750916,3.83589744 L8.71672772,9.44859582 L10.9667074,3.83589744 L14.1230769,3.83589744 L14.1230769,4.02778456 L13.2113553,4.90193702 C13.1327549,4.96185083 13.0937651,5.06032341 13.1100529,5.15778652 L13.1100529,11.5806751 C13.0937651,11.6781381 13.1327549,11.7766107 13.2113553,11.8365245 L14.1017501,12.710677 L14.1017501,12.9025641 L9.62311764,12.9025641 L9.62311764,12.710677 L10.5455027,11.8152037 C10.6361416,11.7245903 10.6361416,11.6979394 10.6361416,11.5593543 L10.6361416,6.36774145 L8.07159137,12.8812433 L7.72503053,12.8812433 L4.73927554,6.36774145 L4.73927554,10.7331735 C4.7143814,10.9167086 4.77533661,11.1014882 4.9045584,11.2342122 L6.1041921,12.6893562 L6.1041921,12.8812433 L2.7025641,12.8812433 L2.7025641,12.6893562 L3.9021978,11.2342122 C4.03047875,11.1012682 4.08787961,10.9152628 4.05681726,10.7331735 L4.05681726,5.68547611 Z" id="Shape" fill="#FFFFFF"></path>
            </g>
        </g>
    </g>
</svg>