<svg id="Layer_1" data-name="Layer 1" xmlns="http://www.w3.org/2000/svg" viewBox="0 0 88 73.42"><defs><style>.cls-1{fill:#c35951;fill-rule:evenodd;}</style></defs><title>telegram</title><path class="cls-1" d="M27,40.76,33.2,61.09l1.36-12.88L71.91,14.49A1,1,0,0,0,72,13.11a1,1,0,0,0-1.38-.24ZM67.41,72.61a4.33,4.33,0,0,0,4.06.53,4.24,4.24,0,0,0,2.65-3.08C77.31,55.07,85,17.12,87.94,3.48A2.85,2.85,0,0,0,87,.7,2.92,2.92,0,0,0,84.06.18C68.69,5.88,21.34,23.67,2,30.84a3,3,0,0,0-2,2.93,3.06,3.06,0,0,0,2.18,2.81c8.67,2.59,20.07,6.21,20.07,6.21s5.32,16.1,8.1,24.28a3.15,3.15,0,0,0,5.18,1.36L46.88,57.7S60,67.31,67.41,72.61Z" transform="translate(0)"/></svg>