<?xml version="1.0" encoding="UTF-8"?>
<svg width="20px" height="16px" viewBox="0 0 20 16" version="1.1" xmlns="http://www.w3.org/2000/svg" xmlns:xlink="http://www.w3.org/1999/xlink">
    <!-- Generator: Sketch 47.1 (45422) - http://www.bohemiancoding.com/sketch -->
    <title>twitter-icon</title>
    <desc>Created with Sketch.</desc>
    <defs></defs>
    <g id="Full-Site" stroke="none" stroke-width="1" fill="none" fill-rule="evenodd">
        <g id="Desktop---Home" transform="translate(-1580.000000, -5742.000000)" fill-rule="nonzero" fill="#C35951">
            <g id="--Footer-links" transform="translate(160.000000, 5738.000000)">
                <g id="twitter-icon" transform="translate(1420.000000, 4.000000)">
                    <path d="M19.6882691,1.89417555 C18.9639048,2.21575062 18.1853979,2.43232158 17.3683347,2.52994258 C18.2026251,2.03035275 18.8433142,1.23872026 19.1443806,0.295324036 C18.364233,0.757998359 17.4995898,1.09433962 16.5791632,1.27563577 C15.8433142,0.490566038 14.7924528,0 13.630845,0 C11.0229696,0 9.10664479,2.43314192 9.69565217,4.95898277 C6.33962264,4.79081214 3.36341263,3.18293683 1.37079573,0.739130435 C0.312551272,2.55455291 0.821985234,4.92945037 2.62018048,6.13207547 C1.95898277,6.11074651 1.33552092,5.92945037 0.791632486,5.62674323 C0.74733388,7.49794914 2.08859721,9.2485644 4.03117309,9.63822806 C3.46267432,9.79245283 2.84003281,9.82854799 2.20672683,9.707137 C2.72026251,11.3117309 4.21164889,12.4790812 5.98031173,12.511895 C4.28219852,13.8433142 2.14273995,14.438064 0,14.1853979 C1.78753076,15.3314192 3.91140279,16 6.19196062,16 C13.6915505,16 17.92863,9.66611977 17.6726825,3.9852338 C18.461854,3.41509434 19.1468417,2.70385562 19.6882691,1.89417555 Z" id="twitter"></path>
                </g>
            </g>
        </g>
    </g>
</svg>